G04*
G04 #@! TF.GenerationSoftware,Altium Limited,Altium Designer,23.4.1 (23)*
G04*
G04 Layer_Color=128*
%FSLAX44Y44*%
%MOMM*%
G71*
G04*
G04 #@! TF.SameCoordinates,A38F0C46-2886-41F3-B9C8-1B8298131EAA*
G04*
G04*
G04 #@! TF.FilePolarity,Positive*
G04*
G01*
G75*
%ADD67C,0.1270*%
D67*
X62000Y617500D02*
X73000D01*
X67500Y612000D02*
Y623000D01*
X188500Y93250D02*
X199500D01*
X194000Y87750D02*
Y98750D01*
X112500Y93250D02*
X123500D01*
X118000Y87750D02*
Y98750D01*
X87500Y93250D02*
X98500D01*
X93000Y87750D02*
Y98750D01*
X87500Y43250D02*
X98500D01*
X93000Y37750D02*
Y48750D01*
X112500Y43250D02*
X123500D01*
X118000Y37750D02*
Y48750D01*
X188500Y43250D02*
X199500D01*
X194000Y37750D02*
Y48750D01*
X119250Y858250D02*
X130250D01*
X124750Y852750D02*
Y863750D01*
X119250Y934250D02*
X130250D01*
X124750Y928750D02*
Y939750D01*
X119250Y959250D02*
X130250D01*
X124750Y953750D02*
Y964750D01*
X69250Y959250D02*
X80250D01*
X74750Y953750D02*
Y964750D01*
X69250Y934250D02*
X80250D01*
X74750Y928750D02*
Y939750D01*
X69250Y858250D02*
X80250D01*
X74750Y852750D02*
Y863750D01*
X408500Y858750D02*
X419500D01*
X414000Y853250D02*
Y864250D01*
X408500Y934750D02*
X419500D01*
X414000Y929250D02*
Y940250D01*
X408500Y959750D02*
X419500D01*
X414000Y954250D02*
Y965250D01*
X358500Y959750D02*
X369500D01*
X364000Y954250D02*
Y965250D01*
X358500Y934750D02*
X369500D01*
X364000Y929250D02*
Y940250D01*
X358500Y858750D02*
X369500D01*
X364000Y853250D02*
Y864250D01*
X312000Y858500D02*
X323000D01*
X317500Y853000D02*
Y864000D01*
X312000Y934500D02*
X323000D01*
X317500Y929000D02*
Y940000D01*
X312000Y959500D02*
X323000D01*
X317500Y954000D02*
Y965000D01*
X262000Y959500D02*
X273000D01*
X267500Y954000D02*
Y965000D01*
X262000Y934500D02*
X273000D01*
X267500Y929000D02*
Y940000D01*
X262000Y858500D02*
X273000D01*
X267500Y853000D02*
Y864000D01*
X215500Y858250D02*
X226500D01*
X221000Y852750D02*
Y863750D01*
X215500Y934250D02*
X226500D01*
X221000Y928750D02*
Y939750D01*
X215500Y959250D02*
X226500D01*
X221000Y953750D02*
Y964750D01*
X165500Y959250D02*
X176500D01*
X171000Y953750D02*
Y964750D01*
X165500Y934250D02*
X176500D01*
X171000Y928750D02*
Y939750D01*
X165500Y858250D02*
X176500D01*
X171000Y852750D02*
Y863750D01*
X477000Y196100D02*
X488000D01*
X482500Y190600D02*
Y201600D01*
X477000Y170700D02*
X488000D01*
X482500Y165200D02*
Y176200D01*
X477000Y64100D02*
X488000D01*
X482500Y58600D02*
Y69600D01*
X661000Y89500D02*
X672000D01*
X666500Y84000D02*
Y95000D01*
X661000Y64100D02*
X672000D01*
X666500Y58600D02*
Y69600D01*
X477000Y89500D02*
X488000D01*
X482500Y84000D02*
Y95000D01*
X661000Y170700D02*
X672000D01*
X666500Y165200D02*
Y176200D01*
X661000Y196100D02*
X672000D01*
X666500Y190600D02*
Y201600D01*
X661000Y415850D02*
X672000D01*
X666500Y410350D02*
Y421350D01*
X661000Y390450D02*
X672000D01*
X666500Y384950D02*
Y395950D01*
X477000Y309250D02*
X488000D01*
X482500Y303750D02*
Y314750D01*
X661000Y283850D02*
X672000D01*
X666500Y278350D02*
Y289350D01*
X661000Y309250D02*
X672000D01*
X666500Y303750D02*
Y314750D01*
X477000Y283850D02*
X488000D01*
X482500Y278350D02*
Y289350D01*
X477000Y390450D02*
X488000D01*
X482500Y384950D02*
Y395950D01*
X477000Y415850D02*
X488000D01*
X482500Y410350D02*
Y421350D01*
X92000Y292500D02*
X103000D01*
X97500Y287000D02*
Y298000D01*
X92000Y352500D02*
X103000D01*
X97500Y347000D02*
Y358000D01*
X92000Y322500D02*
X103000D01*
X97500Y317000D02*
Y328000D01*
X92000Y382500D02*
X103000D01*
X97500Y377000D02*
Y388000D01*
X955760Y637900D02*
X966760D01*
X961260Y632400D02*
Y643400D01*
X955760Y587100D02*
X966760D01*
X961260Y581600D02*
Y592600D01*
X955760Y612500D02*
X966760D01*
X961260Y607000D02*
Y618000D01*
X653500Y701400D02*
X664500D01*
X659000Y695900D02*
Y706900D01*
X780500Y701400D02*
X791500D01*
X786000Y695900D02*
Y706900D01*
X907500Y523600D02*
X918500D01*
X913000Y518100D02*
Y529100D01*
X780500Y523600D02*
X791500D01*
X786000Y518100D02*
Y529100D01*
X475700Y701400D02*
X486700D01*
X481200Y695900D02*
Y706900D01*
X501100Y701400D02*
X512100D01*
X506600Y695900D02*
Y706900D01*
X551900Y701400D02*
X562900D01*
X557400Y695900D02*
Y706900D01*
X577300Y701400D02*
X588300D01*
X582800Y695900D02*
Y706900D01*
X602700Y701400D02*
X613700D01*
X608200Y695900D02*
Y706900D01*
X628100Y701400D02*
X639100D01*
X633600Y695900D02*
Y706900D01*
X678900Y701400D02*
X689900D01*
X684400Y695900D02*
Y706900D01*
X704300Y701400D02*
X715300D01*
X709800Y695900D02*
Y706900D01*
X729700Y701400D02*
X740700D01*
X735200Y695900D02*
Y706900D01*
X755100Y701400D02*
X766100D01*
X760600Y695900D02*
Y706900D01*
X805900Y701400D02*
X816900D01*
X811400Y695900D02*
Y706900D01*
X831300Y701400D02*
X842300D01*
X836800Y695900D02*
Y706900D01*
X856700Y701400D02*
X867700D01*
X862200Y695900D02*
Y706900D01*
X882100Y701400D02*
X893100D01*
X887600Y695900D02*
Y706900D01*
X932900Y701400D02*
X943900D01*
X938400Y695900D02*
Y706900D01*
X958300Y701400D02*
X969300D01*
X963800Y695900D02*
Y706900D01*
X958300Y523600D02*
X969300D01*
X963800Y518100D02*
Y529100D01*
X932900Y523600D02*
X943900D01*
X938400Y518100D02*
Y529100D01*
X882100Y523600D02*
X893100D01*
X887600Y518100D02*
Y529100D01*
X856700Y523600D02*
X867700D01*
X862200Y518100D02*
Y529100D01*
X831300Y523600D02*
X842300D01*
X836800Y518100D02*
Y529100D01*
X805900Y523600D02*
X816900D01*
X811400Y518100D02*
Y529100D01*
X755100Y523600D02*
X766100D01*
X760600Y518100D02*
Y529100D01*
X729700Y523600D02*
X740700D01*
X735200Y518100D02*
Y529100D01*
X704300Y523600D02*
X715300D01*
X709800Y518100D02*
Y529100D01*
X678900Y523600D02*
X689900D01*
X684400Y518100D02*
Y529100D01*
X628100Y523600D02*
X639100D01*
X633600Y518100D02*
Y529100D01*
X602700Y523600D02*
X613700D01*
X608200Y518100D02*
Y529100D01*
X577300Y523600D02*
X588300D01*
X582800Y518100D02*
Y529100D01*
X551900Y523600D02*
X562900D01*
X557400Y518100D02*
Y529100D01*
X501100Y523600D02*
X512100D01*
X506600Y518100D02*
Y529100D01*
X475700Y523600D02*
X486700D01*
X481200Y518100D02*
Y529100D01*
X526500Y523600D02*
X537500D01*
X532000Y518100D02*
Y529100D01*
X653500Y523600D02*
X664500D01*
X659000Y518100D02*
Y529100D01*
X526500Y701400D02*
X537500D01*
X532000Y695900D02*
Y706900D01*
X907500Y701400D02*
X918500D01*
X913000Y695900D02*
Y706900D01*
X62000Y707500D02*
X73000D01*
X67500Y702000D02*
Y713000D01*
X62000Y677500D02*
X73000D01*
X67500Y672000D02*
Y683000D01*
X62000Y767500D02*
X73000D01*
X67500Y762000D02*
Y773000D01*
X62000Y737500D02*
X73000D01*
X67500Y732000D02*
Y743000D01*
X62000Y647500D02*
X73000D01*
X67500Y642000D02*
Y653000D01*
X62000Y527500D02*
X73000D01*
X67500Y522000D02*
Y533000D01*
X62000Y497500D02*
X73000D01*
X67500Y492000D02*
Y503000D01*
X62000Y587500D02*
X73000D01*
X67500Y582000D02*
Y593000D01*
X62000Y557500D02*
X73000D01*
X67500Y552000D02*
Y563000D01*
X10650Y518900D02*
X40650D01*
X25650Y503900D02*
Y533900D01*
X10650Y745900D02*
X40650D01*
X25650Y730900D02*
Y760900D01*
X92000Y497500D02*
X103000D01*
X97500Y492000D02*
Y503000D01*
X92000Y527500D02*
X103000D01*
X97500Y522000D02*
Y533000D01*
X92000Y557500D02*
X103000D01*
X97500Y552000D02*
Y563000D01*
X92000Y587500D02*
X103000D01*
X97500Y582000D02*
Y593000D01*
X92000Y617500D02*
X103000D01*
X97500Y612000D02*
Y623000D01*
X92000Y647500D02*
X103000D01*
X97500Y642000D02*
Y653000D01*
X92000Y677500D02*
X103000D01*
X97500Y672000D02*
Y683000D01*
X92000Y707500D02*
X103000D01*
X97500Y702000D02*
Y713000D01*
X92000Y737500D02*
X103000D01*
X97500Y732000D02*
Y743000D01*
X92000Y767500D02*
X103000D01*
X97500Y762000D02*
Y773000D01*
X890300Y88000D02*
X901300D01*
X895800Y82500D02*
Y93500D01*
X763300Y88000D02*
X774300D01*
X768800Y82500D02*
Y93500D01*
X788700Y88000D02*
X799700D01*
X794200Y82500D02*
Y93500D01*
X814100Y88000D02*
X825100D01*
X819600Y82500D02*
Y93500D01*
X839500Y88000D02*
X850500D01*
X845000Y82500D02*
Y93500D01*
X864900Y88000D02*
X875900D01*
X870400Y82500D02*
Y93500D01*
X915700Y88000D02*
X926700D01*
X921200Y82500D02*
Y93500D01*
X851700Y376000D02*
X862700D01*
X857200Y370500D02*
Y381500D01*
X826300Y376000D02*
X837300D01*
X831800Y370500D02*
Y381500D01*
X62000Y352500D02*
X73000D01*
X67500Y347000D02*
Y358000D01*
X62000Y322500D02*
X73000D01*
X67500Y317000D02*
Y328000D01*
X62000Y292500D02*
X73000D01*
X67500Y287000D02*
Y298000D01*
X62000Y262500D02*
X73000D01*
X67500Y257000D02*
Y268000D01*
X92000Y262500D02*
X103000D01*
X97500Y257000D02*
Y268000D01*
X62000Y382500D02*
X73000D01*
X67500Y377000D02*
Y388000D01*
X10650Y360900D02*
X40650D01*
X25650Y345900D02*
Y375900D01*
X10650Y283900D02*
X40650D01*
X25650Y268900D02*
Y298900D01*
X552944Y336000D02*
X560056D01*
X556500Y332444D02*
Y339556D01*
X387444Y-99250D02*
X394556D01*
X391000Y-102806D02*
Y-95694D01*
X305694Y123500D02*
X312806D01*
X309250Y119944D02*
Y127056D01*
X91944Y63750D02*
X99056D01*
X95500Y60194D02*
Y67306D01*
X711944Y587500D02*
X719056D01*
X715500Y583944D02*
Y591056D01*
X428194Y558000D02*
X435306D01*
X431750Y554444D02*
Y561556D01*
X410444Y547150D02*
X417556D01*
X414000Y543594D02*
Y550706D01*
X345444Y547150D02*
X352556D01*
X349000Y543594D02*
Y550706D01*
X345444Y575627D02*
X352556D01*
X349000Y572071D02*
Y579183D01*
X311881Y385164D02*
X318993D01*
X315437Y381608D02*
Y388720D01*
X379964Y336020D02*
X387076D01*
X383520Y332464D02*
Y339576D01*
X745194Y857750D02*
X752306D01*
X748750Y854194D02*
Y861306D01*
X488944Y849250D02*
X496056D01*
X492500Y845694D02*
Y852806D01*
X962694Y838000D02*
X969806D01*
X966250Y834444D02*
Y841556D01*
X597694Y128750D02*
X604806D01*
X601250Y125194D02*
Y132306D01*
X63194Y452750D02*
X70306D01*
X66750Y449194D02*
Y456306D01*
X317944Y664750D02*
X325056D01*
X321500Y661194D02*
Y668306D01*
X560444Y854000D02*
X567556D01*
X564000Y850444D02*
Y857556D01*
X519944Y430500D02*
X527056D01*
X523500Y426944D02*
Y434056D01*
X532444Y443150D02*
X539556D01*
X536000Y439594D02*
Y446706D01*
X148214Y151770D02*
X155326D01*
X151770Y148214D02*
Y155326D01*
X909444Y951000D02*
X916556D01*
X913000Y947444D02*
Y954556D01*
X705444Y952000D02*
X712556D01*
X709000Y948444D02*
Y955556D01*
X104444Y409000D02*
X111556D01*
X108000Y405444D02*
Y412556D01*
X453444Y798000D02*
X460556D01*
X457000Y794444D02*
Y801556D01*
X939444Y296500D02*
X946556D01*
X943000Y292944D02*
Y300056D01*
X331444Y200500D02*
X338556D01*
X335000Y196944D02*
Y204056D01*
X301444Y234000D02*
X308556D01*
X305000Y230444D02*
Y237556D01*
X351444Y169000D02*
X358556D01*
X355000Y165444D02*
Y172556D01*
X947000Y555500D02*
X968000D01*
X957500Y545000D02*
Y566000D01*
X477000Y669500D02*
X498000D01*
X487500Y659000D02*
Y680000D01*
X947000Y669500D02*
X968000D01*
X957500Y659000D02*
Y680000D01*
X477000Y555500D02*
X498000D01*
X487500Y545000D02*
Y566000D01*
X10000Y25000D02*
X40000D01*
X25000Y10000D02*
Y40000D01*
X746194Y36000D02*
X753306D01*
X749750Y32444D02*
Y39556D01*
X230944Y238000D02*
X238056D01*
X234500Y234444D02*
Y241556D01*
X722444Y336750D02*
X729556D01*
X726000Y333194D02*
Y340306D01*
X119444Y766000D02*
X126556D01*
X123000Y762444D02*
Y769556D01*
X515444Y480000D02*
X522556D01*
X519000Y476444D02*
Y483556D01*
X385444Y620000D02*
X392556D01*
X389000Y616444D02*
Y623556D01*
X336444Y681000D02*
X343556D01*
X340000Y677444D02*
Y684556D01*
X518444Y595000D02*
X525556D01*
X522000Y591444D02*
Y598556D01*
X533444Y613000D02*
X540556D01*
X537000Y609444D02*
Y616556D01*
X550444Y455000D02*
X557556D01*
X554000Y451444D02*
Y458556D01*
X548444Y895000D02*
X555556D01*
X552000Y891444D02*
Y898556D01*
X594444Y263000D02*
X601556D01*
X598000Y259444D02*
Y266556D01*
X808444Y952000D02*
X815556D01*
X812000Y948444D02*
Y955556D01*
X611444Y20000D02*
X618556D01*
X615000Y16444D02*
Y23556D01*
X10000Y972500D02*
X40000D01*
X25000Y957500D02*
Y987500D01*
X960000Y25000D02*
X990000D01*
X975000Y10000D02*
Y40000D01*
X960000Y975000D02*
X990000D01*
X975000Y960000D02*
Y990000D01*
M02*
