G04*
G04 #@! TF.GenerationSoftware,Altium Limited,Altium Designer,23.4.1 (23)*
G04*
G04 Layer_Physical_Order=2*
G04 Layer_Color=16711680*
%FSLAX44Y44*%
%MOMM*%
G71*
G04*
G04 #@! TF.SameCoordinates,A38F0C46-2886-41F3-B9C8-1B8298131EAA*
G04*
G04*
G04 #@! TF.FilePolarity,Positive*
G04*
G01*
G75*
%ADD53C,0.5000*%
%ADD54C,1.5000*%
%ADD55C,1.7000*%
%ADD56C,1.0000*%
%ADD57C,1.4000*%
%ADD58C,1.6000*%
%AMCUSTOMSHAPE59*
4,1,4,-0.8000,-0.8000,-0.8000,0.8000,3.0000,0.8000,3.0000,-0.8000,-0.8000,-0.8000,0.0*%
%ADD59CUSTOMSHAPE59*%

%AMCUSTOMSHAPE60*
4,1,4,-0.8000,-0.8000,0.8000,-0.8000,0.8000,3.0000,-0.8000,3.0000,-0.8000,-0.8000,0.0*%
%ADD60CUSTOMSHAPE60*%

%AMCUSTOMSHAPE61*
4,1,4,-0.8000,0.8000,0.8000,0.8000,0.8000,-3.0000,-0.8000,-3.0000,-0.8000,0.8000,0.0*%
%ADD61CUSTOMSHAPE61*%

%ADD62R,1.6000X1.6000*%
%ADD63C,1.2700*%
%ADD64C,3.5000*%
%ADD65C,3.0000*%
G36*
X1000000Y0D02*
X0D01*
Y1000000D01*
X1000000D01*
Y0D01*
D02*
G37*
%LPC*%
G36*
X977500Y992386D02*
Y977500D01*
X992386D01*
X991866Y980116D01*
X990544Y983308D01*
X988624Y986181D01*
X986181Y988624D01*
X983308Y990544D01*
X980116Y991866D01*
X977500Y992386D01*
D02*
G37*
G36*
X972500D02*
X969884Y991866D01*
X966692Y990544D01*
X963819Y988624D01*
X961376Y986181D01*
X959456Y983308D01*
X958134Y980116D01*
X957614Y977500D01*
X972500D01*
Y992386D01*
D02*
G37*
G36*
X27500Y989886D02*
Y975000D01*
X42386D01*
X41866Y977616D01*
X40544Y980808D01*
X38624Y983681D01*
X36181Y986124D01*
X33308Y988044D01*
X30116Y989366D01*
X27500Y989886D01*
D02*
G37*
G36*
X22500D02*
X19884Y989366D01*
X16692Y988044D01*
X13819Y986124D01*
X11376Y983681D01*
X9456Y980808D01*
X8134Y977616D01*
X7614Y975000D01*
X22500D01*
Y989886D01*
D02*
G37*
G36*
X992386Y972500D02*
X977500D01*
Y957614D01*
X980116Y958134D01*
X983308Y959456D01*
X986181Y961376D01*
X988624Y963819D01*
X990544Y966692D01*
X991866Y969884D01*
X992386Y972500D01*
D02*
G37*
G36*
X972500D02*
X957614D01*
X958134Y969884D01*
X959456Y966692D01*
X961376Y963819D01*
X963819Y961376D01*
X966692Y959456D01*
X969884Y958134D01*
X972500Y957614D01*
Y972500D01*
D02*
G37*
G36*
X42386Y970000D02*
X27500D01*
Y955114D01*
X30116Y955634D01*
X33308Y956956D01*
X36181Y958876D01*
X38624Y961319D01*
X40544Y964192D01*
X41866Y967384D01*
X42386Y970000D01*
D02*
G37*
G36*
X22500D02*
X7614D01*
X8134Y967384D01*
X9456Y964192D01*
X11376Y961319D01*
X13819Y958876D01*
X16692Y956956D01*
X19884Y955634D01*
X22500Y955114D01*
Y970000D01*
D02*
G37*
G36*
X873500Y997056D02*
X123678D01*
X121981Y996833D01*
X120400Y996178D01*
X119042Y995136D01*
X87222Y963316D01*
X85996Y963645D01*
X85932Y963882D01*
X84352Y966618D01*
X82118Y968852D01*
X79382Y970432D01*
X76330Y971250D01*
X73170D01*
X70118Y970432D01*
X67382Y968852D01*
X65148Y966618D01*
X63568Y963882D01*
X62750Y960830D01*
Y957670D01*
X63568Y954618D01*
X65148Y951882D01*
X67382Y949648D01*
X70118Y948068D01*
X70522Y947960D01*
X70936Y946700D01*
X70332Y945490D01*
X70118Y945432D01*
X67382Y943852D01*
X65148Y941618D01*
X63568Y938882D01*
X62750Y935830D01*
Y932670D01*
X63568Y929618D01*
X63668Y929445D01*
X63033Y928345D01*
X62701D01*
X59830Y927967D01*
X57154Y926859D01*
X54856Y925095D01*
X42155Y912394D01*
X40392Y910096D01*
X39283Y907421D01*
X38905Y904549D01*
Y761132D01*
X38465Y760950D01*
X37635Y760743D01*
X34650Y762738D01*
X31192Y764170D01*
X27521Y764900D01*
X23779D01*
X20108Y764170D01*
X16650Y762738D01*
X13538Y760658D01*
X10892Y758012D01*
X8813Y754900D01*
X7380Y751442D01*
X6650Y747771D01*
Y744029D01*
X7380Y740358D01*
X8813Y736900D01*
X10892Y733788D01*
X13538Y731142D01*
X16650Y729062D01*
X20108Y727630D01*
X23779Y726900D01*
X27521D01*
X31192Y727630D01*
X34650Y729062D01*
X37762Y731142D01*
X40408Y733788D01*
X42488Y736900D01*
X43920Y740358D01*
X44457Y743057D01*
X45835Y743475D01*
X56273Y733037D01*
X56318Y732868D01*
X57898Y730132D01*
X60132Y727898D01*
X62868Y726318D01*
X65920Y725500D01*
X69080D01*
X72132Y726318D01*
X74868Y727898D01*
X77102Y730132D01*
X78682Y732868D01*
X79500Y735920D01*
Y739080D01*
X78682Y742132D01*
X77102Y744868D01*
X74868Y747102D01*
X72132Y748682D01*
X71963Y748727D01*
X64904Y755787D01*
X65000Y756019D01*
Y767500D01*
Y778040D01*
X61095D01*
Y899953D01*
X67297Y906155D01*
X95000D01*
X97872Y906533D01*
X100547Y907642D01*
X102845Y909405D01*
X110095Y916655D01*
X111859Y918953D01*
X112967Y921628D01*
X113345Y924500D01*
Y927464D01*
X114615Y927804D01*
X115148Y926882D01*
X117382Y924648D01*
X120118Y923068D01*
X123170Y922250D01*
X126330D01*
X127112Y922459D01*
X136137D01*
X137155Y921441D01*
Y317846D01*
X110770Y291460D01*
X109500Y291987D01*
Y294080D01*
X108682Y297132D01*
X107102Y299868D01*
X104868Y302102D01*
X102132Y303682D01*
X99080Y304500D01*
X95920D01*
X92868Y303682D01*
X90132Y302102D01*
X87898Y299868D01*
X86318Y297132D01*
X85500Y294080D01*
Y290920D01*
X86318Y287868D01*
X87898Y285132D01*
X90132Y282898D01*
X92868Y281318D01*
X95920Y280500D01*
X98013D01*
X98539Y279230D01*
X93037Y273727D01*
X92868Y273682D01*
X90132Y272102D01*
X87898Y269868D01*
X86318Y267132D01*
X85500Y264080D01*
Y260920D01*
X86318Y257868D01*
X87898Y255132D01*
X90132Y252898D01*
X92868Y251318D01*
X95920Y250500D01*
X99080D01*
X102132Y251318D01*
X104868Y252898D01*
X107102Y255132D01*
X108682Y257868D01*
X108727Y258037D01*
X156095Y305405D01*
X157858Y307703D01*
X158967Y310378D01*
X159345Y313250D01*
Y856117D01*
X160615Y856284D01*
X161178Y854182D01*
X162566Y851778D01*
X164528Y849816D01*
X166932Y848428D01*
X168500Y848008D01*
Y858250D01*
Y868492D01*
X166932Y868072D01*
X164528Y866684D01*
X162566Y864722D01*
X161178Y862318D01*
X160615Y860216D01*
X159345Y860383D01*
Y903901D01*
X202000D01*
X205002Y904296D01*
X207800Y905455D01*
X210202Y907298D01*
X222223Y919320D01*
X235495Y906048D01*
X237897Y904205D01*
X240695Y903046D01*
X243697Y902651D01*
X295303D01*
X298305Y903046D01*
X301103Y904205D01*
X303505Y906048D01*
X317500Y920043D01*
X332245Y905298D01*
X334647Y903455D01*
X337445Y902296D01*
X340447Y901901D01*
X391053D01*
X394055Y902296D01*
X396853Y903455D01*
X399255Y905298D01*
X417119Y923163D01*
X418632Y923568D01*
X421368Y925148D01*
X423602Y927382D01*
X424216Y928444D01*
X509284D01*
X541650Y896078D01*
Y893637D01*
X542355Y891005D01*
X543718Y888645D01*
X545645Y886718D01*
X548005Y885355D01*
X550637Y884650D01*
X553363D01*
X555995Y885355D01*
X558355Y886718D01*
X560282Y888645D01*
X561645Y891005D01*
X562350Y893637D01*
Y896363D01*
X561645Y898995D01*
X560282Y901355D01*
X558355Y903282D01*
X555995Y904645D01*
X553363Y905350D01*
X550922D01*
X516636Y939636D01*
X515278Y940678D01*
X513697Y941333D01*
X512000Y941556D01*
X423927D01*
X423602Y942118D01*
X421368Y944352D01*
X418632Y945932D01*
X416167Y946593D01*
Y947907D01*
X418632Y948568D01*
X421368Y950148D01*
X423602Y952382D01*
X425182Y955118D01*
X426000Y958170D01*
Y961330D01*
X425182Y964382D01*
X423859Y966674D01*
X424454Y967944D01*
X682784D01*
X698650Y952078D01*
Y950637D01*
X699355Y948005D01*
X700718Y945645D01*
X702645Y943718D01*
X705005Y942355D01*
X707637Y941650D01*
X710363D01*
X712995Y942355D01*
X715355Y943718D01*
X717282Y945645D01*
X718645Y948005D01*
X719350Y950637D01*
Y953363D01*
X718645Y955995D01*
X717282Y958355D01*
X715355Y960282D01*
X712995Y961645D01*
X710363Y962350D01*
X707637D01*
X707073Y962199D01*
X694001Y975271D01*
X694487Y976444D01*
X778284D01*
X801650Y953078D01*
Y950637D01*
X802355Y948005D01*
X803718Y945645D01*
X805645Y943718D01*
X808005Y942355D01*
X810637Y941650D01*
X813363D01*
X815995Y942355D01*
X818355Y943718D01*
X820282Y945645D01*
X821645Y948005D01*
X822350Y950637D01*
Y953363D01*
X821645Y955995D01*
X820282Y958355D01*
X818355Y960282D01*
X815995Y961645D01*
X813363Y962350D01*
X810922D01*
X790501Y982771D01*
X790987Y983944D01*
X870784D01*
X902650Y952078D01*
Y949637D01*
X903355Y947005D01*
X904718Y944645D01*
X906645Y942718D01*
X909005Y941355D01*
X911637Y940650D01*
X914363D01*
X916995Y941355D01*
X919355Y942718D01*
X921282Y944645D01*
X922645Y947005D01*
X923350Y949637D01*
Y952363D01*
X922645Y954995D01*
X921282Y957355D01*
X919355Y959282D01*
X916995Y960645D01*
X914363Y961350D01*
X911922D01*
X878136Y995136D01*
X876778Y996178D01*
X875197Y996833D01*
X873500Y997056D01*
D02*
G37*
G36*
X270000Y868742D02*
Y861000D01*
X277742D01*
X277322Y862568D01*
X275934Y864972D01*
X273972Y866934D01*
X271568Y868322D01*
X270000Y868742D01*
D02*
G37*
G36*
X320000D02*
Y861000D01*
X327742D01*
X327322Y862568D01*
X325934Y864972D01*
X323972Y866934D01*
X321568Y868322D01*
X320000Y868742D01*
D02*
G37*
G36*
X265000D02*
X263432Y868322D01*
X261028Y866934D01*
X259066Y864972D01*
X257678Y862568D01*
X257258Y861000D01*
X265000D01*
Y868742D01*
D02*
G37*
G36*
X315000D02*
X313432Y868322D01*
X311028Y866934D01*
X309066Y864972D01*
X307678Y862568D01*
X307258Y861000D01*
X315000D01*
Y868742D01*
D02*
G37*
G36*
X223500Y868492D02*
Y860750D01*
X231242D01*
X230822Y862318D01*
X229434Y864722D01*
X227472Y866684D01*
X225068Y868072D01*
X223500Y868492D01*
D02*
G37*
G36*
X77250D02*
Y860750D01*
X84992D01*
X84572Y862318D01*
X83184Y864722D01*
X81222Y866684D01*
X78818Y868072D01*
X77250Y868492D01*
D02*
G37*
G36*
X173500D02*
Y860750D01*
X181242D01*
X180822Y862318D01*
X179434Y864722D01*
X177472Y866684D01*
X175068Y868072D01*
X173500Y868492D01*
D02*
G37*
G36*
X127250D02*
Y860750D01*
X134992D01*
X134572Y862318D01*
X133184Y864722D01*
X131222Y866684D01*
X128818Y868072D01*
X127250Y868492D01*
D02*
G37*
G36*
X72250D02*
X70682Y868072D01*
X68278Y866684D01*
X66316Y864722D01*
X64928Y862318D01*
X64508Y860750D01*
X72250D01*
Y868492D01*
D02*
G37*
G36*
X122250D02*
X120682Y868072D01*
X118278Y866684D01*
X116316Y864722D01*
X114928Y862318D01*
X114508Y860750D01*
X122250D01*
Y868492D01*
D02*
G37*
G36*
X218500Y868492D02*
X216932Y868072D01*
X214528Y866684D01*
X212566Y864722D01*
X211178Y862318D01*
X210758Y860750D01*
X218500D01*
Y868492D01*
D02*
G37*
G36*
X751250Y866284D02*
Y860250D01*
X757284D01*
X757034Y861181D01*
X755864Y863209D01*
X754209Y864864D01*
X752181Y866034D01*
X751250Y866284D01*
D02*
G37*
G36*
X746250D02*
X745319Y866034D01*
X743291Y864864D01*
X741636Y863209D01*
X740466Y861181D01*
X740216Y860250D01*
X746250D01*
Y866284D01*
D02*
G37*
G36*
X495000Y857784D02*
Y851750D01*
X501034D01*
X500784Y852681D01*
X499614Y854709D01*
X497959Y856364D01*
X495931Y857534D01*
X495000Y857784D01*
D02*
G37*
G36*
X490000D02*
X489069Y857534D01*
X487041Y856364D01*
X485386Y854709D01*
X484216Y852681D01*
X483966Y851750D01*
X490000D01*
Y857784D01*
D02*
G37*
G36*
X757284Y855250D02*
X751250D01*
Y849216D01*
X752181Y849466D01*
X754209Y850636D01*
X755864Y852291D01*
X757034Y854319D01*
X757284Y855250D01*
D02*
G37*
G36*
X746250D02*
X740216D01*
X740466Y854319D01*
X741636Y852291D01*
X743291Y850636D01*
X745319Y849466D01*
X746250Y849216D01*
Y855250D01*
D02*
G37*
G36*
X327742Y856000D02*
X320000D01*
Y848258D01*
X321568Y848678D01*
X323972Y850066D01*
X325934Y852028D01*
X327322Y854432D01*
X327742Y856000D01*
D02*
G37*
G36*
X277742D02*
X270000D01*
Y848258D01*
X271568Y848678D01*
X273972Y850066D01*
X275934Y852028D01*
X277322Y854432D01*
X277742Y856000D01*
D02*
G37*
G36*
X315000D02*
X307258D01*
X307678Y854432D01*
X309066Y852028D01*
X311028Y850066D01*
X313432Y848678D01*
X315000Y848258D01*
Y856000D01*
D02*
G37*
G36*
X265000D02*
X257258D01*
X257678Y854432D01*
X259066Y852028D01*
X261028Y850066D01*
X263432Y848678D01*
X265000Y848258D01*
Y856000D01*
D02*
G37*
G36*
X231242Y855750D02*
X223500D01*
Y848008D01*
X225068Y848428D01*
X227472Y849816D01*
X229434Y851778D01*
X230822Y854182D01*
X231242Y855750D01*
D02*
G37*
G36*
X181242D02*
X173500D01*
Y848008D01*
X175068Y848428D01*
X177472Y849816D01*
X179434Y851778D01*
X180822Y854182D01*
X181242Y855750D01*
D02*
G37*
G36*
X134992D02*
X127250D01*
Y848008D01*
X128818Y848428D01*
X131222Y849816D01*
X133184Y851778D01*
X134572Y854182D01*
X134992Y855750D01*
D02*
G37*
G36*
X84992D02*
X77250D01*
Y848008D01*
X78818Y848428D01*
X81222Y849816D01*
X83184Y851778D01*
X84572Y854182D01*
X84992Y855750D01*
D02*
G37*
G36*
X122250D02*
X114508D01*
X114928Y854182D01*
X116316Y851778D01*
X118278Y849816D01*
X120682Y848428D01*
X122250Y848008D01*
Y855750D01*
D02*
G37*
G36*
X72250D02*
X64508D01*
X64928Y854182D01*
X66316Y851778D01*
X68278Y849816D01*
X70682Y848428D01*
X72250Y848008D01*
Y855750D01*
D02*
G37*
G36*
X218500D02*
X210758D01*
X211178Y854182D01*
X212566Y851778D01*
X214528Y849816D01*
X216932Y848428D01*
X218500Y848008D01*
Y855750D01*
D02*
G37*
G36*
X501034Y846750D02*
X495000D01*
Y840716D01*
X495931Y840966D01*
X497959Y842136D01*
X499614Y843791D01*
X500784Y845819D01*
X501034Y846750D01*
D02*
G37*
G36*
X490000D02*
X483966D01*
X484216Y845819D01*
X485386Y843791D01*
X487041Y842136D01*
X489069Y840966D01*
X490000Y840716D01*
Y846750D01*
D02*
G37*
G36*
X968750Y846534D02*
Y840500D01*
X974784D01*
X974534Y841431D01*
X973364Y843459D01*
X971709Y845114D01*
X969681Y846284D01*
X968750Y846534D01*
D02*
G37*
G36*
X963750D02*
X962819Y846284D01*
X960791Y845114D01*
X959136Y843459D01*
X957966Y841431D01*
X957716Y840500D01*
X963750D01*
Y846534D01*
D02*
G37*
G36*
X974784Y835500D02*
X968750D01*
Y829466D01*
X969681Y829716D01*
X971709Y830886D01*
X973364Y832541D01*
X974534Y834569D01*
X974784Y835500D01*
D02*
G37*
G36*
X963750D02*
X957716D01*
X957966Y834569D01*
X959136Y832541D01*
X960791Y830886D01*
X962819Y829716D01*
X963750Y829466D01*
Y835500D01*
D02*
G37*
G36*
X459500Y806534D02*
Y800500D01*
X465534D01*
X465284Y801431D01*
X464114Y803459D01*
X462459Y805114D01*
X460431Y806284D01*
X459500Y806534D01*
D02*
G37*
G36*
X454500D02*
X453569Y806284D01*
X451541Y805114D01*
X449886Y803459D01*
X448716Y801431D01*
X448466Y800500D01*
X454500D01*
Y806534D01*
D02*
G37*
G36*
X465534Y795500D02*
X459500D01*
Y789466D01*
X460431Y789716D01*
X462459Y790886D01*
X464114Y792541D01*
X465284Y794569D01*
X465534Y795500D01*
D02*
G37*
G36*
X454500D02*
X448466D01*
X448716Y794569D01*
X449886Y792541D01*
X451541Y790886D01*
X453569Y789716D01*
X454500Y789466D01*
Y795500D01*
D02*
G37*
G36*
X78040Y778040D02*
X70000D01*
Y770000D01*
X78040D01*
Y778040D01*
D02*
G37*
G36*
Y765000D02*
X70000D01*
Y756960D01*
X78040D01*
Y765000D01*
D02*
G37*
G36*
X99080Y779500D02*
X95920D01*
X92868Y778682D01*
X90132Y777102D01*
X87898Y774868D01*
X86318Y772132D01*
X85500Y769080D01*
Y765920D01*
X86318Y762868D01*
X87898Y760132D01*
X90132Y757898D01*
X92868Y756318D01*
X95920Y755500D01*
X99080D01*
X102132Y756318D01*
X104868Y757898D01*
X107102Y760132D01*
X108682Y762868D01*
X109500Y765920D01*
Y769080D01*
X108682Y772132D01*
X107102Y774868D01*
X104868Y777102D01*
X102132Y778682D01*
X99080Y779500D01*
D02*
G37*
G36*
X964324Y735478D02*
X963276D01*
X963012Y735426D01*
X962743Y735443D01*
X961703Y735307D01*
X961449Y735220D01*
X961180Y735202D01*
X960167Y734931D01*
X959926Y734812D01*
X959662Y734760D01*
X958693Y734358D01*
X958470Y734209D01*
X958215Y734122D01*
X957307Y733598D01*
X957104Y733421D01*
X956863Y733302D01*
X956031Y732663D01*
X955854Y732461D01*
X955630Y732311D01*
X954889Y731570D01*
X954739Y731346D01*
X954537Y731169D01*
X953898Y730337D01*
X953779Y730096D01*
X953602Y729893D01*
X953078Y728985D01*
X952991Y728730D01*
X952842Y728507D01*
X952440Y727538D01*
X952388Y727274D01*
X952269Y727033D01*
X951998Y726020D01*
X951980Y725751D01*
X951893Y725497D01*
X951839Y725084D01*
X951100Y724693D01*
X950361Y725084D01*
X950306Y725497D01*
X950220Y725751D01*
X950202Y726020D01*
X949931Y727033D01*
X949812Y727274D01*
X949760Y727538D01*
X949358Y728507D01*
X949209Y728730D01*
X949122Y728985D01*
X948598Y729893D01*
X948420Y730096D01*
X948301Y730337D01*
X947663Y731169D01*
X947461Y731346D01*
X947311Y731570D01*
X946570Y732311D01*
X946346Y732461D01*
X946169Y732663D01*
X945337Y733302D01*
X945096Y733421D01*
X944893Y733598D01*
X943985Y734122D01*
X943730Y734209D01*
X943506Y734358D01*
X942538Y734760D01*
X942274Y734812D01*
X942032Y734931D01*
X941020Y735202D01*
X940751Y735220D01*
X940496Y735307D01*
X939457Y735443D01*
X939188Y735426D01*
X938924Y735478D01*
X937876D01*
X937612Y735426D01*
X937343Y735443D01*
X936303Y735307D01*
X936049Y735220D01*
X935780Y735202D01*
X934767Y734931D01*
X934526Y734812D01*
X934262Y734760D01*
X933293Y734358D01*
X933070Y734209D01*
X932815Y734122D01*
X931907Y733598D01*
X931704Y733421D01*
X931463Y733302D01*
X930631Y732663D01*
X930454Y732461D01*
X930230Y732311D01*
X929489Y731570D01*
X929339Y731346D01*
X929137Y731169D01*
X928498Y730337D01*
X928379Y730096D01*
X928202Y729893D01*
X927678Y728985D01*
X927591Y728730D01*
X927442Y728507D01*
X927040Y727538D01*
X926988Y727274D01*
X926869Y727033D01*
X926598Y726020D01*
X926580Y725751D01*
X926493Y725497D01*
X926357Y724457D01*
X926374Y724188D01*
X926322Y723924D01*
Y700876D01*
X926374Y700612D01*
X926357Y700343D01*
X926493Y699304D01*
X926580Y699049D01*
X926598Y698780D01*
X926869Y697767D01*
X926988Y697526D01*
X927040Y697262D01*
X927442Y696293D01*
X927591Y696070D01*
X927678Y695815D01*
X928202Y694907D01*
X928379Y694705D01*
X928498Y694463D01*
X929137Y693631D01*
X929339Y693454D01*
X929489Y693230D01*
X930230Y692489D01*
X930454Y692339D01*
X930631Y692137D01*
X931463Y691498D01*
X931704Y691379D01*
X931907Y691202D01*
X932815Y690678D01*
X933070Y690591D01*
X933293Y690442D01*
X934262Y690040D01*
X934526Y689988D01*
X934767Y689869D01*
X935780Y689598D01*
X936049Y689580D01*
X936303Y689493D01*
X937343Y689357D01*
X937612Y689374D01*
X937876Y689322D01*
X938924Y689322D01*
X939188Y689374D01*
X939457Y689357D01*
X940496Y689493D01*
X940751Y689580D01*
X941020Y689598D01*
X942032Y689869D01*
X942274Y689988D01*
X942538Y690041D01*
X943506Y690442D01*
X943730Y690591D01*
X943985Y690678D01*
X944893Y691202D01*
X945096Y691379D01*
X945337Y691498D01*
X946169Y692137D01*
X946346Y692339D01*
X946570Y692489D01*
X947311Y693230D01*
X947461Y693454D01*
X947663Y693631D01*
X948301Y694463D01*
X948420Y694705D01*
X948598Y694907D01*
X949122Y695815D01*
X949209Y696070D01*
X949358Y696293D01*
X949760Y697262D01*
X949812Y697526D01*
X949931Y697767D01*
X950202Y698780D01*
X950220Y699049D01*
X950306Y699304D01*
X950361Y699716D01*
X951100Y700107D01*
X951839Y699716D01*
X951893Y699304D01*
X951980Y699049D01*
X951998Y698780D01*
X952269Y697767D01*
X952388Y697526D01*
X952440Y697262D01*
X952842Y696293D01*
X952991Y696070D01*
X953078Y695815D01*
X953602Y694907D01*
X953779Y694705D01*
X953898Y694463D01*
X954537Y693631D01*
X954739Y693454D01*
X954889Y693230D01*
X955630Y692489D01*
X955854Y692339D01*
X955914Y692270D01*
X955817Y691734D01*
X955426Y691000D01*
X955382D01*
X951229Y690174D01*
X947316Y688553D01*
X943794Y686200D01*
X940800Y683205D01*
X938447Y679684D01*
X936826Y675771D01*
X936000Y671618D01*
Y667383D01*
X936826Y663229D01*
X938447Y659316D01*
X940800Y655795D01*
X943794Y652800D01*
X947316Y650447D01*
X951229Y648826D01*
X953090Y648456D01*
X953411Y647422D01*
X953430Y647094D01*
X953314Y646961D01*
X953090Y646812D01*
X952348Y646070D01*
X952199Y645846D01*
X951997Y645669D01*
X951358Y644837D01*
X951239Y644596D01*
X951062Y644393D01*
X950538Y643485D01*
X950451Y643230D01*
X950302Y643007D01*
X949900Y642038D01*
X949848Y641774D01*
X949729Y641533D01*
X949457Y640520D01*
X949440Y640251D01*
X949353Y639996D01*
X949217Y638957D01*
X949234Y638688D01*
X949182Y638424D01*
X949182Y637375D01*
X949234Y637112D01*
X949217Y636843D01*
X949353Y635804D01*
X949440Y635549D01*
X949457Y635280D01*
X949729Y634268D01*
X949848Y634026D01*
X949900Y633762D01*
X950302Y632794D01*
X950451Y632570D01*
X950538Y632315D01*
X951062Y631407D01*
X951239Y631204D01*
X951358Y630963D01*
X951997Y630131D01*
X952199Y629954D01*
X952348Y629730D01*
X953090Y628989D01*
X953314Y628839D01*
X953491Y628637D01*
X954323Y627999D01*
X954564Y627879D01*
X954767Y627702D01*
X955675Y627178D01*
X955930Y627091D01*
X956153Y626942D01*
X957122Y626540D01*
X957386Y626488D01*
X957627Y626369D01*
X958640Y626098D01*
X958909Y626080D01*
X959164Y625993D01*
X960203Y625857D01*
X960472Y625874D01*
X960736Y625822D01*
X983784Y625822D01*
X984048Y625874D01*
X984317Y625857D01*
X985356Y625993D01*
X985611Y626080D01*
X985880Y626098D01*
X986892Y626369D01*
X987134Y626488D01*
X987398Y626540D01*
X988366Y626942D01*
X988590Y627091D01*
X988845Y627178D01*
X989753Y627702D01*
X989956Y627879D01*
X990197Y627999D01*
X991029Y628637D01*
X991206Y628839D01*
X991430Y628989D01*
X992171Y629730D01*
X992321Y629954D01*
X992523Y630131D01*
X993161Y630963D01*
X993280Y631204D01*
X993458Y631407D01*
X993982Y632315D01*
X994069Y632570D01*
X994218Y632794D01*
X994620Y633762D01*
X994672Y634026D01*
X994791Y634268D01*
X995062Y635280D01*
X995080Y635549D01*
X995166Y635804D01*
X995303Y636843D01*
X995286Y637112D01*
X995338Y637376D01*
Y638424D01*
X995286Y638688D01*
X995303Y638957D01*
X995166Y639996D01*
X995080Y640251D01*
X995062Y640520D01*
X994791Y641533D01*
X994672Y641774D01*
X994620Y642038D01*
X994218Y643007D01*
X994069Y643230D01*
X993982Y643485D01*
X993458Y644393D01*
X993280Y644596D01*
X993161Y644837D01*
X992523Y645669D01*
X992321Y645846D01*
X992171Y646070D01*
X991430Y646812D01*
X991206Y646961D01*
X991029Y647163D01*
X990197Y647802D01*
X989956Y647921D01*
X989753Y648098D01*
X988845Y648622D01*
X988590Y648709D01*
X988366Y648858D01*
X987398Y649260D01*
X987134Y649312D01*
X986892Y649431D01*
X985880Y649703D01*
X985611Y649720D01*
X985356Y649807D01*
X984317Y649943D01*
X984048Y649926D01*
X983784Y649978D01*
X969269D01*
X968884Y651248D01*
X971205Y652800D01*
X974200Y655795D01*
X976553Y659316D01*
X978174Y663229D01*
X979000Y667383D01*
Y671618D01*
X978174Y675771D01*
X976553Y679684D01*
X974200Y683205D01*
X971205Y686200D01*
X967684Y688553D01*
X967584Y688595D01*
X967493Y689361D01*
X967612Y689958D01*
X967674Y689988D01*
X967938Y690041D01*
X968906Y690442D01*
X969130Y690591D01*
X969385Y690678D01*
X970293Y691202D01*
X970496Y691379D01*
X970737Y691498D01*
X971569Y692137D01*
X971746Y692339D01*
X971970Y692489D01*
X972711Y693230D01*
X972861Y693454D01*
X973063Y693631D01*
X973701Y694463D01*
X973820Y694705D01*
X973998Y694907D01*
X974522Y695815D01*
X974609Y696070D01*
X974758Y696293D01*
X975160Y697262D01*
X975212Y697526D01*
X975331Y697767D01*
X975602Y698780D01*
X975620Y699049D01*
X975706Y699304D01*
X975843Y700343D01*
X975826Y700612D01*
X975878Y700876D01*
X975878Y723924D01*
X975826Y724188D01*
X975843Y724457D01*
X975706Y725497D01*
X975620Y725751D01*
X975602Y726020D01*
X975331Y727033D01*
X975212Y727274D01*
X975160Y727538D01*
X974758Y728507D01*
X974609Y728730D01*
X974522Y728985D01*
X973998Y729893D01*
X973820Y730096D01*
X973701Y730337D01*
X973063Y731169D01*
X972861Y731346D01*
X972711Y731570D01*
X971970Y732311D01*
X971746Y732461D01*
X971569Y732663D01*
X970737Y733302D01*
X970496Y733421D01*
X970293Y733598D01*
X969385Y734122D01*
X969130Y734209D01*
X968906Y734358D01*
X967938Y734760D01*
X967674Y734812D01*
X967432Y734931D01*
X966420Y735202D01*
X966151Y735220D01*
X965896Y735307D01*
X964857Y735443D01*
X964588Y735426D01*
X964324Y735478D01*
D02*
G37*
G36*
X888124D02*
X887076D01*
X886812Y735426D01*
X886543Y735443D01*
X885503Y735307D01*
X885249Y735220D01*
X884980Y735202D01*
X883967Y734931D01*
X883726Y734812D01*
X883462Y734760D01*
X882493Y734358D01*
X882270Y734209D01*
X882015Y734122D01*
X881107Y733598D01*
X880904Y733421D01*
X880663Y733302D01*
X879831Y732663D01*
X879654Y732461D01*
X879430Y732311D01*
X878689Y731570D01*
X878539Y731346D01*
X878337Y731169D01*
X877698Y730337D01*
X877579Y730096D01*
X877402Y729893D01*
X876878Y728985D01*
X876791Y728730D01*
X876642Y728507D01*
X876240Y727538D01*
X876188Y727274D01*
X876069Y727033D01*
X875798Y726020D01*
X875780Y725751D01*
X875693Y725497D01*
X875639Y725084D01*
X874900Y724693D01*
X874161Y725084D01*
X874107Y725497D01*
X874020Y725751D01*
X874002Y726020D01*
X873731Y727033D01*
X873612Y727274D01*
X873560Y727538D01*
X873158Y728507D01*
X873009Y728730D01*
X872922Y728985D01*
X872398Y729893D01*
X872221Y730096D01*
X872102Y730337D01*
X871463Y731169D01*
X871261Y731346D01*
X871111Y731570D01*
X870370Y732311D01*
X870146Y732461D01*
X869969Y732663D01*
X869137Y733302D01*
X868896Y733421D01*
X868693Y733598D01*
X867785Y734122D01*
X867530Y734209D01*
X867307Y734358D01*
X866338Y734760D01*
X866074Y734812D01*
X865833Y734931D01*
X864820Y735202D01*
X864551Y735220D01*
X864296Y735307D01*
X863257Y735443D01*
X862988Y735426D01*
X862724Y735478D01*
X861676D01*
X861412Y735426D01*
X861143Y735443D01*
X860104Y735307D01*
X859849Y735220D01*
X859580Y735202D01*
X858567Y734931D01*
X858326Y734812D01*
X858062Y734760D01*
X857093Y734358D01*
X856870Y734209D01*
X856615Y734122D01*
X855707Y733598D01*
X855504Y733421D01*
X855263Y733302D01*
X854431Y732663D01*
X854254Y732461D01*
X854030Y732311D01*
X853288Y731570D01*
X853139Y731346D01*
X852937Y731169D01*
X852298Y730337D01*
X852179Y730096D01*
X852002Y729893D01*
X851478Y728985D01*
X851391Y728730D01*
X851242Y728507D01*
X850840Y727538D01*
X850788Y727274D01*
X850669Y727033D01*
X850397Y726020D01*
X850380Y725751D01*
X850293Y725497D01*
X850239Y725084D01*
X849500Y724693D01*
X848761Y725084D01*
X848707Y725497D01*
X848620Y725751D01*
X848602Y726020D01*
X848331Y727033D01*
X848212Y727274D01*
X848160Y727538D01*
X847758Y728507D01*
X847609Y728730D01*
X847522Y728985D01*
X846998Y729893D01*
X846821Y730096D01*
X846702Y730337D01*
X846063Y731169D01*
X845861Y731346D01*
X845711Y731570D01*
X844970Y732311D01*
X844746Y732461D01*
X844569Y732663D01*
X843737Y733302D01*
X843496Y733421D01*
X843293Y733598D01*
X842385Y734122D01*
X842130Y734209D01*
X841907Y734358D01*
X840938Y734760D01*
X840674Y734812D01*
X840433Y734931D01*
X839420Y735202D01*
X839151Y735220D01*
X838896Y735307D01*
X837857Y735443D01*
X837588Y735426D01*
X837324Y735478D01*
X836276D01*
X836012Y735426D01*
X835743Y735443D01*
X834704Y735307D01*
X834449Y735220D01*
X834180Y735202D01*
X833167Y734931D01*
X832926Y734812D01*
X832662Y734760D01*
X831693Y734358D01*
X831470Y734209D01*
X831215Y734122D01*
X830307Y733598D01*
X830104Y733421D01*
X829863Y733302D01*
X829031Y732663D01*
X828854Y732461D01*
X828630Y732311D01*
X827888Y731570D01*
X827739Y731346D01*
X827537Y731169D01*
X826898Y730337D01*
X826779Y730096D01*
X826602Y729893D01*
X826078Y728985D01*
X825991Y728730D01*
X825842Y728507D01*
X825440Y727538D01*
X825388Y727274D01*
X825269Y727033D01*
X824997Y726020D01*
X824980Y725751D01*
X824893Y725497D01*
X824839Y725084D01*
X824100Y724693D01*
X823361Y725084D01*
X823307Y725497D01*
X823220Y725751D01*
X823202Y726020D01*
X822931Y727033D01*
X822812Y727274D01*
X822760Y727538D01*
X822358Y728507D01*
X822209Y728730D01*
X822122Y728985D01*
X821598Y729893D01*
X821421Y730096D01*
X821301Y730337D01*
X820663Y731169D01*
X820461Y731346D01*
X820311Y731570D01*
X819570Y732311D01*
X819346Y732461D01*
X819169Y732663D01*
X818337Y733302D01*
X818096Y733421D01*
X817893Y733598D01*
X816985Y734122D01*
X816730Y734209D01*
X816507Y734358D01*
X815538Y734760D01*
X815274Y734812D01*
X815033Y734931D01*
X814020Y735202D01*
X813751Y735220D01*
X813496Y735307D01*
X812457Y735443D01*
X812188Y735426D01*
X811924Y735478D01*
X810876D01*
X810612Y735426D01*
X810343Y735443D01*
X809304Y735307D01*
X809049Y735220D01*
X808780Y735202D01*
X807767Y734931D01*
X807526Y734812D01*
X807262Y734760D01*
X806293Y734358D01*
X806070Y734209D01*
X805815Y734122D01*
X804907Y733598D01*
X804704Y733421D01*
X804463Y733302D01*
X803631Y732663D01*
X803454Y732461D01*
X803230Y732311D01*
X802488Y731570D01*
X802339Y731346D01*
X802137Y731169D01*
X801498Y730337D01*
X801379Y730096D01*
X801202Y729893D01*
X800678Y728985D01*
X800591Y728730D01*
X800442Y728507D01*
X800040Y727538D01*
X799988Y727274D01*
X799869Y727033D01*
X799597Y726020D01*
X799580Y725751D01*
X799493Y725497D01*
X799357Y724457D01*
X799374Y724188D01*
X799322Y723924D01*
Y700876D01*
X799374Y700612D01*
X799357Y700343D01*
X799493Y699304D01*
X799580Y699049D01*
X799597Y698780D01*
X799869Y697767D01*
X799988Y697526D01*
X800040Y697262D01*
X800442Y696293D01*
X800591Y696070D01*
X800678Y695815D01*
X801202Y694907D01*
X801379Y694705D01*
X801498Y694463D01*
X802137Y693631D01*
X802339Y693454D01*
X802488Y693230D01*
X803230Y692489D01*
X803454Y692339D01*
X803631Y692137D01*
X804463Y691498D01*
X804704Y691379D01*
X804907Y691202D01*
X805815Y690678D01*
X806070Y690591D01*
X806293Y690442D01*
X807262Y690040D01*
X807526Y689988D01*
X807767Y689869D01*
X808780Y689598D01*
X809049Y689580D01*
X809304Y689493D01*
X810343Y689357D01*
X810612Y689374D01*
X810876Y689322D01*
X811925Y689322D01*
X812188Y689374D01*
X812457Y689357D01*
X813496Y689493D01*
X813751Y689580D01*
X814019Y689598D01*
X815032Y689869D01*
X815274Y689988D01*
X815538Y690041D01*
X816507Y690442D01*
X816730Y690591D01*
X816985Y690678D01*
X817893Y691202D01*
X818095Y691379D01*
X818337Y691498D01*
X819169Y692137D01*
X819346Y692339D01*
X819570Y692489D01*
X820311Y693230D01*
X820461Y693454D01*
X820663Y693631D01*
X821301Y694463D01*
X821421Y694705D01*
X821598Y694907D01*
X822122Y695815D01*
X822209Y696070D01*
X822358Y696293D01*
X822759Y697262D01*
X822812Y697526D01*
X822931Y697767D01*
X823202Y698780D01*
X823220Y699049D01*
X823307Y699304D01*
X823361Y699716D01*
X824100Y700107D01*
X824839Y699716D01*
X824893Y699304D01*
X824980Y699049D01*
X824997Y698780D01*
X825269Y697767D01*
X825388Y697526D01*
X825440Y697262D01*
X825842Y696293D01*
X825991Y696070D01*
X826078Y695815D01*
X826602Y694907D01*
X826779Y694705D01*
X826898Y694463D01*
X827537Y693631D01*
X827739Y693454D01*
X827888Y693230D01*
X828630Y692489D01*
X828854Y692339D01*
X829031Y692137D01*
X829863Y691498D01*
X830104Y691379D01*
X830307Y691202D01*
X831215Y690678D01*
X831470Y690591D01*
X831693Y690442D01*
X832662Y690040D01*
X832926Y689988D01*
X833167Y689869D01*
X834180Y689598D01*
X834449Y689580D01*
X834704Y689493D01*
X835743Y689357D01*
X836012Y689374D01*
X836276Y689322D01*
X837325Y689322D01*
X837588Y689374D01*
X837857Y689357D01*
X838896Y689493D01*
X839151Y689580D01*
X839419Y689598D01*
X840432Y689869D01*
X840674Y689988D01*
X840938Y690041D01*
X841907Y690442D01*
X842130Y690591D01*
X842385Y690678D01*
X843293Y691202D01*
X843495Y691379D01*
X843737Y691498D01*
X844569Y692137D01*
X844746Y692339D01*
X844970Y692489D01*
X845711Y693230D01*
X845861Y693454D01*
X846063Y693631D01*
X846702Y694463D01*
X846821Y694705D01*
X846998Y694907D01*
X847522Y695815D01*
X847609Y696070D01*
X847758Y696293D01*
X848159Y697262D01*
X848212Y697526D01*
X848331Y697767D01*
X848602Y698780D01*
X848620Y699049D01*
X848707Y699304D01*
X848761Y699716D01*
X849500Y700107D01*
X850239Y699716D01*
X850293Y699304D01*
X850380Y699049D01*
X850397Y698780D01*
X850669Y697767D01*
X850788Y697526D01*
X850840Y697262D01*
X851242Y696293D01*
X851391Y696070D01*
X851478Y695815D01*
X852002Y694907D01*
X852179Y694705D01*
X852298Y694463D01*
X852937Y693631D01*
X853139Y693454D01*
X853288Y693230D01*
X854030Y692489D01*
X854254Y692339D01*
X854431Y692137D01*
X855263Y691498D01*
X855504Y691379D01*
X855707Y691202D01*
X856615Y690678D01*
X856870Y690591D01*
X857093Y690442D01*
X858062Y690040D01*
X858326Y689988D01*
X858567Y689869D01*
X859580Y689598D01*
X859849Y689580D01*
X860104Y689493D01*
X861143Y689357D01*
X861412Y689374D01*
X861676Y689322D01*
X862725Y689322D01*
X862988Y689374D01*
X863257Y689357D01*
X864296Y689493D01*
X864551Y689580D01*
X864819Y689598D01*
X865832Y689869D01*
X866074Y689988D01*
X866338Y690041D01*
X867307Y690442D01*
X867530Y690591D01*
X867785Y690678D01*
X868693Y691202D01*
X868895Y691379D01*
X869137Y691498D01*
X869969Y692137D01*
X870146Y692339D01*
X870370Y692489D01*
X871111Y693230D01*
X871261Y693454D01*
X871463Y693631D01*
X872102Y694463D01*
X872221Y694705D01*
X872398Y694907D01*
X872922Y695815D01*
X873009Y696070D01*
X873158Y696293D01*
X873559Y697262D01*
X873612Y697526D01*
X873731Y697767D01*
X874002Y698780D01*
X874020Y699049D01*
X874107Y699304D01*
X874161Y699716D01*
X874900Y700107D01*
X875639Y699716D01*
X875693Y699304D01*
X875780Y699049D01*
X875798Y698780D01*
X876069Y697767D01*
X876188Y697526D01*
X876240Y697262D01*
X876642Y696293D01*
X876791Y696070D01*
X876878Y695815D01*
X877402Y694907D01*
X877579Y694705D01*
X877698Y694463D01*
X878337Y693631D01*
X878539Y693454D01*
X878689Y693230D01*
X879430Y692489D01*
X879654Y692339D01*
X879831Y692137D01*
X880663Y691498D01*
X880904Y691379D01*
X881107Y691202D01*
X882015Y690678D01*
X882270Y690591D01*
X882493Y690442D01*
X883462Y690040D01*
X883726Y689988D01*
X883967Y689869D01*
X884980Y689598D01*
X885249Y689580D01*
X885503Y689493D01*
X886543Y689357D01*
X886812Y689374D01*
X887076Y689322D01*
X888124Y689322D01*
X888388Y689374D01*
X888657Y689357D01*
X889696Y689493D01*
X889951Y689580D01*
X890219Y689598D01*
X891232Y689869D01*
X891474Y689988D01*
X891738Y690041D01*
X892707Y690442D01*
X892930Y690591D01*
X893185Y690678D01*
X894093Y691202D01*
X894296Y691379D01*
X894537Y691498D01*
X895369Y692137D01*
X895546Y692339D01*
X895770Y692489D01*
X896511Y693230D01*
X896661Y693454D01*
X896863Y693631D01*
X897502Y694463D01*
X897620Y694705D01*
X897798Y694907D01*
X898322Y695815D01*
X898409Y696070D01*
X898558Y696293D01*
X898960Y697262D01*
X899012Y697526D01*
X899131Y697767D01*
X899402Y698780D01*
X899420Y699049D01*
X899507Y699304D01*
X899643Y700343D01*
X899626Y700612D01*
X899678Y700876D01*
X899678Y723924D01*
X899626Y724188D01*
X899643Y724457D01*
X899507Y725497D01*
X899420Y725751D01*
X899402Y726020D01*
X899131Y727033D01*
X899012Y727274D01*
X898960Y727538D01*
X898558Y728507D01*
X898409Y728730D01*
X898322Y728985D01*
X897798Y729893D01*
X897620Y730096D01*
X897502Y730337D01*
X896863Y731169D01*
X896661Y731346D01*
X896511Y731570D01*
X895770Y732311D01*
X895546Y732461D01*
X895369Y732663D01*
X894537Y733302D01*
X894296Y733421D01*
X894093Y733598D01*
X893185Y734122D01*
X892930Y734209D01*
X892707Y734358D01*
X891738Y734760D01*
X891474Y734812D01*
X891233Y734931D01*
X890220Y735202D01*
X889951Y735220D01*
X889696Y735307D01*
X888657Y735443D01*
X888388Y735426D01*
X888124Y735478D01*
D02*
G37*
G36*
X99080Y749500D02*
X95920D01*
X92868Y748682D01*
X90132Y747102D01*
X87898Y744868D01*
X86318Y742132D01*
X85500Y739080D01*
Y735920D01*
X86318Y732868D01*
X87898Y730132D01*
X90132Y727898D01*
X92868Y726318D01*
X95920Y725500D01*
X99080D01*
X102132Y726318D01*
X104868Y727898D01*
X107102Y730132D01*
X108682Y732868D01*
X109500Y735920D01*
Y739080D01*
X108682Y742132D01*
X107102Y744868D01*
X104868Y747102D01*
X102132Y748682D01*
X99080Y749500D01*
D02*
G37*
G36*
X537000Y887556D02*
X358000D01*
X356303Y887333D01*
X354722Y886678D01*
X353364Y885636D01*
X335364Y867636D01*
X334322Y866278D01*
X333667Y864697D01*
X333444Y863000D01*
Y689081D01*
X331718Y687355D01*
X330355Y684995D01*
X329650Y682363D01*
Y679637D01*
X330355Y677005D01*
X331718Y674645D01*
X333645Y672718D01*
X336005Y671355D01*
X338637Y670650D01*
X341078D01*
X380971Y630758D01*
Y626608D01*
X380718Y626355D01*
X379355Y623995D01*
X378650Y621363D01*
Y618637D01*
X379355Y616005D01*
X380718Y613645D01*
X382444Y611919D01*
Y410250D01*
X382667Y408553D01*
X383322Y406972D01*
X384364Y405614D01*
X437015Y352963D01*
Y273787D01*
X370284Y207056D01*
X343081D01*
X341355Y208782D01*
X338995Y210145D01*
X336363Y210850D01*
X333637D01*
X331005Y210145D01*
X328645Y208782D01*
X326718Y206855D01*
X325355Y204495D01*
X324650Y201863D01*
Y199137D01*
X325355Y196505D01*
X326718Y194145D01*
X328645Y192218D01*
X331005Y190855D01*
X333637Y190150D01*
X336363D01*
X338995Y190855D01*
X341355Y192218D01*
X343081Y193944D01*
X373000D01*
X374697Y194167D01*
X376278Y194822D01*
X377636Y195864D01*
X448207Y266435D01*
X449249Y267793D01*
X449904Y269374D01*
X450127Y271071D01*
Y355679D01*
X449904Y357376D01*
X449249Y358957D01*
X448207Y360315D01*
X395556Y412966D01*
Y611919D01*
X397282Y613645D01*
X398645Y616005D01*
X399350Y618637D01*
Y621363D01*
X398645Y623995D01*
X397282Y626355D01*
X395355Y628282D01*
X394083Y629017D01*
Y633473D01*
X393859Y635170D01*
X393204Y636751D01*
X392163Y638109D01*
X350350Y679922D01*
Y682363D01*
X349645Y684995D01*
X348282Y687355D01*
X346556Y689081D01*
Y860284D01*
X351799Y865528D01*
X352876Y864808D01*
X351822Y862263D01*
X351392Y859000D01*
X351822Y855737D01*
X353081Y852696D01*
X355085Y850085D01*
X357696Y848081D01*
X360737Y846822D01*
X364000Y846392D01*
X401392D01*
Y549000D01*
Y429000D01*
X401602Y427408D01*
X401800Y425817D01*
X401816Y425779D01*
X401822Y425737D01*
X402435Y424255D01*
X403040Y422769D01*
X403065Y422735D01*
X403081Y422696D01*
X404057Y421424D01*
X405026Y420144D01*
X456922Y367557D01*
Y282250D01*
X457232Y280689D01*
X458116Y279366D01*
X458116Y279366D01*
X501422Y236061D01*
Y118689D01*
X494811Y112078D01*
X178000D01*
X176439Y111768D01*
X175116Y110884D01*
X174232Y109561D01*
X173922Y108000D01*
Y41000D01*
X173922Y41000D01*
X174232Y39439D01*
X175116Y38116D01*
X175116Y38116D01*
X179397Y33835D01*
X178979Y32457D01*
X178952Y32452D01*
X171599Y39804D01*
Y112000D01*
X171204Y115002D01*
X170045Y117800D01*
X168202Y120202D01*
X60599Y227805D01*
Y250641D01*
X61864Y251371D01*
X62444Y251036D01*
Y232000D01*
X62667Y230303D01*
X63322Y228722D01*
X64364Y227364D01*
X127364Y164364D01*
X128722Y163322D01*
X130303Y162667D01*
X132000Y162444D01*
X346919D01*
X348645Y160718D01*
X351005Y159355D01*
X353637Y158650D01*
X356363D01*
X358995Y159355D01*
X361355Y160718D01*
X363282Y162645D01*
X364645Y165005D01*
X365350Y167637D01*
Y170363D01*
X364645Y172995D01*
X363282Y175355D01*
X361355Y177282D01*
X358995Y178645D01*
X356363Y179350D01*
X353637D01*
X351005Y178645D01*
X348645Y177282D01*
X346919Y175556D01*
X134716D01*
X75556Y234716D01*
Y253585D01*
X77102Y255132D01*
X78682Y257868D01*
X79500Y260920D01*
Y264080D01*
X78682Y267132D01*
X77102Y269868D01*
X74868Y272102D01*
X72132Y273682D01*
X70828Y274032D01*
X70499Y275258D01*
X75511Y280270D01*
X77354Y282672D01*
X78513Y285469D01*
X78908Y288472D01*
Y288710D01*
X79500Y290920D01*
Y294080D01*
X78682Y297132D01*
X77102Y299868D01*
X74868Y302102D01*
X72132Y303682D01*
X69080Y304500D01*
X65920D01*
X62868Y303682D01*
X60132Y302102D01*
X57898Y299868D01*
X56318Y297132D01*
X55500Y294080D01*
Y293067D01*
X45823Y283390D01*
X44650Y283876D01*
Y285771D01*
X43920Y289442D01*
X42488Y292900D01*
X40408Y296012D01*
X37762Y298658D01*
X34650Y300737D01*
X31192Y302170D01*
X27521Y302900D01*
X23779D01*
X20108Y302170D01*
X16650Y300737D01*
X13538Y298658D01*
X10892Y296012D01*
X8812Y292900D01*
X7380Y289442D01*
X6650Y285771D01*
Y282029D01*
X7380Y278358D01*
X8812Y274900D01*
X10892Y271788D01*
X13538Y269142D01*
X16650Y267062D01*
X20108Y265630D01*
X23779Y264900D01*
X27521D01*
X31192Y265630D01*
X34650Y267062D01*
X36281Y268152D01*
X37401Y267553D01*
Y223000D01*
X37796Y219998D01*
X38955Y217200D01*
X40798Y214798D01*
X148401Y107195D01*
Y35000D01*
X148796Y31998D01*
X149955Y29200D01*
X151798Y26798D01*
X166798Y11798D01*
X169200Y9955D01*
X171998Y8796D01*
X175000Y8401D01*
X615000D01*
X618002Y8796D01*
X620800Y9955D01*
X623202Y11798D01*
X625045Y14200D01*
X626204Y16998D01*
X626599Y20000D01*
X626204Y23002D01*
X625045Y25800D01*
X623202Y28202D01*
X620800Y30045D01*
X618002Y31204D01*
X615000Y31599D01*
X506163D01*
X505638Y32755D01*
X552822Y86786D01*
X553151Y87359D01*
X553518Y87908D01*
X553545Y88045D01*
X553615Y88166D01*
X553699Y88821D01*
X553828Y89469D01*
Y215157D01*
X553828Y304250D01*
X553828Y304250D01*
X553518Y305811D01*
X552634Y307134D01*
X552634Y307134D01*
X493528Y366240D01*
X493131Y366763D01*
X481411Y378640D01*
X481942Y379910D01*
X483888D01*
X486568Y380628D01*
X488972Y382016D01*
X490934Y383978D01*
X492322Y386382D01*
X492742Y387950D01*
X482500D01*
Y390450D01*
X480000D01*
Y400692D01*
X478432Y400272D01*
X476028Y398884D01*
X474066Y396922D01*
X472678Y394518D01*
X471960Y391838D01*
Y390025D01*
X470690Y389504D01*
X426608Y434174D01*
Y549000D01*
Y549434D01*
X427708Y550069D01*
X428319Y549716D01*
X429250Y549466D01*
Y558000D01*
Y566534D01*
X428319Y566284D01*
X427708Y565932D01*
X426608Y566567D01*
Y858750D01*
Y859000D01*
X426178Y862263D01*
X424919Y865304D01*
X422915Y867915D01*
X420304Y869919D01*
X417263Y871178D01*
X414000Y871608D01*
X364000D01*
X360737Y871178D01*
X358192Y870124D01*
X357472Y871201D01*
X360716Y874444D01*
X534284D01*
X553650Y855078D01*
Y852637D01*
X554355Y850005D01*
X555718Y847645D01*
X557444Y845919D01*
Y835000D01*
X557667Y833303D01*
X558322Y831722D01*
X559364Y830364D01*
X576244Y813484D01*
Y790750D01*
Y733543D01*
X576104Y733421D01*
X575863Y733302D01*
X575031Y732663D01*
X574854Y732461D01*
X574630Y732311D01*
X573889Y731570D01*
X573739Y731346D01*
X573537Y731169D01*
X572898Y730337D01*
X572779Y730096D01*
X572602Y729893D01*
X572078Y728985D01*
X571991Y728730D01*
X571842Y728507D01*
X571440Y727538D01*
X571388Y727274D01*
X571269Y727033D01*
X570998Y726020D01*
X570980Y725751D01*
X570893Y725497D01*
X570839Y725084D01*
X570100Y724693D01*
X569361Y725084D01*
X569306Y725497D01*
X569220Y725751D01*
X569202Y726020D01*
X568931Y727033D01*
X568812Y727274D01*
X568760Y727538D01*
X568358Y728507D01*
X568209Y728730D01*
X568122Y728985D01*
X567598Y729893D01*
X567421Y730096D01*
X567301Y730337D01*
X566663Y731169D01*
X566461Y731346D01*
X566311Y731570D01*
X565570Y732311D01*
X565346Y732461D01*
X565169Y732663D01*
X564337Y733302D01*
X564096Y733421D01*
X563893Y733598D01*
X562985Y734122D01*
X562730Y734209D01*
X562506Y734358D01*
X561538Y734760D01*
X561274Y734812D01*
X561032Y734931D01*
X560020Y735202D01*
X559751Y735220D01*
X559496Y735307D01*
X558457Y735443D01*
X558188Y735426D01*
X557924Y735478D01*
X556876D01*
X556612Y735426D01*
X556343Y735443D01*
X555303Y735307D01*
X555049Y735220D01*
X554780Y735202D01*
X553767Y734931D01*
X553526Y734812D01*
X553262Y734760D01*
X552293Y734358D01*
X552070Y734209D01*
X551815Y734122D01*
X550907Y733598D01*
X550704Y733421D01*
X550463Y733302D01*
X549631Y732663D01*
X549454Y732461D01*
X549230Y732311D01*
X548489Y731570D01*
X548339Y731346D01*
X548137Y731169D01*
X547498Y730337D01*
X547379Y730096D01*
X547202Y729893D01*
X546678Y728985D01*
X546591Y728730D01*
X546442Y728507D01*
X546040Y727538D01*
X545988Y727274D01*
X545869Y727033D01*
X545597Y726020D01*
X545580Y725751D01*
X545493Y725497D01*
X545356Y724457D01*
X545374Y724188D01*
X545322Y723924D01*
Y700876D01*
X545374Y700612D01*
X545356Y700343D01*
X545493Y699304D01*
X545580Y699049D01*
X545597Y698780D01*
X545869Y697767D01*
X545988Y697526D01*
X546040Y697262D01*
X546442Y696293D01*
X546591Y696070D01*
X546678Y695815D01*
X547202Y694907D01*
X547379Y694705D01*
X547498Y694463D01*
X548137Y693631D01*
X548339Y693454D01*
X548489Y693230D01*
X549230Y692489D01*
X549454Y692339D01*
X549631Y692137D01*
X550463Y691498D01*
X550704Y691379D01*
X550907Y691202D01*
X551815Y690678D01*
X552070Y690591D01*
X552293Y690442D01*
X553262Y690040D01*
X553526Y689988D01*
X553767Y689869D01*
X554780Y689598D01*
X555049Y689580D01*
X555303Y689493D01*
X556343Y689357D01*
X556612Y689374D01*
X556876Y689322D01*
X557924Y689322D01*
X558188Y689374D01*
X558457Y689357D01*
X559496Y689493D01*
X559751Y689580D01*
X560019Y689598D01*
X561032Y689869D01*
X561274Y689988D01*
X561538Y690041D01*
X562506Y690442D01*
X562730Y690591D01*
X562985Y690678D01*
X563893Y691202D01*
X564095Y691379D01*
X564337Y691498D01*
X565169Y692137D01*
X565346Y692339D01*
X565570Y692489D01*
X566311Y693230D01*
X566461Y693454D01*
X566663Y693631D01*
X567301Y694463D01*
X567421Y694705D01*
X567598Y694907D01*
X568122Y695815D01*
X568209Y696070D01*
X568358Y696293D01*
X568759Y697262D01*
X568812Y697526D01*
X568931Y697767D01*
X569202Y698780D01*
X569220Y699049D01*
X569306Y699304D01*
X569361Y699716D01*
X570100Y700107D01*
X570839Y699716D01*
X570893Y699304D01*
X570980Y699049D01*
X570998Y698780D01*
X571269Y697767D01*
X571388Y697526D01*
X571440Y697262D01*
X571842Y696293D01*
X571991Y696070D01*
X572078Y695815D01*
X572602Y694907D01*
X572779Y694705D01*
X572898Y694463D01*
X573537Y693631D01*
X573739Y693454D01*
X573889Y693230D01*
X574630Y692489D01*
X574854Y692339D01*
X575031Y692137D01*
X575863Y691498D01*
X576104Y691379D01*
X576307Y691202D01*
X577215Y690678D01*
X577470Y690591D01*
X577693Y690442D01*
X578662Y690040D01*
X578926Y689988D01*
X579167Y689869D01*
X580180Y689598D01*
X580449Y689580D01*
X580704Y689493D01*
X581743Y689357D01*
X582012Y689374D01*
X582276Y689322D01*
X583325Y689322D01*
X583588Y689374D01*
X583857Y689357D01*
X584896Y689493D01*
X585151Y689580D01*
X585420Y689598D01*
X586432Y689869D01*
X586674Y689988D01*
X586938Y690041D01*
X587906Y690442D01*
X588130Y690591D01*
X588385Y690678D01*
X589293Y691202D01*
X589496Y691379D01*
X589737Y691498D01*
X590569Y692137D01*
X590746Y692339D01*
X590970Y692489D01*
X591711Y693230D01*
X591861Y693454D01*
X592063Y693631D01*
X592701Y694463D01*
X592821Y694705D01*
X592998Y694907D01*
X593522Y695815D01*
X593609Y696070D01*
X593758Y696293D01*
X594160Y697262D01*
X594212Y697526D01*
X594331Y697767D01*
X594602Y698780D01*
X594620Y699049D01*
X594706Y699304D01*
X594761Y699716D01*
X595500Y700107D01*
X596239Y699716D01*
X596293Y699304D01*
X596380Y699049D01*
X596398Y698780D01*
X596669Y697767D01*
X596788Y697526D01*
X596840Y697262D01*
X597242Y696293D01*
X597391Y696070D01*
X597478Y695815D01*
X598002Y694907D01*
X598179Y694705D01*
X598298Y694463D01*
X598937Y693631D01*
X599139Y693454D01*
X599288Y693230D01*
X600030Y692489D01*
X600254Y692339D01*
X600431Y692137D01*
X601263Y691498D01*
X601504Y691379D01*
X601707Y691202D01*
X602615Y690678D01*
X602870Y690591D01*
X603093Y690442D01*
X604062Y690040D01*
X604326Y689988D01*
X604567Y689869D01*
X605580Y689598D01*
X605849Y689580D01*
X606104Y689493D01*
X607143Y689357D01*
X607412Y689374D01*
X607676Y689322D01*
X608725Y689322D01*
X608988Y689374D01*
X609257Y689357D01*
X610296Y689493D01*
X610551Y689580D01*
X610820Y689598D01*
X611832Y689869D01*
X612074Y689988D01*
X612338Y690041D01*
X613307Y690442D01*
X613530Y690591D01*
X613785Y690678D01*
X614693Y691202D01*
X614896Y691379D01*
X615137Y691498D01*
X615969Y692137D01*
X616146Y692339D01*
X616370Y692489D01*
X617111Y693230D01*
X617261Y693454D01*
X617463Y693631D01*
X618102Y694463D01*
X618220Y694705D01*
X618398Y694907D01*
X618922Y695815D01*
X619009Y696070D01*
X619158Y696293D01*
X619560Y697262D01*
X619612Y697526D01*
X619731Y697767D01*
X620002Y698780D01*
X620020Y699049D01*
X620107Y699304D01*
X620161Y699716D01*
X620900Y700107D01*
X621639Y699716D01*
X621693Y699304D01*
X621780Y699049D01*
X621797Y698780D01*
X622069Y697767D01*
X622188Y697526D01*
X622240Y697262D01*
X622642Y696293D01*
X622791Y696070D01*
X622878Y695815D01*
X623402Y694907D01*
X623579Y694705D01*
X623698Y694463D01*
X624337Y693631D01*
X624539Y693454D01*
X624688Y693230D01*
X625430Y692489D01*
X625654Y692339D01*
X625831Y692137D01*
X626663Y691498D01*
X626904Y691379D01*
X627107Y691202D01*
X628015Y690678D01*
X628270Y690591D01*
X628493Y690442D01*
X629462Y690040D01*
X629726Y689988D01*
X629967Y689869D01*
X630980Y689598D01*
X631249Y689580D01*
X631503Y689493D01*
X632543Y689357D01*
X632812Y689374D01*
X633076Y689322D01*
X634124Y689322D01*
X634388Y689374D01*
X634657Y689357D01*
X635696Y689493D01*
X635951Y689580D01*
X636219Y689598D01*
X637232Y689869D01*
X637474Y689988D01*
X637738Y690041D01*
X638707Y690442D01*
X638930Y690591D01*
X639185Y690678D01*
X640093Y691202D01*
X640295Y691379D01*
X640537Y691498D01*
X641369Y692137D01*
X641546Y692339D01*
X641770Y692489D01*
X642511Y693230D01*
X642661Y693454D01*
X642863Y693631D01*
X643502Y694463D01*
X643621Y694705D01*
X643798Y694907D01*
X644322Y695815D01*
X644409Y696070D01*
X644558Y696293D01*
X644959Y697262D01*
X645012Y697526D01*
X645131Y697767D01*
X645402Y698780D01*
X645420Y699049D01*
X645507Y699304D01*
X645643Y700343D01*
X645626Y700612D01*
X645678Y700876D01*
X645678Y723924D01*
X645626Y724188D01*
X645643Y724457D01*
X645507Y725497D01*
X645420Y725751D01*
X645402Y726020D01*
X645131Y727033D01*
X645012Y727274D01*
X644960Y727538D01*
X644558Y728507D01*
X644409Y728730D01*
X644322Y728985D01*
X643798Y729893D01*
X643621Y730096D01*
X643502Y730337D01*
X642863Y731169D01*
X642661Y731346D01*
X642511Y731570D01*
X641770Y732311D01*
X641546Y732461D01*
X641369Y732663D01*
X640537Y733302D01*
X640296Y733421D01*
X640093Y733598D01*
X639185Y734122D01*
X638930Y734209D01*
X638707Y734358D01*
X637738Y734760D01*
X637474Y734812D01*
X637233Y734931D01*
X636220Y735202D01*
X635951Y735220D01*
X635696Y735307D01*
X634657Y735443D01*
X634388Y735426D01*
X634124Y735478D01*
X633076D01*
X632812Y735426D01*
X632543Y735443D01*
X631503Y735307D01*
X631249Y735220D01*
X630980Y735202D01*
X629967Y734931D01*
X629726Y734812D01*
X629462Y734760D01*
X628493Y734358D01*
X628270Y734209D01*
X628015Y734122D01*
X627107Y733598D01*
X626904Y733421D01*
X626663Y733302D01*
X625831Y732663D01*
X625654Y732461D01*
X625430Y732311D01*
X624688Y731570D01*
X624539Y731346D01*
X624337Y731169D01*
X623698Y730337D01*
X623579Y730096D01*
X623402Y729893D01*
X622878Y728985D01*
X622791Y728730D01*
X622642Y728507D01*
X622240Y727538D01*
X622188Y727274D01*
X622069Y727033D01*
X621797Y726020D01*
X621780Y725751D01*
X621693Y725497D01*
X621639Y725084D01*
X620900Y724693D01*
X620161Y725084D01*
X620107Y725497D01*
X620020Y725751D01*
X620002Y726020D01*
X619731Y727033D01*
X619612Y727274D01*
X619560Y727538D01*
X619158Y728507D01*
X619009Y728730D01*
X618922Y728985D01*
X618398Y729893D01*
X618220Y730096D01*
X618102Y730337D01*
X617463Y731169D01*
X617261Y731346D01*
X617111Y731570D01*
X616370Y732311D01*
X616146Y732461D01*
X615969Y732663D01*
X615137Y733302D01*
X614896Y733421D01*
X614693Y733598D01*
X613785Y734122D01*
X613530Y734209D01*
X613307Y734358D01*
X612338Y734760D01*
X612074Y734812D01*
X611833Y734931D01*
X610820Y735202D01*
X610551Y735220D01*
X610296Y735307D01*
X609257Y735443D01*
X608988Y735426D01*
X608724Y735478D01*
X607676D01*
X607412Y735426D01*
X607143Y735443D01*
X606104Y735307D01*
X605849Y735220D01*
X605580Y735202D01*
X604567Y734931D01*
X604326Y734812D01*
X604062Y734760D01*
X603093Y734358D01*
X602870Y734209D01*
X602615Y734122D01*
X601707Y733598D01*
X601504Y733421D01*
X601263Y733302D01*
X600431Y732663D01*
X600254Y732461D01*
X600030Y732311D01*
X599288Y731570D01*
X599139Y731346D01*
X598937Y731169D01*
X598298Y730337D01*
X598179Y730096D01*
X598002Y729893D01*
X597478Y728985D01*
X597391Y728730D01*
X597242Y728507D01*
X596840Y727538D01*
X596788Y727274D01*
X596669Y727033D01*
X596398Y726020D01*
X596380Y725751D01*
X596293Y725497D01*
X596239Y725084D01*
X595500Y724693D01*
X594761Y725084D01*
X594706Y725497D01*
X594620Y725751D01*
X594602Y726020D01*
X594331Y727033D01*
X594212Y727274D01*
X594160Y727538D01*
X593758Y728507D01*
X593609Y728730D01*
X593522Y728985D01*
X592998Y729893D01*
X592821Y730096D01*
X592701Y730337D01*
X592063Y731169D01*
X591861Y731346D01*
X591711Y731570D01*
X590970Y732311D01*
X590746Y732461D01*
X590569Y732663D01*
X589737Y733302D01*
X589496Y733421D01*
X589356Y733543D01*
Y784194D01*
X708212D01*
X756359Y736047D01*
X756372Y736002D01*
X756395Y735694D01*
X756030Y734580D01*
X755493Y734358D01*
X755270Y734209D01*
X755015Y734122D01*
X754107Y733598D01*
X753904Y733421D01*
X753663Y733302D01*
X752831Y732663D01*
X752654Y732461D01*
X752430Y732311D01*
X751689Y731570D01*
X751539Y731346D01*
X751337Y731169D01*
X750698Y730337D01*
X750579Y730096D01*
X750402Y729893D01*
X749878Y728985D01*
X749791Y728730D01*
X749642Y728507D01*
X749240Y727538D01*
X749188Y727274D01*
X749069Y727033D01*
X748798Y726020D01*
X748780Y725751D01*
X748693Y725497D01*
X748639Y725084D01*
X747900Y724693D01*
X747161Y725084D01*
X747106Y725497D01*
X747020Y725751D01*
X747002Y726020D01*
X746731Y727033D01*
X746612Y727274D01*
X746560Y727538D01*
X746158Y728507D01*
X746009Y728730D01*
X745922Y728985D01*
X745398Y729893D01*
X745220Y730096D01*
X745101Y730337D01*
X744463Y731169D01*
X744261Y731346D01*
X744111Y731570D01*
X743370Y732311D01*
X743146Y732461D01*
X742969Y732663D01*
X742137Y733302D01*
X741896Y733421D01*
X741693Y733598D01*
X740785Y734122D01*
X740530Y734209D01*
X740306Y734358D01*
X739338Y734760D01*
X739074Y734812D01*
X738832Y734931D01*
X737820Y735202D01*
X737551Y735220D01*
X737296Y735307D01*
X736257Y735443D01*
X735988Y735426D01*
X735724Y735478D01*
X734676D01*
X734412Y735426D01*
X734143Y735443D01*
X733103Y735307D01*
X732849Y735220D01*
X732580Y735202D01*
X731567Y734931D01*
X731326Y734812D01*
X731062Y734760D01*
X730093Y734358D01*
X729870Y734209D01*
X729615Y734122D01*
X728707Y733598D01*
X728504Y733421D01*
X728263Y733302D01*
X727431Y732663D01*
X727254Y732461D01*
X727030Y732311D01*
X726289Y731570D01*
X726139Y731346D01*
X725937Y731169D01*
X725298Y730337D01*
X725179Y730096D01*
X725002Y729893D01*
X724478Y728985D01*
X724391Y728730D01*
X724242Y728507D01*
X723840Y727538D01*
X723788Y727274D01*
X723669Y727033D01*
X723398Y726020D01*
X723380Y725751D01*
X723293Y725497D01*
X723239Y725084D01*
X722500Y724693D01*
X721761Y725084D01*
X721706Y725497D01*
X721620Y725751D01*
X721602Y726020D01*
X721331Y727033D01*
X721212Y727274D01*
X721160Y727538D01*
X720758Y728507D01*
X720609Y728730D01*
X720522Y728985D01*
X719998Y729893D01*
X719820Y730096D01*
X719702Y730337D01*
X719063Y731169D01*
X718861Y731346D01*
X718711Y731570D01*
X717970Y732311D01*
X717746Y732461D01*
X717569Y732663D01*
X716737Y733302D01*
X716496Y733421D01*
X716293Y733598D01*
X715385Y734122D01*
X715130Y734209D01*
X714906Y734358D01*
X713938Y734760D01*
X713674Y734812D01*
X713432Y734931D01*
X712420Y735202D01*
X712151Y735220D01*
X711896Y735307D01*
X710857Y735443D01*
X710588Y735426D01*
X710324Y735478D01*
X709276D01*
X709012Y735426D01*
X708743Y735443D01*
X707703Y735307D01*
X707449Y735220D01*
X707180Y735202D01*
X706167Y734931D01*
X705926Y734812D01*
X705662Y734760D01*
X704693Y734358D01*
X704470Y734209D01*
X704215Y734122D01*
X703307Y733598D01*
X703104Y733421D01*
X702863Y733302D01*
X702031Y732663D01*
X701854Y732461D01*
X701630Y732311D01*
X700889Y731570D01*
X700739Y731346D01*
X700537Y731169D01*
X699898Y730337D01*
X699779Y730096D01*
X699602Y729893D01*
X699078Y728985D01*
X698991Y728730D01*
X698842Y728507D01*
X698440Y727538D01*
X698388Y727274D01*
X698269Y727033D01*
X697998Y726020D01*
X697980Y725751D01*
X697893Y725497D01*
X697839Y725084D01*
X697100Y724693D01*
X696361Y725084D01*
X696307Y725497D01*
X696220Y725751D01*
X696202Y726020D01*
X695931Y727033D01*
X695812Y727274D01*
X695760Y727538D01*
X695358Y728507D01*
X695209Y728730D01*
X695122Y728985D01*
X694598Y729893D01*
X694420Y730096D01*
X694302Y730337D01*
X693663Y731169D01*
X693461Y731346D01*
X693311Y731570D01*
X692570Y732311D01*
X692346Y732461D01*
X692169Y732663D01*
X691337Y733302D01*
X691096Y733421D01*
X690893Y733598D01*
X689985Y734122D01*
X689730Y734209D01*
X689507Y734358D01*
X688538Y734760D01*
X688274Y734812D01*
X688033Y734931D01*
X687020Y735202D01*
X686751Y735220D01*
X686496Y735307D01*
X685457Y735443D01*
X685188Y735426D01*
X684924Y735478D01*
X683876D01*
X683612Y735426D01*
X683343Y735443D01*
X682303Y735307D01*
X682049Y735220D01*
X681780Y735202D01*
X680767Y734931D01*
X680526Y734812D01*
X680262Y734760D01*
X679293Y734358D01*
X679070Y734209D01*
X678815Y734122D01*
X677907Y733598D01*
X677704Y733421D01*
X677463Y733302D01*
X676631Y732663D01*
X676454Y732461D01*
X676230Y732311D01*
X675489Y731570D01*
X675339Y731346D01*
X675137Y731169D01*
X674498Y730337D01*
X674379Y730096D01*
X674202Y729893D01*
X673678Y728985D01*
X673591Y728730D01*
X673442Y728507D01*
X673040Y727538D01*
X672988Y727274D01*
X672869Y727033D01*
X672598Y726020D01*
X672580Y725751D01*
X672493Y725497D01*
X672356Y724457D01*
X672374Y724188D01*
X672322Y723924D01*
Y700876D01*
X672374Y700612D01*
X672356Y700343D01*
X672493Y699304D01*
X672580Y699049D01*
X672592Y698864D01*
X670763Y697035D01*
X669590Y697521D01*
Y698900D01*
X661500D01*
Y690810D01*
X662879D01*
X663365Y689637D01*
X593284Y619556D01*
X545081D01*
X543355Y621282D01*
X540995Y622645D01*
X538363Y623350D01*
X535637D01*
X533005Y622645D01*
X530645Y621282D01*
X528718Y619355D01*
X527355Y616995D01*
X526650Y614363D01*
Y611637D01*
X527355Y609005D01*
X528718Y606645D01*
X530645Y604718D01*
X533005Y603355D01*
X534980Y602826D01*
X534813Y601556D01*
X530081D01*
X528355Y603282D01*
X525995Y604645D01*
X523363Y605350D01*
X520637D01*
X518005Y604645D01*
X515645Y603282D01*
X513718Y601355D01*
X512355Y598995D01*
X511650Y596363D01*
Y593637D01*
X512355Y591005D01*
X513718Y588645D01*
X515645Y586718D01*
X518005Y585355D01*
X520637Y584650D01*
X523363D01*
X525995Y585355D01*
X528355Y586718D01*
X530081Y588444D01*
X603400D01*
X605097Y588667D01*
X606678Y589322D01*
X608036Y590364D01*
X707264Y689592D01*
X707449Y689580D01*
X707703Y689493D01*
X708743Y689357D01*
X709012Y689374D01*
X709276Y689322D01*
X710324Y689322D01*
X710588Y689374D01*
X710857Y689357D01*
X711896Y689493D01*
X712151Y689580D01*
X712420Y689598D01*
X713432Y689869D01*
X713674Y689988D01*
X713938Y690041D01*
X714906Y690442D01*
X715130Y690591D01*
X715385Y690678D01*
X716293Y691202D01*
X716496Y691379D01*
X716737Y691498D01*
X717569Y692137D01*
X717746Y692339D01*
X717970Y692489D01*
X718711Y693230D01*
X718861Y693454D01*
X719063Y693631D01*
X719702Y694463D01*
X719820Y694705D01*
X719998Y694907D01*
X720522Y695815D01*
X720609Y696070D01*
X720758Y696293D01*
X721160Y697262D01*
X721212Y697526D01*
X721331Y697767D01*
X721602Y698780D01*
X721620Y699049D01*
X721706Y699304D01*
X721761Y699716D01*
X722500Y700107D01*
X723239Y699716D01*
X723293Y699304D01*
X723380Y699049D01*
X723398Y698780D01*
X723669Y697767D01*
X723788Y697526D01*
X723840Y697262D01*
X724242Y696293D01*
X724391Y696070D01*
X724478Y695815D01*
X725002Y694907D01*
X725179Y694705D01*
X725298Y694463D01*
X725937Y693631D01*
X726139Y693454D01*
X726289Y693230D01*
X727030Y692489D01*
X727254Y692339D01*
X727431Y692137D01*
X728263Y691498D01*
X728504Y691379D01*
X728707Y691202D01*
X729615Y690678D01*
X729870Y690591D01*
X730093Y690442D01*
X731062Y690040D01*
X731326Y689988D01*
X731567Y689869D01*
X732580Y689598D01*
X732849Y689580D01*
X733103Y689493D01*
X734143Y689357D01*
X734412Y689374D01*
X734676Y689322D01*
X735724Y689322D01*
X735988Y689374D01*
X736257Y689357D01*
X737296Y689493D01*
X737551Y689580D01*
X737820Y689598D01*
X738832Y689869D01*
X739074Y689988D01*
X739338Y690041D01*
X740306Y690442D01*
X740530Y690591D01*
X740785Y690678D01*
X741693Y691202D01*
X741896Y691379D01*
X742137Y691498D01*
X742969Y692137D01*
X743146Y692339D01*
X743370Y692489D01*
X744111Y693230D01*
X744261Y693454D01*
X744463Y693631D01*
X745101Y694463D01*
X745220Y694705D01*
X745398Y694907D01*
X745922Y695815D01*
X746009Y696070D01*
X746158Y696293D01*
X746560Y697262D01*
X746612Y697526D01*
X746731Y697767D01*
X747002Y698780D01*
X747020Y699049D01*
X747106Y699304D01*
X747161Y699716D01*
X747900Y700107D01*
X748639Y699716D01*
X748693Y699304D01*
X748780Y699049D01*
X748798Y698780D01*
X749069Y697767D01*
X749188Y697526D01*
X749240Y697262D01*
X749642Y696293D01*
X749791Y696070D01*
X749878Y695815D01*
X750402Y694907D01*
X750579Y694705D01*
X750698Y694463D01*
X751337Y693631D01*
X751539Y693454D01*
X751689Y693230D01*
X752430Y692489D01*
X752654Y692339D01*
X752831Y692137D01*
X753663Y691498D01*
X753904Y691379D01*
X754107Y691202D01*
X755015Y690678D01*
X755270Y690591D01*
X755493Y690442D01*
X756462Y690040D01*
X756726Y689988D01*
X756967Y689869D01*
X757980Y689598D01*
X758249Y689580D01*
X758503Y689493D01*
X759543Y689357D01*
X759812Y689374D01*
X760076Y689322D01*
X761124Y689322D01*
X761388Y689374D01*
X761657Y689357D01*
X762696Y689493D01*
X762951Y689580D01*
X763220Y689598D01*
X764232Y689869D01*
X764474Y689988D01*
X764738Y690041D01*
X765174Y690221D01*
X766311Y689593D01*
X766444Y689407D01*
Y656000D01*
X766667Y654303D01*
X767322Y652722D01*
X768364Y651364D01*
X883455Y536273D01*
X883471Y536197D01*
X883468Y535784D01*
X883116Y534816D01*
X882493Y534558D01*
X882270Y534409D01*
X882015Y534322D01*
X881107Y533798D01*
X880904Y533621D01*
X880663Y533502D01*
X879831Y532863D01*
X879654Y532661D01*
X879430Y532511D01*
X878689Y531770D01*
X878539Y531546D01*
X878337Y531369D01*
X877698Y530537D01*
X877579Y530296D01*
X877402Y530093D01*
X876878Y529185D01*
X876791Y528930D01*
X876642Y528707D01*
X876240Y527738D01*
X876188Y527474D01*
X876069Y527233D01*
X875798Y526220D01*
X875780Y525951D01*
X875693Y525696D01*
X875639Y525284D01*
X874900Y524893D01*
X874161Y525284D01*
X874107Y525696D01*
X874020Y525951D01*
X874002Y526220D01*
X873731Y527233D01*
X873612Y527474D01*
X873560Y527738D01*
X873158Y528707D01*
X873009Y528930D01*
X872922Y529185D01*
X872398Y530093D01*
X872221Y530296D01*
X872102Y530537D01*
X871463Y531369D01*
X871261Y531546D01*
X871111Y531770D01*
X870370Y532511D01*
X870146Y532661D01*
X869969Y532863D01*
X869137Y533502D01*
X868896Y533621D01*
X868693Y533798D01*
X867785Y534322D01*
X867530Y534409D01*
X867307Y534558D01*
X866338Y534960D01*
X866074Y535012D01*
X865833Y535131D01*
X864820Y535402D01*
X864551Y535420D01*
X864296Y535507D01*
X863257Y535644D01*
X862988Y535626D01*
X862724Y535678D01*
X862200Y535678D01*
X861676D01*
X861412Y535626D01*
X861143Y535644D01*
X860104Y535507D01*
X859849Y535420D01*
X859580Y535402D01*
X858568Y535131D01*
X858326Y535012D01*
X858062Y534960D01*
X857093Y534558D01*
X856870Y534409D01*
X856615Y534322D01*
X855707Y533798D01*
X855504Y533621D01*
X855263Y533502D01*
X854431Y532863D01*
X854254Y532661D01*
X854030Y532511D01*
X853288Y531770D01*
X853139Y531546D01*
X852937Y531369D01*
X852298Y530537D01*
X852179Y530296D01*
X852002Y530093D01*
X851478Y529185D01*
X851391Y528930D01*
X851242Y528707D01*
X850840Y527738D01*
X850788Y527474D01*
X850669Y527233D01*
X850397Y526220D01*
X850380Y525951D01*
X850293Y525696D01*
X850239Y525284D01*
X849500Y524893D01*
X848761Y525284D01*
X848707Y525696D01*
X848620Y525951D01*
X848602Y526220D01*
X848331Y527233D01*
X848212Y527474D01*
X848160Y527738D01*
X847758Y528707D01*
X847609Y528930D01*
X847522Y529185D01*
X846998Y530093D01*
X846821Y530296D01*
X846702Y530537D01*
X846063Y531369D01*
X845861Y531546D01*
X845711Y531770D01*
X844970Y532511D01*
X844746Y532661D01*
X844569Y532863D01*
X843737Y533502D01*
X843496Y533621D01*
X843293Y533798D01*
X842385Y534322D01*
X842130Y534409D01*
X841907Y534558D01*
X840938Y534960D01*
X840674Y535012D01*
X840433Y535131D01*
X839420Y535402D01*
X839151Y535420D01*
X838896Y535507D01*
X837857Y535644D01*
X837588Y535626D01*
X837324Y535678D01*
X836800Y535678D01*
X836276D01*
X836012Y535626D01*
X835743Y535644D01*
X834704Y535507D01*
X834449Y535420D01*
X834180Y535402D01*
X833167Y535131D01*
X832926Y535012D01*
X832662Y534960D01*
X831693Y534558D01*
X831470Y534409D01*
X831215Y534322D01*
X830307Y533798D01*
X830104Y533621D01*
X829863Y533502D01*
X829031Y532863D01*
X828854Y532661D01*
X828630Y532511D01*
X827888Y531770D01*
X827739Y531546D01*
X827537Y531369D01*
X826898Y530537D01*
X826779Y530296D01*
X826602Y530093D01*
X826078Y529185D01*
X825991Y528930D01*
X825842Y528707D01*
X825440Y527738D01*
X825388Y527474D01*
X825269Y527233D01*
X824997Y526220D01*
X824980Y525951D01*
X824893Y525696D01*
X824839Y525284D01*
X824100Y524893D01*
X823361Y525284D01*
X823307Y525696D01*
X823220Y525951D01*
X823202Y526220D01*
X822931Y527233D01*
X822812Y527474D01*
X822760Y527738D01*
X822358Y528707D01*
X822209Y528930D01*
X822122Y529185D01*
X821598Y530093D01*
X821421Y530296D01*
X821301Y530537D01*
X820663Y531369D01*
X820461Y531546D01*
X820311Y531770D01*
X819570Y532511D01*
X819346Y532661D01*
X819169Y532863D01*
X818337Y533502D01*
X818096Y533621D01*
X817893Y533798D01*
X816985Y534322D01*
X816730Y534409D01*
X816507Y534558D01*
X815538Y534960D01*
X815274Y535012D01*
X815033Y535131D01*
X814020Y535402D01*
X813751Y535420D01*
X813496Y535507D01*
X812457Y535644D01*
X812188Y535626D01*
X811924Y535678D01*
X811400Y535678D01*
X810876D01*
X810612Y535626D01*
X810343Y535644D01*
X809304Y535507D01*
X809049Y535420D01*
X808780Y535402D01*
X807767Y535131D01*
X807526Y535012D01*
X807262Y534960D01*
X806293Y534558D01*
X806070Y534409D01*
X805815Y534322D01*
X804907Y533798D01*
X804704Y533621D01*
X804463Y533502D01*
X803631Y532863D01*
X803454Y532661D01*
X803230Y532511D01*
X802488Y531770D01*
X802339Y531546D01*
X802137Y531369D01*
X801498Y530537D01*
X801379Y530296D01*
X801202Y530093D01*
X800678Y529185D01*
X800591Y528930D01*
X800442Y528707D01*
X800040Y527738D01*
X799988Y527474D01*
X799869Y527233D01*
X799597Y526220D01*
X799580Y525951D01*
X799493Y525696D01*
X799357Y524657D01*
X799374Y524388D01*
X799322Y524124D01*
X799322Y501076D01*
X799374Y500812D01*
X799357Y500543D01*
X799493Y499504D01*
X799580Y499249D01*
X799597Y498980D01*
X799869Y497967D01*
X799988Y497726D01*
X800040Y497462D01*
X800442Y496493D01*
X800591Y496270D01*
X800678Y496015D01*
X801202Y495107D01*
X801379Y494904D01*
X801498Y494663D01*
X802137Y493831D01*
X802339Y493654D01*
X802488Y493430D01*
X803230Y492689D01*
X803454Y492539D01*
X803631Y492337D01*
X804463Y491698D01*
X804704Y491580D01*
X804907Y491402D01*
X805815Y490878D01*
X806070Y490791D01*
X806293Y490642D01*
X807262Y490240D01*
X807526Y490188D01*
X807767Y490069D01*
X808780Y489798D01*
X809049Y489780D01*
X809304Y489693D01*
X810343Y489557D01*
X810612Y489574D01*
X810876Y489522D01*
X811924D01*
X812188Y489574D01*
X812457Y489557D01*
X813496Y489693D01*
X813751Y489780D01*
X814020Y489798D01*
X815033Y490069D01*
X815274Y490188D01*
X815538Y490240D01*
X816507Y490642D01*
X816730Y490791D01*
X816985Y490878D01*
X817893Y491402D01*
X818095Y491580D01*
X818337Y491698D01*
X819169Y492337D01*
X819346Y492539D01*
X819570Y492689D01*
X820311Y493430D01*
X820461Y493654D01*
X820663Y493831D01*
X821301Y494663D01*
X821421Y494904D01*
X821598Y495107D01*
X822122Y496015D01*
X822209Y496270D01*
X822358Y496493D01*
X822760Y497462D01*
X822812Y497726D01*
X822931Y497967D01*
X823202Y498980D01*
X823220Y499249D01*
X823307Y499504D01*
X823361Y499916D01*
X824100Y500307D01*
X824839Y499916D01*
X824893Y499504D01*
X824980Y499249D01*
X824997Y498980D01*
X825269Y497967D01*
X825388Y497726D01*
X825440Y497462D01*
X825842Y496493D01*
X825991Y496270D01*
X826078Y496015D01*
X826602Y495107D01*
X826779Y494904D01*
X826898Y494663D01*
X827537Y493831D01*
X827739Y493654D01*
X827888Y493430D01*
X828630Y492689D01*
X828854Y492539D01*
X829031Y492337D01*
X829863Y491698D01*
X830104Y491580D01*
X830307Y491402D01*
X831215Y490878D01*
X831470Y490791D01*
X831693Y490642D01*
X832662Y490240D01*
X832926Y490188D01*
X833167Y490069D01*
X834180Y489798D01*
X834449Y489780D01*
X834704Y489693D01*
X835743Y489557D01*
X836012Y489574D01*
X836276Y489522D01*
X837324D01*
X837588Y489574D01*
X837857Y489557D01*
X838896Y489693D01*
X839151Y489780D01*
X839420Y489798D01*
X840433Y490069D01*
X840674Y490188D01*
X840938Y490240D01*
X841907Y490642D01*
X842130Y490791D01*
X842385Y490878D01*
X843293Y491402D01*
X843495Y491580D01*
X843737Y491698D01*
X844569Y492337D01*
X844746Y492539D01*
X844970Y492689D01*
X845711Y493430D01*
X845861Y493654D01*
X846063Y493831D01*
X846702Y494663D01*
X846821Y494904D01*
X846998Y495107D01*
X847522Y496015D01*
X847609Y496270D01*
X847758Y496493D01*
X848160Y497462D01*
X848212Y497726D01*
X848331Y497967D01*
X848602Y498980D01*
X848620Y499249D01*
X848707Y499504D01*
X848761Y499916D01*
X849500Y500307D01*
X850239Y499916D01*
X850293Y499504D01*
X850380Y499249D01*
X850397Y498980D01*
X850669Y497967D01*
X850788Y497726D01*
X850840Y497462D01*
X851242Y496493D01*
X851391Y496270D01*
X851478Y496015D01*
X852002Y495107D01*
X852179Y494904D01*
X852298Y494663D01*
X852937Y493831D01*
X853139Y493654D01*
X853288Y493430D01*
X854030Y492689D01*
X854254Y492539D01*
X854431Y492337D01*
X855263Y491698D01*
X855504Y491580D01*
X855707Y491402D01*
X856615Y490878D01*
X856870Y490791D01*
X857093Y490642D01*
X858062Y490240D01*
X858326Y490188D01*
X858567Y490069D01*
X859580Y489798D01*
X859849Y489780D01*
X860104Y489693D01*
X861143Y489557D01*
X861412Y489574D01*
X861676Y489522D01*
X862724D01*
X862988Y489574D01*
X863257Y489557D01*
X864296Y489693D01*
X864551Y489780D01*
X864820Y489798D01*
X865833Y490069D01*
X866074Y490188D01*
X866338Y490240D01*
X867307Y490642D01*
X867530Y490791D01*
X867785Y490878D01*
X868693Y491402D01*
X868895Y491580D01*
X869137Y491698D01*
X869969Y492337D01*
X870146Y492539D01*
X870370Y492689D01*
X871111Y493430D01*
X871261Y493654D01*
X871463Y493831D01*
X872102Y494663D01*
X872221Y494904D01*
X872398Y495107D01*
X872922Y496015D01*
X873009Y496270D01*
X873158Y496493D01*
X873560Y497462D01*
X873612Y497726D01*
X873731Y497967D01*
X874002Y498980D01*
X874020Y499249D01*
X874107Y499504D01*
X874161Y499916D01*
X874900Y500307D01*
X875639Y499916D01*
X875693Y499504D01*
X875780Y499249D01*
X875798Y498980D01*
X876069Y497967D01*
X876188Y497726D01*
X876240Y497462D01*
X876642Y496493D01*
X876791Y496270D01*
X876878Y496015D01*
X877402Y495107D01*
X877579Y494904D01*
X877698Y494663D01*
X878337Y493831D01*
X878539Y493654D01*
X878689Y493430D01*
X879430Y492689D01*
X879654Y492539D01*
X879831Y492337D01*
X880663Y491698D01*
X880904Y491580D01*
X881107Y491402D01*
X882015Y490878D01*
X882270Y490791D01*
X882493Y490642D01*
X883462Y490240D01*
X883726Y490188D01*
X883967Y490069D01*
X884980Y489798D01*
X885249Y489780D01*
X885503Y489693D01*
X886543Y489557D01*
X886812Y489574D01*
X887076Y489522D01*
X888124D01*
X888388Y489574D01*
X888657Y489557D01*
X889696Y489693D01*
X889951Y489780D01*
X890220Y489798D01*
X891233Y490069D01*
X891474Y490188D01*
X891738Y490240D01*
X892472Y490545D01*
X893036Y490499D01*
X893745Y490192D01*
X893998Y489881D01*
X894422Y488858D01*
X895464Y487500D01*
X911944Y471020D01*
Y358216D01*
X745114Y191386D01*
X744072Y190028D01*
X743417Y188447D01*
X743194Y186750D01*
Y44081D01*
X741468Y42355D01*
X740105Y39995D01*
X739400Y37363D01*
Y34637D01*
X740105Y32005D01*
X741468Y29645D01*
X743395Y27718D01*
X745755Y26355D01*
X748387Y25650D01*
X751113D01*
X753745Y26355D01*
X756105Y27718D01*
X758032Y29645D01*
X759395Y32005D01*
X760100Y34637D01*
Y37363D01*
X759395Y39995D01*
X758032Y42355D01*
X756306Y44081D01*
Y83357D01*
X757576Y83524D01*
X757618Y83368D01*
X759198Y80632D01*
X761432Y78398D01*
X764168Y76818D01*
X767220Y76000D01*
X770380D01*
X773432Y76818D01*
X776168Y78398D01*
X778402Y80632D01*
X779982Y83368D01*
X780800Y86420D01*
Y89580D01*
X779982Y92632D01*
X778402Y95368D01*
X776168Y97602D01*
X773432Y99182D01*
X770380Y100000D01*
X767220D01*
X764168Y99182D01*
X761432Y97602D01*
X759198Y95368D01*
X757618Y92632D01*
X757576Y92476D01*
X756306Y92643D01*
Y184034D01*
X923136Y350864D01*
X924178Y352222D01*
X924833Y353803D01*
X925056Y355500D01*
Y473736D01*
X924833Y475433D01*
X924178Y477014D01*
X923136Y478372D01*
X911671Y489837D01*
X912157Y491010D01*
X921000D01*
X921991Y491207D01*
X922831Y491769D01*
X923393Y492609D01*
X923590Y493600D01*
Y521100D01*
X913000D01*
Y523600D01*
X910500D01*
Y534190D01*
X905000D01*
X904234Y534038D01*
X779556Y658716D01*
Y690810D01*
X783500D01*
Y701400D01*
Y733990D01*
X778000D01*
X777132Y733817D01*
X715564Y795386D01*
X714206Y796428D01*
X712625Y797083D01*
X710928Y797306D01*
X589356D01*
Y816200D01*
X589133Y817897D01*
X588478Y819478D01*
X587436Y820836D01*
X570556Y837716D01*
Y845919D01*
X572282Y847645D01*
X573645Y850005D01*
X574350Y852637D01*
Y855363D01*
X573645Y857995D01*
X572282Y860355D01*
X570355Y862282D01*
X567995Y863645D01*
X565363Y864350D01*
X562922D01*
X541636Y885636D01*
X540278Y886678D01*
X538697Y887333D01*
X537000Y887556D01*
D02*
G37*
G36*
X496000Y760599D02*
X458787D01*
X455785Y760204D01*
X452987Y759045D01*
X450585Y757202D01*
X441798Y748415D01*
X439955Y746013D01*
X438796Y743215D01*
X438401Y740213D01*
Y565581D01*
X437799Y565332D01*
X437131Y565159D01*
X435181Y566284D01*
X434250Y566534D01*
Y558000D01*
Y549466D01*
X435181Y549716D01*
X437131Y550841D01*
X437799Y550668D01*
X438401Y550419D01*
Y504500D01*
X438796Y501498D01*
X439955Y498700D01*
X440090Y498524D01*
X440415Y497740D01*
X442258Y495338D01*
X477798Y459798D01*
X586401Y351195D01*
Y263000D01*
X586796Y259998D01*
X587955Y257200D01*
X589798Y254798D01*
X592200Y252955D01*
X594998Y251796D01*
X598000Y251401D01*
X601002Y251796D01*
X603800Y252955D01*
X606202Y254798D01*
X608045Y257200D01*
X609204Y259998D01*
X609599Y263000D01*
Y356000D01*
X609599Y356000D01*
X609204Y359002D01*
X608045Y361800D01*
X606202Y364202D01*
X606202Y364202D01*
X604033Y366371D01*
X604626Y367573D01*
X605610Y367444D01*
X823386D01*
X824432Y366398D01*
X827168Y364818D01*
X830220Y364000D01*
X833380D01*
X836432Y364818D01*
X839168Y366398D01*
X841402Y368632D01*
X842982Y371368D01*
X843800Y374420D01*
Y377580D01*
X843629Y378218D01*
X844765Y378886D01*
X845388Y378283D01*
X845200Y377580D01*
Y374420D01*
X846018Y371368D01*
X847598Y368632D01*
X849832Y366398D01*
X852568Y364818D01*
X855620Y364000D01*
X858780D01*
X861832Y364818D01*
X864568Y366398D01*
X866802Y368632D01*
X868382Y371368D01*
X869200Y374420D01*
Y377580D01*
X868382Y380632D01*
X866802Y383368D01*
X864568Y385602D01*
X861832Y387182D01*
X858780Y388000D01*
X855620D01*
X854714Y387757D01*
X777836Y464636D01*
X776478Y465678D01*
X774897Y466333D01*
X773200Y466556D01*
X570350D01*
X568653Y466333D01*
X567072Y465678D01*
X565714Y464636D01*
X564108Y463029D01*
X560608D01*
X560355Y463282D01*
X557995Y464645D01*
X555363Y465350D01*
X552637D01*
X550005Y464645D01*
X547645Y463282D01*
X545718Y461355D01*
X544355Y458995D01*
X543650Y456363D01*
Y453637D01*
X544274Y451309D01*
X543188Y450600D01*
X542355Y451432D01*
X539995Y452795D01*
X537363Y453500D01*
X534637D01*
X532005Y452795D01*
X529645Y451432D01*
X527718Y449505D01*
X526355Y447145D01*
X526030Y445929D01*
X524803Y445601D01*
X500883Y469521D01*
X501627Y470572D01*
X514629D01*
X515005Y470355D01*
X517637Y469650D01*
X520363D01*
X522995Y470355D01*
X525355Y471718D01*
X527282Y473645D01*
X528645Y476005D01*
X529350Y478637D01*
Y481363D01*
X528645Y483995D01*
X527282Y486355D01*
X525355Y488282D01*
X522995Y489645D01*
X520363Y490350D01*
X517637D01*
X515005Y489645D01*
X513417Y488728D01*
X510134D01*
X509966Y489998D01*
X510233Y490069D01*
X510474Y490188D01*
X510738Y490240D01*
X511707Y490642D01*
X511930Y490791D01*
X512185Y490878D01*
X513093Y491402D01*
X513296Y491580D01*
X513537Y491698D01*
X514369Y492337D01*
X514546Y492539D01*
X514770Y492689D01*
X515511Y493430D01*
X515661Y493654D01*
X515863Y493831D01*
X516502Y494663D01*
X516620Y494904D01*
X516798Y495107D01*
X517322Y496015D01*
X517409Y496270D01*
X517558Y496493D01*
X517960Y497462D01*
X518012Y497726D01*
X518131Y497967D01*
X518402Y498980D01*
X518420Y499249D01*
X518507Y499504D01*
X518643Y500543D01*
X518626Y500812D01*
X518678Y501076D01*
Y524124D01*
X518626Y524388D01*
X518643Y524657D01*
X518507Y525696D01*
X518420Y525951D01*
X518402Y526220D01*
X518131Y527233D01*
X518012Y527474D01*
X517960Y527738D01*
X517558Y528707D01*
X517409Y528930D01*
X517322Y529185D01*
X516798Y530093D01*
X516620Y530296D01*
X516502Y530537D01*
X515863Y531369D01*
X515661Y531546D01*
X515511Y531770D01*
X514770Y532511D01*
X514546Y532661D01*
X514369Y532863D01*
X513537Y533502D01*
X513296Y533621D01*
X513093Y533798D01*
X512185Y534322D01*
X511930Y534409D01*
X511707Y534558D01*
X510738Y534960D01*
X510474Y535012D01*
X510233Y535131D01*
X509220Y535402D01*
X508951Y535420D01*
X508696Y535507D01*
X507657Y535644D01*
X507388Y535626D01*
X507124Y535678D01*
X506600Y535678D01*
X506076D01*
X505812Y535626D01*
X505543Y535644D01*
X504504Y535507D01*
X504249Y535420D01*
X503980Y535402D01*
X502967Y535131D01*
X502726Y535012D01*
X502462Y534960D01*
X501493Y534558D01*
X501270Y534409D01*
X501015Y534322D01*
X500107Y533798D01*
X499904Y533621D01*
X499663Y533502D01*
X498831Y532863D01*
X498654Y532661D01*
X498430Y532511D01*
X497688Y531770D01*
X497539Y531546D01*
X497337Y531369D01*
X496698Y530537D01*
X496579Y530296D01*
X496402Y530093D01*
X495878Y529185D01*
X495791Y528930D01*
X495642Y528707D01*
X495240Y527738D01*
X495188Y527474D01*
X495069Y527233D01*
X494798Y526220D01*
X494780Y525951D01*
X494693Y525696D01*
X494639Y525284D01*
X493900Y524893D01*
X493161Y525284D01*
X493106Y525696D01*
X493020Y525951D01*
X493002Y526220D01*
X492731Y527233D01*
X492612Y527474D01*
X492560Y527738D01*
X492158Y528707D01*
X492009Y528930D01*
X491922Y529185D01*
X491398Y530093D01*
X491221Y530296D01*
X491101Y530537D01*
X490463Y531369D01*
X490261Y531546D01*
X490111Y531770D01*
X489370Y532511D01*
X489146Y532661D01*
X489086Y532730D01*
X489183Y533266D01*
X489573Y534000D01*
X489618D01*
X493771Y534826D01*
X497684Y536447D01*
X501205Y538800D01*
X504200Y541795D01*
X506553Y545316D01*
X508174Y549229D01*
X509000Y553382D01*
Y557618D01*
X508174Y561771D01*
X506553Y565684D01*
X504200Y569206D01*
X501205Y572200D01*
X497684Y574553D01*
X493771Y576174D01*
X489618Y577000D01*
X485382D01*
X481229Y576174D01*
X477316Y574553D01*
X473795Y572200D01*
X470800Y569206D01*
X468447Y565684D01*
X466826Y561771D01*
X466000Y557618D01*
Y553382D01*
X466826Y549229D01*
X468447Y545316D01*
X470800Y541795D01*
X473795Y538800D01*
X477316Y536447D01*
X477416Y536405D01*
X477507Y535639D01*
X477388Y535043D01*
X477326Y535012D01*
X477062Y534960D01*
X476093Y534558D01*
X475870Y534409D01*
X475615Y534322D01*
X474707Y533798D01*
X474504Y533621D01*
X474263Y533502D01*
X473431Y532863D01*
X473254Y532661D01*
X473030Y532511D01*
X472289Y531770D01*
X472139Y531546D01*
X471937Y531369D01*
X471298Y530537D01*
X471179Y530296D01*
X471002Y530093D01*
X470478Y529185D01*
X470391Y528930D01*
X470242Y528707D01*
X469840Y527738D01*
X469788Y527474D01*
X469669Y527233D01*
X469398Y526220D01*
X469380Y525951D01*
X469293Y525696D01*
X469156Y524657D01*
X469174Y524388D01*
X469122Y524124D01*
X469122Y503078D01*
X467852Y502552D01*
X461599Y508805D01*
Y735409D01*
X463591Y737401D01*
X491195D01*
X495001Y733596D01*
Y726778D01*
X494798Y726020D01*
X494780Y725751D01*
X494693Y725497D01*
X494639Y725084D01*
X493900Y724693D01*
X493161Y725084D01*
X493106Y725497D01*
X493020Y725751D01*
X493002Y726020D01*
X492731Y727033D01*
X492612Y727274D01*
X492560Y727538D01*
X492158Y728507D01*
X492009Y728730D01*
X491922Y728985D01*
X491398Y729893D01*
X491221Y730096D01*
X491101Y730337D01*
X490463Y731169D01*
X490261Y731346D01*
X490111Y731570D01*
X489370Y732311D01*
X489146Y732461D01*
X488969Y732663D01*
X488137Y733302D01*
X487896Y733421D01*
X487693Y733598D01*
X486785Y734122D01*
X486530Y734209D01*
X486306Y734358D01*
X485338Y734760D01*
X485074Y734812D01*
X484832Y734931D01*
X483820Y735202D01*
X483551Y735220D01*
X483296Y735307D01*
X482257Y735443D01*
X481988Y735426D01*
X481724Y735478D01*
X480676D01*
X480412Y735426D01*
X480143Y735443D01*
X479104Y735307D01*
X478849Y735220D01*
X478580Y735202D01*
X477567Y734931D01*
X477326Y734812D01*
X477062Y734760D01*
X476093Y734358D01*
X475870Y734209D01*
X475615Y734122D01*
X474707Y733598D01*
X474504Y733421D01*
X474263Y733302D01*
X473431Y732663D01*
X473254Y732461D01*
X473030Y732311D01*
X472289Y731570D01*
X472139Y731346D01*
X471937Y731169D01*
X471298Y730337D01*
X471179Y730096D01*
X471002Y729893D01*
X470478Y728985D01*
X470391Y728730D01*
X470242Y728507D01*
X469840Y727538D01*
X469788Y727274D01*
X469669Y727033D01*
X469398Y726020D01*
X469380Y725751D01*
X469293Y725497D01*
X469156Y724457D01*
X469174Y724188D01*
X469122Y723924D01*
Y700876D01*
X469174Y700612D01*
X469156Y700343D01*
X469293Y699304D01*
X469380Y699049D01*
X469398Y698780D01*
X469669Y697767D01*
X469788Y697526D01*
X469840Y697262D01*
X470242Y696293D01*
X470391Y696070D01*
X470478Y695815D01*
X471002Y694907D01*
X471179Y694705D01*
X471298Y694463D01*
X471937Y693631D01*
X472139Y693454D01*
X472289Y693230D01*
X473030Y692489D01*
X473254Y692339D01*
X473431Y692137D01*
X474263Y691498D01*
X474504Y691379D01*
X474707Y691202D01*
X475615Y690678D01*
X475870Y690591D01*
X476093Y690442D01*
X477062Y690040D01*
X477326Y689988D01*
X477388Y689958D01*
X477507Y689362D01*
X477416Y688595D01*
X477316Y688553D01*
X473795Y686200D01*
X470800Y683205D01*
X468447Y679684D01*
X466826Y675771D01*
X466000Y671618D01*
Y667383D01*
X466826Y663229D01*
X468447Y659316D01*
X470800Y655795D01*
X473795Y652800D01*
X477316Y650447D01*
X481229Y648826D01*
X485382Y648000D01*
X489618D01*
X493771Y648826D01*
X497684Y650447D01*
X501205Y652800D01*
X504200Y655795D01*
X506553Y659316D01*
X508174Y663229D01*
X509000Y667383D01*
Y671618D01*
X508174Y675771D01*
X506553Y679684D01*
X504200Y683205D01*
X501205Y686200D01*
X497684Y688553D01*
X493771Y690174D01*
X489618Y691000D01*
X489573D01*
X489183Y691734D01*
X489086Y692270D01*
X489146Y692339D01*
X489370Y692489D01*
X490111Y693230D01*
X490261Y693454D01*
X490463Y693631D01*
X491101Y694463D01*
X491221Y694705D01*
X491398Y694907D01*
X491922Y695815D01*
X492009Y696070D01*
X492158Y696293D01*
X492560Y697262D01*
X492612Y697526D01*
X492731Y697767D01*
X493002Y698780D01*
X493020Y699049D01*
X493106Y699304D01*
X493161Y699716D01*
X493900Y700107D01*
X494639Y699716D01*
X494693Y699304D01*
X494780Y699049D01*
X494798Y698780D01*
X495069Y697767D01*
X495188Y697526D01*
X495240Y697262D01*
X495642Y696293D01*
X495791Y696070D01*
X495878Y695815D01*
X496402Y694907D01*
X496579Y694705D01*
X496698Y694463D01*
X497337Y693631D01*
X497539Y693454D01*
X497688Y693230D01*
X498430Y692489D01*
X498654Y692339D01*
X498831Y692137D01*
X499663Y691498D01*
X499904Y691379D01*
X500107Y691202D01*
X501015Y690678D01*
X501270Y690591D01*
X501493Y690442D01*
X502462Y690040D01*
X502726Y689988D01*
X502967Y689869D01*
X503980Y689598D01*
X504249Y689580D01*
X504504Y689493D01*
X505543Y689357D01*
X505812Y689374D01*
X506076Y689322D01*
X507124Y689322D01*
X507388Y689374D01*
X507657Y689357D01*
X508696Y689493D01*
X508951Y689580D01*
X509220Y689598D01*
X510232Y689869D01*
X510474Y689988D01*
X510738Y690041D01*
X511707Y690442D01*
X511930Y690591D01*
X512185Y690678D01*
X513093Y691202D01*
X513296Y691379D01*
X513537Y691498D01*
X514369Y692137D01*
X514546Y692339D01*
X514770Y692489D01*
X515511Y693230D01*
X515661Y693454D01*
X515863Y693631D01*
X516502Y694463D01*
X516620Y694705D01*
X516798Y694907D01*
X517322Y695815D01*
X517409Y696070D01*
X517558Y696293D01*
X517960Y697262D01*
X518012Y697526D01*
X518131Y697767D01*
X518402Y698780D01*
X518420Y699049D01*
X518507Y699304D01*
X518643Y700343D01*
X518626Y700612D01*
X518678Y700876D01*
X518678Y723924D01*
X518626Y724188D01*
X518643Y724457D01*
X518507Y725497D01*
X518420Y725751D01*
X518402Y726020D01*
X518199Y726778D01*
Y738400D01*
X517804Y741402D01*
X516645Y744200D01*
X514802Y746602D01*
X504202Y757202D01*
X501800Y759045D01*
X499002Y760204D01*
X496000Y760599D01*
D02*
G37*
G36*
X921000Y733990D02*
X915500D01*
Y703900D01*
X923590D01*
Y731400D01*
X923393Y732391D01*
X922831Y733231D01*
X921991Y733793D01*
X921000Y733990D01*
D02*
G37*
G36*
X794000D02*
X788500D01*
Y703900D01*
X796590D01*
Y731400D01*
X796393Y732391D01*
X795831Y733231D01*
X794991Y733793D01*
X794000Y733990D01*
D02*
G37*
G36*
X667000D02*
X661500D01*
Y703900D01*
X669590D01*
Y731400D01*
X669393Y732391D01*
X668831Y733231D01*
X667991Y733793D01*
X667000Y733990D01*
D02*
G37*
G36*
X540000D02*
X534500D01*
Y703900D01*
X542590D01*
Y731400D01*
X542393Y732391D01*
X541831Y733231D01*
X540991Y733793D01*
X540000Y733990D01*
D02*
G37*
G36*
X910500D02*
X905000D01*
X904009Y733793D01*
X903169Y733231D01*
X902607Y732391D01*
X902410Y731400D01*
Y703900D01*
X910500D01*
Y733990D01*
D02*
G37*
G36*
X656500D02*
X651000D01*
X650009Y733793D01*
X649169Y733231D01*
X648607Y732391D01*
X648410Y731400D01*
Y703900D01*
X656500D01*
Y733990D01*
D02*
G37*
G36*
X529500D02*
X524000D01*
X523009Y733793D01*
X522169Y733231D01*
X521607Y732391D01*
X521410Y731400D01*
Y703900D01*
X529500D01*
Y733990D01*
D02*
G37*
G36*
X99080Y719500D02*
X95920D01*
X92868Y718682D01*
X90132Y717102D01*
X87898Y714868D01*
X86318Y712132D01*
X85500Y709080D01*
Y705920D01*
X86318Y702868D01*
X87898Y700132D01*
X90132Y697898D01*
X92868Y696318D01*
X95920Y695500D01*
X99080D01*
X102132Y696318D01*
X104868Y697898D01*
X107102Y700132D01*
X108682Y702868D01*
X109500Y705920D01*
Y709080D01*
X108682Y712132D01*
X107102Y714868D01*
X104868Y717102D01*
X102132Y718682D01*
X99080Y719500D01*
D02*
G37*
G36*
X69080D02*
X65920D01*
X62868Y718682D01*
X60132Y717102D01*
X57898Y714868D01*
X56318Y712132D01*
X55500Y709080D01*
Y705920D01*
X56318Y702868D01*
X57898Y700132D01*
X60132Y697898D01*
X62868Y696318D01*
X65920Y695500D01*
X69080D01*
X72132Y696318D01*
X74868Y697898D01*
X77102Y700132D01*
X78682Y702868D01*
X79500Y705920D01*
Y709080D01*
X78682Y712132D01*
X77102Y714868D01*
X74868Y717102D01*
X72132Y718682D01*
X69080Y719500D01*
D02*
G37*
G36*
X923590Y698900D02*
X915500D01*
Y690810D01*
X921000D01*
X921991Y691007D01*
X922831Y691569D01*
X923393Y692409D01*
X923590Y693400D01*
Y698900D01*
D02*
G37*
G36*
X910500D02*
X902410D01*
Y693400D01*
X902607Y692409D01*
X903169Y691569D01*
X904009Y691007D01*
X905000Y690810D01*
X910500D01*
Y698900D01*
D02*
G37*
G36*
X796590D02*
X788500D01*
Y690810D01*
X794000D01*
X794991Y691007D01*
X795831Y691569D01*
X796393Y692409D01*
X796590Y693400D01*
Y698900D01*
D02*
G37*
G36*
X656500D02*
X648410D01*
Y693400D01*
X648607Y692409D01*
X649169Y691569D01*
X650009Y691007D01*
X651000Y690810D01*
X656500D01*
Y698900D01*
D02*
G37*
G36*
X542590D02*
X534500D01*
Y690810D01*
X540000D01*
X540991Y691007D01*
X541831Y691569D01*
X542393Y692409D01*
X542590Y693400D01*
Y698900D01*
D02*
G37*
G36*
X529500D02*
X521410D01*
Y693400D01*
X521607Y692409D01*
X522169Y691569D01*
X523009Y691007D01*
X524000Y690810D01*
X529500D01*
Y698900D01*
D02*
G37*
G36*
X324000Y673284D02*
Y667250D01*
X330034D01*
X329784Y668181D01*
X328614Y670209D01*
X326959Y671864D01*
X324931Y673034D01*
X324000Y673284D01*
D02*
G37*
G36*
X319000D02*
X318069Y673034D01*
X316041Y671864D01*
X314386Y670209D01*
X313216Y668181D01*
X312966Y667250D01*
X319000D01*
Y673284D01*
D02*
G37*
G36*
X99080Y689500D02*
X95920D01*
X92868Y688682D01*
X90132Y687102D01*
X87898Y684868D01*
X86318Y682132D01*
X85500Y679080D01*
Y675920D01*
X86318Y672868D01*
X87898Y670132D01*
X90132Y667898D01*
X92868Y666318D01*
X95920Y665500D01*
X99080D01*
X102132Y666318D01*
X104868Y667898D01*
X107102Y670132D01*
X108682Y672868D01*
X109500Y675920D01*
Y679080D01*
X108682Y682132D01*
X107102Y684868D01*
X104868Y687102D01*
X102132Y688682D01*
X99080Y689500D01*
D02*
G37*
G36*
X69080D02*
X65920D01*
X62868Y688682D01*
X60132Y687102D01*
X57898Y684868D01*
X56318Y682132D01*
X55500Y679080D01*
Y675920D01*
X56318Y672868D01*
X57898Y670132D01*
X60132Y667898D01*
X62868Y666318D01*
X65920Y665500D01*
X69080D01*
X72132Y666318D01*
X74868Y667898D01*
X77102Y670132D01*
X78682Y672868D01*
X79500Y675920D01*
Y679080D01*
X78682Y682132D01*
X77102Y684868D01*
X74868Y687102D01*
X72132Y688682D01*
X69080Y689500D01*
D02*
G37*
G36*
X330034Y662250D02*
X324000D01*
Y656216D01*
X324931Y656466D01*
X326959Y657636D01*
X328614Y659291D01*
X329784Y661319D01*
X330034Y662250D01*
D02*
G37*
G36*
X319000D02*
X312966D01*
X313216Y661319D01*
X314386Y659291D01*
X316041Y657636D01*
X318069Y656466D01*
X319000Y656216D01*
Y662250D01*
D02*
G37*
G36*
X99080Y659500D02*
X95920D01*
X92868Y658682D01*
X90132Y657102D01*
X87898Y654868D01*
X86318Y652132D01*
X85500Y649080D01*
Y645920D01*
X86318Y642868D01*
X87898Y640132D01*
X90132Y637898D01*
X92868Y636318D01*
X95920Y635500D01*
X99080D01*
X102132Y636318D01*
X104868Y637898D01*
X107102Y640132D01*
X108682Y642868D01*
X109500Y645920D01*
Y649080D01*
X108682Y652132D01*
X107102Y654868D01*
X104868Y657102D01*
X102132Y658682D01*
X99080Y659500D01*
D02*
G37*
G36*
X69080D02*
X65920D01*
X62868Y658682D01*
X60132Y657102D01*
X57898Y654868D01*
X56318Y652132D01*
X55500Y649080D01*
Y645920D01*
X56318Y642868D01*
X57898Y640132D01*
X60132Y637898D01*
X62868Y636318D01*
X65920Y635500D01*
X69080D01*
X72132Y636318D01*
X74868Y637898D01*
X77102Y640132D01*
X78682Y642868D01*
X79500Y645920D01*
Y649080D01*
X78682Y652132D01*
X77102Y654868D01*
X74868Y657102D01*
X72132Y658682D01*
X69080Y659500D01*
D02*
G37*
G36*
X991260Y623090D02*
X963760D01*
Y615000D01*
X993850D01*
Y620500D01*
X993653Y621491D01*
X993091Y622331D01*
X992251Y622893D01*
X991260Y623090D01*
D02*
G37*
G36*
X958760D02*
X953260D01*
X952269Y622893D01*
X951429Y622331D01*
X950867Y621491D01*
X950670Y620500D01*
Y615000D01*
X958760D01*
Y623090D01*
D02*
G37*
G36*
X99080Y629500D02*
X95920D01*
X92868Y628682D01*
X90132Y627102D01*
X87898Y624868D01*
X86318Y622132D01*
X85500Y619080D01*
Y615920D01*
X86318Y612868D01*
X87898Y610132D01*
X90132Y607898D01*
X92868Y606318D01*
X95920Y605500D01*
X99080D01*
X102132Y606318D01*
X104868Y607898D01*
X107102Y610132D01*
X108682Y612868D01*
X109500Y615920D01*
Y619080D01*
X108682Y622132D01*
X107102Y624868D01*
X104868Y627102D01*
X102132Y628682D01*
X99080Y629500D01*
D02*
G37*
G36*
X69080D02*
X65920D01*
X62868Y628682D01*
X60132Y627102D01*
X57898Y624868D01*
X56318Y622132D01*
X55500Y619080D01*
Y615920D01*
X56318Y612868D01*
X57898Y610132D01*
X60132Y607898D01*
X62868Y606318D01*
X65920Y605500D01*
X69080D01*
X72132Y606318D01*
X74868Y607898D01*
X77102Y610132D01*
X78682Y612868D01*
X79500Y615920D01*
Y619080D01*
X78682Y622132D01*
X77102Y624868D01*
X74868Y627102D01*
X72132Y628682D01*
X69080Y629500D01*
D02*
G37*
G36*
X993850Y610000D02*
X963760D01*
Y601910D01*
X991260D01*
X992251Y602107D01*
X993091Y602669D01*
X993653Y603509D01*
X993850Y604500D01*
Y610000D01*
D02*
G37*
G36*
X958760D02*
X950670D01*
Y604500D01*
X950867Y603509D01*
X951429Y602669D01*
X952269Y602107D01*
X953260Y601910D01*
X958760D01*
Y610000D01*
D02*
G37*
G36*
X983784Y599178D02*
X960736D01*
X960472Y599126D01*
X960203Y599143D01*
X959164Y599007D01*
X958909Y598920D01*
X958640Y598903D01*
X957627Y598631D01*
X957386Y598512D01*
X957122Y598460D01*
X956153Y598058D01*
X955930Y597909D01*
X955675Y597822D01*
X954767Y597298D01*
X954564Y597121D01*
X954323Y597002D01*
X953491Y596363D01*
X953314Y596161D01*
X953090Y596012D01*
X952348Y595270D01*
X952199Y595046D01*
X951997Y594869D01*
X951358Y594037D01*
X951239Y593796D01*
X951062Y593593D01*
X950538Y592685D01*
X950451Y592430D01*
X950302Y592207D01*
X949900Y591238D01*
X949848Y590974D01*
X949729Y590733D01*
X949457Y589720D01*
X949440Y589451D01*
X949353Y589197D01*
X949217Y588157D01*
X949234Y587888D01*
X949182Y587624D01*
X949182Y586576D01*
X949234Y586312D01*
X949217Y586043D01*
X949353Y585004D01*
X949440Y584749D01*
X949457Y584481D01*
X949729Y583468D01*
X949848Y583226D01*
X949900Y582962D01*
X950302Y581993D01*
X950451Y581770D01*
X950538Y581515D01*
X951062Y580607D01*
X951239Y580405D01*
X951358Y580163D01*
X951997Y579331D01*
X952199Y579154D01*
X952348Y578930D01*
X953090Y578189D01*
X953314Y578039D01*
X953430Y577907D01*
X953411Y577578D01*
X953090Y576544D01*
X951229Y576174D01*
X947316Y574553D01*
X943794Y572200D01*
X940800Y569206D01*
X938447Y565684D01*
X936826Y561771D01*
X936000Y557618D01*
Y553382D01*
X936826Y549229D01*
X938447Y545316D01*
X940800Y541795D01*
X943794Y538800D01*
X947316Y536447D01*
X951229Y534826D01*
X955382Y534000D01*
X955426D01*
X955817Y533266D01*
X955914Y532730D01*
X955854Y532661D01*
X955630Y532511D01*
X954889Y531770D01*
X954739Y531546D01*
X954537Y531369D01*
X953898Y530537D01*
X953779Y530296D01*
X953602Y530093D01*
X953078Y529185D01*
X952991Y528930D01*
X952842Y528707D01*
X952440Y527738D01*
X952388Y527474D01*
X952269Y527233D01*
X951998Y526220D01*
X951980Y525951D01*
X951893Y525696D01*
X951839Y525284D01*
X951100Y524893D01*
X950361Y525284D01*
X950306Y525696D01*
X950220Y525951D01*
X950202Y526220D01*
X949931Y527233D01*
X949812Y527474D01*
X949760Y527738D01*
X949358Y528707D01*
X949209Y528930D01*
X949122Y529185D01*
X948598Y530093D01*
X948420Y530296D01*
X948301Y530537D01*
X947663Y531369D01*
X947461Y531546D01*
X947311Y531770D01*
X946570Y532511D01*
X946346Y532661D01*
X946169Y532863D01*
X945337Y533502D01*
X945096Y533621D01*
X944893Y533798D01*
X943985Y534322D01*
X943730Y534409D01*
X943506Y534558D01*
X942538Y534960D01*
X942274Y535012D01*
X942032Y535131D01*
X941020Y535402D01*
X940751Y535420D01*
X940496Y535507D01*
X939457Y535644D01*
X939188Y535626D01*
X938924Y535678D01*
X938400Y535678D01*
X937876D01*
X937612Y535626D01*
X937343Y535644D01*
X936303Y535507D01*
X936049Y535420D01*
X935780Y535402D01*
X934768Y535131D01*
X934526Y535012D01*
X934262Y534960D01*
X933293Y534558D01*
X933070Y534409D01*
X932815Y534322D01*
X931907Y533798D01*
X931704Y533621D01*
X931463Y533502D01*
X930631Y532863D01*
X930454Y532661D01*
X930230Y532511D01*
X929489Y531770D01*
X929339Y531546D01*
X929137Y531369D01*
X928498Y530537D01*
X928379Y530296D01*
X928202Y530093D01*
X927678Y529185D01*
X927591Y528930D01*
X927442Y528707D01*
X927040Y527738D01*
X926988Y527474D01*
X926869Y527233D01*
X926598Y526220D01*
X926580Y525951D01*
X926493Y525696D01*
X926357Y524657D01*
X926374Y524388D01*
X926322Y524124D01*
X926322Y501076D01*
X926374Y500812D01*
X926357Y500543D01*
X926493Y499504D01*
X926580Y499249D01*
X926598Y498980D01*
X926869Y497967D01*
X926988Y497726D01*
X927040Y497462D01*
X927442Y496493D01*
X927591Y496270D01*
X927678Y496015D01*
X928202Y495107D01*
X928379Y494904D01*
X928498Y494663D01*
X929137Y493831D01*
X929339Y493654D01*
X929489Y493430D01*
X930230Y492689D01*
X930454Y492539D01*
X930631Y492337D01*
X931463Y491698D01*
X931704Y491580D01*
X931907Y491402D01*
X932815Y490878D01*
X933070Y490791D01*
X933293Y490642D01*
X934262Y490240D01*
X934526Y490188D01*
X934767Y490069D01*
X935780Y489798D01*
X936049Y489780D01*
X936303Y489693D01*
X937343Y489557D01*
X937612Y489574D01*
X937876Y489522D01*
X938924D01*
X939188Y489574D01*
X939457Y489557D01*
X940496Y489693D01*
X940751Y489780D01*
X941020Y489798D01*
X942032Y490069D01*
X942274Y490188D01*
X942538Y490240D01*
X943506Y490642D01*
X943730Y490791D01*
X943985Y490878D01*
X944893Y491402D01*
X945096Y491580D01*
X945337Y491698D01*
X946169Y492337D01*
X946346Y492539D01*
X946570Y492689D01*
X947311Y493430D01*
X947461Y493654D01*
X947663Y493831D01*
X948301Y494663D01*
X948420Y494904D01*
X948598Y495107D01*
X949122Y496015D01*
X949209Y496270D01*
X949358Y496493D01*
X949760Y497462D01*
X949812Y497726D01*
X949931Y497967D01*
X950202Y498980D01*
X950220Y499249D01*
X950306Y499504D01*
X950361Y499916D01*
X951100Y500307D01*
X951839Y499916D01*
X951893Y499504D01*
X951980Y499249D01*
X951998Y498980D01*
X952269Y497967D01*
X952388Y497726D01*
X952440Y497462D01*
X952842Y496493D01*
X952991Y496270D01*
X953078Y496015D01*
X953602Y495107D01*
X953779Y494904D01*
X953898Y494663D01*
X954537Y493831D01*
X954739Y493654D01*
X954889Y493430D01*
X955630Y492689D01*
X955854Y492539D01*
X956031Y492337D01*
X956863Y491698D01*
X957104Y491580D01*
X957307Y491402D01*
X958215Y490878D01*
X958470Y490791D01*
X958693Y490642D01*
X959662Y490240D01*
X959926Y490188D01*
X960167Y490069D01*
X961180Y489798D01*
X961449Y489780D01*
X961703Y489693D01*
X962743Y489557D01*
X963012Y489574D01*
X963276Y489522D01*
X964324D01*
X964588Y489574D01*
X964857Y489557D01*
X965896Y489693D01*
X966151Y489780D01*
X966420Y489798D01*
X967432Y490069D01*
X967674Y490188D01*
X967938Y490240D01*
X968906Y490642D01*
X969130Y490791D01*
X969385Y490878D01*
X970293Y491402D01*
X970496Y491580D01*
X970737Y491698D01*
X971569Y492337D01*
X971746Y492539D01*
X971970Y492689D01*
X972711Y493430D01*
X972861Y493654D01*
X973063Y493831D01*
X973701Y494663D01*
X973820Y494904D01*
X973998Y495107D01*
X974522Y496015D01*
X974609Y496270D01*
X974758Y496493D01*
X975160Y497462D01*
X975212Y497726D01*
X975331Y497967D01*
X975602Y498980D01*
X975620Y499249D01*
X975706Y499504D01*
X975843Y500543D01*
X975826Y500812D01*
X975878Y501076D01*
Y524124D01*
X975826Y524388D01*
X975843Y524657D01*
X975706Y525696D01*
X975620Y525951D01*
X975602Y526220D01*
X975331Y527233D01*
X975212Y527474D01*
X975160Y527738D01*
X974758Y528707D01*
X974609Y528930D01*
X974522Y529185D01*
X973998Y530093D01*
X973820Y530296D01*
X973701Y530537D01*
X973063Y531369D01*
X972861Y531546D01*
X972711Y531770D01*
X971970Y532511D01*
X971746Y532661D01*
X971569Y532863D01*
X970737Y533502D01*
X970496Y533621D01*
X970293Y533798D01*
X969385Y534322D01*
X969130Y534409D01*
X968906Y534558D01*
X967938Y534960D01*
X967674Y535012D01*
X967612Y535043D01*
X967493Y535638D01*
X967584Y536405D01*
X967684Y536447D01*
X971205Y538800D01*
X974200Y541795D01*
X976553Y545316D01*
X978174Y549229D01*
X979000Y553382D01*
Y557618D01*
X978174Y561771D01*
X976553Y565684D01*
X974200Y569206D01*
X971205Y572200D01*
X968883Y573752D01*
X969269Y575022D01*
X983784Y575022D01*
X984048Y575074D01*
X984317Y575057D01*
X985356Y575193D01*
X985611Y575280D01*
X985880Y575298D01*
X986892Y575569D01*
X987134Y575688D01*
X987398Y575740D01*
X988366Y576142D01*
X988590Y576291D01*
X988845Y576378D01*
X989753Y576902D01*
X989956Y577080D01*
X990197Y577198D01*
X991029Y577837D01*
X991206Y578039D01*
X991430Y578189D01*
X992171Y578930D01*
X992321Y579154D01*
X992523Y579331D01*
X993161Y580163D01*
X993280Y580404D01*
X993458Y580607D01*
X993982Y581515D01*
X994069Y581770D01*
X994218Y581993D01*
X994620Y582962D01*
X994672Y583226D01*
X994791Y583467D01*
X995062Y584480D01*
X995080Y584749D01*
X995166Y585004D01*
X995303Y586043D01*
X995286Y586312D01*
X995338Y586576D01*
Y587624D01*
X995286Y587888D01*
X995303Y588157D01*
X995166Y589197D01*
X995080Y589451D01*
X995062Y589720D01*
X994791Y590733D01*
X994672Y590974D01*
X994620Y591238D01*
X994218Y592207D01*
X994069Y592430D01*
X993982Y592685D01*
X993458Y593593D01*
X993280Y593796D01*
X993161Y594037D01*
X992523Y594869D01*
X992321Y595046D01*
X992171Y595270D01*
X991430Y596012D01*
X991206Y596161D01*
X991029Y596363D01*
X990197Y597002D01*
X989956Y597121D01*
X989753Y597298D01*
X988845Y597822D01*
X988590Y597909D01*
X988366Y598058D01*
X987398Y598460D01*
X987134Y598512D01*
X986892Y598631D01*
X985880Y598903D01*
X985611Y598920D01*
X985356Y599007D01*
X984317Y599143D01*
X984048Y599126D01*
X983784Y599178D01*
D02*
G37*
G36*
X718000Y596034D02*
Y590000D01*
X724034D01*
X723784Y590931D01*
X722614Y592959D01*
X720959Y594614D01*
X718931Y595784D01*
X718000Y596034D01*
D02*
G37*
G36*
X713000D02*
X712069Y595784D01*
X710041Y594614D01*
X708386Y592959D01*
X707216Y590931D01*
X706966Y590000D01*
X713000D01*
Y596034D01*
D02*
G37*
G36*
X123000Y777095D02*
X120128Y776717D01*
X117453Y775609D01*
X115155Y773845D01*
X113392Y771547D01*
X112283Y768872D01*
X111905Y766000D01*
Y587596D01*
X110770Y586460D01*
X109500Y586987D01*
Y589080D01*
X108682Y592132D01*
X107102Y594868D01*
X104868Y597102D01*
X102132Y598682D01*
X99080Y599500D01*
X95920D01*
X92868Y598682D01*
X90132Y597102D01*
X87898Y594868D01*
X86318Y592132D01*
X85500Y589080D01*
Y585920D01*
X86318Y582868D01*
X87898Y580132D01*
X90132Y577898D01*
X92868Y576318D01*
X95920Y575500D01*
X98013D01*
X98539Y574230D01*
X93037Y568727D01*
X92868Y568682D01*
X90132Y567102D01*
X87898Y564868D01*
X86318Y562132D01*
X85500Y559080D01*
Y555920D01*
X86318Y552868D01*
X87898Y550132D01*
X90132Y547898D01*
X92868Y546318D01*
X95920Y545500D01*
X99080D01*
X102132Y546318D01*
X104868Y547898D01*
X107102Y550132D01*
X108682Y552868D01*
X108727Y553037D01*
X130845Y575155D01*
X132608Y577453D01*
X133717Y580129D01*
X134095Y583000D01*
Y766000D01*
X133717Y768872D01*
X132608Y771547D01*
X130845Y773845D01*
X128547Y775609D01*
X125872Y776717D01*
X123000Y777095D01*
D02*
G37*
G36*
X724034Y585000D02*
X718000D01*
Y578966D01*
X718931Y579216D01*
X720959Y580386D01*
X722614Y582041D01*
X723784Y584069D01*
X724034Y585000D01*
D02*
G37*
G36*
X713000D02*
X706966D01*
X707216Y584069D01*
X708386Y582041D01*
X710041Y580386D01*
X712069Y579216D01*
X713000Y578966D01*
Y585000D01*
D02*
G37*
G36*
X69080Y599500D02*
X65920D01*
X62868Y598682D01*
X60132Y597102D01*
X57898Y594868D01*
X56318Y592132D01*
X55500Y589080D01*
Y585920D01*
X56318Y582868D01*
X57898Y580132D01*
X60132Y577898D01*
X62868Y576318D01*
X65920Y575500D01*
X69080D01*
X72132Y576318D01*
X74868Y577898D01*
X77102Y580132D01*
X78682Y582868D01*
X79500Y585920D01*
Y589080D01*
X78682Y592132D01*
X77102Y594868D01*
X74868Y597102D01*
X72132Y598682D01*
X69080Y599500D01*
D02*
G37*
G36*
Y569500D02*
X65920D01*
X62868Y568682D01*
X60132Y567102D01*
X57898Y564868D01*
X56318Y562132D01*
X55500Y559080D01*
Y555920D01*
X56318Y552868D01*
X57898Y550132D01*
X60132Y547898D01*
X62868Y546318D01*
X65920Y545500D01*
X69080D01*
X72132Y546318D01*
X74868Y547898D01*
X77102Y550132D01*
X78682Y552868D01*
X79500Y555920D01*
Y559080D01*
X78682Y562132D01*
X77102Y564868D01*
X74868Y567102D01*
X72132Y568682D01*
X69080Y569500D01*
D02*
G37*
G36*
X350363Y585977D02*
X347637D01*
X345005Y585271D01*
X342645Y583909D01*
X340718Y581982D01*
X339355Y579622D01*
X338650Y576989D01*
Y574264D01*
X339355Y571632D01*
X340718Y569272D01*
X342444Y567546D01*
Y555231D01*
X340718Y553505D01*
X339355Y551145D01*
X338650Y548513D01*
Y545787D01*
X339355Y543155D01*
X340718Y540795D01*
X342645Y538868D01*
X345005Y537505D01*
X347637Y536800D01*
X350363D01*
X352995Y537505D01*
X355355Y538868D01*
X357282Y540795D01*
X358645Y543155D01*
X359350Y545787D01*
Y548513D01*
X358645Y551145D01*
X357282Y553505D01*
X355556Y555231D01*
Y567546D01*
X357282Y569272D01*
X358645Y571632D01*
X359350Y574264D01*
Y576989D01*
X358645Y579622D01*
X357282Y581982D01*
X355355Y583909D01*
X352995Y585271D01*
X350363Y585977D01*
D02*
G37*
G36*
X761124Y535678D02*
X760600Y535678D01*
X760076D01*
X759812Y535626D01*
X759543Y535644D01*
X758503Y535507D01*
X758249Y535420D01*
X757980Y535402D01*
X756967Y535131D01*
X756726Y535012D01*
X756462Y534960D01*
X755493Y534558D01*
X755270Y534409D01*
X755015Y534322D01*
X754107Y533798D01*
X753904Y533621D01*
X753663Y533502D01*
X752831Y532863D01*
X752654Y532661D01*
X752430Y532511D01*
X751689Y531770D01*
X751539Y531546D01*
X751337Y531369D01*
X750698Y530537D01*
X750579Y530296D01*
X750402Y530093D01*
X749878Y529185D01*
X749791Y528930D01*
X749642Y528707D01*
X749240Y527738D01*
X749188Y527474D01*
X749069Y527233D01*
X748798Y526220D01*
X748780Y525951D01*
X748693Y525696D01*
X748639Y525284D01*
X747900Y524893D01*
X747161Y525284D01*
X747106Y525696D01*
X747020Y525951D01*
X747002Y526220D01*
X746731Y527233D01*
X746612Y527474D01*
X746560Y527738D01*
X746158Y528707D01*
X746009Y528930D01*
X745922Y529185D01*
X745398Y530093D01*
X745220Y530296D01*
X745101Y530537D01*
X744463Y531369D01*
X744261Y531546D01*
X744111Y531770D01*
X743370Y532511D01*
X743146Y532661D01*
X742969Y532863D01*
X742137Y533502D01*
X741896Y533621D01*
X741693Y533798D01*
X740785Y534322D01*
X740530Y534409D01*
X740306Y534558D01*
X739338Y534960D01*
X739074Y535012D01*
X738832Y535131D01*
X737820Y535402D01*
X737551Y535420D01*
X737296Y535507D01*
X736257Y535644D01*
X735988Y535626D01*
X735724Y535678D01*
X735200Y535678D01*
X734676D01*
X734412Y535626D01*
X734143Y535644D01*
X733103Y535507D01*
X732849Y535420D01*
X732580Y535402D01*
X731568Y535131D01*
X731326Y535012D01*
X731062Y534960D01*
X730093Y534558D01*
X729870Y534409D01*
X729615Y534322D01*
X728707Y533798D01*
X728504Y533621D01*
X728263Y533502D01*
X727431Y532863D01*
X727254Y532661D01*
X727030Y532511D01*
X726289Y531770D01*
X726139Y531546D01*
X725937Y531369D01*
X725298Y530537D01*
X725179Y530296D01*
X725002Y530093D01*
X724478Y529185D01*
X724391Y528930D01*
X724242Y528707D01*
X723840Y527738D01*
X723788Y527474D01*
X723669Y527233D01*
X723398Y526220D01*
X723380Y525951D01*
X723293Y525696D01*
X723239Y525284D01*
X722500Y524893D01*
X721761Y525284D01*
X721706Y525696D01*
X721620Y525951D01*
X721602Y526220D01*
X721331Y527233D01*
X721212Y527474D01*
X721160Y527738D01*
X720758Y528707D01*
X720609Y528930D01*
X720522Y529185D01*
X719998Y530093D01*
X719820Y530296D01*
X719702Y530537D01*
X719063Y531369D01*
X718861Y531546D01*
X718711Y531770D01*
X717970Y532511D01*
X717746Y532661D01*
X717569Y532863D01*
X716737Y533502D01*
X716496Y533621D01*
X716293Y533798D01*
X715385Y534322D01*
X715130Y534409D01*
X714906Y534558D01*
X713938Y534960D01*
X713674Y535012D01*
X713432Y535131D01*
X712420Y535402D01*
X712151Y535420D01*
X711896Y535507D01*
X710857Y535644D01*
X710588Y535626D01*
X710324Y535678D01*
X709800Y535678D01*
X709276D01*
X709012Y535626D01*
X708743Y535644D01*
X707703Y535507D01*
X707449Y535420D01*
X707180Y535402D01*
X706168Y535131D01*
X705926Y535012D01*
X705662Y534960D01*
X704693Y534558D01*
X704470Y534409D01*
X704215Y534322D01*
X703307Y533798D01*
X703104Y533621D01*
X702863Y533502D01*
X702031Y532863D01*
X701854Y532661D01*
X701630Y532511D01*
X700889Y531770D01*
X700739Y531546D01*
X700537Y531369D01*
X699898Y530537D01*
X699779Y530296D01*
X699602Y530093D01*
X699078Y529185D01*
X698991Y528930D01*
X698842Y528707D01*
X698440Y527738D01*
X698388Y527474D01*
X698269Y527233D01*
X697998Y526220D01*
X697980Y525951D01*
X697893Y525696D01*
X697839Y525284D01*
X697100Y524893D01*
X696361Y525284D01*
X696307Y525696D01*
X696220Y525951D01*
X696202Y526220D01*
X695931Y527233D01*
X695812Y527474D01*
X695760Y527738D01*
X695358Y528707D01*
X695209Y528930D01*
X695122Y529185D01*
X694598Y530093D01*
X694420Y530296D01*
X694302Y530537D01*
X693663Y531369D01*
X693461Y531546D01*
X693311Y531770D01*
X692570Y532511D01*
X692346Y532661D01*
X692169Y532863D01*
X691337Y533502D01*
X691096Y533621D01*
X690893Y533798D01*
X689985Y534322D01*
X689730Y534409D01*
X689507Y534558D01*
X688538Y534960D01*
X688274Y535012D01*
X688033Y535131D01*
X687020Y535402D01*
X686751Y535420D01*
X686496Y535507D01*
X685457Y535644D01*
X685188Y535626D01*
X684924Y535678D01*
X684400Y535678D01*
X683876D01*
X683612Y535626D01*
X683343Y535644D01*
X682303Y535507D01*
X682049Y535420D01*
X681780Y535402D01*
X680768Y535131D01*
X680526Y535012D01*
X680262Y534960D01*
X679293Y534558D01*
X679070Y534409D01*
X678815Y534322D01*
X677907Y533798D01*
X677704Y533621D01*
X677463Y533502D01*
X676631Y532863D01*
X676454Y532661D01*
X676230Y532511D01*
X675489Y531770D01*
X675339Y531546D01*
X675137Y531369D01*
X674498Y530537D01*
X674379Y530296D01*
X674202Y530093D01*
X673678Y529185D01*
X673591Y528930D01*
X673442Y528707D01*
X673040Y527738D01*
X672988Y527474D01*
X672869Y527233D01*
X672598Y526220D01*
X672580Y525951D01*
X672493Y525696D01*
X672356Y524657D01*
X672374Y524388D01*
X672322Y524124D01*
X672322Y501076D01*
X672374Y500812D01*
X672356Y500543D01*
X672493Y499504D01*
X672580Y499249D01*
X672598Y498980D01*
X672869Y497967D01*
X672988Y497726D01*
X673040Y497462D01*
X673442Y496493D01*
X673591Y496270D01*
X673678Y496015D01*
X674202Y495107D01*
X674379Y494904D01*
X674498Y494663D01*
X675137Y493831D01*
X675339Y493654D01*
X675489Y493430D01*
X676230Y492689D01*
X676454Y492539D01*
X676631Y492337D01*
X677463Y491698D01*
X677704Y491580D01*
X677907Y491402D01*
X678815Y490878D01*
X679070Y490791D01*
X679293Y490642D01*
X680262Y490240D01*
X680526Y490188D01*
X680767Y490069D01*
X681780Y489798D01*
X682049Y489780D01*
X682303Y489693D01*
X683343Y489557D01*
X683612Y489574D01*
X683876Y489522D01*
X684924D01*
X685188Y489574D01*
X685457Y489557D01*
X686496Y489693D01*
X686751Y489780D01*
X687020Y489798D01*
X688033Y490069D01*
X688274Y490188D01*
X688538Y490240D01*
X689507Y490642D01*
X689730Y490791D01*
X689985Y490878D01*
X690893Y491402D01*
X691096Y491580D01*
X691337Y491698D01*
X692169Y492337D01*
X692346Y492539D01*
X692570Y492689D01*
X693311Y493430D01*
X693461Y493654D01*
X693663Y493831D01*
X694302Y494663D01*
X694420Y494904D01*
X694598Y495107D01*
X695122Y496015D01*
X695209Y496270D01*
X695358Y496493D01*
X695760Y497462D01*
X695812Y497726D01*
X695931Y497967D01*
X696202Y498980D01*
X696220Y499249D01*
X696307Y499504D01*
X696361Y499916D01*
X697100Y500307D01*
X697839Y499916D01*
X697893Y499504D01*
X697980Y499249D01*
X697998Y498980D01*
X698269Y497967D01*
X698388Y497726D01*
X698440Y497462D01*
X698842Y496493D01*
X698991Y496270D01*
X699078Y496015D01*
X699602Y495107D01*
X699779Y494904D01*
X699898Y494663D01*
X700537Y493831D01*
X700739Y493654D01*
X700889Y493430D01*
X701630Y492689D01*
X701854Y492539D01*
X702031Y492337D01*
X702863Y491698D01*
X703104Y491580D01*
X703307Y491402D01*
X704215Y490878D01*
X704470Y490791D01*
X704693Y490642D01*
X705662Y490240D01*
X705926Y490188D01*
X706167Y490069D01*
X707180Y489798D01*
X707449Y489780D01*
X707703Y489693D01*
X708743Y489557D01*
X709012Y489574D01*
X709276Y489522D01*
X710324D01*
X710588Y489574D01*
X710857Y489557D01*
X711896Y489693D01*
X712151Y489780D01*
X712420Y489798D01*
X713432Y490069D01*
X713674Y490188D01*
X713938Y490240D01*
X714906Y490642D01*
X715130Y490791D01*
X715385Y490878D01*
X716293Y491402D01*
X716496Y491580D01*
X716737Y491698D01*
X717569Y492337D01*
X717746Y492539D01*
X717970Y492689D01*
X718711Y493430D01*
X718861Y493654D01*
X719063Y493831D01*
X719702Y494663D01*
X719820Y494904D01*
X719998Y495107D01*
X720522Y496015D01*
X720609Y496270D01*
X720758Y496493D01*
X721160Y497462D01*
X721212Y497726D01*
X721331Y497967D01*
X721602Y498980D01*
X721620Y499249D01*
X721706Y499504D01*
X721761Y499916D01*
X722500Y500307D01*
X723239Y499916D01*
X723293Y499504D01*
X723380Y499249D01*
X723398Y498980D01*
X723669Y497967D01*
X723788Y497726D01*
X723840Y497462D01*
X724242Y496493D01*
X724391Y496270D01*
X724478Y496015D01*
X725002Y495107D01*
X725179Y494904D01*
X725298Y494663D01*
X725937Y493831D01*
X726139Y493654D01*
X726289Y493430D01*
X727030Y492689D01*
X727254Y492539D01*
X727431Y492337D01*
X728263Y491698D01*
X728504Y491580D01*
X728707Y491402D01*
X729615Y490878D01*
X729870Y490791D01*
X730093Y490642D01*
X731062Y490240D01*
X731326Y490188D01*
X731567Y490069D01*
X732580Y489798D01*
X732849Y489780D01*
X733103Y489693D01*
X734143Y489557D01*
X734412Y489574D01*
X734676Y489522D01*
X735724D01*
X735988Y489574D01*
X736257Y489557D01*
X737296Y489693D01*
X737551Y489780D01*
X737820Y489798D01*
X738832Y490069D01*
X739074Y490188D01*
X739338Y490240D01*
X740306Y490642D01*
X740530Y490791D01*
X740785Y490878D01*
X741693Y491402D01*
X741896Y491580D01*
X742137Y491698D01*
X742969Y492337D01*
X743146Y492539D01*
X743370Y492689D01*
X744111Y493430D01*
X744261Y493654D01*
X744463Y493831D01*
X745101Y494663D01*
X745220Y494904D01*
X745398Y495107D01*
X745922Y496015D01*
X746009Y496270D01*
X746158Y496493D01*
X746560Y497462D01*
X746612Y497726D01*
X746731Y497967D01*
X747002Y498980D01*
X747020Y499249D01*
X747106Y499504D01*
X747161Y499916D01*
X747900Y500307D01*
X748639Y499916D01*
X748693Y499504D01*
X748780Y499249D01*
X748798Y498980D01*
X749069Y497967D01*
X749188Y497726D01*
X749240Y497462D01*
X749642Y496493D01*
X749791Y496270D01*
X749878Y496015D01*
X750402Y495107D01*
X750579Y494904D01*
X750698Y494663D01*
X751337Y493831D01*
X751539Y493654D01*
X751689Y493430D01*
X752430Y492689D01*
X752654Y492539D01*
X752831Y492337D01*
X753663Y491698D01*
X753904Y491580D01*
X754107Y491402D01*
X755015Y490878D01*
X755270Y490791D01*
X755493Y490642D01*
X756462Y490240D01*
X756726Y490188D01*
X756967Y490069D01*
X757980Y489798D01*
X758249Y489780D01*
X758503Y489693D01*
X759543Y489557D01*
X759812Y489574D01*
X760076Y489522D01*
X761124D01*
X761388Y489574D01*
X761657Y489557D01*
X762696Y489693D01*
X762951Y489780D01*
X763220Y489798D01*
X764232Y490069D01*
X764474Y490188D01*
X764738Y490240D01*
X765706Y490642D01*
X765930Y490791D01*
X766185Y490878D01*
X767093Y491402D01*
X767296Y491580D01*
X767537Y491698D01*
X768369Y492337D01*
X768546Y492539D01*
X768770Y492689D01*
X769511Y493430D01*
X769661Y493654D01*
X769863Y493831D01*
X770501Y494663D01*
X770620Y494904D01*
X770798Y495107D01*
X771322Y496015D01*
X771409Y496270D01*
X771558Y496493D01*
X771960Y497462D01*
X772012Y497726D01*
X772131Y497967D01*
X772402Y498980D01*
X772420Y499249D01*
X772506Y499504D01*
X772643Y500543D01*
X772626Y500812D01*
X772678Y501076D01*
Y524124D01*
X772626Y524388D01*
X772643Y524657D01*
X772506Y525696D01*
X772420Y525951D01*
X772402Y526220D01*
X772131Y527233D01*
X772012Y527474D01*
X771960Y527738D01*
X771558Y528707D01*
X771409Y528930D01*
X771322Y529185D01*
X770798Y530093D01*
X770620Y530296D01*
X770501Y530537D01*
X769863Y531369D01*
X769661Y531546D01*
X769511Y531770D01*
X768770Y532511D01*
X768546Y532661D01*
X768369Y532863D01*
X767537Y533502D01*
X767296Y533621D01*
X767093Y533798D01*
X766185Y534322D01*
X765930Y534409D01*
X765706Y534558D01*
X764738Y534960D01*
X764474Y535012D01*
X764232Y535131D01*
X763220Y535402D01*
X762951Y535420D01*
X762696Y535507D01*
X761657Y535644D01*
X761388Y535626D01*
X761124Y535678D01*
D02*
G37*
G36*
X634124D02*
X633600Y535678D01*
X633076D01*
X632812Y535626D01*
X632543Y535644D01*
X631503Y535507D01*
X631249Y535420D01*
X630980Y535402D01*
X629967Y535131D01*
X629726Y535012D01*
X629462Y534960D01*
X628493Y534558D01*
X628270Y534409D01*
X628015Y534322D01*
X627107Y533798D01*
X626904Y533621D01*
X626663Y533502D01*
X625831Y532863D01*
X625654Y532661D01*
X625430Y532511D01*
X624688Y531770D01*
X624539Y531546D01*
X624337Y531369D01*
X623698Y530537D01*
X623579Y530296D01*
X623402Y530093D01*
X622878Y529185D01*
X622791Y528930D01*
X622642Y528707D01*
X622240Y527738D01*
X622188Y527474D01*
X622069Y527233D01*
X621797Y526220D01*
X621780Y525951D01*
X621693Y525696D01*
X621639Y525284D01*
X620900Y524893D01*
X620161Y525284D01*
X620107Y525696D01*
X620020Y525951D01*
X620002Y526220D01*
X619731Y527233D01*
X619612Y527474D01*
X619560Y527738D01*
X619158Y528707D01*
X619009Y528930D01*
X618922Y529185D01*
X618398Y530093D01*
X618220Y530296D01*
X618102Y530537D01*
X617463Y531369D01*
X617261Y531546D01*
X617111Y531770D01*
X616370Y532511D01*
X616146Y532661D01*
X615969Y532863D01*
X615137Y533502D01*
X614896Y533621D01*
X614693Y533798D01*
X613785Y534322D01*
X613530Y534409D01*
X613307Y534558D01*
X612338Y534960D01*
X612074Y535012D01*
X611833Y535131D01*
X610820Y535402D01*
X610551Y535420D01*
X610296Y535507D01*
X609257Y535644D01*
X608988Y535626D01*
X608724Y535678D01*
X608200Y535678D01*
X607676D01*
X607412Y535626D01*
X607143Y535644D01*
X606104Y535507D01*
X605849Y535420D01*
X605580Y535402D01*
X604567Y535131D01*
X604326Y535012D01*
X604062Y534960D01*
X603093Y534558D01*
X602870Y534409D01*
X602615Y534322D01*
X601707Y533798D01*
X601504Y533621D01*
X601263Y533502D01*
X600431Y532863D01*
X600254Y532661D01*
X600030Y532511D01*
X599288Y531770D01*
X599139Y531546D01*
X598937Y531369D01*
X598298Y530537D01*
X598179Y530296D01*
X598002Y530093D01*
X597478Y529185D01*
X597391Y528930D01*
X597242Y528707D01*
X596840Y527738D01*
X596788Y527474D01*
X596669Y527233D01*
X596398Y526220D01*
X596380Y525951D01*
X596293Y525696D01*
X596239Y525284D01*
X595500Y524893D01*
X594761Y525284D01*
X594706Y525696D01*
X594620Y525951D01*
X594602Y526220D01*
X594331Y527233D01*
X594212Y527474D01*
X594160Y527738D01*
X593758Y528707D01*
X593609Y528930D01*
X593522Y529185D01*
X592998Y530093D01*
X592821Y530296D01*
X592701Y530537D01*
X592063Y531369D01*
X591861Y531546D01*
X591711Y531770D01*
X590970Y532511D01*
X590746Y532661D01*
X590569Y532863D01*
X589737Y533502D01*
X589496Y533621D01*
X589293Y533798D01*
X588385Y534322D01*
X588130Y534409D01*
X587906Y534558D01*
X586938Y534960D01*
X586674Y535012D01*
X586432Y535131D01*
X585420Y535402D01*
X585151Y535420D01*
X584896Y535507D01*
X583857Y535644D01*
X583588Y535626D01*
X583324Y535678D01*
X582800Y535678D01*
X582276D01*
X582012Y535626D01*
X581743Y535644D01*
X580704Y535507D01*
X580449Y535420D01*
X580180Y535402D01*
X579168Y535131D01*
X578926Y535012D01*
X578662Y534960D01*
X577693Y534558D01*
X577470Y534409D01*
X577215Y534322D01*
X576307Y533798D01*
X576104Y533621D01*
X575863Y533502D01*
X575031Y532863D01*
X574854Y532661D01*
X574630Y532511D01*
X573889Y531770D01*
X573739Y531546D01*
X573537Y531369D01*
X572898Y530537D01*
X572779Y530296D01*
X572602Y530093D01*
X572078Y529185D01*
X571991Y528930D01*
X571842Y528707D01*
X571440Y527738D01*
X571388Y527474D01*
X571269Y527233D01*
X570998Y526220D01*
X570980Y525951D01*
X570893Y525696D01*
X570839Y525284D01*
X570100Y524893D01*
X569361Y525284D01*
X569306Y525696D01*
X569220Y525951D01*
X569202Y526220D01*
X568931Y527233D01*
X568812Y527474D01*
X568760Y527738D01*
X568358Y528707D01*
X568209Y528930D01*
X568122Y529185D01*
X567598Y530093D01*
X567421Y530296D01*
X567301Y530537D01*
X566663Y531369D01*
X566461Y531546D01*
X566311Y531770D01*
X565570Y532511D01*
X565346Y532661D01*
X565169Y532863D01*
X564337Y533502D01*
X564096Y533621D01*
X563893Y533798D01*
X562985Y534322D01*
X562730Y534409D01*
X562506Y534558D01*
X561538Y534960D01*
X561274Y535012D01*
X561032Y535131D01*
X560020Y535402D01*
X559751Y535420D01*
X559496Y535507D01*
X558457Y535644D01*
X558188Y535626D01*
X557924Y535678D01*
X557400Y535678D01*
X556876D01*
X556612Y535626D01*
X556343Y535644D01*
X555303Y535507D01*
X555049Y535420D01*
X554780Y535402D01*
X553768Y535131D01*
X553526Y535012D01*
X553262Y534960D01*
X552293Y534558D01*
X552070Y534409D01*
X551815Y534322D01*
X550907Y533798D01*
X550704Y533621D01*
X550463Y533502D01*
X549631Y532863D01*
X549454Y532661D01*
X549230Y532511D01*
X548489Y531770D01*
X548339Y531546D01*
X548137Y531369D01*
X547498Y530537D01*
X547379Y530296D01*
X547202Y530093D01*
X546678Y529185D01*
X546591Y528930D01*
X546442Y528707D01*
X546040Y527738D01*
X545988Y527474D01*
X545869Y527233D01*
X545597Y526220D01*
X545580Y525951D01*
X545493Y525696D01*
X545356Y524657D01*
X545374Y524388D01*
X545322Y524124D01*
X545322Y501076D01*
X545374Y500812D01*
X545356Y500543D01*
X545493Y499504D01*
X545580Y499249D01*
X545597Y498980D01*
X545869Y497967D01*
X545988Y497726D01*
X546040Y497462D01*
X546442Y496493D01*
X546591Y496270D01*
X546678Y496015D01*
X547202Y495107D01*
X547379Y494904D01*
X547498Y494663D01*
X548137Y493831D01*
X548339Y493654D01*
X548489Y493430D01*
X549230Y492689D01*
X549454Y492539D01*
X549631Y492337D01*
X550463Y491698D01*
X550704Y491580D01*
X550907Y491402D01*
X551815Y490878D01*
X552070Y490791D01*
X552293Y490642D01*
X553262Y490240D01*
X553526Y490188D01*
X553767Y490069D01*
X554780Y489798D01*
X555049Y489780D01*
X555303Y489693D01*
X556343Y489557D01*
X556612Y489574D01*
X556876Y489522D01*
X557924D01*
X558188Y489574D01*
X558457Y489557D01*
X559496Y489693D01*
X559751Y489780D01*
X560020Y489798D01*
X561032Y490069D01*
X561274Y490188D01*
X561538Y490240D01*
X562506Y490642D01*
X562730Y490791D01*
X562985Y490878D01*
X563893Y491402D01*
X564095Y491580D01*
X564337Y491698D01*
X565169Y492337D01*
X565346Y492539D01*
X565570Y492689D01*
X566311Y493430D01*
X566461Y493654D01*
X566663Y493831D01*
X567301Y494663D01*
X567421Y494904D01*
X567598Y495107D01*
X568122Y496015D01*
X568209Y496270D01*
X568358Y496493D01*
X568760Y497462D01*
X568812Y497726D01*
X568931Y497967D01*
X569202Y498980D01*
X569220Y499249D01*
X569306Y499504D01*
X569361Y499916D01*
X570100Y500307D01*
X570839Y499916D01*
X570893Y499504D01*
X570980Y499249D01*
X570998Y498980D01*
X571269Y497967D01*
X571388Y497726D01*
X571440Y497462D01*
X571842Y496493D01*
X571991Y496270D01*
X572078Y496015D01*
X572602Y495107D01*
X572779Y494904D01*
X572898Y494663D01*
X573537Y493831D01*
X573739Y493654D01*
X573889Y493430D01*
X574630Y492689D01*
X574854Y492539D01*
X575031Y492337D01*
X575863Y491698D01*
X576104Y491580D01*
X576307Y491402D01*
X577215Y490878D01*
X577470Y490791D01*
X577693Y490642D01*
X578662Y490240D01*
X578926Y490188D01*
X579167Y490069D01*
X580180Y489798D01*
X580449Y489780D01*
X580704Y489693D01*
X581743Y489557D01*
X582012Y489574D01*
X582276Y489522D01*
X583324D01*
X583588Y489574D01*
X583857Y489557D01*
X584896Y489693D01*
X585151Y489780D01*
X585420Y489798D01*
X586432Y490069D01*
X586674Y490188D01*
X586938Y490240D01*
X587906Y490642D01*
X588130Y490791D01*
X588385Y490878D01*
X589293Y491402D01*
X589496Y491580D01*
X589737Y491698D01*
X590569Y492337D01*
X590746Y492539D01*
X590970Y492689D01*
X591711Y493430D01*
X591861Y493654D01*
X592063Y493831D01*
X592701Y494663D01*
X592821Y494904D01*
X592998Y495107D01*
X593522Y496015D01*
X593609Y496270D01*
X593758Y496493D01*
X594160Y497462D01*
X594212Y497726D01*
X594331Y497967D01*
X594602Y498980D01*
X594620Y499249D01*
X594706Y499504D01*
X594761Y499916D01*
X595500Y500307D01*
X596239Y499916D01*
X596293Y499504D01*
X596380Y499249D01*
X596398Y498980D01*
X596669Y497967D01*
X596788Y497726D01*
X596840Y497462D01*
X597242Y496493D01*
X597391Y496270D01*
X597478Y496015D01*
X598002Y495107D01*
X598179Y494904D01*
X598298Y494663D01*
X598937Y493831D01*
X599139Y493654D01*
X599288Y493430D01*
X600030Y492689D01*
X600254Y492539D01*
X600431Y492337D01*
X601263Y491698D01*
X601504Y491580D01*
X601707Y491402D01*
X602615Y490878D01*
X602870Y490791D01*
X603093Y490642D01*
X604062Y490240D01*
X604326Y490188D01*
X604567Y490069D01*
X605580Y489798D01*
X605849Y489780D01*
X606104Y489693D01*
X607143Y489557D01*
X607412Y489574D01*
X607676Y489522D01*
X608724D01*
X608988Y489574D01*
X609257Y489557D01*
X610296Y489693D01*
X610551Y489780D01*
X610820Y489798D01*
X611833Y490069D01*
X612074Y490188D01*
X612338Y490240D01*
X613307Y490642D01*
X613530Y490791D01*
X613785Y490878D01*
X614693Y491402D01*
X614896Y491580D01*
X615137Y491698D01*
X615969Y492337D01*
X616146Y492539D01*
X616370Y492689D01*
X617111Y493430D01*
X617261Y493654D01*
X617463Y493831D01*
X618102Y494663D01*
X618220Y494904D01*
X618398Y495107D01*
X618922Y496015D01*
X619009Y496270D01*
X619158Y496493D01*
X619560Y497462D01*
X619612Y497726D01*
X619731Y497967D01*
X620002Y498980D01*
X620020Y499249D01*
X620107Y499504D01*
X620161Y499916D01*
X620900Y500307D01*
X621639Y499916D01*
X621693Y499504D01*
X621780Y499249D01*
X621797Y498980D01*
X622069Y497967D01*
X622188Y497726D01*
X622240Y497462D01*
X622642Y496493D01*
X622791Y496270D01*
X622878Y496015D01*
X623402Y495107D01*
X623579Y494904D01*
X623698Y494663D01*
X624337Y493831D01*
X624539Y493654D01*
X624688Y493430D01*
X625430Y492689D01*
X625654Y492539D01*
X625831Y492337D01*
X626663Y491698D01*
X626904Y491580D01*
X627107Y491402D01*
X628015Y490878D01*
X628270Y490791D01*
X628493Y490642D01*
X629462Y490240D01*
X629726Y490188D01*
X629967Y490069D01*
X630980Y489798D01*
X631249Y489780D01*
X631503Y489693D01*
X632543Y489557D01*
X632812Y489574D01*
X633076Y489522D01*
X634124D01*
X634388Y489574D01*
X634657Y489557D01*
X635696Y489693D01*
X635951Y489780D01*
X636220Y489798D01*
X637233Y490069D01*
X637474Y490188D01*
X637738Y490240D01*
X638707Y490642D01*
X638930Y490791D01*
X639185Y490878D01*
X640093Y491402D01*
X640295Y491580D01*
X640537Y491698D01*
X641369Y492337D01*
X641546Y492539D01*
X641770Y492689D01*
X642511Y493430D01*
X642661Y493654D01*
X642863Y493831D01*
X643502Y494663D01*
X643621Y494904D01*
X643798Y495107D01*
X644322Y496015D01*
X644409Y496270D01*
X644558Y496493D01*
X644960Y497462D01*
X645012Y497726D01*
X645131Y497967D01*
X645402Y498980D01*
X645420Y499249D01*
X645507Y499504D01*
X645643Y500543D01*
X645626Y500812D01*
X645678Y501076D01*
Y524124D01*
X645626Y524388D01*
X645643Y524657D01*
X645507Y525696D01*
X645420Y525951D01*
X645402Y526220D01*
X645131Y527233D01*
X645012Y527474D01*
X644960Y527738D01*
X644558Y528707D01*
X644409Y528930D01*
X644322Y529185D01*
X643798Y530093D01*
X643621Y530296D01*
X643502Y530537D01*
X642863Y531369D01*
X642661Y531546D01*
X642511Y531770D01*
X641770Y532511D01*
X641546Y532661D01*
X641369Y532863D01*
X640537Y533502D01*
X640296Y533621D01*
X640093Y533798D01*
X639185Y534322D01*
X638930Y534409D01*
X638707Y534558D01*
X637738Y534960D01*
X637474Y535012D01*
X637233Y535131D01*
X636220Y535402D01*
X635951Y535420D01*
X635696Y535507D01*
X634657Y535644D01*
X634388Y535626D01*
X634124Y535678D01*
D02*
G37*
G36*
X921000Y534190D02*
X915500D01*
Y526100D01*
X923590D01*
Y531600D01*
X923393Y532591D01*
X922831Y533431D01*
X921991Y533993D01*
X921000Y534190D01*
D02*
G37*
G36*
X794000D02*
X788500D01*
Y526100D01*
X796590D01*
Y531600D01*
X796393Y532591D01*
X795831Y533431D01*
X794991Y533993D01*
X794000Y534190D01*
D02*
G37*
G36*
X667000D02*
X661500D01*
Y526100D01*
X669590D01*
Y531600D01*
X669393Y532591D01*
X668831Y533431D01*
X667991Y533993D01*
X667000Y534190D01*
D02*
G37*
G36*
X540000D02*
X534500D01*
Y526100D01*
X542590D01*
Y531600D01*
X542393Y532591D01*
X541831Y533431D01*
X540991Y533993D01*
X540000Y534190D01*
D02*
G37*
G36*
X783500D02*
X778000D01*
X777009Y533993D01*
X776169Y533431D01*
X775607Y532591D01*
X775410Y531600D01*
Y526100D01*
X783500D01*
Y534190D01*
D02*
G37*
G36*
X656500D02*
X651000D01*
X650009Y533993D01*
X649169Y533431D01*
X648607Y532591D01*
X648410Y531600D01*
Y526100D01*
X656500D01*
Y534190D01*
D02*
G37*
G36*
X529500D02*
X524000D01*
X523009Y533993D01*
X522169Y533431D01*
X521607Y532591D01*
X521410Y531600D01*
Y526100D01*
X529500D01*
Y534190D01*
D02*
G37*
G36*
X99080Y539500D02*
X95920D01*
X92868Y538682D01*
X90132Y537102D01*
X87898Y534868D01*
X86318Y532132D01*
X85500Y529080D01*
Y525920D01*
X86318Y522868D01*
X87898Y520132D01*
X90132Y517898D01*
X92868Y516318D01*
X95920Y515500D01*
X99080D01*
X102132Y516318D01*
X104868Y517898D01*
X107102Y520132D01*
X108682Y522868D01*
X109500Y525920D01*
Y529080D01*
X108682Y532132D01*
X107102Y534868D01*
X104868Y537102D01*
X102132Y538682D01*
X99080Y539500D01*
D02*
G37*
G36*
X69080D02*
X65920D01*
X62868Y538682D01*
X60132Y537102D01*
X57898Y534868D01*
X56318Y532132D01*
X55500Y529080D01*
Y525920D01*
X56318Y522868D01*
X57898Y520132D01*
X60132Y517898D01*
X62868Y516318D01*
X65920Y515500D01*
X69080D01*
X72132Y516318D01*
X74868Y517898D01*
X77102Y520132D01*
X78682Y522868D01*
X79500Y525920D01*
Y529080D01*
X78682Y532132D01*
X77102Y534868D01*
X74868Y537102D01*
X72132Y538682D01*
X69080Y539500D01*
D02*
G37*
G36*
X27521Y537900D02*
X23779D01*
X20108Y537170D01*
X16650Y535738D01*
X13538Y533658D01*
X10892Y531012D01*
X8812Y527900D01*
X7380Y524442D01*
X6650Y520771D01*
Y517029D01*
X7380Y513358D01*
X8812Y509900D01*
X10892Y506788D01*
X13538Y504142D01*
X16650Y502062D01*
X20108Y500630D01*
X23779Y499900D01*
X27521D01*
X31192Y500630D01*
X34650Y502062D01*
X37762Y504142D01*
X40408Y506788D01*
X42488Y509900D01*
X43920Y513358D01*
X44650Y517029D01*
Y520771D01*
X43920Y524442D01*
X42488Y527900D01*
X40408Y531012D01*
X37762Y533658D01*
X34650Y535738D01*
X31192Y537170D01*
X27521Y537900D01*
D02*
G37*
G36*
X796590Y521100D02*
X788500D01*
Y491010D01*
X794000D01*
X794991Y491207D01*
X795831Y491769D01*
X796393Y492609D01*
X796590Y493600D01*
Y521100D01*
D02*
G37*
G36*
X783500D02*
X775410D01*
Y493600D01*
X775607Y492609D01*
X776169Y491769D01*
X777009Y491207D01*
X778000Y491010D01*
X783500D01*
Y521100D01*
D02*
G37*
G36*
X669590D02*
X661500D01*
Y491010D01*
X667000D01*
X667991Y491207D01*
X668831Y491769D01*
X669393Y492609D01*
X669590Y493600D01*
Y521100D01*
D02*
G37*
G36*
X656500D02*
X648410D01*
Y493600D01*
X648607Y492609D01*
X649169Y491769D01*
X650009Y491207D01*
X651000Y491010D01*
X656500D01*
Y521100D01*
D02*
G37*
G36*
X542590D02*
X534500D01*
Y491010D01*
X540000D01*
X540991Y491207D01*
X541831Y491769D01*
X542393Y492609D01*
X542590Y493600D01*
Y521100D01*
D02*
G37*
G36*
X529500D02*
X521410D01*
Y493600D01*
X521607Y492609D01*
X522169Y491769D01*
X523009Y491207D01*
X524000Y491010D01*
X529500D01*
Y521100D01*
D02*
G37*
G36*
X99080Y509500D02*
X95920D01*
X92868Y508682D01*
X90132Y507102D01*
X87898Y504868D01*
X86318Y502132D01*
X85500Y499080D01*
Y495920D01*
X86318Y492868D01*
X87898Y490132D01*
X90132Y487898D01*
X92868Y486318D01*
X95920Y485500D01*
X99080D01*
X102132Y486318D01*
X104868Y487898D01*
X107102Y490132D01*
X108682Y492868D01*
X109500Y495920D01*
Y499080D01*
X108682Y502132D01*
X107102Y504868D01*
X104868Y507102D01*
X102132Y508682D01*
X99080Y509500D01*
D02*
G37*
G36*
X69080D02*
X65920D01*
X62868Y508682D01*
X60132Y507102D01*
X57898Y504868D01*
X56318Y502132D01*
X55500Y499080D01*
Y495920D01*
X56318Y492868D01*
X57898Y490132D01*
X60132Y487898D01*
X62868Y486318D01*
X65920Y485500D01*
X69080D01*
X72132Y486318D01*
X74868Y487898D01*
X77102Y490132D01*
X78682Y492868D01*
X79500Y495920D01*
Y499080D01*
X78682Y502132D01*
X77102Y504868D01*
X74868Y507102D01*
X72132Y508682D01*
X69080Y509500D01*
D02*
G37*
G36*
X69250Y461284D02*
Y455250D01*
X75284D01*
X75034Y456181D01*
X73864Y458209D01*
X72209Y459864D01*
X70181Y461034D01*
X69250Y461284D01*
D02*
G37*
G36*
X64250D02*
X63319Y461034D01*
X61291Y459864D01*
X59636Y458209D01*
X58466Y456181D01*
X58216Y455250D01*
X64250D01*
Y461284D01*
D02*
G37*
G36*
X75284Y450250D02*
X69250D01*
Y444216D01*
X70181Y444466D01*
X72209Y445636D01*
X73864Y447291D01*
X75034Y449319D01*
X75284Y450250D01*
D02*
G37*
G36*
X64250D02*
X58216D01*
X58466Y449319D01*
X59636Y447291D01*
X61291Y445636D01*
X63319Y444466D01*
X64250Y444216D01*
Y450250D01*
D02*
G37*
G36*
X485000Y426092D02*
Y418350D01*
X492742D01*
X492322Y419918D01*
X490934Y422322D01*
X488972Y424284D01*
X486568Y425672D01*
X485000Y426092D01*
D02*
G37*
G36*
X480000Y426092D02*
X478432Y425672D01*
X476028Y424284D01*
X474066Y422322D01*
X472678Y419918D01*
X472258Y418350D01*
X480000D01*
Y426092D01*
D02*
G37*
G36*
X110500Y417534D02*
Y411500D01*
X116534D01*
X116284Y412431D01*
X115114Y414459D01*
X113459Y416114D01*
X111431Y417284D01*
X110500Y417534D01*
D02*
G37*
G36*
X105500D02*
X104569Y417284D01*
X102541Y416114D01*
X100886Y414459D01*
X99716Y412431D01*
X99466Y411500D01*
X105500D01*
Y417534D01*
D02*
G37*
G36*
X492742Y413350D02*
X485000D01*
Y405608D01*
X486568Y406028D01*
X488972Y407416D01*
X490934Y409378D01*
X492322Y411782D01*
X492742Y413350D01*
D02*
G37*
G36*
X480000D02*
X472258D01*
X472678Y411782D01*
X474066Y409378D01*
X476028Y407416D01*
X478432Y406028D01*
X480000Y405608D01*
Y413350D01*
D02*
G37*
G36*
X116534Y406500D02*
X110500D01*
Y400466D01*
X111431Y400716D01*
X113459Y401886D01*
X115114Y403541D01*
X116284Y405569D01*
X116534Y406500D01*
D02*
G37*
G36*
X105500D02*
X99466D01*
X99716Y405569D01*
X100886Y403541D01*
X102541Y401886D01*
X104569Y400716D01*
X105500Y400466D01*
Y406500D01*
D02*
G37*
G36*
X485000Y400692D02*
Y392950D01*
X492742D01*
X492322Y394518D01*
X490934Y396922D01*
X488972Y398884D01*
X486568Y400272D01*
X485000Y400692D01*
D02*
G37*
G36*
X317937Y393698D02*
Y387664D01*
X323970D01*
X323721Y388596D01*
X322550Y390623D01*
X320895Y392278D01*
X318868Y393448D01*
X317937Y393698D01*
D02*
G37*
G36*
X312937D02*
X312005Y393448D01*
X309978Y392278D01*
X308323Y390623D01*
X307152Y388596D01*
X306903Y387664D01*
X312937D01*
Y393698D01*
D02*
G37*
G36*
X78040Y393040D02*
X70000D01*
Y385000D01*
X78040D01*
Y393040D01*
D02*
G37*
G36*
X65000D02*
X56960D01*
Y385000D01*
X65000D01*
Y393040D01*
D02*
G37*
G36*
X323970Y382664D02*
X317937D01*
Y376630D01*
X318868Y376880D01*
X320895Y378050D01*
X322550Y379706D01*
X323721Y381733D01*
X323970Y382664D01*
D02*
G37*
G36*
X312937D02*
X306903D01*
X307152Y381733D01*
X308323Y379706D01*
X309978Y378050D01*
X312005Y376880D01*
X312937Y376630D01*
Y382664D01*
D02*
G37*
G36*
X78040Y380000D02*
X70000D01*
Y371960D01*
X78040D01*
Y380000D01*
D02*
G37*
G36*
X65000D02*
X56960D01*
Y371960D01*
X65000D01*
Y380000D01*
D02*
G37*
G36*
X99080Y394500D02*
X95920D01*
X92868Y393682D01*
X90132Y392102D01*
X87898Y389868D01*
X86318Y387132D01*
X85500Y384080D01*
Y380920D01*
X86318Y377868D01*
X87898Y375132D01*
X90132Y372898D01*
X92868Y371318D01*
X95920Y370500D01*
X99080D01*
X102132Y371318D01*
X104868Y372898D01*
X107102Y375132D01*
X108682Y377868D01*
X109500Y380920D01*
Y384080D01*
X108682Y387132D01*
X107102Y389868D01*
X104868Y392102D01*
X102132Y393682D01*
X99080Y394500D01*
D02*
G37*
G36*
X27521Y379900D02*
X23779D01*
X20108Y379170D01*
X16650Y377738D01*
X13538Y375658D01*
X10892Y373012D01*
X8813Y369900D01*
X7380Y366442D01*
X6650Y362771D01*
Y359029D01*
X7380Y355358D01*
X8813Y351900D01*
X10892Y348788D01*
X13538Y346142D01*
X16650Y344062D01*
X20108Y342630D01*
X23779Y341900D01*
X27521D01*
X31192Y342630D01*
X34650Y344062D01*
X37762Y346142D01*
X40408Y348788D01*
X42488Y351900D01*
X43920Y355358D01*
X44650Y359029D01*
Y362771D01*
X43920Y366442D01*
X42488Y369900D01*
X40408Y373012D01*
X37762Y375658D01*
X34650Y377738D01*
X31192Y379170D01*
X27521Y379900D01*
D02*
G37*
G36*
X99080Y364500D02*
X95920D01*
X92868Y363682D01*
X90132Y362102D01*
X87898Y359868D01*
X86318Y357132D01*
X85500Y354080D01*
Y350920D01*
X86318Y347868D01*
X87898Y345132D01*
X90132Y342898D01*
X92868Y341318D01*
X95920Y340500D01*
X99080D01*
X102132Y341318D01*
X104868Y342898D01*
X107102Y345132D01*
X108682Y347868D01*
X109500Y350920D01*
Y354080D01*
X108682Y357132D01*
X107102Y359868D01*
X104868Y362102D01*
X102132Y363682D01*
X99080Y364500D01*
D02*
G37*
G36*
X69080D02*
X65920D01*
X62868Y363682D01*
X60132Y362102D01*
X57898Y359868D01*
X56318Y357132D01*
X55500Y354080D01*
Y350920D01*
X56318Y347868D01*
X57898Y345132D01*
X60132Y342898D01*
X62868Y341318D01*
X65920Y340500D01*
X69080D01*
X72132Y341318D01*
X74868Y342898D01*
X77102Y345132D01*
X78682Y347868D01*
X79500Y350920D01*
Y354080D01*
X78682Y357132D01*
X77102Y359868D01*
X74868Y362102D01*
X72132Y363682D01*
X69080Y364500D01*
D02*
G37*
G36*
X728500Y345284D02*
Y339250D01*
X734534D01*
X734284Y340181D01*
X733114Y342209D01*
X731459Y343864D01*
X729431Y345034D01*
X728500Y345284D01*
D02*
G37*
G36*
X723500D02*
X722569Y345034D01*
X720541Y343864D01*
X718886Y342209D01*
X717716Y340181D01*
X717466Y339250D01*
X723500D01*
Y345284D01*
D02*
G37*
G36*
X386020Y344554D02*
Y338520D01*
X392054D01*
X391804Y339451D01*
X390634Y341479D01*
X388979Y343134D01*
X386951Y344304D01*
X386020Y344554D01*
D02*
G37*
G36*
X381020D02*
X380089Y344304D01*
X378061Y343134D01*
X376406Y341479D01*
X375236Y339451D01*
X374986Y338520D01*
X381020D01*
Y344554D01*
D02*
G37*
G36*
X559000Y344534D02*
Y338500D01*
X565034D01*
X564784Y339431D01*
X563614Y341459D01*
X561959Y343114D01*
X559931Y344284D01*
X559000Y344534D01*
D02*
G37*
G36*
X554000D02*
X553069Y344284D01*
X551041Y343114D01*
X549386Y341459D01*
X548216Y339431D01*
X547966Y338500D01*
X554000D01*
Y344534D01*
D02*
G37*
G36*
X734534Y334250D02*
X728500D01*
Y328216D01*
X729431Y328466D01*
X731459Y329636D01*
X733114Y331291D01*
X734284Y333319D01*
X734534Y334250D01*
D02*
G37*
G36*
X723500D02*
X717466D01*
X717716Y333319D01*
X718886Y331291D01*
X720541Y329636D01*
X722569Y328466D01*
X723500Y328216D01*
Y334250D01*
D02*
G37*
G36*
X392054Y333520D02*
X386020D01*
Y327486D01*
X386951Y327736D01*
X388979Y328906D01*
X390634Y330561D01*
X391804Y332589D01*
X392054Y333520D01*
D02*
G37*
G36*
X381020D02*
X374986D01*
X375236Y332589D01*
X376406Y330561D01*
X378061Y328906D01*
X380089Y327736D01*
X381020Y327486D01*
Y333520D01*
D02*
G37*
G36*
X565034Y333500D02*
X559000D01*
Y327466D01*
X559931Y327716D01*
X561959Y328886D01*
X563614Y330541D01*
X564784Y332569D01*
X565034Y333500D01*
D02*
G37*
G36*
X554000D02*
X547966D01*
X548216Y332569D01*
X549386Y330541D01*
X551041Y328886D01*
X553069Y327716D01*
X554000Y327466D01*
Y333500D01*
D02*
G37*
G36*
X99080Y334500D02*
X95920D01*
X92868Y333682D01*
X90132Y332102D01*
X87898Y329868D01*
X86318Y327132D01*
X85500Y324080D01*
Y320920D01*
X86318Y317868D01*
X87898Y315132D01*
X90132Y312898D01*
X92868Y311318D01*
X95920Y310500D01*
X99080D01*
X102132Y311318D01*
X104868Y312898D01*
X107102Y315132D01*
X108682Y317868D01*
X109500Y320920D01*
Y324080D01*
X108682Y327132D01*
X107102Y329868D01*
X104868Y332102D01*
X102132Y333682D01*
X99080Y334500D01*
D02*
G37*
G36*
X69080D02*
X65920D01*
X62868Y333682D01*
X60132Y332102D01*
X57898Y329868D01*
X56318Y327132D01*
X55500Y324080D01*
Y320920D01*
X56318Y317868D01*
X57898Y315132D01*
X60132Y312898D01*
X62868Y311318D01*
X65920Y310500D01*
X69080D01*
X72132Y311318D01*
X74868Y312898D01*
X77102Y315132D01*
X78682Y317868D01*
X79500Y320920D01*
Y324080D01*
X78682Y327132D01*
X77102Y329868D01*
X74868Y332102D01*
X72132Y333682D01*
X69080Y334500D01*
D02*
G37*
G36*
X945500Y305034D02*
Y299000D01*
X951534D01*
X951284Y299931D01*
X950114Y301959D01*
X948459Y303614D01*
X946431Y304784D01*
X945500Y305034D01*
D02*
G37*
G36*
X940500D02*
X939569Y304784D01*
X937541Y303614D01*
X935886Y301959D01*
X934716Y299931D01*
X934466Y299000D01*
X940500D01*
Y305034D01*
D02*
G37*
G36*
X668080Y321250D02*
X664920D01*
X661868Y320432D01*
X659132Y318852D01*
X656898Y316618D01*
X655318Y313882D01*
X654500Y310830D01*
Y307670D01*
X655318Y304618D01*
X656898Y301882D01*
X659132Y299648D01*
X661868Y298068D01*
X664920Y297250D01*
X668080D01*
X671132Y298068D01*
X673868Y299648D01*
X676102Y301882D01*
X677682Y304618D01*
X678500Y307670D01*
Y310830D01*
X677682Y313882D01*
X676102Y316618D01*
X673868Y318852D01*
X671132Y320432D01*
X668080Y321250D01*
D02*
G37*
G36*
X951534Y294000D02*
X945500D01*
Y287966D01*
X946431Y288216D01*
X948459Y289386D01*
X950114Y291041D01*
X951284Y293069D01*
X951534Y294000D01*
D02*
G37*
G36*
X940500D02*
X934466D01*
X934716Y293069D01*
X935886Y291041D01*
X937541Y289386D01*
X939569Y288216D01*
X940500Y287966D01*
Y294000D01*
D02*
G37*
G36*
X668080Y295850D02*
X664920D01*
X661868Y295032D01*
X659132Y293452D01*
X656898Y291218D01*
X655318Y288482D01*
X654500Y285430D01*
Y282270D01*
X655318Y279218D01*
X656898Y276482D01*
X659132Y274248D01*
X661868Y272668D01*
X664920Y271850D01*
X668080D01*
X671132Y272668D01*
X673868Y274248D01*
X676102Y276482D01*
X677682Y279218D01*
X678500Y282270D01*
Y285430D01*
X677682Y288482D01*
X676102Y291218D01*
X673868Y293452D01*
X671132Y295032D01*
X668080Y295850D01*
D02*
G37*
G36*
X237000Y246534D02*
Y240500D01*
X243034D01*
X242784Y241431D01*
X241614Y243459D01*
X239959Y245114D01*
X237931Y246284D01*
X237000Y246534D01*
D02*
G37*
G36*
X232000D02*
X231069Y246284D01*
X229041Y245114D01*
X227386Y243459D01*
X226216Y241431D01*
X225966Y240500D01*
X232000D01*
Y246534D01*
D02*
G37*
G36*
X307500Y242534D02*
Y236500D01*
X313534D01*
X313284Y237431D01*
X312114Y239459D01*
X310459Y241114D01*
X308431Y242284D01*
X307500Y242534D01*
D02*
G37*
G36*
X302500D02*
X301569Y242284D01*
X299541Y241114D01*
X297886Y239459D01*
X296716Y237431D01*
X296466Y236500D01*
X302500D01*
Y242534D01*
D02*
G37*
G36*
X243034Y235500D02*
X237000D01*
Y229466D01*
X237931Y229716D01*
X239959Y230886D01*
X241614Y232541D01*
X242784Y234569D01*
X243034Y235500D01*
D02*
G37*
G36*
X232000D02*
X225966D01*
X226216Y234569D01*
X227386Y232541D01*
X229041Y230886D01*
X231069Y229716D01*
X232000Y229466D01*
Y235500D01*
D02*
G37*
G36*
X313534Y231500D02*
X307500D01*
Y225466D01*
X308431Y225716D01*
X310459Y226886D01*
X312114Y228541D01*
X313284Y230569D01*
X313534Y231500D01*
D02*
G37*
G36*
X302500D02*
X296466D01*
X296716Y230569D01*
X297886Y228541D01*
X299541Y226886D01*
X301569Y225716D01*
X302500Y225466D01*
Y231500D01*
D02*
G37*
G36*
X485000Y206342D02*
Y198600D01*
X492742D01*
X492322Y200168D01*
X490934Y202572D01*
X488972Y204534D01*
X486568Y205922D01*
X485000Y206342D01*
D02*
G37*
G36*
X669000Y206342D02*
Y198600D01*
X676742D01*
X676322Y200168D01*
X674934Y202572D01*
X672972Y204534D01*
X670568Y205922D01*
X669000Y206342D01*
D02*
G37*
G36*
X664000Y206342D02*
X662432Y205922D01*
X660028Y204534D01*
X658066Y202572D01*
X656678Y200168D01*
X656258Y198600D01*
X664000D01*
Y206342D01*
D02*
G37*
G36*
X480000Y206342D02*
X478432Y205922D01*
X476028Y204534D01*
X474066Y202572D01*
X472678Y200168D01*
X472258Y198600D01*
X480000D01*
Y206342D01*
D02*
G37*
G36*
X492742Y193600D02*
X485000D01*
Y185858D01*
X486568Y186278D01*
X488972Y187666D01*
X490934Y189628D01*
X492322Y192032D01*
X492742Y193600D01*
D02*
G37*
G36*
X664000D02*
X656258D01*
X656678Y192032D01*
X658066Y189628D01*
X660028Y187666D01*
X662432Y186278D01*
X664000Y185858D01*
Y193600D01*
D02*
G37*
G36*
X676742D02*
X669000D01*
Y185858D01*
X670568Y186278D01*
X672972Y187666D01*
X674934Y189628D01*
X676322Y192032D01*
X676742Y193600D01*
D02*
G37*
G36*
X480000D02*
X472258D01*
X472678Y192032D01*
X474066Y189628D01*
X476028Y187666D01*
X478432Y186278D01*
X480000Y185858D01*
Y193600D01*
D02*
G37*
G36*
X485000Y180942D02*
Y173200D01*
X492742D01*
X492322Y174768D01*
X490934Y177172D01*
X488972Y179134D01*
X486568Y180522D01*
X485000Y180942D01*
D02*
G37*
G36*
X669000Y180942D02*
Y173200D01*
X676742D01*
X676322Y174768D01*
X674934Y177172D01*
X672972Y179134D01*
X670568Y180522D01*
X669000Y180942D01*
D02*
G37*
G36*
X664000Y180942D02*
X662432Y180522D01*
X660028Y179134D01*
X658066Y177172D01*
X656678Y174768D01*
X656258Y173200D01*
X664000D01*
Y180942D01*
D02*
G37*
G36*
X480000Y180942D02*
X478432Y180522D01*
X476028Y179134D01*
X474066Y177172D01*
X472678Y174768D01*
X472258Y173200D01*
X480000D01*
Y180942D01*
D02*
G37*
G36*
X492742Y168200D02*
X485000D01*
Y160458D01*
X486568Y160878D01*
X488972Y162266D01*
X490934Y164228D01*
X492322Y166632D01*
X492742Y168200D01*
D02*
G37*
G36*
X664000D02*
X656258D01*
X656678Y166632D01*
X658066Y164228D01*
X660028Y162266D01*
X662432Y160878D01*
X664000Y160458D01*
Y168200D01*
D02*
G37*
G36*
X676742D02*
X669000D01*
Y160458D01*
X670568Y160878D01*
X672972Y162266D01*
X674934Y164228D01*
X676322Y166632D01*
X676742Y168200D01*
D02*
G37*
G36*
X480000D02*
X472258D01*
X472678Y166632D01*
X474066Y164228D01*
X476028Y162266D01*
X478432Y160878D01*
X480000Y160458D01*
Y168200D01*
D02*
G37*
G36*
X154270Y160304D02*
Y154270D01*
X160304D01*
X160054Y155201D01*
X158884Y157229D01*
X157229Y158884D01*
X155201Y160054D01*
X154270Y160304D01*
D02*
G37*
G36*
X149270D02*
X148339Y160054D01*
X146311Y158884D01*
X144656Y157229D01*
X143486Y155201D01*
X143236Y154270D01*
X149270D01*
Y160304D01*
D02*
G37*
G36*
X160304Y149270D02*
X154270D01*
Y143236D01*
X155201Y143486D01*
X157229Y144656D01*
X158884Y146311D01*
X160054Y148339D01*
X160304Y149270D01*
D02*
G37*
G36*
X149270D02*
X143236D01*
X143486Y148339D01*
X144656Y146311D01*
X146311Y144656D01*
X148339Y143486D01*
X149270Y143236D01*
Y149270D01*
D02*
G37*
G36*
X603750Y137284D02*
Y131250D01*
X609784D01*
X609534Y132181D01*
X608364Y134209D01*
X606709Y135864D01*
X604681Y137034D01*
X603750Y137284D01*
D02*
G37*
G36*
X598750D02*
X597819Y137034D01*
X595791Y135864D01*
X594136Y134209D01*
X592966Y132181D01*
X592716Y131250D01*
X598750D01*
Y137284D01*
D02*
G37*
G36*
X311750Y132034D02*
Y126000D01*
X317784D01*
X317534Y126931D01*
X316364Y128959D01*
X314709Y130614D01*
X312681Y131784D01*
X311750Y132034D01*
D02*
G37*
G36*
X306750D02*
X305819Y131784D01*
X303791Y130614D01*
X302136Y128959D01*
X300966Y126931D01*
X300716Y126000D01*
X306750D01*
Y132034D01*
D02*
G37*
G36*
X609784Y126250D02*
X603750D01*
Y120216D01*
X604681Y120466D01*
X606709Y121636D01*
X608364Y123291D01*
X609534Y125319D01*
X609784Y126250D01*
D02*
G37*
G36*
X598750D02*
X592716D01*
X592966Y125319D01*
X594136Y123291D01*
X595791Y121636D01*
X597819Y120466D01*
X598750Y120216D01*
Y126250D01*
D02*
G37*
G36*
X317784Y121000D02*
X311750D01*
Y114966D01*
X312681Y115216D01*
X314709Y116386D01*
X316364Y118041D01*
X317534Y120069D01*
X317784Y121000D01*
D02*
G37*
G36*
X306750D02*
X300716D01*
X300966Y120069D01*
X302136Y118041D01*
X303791Y116386D01*
X305819Y115216D01*
X306750Y114966D01*
Y121000D01*
D02*
G37*
G36*
X119580Y105250D02*
X116420D01*
X113368Y104432D01*
X110632Y102852D01*
X108398Y100618D01*
X106818Y97882D01*
X106157Y95417D01*
X104843D01*
X104182Y97882D01*
X102602Y100618D01*
X100368Y102852D01*
X97632Y104432D01*
X94580Y105250D01*
X91420D01*
X88368Y104432D01*
X85632Y102852D01*
X83398Y100618D01*
X81818Y97882D01*
X81000Y94830D01*
Y91670D01*
X81818Y88618D01*
X83398Y85882D01*
X85632Y83648D01*
X88368Y82068D01*
X91420Y81250D01*
X94580D01*
X97632Y82068D01*
X100368Y83648D01*
X102602Y85882D01*
X104182Y88618D01*
X104843Y91083D01*
X106157D01*
X106818Y88618D01*
X108398Y85882D01*
X110632Y83648D01*
X113368Y82068D01*
X116420Y81250D01*
X119580D01*
X122632Y82068D01*
X125368Y83648D01*
X127602Y85882D01*
X129182Y88618D01*
X130000Y91670D01*
Y94830D01*
X129182Y97882D01*
X127602Y100618D01*
X125368Y102852D01*
X122632Y104432D01*
X119580Y105250D01*
D02*
G37*
G36*
X898300Y98242D02*
Y90500D01*
X906042D01*
X905622Y92068D01*
X904234Y94472D01*
X902272Y96434D01*
X899868Y97822D01*
X898300Y98242D01*
D02*
G37*
G36*
X893300Y98242D02*
X891732Y97822D01*
X889328Y96434D01*
X887366Y94472D01*
X885978Y92068D01*
X885558Y90500D01*
X893300D01*
Y98242D01*
D02*
G37*
G36*
Y85500D02*
X885558D01*
X885978Y83932D01*
X887366Y81528D01*
X889328Y79566D01*
X891732Y78178D01*
X893300Y77758D01*
Y85500D01*
D02*
G37*
G36*
X906042D02*
X898300D01*
Y77758D01*
X899868Y78178D01*
X902272Y79566D01*
X904234Y81528D01*
X905622Y83932D01*
X906042Y85500D01*
D02*
G37*
G36*
X668080Y101500D02*
X664920D01*
X661868Y100682D01*
X659132Y99102D01*
X656898Y96868D01*
X655318Y94132D01*
X654500Y91080D01*
Y87920D01*
X655318Y84868D01*
X656898Y82132D01*
X659132Y79898D01*
X661868Y78318D01*
X664920Y77500D01*
X668080D01*
X671132Y78318D01*
X673868Y79898D01*
X676102Y82132D01*
X677682Y84868D01*
X678500Y87920D01*
Y91080D01*
X677682Y94132D01*
X676102Y96868D01*
X673868Y99102D01*
X671132Y100682D01*
X668080Y101500D01*
D02*
G37*
G36*
X922780Y100000D02*
X919620D01*
X916568Y99182D01*
X913832Y97602D01*
X911598Y95368D01*
X910018Y92632D01*
X909200Y89580D01*
Y86420D01*
X910018Y83368D01*
X911598Y80632D01*
X913832Y78398D01*
X916568Y76818D01*
X919620Y76000D01*
X922780D01*
X925832Y76818D01*
X928568Y78398D01*
X930802Y80632D01*
X932382Y83368D01*
X933200Y86420D01*
Y89580D01*
X932382Y92632D01*
X930802Y95368D01*
X928568Y97602D01*
X925832Y99182D01*
X922780Y100000D01*
D02*
G37*
G36*
X871980D02*
X868820D01*
X865768Y99182D01*
X863032Y97602D01*
X860798Y95368D01*
X859218Y92632D01*
X858400Y89580D01*
Y86420D01*
X859218Y83368D01*
X860798Y80632D01*
X863032Y78398D01*
X865768Y76818D01*
X868820Y76000D01*
X871980D01*
X875032Y76818D01*
X877768Y78398D01*
X880002Y80632D01*
X881582Y83368D01*
X882400Y86420D01*
Y89580D01*
X881582Y92632D01*
X880002Y95368D01*
X877768Y97602D01*
X875032Y99182D01*
X871980Y100000D01*
D02*
G37*
G36*
X846580D02*
X843420D01*
X840368Y99182D01*
X837632Y97602D01*
X835398Y95368D01*
X833818Y92632D01*
X833000Y89580D01*
Y86420D01*
X833818Y83368D01*
X835398Y80632D01*
X837632Y78398D01*
X840368Y76818D01*
X843420Y76000D01*
X846580D01*
X849632Y76818D01*
X852368Y78398D01*
X854602Y80632D01*
X856182Y83368D01*
X857000Y86420D01*
Y89580D01*
X856182Y92632D01*
X854602Y95368D01*
X852368Y97602D01*
X849632Y99182D01*
X846580Y100000D01*
D02*
G37*
G36*
X821180D02*
X818020D01*
X814968Y99182D01*
X812232Y97602D01*
X809998Y95368D01*
X808418Y92632D01*
X807600Y89580D01*
Y86420D01*
X808418Y83368D01*
X809998Y80632D01*
X812232Y78398D01*
X814968Y76818D01*
X818020Y76000D01*
X821180D01*
X824232Y76818D01*
X826968Y78398D01*
X829202Y80632D01*
X830782Y83368D01*
X831600Y86420D01*
Y89580D01*
X830782Y92632D01*
X829202Y95368D01*
X826968Y97602D01*
X824232Y99182D01*
X821180Y100000D01*
D02*
G37*
G36*
X795780D02*
X792620D01*
X789568Y99182D01*
X786832Y97602D01*
X784598Y95368D01*
X783018Y92632D01*
X782200Y89580D01*
Y86420D01*
X783018Y83368D01*
X784598Y80632D01*
X786832Y78398D01*
X789568Y76818D01*
X792620Y76000D01*
X795780D01*
X798832Y76818D01*
X801568Y78398D01*
X803802Y80632D01*
X805382Y83368D01*
X806200Y86420D01*
Y89580D01*
X805382Y92632D01*
X803802Y95368D01*
X801568Y97602D01*
X798832Y99182D01*
X795780Y100000D01*
D02*
G37*
G36*
X668080Y76100D02*
X664920D01*
X661868Y75282D01*
X659132Y73702D01*
X656898Y71468D01*
X655318Y68732D01*
X654500Y65680D01*
Y62520D01*
X655318Y59468D01*
X656898Y56732D01*
X659132Y54498D01*
X661868Y52918D01*
X664920Y52100D01*
X668080D01*
X671132Y52918D01*
X673868Y54498D01*
X676102Y56732D01*
X677682Y59468D01*
X678500Y62520D01*
Y65680D01*
X677682Y68732D01*
X676102Y71468D01*
X673868Y73702D01*
X671132Y75282D01*
X668080Y76100D01*
D02*
G37*
G36*
X96863Y74100D02*
X94137D01*
X91505Y73395D01*
X89145Y72032D01*
X87218Y70105D01*
X85855Y67745D01*
X85150Y65113D01*
Y62387D01*
X85855Y59755D01*
X87218Y57395D01*
X88761Y55852D01*
X88496Y54467D01*
X88368Y54432D01*
X85632Y52852D01*
X83398Y50618D01*
X81818Y47882D01*
X81000Y44830D01*
Y41670D01*
X81818Y38618D01*
X83398Y35882D01*
X85632Y33648D01*
X88368Y32068D01*
X91420Y31250D01*
X94580D01*
X97632Y32068D01*
X100368Y33648D01*
X102602Y35882D01*
X104182Y38618D01*
X104843Y41083D01*
X106157D01*
X106818Y38618D01*
X108398Y35882D01*
X110632Y33648D01*
X113368Y32068D01*
X116420Y31250D01*
X119580D01*
X122632Y32068D01*
X125368Y33648D01*
X127602Y35882D01*
X129182Y38618D01*
X130000Y41670D01*
Y44830D01*
X129182Y47882D01*
X127602Y50618D01*
X125368Y52852D01*
X122632Y54432D01*
X119580Y55250D01*
X116420D01*
X113368Y54432D01*
X110632Y52852D01*
X108398Y50618D01*
X106818Y47882D01*
X106157Y45417D01*
X104843D01*
X104182Y47882D01*
X102602Y50618D01*
X100368Y52852D01*
X100108Y53003D01*
X100117Y54464D01*
X101855Y55468D01*
X103782Y57395D01*
X105145Y59755D01*
X105850Y62387D01*
Y65113D01*
X105145Y67745D01*
X103782Y70105D01*
X101855Y72032D01*
X99495Y73395D01*
X96863Y74100D01*
D02*
G37*
G36*
X977500Y42386D02*
Y27500D01*
X992386D01*
X991866Y30116D01*
X990544Y33308D01*
X988624Y36181D01*
X986181Y38624D01*
X983308Y40544D01*
X980116Y41866D01*
X977500Y42386D01*
D02*
G37*
G36*
X972500D02*
X969884Y41866D01*
X966692Y40544D01*
X963819Y38624D01*
X961376Y36181D01*
X959456Y33308D01*
X958134Y30116D01*
X957614Y27500D01*
X972500D01*
Y42386D01*
D02*
G37*
G36*
X27500D02*
Y27500D01*
X42386D01*
X41866Y30116D01*
X40544Y33308D01*
X38624Y36181D01*
X36181Y38624D01*
X33308Y40544D01*
X30116Y41866D01*
X27500Y42386D01*
D02*
G37*
G36*
X22500D02*
X19884Y41866D01*
X16692Y40544D01*
X13819Y38624D01*
X11376Y36181D01*
X9456Y33308D01*
X8134Y30116D01*
X7614Y27500D01*
X22500D01*
Y42386D01*
D02*
G37*
G36*
X992386Y22500D02*
X977500D01*
Y7614D01*
X980116Y8134D01*
X983308Y9456D01*
X986181Y11376D01*
X988624Y13819D01*
X990544Y16692D01*
X991866Y19884D01*
X992386Y22500D01*
D02*
G37*
G36*
X972500D02*
X957614D01*
X958134Y19884D01*
X959456Y16692D01*
X961376Y13819D01*
X963819Y11376D01*
X966692Y9456D01*
X969884Y8134D01*
X972500Y7614D01*
Y22500D01*
D02*
G37*
G36*
X42386D02*
X27500D01*
Y7614D01*
X30116Y8134D01*
X33308Y9456D01*
X36181Y11376D01*
X38624Y13819D01*
X40544Y16692D01*
X41866Y19884D01*
X42386Y22500D01*
D02*
G37*
G36*
X22500D02*
X7614D01*
X8134Y19884D01*
X9456Y16692D01*
X11376Y13819D01*
X13819Y11376D01*
X16692Y9456D01*
X19884Y8134D01*
X22500Y7614D01*
Y22500D01*
D02*
G37*
%LPD*%
G36*
X549750Y304250D02*
X549750Y215157D01*
Y89469D01*
X500000Y32500D01*
X187000D01*
X186750Y32250D01*
X178000Y41000D01*
Y108000D01*
X496500D01*
X505500Y117000D01*
Y237750D01*
X461000Y282250D01*
Y369000D01*
X485000D01*
X549750Y304250D01*
D02*
G37*
G36*
X835065Y388863D02*
X834408Y387725D01*
X833380Y388000D01*
X830220D01*
X827168Y387182D01*
X824432Y385602D01*
X822198Y383368D01*
X820618Y380632D01*
X820598Y380556D01*
X672983D01*
X672643Y381826D01*
X672972Y382016D01*
X674934Y383978D01*
X676322Y386382D01*
X676742Y387950D01*
X666500D01*
X656258D01*
X656678Y386382D01*
X658066Y383978D01*
X660028Y382016D01*
X660357Y381826D01*
X660017Y380556D01*
X608326D01*
X546350Y442532D01*
Y444513D01*
X545726Y446841D01*
X546812Y447551D01*
X547645Y446718D01*
X550005Y445355D01*
X552637Y444650D01*
X555363D01*
X557995Y445355D01*
X560355Y446718D01*
X562282Y448645D01*
X563017Y449917D01*
X566823D01*
X568520Y450141D01*
X570101Y450796D01*
X571459Y451838D01*
X573066Y453444D01*
X770484D01*
X835065Y388863D01*
D02*
G37*
%LPC*%
G36*
X669000Y426092D02*
Y418350D01*
X676742D01*
X676322Y419918D01*
X674934Y422322D01*
X672972Y424284D01*
X670568Y425672D01*
X669000Y426092D01*
D02*
G37*
G36*
X664000Y426092D02*
X662432Y425672D01*
X660028Y424284D01*
X658066Y422322D01*
X656678Y419918D01*
X656258Y418350D01*
X664000D01*
Y426092D01*
D02*
G37*
G36*
Y413350D02*
X656258D01*
X656678Y411782D01*
X658066Y409378D01*
X660028Y407416D01*
X662432Y406028D01*
X664000Y405608D01*
Y413350D01*
D02*
G37*
G36*
X676742D02*
X669000D01*
Y405608D01*
X670568Y406028D01*
X672972Y407416D01*
X674934Y409378D01*
X676322Y411782D01*
X676742Y413350D01*
D02*
G37*
G36*
X669000Y400692D02*
Y392950D01*
X676742D01*
X676322Y394518D01*
X674934Y396922D01*
X672972Y398884D01*
X670568Y400272D01*
X669000Y400692D01*
D02*
G37*
G36*
X664000Y400692D02*
X662432Y400272D01*
X660028Y398884D01*
X658066Y396922D01*
X656678Y394518D01*
X656258Y392950D01*
X664000D01*
Y400692D01*
D02*
G37*
%LPD*%
G36*
G01X961260Y629900D02*
G02X953260Y637900I0J8000D01*
G02X961260Y645900I8000J0D01*
G01X983260D01*
G02X991260Y637900I0J-8000D01*
G02X983260Y629900I-8000J0D01*
G01X961260D01*
D02*
G37*
G36*
G01Y579100D02*
G02X953260Y587100I0J8000D01*
G02X961260Y595100I8000J0D01*
G01X983260D01*
G02X991260Y587100I0J-8000D01*
G02X983260Y579100I-8000J0D01*
G01X961260D01*
D02*
G37*
G36*
G01X489200Y701400D02*
G02X481200Y693400I-8000J0D01*
G02X473200Y701400I0J8000D01*
G01Y723400D01*
G02X481200Y731400I8000J0D01*
G02X489200Y723400I0J-8000D01*
G01Y701400D01*
D02*
G37*
G36*
G01X514600D02*
G02X506600Y693400I-8000J0D01*
G02X498600Y701400I0J8000D01*
G01Y723400D01*
G02X506600Y731400I8000J0D01*
G02X514600Y723400I0J-8000D01*
G01Y701400D01*
D02*
G37*
G36*
G01X565400D02*
G02X557400Y693400I-8000J0D01*
G02X549400Y701400I0J8000D01*
G01Y723400D01*
G02X557400Y731400I8000J0D01*
G02X565400Y723400I0J-8000D01*
G01Y701400D01*
D02*
G37*
G36*
G01X590800D02*
G02X582800Y693400I-8000J0D01*
G02X574800Y701400I0J8000D01*
G01Y723400D01*
G02X582800Y731400I8000J0D01*
G02X590800Y723400I0J-8000D01*
G01Y701400D01*
D02*
G37*
G36*
G01X616200D02*
G02X608200Y693400I-8000J0D01*
G02X600200Y701400I0J8000D01*
G01Y723400D01*
G02X608200Y731400I8000J0D01*
G02X616200Y723400I0J-8000D01*
G01Y701400D01*
D02*
G37*
G36*
G01X641600D02*
G02X633600Y693400I-8000J0D01*
G02X625600Y701400I0J8000D01*
G01Y723400D01*
G02X633600Y731400I8000J0D01*
G02X641600Y723400I0J-8000D01*
G01Y701400D01*
D02*
G37*
G36*
G01X692400D02*
G02X684400Y693400I-8000J0D01*
G02X676400Y701400I0J8000D01*
G01Y723400D01*
G02X684400Y731400I8000J0D01*
G02X692400Y723400I0J-8000D01*
G01Y701400D01*
D02*
G37*
G36*
G01X717800D02*
G02X709800Y693400I-8000J0D01*
G02X701800Y701400I0J8000D01*
G01Y723400D01*
G02X709800Y731400I8000J0D01*
G02X717800Y723400I0J-8000D01*
G01Y701400D01*
D02*
G37*
G36*
G01X743200D02*
G02X735200Y693400I-8000J0D01*
G02X727200Y701400I0J8000D01*
G01Y723400D01*
G02X735200Y731400I8000J0D01*
G02X743200Y723400I0J-8000D01*
G01Y701400D01*
D02*
G37*
G36*
G01X768600D02*
G02X760600Y693400I-8000J0D01*
G02X752600Y701400I0J8000D01*
G01Y723400D01*
G02X760600Y731400I8000J0D01*
G02X768600Y723400I0J-8000D01*
G01Y701400D01*
D02*
G37*
G36*
G01X819400D02*
G02X811400Y693400I-8000J0D01*
G02X803400Y701400I0J8000D01*
G01Y723400D01*
G02X811400Y731400I8000J0D01*
G02X819400Y723400I0J-8000D01*
G01Y701400D01*
D02*
G37*
G36*
G01X844800D02*
G02X836800Y693400I-8000J0D01*
G02X828800Y701400I0J8000D01*
G01Y723400D01*
G02X836800Y731400I8000J0D01*
G02X844800Y723400I0J-8000D01*
G01Y701400D01*
D02*
G37*
G36*
G01X870200D02*
G02X862200Y693400I-8000J0D01*
G02X854200Y701400I0J8000D01*
G01Y723400D01*
G02X862200Y731400I8000J0D01*
G02X870200Y723400I0J-8000D01*
G01Y701400D01*
D02*
G37*
G36*
G01X895600D02*
G02X887600Y693400I-8000J0D01*
G02X879600Y701400I0J8000D01*
G01Y723400D01*
G02X887600Y731400I8000J0D01*
G02X895600Y723400I0J-8000D01*
G01Y701400D01*
D02*
G37*
G36*
G01X946400D02*
G02X938400Y693400I-8000J0D01*
G02X930400Y701400I0J8000D01*
G01Y723400D01*
G02X938400Y731400I8000J0D01*
G02X946400Y723400I0J-8000D01*
G01Y701400D01*
D02*
G37*
G36*
G01X971800D02*
G02X963800Y693400I-8000J0D01*
G02X955800Y701400I0J8000D01*
G01Y723400D01*
G02X963800Y731400I8000J0D01*
G02X971800Y723400I0J-8000D01*
G01Y701400D01*
D02*
G37*
G36*
G01X955800Y523600D02*
G02X963800Y531600I8000J-0D01*
G02X971800Y523600I0J-8000D01*
G01Y501600D01*
G02X963800Y493600I-8000J0D01*
G02X955800Y501600I0J8000D01*
G01Y523600D01*
D02*
G37*
G36*
G01X930400D02*
G02X938400Y531600I8000J-0D01*
G02X946400Y523600I0J-8000D01*
G01Y501600D01*
G02X938400Y493600I-8000J0D01*
G02X930400Y501600I0J8000D01*
G01Y523600D01*
D02*
G37*
G36*
G01X879600D02*
G02X887600Y531600I8000J-0D01*
G02X895600Y523600I0J-8000D01*
G01Y501600D01*
G02X887600Y493600I-8000J0D01*
G02X879600Y501600I0J8000D01*
G01Y523600D01*
D02*
G37*
G36*
G01X854200D02*
G02X862200Y531600I8000J-0D01*
G02X870200Y523600I0J-8000D01*
G01Y501600D01*
G02X862200Y493600I-8000J0D01*
G02X854200Y501600I0J8000D01*
G01Y523600D01*
D02*
G37*
G36*
G01X828800D02*
G02X836800Y531600I8000J-0D01*
G02X844800Y523600I0J-8000D01*
G01Y501600D01*
G02X836800Y493600I-8000J0D01*
G02X828800Y501600I0J8000D01*
G01Y523600D01*
D02*
G37*
G36*
G01X803400D02*
G02X811400Y531600I8000J-0D01*
G02X819400Y523600I0J-8000D01*
G01Y501600D01*
G02X811400Y493600I-8000J0D01*
G02X803400Y501600I0J8000D01*
G01Y523600D01*
D02*
G37*
G36*
G01X752600D02*
G02X760600Y531600I8000J-0D01*
G02X768600Y523600I0J-8000D01*
G01Y501600D01*
G02X760600Y493600I-8000J0D01*
G02X752600Y501600I0J8000D01*
G01Y523600D01*
D02*
G37*
G36*
G01X727200D02*
G02X735200Y531600I8000J-0D01*
G02X743200Y523600I0J-8000D01*
G01Y501600D01*
G02X735200Y493600I-8000J0D01*
G02X727200Y501600I0J8000D01*
G01Y523600D01*
D02*
G37*
G36*
G01X701800D02*
G02X709800Y531600I8000J-0D01*
G02X717800Y523600I0J-8000D01*
G01Y501600D01*
G02X709800Y493600I-8000J0D01*
G02X701800Y501600I0J8000D01*
G01Y523600D01*
D02*
G37*
G36*
G01X676400D02*
G02X684400Y531600I8000J-0D01*
G02X692400Y523600I0J-8000D01*
G01Y501600D01*
G02X684400Y493600I-8000J0D01*
G02X676400Y501600I0J8000D01*
G01Y523600D01*
D02*
G37*
G36*
G01X625600D02*
G02X633600Y531600I8000J-0D01*
G02X641600Y523600I0J-8000D01*
G01Y501600D01*
G02X633600Y493600I-8000J0D01*
G02X625600Y501600I0J8000D01*
G01Y523600D01*
D02*
G37*
G36*
G01X600200D02*
G02X608200Y531600I8000J-0D01*
G02X616200Y523600I0J-8000D01*
G01Y501600D01*
G02X608200Y493600I-8000J0D01*
G02X600200Y501600I0J8000D01*
G01Y523600D01*
D02*
G37*
G36*
G01X574800D02*
G02X582800Y531600I8000J-0D01*
G02X590800Y523600I0J-8000D01*
G01Y501600D01*
G02X582800Y493600I-8000J0D01*
G02X574800Y501600I0J8000D01*
G01Y523600D01*
D02*
G37*
G36*
G01X549400D02*
G02X557400Y531600I8000J-0D01*
G02X565400Y523600I0J-8000D01*
G01Y501600D01*
G02X557400Y493600I-8000J0D01*
G02X549400Y501600I0J8000D01*
G01Y523600D01*
D02*
G37*
G36*
G01X498600D02*
G02X506600Y531600I8000J-0D01*
G02X514600Y523600I0J-8000D01*
G01Y501600D01*
G02X506600Y493600I-8000J0D01*
G02X498600Y501600I0J8000D01*
G01Y523600D01*
D02*
G37*
G36*
G01X473200D02*
G02X481200Y531600I8000J-0D01*
G02X489200Y523600I0J-8000D01*
G01Y501600D01*
G02X481200Y493600I-8000J0D01*
G02X473200Y501600I0J8000D01*
G01Y523600D01*
D02*
G37*
D53*
X349000Y547150D02*
Y575627D01*
X389000Y410250D02*
Y620000D01*
Y410250D02*
X443571Y355679D01*
X749750Y186750D02*
X918500Y355500D01*
X749750Y36000D02*
Y186750D01*
X536000Y443150D02*
X536460D01*
X605610Y374000D01*
X76855Y936355D02*
Y943677D01*
X74750Y934250D02*
X76855Y936355D01*
X123678Y990500D02*
X873500D01*
X76855Y943677D02*
X123678Y990500D01*
X873500D02*
X913000Y951000D01*
X267500Y935000D02*
X307000Y974500D01*
X685500D01*
X708000Y952000D01*
X709000D01*
X414000Y935000D02*
X512000D01*
X552000Y895000D01*
X710928Y790750D02*
X773100Y728578D01*
X582800Y790750D02*
X710928D01*
X582800Y701400D02*
Y790750D01*
Y816200D01*
X773100Y692339D02*
Y728578D01*
X773000Y692239D02*
X773100Y692339D01*
X773000Y656000D02*
Y692239D01*
Y656000D02*
X900100Y528900D01*
Y492136D02*
Y528900D01*
Y492136D02*
X918500Y473736D01*
Y355500D02*
Y473736D01*
X603400Y595000D02*
X709800Y701400D01*
X522000Y595000D02*
X603400D01*
X537000Y613000D02*
X596000D01*
X684400Y701400D01*
X443571Y271071D02*
Y355679D01*
X335000Y200500D02*
X373000D01*
X443571Y271071D01*
X132000Y169000D02*
X355000D01*
X69000Y232000D02*
X132000Y169000D01*
X781000Y983000D02*
X812000Y952000D01*
X172000Y935000D02*
X220000Y983000D01*
X781000D01*
X605610Y374000D02*
X829800D01*
X831800Y376000D01*
X340000Y681000D02*
X387527Y633473D01*
Y621473D02*
Y633473D01*
Y621473D02*
X389000Y620000D01*
X340000Y681000D02*
Y863000D01*
X358000Y881000D02*
X537000D01*
X340000Y863000D02*
X358000Y881000D01*
X537000D02*
X564000Y854000D01*
X570350Y460000D02*
X773200D01*
X554000Y455000D02*
X555473Y456473D01*
X566823D01*
X570350Y460000D01*
X773200D02*
X857200Y376000D01*
X67500Y262500D02*
X69000Y261000D01*
Y232000D02*
Y261000D01*
X564000Y835000D02*
Y854000D01*
Y835000D02*
X582800Y816200D01*
X171500Y935000D02*
X172000D01*
D54*
X175000Y20000D02*
X615000D01*
X160000Y35000D02*
Y112000D01*
Y35000D02*
X175000Y20000D01*
X598000Y263000D02*
Y356000D01*
X486000Y468000D02*
X598000Y356000D01*
X450460Y503540D02*
X486000Y468000D01*
X450000Y504500D02*
Y740213D01*
X458787Y749000D02*
X496000D01*
X506600Y738400D01*
X450000Y740213D02*
X458787Y749000D01*
X506600Y701400D02*
Y738400D01*
X412553Y935000D02*
X414000D01*
X316053Y935000D02*
X318947D01*
X202000Y915500D02*
X221500Y935000D01*
X148250Y926500D02*
X159250Y915500D01*
X147250Y927500D02*
X148250Y926500D01*
X124941Y934059D02*
X140941D01*
X124750Y934250D02*
X124941Y934059D01*
X140941D02*
X146475Y928525D01*
X159250Y915500D02*
X202000D01*
X222947Y935000D02*
X243697Y914250D01*
X295303D01*
X316053Y935000D01*
X318947D02*
X340447Y913500D01*
X391053D02*
X412553Y935000D01*
X340447Y913500D02*
X391053D01*
X49000Y223000D02*
Y270163D01*
Y223000D02*
X160000Y112000D01*
X67309Y292038D02*
X67444Y292173D01*
X49000Y270163D02*
X67309Y288472D01*
Y292038D01*
X221500Y935000D02*
X222947D01*
D55*
X414000Y858750D02*
Y859000D01*
Y429000D02*
Y549000D01*
Y858750D01*
X364000Y859000D02*
X414000D01*
Y429000D02*
X484158Y357908D01*
D56*
X518650Y479650D02*
X519000Y480000D01*
X497650Y479650D02*
X518650D01*
X486000Y468000D02*
X497650Y479650D01*
D57*
X95000Y917250D02*
X102250Y924500D01*
X110451Y958867D02*
X124367D01*
X102250Y950666D02*
X110451Y958867D01*
X102250Y924500D02*
Y950666D01*
X124367Y958867D02*
X124750Y959250D01*
X62701Y917250D02*
X95000D01*
X50000Y904549D02*
X62701Y917250D01*
X50000Y755000D02*
Y904549D01*
X148250Y926500D02*
Y926750D01*
Y313250D02*
Y926500D01*
X146475Y928525D02*
X148250Y926750D01*
X97500Y262500D02*
X148250Y313250D01*
X123000Y583000D02*
Y766000D01*
X97500Y557500D02*
X123000Y583000D01*
X50000Y755000D02*
X67500Y737500D01*
D58*
Y617500D02*
D03*
X194000Y93250D02*
D03*
X118000D02*
D03*
X93000D02*
D03*
Y43250D02*
D03*
X118000D02*
D03*
X194000D02*
D03*
X124750Y858250D02*
D03*
Y934250D02*
D03*
Y959250D02*
D03*
X74750D02*
D03*
Y934250D02*
D03*
Y858250D02*
D03*
X414000Y858750D02*
D03*
Y934750D02*
D03*
Y959750D02*
D03*
X364000D02*
D03*
Y934750D02*
D03*
Y858750D02*
D03*
X317500Y858500D02*
D03*
Y934500D02*
D03*
Y959500D02*
D03*
X267500D02*
D03*
Y934500D02*
D03*
Y858500D02*
D03*
X221000Y858250D02*
D03*
Y934250D02*
D03*
Y959250D02*
D03*
X171000D02*
D03*
Y934250D02*
D03*
Y858250D02*
D03*
X482500Y196100D02*
D03*
Y170700D02*
D03*
Y64100D02*
D03*
X666500Y89500D02*
D03*
Y64100D02*
D03*
X482500Y89500D02*
D03*
X666500Y170700D02*
D03*
Y196100D02*
D03*
Y415850D02*
D03*
Y390450D02*
D03*
X482500Y309250D02*
D03*
X666500Y283850D02*
D03*
Y309250D02*
D03*
X482500Y283850D02*
D03*
Y390450D02*
D03*
Y415850D02*
D03*
X97500Y292500D02*
D03*
Y352500D02*
D03*
Y322500D02*
D03*
Y382500D02*
D03*
X67500Y707500D02*
D03*
Y677500D02*
D03*
Y737500D02*
D03*
Y647500D02*
D03*
Y527500D02*
D03*
Y497500D02*
D03*
Y587500D02*
D03*
Y557500D02*
D03*
X25650Y518900D02*
D03*
X25650Y745900D02*
D03*
X97500Y497500D02*
D03*
Y527500D02*
D03*
Y557500D02*
D03*
Y587500D02*
D03*
Y617500D02*
D03*
Y647500D02*
D03*
Y677500D02*
D03*
Y707500D02*
D03*
Y737500D02*
D03*
Y767500D02*
D03*
X895800Y88000D02*
D03*
X768800D02*
D03*
X794200D02*
D03*
X819600D02*
D03*
X845000D02*
D03*
X870400D02*
D03*
X921200D02*
D03*
X857200Y376000D02*
D03*
X831800D02*
D03*
X67500Y352500D02*
D03*
Y322500D02*
D03*
Y292500D02*
D03*
Y262500D02*
D03*
X97500D02*
D03*
X25650Y360900D02*
D03*
X25650Y283900D02*
D03*
D59*
X961260Y612500D02*
D03*
D60*
X659000Y701400D02*
D03*
X786000D02*
D03*
X532000D02*
D03*
X913000D02*
D03*
D61*
Y523600D02*
D03*
X786000D02*
D03*
X532000D02*
D03*
X659000D02*
D03*
D62*
X67500Y767500D02*
D03*
Y382500D02*
D03*
D63*
X556500Y336000D02*
D03*
X391000Y-99250D02*
D03*
X309250Y123500D02*
D03*
X95500Y63750D02*
D03*
X715500Y587500D02*
D03*
X431750Y558000D02*
D03*
X414000Y547150D02*
D03*
X349000D02*
D03*
Y575627D02*
D03*
X315437Y385164D02*
D03*
X383520Y336020D02*
D03*
X748750Y857750D02*
D03*
X492500Y849250D02*
D03*
X966250Y838000D02*
D03*
X601250Y128750D02*
D03*
X66750Y452750D02*
D03*
X321500Y664750D02*
D03*
X564000Y854000D02*
D03*
X523500Y430500D02*
D03*
X536000Y443150D02*
D03*
X151770Y151770D02*
D03*
X913000Y951000D02*
D03*
X709000Y952000D02*
D03*
X108000Y409000D02*
D03*
X457000Y798000D02*
D03*
X943000Y296500D02*
D03*
X335000Y200500D02*
D03*
X305000Y234000D02*
D03*
X355000Y169000D02*
D03*
X749750Y36000D02*
D03*
X234500Y238000D02*
D03*
X726000Y336750D02*
D03*
X123000Y766000D02*
D03*
X519000Y480000D02*
D03*
X389000Y620000D02*
D03*
X340000Y681000D02*
D03*
X522000Y595000D02*
D03*
X537000Y613000D02*
D03*
X554000Y455000D02*
D03*
X552000Y895000D02*
D03*
X598000Y263000D02*
D03*
X812000Y952000D02*
D03*
X615000Y20000D02*
D03*
D64*
X957500Y555500D02*
D03*
X487500Y669500D02*
D03*
X957500D02*
D03*
X487500Y555500D02*
D03*
D65*
X25000Y25000D02*
D03*
Y972500D02*
D03*
X975000Y25000D02*
D03*
Y975000D02*
D03*
M02*
