G04*
G04 #@! TF.GenerationSoftware,Altium Limited,Altium Designer,23.4.1 (23)*
G04*
G04 Layer_Color=8421504*
%FSLAX44Y44*%
%MOMM*%
G71*
G04*
G04 #@! TF.SameCoordinates,A38F0C46-2886-41F3-B9C8-1B8298131EAA*
G04*
G04*
G04 #@! TF.FilePolarity,Positive*
G04*
G01*
G75*
%ADD15R,1.1500X1.4500*%
%ADD16R,1.4500X1.1500*%
%ADD17R,0.9500X1.4000*%
%ADD18R,1.4000X0.9500*%
%ADD19O,1.4500X0.3000*%
%ADD20R,3.0000X1.2500*%
%ADD21R,6.4000X5.5500*%
%ADD22R,1.5500X2.4000*%
%ADD23R,0.6000X1.0000*%
%ADD24O,2.3000X1.4000*%
%ADD25O,1.4000X2.3000*%
%ADD26R,2.4000X1.5500*%
%ADD27R,4.2000X2.1000*%
%ADD28R,1.1000X1.4500*%
%ADD29R,0.8000X0.5500*%
%ADD30R,2.6500X1.6500*%
D15*
X411000Y576500D02*
D03*
X429000D02*
D03*
X234000Y643750D02*
D03*
X216000D02*
D03*
X235500Y590250D02*
D03*
X217500D02*
D03*
X370750Y601000D02*
D03*
X388750D02*
D03*
X616500Y240000D02*
D03*
X598500D02*
D03*
X498500Y20000D02*
D03*
X516500D02*
D03*
X481500Y240000D02*
D03*
X463500D02*
D03*
X594500Y19500D02*
D03*
X576500D02*
D03*
X834000Y35000D02*
D03*
X852000D02*
D03*
D16*
X300000Y593250D02*
D03*
Y575250D02*
D03*
X555000Y779000D02*
D03*
Y761000D02*
D03*
X535000Y779000D02*
D03*
Y761000D02*
D03*
D17*
X215750Y673250D02*
D03*
X234750D02*
D03*
X369750Y571500D02*
D03*
X388750D02*
D03*
X216250Y615750D02*
D03*
X428000Y409000D02*
D03*
X447000D02*
D03*
X428000Y389000D02*
D03*
X447000D02*
D03*
X305500Y323250D02*
D03*
X324500D02*
D03*
X362500D02*
D03*
X343500D02*
D03*
X418750Y266500D02*
D03*
X399750D02*
D03*
X403000Y354000D02*
D03*
X422000D02*
D03*
X556500Y481000D02*
D03*
X537500D02*
D03*
X421750Y324750D02*
D03*
X440750D02*
D03*
X421750Y304750D02*
D03*
X440750D02*
D03*
X640500Y240000D02*
D03*
X659500D02*
D03*
X362000Y409000D02*
D03*
X343000D02*
D03*
X306000D02*
D03*
X325000D02*
D03*
X159500Y500000D02*
D03*
X140500D02*
D03*
Y530000D02*
D03*
X159500D02*
D03*
X140500Y574000D02*
D03*
X159500D02*
D03*
X215500Y516000D02*
D03*
X234500D02*
D03*
X214000Y494500D02*
D03*
X233000D02*
D03*
X140500Y650000D02*
D03*
X159500D02*
D03*
X140500Y680000D02*
D03*
X159500D02*
D03*
X140500Y710000D02*
D03*
X159500D02*
D03*
X140500Y740000D02*
D03*
X159500D02*
D03*
X407500Y78000D02*
D03*
X426500D02*
D03*
X235250Y615750D02*
D03*
X334500Y225000D02*
D03*
X353500D02*
D03*
X767250Y34750D02*
D03*
X786250D02*
D03*
X638000Y20000D02*
D03*
X657000D02*
D03*
X356000Y102500D02*
D03*
X375000D02*
D03*
D18*
X272000Y593250D02*
D03*
Y574250D02*
D03*
X875500Y762000D02*
D03*
X663250Y464250D02*
D03*
Y483250D02*
D03*
X624000Y464250D02*
D03*
Y483250D02*
D03*
X596250Y464250D02*
D03*
Y483250D02*
D03*
X979000Y743000D02*
D03*
Y762000D02*
D03*
X949750Y743000D02*
D03*
Y762000D02*
D03*
X904500Y743000D02*
D03*
Y762000D02*
D03*
X875500Y743000D02*
D03*
X355000Y133000D02*
D03*
Y152000D02*
D03*
X371000Y690500D02*
D03*
Y671500D02*
D03*
Y620500D02*
D03*
Y639500D02*
D03*
X265750Y690500D02*
D03*
Y671500D02*
D03*
X294750D02*
D03*
Y690500D02*
D03*
X678250Y832500D02*
D03*
Y851500D02*
D03*
X776750Y833750D02*
D03*
Y852750D02*
D03*
X832000Y953500D02*
D03*
Y972500D02*
D03*
X732500Y953500D02*
D03*
Y972500D02*
D03*
X637500Y953500D02*
D03*
Y972500D02*
D03*
X584250Y836250D02*
D03*
Y855250D02*
D03*
X932500Y952500D02*
D03*
Y971500D02*
D03*
X879000Y835500D02*
D03*
Y854500D02*
D03*
X328000Y574250D02*
D03*
Y593250D02*
D03*
D19*
X324000Y629000D02*
D03*
X280000Y644000D02*
D03*
Y639000D02*
D03*
Y634000D02*
D03*
Y629000D02*
D03*
Y624000D02*
D03*
X324000Y644000D02*
D03*
Y639000D02*
D03*
Y634000D02*
D03*
Y624000D02*
D03*
D20*
X151500Y271100D02*
D03*
X152500Y355700D02*
D03*
X151500Y316900D02*
D03*
X152500Y401500D02*
D03*
D21*
X216000Y294000D02*
D03*
X217000Y378600D02*
D03*
D22*
X871500Y919000D02*
D03*
X673500Y919750D02*
D03*
X772500Y889500D02*
D03*
Y920000D02*
D03*
X871500Y888500D02*
D03*
X673500Y889250D02*
D03*
X576500Y889500D02*
D03*
Y920000D02*
D03*
X31500Y89500D02*
D03*
Y59000D02*
D03*
X165500Y200000D02*
D03*
Y169500D02*
D03*
D23*
X873000Y952000D02*
D03*
X675000Y953000D02*
D03*
X783500Y977000D02*
D03*
X764500D02*
D03*
X774000Y953000D02*
D03*
X684500Y977000D02*
D03*
X665500D02*
D03*
X587500D02*
D03*
X568500D02*
D03*
X578000Y953000D02*
D03*
X882500Y976000D02*
D03*
X863500D02*
D03*
X420000Y30500D02*
D03*
X410500Y54500D02*
D03*
X429500D02*
D03*
D24*
X363750Y270050D02*
D03*
Y295450D02*
D03*
X274250Y270050D02*
D03*
Y295450D02*
D03*
X363500Y356050D02*
D03*
Y381450D02*
D03*
X274000Y356050D02*
D03*
Y381450D02*
D03*
X379750Y42300D02*
D03*
Y67700D02*
D03*
X290250Y42300D02*
D03*
Y67700D02*
D03*
D25*
X389800Y135250D02*
D03*
X415200D02*
D03*
X389800Y224750D02*
D03*
X415200D02*
D03*
X831200Y927250D02*
D03*
X805800D02*
D03*
X831200Y837750D02*
D03*
X805800D02*
D03*
X732700Y927250D02*
D03*
X707300D02*
D03*
X732700Y837750D02*
D03*
X707300D02*
D03*
X637700Y927250D02*
D03*
X612300D02*
D03*
X637700Y837750D02*
D03*
X612300D02*
D03*
X932700Y926250D02*
D03*
X907300D02*
D03*
X932700Y836750D02*
D03*
X907300D02*
D03*
D26*
X229750Y42500D02*
D03*
X260250D02*
D03*
D27*
X121250Y167500D02*
D03*
X48750D02*
D03*
X282500D02*
D03*
X210000D02*
D03*
D28*
X554500Y19500D02*
D03*
X536500D02*
D03*
X561000Y240000D02*
D03*
X579000D02*
D03*
X513500Y240000D02*
D03*
X531500D02*
D03*
X462000Y20000D02*
D03*
X480000D02*
D03*
D29*
X386750Y396500D02*
D03*
X408250Y403000D02*
D03*
Y390000D02*
D03*
X406000Y304500D02*
D03*
Y317500D02*
D03*
X384500Y311000D02*
D03*
D30*
X897000Y35000D02*
D03*
X933000D02*
D03*
X470000Y763000D02*
D03*
X506000D02*
D03*
X620000Y764000D02*
D03*
X584000D02*
D03*
M02*
