G04*
G04 #@! TF.GenerationSoftware,Altium Limited,Altium Designer,23.4.1 (23)*
G04*
G04 Layer_Color=8388736*
%FSLAX44Y44*%
%MOMM*%
G71*
G04*
G04 #@! TF.SameCoordinates,A38F0C46-2886-41F3-B9C8-1B8298131EAA*
G04*
G04*
G04 #@! TF.FilePolarity,Negative*
G04*
G01*
G75*
%ADD31C,1.8000*%
%ADD32R,1.3532X1.6532*%
%ADD33R,1.6532X1.3532*%
%ADD34R,1.1532X1.6032*%
%ADD35R,1.6032X1.1532*%
%ADD36O,1.6532X0.5032*%
%ADD37R,3.2032X1.4532*%
%ADD38R,6.6032X5.7532*%
%ADD39R,1.7532X2.6032*%
%ADD40R,0.8032X1.2032*%
%ADD41O,2.5032X1.6032*%
%ADD42O,1.6032X2.5032*%
%ADD43R,2.6032X1.7532*%
%ADD44R,4.4032X2.3032*%
%ADD45R,1.3032X1.6532*%
%ADD46R,1.0032X0.7532*%
%ADD47R,2.8532X1.8532*%
%ADD48C,1.8032*%
%ADD49R,1.8032X1.8032*%
%ADD50C,1.4732*%
%ADD51C,3.7032*%
%ADD52C,3.2032*%
G36*
X964457Y732410D02*
X965497Y732273D01*
X965628Y732247D01*
X966640Y731975D01*
X966767Y731932D01*
X967736Y731531D01*
X967855Y731472D01*
X967855Y731472D01*
X968763Y730948D01*
X968874Y730874D01*
X969706Y730235D01*
X969806Y730148D01*
X970547Y729406D01*
X970635Y729306D01*
X971274Y728474D01*
X971348Y728363D01*
X971872Y727455D01*
X971931Y727336D01*
X972332Y726367D01*
X972375Y726241D01*
X972646Y725228D01*
X972646Y725228D01*
X972673Y725097D01*
X972809Y724057D01*
X972818Y723924D01*
Y723924D01*
Y723924D01*
Y723400D01*
X972818Y701400D01*
Y700876D01*
X972809Y700743D01*
X972673Y699703D01*
Y699703D01*
X972646Y699573D01*
X972375Y698559D01*
X972332Y698433D01*
X971931Y697465D01*
X971872Y697345D01*
X971348Y696437D01*
X971274Y696326D01*
X971274Y696326D01*
X970635Y695494D01*
X970547Y695394D01*
X969806Y694652D01*
X969706Y694565D01*
X968874Y693926D01*
X968763Y693852D01*
X967855Y693328D01*
X967736Y693269D01*
X966767Y692868D01*
X966640Y692825D01*
X966640Y692825D01*
X965628Y692553D01*
X965628Y692553D01*
X965497Y692527D01*
X964457Y692391D01*
X964457Y692391D01*
X964324Y692382D01*
X963800Y692382D01*
X963276Y692382D01*
X963276D01*
X963276D01*
X963143Y692391D01*
X962103Y692527D01*
X961972Y692553D01*
X960959Y692825D01*
X960833Y692868D01*
X959865Y693269D01*
X959745Y693328D01*
X959745Y693328D01*
X958837Y693852D01*
X958726Y693926D01*
X957894Y694565D01*
X957794Y694652D01*
X957052Y695394D01*
X956965Y695494D01*
X956326Y696326D01*
X956252Y696437D01*
X955728Y697345D01*
X955669Y697465D01*
X955268Y698433D01*
X955225Y698559D01*
X954953Y699572D01*
X954953Y699572D01*
X954927Y699703D01*
X954790Y700743D01*
X954782Y700876D01*
Y700876D01*
Y700876D01*
Y701400D01*
Y723400D01*
Y723924D01*
D01*
Y723924D01*
X954790Y724057D01*
X954927Y725097D01*
X954953Y725228D01*
X955225Y726241D01*
X955268Y726367D01*
X955669Y727336D01*
X955728Y727455D01*
X955728Y727455D01*
X956252Y728363D01*
X956326Y728474D01*
X956965Y729306D01*
X957052Y729406D01*
X957794Y730148D01*
X957894Y730235D01*
X958726Y730874D01*
X958837Y730948D01*
X959745Y731472D01*
X959864Y731531D01*
X960833Y731932D01*
X960959Y731975D01*
X961972Y732247D01*
X961972Y732247D01*
X962103Y732273D01*
X963143Y732410D01*
X963276Y732418D01*
X963276D01*
X963276D01*
X964324D01*
X964324D01*
D01*
X964457Y732410D01*
D02*
G37*
G36*
X939057D02*
X940097Y732273D01*
X940228Y732247D01*
X941240Y731975D01*
X941367Y731932D01*
X942336Y731531D01*
X942455Y731472D01*
X942455Y731472D01*
X943363Y730948D01*
X943474Y730874D01*
X944306Y730235D01*
X944406Y730148D01*
X945147Y729406D01*
X945235Y729306D01*
X945874Y728474D01*
X945948Y728363D01*
X946472Y727455D01*
X946531Y727336D01*
X946932Y726367D01*
X946975Y726241D01*
X947246Y725228D01*
X947246Y725228D01*
X947272Y725097D01*
X947409Y724057D01*
X947418Y723924D01*
Y723924D01*
Y723924D01*
Y723400D01*
X947418Y701400D01*
Y700876D01*
X947409Y700743D01*
X947272Y699703D01*
Y699703D01*
X947246Y699573D01*
X946975Y698559D01*
X946932Y698433D01*
X946531Y697465D01*
X946472Y697345D01*
X945948Y696437D01*
X945874Y696326D01*
X945874Y696326D01*
X945235Y695494D01*
X945147Y695394D01*
X944406Y694652D01*
X944306Y694565D01*
X943474Y693926D01*
X943363Y693852D01*
X942455Y693328D01*
X942336Y693269D01*
X941367Y692868D01*
X941240Y692825D01*
X941240Y692825D01*
X940228Y692553D01*
X940228Y692553D01*
X940097Y692527D01*
X939057Y692391D01*
X939057Y692391D01*
X938924Y692382D01*
X938400Y692382D01*
X937876Y692382D01*
X937876D01*
X937876D01*
X937743Y692391D01*
X936703Y692527D01*
X936572Y692553D01*
X935559Y692825D01*
X935433Y692868D01*
X934464Y693269D01*
X934345Y693328D01*
X934345Y693328D01*
X933437Y693852D01*
X933326Y693926D01*
X932494Y694565D01*
X932394Y694652D01*
X931652Y695394D01*
X931565Y695494D01*
X930926Y696326D01*
X930852Y696437D01*
X930328Y697345D01*
X930269Y697465D01*
X929868Y698433D01*
X929825Y698559D01*
X929553Y699572D01*
X929553Y699572D01*
X929527Y699703D01*
X929390Y700743D01*
X929382Y700876D01*
Y700876D01*
Y700876D01*
Y701400D01*
Y723400D01*
Y723924D01*
D01*
Y723924D01*
X929390Y724057D01*
X929527Y725097D01*
X929553Y725228D01*
X929825Y726241D01*
X929868Y726367D01*
X930269Y727336D01*
X930328Y727455D01*
X930328Y727455D01*
X930852Y728363D01*
X930926Y728474D01*
X931565Y729306D01*
X931652Y729406D01*
X932394Y730148D01*
X932494Y730235D01*
X933326Y730874D01*
X933437Y730948D01*
X934345Y731472D01*
X934464Y731531D01*
X935433Y731932D01*
X935559Y731975D01*
X936572Y732247D01*
X936572Y732247D01*
X936703Y732273D01*
X937743Y732410D01*
X937876Y732418D01*
X937876D01*
X937876D01*
X938924D01*
X938924D01*
D01*
X939057Y732410D01*
D02*
G37*
G36*
X888257D02*
X889297Y732273D01*
X889427Y732247D01*
X890441Y731975D01*
X890567Y731932D01*
X891535Y731531D01*
X891655Y731472D01*
X891655Y731472D01*
X892563Y730948D01*
X892674Y730874D01*
X893506Y730235D01*
X893606Y730148D01*
X894348Y729406D01*
X894435Y729306D01*
X895074Y728474D01*
X895148Y728363D01*
X895672Y727455D01*
X895731Y727336D01*
X896132Y726367D01*
X896175Y726241D01*
X896447Y725228D01*
X896447Y725228D01*
X896472Y725097D01*
X896609Y724057D01*
X896618Y723924D01*
Y723924D01*
Y723924D01*
Y723400D01*
X896618Y701400D01*
Y700876D01*
X896609Y700743D01*
X896472Y699703D01*
Y699703D01*
X896447Y699573D01*
X896175Y698559D01*
X896132Y698433D01*
X895731Y697465D01*
X895672Y697345D01*
X895148Y696437D01*
X895074Y696326D01*
X895074Y696326D01*
X894435Y695494D01*
X894348Y695394D01*
X893606Y694652D01*
X893506Y694565D01*
X892674Y693926D01*
X892563Y693852D01*
X891655Y693328D01*
X891535Y693269D01*
X890567Y692868D01*
X890441Y692825D01*
X890440Y692825D01*
X889428Y692553D01*
X889427Y692553D01*
X889297Y692527D01*
X888257Y692391D01*
X888257Y692391D01*
X888124Y692382D01*
X887600Y692382D01*
X887076Y692382D01*
X887076D01*
X887076D01*
X886943Y692391D01*
X885903Y692527D01*
X885772Y692553D01*
X884759Y692825D01*
X884633Y692868D01*
X883664Y693269D01*
X883545Y693328D01*
X883545Y693328D01*
X882637Y693852D01*
X882526Y693926D01*
X881694Y694565D01*
X881594Y694652D01*
X880852Y695394D01*
X880765Y695494D01*
X880126Y696326D01*
X880052Y696437D01*
X879528Y697345D01*
X879469Y697465D01*
X879068Y698433D01*
X879025Y698559D01*
X878753Y699572D01*
X878753Y699572D01*
X878727Y699703D01*
X878590Y700743D01*
X878582Y700876D01*
Y700876D01*
Y700876D01*
Y701400D01*
Y723400D01*
Y723924D01*
D01*
Y723924D01*
X878590Y724057D01*
X878727Y725097D01*
X878753Y725228D01*
X879025Y726241D01*
X879068Y726367D01*
X879469Y727336D01*
X879528Y727455D01*
X879528Y727455D01*
X880052Y728363D01*
X880126Y728474D01*
X880765Y729306D01*
X880852Y729406D01*
X881594Y730148D01*
X881694Y730235D01*
X882526Y730874D01*
X882637Y730948D01*
X883545Y731472D01*
X883664Y731531D01*
X884633Y731932D01*
X884759Y731975D01*
X885772Y732247D01*
X885772Y732247D01*
X885903Y732273D01*
X886943Y732410D01*
X887076Y732418D01*
X887076D01*
X887076D01*
X888124D01*
X888124D01*
D01*
X888257Y732410D01*
D02*
G37*
G36*
X862857D02*
X863897Y732273D01*
X864027Y732247D01*
X865041Y731975D01*
X865167Y731932D01*
X866135Y731531D01*
X866255Y731472D01*
X866255Y731472D01*
X867163Y730948D01*
X867274Y730874D01*
X868106Y730235D01*
X868206Y730148D01*
X868948Y729406D01*
X869035Y729306D01*
X869674Y728474D01*
X869748Y728363D01*
X870272Y727455D01*
X870331Y727336D01*
X870732Y726367D01*
X870775Y726241D01*
X871047Y725228D01*
X871047Y725228D01*
X871072Y725097D01*
X871209Y724057D01*
X871218Y723924D01*
Y723924D01*
Y723924D01*
Y723400D01*
X871218Y701400D01*
Y700876D01*
X871209Y700743D01*
X871072Y699703D01*
Y699703D01*
X871047Y699573D01*
X870775Y698559D01*
X870732Y698433D01*
X870331Y697465D01*
X870272Y697345D01*
X869748Y696437D01*
X869674Y696326D01*
X869674Y696326D01*
X869035Y695494D01*
X868948Y695394D01*
X868206Y694652D01*
X868106Y694565D01*
X867274Y693926D01*
X867163Y693852D01*
X866255Y693328D01*
X866135Y693269D01*
X865167Y692868D01*
X865041Y692825D01*
X865040Y692825D01*
X864028Y692553D01*
X864027Y692553D01*
X863897Y692527D01*
X862857Y692391D01*
X862857Y692391D01*
X862724Y692382D01*
X862200Y692382D01*
X861676Y692382D01*
X861676D01*
X861676D01*
X861543Y692391D01*
X860503Y692527D01*
X860372Y692553D01*
X859359Y692825D01*
X859233Y692868D01*
X858264Y693269D01*
X858145Y693328D01*
X858145Y693328D01*
X857237Y693852D01*
X857126Y693926D01*
X856294Y694565D01*
X856194Y694652D01*
X855452Y695394D01*
X855365Y695494D01*
X854726Y696326D01*
X854652Y696437D01*
X854128Y697345D01*
X854069Y697465D01*
X853668Y698433D01*
X853625Y698559D01*
X853353Y699572D01*
X853353Y699572D01*
X853327Y699703D01*
X853191Y700743D01*
X853182Y700876D01*
Y700876D01*
Y700876D01*
Y701400D01*
Y723400D01*
Y723924D01*
D01*
Y723924D01*
X853191Y724057D01*
X853327Y725097D01*
X853353Y725228D01*
X853625Y726241D01*
X853668Y726367D01*
X854069Y727336D01*
X854128Y727455D01*
X854128Y727455D01*
X854652Y728363D01*
X854726Y728474D01*
X855365Y729306D01*
X855452Y729406D01*
X856194Y730148D01*
X856294Y730235D01*
X857126Y730874D01*
X857237Y730948D01*
X858145Y731472D01*
X858264Y731531D01*
X859233Y731932D01*
X859359Y731975D01*
X860372Y732247D01*
X860372Y732247D01*
X860503Y732273D01*
X861543Y732410D01*
X861676Y732418D01*
X861676D01*
X861676D01*
X862724D01*
X862724D01*
D01*
X862857Y732410D01*
D02*
G37*
G36*
X837457D02*
X838497Y732273D01*
X838627Y732247D01*
X839641Y731975D01*
X839767Y731932D01*
X840735Y731531D01*
X840855Y731472D01*
X840855Y731472D01*
X841763Y730948D01*
X841874Y730874D01*
X842706Y730235D01*
X842806Y730148D01*
X843548Y729406D01*
X843635Y729306D01*
X844274Y728474D01*
X844348Y728363D01*
X844872Y727455D01*
X844931Y727336D01*
X845332Y726367D01*
X845375Y726241D01*
X845647Y725228D01*
X845647Y725228D01*
X845673Y725097D01*
X845809Y724057D01*
X845818Y723924D01*
Y723924D01*
Y723924D01*
Y723400D01*
X845818Y701400D01*
Y700876D01*
X845809Y700743D01*
X845673Y699703D01*
Y699703D01*
X845647Y699573D01*
X845375Y698559D01*
X845332Y698433D01*
X844931Y697465D01*
X844872Y697345D01*
X844348Y696437D01*
X844274Y696326D01*
X844274Y696326D01*
X843635Y695494D01*
X843548Y695394D01*
X842806Y694652D01*
X842706Y694565D01*
X841874Y693926D01*
X841763Y693852D01*
X840855Y693328D01*
X840735Y693269D01*
X839767Y692868D01*
X839641Y692825D01*
X839640Y692825D01*
X838628Y692553D01*
X838627Y692553D01*
X838497Y692527D01*
X837457Y692391D01*
X837457Y692391D01*
X837324Y692382D01*
X836800Y692382D01*
X836276Y692382D01*
X836276D01*
X836276D01*
X836143Y692391D01*
X835103Y692527D01*
X834972Y692553D01*
X833959Y692825D01*
X833833Y692868D01*
X832865Y693269D01*
X832745Y693328D01*
X832745Y693328D01*
X831837Y693852D01*
X831726Y693926D01*
X830894Y694565D01*
X830794Y694652D01*
X830052Y695394D01*
X829965Y695494D01*
X829326Y696326D01*
X829252Y696437D01*
X828728Y697345D01*
X828669Y697465D01*
X828268Y698433D01*
X828225Y698559D01*
X827953Y699572D01*
X827953Y699572D01*
X827927Y699703D01*
X827791Y700743D01*
X827782Y700876D01*
Y700876D01*
Y700876D01*
Y701400D01*
Y723400D01*
Y723924D01*
D01*
Y723924D01*
X827791Y724057D01*
X827927Y725097D01*
X827953Y725228D01*
X828225Y726241D01*
X828268Y726367D01*
X828669Y727336D01*
X828728Y727455D01*
X828728Y727455D01*
X829252Y728363D01*
X829326Y728474D01*
X829965Y729306D01*
X830052Y729406D01*
X830794Y730148D01*
X830894Y730235D01*
X831726Y730874D01*
X831837Y730948D01*
X832745Y731472D01*
X832864Y731531D01*
X833833Y731932D01*
X833959Y731975D01*
X834972Y732247D01*
X834972Y732247D01*
X835103Y732273D01*
X836143Y732410D01*
X836276Y732418D01*
X836276D01*
X836276D01*
X837324D01*
X837324D01*
D01*
X837457Y732410D01*
D02*
G37*
G36*
X812057D02*
X813097Y732273D01*
X813227Y732247D01*
X814240Y731975D01*
X814367Y731932D01*
X815335Y731531D01*
X815455Y731472D01*
X815455Y731472D01*
X816363Y730948D01*
X816474Y730874D01*
X817306Y730235D01*
X817406Y730148D01*
X818148Y729406D01*
X818235Y729306D01*
X818874Y728474D01*
X818948Y728363D01*
X819472Y727455D01*
X819531Y727336D01*
X819932Y726367D01*
X819975Y726241D01*
X820247Y725228D01*
X820247Y725228D01*
X820273Y725097D01*
X820409Y724057D01*
X820418Y723924D01*
Y723924D01*
Y723924D01*
Y723400D01*
X820418Y701400D01*
Y700876D01*
X820409Y700743D01*
X820273Y699703D01*
Y699703D01*
X820247Y699573D01*
X819975Y698559D01*
X819932Y698433D01*
X819531Y697465D01*
X819472Y697345D01*
X818948Y696437D01*
X818874Y696326D01*
X818874Y696326D01*
X818235Y695494D01*
X818148Y695394D01*
X817406Y694652D01*
X817306Y694565D01*
X816474Y693926D01*
X816363Y693852D01*
X815455Y693328D01*
X815335Y693269D01*
X814367Y692868D01*
X814240Y692825D01*
X814240Y692825D01*
X813228Y692553D01*
X813227Y692553D01*
X813097Y692527D01*
X812057Y692391D01*
X812057Y692391D01*
X811924Y692382D01*
X811400Y692382D01*
X810876Y692382D01*
X810876D01*
X810876D01*
X810743Y692391D01*
X809703Y692527D01*
X809572Y692553D01*
X808559Y692825D01*
X808433Y692868D01*
X807465Y693269D01*
X807345Y693328D01*
X807345Y693328D01*
X806437Y693852D01*
X806326Y693926D01*
X805494Y694565D01*
X805394Y694652D01*
X804652Y695394D01*
X804565Y695494D01*
X803926Y696326D01*
X803852Y696437D01*
X803328Y697345D01*
X803269Y697465D01*
X802868Y698433D01*
X802825Y698559D01*
X802553Y699572D01*
X802553Y699572D01*
X802527Y699703D01*
X802391Y700743D01*
X802382Y700876D01*
Y700876D01*
Y700876D01*
Y701400D01*
Y723400D01*
Y723924D01*
D01*
Y723924D01*
X802391Y724057D01*
X802527Y725097D01*
X802553Y725228D01*
X802825Y726241D01*
X802868Y726367D01*
X803269Y727336D01*
X803328Y727455D01*
X803328Y727455D01*
X803852Y728363D01*
X803926Y728474D01*
X804565Y729306D01*
X804652Y729406D01*
X805394Y730148D01*
X805494Y730235D01*
X806326Y730874D01*
X806437Y730948D01*
X807345Y731472D01*
X807464Y731531D01*
X808433Y731932D01*
X808559Y731975D01*
X809572Y732247D01*
X809572Y732247D01*
X809703Y732273D01*
X810743Y732410D01*
X810876Y732418D01*
X810876D01*
X810876D01*
X811924D01*
X811924D01*
D01*
X812057Y732410D01*
D02*
G37*
G36*
X761257D02*
X762297Y732273D01*
X762428Y732247D01*
X763440Y731975D01*
X763567Y731932D01*
X764536Y731531D01*
X764655Y731472D01*
X764655Y731472D01*
X765563Y730948D01*
X765674Y730874D01*
X766506Y730235D01*
X766606Y730148D01*
X767347Y729406D01*
X767435Y729306D01*
X768074Y728474D01*
X768148Y728363D01*
X768672Y727455D01*
X768731Y727336D01*
X769132Y726367D01*
X769175Y726241D01*
X769446Y725228D01*
X769446Y725228D01*
X769473Y725097D01*
X769609Y724057D01*
X769618Y723924D01*
Y723924D01*
Y723924D01*
Y723400D01*
X769618Y701400D01*
Y700876D01*
X769609Y700743D01*
X769473Y699703D01*
Y699703D01*
X769446Y699573D01*
X769175Y698559D01*
X769132Y698433D01*
X768731Y697465D01*
X768672Y697345D01*
X768148Y696437D01*
X768074Y696326D01*
X768074Y696326D01*
X767435Y695494D01*
X767347Y695394D01*
X766606Y694652D01*
X766506Y694565D01*
X765674Y693926D01*
X765563Y693852D01*
X764655Y693328D01*
X764536Y693269D01*
X763567Y692868D01*
X763440Y692825D01*
X763440Y692825D01*
X762428Y692553D01*
X762428Y692553D01*
X762297Y692527D01*
X761257Y692391D01*
X761257Y692391D01*
X761124Y692382D01*
X760600Y692382D01*
X760076Y692382D01*
X760076D01*
X760076D01*
X759943Y692391D01*
X758903Y692527D01*
X758772Y692553D01*
X757759Y692825D01*
X757633Y692868D01*
X756665Y693269D01*
X756545Y693328D01*
X756545Y693328D01*
X755637Y693852D01*
X755526Y693926D01*
X754694Y694565D01*
X754594Y694652D01*
X753852Y695394D01*
X753765Y695494D01*
X753126Y696326D01*
X753052Y696437D01*
X752528Y697345D01*
X752469Y697465D01*
X752068Y698433D01*
X752025Y698559D01*
X751753Y699572D01*
X751753Y699572D01*
X751727Y699703D01*
X751590Y700743D01*
X751582Y700876D01*
Y700876D01*
Y700876D01*
Y701400D01*
Y723400D01*
Y723924D01*
D01*
Y723924D01*
X751590Y724057D01*
X751727Y725097D01*
X751753Y725228D01*
X752025Y726241D01*
X752068Y726367D01*
X752469Y727336D01*
X752528Y727455D01*
X752528Y727455D01*
X753052Y728363D01*
X753126Y728474D01*
X753765Y729306D01*
X753852Y729406D01*
X754594Y730148D01*
X754694Y730235D01*
X755526Y730874D01*
X755637Y730948D01*
X756545Y731472D01*
X756664Y731531D01*
X757633Y731932D01*
X757759Y731975D01*
X758772Y732247D01*
X758772Y732247D01*
X758903Y732273D01*
X759943Y732410D01*
X760076Y732418D01*
X760076D01*
X760076D01*
X761124D01*
X761124D01*
D01*
X761257Y732410D01*
D02*
G37*
G36*
X735857D02*
X736897Y732273D01*
X737028Y732247D01*
X738040Y731975D01*
X738167Y731932D01*
X739136Y731531D01*
X739255Y731472D01*
X739255Y731472D01*
X740163Y730948D01*
X740274Y730874D01*
X741106Y730235D01*
X741206Y730148D01*
X741947Y729406D01*
X742035Y729306D01*
X742674Y728474D01*
X742748Y728363D01*
X743272Y727455D01*
X743331Y727336D01*
X743732Y726367D01*
X743775Y726241D01*
X744046Y725228D01*
X744046Y725228D01*
X744072Y725097D01*
X744209Y724057D01*
X744218Y723924D01*
Y723924D01*
Y723924D01*
Y723400D01*
X744218Y701400D01*
Y700876D01*
X744209Y700743D01*
X744072Y699703D01*
Y699703D01*
X744046Y699573D01*
X743775Y698559D01*
X743732Y698433D01*
X743331Y697465D01*
X743272Y697345D01*
X742748Y696437D01*
X742674Y696326D01*
X742674Y696326D01*
X742035Y695494D01*
X741947Y695394D01*
X741206Y694652D01*
X741106Y694565D01*
X740274Y693926D01*
X740163Y693852D01*
X739255Y693328D01*
X739136Y693269D01*
X738167Y692868D01*
X738040Y692825D01*
X738040Y692825D01*
X737028Y692553D01*
X737028Y692553D01*
X736897Y692527D01*
X735857Y692391D01*
X735857Y692391D01*
X735724Y692382D01*
X735200Y692382D01*
X734676Y692382D01*
X734676D01*
X734676D01*
X734543Y692391D01*
X733503Y692527D01*
X733372Y692553D01*
X732359Y692825D01*
X732233Y692868D01*
X731264Y693269D01*
X731145Y693328D01*
X731145Y693328D01*
X730237Y693852D01*
X730126Y693926D01*
X729294Y694565D01*
X729194Y694652D01*
X728452Y695394D01*
X728365Y695494D01*
X727726Y696326D01*
X727652Y696437D01*
X727128Y697345D01*
X727069Y697465D01*
X726668Y698433D01*
X726625Y698559D01*
X726353Y699572D01*
X726353Y699572D01*
X726327Y699703D01*
X726190Y700743D01*
X726182Y700876D01*
Y700876D01*
Y700876D01*
Y701400D01*
Y723400D01*
Y723924D01*
D01*
Y723924D01*
X726190Y724057D01*
X726327Y725097D01*
X726353Y725228D01*
X726625Y726241D01*
X726668Y726367D01*
X727069Y727336D01*
X727128Y727455D01*
X727128Y727455D01*
X727652Y728363D01*
X727726Y728474D01*
X728365Y729306D01*
X728452Y729406D01*
X729194Y730148D01*
X729294Y730235D01*
X730126Y730874D01*
X730237Y730948D01*
X731145Y731472D01*
X731264Y731531D01*
X732233Y731932D01*
X732359Y731975D01*
X733372Y732247D01*
X733372Y732247D01*
X733503Y732273D01*
X734543Y732410D01*
X734676Y732418D01*
X734676D01*
X734676D01*
X735724D01*
X735724D01*
D01*
X735857Y732410D01*
D02*
G37*
G36*
X710457D02*
X711497Y732273D01*
X711628Y732247D01*
X712641Y731975D01*
X712767Y731932D01*
X713736Y731531D01*
X713855Y731472D01*
X713855Y731472D01*
X714763Y730948D01*
X714874Y730874D01*
X715706Y730235D01*
X715806Y730148D01*
X716547Y729406D01*
X716635Y729306D01*
X717274Y728474D01*
X717348Y728363D01*
X717872Y727455D01*
X717931Y727336D01*
X718332Y726367D01*
X718375Y726241D01*
X718646Y725228D01*
X718646Y725228D01*
X718672Y725097D01*
X718809Y724057D01*
X718818Y723924D01*
Y723924D01*
Y723924D01*
Y723400D01*
X718818Y701400D01*
Y700876D01*
X718809Y700743D01*
X718672Y699703D01*
Y699703D01*
X718646Y699573D01*
X718375Y698559D01*
X718332Y698433D01*
X717931Y697465D01*
X717872Y697345D01*
X717348Y696437D01*
X717274Y696326D01*
X717274Y696326D01*
X716635Y695494D01*
X716547Y695394D01*
X715806Y694652D01*
X715706Y694565D01*
X714874Y693926D01*
X714763Y693852D01*
X713855Y693328D01*
X713736Y693269D01*
X712767Y692868D01*
X712641Y692825D01*
X712640Y692825D01*
X711628Y692553D01*
X711628Y692553D01*
X711497Y692527D01*
X710457Y692391D01*
X710457Y692391D01*
X710324Y692382D01*
X709800Y692382D01*
X709276Y692382D01*
X709276D01*
X709276D01*
X709143Y692391D01*
X708103Y692527D01*
X707972Y692553D01*
X706959Y692825D01*
X706833Y692868D01*
X705864Y693269D01*
X705745Y693328D01*
X705745Y693328D01*
X704837Y693852D01*
X704726Y693926D01*
X703894Y694565D01*
X703794Y694652D01*
X703052Y695394D01*
X702965Y695494D01*
X702326Y696326D01*
X702252Y696437D01*
X701728Y697345D01*
X701669Y697465D01*
X701268Y698433D01*
X701225Y698559D01*
X700953Y699572D01*
X700953Y699572D01*
X700927Y699703D01*
X700790Y700743D01*
X700782Y700876D01*
Y700876D01*
Y700876D01*
Y701400D01*
Y723400D01*
Y723924D01*
D01*
Y723924D01*
X700790Y724057D01*
X700927Y725097D01*
X700953Y725228D01*
X701225Y726241D01*
X701268Y726367D01*
X701669Y727336D01*
X701728Y727455D01*
X701728Y727455D01*
X702252Y728363D01*
X702326Y728474D01*
X702965Y729306D01*
X703052Y729406D01*
X703794Y730148D01*
X703894Y730235D01*
X704726Y730874D01*
X704837Y730948D01*
X705745Y731472D01*
X705864Y731531D01*
X706833Y731932D01*
X706959Y731975D01*
X707972Y732247D01*
X707972Y732247D01*
X708103Y732273D01*
X709143Y732410D01*
X709276Y732418D01*
X709276D01*
X709276D01*
X710324D01*
X710324D01*
D01*
X710457Y732410D01*
D02*
G37*
G36*
X685057D02*
X686097Y732273D01*
X686227Y732247D01*
X687241Y731975D01*
X687367Y731932D01*
X688335Y731531D01*
X688455Y731472D01*
X688455Y731472D01*
X689363Y730948D01*
X689474Y730874D01*
X690306Y730235D01*
X690406Y730148D01*
X691148Y729406D01*
X691235Y729306D01*
X691874Y728474D01*
X691948Y728363D01*
X692472Y727455D01*
X692531Y727336D01*
X692932Y726367D01*
X692975Y726241D01*
X693247Y725228D01*
X693247Y725228D01*
X693272Y725097D01*
X693409Y724057D01*
X693418Y723924D01*
Y723924D01*
Y723924D01*
Y723400D01*
X693418Y701400D01*
Y700876D01*
X693409Y700743D01*
X693272Y699703D01*
Y699703D01*
X693247Y699573D01*
X692975Y698559D01*
X692932Y698433D01*
X692531Y697465D01*
X692472Y697345D01*
X691948Y696437D01*
X691874Y696326D01*
X691874Y696326D01*
X691235Y695494D01*
X691148Y695394D01*
X690406Y694652D01*
X690306Y694565D01*
X689474Y693926D01*
X689363Y693852D01*
X688455Y693328D01*
X688335Y693269D01*
X687367Y692868D01*
X687241Y692825D01*
X687240Y692825D01*
X686228Y692553D01*
X686227Y692553D01*
X686097Y692527D01*
X685057Y692391D01*
X685057Y692391D01*
X684924Y692382D01*
X684400Y692382D01*
X683876Y692382D01*
X683876D01*
X683876D01*
X683743Y692391D01*
X682703Y692527D01*
X682572Y692553D01*
X681559Y692825D01*
X681433Y692868D01*
X680464Y693269D01*
X680345Y693328D01*
X680345Y693328D01*
X679437Y693852D01*
X679326Y693926D01*
X678494Y694565D01*
X678394Y694652D01*
X677652Y695394D01*
X677565Y695494D01*
X676926Y696326D01*
X676852Y696437D01*
X676328Y697345D01*
X676269Y697465D01*
X675868Y698433D01*
X675825Y698559D01*
X675553Y699572D01*
X675553Y699572D01*
X675527Y699703D01*
X675390Y700743D01*
X675382Y700876D01*
Y700876D01*
Y700876D01*
Y701400D01*
Y723400D01*
Y723924D01*
D01*
Y723924D01*
X675390Y724057D01*
X675527Y725097D01*
X675553Y725228D01*
X675825Y726241D01*
X675868Y726367D01*
X676269Y727336D01*
X676328Y727455D01*
X676328Y727455D01*
X676852Y728363D01*
X676926Y728474D01*
X677565Y729306D01*
X677652Y729406D01*
X678394Y730148D01*
X678494Y730235D01*
X679326Y730874D01*
X679437Y730948D01*
X680345Y731472D01*
X680464Y731531D01*
X681433Y731932D01*
X681559Y731975D01*
X682572Y732247D01*
X682572Y732247D01*
X682703Y732273D01*
X683743Y732410D01*
X683876Y732418D01*
X683876D01*
X683876D01*
X684924D01*
X684924D01*
D01*
X685057Y732410D01*
D02*
G37*
G36*
X634257D02*
X635297Y732273D01*
X635428Y732247D01*
X636441Y731975D01*
X636567Y731932D01*
X637536Y731531D01*
X637655Y731472D01*
X637655Y731472D01*
X638563Y730948D01*
X638674Y730874D01*
X639506Y730235D01*
X639606Y730148D01*
X640348Y729406D01*
X640435Y729306D01*
X641074Y728474D01*
X641148Y728363D01*
X641672Y727455D01*
X641731Y727336D01*
X642132Y726367D01*
X642175Y726241D01*
X642447Y725228D01*
X642447Y725228D01*
X642473Y725097D01*
X642609Y724057D01*
X642618Y723924D01*
Y723924D01*
Y723924D01*
Y723400D01*
X642618Y701400D01*
Y700876D01*
X642609Y700743D01*
X642473Y699703D01*
Y699703D01*
X642447Y699573D01*
X642175Y698559D01*
X642132Y698433D01*
X641731Y697465D01*
X641672Y697345D01*
X641148Y696437D01*
X641074Y696326D01*
X641074Y696326D01*
X640435Y695494D01*
X640348Y695394D01*
X639606Y694652D01*
X639506Y694565D01*
X638674Y693926D01*
X638563Y693852D01*
X637655Y693328D01*
X637536Y693269D01*
X636567Y692868D01*
X636441Y692825D01*
X636440Y692825D01*
X635428Y692553D01*
X635428Y692553D01*
X635297Y692527D01*
X634257Y692391D01*
X634257Y692391D01*
X634124Y692382D01*
X633600Y692382D01*
X633076Y692382D01*
X633076D01*
X633076D01*
X632943Y692391D01*
X631903Y692527D01*
X631772Y692553D01*
X630759Y692825D01*
X630633Y692868D01*
X629664Y693269D01*
X629545Y693328D01*
X629545Y693328D01*
X628637Y693852D01*
X628526Y693926D01*
X627694Y694565D01*
X627594Y694652D01*
X626852Y695394D01*
X626765Y695494D01*
X626126Y696326D01*
X626052Y696437D01*
X625528Y697345D01*
X625469Y697465D01*
X625068Y698433D01*
X625025Y698559D01*
X624753Y699572D01*
X624753Y699572D01*
X624727Y699703D01*
X624590Y700743D01*
X624582Y700876D01*
Y700876D01*
Y700876D01*
Y701400D01*
Y723400D01*
Y723924D01*
D01*
Y723924D01*
X624590Y724057D01*
X624727Y725097D01*
X624753Y725228D01*
X625025Y726241D01*
X625068Y726367D01*
X625469Y727336D01*
X625528Y727455D01*
X625528Y727455D01*
X626052Y728363D01*
X626126Y728474D01*
X626765Y729306D01*
X626852Y729406D01*
X627594Y730148D01*
X627694Y730235D01*
X628526Y730874D01*
X628637Y730948D01*
X629545Y731472D01*
X629664Y731531D01*
X630633Y731932D01*
X630759Y731975D01*
X631772Y732247D01*
X631772Y732247D01*
X631903Y732273D01*
X632943Y732410D01*
X633076Y732418D01*
X633076D01*
X633076D01*
X634124D01*
X634124D01*
D01*
X634257Y732410D01*
D02*
G37*
G36*
X608857D02*
X609897Y732273D01*
X610028Y732247D01*
X611040Y731975D01*
X611167Y731932D01*
X612136Y731531D01*
X612255Y731472D01*
X612255Y731472D01*
X613163Y730948D01*
X613274Y730874D01*
X614106Y730235D01*
X614206Y730148D01*
X614948Y729406D01*
X615035Y729306D01*
X615674Y728474D01*
X615748Y728363D01*
X616272Y727455D01*
X616331Y727336D01*
X616732Y726367D01*
X616775Y726241D01*
X617047Y725228D01*
X617047Y725228D01*
X617072Y725097D01*
X617209Y724057D01*
X617218Y723924D01*
Y723924D01*
Y723924D01*
Y723400D01*
X617218Y701400D01*
Y700876D01*
X617209Y700743D01*
X617072Y699703D01*
Y699703D01*
X617047Y699573D01*
X616775Y698559D01*
X616732Y698433D01*
X616331Y697465D01*
X616272Y697345D01*
X615748Y696437D01*
X615674Y696326D01*
X615674Y696326D01*
X615035Y695494D01*
X614948Y695394D01*
X614206Y694652D01*
X614106Y694565D01*
X613274Y693926D01*
X613163Y693852D01*
X612255Y693328D01*
X612136Y693269D01*
X611167Y692868D01*
X611040Y692825D01*
X611040Y692825D01*
X610028Y692553D01*
X610028Y692553D01*
X609897Y692527D01*
X608857Y692391D01*
X608857Y692391D01*
X608724Y692382D01*
X608200Y692382D01*
X607676Y692382D01*
X607676D01*
X607676D01*
X607543Y692391D01*
X606503Y692527D01*
X606372Y692553D01*
X605359Y692825D01*
X605233Y692868D01*
X604264Y693269D01*
X604145Y693328D01*
X604145Y693328D01*
X603237Y693852D01*
X603126Y693926D01*
X602294Y694565D01*
X602194Y694652D01*
X601452Y695394D01*
X601365Y695494D01*
X600726Y696326D01*
X600652Y696437D01*
X600128Y697345D01*
X600069Y697465D01*
X599668Y698433D01*
X599625Y698559D01*
X599353Y699572D01*
X599353Y699572D01*
X599327Y699703D01*
X599190Y700743D01*
X599182Y700876D01*
Y700876D01*
Y700876D01*
Y701400D01*
Y723400D01*
Y723924D01*
D01*
Y723924D01*
X599190Y724057D01*
X599327Y725097D01*
X599353Y725228D01*
X599625Y726241D01*
X599668Y726367D01*
X600069Y727336D01*
X600128Y727455D01*
X600128Y727455D01*
X600652Y728363D01*
X600726Y728474D01*
X601365Y729306D01*
X601452Y729406D01*
X602194Y730148D01*
X602294Y730235D01*
X603126Y730874D01*
X603237Y730948D01*
X604145Y731472D01*
X604264Y731531D01*
X605233Y731932D01*
X605359Y731975D01*
X606372Y732247D01*
X606372Y732247D01*
X606503Y732273D01*
X607543Y732410D01*
X607676Y732418D01*
X607676D01*
X607676D01*
X608724D01*
X608724D01*
D01*
X608857Y732410D01*
D02*
G37*
G36*
X583457D02*
X584497Y732273D01*
X584627Y732247D01*
X585640Y731975D01*
X585767Y731932D01*
X586735Y731531D01*
X586855Y731472D01*
X586855Y731472D01*
X587763Y730948D01*
X587874Y730874D01*
X588706Y730235D01*
X588806Y730148D01*
X589548Y729406D01*
X589635Y729306D01*
X590274Y728474D01*
X590348Y728363D01*
X590872Y727455D01*
X590931Y727336D01*
X591332Y726367D01*
X591375Y726241D01*
X591646Y725228D01*
X591646Y725228D01*
X591673Y725097D01*
X591809Y724057D01*
X591818Y723924D01*
Y723924D01*
Y723924D01*
Y723400D01*
X591818Y701400D01*
Y700876D01*
X591809Y700743D01*
X591673Y699703D01*
Y699703D01*
X591646Y699573D01*
X591375Y698559D01*
X591332Y698433D01*
X590931Y697465D01*
X590872Y697345D01*
X590348Y696437D01*
X590274Y696326D01*
X590274Y696326D01*
X589635Y695494D01*
X589548Y695394D01*
X588806Y694652D01*
X588706Y694565D01*
X587874Y693926D01*
X587763Y693852D01*
X586855Y693328D01*
X586735Y693269D01*
X585767Y692868D01*
X585640Y692825D01*
X585640Y692825D01*
X584628Y692553D01*
X584627Y692553D01*
X584497Y692527D01*
X583457Y692391D01*
X583457Y692391D01*
X583324Y692382D01*
X582800Y692382D01*
X582276Y692382D01*
X582276D01*
X582276D01*
X582143Y692391D01*
X581103Y692527D01*
X580972Y692553D01*
X579959Y692825D01*
X579833Y692868D01*
X578865Y693269D01*
X578745Y693328D01*
X578745Y693328D01*
X577837Y693852D01*
X577726Y693926D01*
X576894Y694565D01*
X576794Y694652D01*
X576052Y695394D01*
X575965Y695494D01*
X575326Y696326D01*
X575252Y696437D01*
X574728Y697345D01*
X574669Y697465D01*
X574268Y698433D01*
X574225Y698559D01*
X573953Y699572D01*
X573953Y699572D01*
X573927Y699703D01*
X573791Y700743D01*
X573782Y700876D01*
Y700876D01*
Y700876D01*
Y701400D01*
Y723400D01*
Y723924D01*
D01*
Y723924D01*
X573791Y724057D01*
X573927Y725097D01*
X573953Y725228D01*
X574225Y726241D01*
X574268Y726367D01*
X574669Y727336D01*
X574728Y727455D01*
X574728Y727455D01*
X575252Y728363D01*
X575326Y728474D01*
X575965Y729306D01*
X576052Y729406D01*
X576794Y730148D01*
X576894Y730235D01*
X577726Y730874D01*
X577837Y730948D01*
X578745Y731472D01*
X578864Y731531D01*
X579833Y731932D01*
X579959Y731975D01*
X580972Y732247D01*
X580972Y732247D01*
X581103Y732273D01*
X582143Y732410D01*
X582276Y732418D01*
X582276D01*
X582276D01*
X583324D01*
X583324D01*
D01*
X583457Y732410D01*
D02*
G37*
G36*
X558057D02*
X559097Y732273D01*
X559227Y732247D01*
X560241Y731975D01*
X560367Y731932D01*
X561335Y731531D01*
X561455Y731472D01*
X561455Y731472D01*
X562363Y730948D01*
X562474Y730874D01*
X563306Y730235D01*
X563406Y730148D01*
X564147Y729406D01*
X564235Y729306D01*
X564874Y728474D01*
X564948Y728363D01*
X565472Y727455D01*
X565531Y727336D01*
X565932Y726367D01*
X565975Y726241D01*
X566246Y725228D01*
X566246Y725228D01*
X566273Y725097D01*
X566409Y724057D01*
X566418Y723924D01*
Y723924D01*
Y723924D01*
Y723400D01*
X566418Y701400D01*
Y700876D01*
X566409Y700743D01*
X566273Y699703D01*
Y699703D01*
X566246Y699573D01*
X565975Y698559D01*
X565932Y698433D01*
X565531Y697465D01*
X565472Y697345D01*
X564948Y696437D01*
X564874Y696326D01*
X564874Y696326D01*
X564235Y695494D01*
X564147Y695394D01*
X563406Y694652D01*
X563306Y694565D01*
X562474Y693926D01*
X562363Y693852D01*
X561455Y693328D01*
X561335Y693269D01*
X560367Y692868D01*
X560241Y692825D01*
X560240Y692825D01*
X559228Y692553D01*
X559227Y692553D01*
X559097Y692527D01*
X558057Y692391D01*
X558057Y692391D01*
X557924Y692382D01*
X557400Y692382D01*
X556876Y692382D01*
X556876D01*
X556876D01*
X556743Y692391D01*
X555703Y692527D01*
X555572Y692553D01*
X554559Y692825D01*
X554433Y692868D01*
X553465Y693269D01*
X553345Y693328D01*
X553345Y693328D01*
X552437Y693852D01*
X552326Y693926D01*
X551494Y694565D01*
X551394Y694652D01*
X550652Y695394D01*
X550565Y695494D01*
X549926Y696326D01*
X549852Y696437D01*
X549328Y697345D01*
X549269Y697465D01*
X548868Y698433D01*
X548825Y698559D01*
X548553Y699572D01*
X548553Y699572D01*
X548527Y699703D01*
X548391Y700743D01*
X548382Y700876D01*
Y700876D01*
Y700876D01*
Y701400D01*
Y723400D01*
Y723924D01*
D01*
Y723924D01*
X548391Y724057D01*
X548527Y725097D01*
X548553Y725228D01*
X548825Y726241D01*
X548868Y726367D01*
X549269Y727336D01*
X549328Y727455D01*
X549328Y727455D01*
X549852Y728363D01*
X549926Y728474D01*
X550565Y729306D01*
X550652Y729406D01*
X551394Y730148D01*
X551494Y730235D01*
X552326Y730874D01*
X552437Y730948D01*
X553345Y731472D01*
X553464Y731531D01*
X554433Y731932D01*
X554559Y731975D01*
X555572Y732247D01*
X555572Y732247D01*
X555703Y732273D01*
X556743Y732410D01*
X556876Y732418D01*
X556876D01*
X556876D01*
X557924D01*
X557924D01*
D01*
X558057Y732410D01*
D02*
G37*
G36*
X507257D02*
X508297Y732273D01*
X508428Y732247D01*
X509440Y731975D01*
X509567Y731932D01*
X510536Y731531D01*
X510655Y731472D01*
X510655Y731472D01*
X511563Y730948D01*
X511674Y730874D01*
X512506Y730235D01*
X512606Y730148D01*
X513348Y729406D01*
X513435Y729306D01*
X514074Y728474D01*
X514148Y728363D01*
X514672Y727455D01*
X514731Y727336D01*
X515132Y726367D01*
X515175Y726241D01*
X515447Y725228D01*
X515447Y725228D01*
X515472Y725097D01*
X515609Y724057D01*
X515618Y723924D01*
Y723924D01*
Y723924D01*
Y723400D01*
X515618Y701400D01*
Y700876D01*
X515609Y700743D01*
X515472Y699703D01*
Y699703D01*
X515447Y699573D01*
X515175Y698559D01*
X515132Y698433D01*
X514731Y697465D01*
X514672Y697345D01*
X514148Y696437D01*
X514074Y696326D01*
X514074Y696326D01*
X513435Y695494D01*
X513348Y695394D01*
X512606Y694652D01*
X512506Y694565D01*
X511674Y693926D01*
X511563Y693852D01*
X510655Y693328D01*
X510536Y693269D01*
X509567Y692868D01*
X509440Y692825D01*
X509440Y692825D01*
X508428Y692553D01*
X508428Y692553D01*
X508297Y692527D01*
X507257Y692391D01*
X507257Y692391D01*
X507124Y692382D01*
X506600Y692382D01*
X506076Y692382D01*
X506076D01*
X506076D01*
X505943Y692391D01*
X504903Y692527D01*
X504772Y692553D01*
X503759Y692825D01*
X503633Y692868D01*
X502664Y693269D01*
X502545Y693328D01*
X502545Y693328D01*
X501637Y693852D01*
X501526Y693926D01*
X500694Y694565D01*
X500594Y694652D01*
X499852Y695394D01*
X499765Y695494D01*
X499126Y696326D01*
X499052Y696437D01*
X498528Y697345D01*
X498469Y697465D01*
X498068Y698433D01*
X498025Y698559D01*
X497753Y699572D01*
X497753Y699572D01*
X497727Y699703D01*
X497590Y700743D01*
X497582Y700876D01*
Y700876D01*
Y700876D01*
Y701400D01*
Y723400D01*
Y723924D01*
D01*
Y723924D01*
X497590Y724057D01*
X497727Y725097D01*
X497753Y725228D01*
X498025Y726241D01*
X498068Y726367D01*
X498469Y727336D01*
X498528Y727455D01*
X498528Y727455D01*
X499052Y728363D01*
X499126Y728474D01*
X499765Y729306D01*
X499852Y729406D01*
X500594Y730148D01*
X500694Y730235D01*
X501526Y730874D01*
X501637Y730948D01*
X502545Y731472D01*
X502664Y731531D01*
X503633Y731932D01*
X503759Y731975D01*
X504772Y732247D01*
X504772Y732247D01*
X504903Y732273D01*
X505943Y732410D01*
X506076Y732418D01*
X506076D01*
X506076D01*
X507124D01*
X507124D01*
D01*
X507257Y732410D01*
D02*
G37*
G36*
X481857D02*
X482897Y732273D01*
X483027Y732247D01*
X484040Y731975D01*
X484167Y731932D01*
X485135Y731531D01*
X485255Y731472D01*
X485255Y731472D01*
X486163Y730948D01*
X486274Y730874D01*
X487106Y730235D01*
X487206Y730148D01*
X487948Y729406D01*
X488035Y729306D01*
X488674Y728474D01*
X488748Y728363D01*
X489272Y727455D01*
X489331Y727336D01*
X489732Y726367D01*
X489775Y726241D01*
X490047Y725228D01*
X490047Y725228D01*
X490073Y725097D01*
X490209Y724057D01*
X490218Y723924D01*
Y723924D01*
Y723924D01*
Y723400D01*
X490218Y701400D01*
Y700876D01*
X490209Y700743D01*
X490073Y699703D01*
Y699703D01*
X490047Y699573D01*
X489775Y698559D01*
X489732Y698433D01*
X489331Y697465D01*
X489272Y697345D01*
X488748Y696437D01*
X488674Y696326D01*
X488674Y696326D01*
X488035Y695494D01*
X487948Y695394D01*
X487206Y694652D01*
X487106Y694565D01*
X486274Y693926D01*
X486163Y693852D01*
X485255Y693328D01*
X485135Y693269D01*
X484167Y692868D01*
X484040Y692825D01*
X484040Y692825D01*
X483028Y692553D01*
X483027Y692553D01*
X482897Y692527D01*
X481857Y692391D01*
X481857Y692391D01*
X481724Y692382D01*
X481200Y692382D01*
X480676Y692382D01*
X480676D01*
X480676D01*
X480543Y692391D01*
X479503Y692527D01*
X479372Y692553D01*
X478359Y692825D01*
X478233Y692868D01*
X477265Y693269D01*
X477145Y693328D01*
X477145Y693328D01*
X476237Y693852D01*
X476126Y693926D01*
X475294Y694565D01*
X475194Y694652D01*
X474452Y695394D01*
X474365Y695494D01*
X473726Y696326D01*
X473652Y696437D01*
X473128Y697345D01*
X473069Y697465D01*
X472668Y698433D01*
X472625Y698559D01*
X472353Y699572D01*
X472353Y699572D01*
X472327Y699703D01*
X472191Y700743D01*
X472182Y700876D01*
Y700876D01*
Y700876D01*
Y701400D01*
Y723400D01*
Y723924D01*
D01*
Y723924D01*
X472191Y724057D01*
X472327Y725097D01*
X472353Y725228D01*
X472625Y726241D01*
X472668Y726367D01*
X473069Y727336D01*
X473128Y727455D01*
X473128Y727455D01*
X473652Y728363D01*
X473726Y728474D01*
X474365Y729306D01*
X474452Y729406D01*
X475194Y730148D01*
X475294Y730235D01*
X476126Y730874D01*
X476237Y730948D01*
X477145Y731472D01*
X477264Y731531D01*
X478233Y731932D01*
X478359Y731975D01*
X479372Y732247D01*
X479372Y732247D01*
X479503Y732273D01*
X480543Y732410D01*
X480676Y732418D01*
X480676D01*
X480676D01*
X481724D01*
X481724D01*
D01*
X481857Y732410D01*
D02*
G37*
G36*
X921133Y732410D02*
X921264Y732383D01*
X921390Y732341D01*
X921509Y732282D01*
X921620Y732208D01*
X921720Y732120D01*
X921808Y732020D01*
X921882Y731909D01*
X921941Y731790D01*
X921983Y731664D01*
X922009Y731533D01*
X922018Y731400D01*
Y693400D01*
X922009Y693267D01*
X921983Y693137D01*
X921941Y693010D01*
X921882Y692891D01*
X921808Y692780D01*
X921720Y692680D01*
X921620Y692592D01*
X921509Y692518D01*
X921390Y692459D01*
X921264Y692417D01*
X921133Y692391D01*
X921000Y692382D01*
X905000D01*
X904867Y692391D01*
X904736Y692417D01*
X904610Y692459D01*
X904491Y692518D01*
X904380Y692592D01*
X904280Y692680D01*
X904192Y692780D01*
X904118Y692891D01*
X904059Y693010D01*
X904016Y693137D01*
X903990Y693267D01*
X903982Y693400D01*
Y731400D01*
X903990Y731533D01*
X904016Y731664D01*
X904059Y731790D01*
X904118Y731909D01*
X904192Y732020D01*
X904280Y732120D01*
X904380Y732208D01*
X904491Y732282D01*
X904610Y732341D01*
X904736Y732383D01*
X904867Y732410D01*
X905000Y732418D01*
X921000D01*
X921133Y732410D01*
D02*
G37*
G36*
X794133D02*
X794264Y732383D01*
X794390Y732341D01*
X794509Y732282D01*
X794620Y732208D01*
X794720Y732120D01*
X794808Y732020D01*
X794882Y731909D01*
X794941Y731790D01*
X794983Y731664D01*
X795009Y731533D01*
X795018Y731400D01*
Y693400D01*
X795009Y693267D01*
X794983Y693137D01*
X794941Y693010D01*
X794882Y692891D01*
X794808Y692780D01*
X794720Y692680D01*
X794620Y692592D01*
X794509Y692518D01*
X794390Y692459D01*
X794264Y692417D01*
X794133Y692391D01*
X794000Y692382D01*
X778000D01*
X777867Y692391D01*
X777736Y692417D01*
X777610Y692459D01*
X777491Y692518D01*
X777380Y692592D01*
X777280Y692680D01*
X777192Y692780D01*
X777118Y692891D01*
X777059Y693010D01*
X777017Y693137D01*
X776991Y693267D01*
X776982Y693400D01*
Y731400D01*
X776991Y731533D01*
X777017Y731664D01*
X777059Y731790D01*
X777118Y731909D01*
X777192Y732020D01*
X777280Y732120D01*
X777380Y732208D01*
X777491Y732282D01*
X777610Y732341D01*
X777736Y732383D01*
X777867Y732410D01*
X778000Y732418D01*
X794000D01*
X794133Y732410D01*
D02*
G37*
G36*
X667133D02*
X667263Y732383D01*
X667390Y732341D01*
X667509Y732282D01*
X667620Y732208D01*
X667720Y732120D01*
X667808Y732020D01*
X667882Y731909D01*
X667941Y731790D01*
X667983Y731664D01*
X668009Y731533D01*
X668018Y731400D01*
Y693400D01*
X668009Y693267D01*
X667983Y693137D01*
X667941Y693010D01*
X667882Y692891D01*
X667808Y692780D01*
X667720Y692680D01*
X667620Y692592D01*
X667509Y692518D01*
X667390Y692459D01*
X667263Y692417D01*
X667133Y692391D01*
X667000Y692382D01*
X651000D01*
X650867Y692391D01*
X650736Y692417D01*
X650610Y692459D01*
X650491Y692518D01*
X650380Y692592D01*
X650280Y692680D01*
X650192Y692780D01*
X650118Y692891D01*
X650059Y693010D01*
X650016Y693137D01*
X649990Y693267D01*
X649982Y693400D01*
Y731400D01*
X649990Y731533D01*
X650016Y731664D01*
X650059Y731790D01*
X650118Y731909D01*
X650192Y732020D01*
X650280Y732120D01*
X650380Y732208D01*
X650491Y732282D01*
X650610Y732341D01*
X650736Y732383D01*
X650867Y732410D01*
X651000Y732418D01*
X667000D01*
X667133Y732410D01*
D02*
G37*
G36*
X540133D02*
X540263Y732383D01*
X540390Y732341D01*
X540509Y732282D01*
X540620Y732208D01*
X540720Y732120D01*
X540808Y732020D01*
X540882Y731909D01*
X540941Y731790D01*
X540983Y731664D01*
X541009Y731533D01*
X541018Y731400D01*
Y693400D01*
X541009Y693267D01*
X540983Y693137D01*
X540941Y693010D01*
X540882Y692891D01*
X540808Y692780D01*
X540720Y692680D01*
X540620Y692592D01*
X540509Y692518D01*
X540390Y692459D01*
X540263Y692417D01*
X540133Y692391D01*
X540000Y692382D01*
X524000D01*
X523867Y692391D01*
X523736Y692417D01*
X523610Y692459D01*
X523491Y692518D01*
X523380Y692592D01*
X523280Y692680D01*
X523192Y692780D01*
X523118Y692891D01*
X523059Y693010D01*
X523017Y693137D01*
X522990Y693267D01*
X522982Y693400D01*
Y731400D01*
X522990Y731533D01*
X523017Y731664D01*
X523059Y731790D01*
X523118Y731909D01*
X523192Y732020D01*
X523280Y732120D01*
X523380Y732208D01*
X523491Y732282D01*
X523610Y732341D01*
X523736Y732383D01*
X523867Y732410D01*
X524000Y732418D01*
X540000D01*
X540133Y732410D01*
D02*
G37*
G36*
X983917Y646909D02*
X984957Y646773D01*
X985088Y646747D01*
X986100Y646475D01*
X986227Y646432D01*
X987196Y646031D01*
X987315Y645972D01*
X987315Y645972D01*
X988223Y645448D01*
X988334Y645374D01*
X989166Y644735D01*
X989266Y644648D01*
X990007Y643906D01*
X990095Y643806D01*
X990734Y642974D01*
X990808Y642863D01*
X991332Y641955D01*
X991391Y641836D01*
X991792Y640867D01*
X991835Y640741D01*
X992106Y639728D01*
X992107Y639728D01*
X992132Y639597D01*
X992269Y638557D01*
X992278Y638424D01*
Y638424D01*
Y638424D01*
Y637900D01*
Y637376D01*
D01*
Y637376D01*
X992269Y637243D01*
X992132Y636203D01*
X992107Y636073D01*
X991835Y635060D01*
X991792Y634933D01*
X991391Y633965D01*
X991332Y633845D01*
X991332Y633845D01*
X990808Y632937D01*
X990734Y632826D01*
X990095Y631994D01*
X990007Y631894D01*
X989266Y631152D01*
X989166Y631065D01*
X988334Y630426D01*
X988223Y630352D01*
X987315Y629828D01*
X987196Y629769D01*
X986227Y629368D01*
X986100Y629325D01*
X985088Y629053D01*
X985088Y629053D01*
X984957Y629027D01*
X983917Y628891D01*
X983784Y628882D01*
X983784D01*
X983784D01*
X983260D01*
X961260Y628882D01*
X960736D01*
X960603Y628891D01*
X959563Y629027D01*
X959563D01*
X959432Y629053D01*
X958419Y629325D01*
X958293Y629368D01*
X957324Y629769D01*
X957205Y629828D01*
X956297Y630352D01*
X956186Y630426D01*
X956186Y630426D01*
X955354Y631065D01*
X955254Y631152D01*
X954512Y631894D01*
X954425Y631994D01*
X953786Y632826D01*
X953712Y632937D01*
X953188Y633845D01*
X953129Y633965D01*
X952728Y634933D01*
X952685Y635060D01*
X952685Y635060D01*
X952413Y636072D01*
X952413Y636073D01*
X952387Y636203D01*
X952251Y637243D01*
X952251Y637243D01*
X952242Y637376D01*
X952242Y637900D01*
X952242Y638424D01*
Y638424D01*
Y638424D01*
X952251Y638557D01*
X952387Y639597D01*
X952413Y639728D01*
X952685Y640741D01*
X952728Y640867D01*
X953129Y641835D01*
X953188Y641955D01*
X953188Y641955D01*
X953712Y642863D01*
X953786Y642974D01*
X954425Y643806D01*
X954512Y643906D01*
X955254Y644648D01*
X955354Y644735D01*
X956186Y645374D01*
X956297Y645448D01*
X957205Y645972D01*
X957324Y646031D01*
X958293Y646432D01*
X958419Y646475D01*
X959432Y646747D01*
X959432Y646747D01*
X959563Y646773D01*
X960603Y646909D01*
X960736Y646918D01*
X960736D01*
X960736D01*
X983784D01*
X983784D01*
D01*
X983917Y646909D01*
D02*
G37*
G36*
X991393Y621510D02*
X991524Y621483D01*
X991650Y621441D01*
X991769Y621382D01*
X991880Y621308D01*
X991980Y621220D01*
X992068Y621120D01*
X992142Y621009D01*
X992201Y620890D01*
X992243Y620764D01*
X992269Y620633D01*
X992278Y620500D01*
Y604500D01*
X992269Y604367D01*
X992243Y604236D01*
X992201Y604110D01*
X992142Y603991D01*
X992068Y603880D01*
X991980Y603780D01*
X991880Y603692D01*
X991769Y603618D01*
X991650Y603559D01*
X991524Y603517D01*
X991393Y603491D01*
X991260Y603482D01*
X953260D01*
X953127Y603491D01*
X952996Y603517D01*
X952870Y603559D01*
X952751Y603618D01*
X952640Y603692D01*
X952540Y603780D01*
X952452Y603880D01*
X952378Y603991D01*
X952319Y604110D01*
X952277Y604236D01*
X952251Y604367D01*
X952242Y604500D01*
Y620500D01*
X952251Y620633D01*
X952277Y620764D01*
X952319Y620890D01*
X952378Y621009D01*
X952452Y621120D01*
X952540Y621220D01*
X952640Y621308D01*
X952751Y621382D01*
X952870Y621441D01*
X952996Y621483D01*
X953127Y621510D01*
X953260Y621518D01*
X991260D01*
X991393Y621510D01*
D02*
G37*
G36*
X983917Y596110D02*
X984957Y595973D01*
X985088Y595947D01*
X986100Y595675D01*
X986227Y595632D01*
X987196Y595231D01*
X987315Y595172D01*
X987315Y595172D01*
X988223Y594648D01*
X988334Y594574D01*
X989166Y593935D01*
X989266Y593848D01*
X990007Y593106D01*
X990095Y593006D01*
X990734Y592174D01*
X990808Y592063D01*
X991332Y591155D01*
X991391Y591036D01*
X991792Y590067D01*
X991835Y589941D01*
X992106Y588928D01*
X992107Y588928D01*
X992132Y588797D01*
X992269Y587757D01*
X992278Y587624D01*
Y587624D01*
Y587624D01*
Y587100D01*
Y586576D01*
D01*
Y586576D01*
X992269Y586443D01*
X992132Y585403D01*
X992107Y585272D01*
X991835Y584259D01*
X991792Y584133D01*
X991391Y583164D01*
X991332Y583045D01*
X991332Y583045D01*
X990808Y582137D01*
X990734Y582026D01*
X990095Y581194D01*
X990007Y581094D01*
X989266Y580353D01*
X989166Y580265D01*
X988334Y579626D01*
X988223Y579552D01*
X987315Y579028D01*
X987196Y578969D01*
X986227Y578568D01*
X986100Y578525D01*
X985088Y578254D01*
X985088Y578254D01*
X984957Y578228D01*
X983917Y578091D01*
X983784Y578082D01*
X983784D01*
X983784D01*
X983260D01*
X961260Y578082D01*
X960736D01*
X960603Y578091D01*
X959563Y578228D01*
X959563D01*
X959432Y578254D01*
X958419Y578525D01*
X958293Y578568D01*
X957324Y578969D01*
X957205Y579028D01*
X956297Y579552D01*
X956186Y579626D01*
X956186Y579626D01*
X955354Y580265D01*
X955254Y580353D01*
X954512Y581094D01*
X954425Y581194D01*
X953786Y582026D01*
X953712Y582137D01*
X953188Y583045D01*
X953129Y583164D01*
X952728Y584133D01*
X952685Y584259D01*
X952685Y584260D01*
X952413Y585272D01*
X952413Y585272D01*
X952387Y585403D01*
X952251Y586443D01*
X952251Y586443D01*
X952242Y586576D01*
X952242Y587100D01*
X952242Y587624D01*
Y587624D01*
Y587624D01*
X952251Y587757D01*
X952387Y588797D01*
X952413Y588928D01*
X952685Y589941D01*
X952728Y590067D01*
X953129Y591035D01*
X953188Y591155D01*
X953188Y591155D01*
X953712Y592063D01*
X953786Y592174D01*
X954425Y593006D01*
X954512Y593106D01*
X955254Y593848D01*
X955354Y593935D01*
X956186Y594574D01*
X956297Y594648D01*
X957205Y595172D01*
X957324Y595231D01*
X958293Y595632D01*
X958419Y595675D01*
X959432Y595947D01*
X959432Y595947D01*
X959563Y595973D01*
X960603Y596110D01*
X960736Y596118D01*
X960736D01*
X960736D01*
X983784D01*
X983784D01*
D01*
X983917Y596110D01*
D02*
G37*
G36*
X964457Y532609D02*
X965497Y532473D01*
X965628Y532447D01*
X966640Y532175D01*
X966767Y532132D01*
X967736Y531731D01*
X967855Y531672D01*
X967855Y531672D01*
X968763Y531148D01*
X968874Y531074D01*
X969706Y530435D01*
X969806Y530348D01*
X970547Y529606D01*
X970635Y529506D01*
X971274Y528674D01*
X971348Y528563D01*
X971872Y527655D01*
X971931Y527536D01*
X972332Y526567D01*
X972375Y526441D01*
X972646Y525428D01*
X972646Y525428D01*
X972673Y525297D01*
X972809Y524257D01*
X972818Y524124D01*
Y524124D01*
Y524124D01*
Y523600D01*
Y501600D01*
Y501076D01*
D01*
Y501076D01*
X972809Y500943D01*
X972673Y499903D01*
X972646Y499772D01*
X972375Y498759D01*
X972332Y498633D01*
X971931Y497664D01*
X971872Y497545D01*
X971872Y497545D01*
X971348Y496637D01*
X971274Y496526D01*
X970635Y495694D01*
X970547Y495594D01*
X969806Y494852D01*
X969706Y494765D01*
X968874Y494126D01*
X968763Y494052D01*
X967855Y493528D01*
X967736Y493469D01*
X966767Y493068D01*
X966640Y493025D01*
X965628Y492753D01*
X965628Y492753D01*
X965497Y492728D01*
X964457Y492591D01*
X964324Y492582D01*
X964324D01*
X964324D01*
X963276D01*
X963276D01*
D01*
X963143Y492591D01*
X962103Y492728D01*
X961972Y492753D01*
X960959Y493025D01*
X960833Y493068D01*
X959865Y493469D01*
X959745Y493528D01*
X959745Y493528D01*
X958837Y494052D01*
X958726Y494126D01*
X957894Y494765D01*
X957794Y494852D01*
X957052Y495594D01*
X956965Y495694D01*
X956326Y496526D01*
X956252Y496637D01*
X955728Y497545D01*
X955669Y497664D01*
X955268Y498633D01*
X955225Y498759D01*
X954953Y499772D01*
X954953Y499772D01*
X954927Y499903D01*
X954790Y500943D01*
X954782Y501076D01*
Y501076D01*
Y501076D01*
Y501600D01*
X954782Y523600D01*
Y524124D01*
X954790Y524257D01*
X954927Y525297D01*
Y525297D01*
X954953Y525428D01*
X955225Y526441D01*
X955268Y526567D01*
X955669Y527536D01*
X955728Y527655D01*
X956252Y528563D01*
X956326Y528674D01*
X956326Y528674D01*
X956965Y529506D01*
X957052Y529606D01*
X957794Y530348D01*
X957894Y530435D01*
X958726Y531074D01*
X958837Y531148D01*
X959745Y531672D01*
X959864Y531731D01*
X960833Y532132D01*
X960959Y532175D01*
X960959Y532175D01*
X961972Y532447D01*
X961972Y532447D01*
X962103Y532473D01*
X963143Y532609D01*
X963276Y532618D01*
X963276D01*
X963276D01*
X963800D01*
X964324Y532618D01*
X964324D01*
X964324D01*
X964457Y532609D01*
D02*
G37*
G36*
X939057D02*
X940097Y532473D01*
X940228Y532447D01*
X941240Y532175D01*
X941367Y532132D01*
X942336Y531731D01*
X942455Y531672D01*
X942455Y531672D01*
X943363Y531148D01*
X943474Y531074D01*
X944306Y530435D01*
X944406Y530348D01*
X945147Y529606D01*
X945235Y529506D01*
X945874Y528674D01*
X945948Y528563D01*
X946472Y527655D01*
X946531Y527536D01*
X946932Y526567D01*
X946975Y526441D01*
X947246Y525428D01*
X947246Y525428D01*
X947272Y525297D01*
X947409Y524257D01*
X947418Y524124D01*
Y524124D01*
Y524124D01*
Y523600D01*
Y501600D01*
Y501076D01*
D01*
Y501076D01*
X947409Y500943D01*
X947272Y499903D01*
X947246Y499772D01*
X946975Y498759D01*
X946932Y498633D01*
X946531Y497664D01*
X946472Y497545D01*
X946472Y497545D01*
X945948Y496637D01*
X945874Y496526D01*
X945235Y495694D01*
X945147Y495594D01*
X944406Y494852D01*
X944306Y494765D01*
X943474Y494126D01*
X943363Y494052D01*
X942455Y493528D01*
X942336Y493469D01*
X941367Y493068D01*
X941240Y493025D01*
X940228Y492753D01*
X940228Y492753D01*
X940097Y492728D01*
X939057Y492591D01*
X938924Y492582D01*
X938924D01*
X938924D01*
X937876D01*
X937876D01*
D01*
X937743Y492591D01*
X936703Y492728D01*
X936572Y492753D01*
X935559Y493025D01*
X935433Y493068D01*
X934464Y493469D01*
X934345Y493528D01*
X934345Y493528D01*
X933437Y494052D01*
X933326Y494126D01*
X932494Y494765D01*
X932394Y494852D01*
X931652Y495594D01*
X931565Y495694D01*
X930926Y496526D01*
X930852Y496637D01*
X930328Y497545D01*
X930269Y497664D01*
X929868Y498633D01*
X929825Y498759D01*
X929553Y499772D01*
X929553Y499772D01*
X929527Y499903D01*
X929390Y500943D01*
X929382Y501076D01*
Y501076D01*
Y501076D01*
Y501600D01*
X929382Y523600D01*
Y524124D01*
X929390Y524257D01*
X929527Y525297D01*
Y525297D01*
X929553Y525428D01*
X929825Y526441D01*
X929868Y526567D01*
X930269Y527536D01*
X930328Y527655D01*
X930852Y528563D01*
X930926Y528674D01*
X930926Y528674D01*
X931565Y529506D01*
X931652Y529606D01*
X932394Y530348D01*
X932494Y530435D01*
X933326Y531074D01*
X933437Y531148D01*
X934345Y531672D01*
X934464Y531731D01*
X935433Y532132D01*
X935559Y532175D01*
X935559Y532175D01*
X936572Y532447D01*
X936572Y532447D01*
X936703Y532473D01*
X937743Y532609D01*
X937876Y532618D01*
X937876D01*
X937876D01*
X938400D01*
X938924Y532618D01*
X938924D01*
X938924D01*
X939057Y532609D01*
D02*
G37*
G36*
X888257D02*
X889297Y532473D01*
X889427Y532447D01*
X890441Y532175D01*
X890567Y532132D01*
X891535Y531731D01*
X891655Y531672D01*
X891655Y531672D01*
X892563Y531148D01*
X892674Y531074D01*
X893506Y530435D01*
X893606Y530348D01*
X894348Y529606D01*
X894435Y529506D01*
X895074Y528674D01*
X895148Y528563D01*
X895672Y527655D01*
X895731Y527536D01*
X896132Y526567D01*
X896175Y526441D01*
X896447Y525428D01*
X896447Y525428D01*
X896472Y525297D01*
X896609Y524257D01*
X896618Y524124D01*
Y524124D01*
Y524124D01*
Y523600D01*
Y501600D01*
Y501076D01*
D01*
Y501076D01*
X896609Y500943D01*
X896472Y499903D01*
X896447Y499772D01*
X896175Y498759D01*
X896132Y498633D01*
X895731Y497664D01*
X895672Y497545D01*
X895672Y497545D01*
X895148Y496637D01*
X895074Y496526D01*
X894435Y495694D01*
X894348Y495594D01*
X893606Y494852D01*
X893506Y494765D01*
X892674Y494126D01*
X892563Y494052D01*
X891655Y493528D01*
X891535Y493469D01*
X890567Y493068D01*
X890441Y493025D01*
X889428Y492753D01*
X889428Y492753D01*
X889297Y492728D01*
X888257Y492591D01*
X888124Y492582D01*
X888124D01*
X888124D01*
X887076D01*
X887076D01*
D01*
X886943Y492591D01*
X885903Y492728D01*
X885772Y492753D01*
X884759Y493025D01*
X884633Y493068D01*
X883664Y493469D01*
X883545Y493528D01*
X883545Y493528D01*
X882637Y494052D01*
X882526Y494126D01*
X881694Y494765D01*
X881594Y494852D01*
X880852Y495594D01*
X880765Y495694D01*
X880126Y496526D01*
X880052Y496637D01*
X879528Y497545D01*
X879469Y497664D01*
X879068Y498633D01*
X879025Y498759D01*
X878753Y499772D01*
X878753Y499772D01*
X878727Y499903D01*
X878590Y500943D01*
X878582Y501076D01*
Y501076D01*
Y501076D01*
Y501600D01*
X878582Y523600D01*
Y524124D01*
X878590Y524257D01*
X878727Y525297D01*
Y525297D01*
X878753Y525428D01*
X879025Y526441D01*
X879068Y526567D01*
X879469Y527536D01*
X879528Y527655D01*
X880052Y528563D01*
X880126Y528674D01*
X880126Y528674D01*
X880765Y529506D01*
X880852Y529606D01*
X881594Y530348D01*
X881694Y530435D01*
X882526Y531074D01*
X882637Y531148D01*
X883545Y531672D01*
X883664Y531731D01*
X884633Y532132D01*
X884759Y532175D01*
X884760Y532175D01*
X885772Y532447D01*
X885772Y532447D01*
X885903Y532473D01*
X886943Y532609D01*
X887076Y532618D01*
X887076D01*
X887076D01*
X887600D01*
X888124Y532618D01*
X888124D01*
X888124D01*
X888257Y532609D01*
D02*
G37*
G36*
X862857D02*
X863897Y532473D01*
X864027Y532447D01*
X865041Y532175D01*
X865167Y532132D01*
X866135Y531731D01*
X866255Y531672D01*
X866255Y531672D01*
X867163Y531148D01*
X867274Y531074D01*
X868106Y530435D01*
X868206Y530348D01*
X868948Y529606D01*
X869035Y529506D01*
X869674Y528674D01*
X869748Y528563D01*
X870272Y527655D01*
X870331Y527536D01*
X870732Y526567D01*
X870775Y526441D01*
X871047Y525428D01*
X871047Y525428D01*
X871072Y525297D01*
X871209Y524257D01*
X871218Y524124D01*
Y524124D01*
Y524124D01*
Y523600D01*
Y501600D01*
Y501076D01*
D01*
Y501076D01*
X871209Y500943D01*
X871072Y499903D01*
X871047Y499772D01*
X870775Y498759D01*
X870732Y498633D01*
X870331Y497664D01*
X870272Y497545D01*
X870272Y497545D01*
X869748Y496637D01*
X869674Y496526D01*
X869035Y495694D01*
X868948Y495594D01*
X868206Y494852D01*
X868106Y494765D01*
X867274Y494126D01*
X867163Y494052D01*
X866255Y493528D01*
X866135Y493469D01*
X865167Y493068D01*
X865041Y493025D01*
X864028Y492753D01*
X864028Y492753D01*
X863897Y492728D01*
X862857Y492591D01*
X862724Y492582D01*
X862724D01*
X862724D01*
X861676D01*
X861676D01*
D01*
X861543Y492591D01*
X860503Y492728D01*
X860372Y492753D01*
X859359Y493025D01*
X859233Y493068D01*
X858264Y493469D01*
X858145Y493528D01*
X858145Y493528D01*
X857237Y494052D01*
X857126Y494126D01*
X856294Y494765D01*
X856194Y494852D01*
X855452Y495594D01*
X855365Y495694D01*
X854726Y496526D01*
X854652Y496637D01*
X854128Y497545D01*
X854069Y497664D01*
X853668Y498633D01*
X853625Y498759D01*
X853353Y499772D01*
X853353Y499772D01*
X853327Y499903D01*
X853191Y500943D01*
X853182Y501076D01*
Y501076D01*
Y501076D01*
Y501600D01*
X853182Y523600D01*
Y524124D01*
X853191Y524257D01*
X853327Y525297D01*
Y525297D01*
X853353Y525428D01*
X853625Y526441D01*
X853668Y526567D01*
X854069Y527536D01*
X854128Y527655D01*
X854652Y528563D01*
X854726Y528674D01*
X854726Y528674D01*
X855365Y529506D01*
X855452Y529606D01*
X856194Y530348D01*
X856294Y530435D01*
X857126Y531074D01*
X857237Y531148D01*
X858145Y531672D01*
X858264Y531731D01*
X859233Y532132D01*
X859359Y532175D01*
X859360Y532175D01*
X860372Y532447D01*
X860372Y532447D01*
X860503Y532473D01*
X861543Y532609D01*
X861676Y532618D01*
X861676D01*
X861676D01*
X862200D01*
X862724Y532618D01*
X862724D01*
X862724D01*
X862857Y532609D01*
D02*
G37*
G36*
X837457D02*
X838497Y532473D01*
X838627Y532447D01*
X839641Y532175D01*
X839767Y532132D01*
X840735Y531731D01*
X840855Y531672D01*
X840855Y531672D01*
X841763Y531148D01*
X841874Y531074D01*
X842706Y530435D01*
X842806Y530348D01*
X843548Y529606D01*
X843635Y529506D01*
X844274Y528674D01*
X844348Y528563D01*
X844872Y527655D01*
X844931Y527536D01*
X845332Y526567D01*
X845375Y526441D01*
X845647Y525428D01*
X845647Y525428D01*
X845673Y525297D01*
X845809Y524257D01*
X845818Y524124D01*
Y524124D01*
Y524124D01*
Y523600D01*
Y501600D01*
Y501076D01*
D01*
Y501076D01*
X845809Y500943D01*
X845673Y499903D01*
X845647Y499772D01*
X845375Y498759D01*
X845332Y498633D01*
X844931Y497664D01*
X844872Y497545D01*
X844872Y497545D01*
X844348Y496637D01*
X844274Y496526D01*
X843635Y495694D01*
X843548Y495594D01*
X842806Y494852D01*
X842706Y494765D01*
X841874Y494126D01*
X841763Y494052D01*
X840855Y493528D01*
X840735Y493469D01*
X839767Y493068D01*
X839641Y493025D01*
X838628Y492753D01*
X838628Y492753D01*
X838497Y492728D01*
X837457Y492591D01*
X837324Y492582D01*
X837324D01*
X837324D01*
X836276D01*
X836276D01*
D01*
X836143Y492591D01*
X835103Y492728D01*
X834972Y492753D01*
X833959Y493025D01*
X833833Y493068D01*
X832865Y493469D01*
X832745Y493528D01*
X832745Y493528D01*
X831837Y494052D01*
X831726Y494126D01*
X830894Y494765D01*
X830794Y494852D01*
X830052Y495594D01*
X829965Y495694D01*
X829326Y496526D01*
X829252Y496637D01*
X828728Y497545D01*
X828669Y497664D01*
X828268Y498633D01*
X828225Y498759D01*
X827953Y499772D01*
X827953Y499772D01*
X827927Y499903D01*
X827791Y500943D01*
X827782Y501076D01*
Y501076D01*
Y501076D01*
Y501600D01*
X827782Y523600D01*
Y524124D01*
X827791Y524257D01*
X827927Y525297D01*
Y525297D01*
X827953Y525428D01*
X828225Y526441D01*
X828268Y526567D01*
X828669Y527536D01*
X828728Y527655D01*
X829252Y528563D01*
X829326Y528674D01*
X829326Y528674D01*
X829965Y529506D01*
X830052Y529606D01*
X830794Y530348D01*
X830894Y530435D01*
X831726Y531074D01*
X831837Y531148D01*
X832745Y531672D01*
X832864Y531731D01*
X833833Y532132D01*
X833959Y532175D01*
X833960Y532175D01*
X834972Y532447D01*
X834972Y532447D01*
X835103Y532473D01*
X836143Y532609D01*
X836276Y532618D01*
X836276D01*
X836276D01*
X836800D01*
X837324Y532618D01*
X837324D01*
X837324D01*
X837457Y532609D01*
D02*
G37*
G36*
X812057D02*
X813097Y532473D01*
X813227Y532447D01*
X814240Y532175D01*
X814367Y532132D01*
X815335Y531731D01*
X815455Y531672D01*
X815455Y531672D01*
X816363Y531148D01*
X816474Y531074D01*
X817306Y530435D01*
X817406Y530348D01*
X818148Y529606D01*
X818235Y529506D01*
X818874Y528674D01*
X818948Y528563D01*
X819472Y527655D01*
X819531Y527536D01*
X819932Y526567D01*
X819975Y526441D01*
X820247Y525428D01*
X820247Y525428D01*
X820273Y525297D01*
X820409Y524257D01*
X820418Y524124D01*
Y524124D01*
Y524124D01*
Y523600D01*
Y501600D01*
Y501076D01*
D01*
Y501076D01*
X820409Y500943D01*
X820273Y499903D01*
X820247Y499772D01*
X819975Y498759D01*
X819932Y498633D01*
X819531Y497664D01*
X819472Y497545D01*
X819472Y497545D01*
X818948Y496637D01*
X818874Y496526D01*
X818235Y495694D01*
X818148Y495594D01*
X817406Y494852D01*
X817306Y494765D01*
X816474Y494126D01*
X816363Y494052D01*
X815455Y493528D01*
X815335Y493469D01*
X814367Y493068D01*
X814240Y493025D01*
X813228Y492753D01*
X813228Y492753D01*
X813097Y492728D01*
X812057Y492591D01*
X811924Y492582D01*
X811924D01*
X811924D01*
X810876D01*
X810876D01*
D01*
X810743Y492591D01*
X809703Y492728D01*
X809572Y492753D01*
X808559Y493025D01*
X808433Y493068D01*
X807465Y493469D01*
X807345Y493528D01*
X807345Y493528D01*
X806437Y494052D01*
X806326Y494126D01*
X805494Y494765D01*
X805394Y494852D01*
X804652Y495594D01*
X804565Y495694D01*
X803926Y496526D01*
X803852Y496637D01*
X803328Y497545D01*
X803269Y497664D01*
X802868Y498633D01*
X802825Y498759D01*
X802553Y499772D01*
X802553Y499772D01*
X802527Y499903D01*
X802391Y500943D01*
X802382Y501076D01*
Y501076D01*
Y501076D01*
Y501600D01*
X802382Y523600D01*
Y524124D01*
X802391Y524257D01*
X802527Y525297D01*
Y525297D01*
X802553Y525428D01*
X802825Y526441D01*
X802868Y526567D01*
X803269Y527536D01*
X803328Y527655D01*
X803852Y528563D01*
X803926Y528674D01*
X803926Y528674D01*
X804565Y529506D01*
X804652Y529606D01*
X805394Y530348D01*
X805494Y530435D01*
X806326Y531074D01*
X806437Y531148D01*
X807345Y531672D01*
X807464Y531731D01*
X808433Y532132D01*
X808559Y532175D01*
X808559Y532175D01*
X809572Y532447D01*
X809572Y532447D01*
X809703Y532473D01*
X810743Y532609D01*
X810876Y532618D01*
X810876D01*
X810876D01*
X811400D01*
X811924Y532618D01*
X811924D01*
X811924D01*
X812057Y532609D01*
D02*
G37*
G36*
X761257D02*
X762297Y532473D01*
X762428Y532447D01*
X763440Y532175D01*
X763567Y532132D01*
X764536Y531731D01*
X764655Y531672D01*
X764655Y531672D01*
X765563Y531148D01*
X765674Y531074D01*
X766506Y530435D01*
X766606Y530348D01*
X767347Y529606D01*
X767435Y529506D01*
X768074Y528674D01*
X768148Y528563D01*
X768672Y527655D01*
X768731Y527536D01*
X769132Y526567D01*
X769175Y526441D01*
X769446Y525428D01*
X769446Y525428D01*
X769473Y525297D01*
X769609Y524257D01*
X769618Y524124D01*
Y524124D01*
Y524124D01*
Y523600D01*
Y501600D01*
Y501076D01*
D01*
Y501076D01*
X769609Y500943D01*
X769473Y499903D01*
X769446Y499772D01*
X769175Y498759D01*
X769132Y498633D01*
X768731Y497664D01*
X768672Y497545D01*
X768672Y497545D01*
X768148Y496637D01*
X768074Y496526D01*
X767435Y495694D01*
X767347Y495594D01*
X766606Y494852D01*
X766506Y494765D01*
X765674Y494126D01*
X765563Y494052D01*
X764655Y493528D01*
X764536Y493469D01*
X763567Y493068D01*
X763440Y493025D01*
X762428Y492753D01*
X762428Y492753D01*
X762297Y492728D01*
X761257Y492591D01*
X761124Y492582D01*
X761124D01*
X761124D01*
X760076D01*
X760076D01*
D01*
X759943Y492591D01*
X758903Y492728D01*
X758772Y492753D01*
X757759Y493025D01*
X757633Y493068D01*
X756665Y493469D01*
X756545Y493528D01*
X756545Y493528D01*
X755637Y494052D01*
X755526Y494126D01*
X754694Y494765D01*
X754594Y494852D01*
X753852Y495594D01*
X753765Y495694D01*
X753126Y496526D01*
X753052Y496637D01*
X752528Y497545D01*
X752469Y497664D01*
X752068Y498633D01*
X752025Y498759D01*
X751753Y499772D01*
X751753Y499772D01*
X751727Y499903D01*
X751590Y500943D01*
X751582Y501076D01*
Y501076D01*
Y501076D01*
Y501600D01*
X751582Y523600D01*
Y524124D01*
X751590Y524257D01*
X751727Y525297D01*
Y525297D01*
X751753Y525428D01*
X752025Y526441D01*
X752068Y526567D01*
X752469Y527536D01*
X752528Y527655D01*
X753052Y528563D01*
X753126Y528674D01*
X753126Y528674D01*
X753765Y529506D01*
X753852Y529606D01*
X754594Y530348D01*
X754694Y530435D01*
X755526Y531074D01*
X755637Y531148D01*
X756545Y531672D01*
X756664Y531731D01*
X757633Y532132D01*
X757759Y532175D01*
X757759Y532175D01*
X758772Y532447D01*
X758772Y532447D01*
X758903Y532473D01*
X759943Y532609D01*
X760076Y532618D01*
X760076D01*
X760076D01*
X760600D01*
X761124Y532618D01*
X761124D01*
X761124D01*
X761257Y532609D01*
D02*
G37*
G36*
X735857D02*
X736897Y532473D01*
X737028Y532447D01*
X738040Y532175D01*
X738167Y532132D01*
X739136Y531731D01*
X739255Y531672D01*
X739255Y531672D01*
X740163Y531148D01*
X740274Y531074D01*
X741106Y530435D01*
X741206Y530348D01*
X741947Y529606D01*
X742035Y529506D01*
X742674Y528674D01*
X742748Y528563D01*
X743272Y527655D01*
X743331Y527536D01*
X743732Y526567D01*
X743775Y526441D01*
X744046Y525428D01*
X744046Y525428D01*
X744072Y525297D01*
X744209Y524257D01*
X744218Y524124D01*
Y524124D01*
Y524124D01*
Y523600D01*
Y501600D01*
Y501076D01*
D01*
Y501076D01*
X744209Y500943D01*
X744072Y499903D01*
X744046Y499772D01*
X743775Y498759D01*
X743732Y498633D01*
X743331Y497664D01*
X743272Y497545D01*
X743272Y497545D01*
X742748Y496637D01*
X742674Y496526D01*
X742035Y495694D01*
X741947Y495594D01*
X741206Y494852D01*
X741106Y494765D01*
X740274Y494126D01*
X740163Y494052D01*
X739255Y493528D01*
X739136Y493469D01*
X738167Y493068D01*
X738040Y493025D01*
X737028Y492753D01*
X737028Y492753D01*
X736897Y492728D01*
X735857Y492591D01*
X735724Y492582D01*
X735724D01*
X735724D01*
X734676D01*
X734676D01*
D01*
X734543Y492591D01*
X733503Y492728D01*
X733372Y492753D01*
X732359Y493025D01*
X732233Y493068D01*
X731264Y493469D01*
X731145Y493528D01*
X731145Y493528D01*
X730237Y494052D01*
X730126Y494126D01*
X729294Y494765D01*
X729194Y494852D01*
X728452Y495594D01*
X728365Y495694D01*
X727726Y496526D01*
X727652Y496637D01*
X727128Y497545D01*
X727069Y497664D01*
X726668Y498633D01*
X726625Y498759D01*
X726353Y499772D01*
X726353Y499772D01*
X726327Y499903D01*
X726190Y500943D01*
X726182Y501076D01*
Y501076D01*
Y501076D01*
Y501600D01*
X726182Y523600D01*
Y524124D01*
X726190Y524257D01*
X726327Y525297D01*
Y525297D01*
X726353Y525428D01*
X726625Y526441D01*
X726668Y526567D01*
X727069Y527536D01*
X727128Y527655D01*
X727652Y528563D01*
X727726Y528674D01*
X727726Y528674D01*
X728365Y529506D01*
X728452Y529606D01*
X729194Y530348D01*
X729294Y530435D01*
X730126Y531074D01*
X730237Y531148D01*
X731145Y531672D01*
X731264Y531731D01*
X732233Y532132D01*
X732359Y532175D01*
X732359Y532175D01*
X733372Y532447D01*
X733372Y532447D01*
X733503Y532473D01*
X734543Y532609D01*
X734676Y532618D01*
X734676D01*
X734676D01*
X735200D01*
X735724Y532618D01*
X735724D01*
X735724D01*
X735857Y532609D01*
D02*
G37*
G36*
X710457D02*
X711497Y532473D01*
X711628Y532447D01*
X712641Y532175D01*
X712767Y532132D01*
X713736Y531731D01*
X713855Y531672D01*
X713855Y531672D01*
X714763Y531148D01*
X714874Y531074D01*
X715706Y530435D01*
X715806Y530348D01*
X716547Y529606D01*
X716635Y529506D01*
X717274Y528674D01*
X717348Y528563D01*
X717872Y527655D01*
X717931Y527536D01*
X718332Y526567D01*
X718375Y526441D01*
X718646Y525428D01*
X718646Y525428D01*
X718672Y525297D01*
X718809Y524257D01*
X718818Y524124D01*
Y524124D01*
Y524124D01*
Y523600D01*
Y501600D01*
Y501076D01*
D01*
Y501076D01*
X718809Y500943D01*
X718672Y499903D01*
X718646Y499772D01*
X718375Y498759D01*
X718332Y498633D01*
X717931Y497664D01*
X717872Y497545D01*
X717872Y497545D01*
X717348Y496637D01*
X717274Y496526D01*
X716635Y495694D01*
X716547Y495594D01*
X715806Y494852D01*
X715706Y494765D01*
X714874Y494126D01*
X714763Y494052D01*
X713855Y493528D01*
X713736Y493469D01*
X712767Y493068D01*
X712641Y493025D01*
X711628Y492753D01*
X711628Y492753D01*
X711497Y492728D01*
X710457Y492591D01*
X710324Y492582D01*
X710324D01*
X710324D01*
X709276D01*
X709276D01*
D01*
X709143Y492591D01*
X708103Y492728D01*
X707972Y492753D01*
X706959Y493025D01*
X706833Y493068D01*
X705864Y493469D01*
X705745Y493528D01*
X705745Y493528D01*
X704837Y494052D01*
X704726Y494126D01*
X703894Y494765D01*
X703794Y494852D01*
X703052Y495594D01*
X702965Y495694D01*
X702326Y496526D01*
X702252Y496637D01*
X701728Y497545D01*
X701669Y497664D01*
X701268Y498633D01*
X701225Y498759D01*
X700953Y499772D01*
X700953Y499772D01*
X700927Y499903D01*
X700790Y500943D01*
X700782Y501076D01*
Y501076D01*
Y501076D01*
Y501600D01*
X700782Y523600D01*
Y524124D01*
X700790Y524257D01*
X700927Y525297D01*
Y525297D01*
X700953Y525428D01*
X701225Y526441D01*
X701268Y526567D01*
X701669Y527536D01*
X701728Y527655D01*
X702252Y528563D01*
X702326Y528674D01*
X702326Y528674D01*
X702965Y529506D01*
X703052Y529606D01*
X703794Y530348D01*
X703894Y530435D01*
X704726Y531074D01*
X704837Y531148D01*
X705745Y531672D01*
X705864Y531731D01*
X706833Y532132D01*
X706959Y532175D01*
X706960Y532175D01*
X707972Y532447D01*
X707972Y532447D01*
X708103Y532473D01*
X709143Y532609D01*
X709276Y532618D01*
X709276D01*
X709276D01*
X709800D01*
X710324Y532618D01*
X710324D01*
X710324D01*
X710457Y532609D01*
D02*
G37*
G36*
X685057D02*
X686097Y532473D01*
X686227Y532447D01*
X687241Y532175D01*
X687367Y532132D01*
X688335Y531731D01*
X688455Y531672D01*
X688455Y531672D01*
X689363Y531148D01*
X689474Y531074D01*
X690306Y530435D01*
X690406Y530348D01*
X691148Y529606D01*
X691235Y529506D01*
X691874Y528674D01*
X691948Y528563D01*
X692472Y527655D01*
X692531Y527536D01*
X692932Y526567D01*
X692975Y526441D01*
X693247Y525428D01*
X693247Y525428D01*
X693272Y525297D01*
X693409Y524257D01*
X693418Y524124D01*
Y524124D01*
Y524124D01*
Y523600D01*
Y501600D01*
Y501076D01*
D01*
Y501076D01*
X693409Y500943D01*
X693272Y499903D01*
X693247Y499772D01*
X692975Y498759D01*
X692932Y498633D01*
X692531Y497664D01*
X692472Y497545D01*
X692472Y497545D01*
X691948Y496637D01*
X691874Y496526D01*
X691235Y495694D01*
X691148Y495594D01*
X690406Y494852D01*
X690306Y494765D01*
X689474Y494126D01*
X689363Y494052D01*
X688455Y493528D01*
X688335Y493469D01*
X687367Y493068D01*
X687241Y493025D01*
X686228Y492753D01*
X686228Y492753D01*
X686097Y492728D01*
X685057Y492591D01*
X684924Y492582D01*
X684924D01*
X684924D01*
X683876D01*
X683876D01*
D01*
X683743Y492591D01*
X682703Y492728D01*
X682572Y492753D01*
X681559Y493025D01*
X681433Y493068D01*
X680464Y493469D01*
X680345Y493528D01*
X680345Y493528D01*
X679437Y494052D01*
X679326Y494126D01*
X678494Y494765D01*
X678394Y494852D01*
X677652Y495594D01*
X677565Y495694D01*
X676926Y496526D01*
X676852Y496637D01*
X676328Y497545D01*
X676269Y497664D01*
X675868Y498633D01*
X675825Y498759D01*
X675553Y499772D01*
X675553Y499772D01*
X675527Y499903D01*
X675390Y500943D01*
X675382Y501076D01*
Y501076D01*
Y501076D01*
Y501600D01*
X675382Y523600D01*
Y524124D01*
X675390Y524257D01*
X675527Y525297D01*
Y525297D01*
X675553Y525428D01*
X675825Y526441D01*
X675868Y526567D01*
X676269Y527536D01*
X676328Y527655D01*
X676852Y528563D01*
X676926Y528674D01*
X676926Y528674D01*
X677565Y529506D01*
X677652Y529606D01*
X678394Y530348D01*
X678494Y530435D01*
X679326Y531074D01*
X679437Y531148D01*
X680345Y531672D01*
X680464Y531731D01*
X681433Y532132D01*
X681559Y532175D01*
X681560Y532175D01*
X682572Y532447D01*
X682572Y532447D01*
X682703Y532473D01*
X683743Y532609D01*
X683876Y532618D01*
X683876D01*
X683876D01*
X684400D01*
X684924Y532618D01*
X684924D01*
X684924D01*
X685057Y532609D01*
D02*
G37*
G36*
X634257D02*
X635297Y532473D01*
X635428Y532447D01*
X636441Y532175D01*
X636567Y532132D01*
X637536Y531731D01*
X637655Y531672D01*
X637655Y531672D01*
X638563Y531148D01*
X638674Y531074D01*
X639506Y530435D01*
X639606Y530348D01*
X640348Y529606D01*
X640435Y529506D01*
X641074Y528674D01*
X641148Y528563D01*
X641672Y527655D01*
X641731Y527536D01*
X642132Y526567D01*
X642175Y526441D01*
X642447Y525428D01*
X642447Y525428D01*
X642473Y525297D01*
X642609Y524257D01*
X642618Y524124D01*
Y524124D01*
Y524124D01*
Y523600D01*
Y501600D01*
Y501076D01*
D01*
Y501076D01*
X642609Y500943D01*
X642473Y499903D01*
X642447Y499772D01*
X642175Y498759D01*
X642132Y498633D01*
X641731Y497664D01*
X641672Y497545D01*
X641672Y497545D01*
X641148Y496637D01*
X641074Y496526D01*
X640435Y495694D01*
X640348Y495594D01*
X639606Y494852D01*
X639506Y494765D01*
X638674Y494126D01*
X638563Y494052D01*
X637655Y493528D01*
X637536Y493469D01*
X636567Y493068D01*
X636441Y493025D01*
X635428Y492753D01*
X635428Y492753D01*
X635297Y492728D01*
X634257Y492591D01*
X634124Y492582D01*
X634124D01*
X634124D01*
X633076D01*
X633076D01*
D01*
X632943Y492591D01*
X631903Y492728D01*
X631772Y492753D01*
X630759Y493025D01*
X630633Y493068D01*
X629664Y493469D01*
X629545Y493528D01*
X629545Y493528D01*
X628637Y494052D01*
X628526Y494126D01*
X627694Y494765D01*
X627594Y494852D01*
X626852Y495594D01*
X626765Y495694D01*
X626126Y496526D01*
X626052Y496637D01*
X625528Y497545D01*
X625469Y497664D01*
X625068Y498633D01*
X625025Y498759D01*
X624753Y499772D01*
X624753Y499772D01*
X624727Y499903D01*
X624590Y500943D01*
X624582Y501076D01*
Y501076D01*
Y501076D01*
Y501600D01*
X624582Y523600D01*
Y524124D01*
X624590Y524257D01*
X624727Y525297D01*
Y525297D01*
X624753Y525428D01*
X625025Y526441D01*
X625068Y526567D01*
X625469Y527536D01*
X625528Y527655D01*
X626052Y528563D01*
X626126Y528674D01*
X626126Y528674D01*
X626765Y529506D01*
X626852Y529606D01*
X627594Y530348D01*
X627694Y530435D01*
X628526Y531074D01*
X628637Y531148D01*
X629545Y531672D01*
X629664Y531731D01*
X630633Y532132D01*
X630759Y532175D01*
X630760Y532175D01*
X631772Y532447D01*
X631772Y532447D01*
X631903Y532473D01*
X632943Y532609D01*
X633076Y532618D01*
X633076D01*
X633076D01*
X633600D01*
X634124Y532618D01*
X634124D01*
X634124D01*
X634257Y532609D01*
D02*
G37*
G36*
X608857D02*
X609897Y532473D01*
X610028Y532447D01*
X611040Y532175D01*
X611167Y532132D01*
X612136Y531731D01*
X612255Y531672D01*
X612255Y531672D01*
X613163Y531148D01*
X613274Y531074D01*
X614106Y530435D01*
X614206Y530348D01*
X614948Y529606D01*
X615035Y529506D01*
X615674Y528674D01*
X615748Y528563D01*
X616272Y527655D01*
X616331Y527536D01*
X616732Y526567D01*
X616775Y526441D01*
X617047Y525428D01*
X617047Y525428D01*
X617072Y525297D01*
X617209Y524257D01*
X617218Y524124D01*
Y524124D01*
Y524124D01*
Y523600D01*
Y501600D01*
Y501076D01*
D01*
Y501076D01*
X617209Y500943D01*
X617072Y499903D01*
X617047Y499772D01*
X616775Y498759D01*
X616732Y498633D01*
X616331Y497664D01*
X616272Y497545D01*
X616272Y497545D01*
X615748Y496637D01*
X615674Y496526D01*
X615035Y495694D01*
X614948Y495594D01*
X614206Y494852D01*
X614106Y494765D01*
X613274Y494126D01*
X613163Y494052D01*
X612255Y493528D01*
X612136Y493469D01*
X611167Y493068D01*
X611040Y493025D01*
X610028Y492753D01*
X610028Y492753D01*
X609897Y492728D01*
X608857Y492591D01*
X608724Y492582D01*
X608724D01*
X608724D01*
X607676D01*
X607676D01*
D01*
X607543Y492591D01*
X606503Y492728D01*
X606372Y492753D01*
X605359Y493025D01*
X605233Y493068D01*
X604264Y493469D01*
X604145Y493528D01*
X604145Y493528D01*
X603237Y494052D01*
X603126Y494126D01*
X602294Y494765D01*
X602194Y494852D01*
X601452Y495594D01*
X601365Y495694D01*
X600726Y496526D01*
X600652Y496637D01*
X600128Y497545D01*
X600069Y497664D01*
X599668Y498633D01*
X599625Y498759D01*
X599353Y499772D01*
X599353Y499772D01*
X599327Y499903D01*
X599190Y500943D01*
X599182Y501076D01*
Y501076D01*
Y501076D01*
Y501600D01*
X599182Y523600D01*
Y524124D01*
X599190Y524257D01*
X599327Y525297D01*
Y525297D01*
X599353Y525428D01*
X599625Y526441D01*
X599668Y526567D01*
X600069Y527536D01*
X600128Y527655D01*
X600652Y528563D01*
X600726Y528674D01*
X600726Y528674D01*
X601365Y529506D01*
X601452Y529606D01*
X602194Y530348D01*
X602294Y530435D01*
X603126Y531074D01*
X603237Y531148D01*
X604145Y531672D01*
X604264Y531731D01*
X605233Y532132D01*
X605359Y532175D01*
X605359Y532175D01*
X606372Y532447D01*
X606372Y532447D01*
X606503Y532473D01*
X607543Y532609D01*
X607676Y532618D01*
X607676D01*
X607676D01*
X608200D01*
X608724Y532618D01*
X608724D01*
X608724D01*
X608857Y532609D01*
D02*
G37*
G36*
X583457D02*
X584497Y532473D01*
X584627Y532447D01*
X585640Y532175D01*
X585767Y532132D01*
X586735Y531731D01*
X586855Y531672D01*
X586855Y531672D01*
X587763Y531148D01*
X587874Y531074D01*
X588706Y530435D01*
X588806Y530348D01*
X589548Y529606D01*
X589635Y529506D01*
X590274Y528674D01*
X590348Y528563D01*
X590872Y527655D01*
X590931Y527536D01*
X591332Y526567D01*
X591375Y526441D01*
X591646Y525428D01*
X591646Y525428D01*
X591673Y525297D01*
X591809Y524257D01*
X591818Y524124D01*
Y524124D01*
Y524124D01*
Y523600D01*
Y501600D01*
Y501076D01*
D01*
Y501076D01*
X591809Y500943D01*
X591673Y499903D01*
X591646Y499772D01*
X591375Y498759D01*
X591332Y498633D01*
X590931Y497664D01*
X590872Y497545D01*
X590872Y497545D01*
X590348Y496637D01*
X590274Y496526D01*
X589635Y495694D01*
X589548Y495594D01*
X588806Y494852D01*
X588706Y494765D01*
X587874Y494126D01*
X587763Y494052D01*
X586855Y493528D01*
X586735Y493469D01*
X585767Y493068D01*
X585640Y493025D01*
X584628Y492753D01*
X584628Y492753D01*
X584497Y492728D01*
X583457Y492591D01*
X583324Y492582D01*
X583324D01*
X583324D01*
X582276D01*
X582276D01*
D01*
X582143Y492591D01*
X581103Y492728D01*
X580972Y492753D01*
X579959Y493025D01*
X579833Y493068D01*
X578865Y493469D01*
X578745Y493528D01*
X578745Y493528D01*
X577837Y494052D01*
X577726Y494126D01*
X576894Y494765D01*
X576794Y494852D01*
X576052Y495594D01*
X575965Y495694D01*
X575326Y496526D01*
X575252Y496637D01*
X574728Y497545D01*
X574669Y497664D01*
X574268Y498633D01*
X574225Y498759D01*
X573953Y499772D01*
X573953Y499772D01*
X573927Y499903D01*
X573791Y500943D01*
X573782Y501076D01*
Y501076D01*
Y501076D01*
Y501600D01*
X573782Y523600D01*
Y524124D01*
X573791Y524257D01*
X573927Y525297D01*
Y525297D01*
X573953Y525428D01*
X574225Y526441D01*
X574268Y526567D01*
X574669Y527536D01*
X574728Y527655D01*
X575252Y528563D01*
X575326Y528674D01*
X575326Y528674D01*
X575965Y529506D01*
X576052Y529606D01*
X576794Y530348D01*
X576894Y530435D01*
X577726Y531074D01*
X577837Y531148D01*
X578745Y531672D01*
X578864Y531731D01*
X579833Y532132D01*
X579959Y532175D01*
X579959Y532175D01*
X580972Y532447D01*
X580972Y532447D01*
X581103Y532473D01*
X582143Y532609D01*
X582276Y532618D01*
X582276D01*
X582276D01*
X582800D01*
X583324Y532618D01*
X583324D01*
X583324D01*
X583457Y532609D01*
D02*
G37*
G36*
X558057D02*
X559097Y532473D01*
X559227Y532447D01*
X560241Y532175D01*
X560367Y532132D01*
X561335Y531731D01*
X561455Y531672D01*
X561455Y531672D01*
X562363Y531148D01*
X562474Y531074D01*
X563306Y530435D01*
X563406Y530348D01*
X564147Y529606D01*
X564235Y529506D01*
X564874Y528674D01*
X564948Y528563D01*
X565472Y527655D01*
X565531Y527536D01*
X565932Y526567D01*
X565975Y526441D01*
X566246Y525428D01*
X566246Y525428D01*
X566273Y525297D01*
X566409Y524257D01*
X566418Y524124D01*
Y524124D01*
Y524124D01*
Y523600D01*
Y501600D01*
Y501076D01*
D01*
Y501076D01*
X566409Y500943D01*
X566273Y499903D01*
X566246Y499772D01*
X565975Y498759D01*
X565932Y498633D01*
X565531Y497664D01*
X565472Y497545D01*
X565472Y497545D01*
X564948Y496637D01*
X564874Y496526D01*
X564235Y495694D01*
X564147Y495594D01*
X563406Y494852D01*
X563306Y494765D01*
X562474Y494126D01*
X562363Y494052D01*
X561455Y493528D01*
X561335Y493469D01*
X560367Y493068D01*
X560241Y493025D01*
X559228Y492753D01*
X559228Y492753D01*
X559097Y492728D01*
X558057Y492591D01*
X557924Y492582D01*
X557924D01*
X557924D01*
X556876D01*
X556876D01*
D01*
X556743Y492591D01*
X555703Y492728D01*
X555572Y492753D01*
X554559Y493025D01*
X554433Y493068D01*
X553465Y493469D01*
X553345Y493528D01*
X553345Y493528D01*
X552437Y494052D01*
X552326Y494126D01*
X551494Y494765D01*
X551394Y494852D01*
X550652Y495594D01*
X550565Y495694D01*
X549926Y496526D01*
X549852Y496637D01*
X549328Y497545D01*
X549269Y497664D01*
X548868Y498633D01*
X548825Y498759D01*
X548553Y499772D01*
X548553Y499772D01*
X548527Y499903D01*
X548391Y500943D01*
X548382Y501076D01*
Y501076D01*
Y501076D01*
Y501600D01*
X548382Y523600D01*
Y524124D01*
X548391Y524257D01*
X548527Y525297D01*
Y525297D01*
X548553Y525428D01*
X548825Y526441D01*
X548868Y526567D01*
X549269Y527536D01*
X549328Y527655D01*
X549852Y528563D01*
X549926Y528674D01*
X549926Y528674D01*
X550565Y529506D01*
X550652Y529606D01*
X551394Y530348D01*
X551494Y530435D01*
X552326Y531074D01*
X552437Y531148D01*
X553345Y531672D01*
X553464Y531731D01*
X554433Y532132D01*
X554559Y532175D01*
X554560Y532175D01*
X555572Y532447D01*
X555572Y532447D01*
X555703Y532473D01*
X556743Y532609D01*
X556876Y532618D01*
X556876D01*
X556876D01*
X557400D01*
X557924Y532618D01*
X557924D01*
X557924D01*
X558057Y532609D01*
D02*
G37*
G36*
X507257D02*
X508297Y532473D01*
X508428Y532447D01*
X509440Y532175D01*
X509567Y532132D01*
X510536Y531731D01*
X510655Y531672D01*
X510655Y531672D01*
X511563Y531148D01*
X511674Y531074D01*
X512506Y530435D01*
X512606Y530348D01*
X513348Y529606D01*
X513435Y529506D01*
X514074Y528674D01*
X514148Y528563D01*
X514672Y527655D01*
X514731Y527536D01*
X515132Y526567D01*
X515175Y526441D01*
X515447Y525428D01*
X515447Y525428D01*
X515472Y525297D01*
X515609Y524257D01*
X515618Y524124D01*
Y524124D01*
Y524124D01*
Y523600D01*
Y501600D01*
Y501076D01*
D01*
Y501076D01*
X515609Y500943D01*
X515472Y499903D01*
X515447Y499772D01*
X515175Y498759D01*
X515132Y498633D01*
X514731Y497664D01*
X514672Y497545D01*
X514672Y497545D01*
X514148Y496637D01*
X514074Y496526D01*
X513435Y495694D01*
X513348Y495594D01*
X512606Y494852D01*
X512506Y494765D01*
X511674Y494126D01*
X511563Y494052D01*
X510655Y493528D01*
X510536Y493469D01*
X509567Y493068D01*
X509440Y493025D01*
X508428Y492753D01*
X508428Y492753D01*
X508297Y492728D01*
X507257Y492591D01*
X507124Y492582D01*
X507124D01*
X507124D01*
X506076D01*
X506076D01*
D01*
X505943Y492591D01*
X504903Y492728D01*
X504772Y492753D01*
X503759Y493025D01*
X503633Y493068D01*
X502664Y493469D01*
X502545Y493528D01*
X502545Y493528D01*
X501637Y494052D01*
X501526Y494126D01*
X500694Y494765D01*
X500594Y494852D01*
X499852Y495594D01*
X499765Y495694D01*
X499126Y496526D01*
X499052Y496637D01*
X498528Y497545D01*
X498469Y497664D01*
X498068Y498633D01*
X498025Y498759D01*
X497753Y499772D01*
X497753Y499772D01*
X497727Y499903D01*
X497590Y500943D01*
X497582Y501076D01*
Y501076D01*
Y501076D01*
Y501600D01*
X497582Y523600D01*
Y524124D01*
X497590Y524257D01*
X497727Y525297D01*
Y525297D01*
X497753Y525428D01*
X498025Y526441D01*
X498068Y526567D01*
X498469Y527536D01*
X498528Y527655D01*
X499052Y528563D01*
X499126Y528674D01*
X499126Y528674D01*
X499765Y529506D01*
X499852Y529606D01*
X500594Y530348D01*
X500694Y530435D01*
X501526Y531074D01*
X501637Y531148D01*
X502545Y531672D01*
X502664Y531731D01*
X503633Y532132D01*
X503759Y532175D01*
X503759Y532175D01*
X504772Y532447D01*
X504772Y532447D01*
X504903Y532473D01*
X505943Y532609D01*
X506076Y532618D01*
X506076D01*
X506076D01*
X506600D01*
X507124Y532618D01*
X507124D01*
X507124D01*
X507257Y532609D01*
D02*
G37*
G36*
X481857D02*
X482897Y532473D01*
X483027Y532447D01*
X484040Y532175D01*
X484167Y532132D01*
X485135Y531731D01*
X485255Y531672D01*
X485255Y531672D01*
X486163Y531148D01*
X486274Y531074D01*
X487106Y530435D01*
X487206Y530348D01*
X487948Y529606D01*
X488035Y529506D01*
X488674Y528674D01*
X488748Y528563D01*
X489272Y527655D01*
X489331Y527536D01*
X489732Y526567D01*
X489775Y526441D01*
X490047Y525428D01*
X490047Y525428D01*
X490073Y525297D01*
X490209Y524257D01*
X490218Y524124D01*
Y524124D01*
Y524124D01*
Y523600D01*
Y501600D01*
Y501076D01*
D01*
Y501076D01*
X490209Y500943D01*
X490073Y499903D01*
X490047Y499772D01*
X489775Y498759D01*
X489732Y498633D01*
X489331Y497664D01*
X489272Y497545D01*
X489272Y497545D01*
X488748Y496637D01*
X488674Y496526D01*
X488035Y495694D01*
X487948Y495594D01*
X487206Y494852D01*
X487106Y494765D01*
X486274Y494126D01*
X486163Y494052D01*
X485255Y493528D01*
X485135Y493469D01*
X484167Y493068D01*
X484040Y493025D01*
X483028Y492753D01*
X483028Y492753D01*
X482897Y492728D01*
X481857Y492591D01*
X481724Y492582D01*
X481724D01*
X481724D01*
X480676D01*
X480676D01*
D01*
X480543Y492591D01*
X479503Y492728D01*
X479372Y492753D01*
X478359Y493025D01*
X478233Y493068D01*
X477265Y493469D01*
X477145Y493528D01*
X477145Y493528D01*
X476237Y494052D01*
X476126Y494126D01*
X475294Y494765D01*
X475194Y494852D01*
X474452Y495594D01*
X474365Y495694D01*
X473726Y496526D01*
X473652Y496637D01*
X473128Y497545D01*
X473069Y497664D01*
X472668Y498633D01*
X472625Y498759D01*
X472353Y499772D01*
X472353Y499772D01*
X472327Y499903D01*
X472191Y500943D01*
X472182Y501076D01*
Y501076D01*
Y501076D01*
Y501600D01*
X472182Y523600D01*
Y524124D01*
X472191Y524257D01*
X472327Y525297D01*
Y525297D01*
X472353Y525428D01*
X472625Y526441D01*
X472668Y526567D01*
X473069Y527536D01*
X473128Y527655D01*
X473652Y528563D01*
X473726Y528674D01*
X473726Y528674D01*
X474365Y529506D01*
X474452Y529606D01*
X475194Y530348D01*
X475294Y530435D01*
X476126Y531074D01*
X476237Y531148D01*
X477145Y531672D01*
X477264Y531731D01*
X478233Y532132D01*
X478359Y532175D01*
X478359Y532175D01*
X479372Y532447D01*
X479372Y532447D01*
X479503Y532473D01*
X480543Y532609D01*
X480676Y532618D01*
X480676D01*
X480676D01*
X481200D01*
X481724Y532618D01*
X481724D01*
X481724D01*
X481857Y532609D01*
D02*
G37*
G36*
X921133D02*
X921264Y532584D01*
X921390Y532541D01*
X921509Y532482D01*
X921620Y532408D01*
X921720Y532320D01*
X921808Y532220D01*
X921882Y532109D01*
X921941Y531990D01*
X921983Y531864D01*
X922009Y531733D01*
X922018Y531600D01*
Y493600D01*
X922009Y493467D01*
X921983Y493336D01*
X921941Y493210D01*
X921882Y493091D01*
X921808Y492980D01*
X921720Y492880D01*
X921620Y492792D01*
X921509Y492718D01*
X921390Y492659D01*
X921264Y492617D01*
X921133Y492591D01*
X921000Y492582D01*
X905000D01*
X904867Y492591D01*
X904736Y492617D01*
X904610Y492659D01*
X904491Y492718D01*
X904380Y492792D01*
X904280Y492880D01*
X904192Y492980D01*
X904118Y493091D01*
X904059Y493210D01*
X904016Y493336D01*
X903990Y493467D01*
X903982Y493600D01*
Y531600D01*
X903990Y531733D01*
X904016Y531864D01*
X904059Y531990D01*
X904118Y532109D01*
X904192Y532220D01*
X904280Y532320D01*
X904380Y532408D01*
X904491Y532482D01*
X904610Y532541D01*
X904736Y532584D01*
X904867Y532609D01*
X905000Y532618D01*
X921000D01*
X921133Y532609D01*
D02*
G37*
G36*
X794133D02*
X794264Y532584D01*
X794390Y532541D01*
X794509Y532482D01*
X794620Y532408D01*
X794720Y532320D01*
X794808Y532220D01*
X794882Y532109D01*
X794941Y531990D01*
X794983Y531864D01*
X795009Y531733D01*
X795018Y531600D01*
Y493600D01*
X795009Y493467D01*
X794983Y493336D01*
X794941Y493210D01*
X794882Y493091D01*
X794808Y492980D01*
X794720Y492880D01*
X794620Y492792D01*
X794509Y492718D01*
X794390Y492659D01*
X794264Y492617D01*
X794133Y492591D01*
X794000Y492582D01*
X778000D01*
X777867Y492591D01*
X777736Y492617D01*
X777610Y492659D01*
X777491Y492718D01*
X777380Y492792D01*
X777280Y492880D01*
X777192Y492980D01*
X777118Y493091D01*
X777059Y493210D01*
X777017Y493336D01*
X776991Y493467D01*
X776982Y493600D01*
Y531600D01*
X776991Y531733D01*
X777017Y531864D01*
X777059Y531990D01*
X777118Y532109D01*
X777192Y532220D01*
X777280Y532320D01*
X777380Y532408D01*
X777491Y532482D01*
X777610Y532541D01*
X777736Y532584D01*
X777867Y532609D01*
X778000Y532618D01*
X794000D01*
X794133Y532609D01*
D02*
G37*
G36*
X667133D02*
X667263Y532584D01*
X667390Y532541D01*
X667509Y532482D01*
X667620Y532408D01*
X667720Y532320D01*
X667808Y532220D01*
X667882Y532109D01*
X667941Y531990D01*
X667983Y531864D01*
X668009Y531733D01*
X668018Y531600D01*
Y493600D01*
X668009Y493467D01*
X667983Y493336D01*
X667941Y493210D01*
X667882Y493091D01*
X667808Y492980D01*
X667720Y492880D01*
X667620Y492792D01*
X667509Y492718D01*
X667390Y492659D01*
X667263Y492617D01*
X667133Y492591D01*
X667000Y492582D01*
X651000D01*
X650867Y492591D01*
X650736Y492617D01*
X650610Y492659D01*
X650491Y492718D01*
X650380Y492792D01*
X650280Y492880D01*
X650192Y492980D01*
X650118Y493091D01*
X650059Y493210D01*
X650016Y493336D01*
X649990Y493467D01*
X649982Y493600D01*
Y531600D01*
X649990Y531733D01*
X650016Y531864D01*
X650059Y531990D01*
X650118Y532109D01*
X650192Y532220D01*
X650280Y532320D01*
X650380Y532408D01*
X650491Y532482D01*
X650610Y532541D01*
X650736Y532584D01*
X650867Y532609D01*
X651000Y532618D01*
X667000D01*
X667133Y532609D01*
D02*
G37*
G36*
X540133D02*
X540263Y532584D01*
X540390Y532541D01*
X540509Y532482D01*
X540620Y532408D01*
X540720Y532320D01*
X540808Y532220D01*
X540882Y532109D01*
X540941Y531990D01*
X540983Y531864D01*
X541009Y531733D01*
X541018Y531600D01*
Y493600D01*
X541009Y493467D01*
X540983Y493336D01*
X540941Y493210D01*
X540882Y493091D01*
X540808Y492980D01*
X540720Y492880D01*
X540620Y492792D01*
X540509Y492718D01*
X540390Y492659D01*
X540263Y492617D01*
X540133Y492591D01*
X540000Y492582D01*
X524000D01*
X523867Y492591D01*
X523736Y492617D01*
X523610Y492659D01*
X523491Y492718D01*
X523380Y492792D01*
X523280Y492880D01*
X523192Y492980D01*
X523118Y493091D01*
X523059Y493210D01*
X523017Y493336D01*
X522990Y493467D01*
X522982Y493600D01*
Y531600D01*
X522990Y531733D01*
X523017Y531864D01*
X523059Y531990D01*
X523118Y532109D01*
X523192Y532220D01*
X523280Y532320D01*
X523380Y532408D01*
X523491Y532482D01*
X523610Y532541D01*
X523736Y532584D01*
X523867Y532609D01*
X524000Y532618D01*
X540000D01*
X540133Y532609D01*
D02*
G37*
D31*
X97500Y292500D02*
X119500Y271000D01*
X151250D01*
X97500Y322500D02*
X105000Y322750D01*
X134000Y293750D01*
X133250Y294000D02*
X186500D01*
X100500Y355750D02*
X152500D01*
X117000Y380000D02*
X118000D01*
X116000Y382500D02*
X118500Y380000D01*
X114500Y382500D02*
X116000D01*
X118500Y380000D02*
X215000D01*
X97500Y382500D02*
X114500D01*
D32*
X411000Y576500D02*
D03*
X429000D02*
D03*
X234000Y643750D02*
D03*
X216000D02*
D03*
X235500Y590250D02*
D03*
X217500D02*
D03*
X370750Y601000D02*
D03*
X388750D02*
D03*
X616500Y240000D02*
D03*
X598500D02*
D03*
X498500Y20000D02*
D03*
X516500D02*
D03*
X481500Y240000D02*
D03*
X463500D02*
D03*
X594500Y19500D02*
D03*
X576500D02*
D03*
X834000Y35000D02*
D03*
X852000D02*
D03*
D33*
X300000Y593250D02*
D03*
Y575250D02*
D03*
X555000Y779000D02*
D03*
Y761000D02*
D03*
X535000Y779000D02*
D03*
Y761000D02*
D03*
D34*
X215750Y673250D02*
D03*
X234750D02*
D03*
X369750Y571500D02*
D03*
X388750D02*
D03*
X216250Y615750D02*
D03*
X428000Y409000D02*
D03*
X447000D02*
D03*
X428000Y389000D02*
D03*
X447000D02*
D03*
X305500Y323250D02*
D03*
X324500D02*
D03*
X362500D02*
D03*
X343500D02*
D03*
X418750Y266500D02*
D03*
X399750D02*
D03*
X403000Y354000D02*
D03*
X422000D02*
D03*
X556500Y481000D02*
D03*
X537500D02*
D03*
X421750Y324750D02*
D03*
X440750D02*
D03*
X421750Y304750D02*
D03*
X440750D02*
D03*
X640500Y240000D02*
D03*
X659500D02*
D03*
X362000Y409000D02*
D03*
X343000D02*
D03*
X306000D02*
D03*
X325000D02*
D03*
X159500Y500000D02*
D03*
X140500D02*
D03*
Y530000D02*
D03*
X159500D02*
D03*
X140500Y574000D02*
D03*
X159500D02*
D03*
X215500Y516000D02*
D03*
X234500D02*
D03*
X214000Y494500D02*
D03*
X233000D02*
D03*
X140500Y650000D02*
D03*
X159500D02*
D03*
X140500Y680000D02*
D03*
X159500D02*
D03*
X140500Y710000D02*
D03*
X159500D02*
D03*
X140500Y740000D02*
D03*
X159500D02*
D03*
X407500Y78000D02*
D03*
X426500D02*
D03*
X235250Y615750D02*
D03*
X334500Y225000D02*
D03*
X353500D02*
D03*
X767250Y34750D02*
D03*
X786250D02*
D03*
X638000Y20000D02*
D03*
X657000D02*
D03*
X356000Y102500D02*
D03*
X375000D02*
D03*
D35*
X272000Y593250D02*
D03*
Y574250D02*
D03*
X875500Y762000D02*
D03*
X663250Y464250D02*
D03*
Y483250D02*
D03*
X624000Y464250D02*
D03*
Y483250D02*
D03*
X596250Y464250D02*
D03*
Y483250D02*
D03*
X979000Y743000D02*
D03*
Y762000D02*
D03*
X949750Y743000D02*
D03*
Y762000D02*
D03*
X904500Y743000D02*
D03*
Y762000D02*
D03*
X875500Y743000D02*
D03*
X355000Y133000D02*
D03*
Y152000D02*
D03*
X371000Y690500D02*
D03*
Y671500D02*
D03*
Y620500D02*
D03*
Y639500D02*
D03*
X265750Y690500D02*
D03*
Y671500D02*
D03*
X294750D02*
D03*
Y690500D02*
D03*
X678250Y832500D02*
D03*
Y851500D02*
D03*
X776750Y833750D02*
D03*
Y852750D02*
D03*
X832000Y953500D02*
D03*
Y972500D02*
D03*
X732500Y953500D02*
D03*
Y972500D02*
D03*
X637500Y953500D02*
D03*
Y972500D02*
D03*
X584250Y836250D02*
D03*
Y855250D02*
D03*
X932500Y952500D02*
D03*
Y971500D02*
D03*
X879000Y835500D02*
D03*
Y854500D02*
D03*
X328000Y574250D02*
D03*
Y593250D02*
D03*
D36*
X324000Y629000D02*
D03*
X280000Y644000D02*
D03*
Y639000D02*
D03*
Y634000D02*
D03*
Y629000D02*
D03*
Y624000D02*
D03*
X324000Y644000D02*
D03*
Y639000D02*
D03*
Y634000D02*
D03*
Y624000D02*
D03*
D37*
X151500Y271100D02*
D03*
X152500Y355700D02*
D03*
X151500Y316900D02*
D03*
X152500Y401500D02*
D03*
D38*
X216000Y294000D02*
D03*
X217000Y378600D02*
D03*
D39*
X871500Y919000D02*
D03*
X673500Y919750D02*
D03*
X772500Y889500D02*
D03*
Y920000D02*
D03*
X871500Y888500D02*
D03*
X673500Y889250D02*
D03*
X576500Y889500D02*
D03*
Y920000D02*
D03*
X31500Y89500D02*
D03*
Y59000D02*
D03*
X165500Y200000D02*
D03*
Y169500D02*
D03*
D40*
X873000Y952000D02*
D03*
X675000Y953000D02*
D03*
X783500Y977000D02*
D03*
X764500D02*
D03*
X774000Y953000D02*
D03*
X684500Y977000D02*
D03*
X665500D02*
D03*
X587500D02*
D03*
X568500D02*
D03*
X578000Y953000D02*
D03*
X882500Y976000D02*
D03*
X863500D02*
D03*
X420000Y30500D02*
D03*
X410500Y54500D02*
D03*
X429500D02*
D03*
D41*
X363750Y270050D02*
D03*
Y295450D02*
D03*
X274250Y270050D02*
D03*
Y295450D02*
D03*
X363500Y356050D02*
D03*
Y381450D02*
D03*
X274000Y356050D02*
D03*
Y381450D02*
D03*
X379750Y42300D02*
D03*
Y67700D02*
D03*
X290250Y42300D02*
D03*
Y67700D02*
D03*
D42*
X389800Y135250D02*
D03*
X415200D02*
D03*
X389800Y224750D02*
D03*
X415200D02*
D03*
X831200Y927250D02*
D03*
X805800D02*
D03*
X831200Y837750D02*
D03*
X805800D02*
D03*
X732700Y927250D02*
D03*
X707300D02*
D03*
X732700Y837750D02*
D03*
X707300D02*
D03*
X637700Y927250D02*
D03*
X612300D02*
D03*
X637700Y837750D02*
D03*
X612300D02*
D03*
X932700Y926250D02*
D03*
X907300D02*
D03*
X932700Y836750D02*
D03*
X907300D02*
D03*
D43*
X229750Y42500D02*
D03*
X260250D02*
D03*
D44*
X121250Y167500D02*
D03*
X48750D02*
D03*
X282500D02*
D03*
X210000D02*
D03*
D45*
X554500Y19500D02*
D03*
X536500D02*
D03*
X561000Y240000D02*
D03*
X579000D02*
D03*
X513500Y240000D02*
D03*
X531500D02*
D03*
X462000Y20000D02*
D03*
X480000D02*
D03*
D46*
X386750Y396500D02*
D03*
X408250Y403000D02*
D03*
Y390000D02*
D03*
X406000Y304500D02*
D03*
Y317500D02*
D03*
X384500Y311000D02*
D03*
D47*
X897000Y35000D02*
D03*
X933000D02*
D03*
X470000Y763000D02*
D03*
X506000D02*
D03*
X620000Y764000D02*
D03*
X584000D02*
D03*
D48*
X67500Y617500D02*
D03*
X194000Y93250D02*
D03*
X118000D02*
D03*
X93000D02*
D03*
Y43250D02*
D03*
X118000D02*
D03*
X194000D02*
D03*
X124750Y858250D02*
D03*
Y934250D02*
D03*
Y959250D02*
D03*
X74750D02*
D03*
Y934250D02*
D03*
Y858250D02*
D03*
X414000Y858750D02*
D03*
Y934750D02*
D03*
Y959750D02*
D03*
X364000D02*
D03*
Y934750D02*
D03*
Y858750D02*
D03*
X317500Y858500D02*
D03*
Y934500D02*
D03*
Y959500D02*
D03*
X267500D02*
D03*
Y934500D02*
D03*
Y858500D02*
D03*
X221000Y858250D02*
D03*
Y934250D02*
D03*
Y959250D02*
D03*
X171000D02*
D03*
Y934250D02*
D03*
Y858250D02*
D03*
X482500Y196100D02*
D03*
Y170700D02*
D03*
Y64100D02*
D03*
X666500Y89500D02*
D03*
Y64100D02*
D03*
X482500Y89500D02*
D03*
X666500Y170700D02*
D03*
Y196100D02*
D03*
Y415850D02*
D03*
Y390450D02*
D03*
X482500Y309250D02*
D03*
X666500Y283850D02*
D03*
Y309250D02*
D03*
X482500Y283850D02*
D03*
Y390450D02*
D03*
Y415850D02*
D03*
X97500Y292500D02*
D03*
Y352500D02*
D03*
Y322500D02*
D03*
Y382500D02*
D03*
X67500Y707500D02*
D03*
Y677500D02*
D03*
Y737500D02*
D03*
Y647500D02*
D03*
Y527500D02*
D03*
Y497500D02*
D03*
Y587500D02*
D03*
Y557500D02*
D03*
X25650Y518900D02*
D03*
X25650Y745900D02*
D03*
X97500Y497500D02*
D03*
Y527500D02*
D03*
Y557500D02*
D03*
Y587500D02*
D03*
Y617500D02*
D03*
Y647500D02*
D03*
Y677500D02*
D03*
Y707500D02*
D03*
Y737500D02*
D03*
Y767500D02*
D03*
X895800Y88000D02*
D03*
X768800D02*
D03*
X794200D02*
D03*
X819600D02*
D03*
X845000D02*
D03*
X870400D02*
D03*
X921200D02*
D03*
X857200Y376000D02*
D03*
X831800D02*
D03*
X67500Y352500D02*
D03*
Y322500D02*
D03*
Y292500D02*
D03*
Y262500D02*
D03*
X97500D02*
D03*
X25650Y360900D02*
D03*
X25650Y283900D02*
D03*
D49*
X67500Y767500D02*
D03*
Y382500D02*
D03*
D50*
X556500Y336000D02*
D03*
X391000Y-99250D02*
D03*
X309250Y123500D02*
D03*
X95500Y63750D02*
D03*
X715500Y587500D02*
D03*
X431750Y558000D02*
D03*
X414000Y547150D02*
D03*
X349000D02*
D03*
Y575627D02*
D03*
X315437Y385164D02*
D03*
X383520Y336020D02*
D03*
X748750Y857750D02*
D03*
X492500Y849250D02*
D03*
X966250Y838000D02*
D03*
X601250Y128750D02*
D03*
X66750Y452750D02*
D03*
X321500Y664750D02*
D03*
X564000Y854000D02*
D03*
X523500Y430500D02*
D03*
X536000Y443150D02*
D03*
X151770Y151770D02*
D03*
X913000Y951000D02*
D03*
X709000Y952000D02*
D03*
X108000Y409000D02*
D03*
X457000Y798000D02*
D03*
X943000Y296500D02*
D03*
X335000Y200500D02*
D03*
X305000Y234000D02*
D03*
X355000Y169000D02*
D03*
X749750Y36000D02*
D03*
X234500Y238000D02*
D03*
X726000Y336750D02*
D03*
X123000Y766000D02*
D03*
X519000Y480000D02*
D03*
X389000Y620000D02*
D03*
X340000Y681000D02*
D03*
X522000Y595000D02*
D03*
X537000Y613000D02*
D03*
X554000Y455000D02*
D03*
X552000Y895000D02*
D03*
X598000Y263000D02*
D03*
X812000Y952000D02*
D03*
X615000Y20000D02*
D03*
D51*
X957500Y555500D02*
D03*
X487500Y669500D02*
D03*
X957500D02*
D03*
X487500Y555500D02*
D03*
D52*
X25000Y25000D02*
D03*
Y972500D02*
D03*
X975000Y25000D02*
D03*
Y975000D02*
D03*
M02*
