G04*
G04 #@! TF.GenerationSoftware,Altium Limited,Altium Designer,23.4.1 (23)*
G04*
G04 Layer_Color=2752767*
%FSLAX44Y44*%
%MOMM*%
G71*
G04*
G04 #@! TF.SameCoordinates,A38F0C46-2886-41F3-B9C8-1B8298131EAA*
G04*
G04*
G04 #@! TF.FilePolarity,Positive*
G04*
G01*
G75*
%ADD66C,0.1693*%
%ADD67C,0.1270*%
D66*
X72580Y617500D02*
G03*
X72580Y617500I-5080J0D01*
G01*
X199080Y93250D02*
G03*
X199080Y93250I-5080J0D01*
G01*
X123080D02*
G03*
X123080Y93250I-5080J0D01*
G01*
X98080D02*
G03*
X98080Y93250I-5080J0D01*
G01*
Y43250D02*
G03*
X98080Y43250I-5080J0D01*
G01*
X123080D02*
G03*
X123080Y43250I-5080J0D01*
G01*
X199080D02*
G03*
X199080Y43250I-5080J0D01*
G01*
X129830Y858250D02*
G03*
X129830Y858250I-5080J0D01*
G01*
Y934250D02*
G03*
X129830Y934250I-5080J0D01*
G01*
Y959250D02*
G03*
X129830Y959250I-5080J0D01*
G01*
X79830D02*
G03*
X79830Y959250I-5080J0D01*
G01*
Y934250D02*
G03*
X79830Y934250I-5080J0D01*
G01*
Y858250D02*
G03*
X79830Y858250I-5080J0D01*
G01*
X419080Y858750D02*
G03*
X419080Y858750I-5080J0D01*
G01*
Y934750D02*
G03*
X419080Y934750I-5080J0D01*
G01*
Y959750D02*
G03*
X419080Y959750I-5080J0D01*
G01*
X369080D02*
G03*
X369080Y959750I-5080J0D01*
G01*
Y934750D02*
G03*
X369080Y934750I-5080J0D01*
G01*
Y858750D02*
G03*
X369080Y858750I-5080J0D01*
G01*
X322580Y858500D02*
G03*
X322580Y858500I-5080J0D01*
G01*
Y934500D02*
G03*
X322580Y934500I-5080J0D01*
G01*
Y959500D02*
G03*
X322580Y959500I-5080J0D01*
G01*
X272580D02*
G03*
X272580Y959500I-5080J0D01*
G01*
Y934500D02*
G03*
X272580Y934500I-5080J0D01*
G01*
Y858500D02*
G03*
X272580Y858500I-5080J0D01*
G01*
X226080Y858250D02*
G03*
X226080Y858250I-5080J0D01*
G01*
Y934250D02*
G03*
X226080Y934250I-5080J0D01*
G01*
Y959250D02*
G03*
X226080Y959250I-5080J0D01*
G01*
X176080D02*
G03*
X176080Y959250I-5080J0D01*
G01*
Y934250D02*
G03*
X176080Y934250I-5080J0D01*
G01*
Y858250D02*
G03*
X176080Y858250I-5080J0D01*
G01*
X487580Y196100D02*
G03*
X487580Y196100I-5080J0D01*
G01*
Y170700D02*
G03*
X487580Y170700I-5080J0D01*
G01*
Y64100D02*
G03*
X487580Y64100I-5080J0D01*
G01*
X671580Y89500D02*
G03*
X671580Y89500I-5080J0D01*
G01*
Y64100D02*
G03*
X671580Y64100I-5080J0D01*
G01*
X487580Y89500D02*
G03*
X487580Y89500I-5080J0D01*
G01*
X671580Y170700D02*
G03*
X671580Y170700I-5080J0D01*
G01*
Y196100D02*
G03*
X671580Y196100I-5080J0D01*
G01*
Y415850D02*
G03*
X671580Y415850I-5080J0D01*
G01*
Y390450D02*
G03*
X671580Y390450I-5080J0D01*
G01*
X487580Y309250D02*
G03*
X487580Y309250I-5080J0D01*
G01*
X671580Y283850D02*
G03*
X671580Y283850I-5080J0D01*
G01*
Y309250D02*
G03*
X671580Y309250I-5080J0D01*
G01*
X487580Y283850D02*
G03*
X487580Y283850I-5080J0D01*
G01*
Y390450D02*
G03*
X487580Y390450I-5080J0D01*
G01*
Y415850D02*
G03*
X487580Y415850I-5080J0D01*
G01*
X102580Y292500D02*
G03*
X102580Y292500I-5080J0D01*
G01*
Y352500D02*
G03*
X102580Y352500I-5080J0D01*
G01*
Y322500D02*
G03*
X102580Y322500I-5080J0D01*
G01*
Y382500D02*
G03*
X102580Y382500I-5080J0D01*
G01*
X966340Y637900D02*
G03*
X966340Y637900I-5080J0D01*
G01*
Y587100D02*
G03*
X966340Y587100I-5080J0D01*
G01*
Y612500D02*
G03*
X966340Y612500I-5080J0D01*
G01*
X664080Y701400D02*
G03*
X664080Y701400I-5080J0D01*
G01*
X791080D02*
G03*
X791080Y701400I-5080J0D01*
G01*
X918080Y523600D02*
G03*
X918080Y523600I-5080J0D01*
G01*
X791080D02*
G03*
X791080Y523600I-5080J0D01*
G01*
X486280Y701400D02*
G03*
X486280Y701400I-5080J0D01*
G01*
X511680D02*
G03*
X511680Y701400I-5080J0D01*
G01*
X562480D02*
G03*
X562480Y701400I-5080J0D01*
G01*
X587880D02*
G03*
X587880Y701400I-5080J0D01*
G01*
X613280D02*
G03*
X613280Y701400I-5080J0D01*
G01*
X638680D02*
G03*
X638680Y701400I-5080J0D01*
G01*
X689480D02*
G03*
X689480Y701400I-5080J0D01*
G01*
X714880D02*
G03*
X714880Y701400I-5080J0D01*
G01*
X740280D02*
G03*
X740280Y701400I-5080J0D01*
G01*
X765680D02*
G03*
X765680Y701400I-5080J0D01*
G01*
X816480D02*
G03*
X816480Y701400I-5080J0D01*
G01*
X841880D02*
G03*
X841880Y701400I-5080J0D01*
G01*
X867280D02*
G03*
X867280Y701400I-5080J0D01*
G01*
X892680D02*
G03*
X892680Y701400I-5080J0D01*
G01*
X943480D02*
G03*
X943480Y701400I-5080J0D01*
G01*
X968880D02*
G03*
X968880Y701400I-5080J0D01*
G01*
Y523600D02*
G03*
X968880Y523600I-5080J0D01*
G01*
X943480D02*
G03*
X943480Y523600I-5080J0D01*
G01*
X892680D02*
G03*
X892680Y523600I-5080J0D01*
G01*
X867280D02*
G03*
X867280Y523600I-5080J0D01*
G01*
X841880D02*
G03*
X841880Y523600I-5080J0D01*
G01*
X816480D02*
G03*
X816480Y523600I-5080J0D01*
G01*
X765680D02*
G03*
X765680Y523600I-5080J0D01*
G01*
X740280D02*
G03*
X740280Y523600I-5080J0D01*
G01*
X714880D02*
G03*
X714880Y523600I-5080J0D01*
G01*
X689480D02*
G03*
X689480Y523600I-5080J0D01*
G01*
X638680D02*
G03*
X638680Y523600I-5080J0D01*
G01*
X613280D02*
G03*
X613280Y523600I-5080J0D01*
G01*
X587880D02*
G03*
X587880Y523600I-5080J0D01*
G01*
X562480D02*
G03*
X562480Y523600I-5080J0D01*
G01*
X511680D02*
G03*
X511680Y523600I-5080J0D01*
G01*
X486280D02*
G03*
X486280Y523600I-5080J0D01*
G01*
X537080D02*
G03*
X537080Y523600I-5080J0D01*
G01*
X664080D02*
G03*
X664080Y523600I-5080J0D01*
G01*
X537080Y701400D02*
G03*
X537080Y701400I-5080J0D01*
G01*
X918080D02*
G03*
X918080Y701400I-5080J0D01*
G01*
X72580Y707500D02*
G03*
X72580Y707500I-5080J0D01*
G01*
Y677500D02*
G03*
X72580Y677500I-5080J0D01*
G01*
Y767500D02*
G03*
X72580Y767500I-5080J0D01*
G01*
Y737500D02*
G03*
X72580Y737500I-5080J0D01*
G01*
Y647500D02*
G03*
X72580Y647500I-5080J0D01*
G01*
Y527500D02*
G03*
X72580Y527500I-5080J0D01*
G01*
Y497500D02*
G03*
X72580Y497500I-5080J0D01*
G01*
Y587500D02*
G03*
X72580Y587500I-5080J0D01*
G01*
Y557500D02*
G03*
X72580Y557500I-5080J0D01*
G01*
X102580Y497500D02*
G03*
X102580Y497500I-5080J0D01*
G01*
Y527500D02*
G03*
X102580Y527500I-5080J0D01*
G01*
Y557500D02*
G03*
X102580Y557500I-5080J0D01*
G01*
Y587500D02*
G03*
X102580Y587500I-5080J0D01*
G01*
Y617500D02*
G03*
X102580Y617500I-5080J0D01*
G01*
Y647500D02*
G03*
X102580Y647500I-5080J0D01*
G01*
Y677500D02*
G03*
X102580Y677500I-5080J0D01*
G01*
Y707500D02*
G03*
X102580Y707500I-5080J0D01*
G01*
Y737500D02*
G03*
X102580Y737500I-5080J0D01*
G01*
Y767500D02*
G03*
X102580Y767500I-5080J0D01*
G01*
X900880Y88000D02*
G03*
X900880Y88000I-5080J0D01*
G01*
X773880D02*
G03*
X773880Y88000I-5080J0D01*
G01*
X799280D02*
G03*
X799280Y88000I-5080J0D01*
G01*
X824680D02*
G03*
X824680Y88000I-5080J0D01*
G01*
X850080D02*
G03*
X850080Y88000I-5080J0D01*
G01*
X875480D02*
G03*
X875480Y88000I-5080J0D01*
G01*
X926280D02*
G03*
X926280Y88000I-5080J0D01*
G01*
X862280Y376000D02*
G03*
X862280Y376000I-5080J0D01*
G01*
X836880D02*
G03*
X836880Y376000I-5080J0D01*
G01*
X72580Y352500D02*
G03*
X72580Y352500I-5080J0D01*
G01*
Y322500D02*
G03*
X72580Y322500I-5080J0D01*
G01*
Y292500D02*
G03*
X72580Y292500I-5080J0D01*
G01*
Y262500D02*
G03*
X72580Y262500I-5080J0D01*
G01*
X102580D02*
G03*
X102580Y262500I-5080J0D01*
G01*
X72580Y382500D02*
G03*
X72580Y382500I-5080J0D01*
G01*
D67*
X20570Y513820D02*
Y523980D01*
X30730D01*
Y513820D01*
X20570D01*
X20570Y740820D02*
Y750980D01*
X30730D01*
Y740820D01*
X20570D01*
Y355820D02*
Y365980D01*
X30730D01*
Y355820D01*
X20570D01*
X20570Y278820D02*
Y288980D01*
X30730D01*
Y278820D01*
X20570D01*
X556500Y330920D02*
X551420Y341080D01*
X561580D01*
X556500Y330920D01*
X391000Y-104330D02*
X385920Y-94170D01*
X396080D01*
X391000Y-104330D01*
X309250Y118420D02*
X304170Y128580D01*
X314330D01*
X309250Y118420D01*
X95500Y58670D02*
X90420Y68830D01*
X100580D01*
X95500Y58670D01*
X715500Y582420D02*
X710420Y592580D01*
X720580D01*
X715500Y582420D01*
X431750Y552920D02*
X426670Y563080D01*
X436830D01*
X431750Y552920D01*
X414000Y542070D02*
X408920Y552230D01*
X419080D01*
X414000Y542070D01*
X349000D02*
X343920Y552230D01*
X354080D01*
X349000Y542070D01*
Y570547D02*
X343920Y580707D01*
X354080D01*
X349000Y570547D01*
X315437Y380084D02*
X310357Y390244D01*
X320517D01*
X315437Y380084D01*
X383520Y330940D02*
X378440Y341100D01*
X388600D01*
X383520Y330940D01*
X748750Y852670D02*
X743670Y862830D01*
X753830D01*
X748750Y852670D01*
X492500Y844170D02*
X487420Y854330D01*
X497580D01*
X492500Y844170D01*
X966250Y832920D02*
X961170Y843080D01*
X971330D01*
X966250Y832920D01*
X601250Y123670D02*
X596170Y133830D01*
X606330D01*
X601250Y123670D01*
X66750Y447670D02*
X61670Y457830D01*
X71830D01*
X66750Y447670D01*
X321500Y659670D02*
X316420Y669830D01*
X326580D01*
X321500Y659670D01*
X564000Y848920D02*
X558920Y859080D01*
X569080D01*
X564000Y848920D01*
X523500Y425420D02*
X518420Y435580D01*
X528580D01*
X523500Y425420D01*
X536000Y438070D02*
X530920Y448230D01*
X541080D01*
X536000Y438070D01*
X151770Y146690D02*
X146690Y156850D01*
X156850D01*
X151770Y146690D01*
X913000Y945920D02*
X907920Y956080D01*
X918080D01*
X913000Y945920D01*
X709000Y946920D02*
X703920Y957080D01*
X714080D01*
X709000Y946920D01*
X108000Y403920D02*
X102920Y414080D01*
X113080D01*
X108000Y403920D01*
X457000Y792920D02*
X451920Y803080D01*
X462080D01*
X457000Y792920D01*
X943000Y291420D02*
X937920Y301580D01*
X948080D01*
X943000Y291420D01*
X335000Y195420D02*
X329920Y205580D01*
X340080D01*
X335000Y195420D01*
X305000Y228920D02*
X299920Y239080D01*
X310080D01*
X305000Y228920D01*
X355000Y163920D02*
X349920Y174080D01*
X360080D01*
X355000Y163920D01*
X957500Y550420D02*
X960040Y552960D01*
X962580D01*
X960040Y555500D01*
X962580Y558040D01*
X960040D01*
X957500Y560580D01*
X954960Y558040D01*
X952420D01*
X954960Y555500D01*
X952420Y552960D01*
X954960D01*
X957500Y550420D01*
X487500Y664420D02*
X490040Y666960D01*
X492580D01*
X490040Y669500D01*
X492580Y672040D01*
X490040D01*
X487500Y674580D01*
X484960Y672040D01*
X482420D01*
X484960Y669500D01*
X482420Y666960D01*
X484960D01*
X487500Y664420D01*
X957500D02*
X960040Y666960D01*
X962580D01*
X960040Y669500D01*
X962580Y672040D01*
X960040D01*
X957500Y674580D01*
X954960Y672040D01*
X952420D01*
X954960Y669500D01*
X952420Y666960D01*
X954960D01*
X957500Y664420D01*
X487500Y550420D02*
X490040Y552960D01*
X492580D01*
X490040Y555500D01*
X492580Y558040D01*
X490040D01*
X487500Y560580D01*
X484960Y558040D01*
X482420D01*
X484960Y555500D01*
X482420Y552960D01*
X484960D01*
X487500Y550420D01*
X19920Y19920D02*
Y30080D01*
X30080D01*
Y19920D01*
X19920D01*
X749750Y30920D02*
X744670Y41080D01*
X754830D01*
X749750Y30920D01*
X234500Y232920D02*
X229420Y243080D01*
X239580D01*
X234500Y232920D01*
X726000Y331670D02*
X720920Y341830D01*
X731080D01*
X726000Y331670D01*
X123000Y760920D02*
X117920Y771080D01*
X128080D01*
X123000Y760920D01*
X519000Y474920D02*
X513920Y485080D01*
X524080D01*
X519000Y474920D01*
X389000Y614920D02*
X383920Y625080D01*
X394080D01*
X389000Y614920D01*
X340000Y675920D02*
X334920Y686080D01*
X345080D01*
X340000Y675920D01*
X522000Y589920D02*
X516920Y600080D01*
X527080D01*
X522000Y589920D01*
X537000Y607920D02*
X531920Y618080D01*
X542080D01*
X537000Y607920D01*
X554000Y449920D02*
X548920Y460080D01*
X559080D01*
X554000Y449920D01*
X552000Y889920D02*
X546920Y900080D01*
X557080D01*
X552000Y889920D01*
X598000Y257920D02*
X592920Y268080D01*
X603080D01*
X598000Y257920D01*
X812000Y946920D02*
X806920Y957080D01*
X817080D01*
X812000Y946920D01*
X615000Y14920D02*
X609920Y25080D01*
X620080D01*
X615000Y14920D01*
X19920Y967420D02*
Y977580D01*
X30080D01*
Y967420D01*
X19920D01*
X969920Y19920D02*
Y30080D01*
X980080D01*
Y19920D01*
X969920D01*
Y969920D02*
Y980080D01*
X980080D01*
Y969920D01*
X969920D01*
M02*
