%TF.GenerationSoftware,Altium Limited,Altium Designer,23.4.1 (23)*%
G04 Layer_Color=8388736*
%FSLAX45Y45*%
%MOMM*%
%TF.SameCoordinates,6CF259D0-23F4-4C04-AF4F-6D395A9B2DD4*%
%TF.FilePolarity,Negative*%
%TF.FileFunction,Soldermask,Top*%
%TF.Part,Single*%
G01*
G75*
%TA.AperFunction,NonConductor*%
%ADD45C,1.80000*%
%TA.AperFunction,SMDPad,CuDef*%
%ADD46R,1.35320X1.65320*%
%ADD47R,1.65320X1.35320*%
%ADD48R,1.15320X1.60320*%
%ADD49R,1.60320X1.15320*%
%ADD50O,1.65320X0.50320*%
%ADD51R,3.20320X1.45320*%
%ADD52R,6.60320X5.75320*%
%ADD53R,1.75320X2.60320*%
%ADD54R,0.80320X1.20320*%
%ADD55O,2.50320X1.60320*%
%ADD56O,1.60320X2.50320*%
%ADD57R,2.60320X1.75320*%
%ADD58R,4.40320X2.30320*%
%ADD59R,1.30320X1.65320*%
%ADD60R,1.00320X0.75320*%
%ADD61R,2.85320X1.85320*%
%TA.AperFunction,ComponentPad*%
%ADD62C,1.80320*%
%ADD63R,1.80320X1.80320*%
%TA.AperFunction,ViaPad*%
%ADD64C,1.47320*%
%ADD65C,3.70320*%
%ADD66C,3.20320*%
G36*
X9644572Y7324095D02*
X9654969Y7322726D01*
X9656275Y7322466D01*
X9666405Y7319752D01*
X9667666Y7319324D01*
X9677355Y7315311D01*
X9678549Y7314722D01*
X9678550Y7314721D01*
X9687632Y7309478D01*
X9688739Y7308738D01*
X9697059Y7302354D01*
X9698060Y7301476D01*
X9705475Y7294061D01*
X9706353Y7293060D01*
X9712737Y7284740D01*
X9713477Y7283632D01*
X9718721Y7274550D01*
X9719310Y7273356D01*
X9723323Y7263667D01*
X9723751Y7262406D01*
X9726465Y7252278D01*
X9726465Y7252277D01*
X9726725Y7250970D01*
X9728094Y7240573D01*
X9728181Y7239244D01*
Y7239244D01*
Y7239244D01*
Y7234001D01*
X9728181Y7014000D01*
Y7008757D01*
X9728094Y7007428D01*
X9726725Y6997031D01*
Y6997031D01*
X9726465Y6995725D01*
X9723751Y6985595D01*
X9723323Y6984334D01*
X9719310Y6974645D01*
X9718721Y6973451D01*
X9713478Y6964369D01*
X9712738Y6963262D01*
X9712737Y6963261D01*
X9706353Y6954941D01*
X9705475Y6953940D01*
X9698060Y6946525D01*
X9697059Y6945647D01*
X9688739Y6939263D01*
X9687631Y6938523D01*
X9678549Y6933279D01*
X9677355Y6932690D01*
X9667666Y6928677D01*
X9666405Y6928249D01*
X9666404Y6928249D01*
X9656276Y6925535D01*
X9656275Y6925535D01*
X9654969Y6925275D01*
X9644573Y6923906D01*
X9644572Y6923906D01*
X9643243Y6923819D01*
X9638000Y6923819D01*
X9632757Y6923819D01*
X9632756D01*
X9632756D01*
X9631427Y6923906D01*
X9621030Y6925275D01*
X9619724Y6925535D01*
X9609594Y6928249D01*
X9608333Y6928677D01*
X9598645Y6932690D01*
X9597450Y6933279D01*
X9597449Y6933280D01*
X9588367Y6938523D01*
X9587260Y6939262D01*
X9578940Y6945647D01*
X9577939Y6946525D01*
X9570524Y6953940D01*
X9569646Y6954941D01*
X9563262Y6963261D01*
X9562522Y6964369D01*
X9557278Y6973451D01*
X9556689Y6974645D01*
X9552676Y6984334D01*
X9552248Y6985595D01*
X9549534Y6995723D01*
X9549534Y6995724D01*
X9549274Y6997031D01*
X9547905Y7007428D01*
X9547818Y7008757D01*
Y7008757D01*
Y7008757D01*
Y7014000D01*
Y7234001D01*
Y7239244D01*
D01*
Y7239244D01*
X9547905Y7240573D01*
X9549274Y7250970D01*
X9549534Y7252276D01*
X9552248Y7262406D01*
X9552676Y7263667D01*
X9556689Y7273356D01*
X9557278Y7274550D01*
X9557279Y7274551D01*
X9562522Y7283633D01*
X9563262Y7284740D01*
X9569646Y7293060D01*
X9570524Y7294061D01*
X9577939Y7301476D01*
X9578940Y7302354D01*
X9587260Y7308738D01*
X9588368Y7309478D01*
X9597450Y7314722D01*
X9598644Y7315311D01*
X9608333Y7319324D01*
X9609594Y7319752D01*
X9619722Y7322466D01*
X9619723Y7322466D01*
X9621030Y7322726D01*
X9631427Y7324095D01*
X9632756Y7324182D01*
X9632756D01*
X9632756D01*
X9643243D01*
X9643243D01*
D01*
X9644572Y7324095D01*
D02*
G37*
G36*
X9390572D02*
X9400969Y7322726D01*
X9402275Y7322466D01*
X9412405Y7319752D01*
X9413666Y7319324D01*
X9423355Y7315311D01*
X9424549Y7314722D01*
X9424550Y7314721D01*
X9433632Y7309478D01*
X9434739Y7308738D01*
X9443059Y7302354D01*
X9444060Y7301476D01*
X9451475Y7294061D01*
X9452353Y7293060D01*
X9458737Y7284740D01*
X9459477Y7283632D01*
X9464721Y7274550D01*
X9465310Y7273356D01*
X9469323Y7263667D01*
X9469751Y7262406D01*
X9472465Y7252278D01*
X9472465Y7252277D01*
X9472725Y7250970D01*
X9474094Y7240573D01*
X9474181Y7239244D01*
Y7239244D01*
Y7239244D01*
Y7234001D01*
X9474181Y7014000D01*
Y7008757D01*
X9474094Y7007428D01*
X9472725Y6997031D01*
Y6997031D01*
X9472465Y6995725D01*
X9469751Y6985595D01*
X9469323Y6984334D01*
X9465310Y6974645D01*
X9464721Y6973451D01*
X9459478Y6964369D01*
X9458738Y6963262D01*
X9458737Y6963261D01*
X9452353Y6954941D01*
X9451475Y6953940D01*
X9444060Y6946525D01*
X9443059Y6945647D01*
X9434739Y6939263D01*
X9433631Y6938523D01*
X9424549Y6933279D01*
X9423355Y6932690D01*
X9413666Y6928677D01*
X9412405Y6928249D01*
X9412404Y6928249D01*
X9402276Y6925535D01*
X9402275Y6925535D01*
X9400969Y6925275D01*
X9390573Y6923906D01*
X9390572Y6923906D01*
X9389243Y6923819D01*
X9384000Y6923819D01*
X9378757Y6923819D01*
X9378756D01*
X9378756D01*
X9377427Y6923906D01*
X9367030Y6925275D01*
X9365724Y6925535D01*
X9355594Y6928249D01*
X9354333Y6928677D01*
X9344645Y6932690D01*
X9343450Y6933279D01*
X9343449Y6933280D01*
X9334367Y6938523D01*
X9333260Y6939262D01*
X9324940Y6945647D01*
X9323939Y6946525D01*
X9316524Y6953940D01*
X9315646Y6954941D01*
X9309262Y6963261D01*
X9308522Y6964369D01*
X9303278Y6973451D01*
X9302689Y6974645D01*
X9298676Y6984334D01*
X9298248Y6985595D01*
X9295534Y6995723D01*
X9295534Y6995724D01*
X9295274Y6997031D01*
X9293905Y7007428D01*
X9293818Y7008757D01*
Y7008757D01*
Y7008757D01*
Y7014000D01*
Y7234001D01*
Y7239244D01*
D01*
Y7239244D01*
X9293905Y7240573D01*
X9295274Y7250970D01*
X9295534Y7252276D01*
X9298248Y7262406D01*
X9298676Y7263667D01*
X9302689Y7273356D01*
X9303278Y7274550D01*
X9303279Y7274551D01*
X9308522Y7283633D01*
X9309262Y7284740D01*
X9315646Y7293060D01*
X9316524Y7294061D01*
X9323939Y7301476D01*
X9324940Y7302354D01*
X9333260Y7308738D01*
X9334368Y7309478D01*
X9343450Y7314722D01*
X9344644Y7315311D01*
X9354333Y7319324D01*
X9355594Y7319752D01*
X9365722Y7322466D01*
X9365723Y7322466D01*
X9367030Y7322726D01*
X9377427Y7324095D01*
X9378756Y7324182D01*
X9378756D01*
X9378756D01*
X9389243D01*
X9389243D01*
D01*
X9390572Y7324095D01*
D02*
G37*
G36*
X8882572D02*
X8892969Y7322726D01*
X8894275Y7322466D01*
X8904405Y7319752D01*
X8905666Y7319324D01*
X8915355Y7315311D01*
X8916549Y7314722D01*
X8916550Y7314721D01*
X8925632Y7309478D01*
X8926739Y7308738D01*
X8935059Y7302354D01*
X8936060Y7301476D01*
X8943475Y7294061D01*
X8944353Y7293060D01*
X8950737Y7284740D01*
X8951477Y7283632D01*
X8956721Y7274550D01*
X8957310Y7273356D01*
X8961323Y7263667D01*
X8961751Y7262406D01*
X8964465Y7252278D01*
X8964465Y7252277D01*
X8964725Y7250970D01*
X8966094Y7240573D01*
X8966181Y7239244D01*
Y7239244D01*
Y7239244D01*
Y7234001D01*
X8966181Y7014000D01*
Y7008757D01*
X8966094Y7007428D01*
X8964725Y6997031D01*
Y6997031D01*
X8964465Y6995725D01*
X8961751Y6985595D01*
X8961323Y6984334D01*
X8957310Y6974645D01*
X8956721Y6973451D01*
X8951478Y6964369D01*
X8950738Y6963262D01*
X8950737Y6963261D01*
X8944353Y6954941D01*
X8943475Y6953940D01*
X8936060Y6946525D01*
X8935059Y6945647D01*
X8926739Y6939263D01*
X8925631Y6938523D01*
X8916549Y6933279D01*
X8915355Y6932690D01*
X8905666Y6928677D01*
X8904405Y6928249D01*
X8904404Y6928249D01*
X8894276Y6925535D01*
X8894275Y6925535D01*
X8892969Y6925275D01*
X8882573Y6923906D01*
X8882572Y6923906D01*
X8881243Y6923819D01*
X8876000Y6923819D01*
X8870757Y6923819D01*
X8870756D01*
X8870756D01*
X8869427Y6923906D01*
X8859030Y6925275D01*
X8857724Y6925535D01*
X8847594Y6928249D01*
X8846333Y6928677D01*
X8836645Y6932690D01*
X8835450Y6933279D01*
X8835449Y6933280D01*
X8826367Y6938523D01*
X8825260Y6939262D01*
X8816940Y6945647D01*
X8815939Y6946525D01*
X8808524Y6953940D01*
X8807646Y6954941D01*
X8801262Y6963261D01*
X8800522Y6964369D01*
X8795278Y6973451D01*
X8794689Y6974645D01*
X8790676Y6984334D01*
X8790248Y6985595D01*
X8787534Y6995723D01*
X8787534Y6995724D01*
X8787274Y6997031D01*
X8785905Y7007428D01*
X8785818Y7008757D01*
Y7008757D01*
Y7008757D01*
Y7014000D01*
Y7234001D01*
Y7239244D01*
D01*
Y7239244D01*
X8785905Y7240573D01*
X8787274Y7250970D01*
X8787534Y7252276D01*
X8790248Y7262406D01*
X8790676Y7263667D01*
X8794689Y7273356D01*
X8795278Y7274550D01*
X8795279Y7274551D01*
X8800522Y7283633D01*
X8801262Y7284740D01*
X8807646Y7293060D01*
X8808524Y7294061D01*
X8815939Y7301476D01*
X8816940Y7302354D01*
X8825260Y7308738D01*
X8826368Y7309478D01*
X8835450Y7314722D01*
X8836644Y7315311D01*
X8846333Y7319324D01*
X8847594Y7319752D01*
X8857722Y7322466D01*
X8857723Y7322466D01*
X8859030Y7322726D01*
X8869427Y7324095D01*
X8870756Y7324182D01*
X8870756D01*
X8870756D01*
X8881243D01*
X8881243D01*
D01*
X8882572Y7324095D01*
D02*
G37*
G36*
X8628572D02*
X8638969Y7322726D01*
X8640275Y7322466D01*
X8650405Y7319752D01*
X8651666Y7319324D01*
X8661355Y7315311D01*
X8662549Y7314722D01*
X8662550Y7314721D01*
X8671632Y7309478D01*
X8672739Y7308738D01*
X8681059Y7302354D01*
X8682060Y7301476D01*
X8689475Y7294061D01*
X8690353Y7293060D01*
X8696737Y7284740D01*
X8697477Y7283632D01*
X8702721Y7274550D01*
X8703310Y7273356D01*
X8707323Y7263667D01*
X8707751Y7262406D01*
X8710465Y7252278D01*
X8710465Y7252277D01*
X8710725Y7250970D01*
X8712094Y7240573D01*
X8712181Y7239244D01*
Y7239244D01*
Y7239244D01*
Y7234001D01*
X8712181Y7014000D01*
Y7008757D01*
X8712094Y7007428D01*
X8710725Y6997031D01*
Y6997031D01*
X8710465Y6995725D01*
X8707751Y6985595D01*
X8707323Y6984334D01*
X8703310Y6974645D01*
X8702721Y6973451D01*
X8697478Y6964369D01*
X8696738Y6963262D01*
X8696737Y6963261D01*
X8690353Y6954941D01*
X8689475Y6953940D01*
X8682060Y6946525D01*
X8681059Y6945647D01*
X8672739Y6939263D01*
X8671631Y6938523D01*
X8662549Y6933279D01*
X8661355Y6932690D01*
X8651666Y6928677D01*
X8650405Y6928249D01*
X8650404Y6928249D01*
X8640276Y6925535D01*
X8640275Y6925535D01*
X8638969Y6925275D01*
X8628573Y6923906D01*
X8628572Y6923906D01*
X8627243Y6923819D01*
X8622000Y6923819D01*
X8616757Y6923819D01*
X8616756D01*
X8616756D01*
X8615427Y6923906D01*
X8605030Y6925275D01*
X8603724Y6925535D01*
X8593594Y6928249D01*
X8592333Y6928677D01*
X8582645Y6932690D01*
X8581450Y6933279D01*
X8581449Y6933280D01*
X8572367Y6938523D01*
X8571260Y6939262D01*
X8562940Y6945647D01*
X8561939Y6946525D01*
X8554524Y6953940D01*
X8553646Y6954941D01*
X8547262Y6963261D01*
X8546522Y6964369D01*
X8541278Y6973451D01*
X8540689Y6974645D01*
X8536676Y6984334D01*
X8536248Y6985595D01*
X8533534Y6995723D01*
X8533534Y6995724D01*
X8533274Y6997031D01*
X8531905Y7007428D01*
X8531818Y7008757D01*
Y7008757D01*
Y7008757D01*
Y7014000D01*
Y7234001D01*
Y7239244D01*
D01*
Y7239244D01*
X8531905Y7240573D01*
X8533274Y7250970D01*
X8533534Y7252276D01*
X8536248Y7262406D01*
X8536676Y7263667D01*
X8540689Y7273356D01*
X8541278Y7274550D01*
X8541279Y7274551D01*
X8546522Y7283633D01*
X8547262Y7284740D01*
X8553646Y7293060D01*
X8554524Y7294061D01*
X8561939Y7301476D01*
X8562940Y7302354D01*
X8571260Y7308738D01*
X8572368Y7309478D01*
X8581450Y7314722D01*
X8582644Y7315311D01*
X8592333Y7319324D01*
X8593594Y7319752D01*
X8603722Y7322466D01*
X8603723Y7322466D01*
X8605030Y7322726D01*
X8615427Y7324095D01*
X8616756Y7324182D01*
X8616756D01*
X8616756D01*
X8627243D01*
X8627243D01*
D01*
X8628572Y7324095D01*
D02*
G37*
G36*
X8374572D02*
X8384969Y7322726D01*
X8386275Y7322466D01*
X8396405Y7319752D01*
X8397666Y7319324D01*
X8407355Y7315311D01*
X8408549Y7314722D01*
X8408550Y7314721D01*
X8417632Y7309478D01*
X8418739Y7308738D01*
X8427059Y7302354D01*
X8428060Y7301476D01*
X8435475Y7294061D01*
X8436353Y7293060D01*
X8442737Y7284740D01*
X8443477Y7283632D01*
X8448721Y7274550D01*
X8449310Y7273356D01*
X8453323Y7263667D01*
X8453751Y7262406D01*
X8456465Y7252278D01*
X8456465Y7252277D01*
X8456725Y7250970D01*
X8458094Y7240573D01*
X8458181Y7239244D01*
Y7239244D01*
Y7239244D01*
Y7234001D01*
X8458181Y7014000D01*
Y7008757D01*
X8458094Y7007428D01*
X8456725Y6997031D01*
Y6997031D01*
X8456465Y6995725D01*
X8453751Y6985595D01*
X8453323Y6984334D01*
X8449310Y6974645D01*
X8448721Y6973451D01*
X8443478Y6964369D01*
X8442738Y6963262D01*
X8442737Y6963261D01*
X8436353Y6954941D01*
X8435475Y6953940D01*
X8428060Y6946525D01*
X8427059Y6945647D01*
X8418739Y6939263D01*
X8417631Y6938523D01*
X8408549Y6933279D01*
X8407355Y6932690D01*
X8397666Y6928677D01*
X8396405Y6928249D01*
X8396404Y6928249D01*
X8386276Y6925535D01*
X8386275Y6925535D01*
X8384969Y6925275D01*
X8374573Y6923906D01*
X8374572Y6923906D01*
X8373243Y6923819D01*
X8368000Y6923819D01*
X8362757Y6923819D01*
X8362756D01*
X8362756D01*
X8361427Y6923906D01*
X8351030Y6925275D01*
X8349724Y6925535D01*
X8339594Y6928249D01*
X8338333Y6928677D01*
X8328645Y6932690D01*
X8327450Y6933279D01*
X8327449Y6933280D01*
X8318367Y6938523D01*
X8317260Y6939262D01*
X8308940Y6945647D01*
X8307939Y6946525D01*
X8300524Y6953940D01*
X8299646Y6954941D01*
X8293262Y6963261D01*
X8292522Y6964369D01*
X8287278Y6973451D01*
X8286689Y6974645D01*
X8282676Y6984334D01*
X8282248Y6985595D01*
X8279534Y6995723D01*
X8279534Y6995724D01*
X8279274Y6997031D01*
X8277905Y7007428D01*
X8277818Y7008757D01*
Y7008757D01*
Y7008757D01*
Y7014000D01*
Y7234001D01*
Y7239244D01*
D01*
Y7239244D01*
X8277905Y7240573D01*
X8279274Y7250970D01*
X8279534Y7252276D01*
X8282248Y7262406D01*
X8282676Y7263667D01*
X8286689Y7273356D01*
X8287278Y7274550D01*
X8287279Y7274551D01*
X8292522Y7283633D01*
X8293262Y7284740D01*
X8299646Y7293060D01*
X8300524Y7294061D01*
X8307939Y7301476D01*
X8308940Y7302354D01*
X8317260Y7308738D01*
X8318368Y7309478D01*
X8327450Y7314722D01*
X8328644Y7315311D01*
X8338333Y7319324D01*
X8339594Y7319752D01*
X8349722Y7322466D01*
X8349723Y7322466D01*
X8351030Y7322726D01*
X8361427Y7324095D01*
X8362756Y7324182D01*
X8362756D01*
X8362756D01*
X8373243D01*
X8373243D01*
D01*
X8374572Y7324095D01*
D02*
G37*
G36*
X8120572D02*
X8130969Y7322726D01*
X8132275Y7322466D01*
X8142405Y7319752D01*
X8143666Y7319324D01*
X8153355Y7315311D01*
X8154549Y7314722D01*
X8154550Y7314721D01*
X8163632Y7309478D01*
X8164739Y7308738D01*
X8173059Y7302354D01*
X8174060Y7301476D01*
X8181475Y7294061D01*
X8182353Y7293060D01*
X8188737Y7284740D01*
X8189477Y7283632D01*
X8194721Y7274550D01*
X8195310Y7273356D01*
X8199323Y7263667D01*
X8199751Y7262406D01*
X8202465Y7252278D01*
X8202465Y7252277D01*
X8202725Y7250970D01*
X8204094Y7240573D01*
X8204181Y7239244D01*
Y7239244D01*
Y7239244D01*
Y7234001D01*
X8204181Y7014000D01*
Y7008757D01*
X8204094Y7007428D01*
X8202725Y6997031D01*
Y6997031D01*
X8202465Y6995725D01*
X8199751Y6985595D01*
X8199323Y6984334D01*
X8195310Y6974645D01*
X8194721Y6973451D01*
X8189478Y6964369D01*
X8188738Y6963262D01*
X8188737Y6963261D01*
X8182353Y6954941D01*
X8181475Y6953940D01*
X8174060Y6946525D01*
X8173059Y6945647D01*
X8164739Y6939263D01*
X8163631Y6938523D01*
X8154549Y6933279D01*
X8153355Y6932690D01*
X8143666Y6928677D01*
X8142405Y6928249D01*
X8142404Y6928249D01*
X8132276Y6925535D01*
X8132275Y6925535D01*
X8130969Y6925275D01*
X8120573Y6923906D01*
X8120572Y6923906D01*
X8119243Y6923819D01*
X8114000Y6923819D01*
X8108757Y6923819D01*
X8108756D01*
X8108756D01*
X8107427Y6923906D01*
X8097030Y6925275D01*
X8095724Y6925535D01*
X8085594Y6928249D01*
X8084333Y6928677D01*
X8074645Y6932690D01*
X8073450Y6933279D01*
X8073449Y6933280D01*
X8064367Y6938523D01*
X8063260Y6939262D01*
X8054940Y6945647D01*
X8053939Y6946525D01*
X8046524Y6953940D01*
X8045646Y6954941D01*
X8039262Y6963261D01*
X8038522Y6964369D01*
X8033278Y6973451D01*
X8032689Y6974645D01*
X8028676Y6984334D01*
X8028248Y6985595D01*
X8025534Y6995723D01*
X8025534Y6995724D01*
X8025274Y6997031D01*
X8023905Y7007428D01*
X8023818Y7008757D01*
Y7008757D01*
Y7008757D01*
Y7014000D01*
Y7234001D01*
Y7239244D01*
D01*
Y7239244D01*
X8023905Y7240573D01*
X8025274Y7250970D01*
X8025534Y7252276D01*
X8028248Y7262406D01*
X8028676Y7263667D01*
X8032689Y7273356D01*
X8033278Y7274550D01*
X8033279Y7274551D01*
X8038522Y7283633D01*
X8039262Y7284740D01*
X8045646Y7293060D01*
X8046524Y7294061D01*
X8053939Y7301476D01*
X8054940Y7302354D01*
X8063260Y7308738D01*
X8064368Y7309478D01*
X8073450Y7314722D01*
X8074644Y7315311D01*
X8084333Y7319324D01*
X8085594Y7319752D01*
X8095722Y7322466D01*
X8095723Y7322466D01*
X8097030Y7322726D01*
X8107427Y7324095D01*
X8108756Y7324182D01*
X8108756D01*
X8108756D01*
X8119243D01*
X8119243D01*
D01*
X8120572Y7324095D01*
D02*
G37*
G36*
X7612572D02*
X7622969Y7322726D01*
X7624275Y7322466D01*
X7634405Y7319752D01*
X7635666Y7319324D01*
X7645355Y7315311D01*
X7646549Y7314722D01*
X7646550Y7314721D01*
X7655632Y7309478D01*
X7656739Y7308738D01*
X7665059Y7302354D01*
X7666060Y7301476D01*
X7673475Y7294061D01*
X7674353Y7293060D01*
X7680737Y7284740D01*
X7681477Y7283632D01*
X7686721Y7274550D01*
X7687310Y7273356D01*
X7691323Y7263667D01*
X7691751Y7262406D01*
X7694465Y7252278D01*
X7694465Y7252277D01*
X7694725Y7250970D01*
X7696094Y7240573D01*
X7696181Y7239244D01*
Y7239244D01*
Y7239244D01*
Y7234001D01*
X7696181Y7014000D01*
Y7008757D01*
X7696094Y7007428D01*
X7694725Y6997031D01*
Y6997031D01*
X7694465Y6995725D01*
X7691751Y6985595D01*
X7691323Y6984334D01*
X7687310Y6974645D01*
X7686721Y6973451D01*
X7681478Y6964369D01*
X7680738Y6963262D01*
X7680737Y6963261D01*
X7674353Y6954941D01*
X7673475Y6953940D01*
X7666060Y6946525D01*
X7665059Y6945647D01*
X7656739Y6939263D01*
X7655631Y6938523D01*
X7646549Y6933279D01*
X7645355Y6932690D01*
X7635666Y6928677D01*
X7634405Y6928249D01*
X7634404Y6928249D01*
X7624276Y6925535D01*
X7624275Y6925535D01*
X7622969Y6925275D01*
X7612573Y6923906D01*
X7612572Y6923906D01*
X7611243Y6923819D01*
X7606000Y6923819D01*
X7600757Y6923819D01*
X7600756D01*
X7600756D01*
X7599427Y6923906D01*
X7589030Y6925275D01*
X7587724Y6925535D01*
X7577594Y6928249D01*
X7576333Y6928677D01*
X7566645Y6932690D01*
X7565450Y6933279D01*
X7565449Y6933280D01*
X7556367Y6938523D01*
X7555260Y6939262D01*
X7546940Y6945647D01*
X7545939Y6946525D01*
X7538524Y6953940D01*
X7537646Y6954941D01*
X7531262Y6963261D01*
X7530522Y6964369D01*
X7525278Y6973451D01*
X7524689Y6974645D01*
X7520676Y6984334D01*
X7520248Y6985595D01*
X7517534Y6995723D01*
X7517534Y6995724D01*
X7517274Y6997031D01*
X7515905Y7007428D01*
X7515818Y7008757D01*
Y7008757D01*
Y7008757D01*
Y7014000D01*
Y7234001D01*
Y7239244D01*
D01*
Y7239244D01*
X7515905Y7240573D01*
X7517274Y7250970D01*
X7517534Y7252276D01*
X7520248Y7262406D01*
X7520676Y7263667D01*
X7524689Y7273356D01*
X7525278Y7274550D01*
X7525279Y7274551D01*
X7530522Y7283633D01*
X7531262Y7284740D01*
X7537646Y7293060D01*
X7538524Y7294061D01*
X7545939Y7301476D01*
X7546940Y7302354D01*
X7555260Y7308738D01*
X7556368Y7309478D01*
X7565450Y7314722D01*
X7566644Y7315311D01*
X7576333Y7319324D01*
X7577594Y7319752D01*
X7587722Y7322466D01*
X7587723Y7322466D01*
X7589030Y7322726D01*
X7599427Y7324095D01*
X7600756Y7324182D01*
X7600756D01*
X7600756D01*
X7611243D01*
X7611243D01*
D01*
X7612572Y7324095D01*
D02*
G37*
G36*
X7358572D02*
X7368969Y7322726D01*
X7370275Y7322466D01*
X7380405Y7319752D01*
X7381666Y7319324D01*
X7391355Y7315311D01*
X7392549Y7314722D01*
X7392550Y7314721D01*
X7401632Y7309478D01*
X7402739Y7308738D01*
X7411059Y7302354D01*
X7412060Y7301476D01*
X7419475Y7294061D01*
X7420353Y7293060D01*
X7426737Y7284740D01*
X7427477Y7283632D01*
X7432721Y7274550D01*
X7433310Y7273356D01*
X7437323Y7263667D01*
X7437751Y7262406D01*
X7440465Y7252278D01*
X7440465Y7252277D01*
X7440725Y7250970D01*
X7442094Y7240573D01*
X7442181Y7239244D01*
Y7239244D01*
Y7239244D01*
Y7234001D01*
X7442181Y7014000D01*
Y7008757D01*
X7442094Y7007428D01*
X7440725Y6997031D01*
Y6997031D01*
X7440465Y6995725D01*
X7437751Y6985595D01*
X7437323Y6984334D01*
X7433310Y6974645D01*
X7432721Y6973451D01*
X7427478Y6964369D01*
X7426738Y6963262D01*
X7426737Y6963261D01*
X7420353Y6954941D01*
X7419475Y6953940D01*
X7412060Y6946525D01*
X7411059Y6945647D01*
X7402739Y6939263D01*
X7401631Y6938523D01*
X7392549Y6933279D01*
X7391355Y6932690D01*
X7381666Y6928677D01*
X7380405Y6928249D01*
X7380404Y6928249D01*
X7370276Y6925535D01*
X7370275Y6925535D01*
X7368969Y6925275D01*
X7358573Y6923906D01*
X7358572Y6923906D01*
X7357243Y6923819D01*
X7352000Y6923819D01*
X7346757Y6923819D01*
X7346756D01*
X7346756D01*
X7345427Y6923906D01*
X7335030Y6925275D01*
X7333724Y6925535D01*
X7323594Y6928249D01*
X7322333Y6928677D01*
X7312645Y6932690D01*
X7311450Y6933279D01*
X7311449Y6933280D01*
X7302367Y6938523D01*
X7301260Y6939262D01*
X7292940Y6945647D01*
X7291939Y6946525D01*
X7284524Y6953940D01*
X7283646Y6954941D01*
X7277262Y6963261D01*
X7276522Y6964369D01*
X7271278Y6973451D01*
X7270689Y6974645D01*
X7266676Y6984334D01*
X7266248Y6985595D01*
X7263534Y6995723D01*
X7263534Y6995724D01*
X7263274Y6997031D01*
X7261905Y7007428D01*
X7261818Y7008757D01*
Y7008757D01*
Y7008757D01*
Y7014000D01*
Y7234001D01*
Y7239244D01*
D01*
Y7239244D01*
X7261905Y7240573D01*
X7263274Y7250970D01*
X7263534Y7252276D01*
X7266248Y7262406D01*
X7266676Y7263667D01*
X7270689Y7273356D01*
X7271278Y7274550D01*
X7271279Y7274551D01*
X7276522Y7283633D01*
X7277262Y7284740D01*
X7283646Y7293060D01*
X7284524Y7294061D01*
X7291939Y7301476D01*
X7292940Y7302354D01*
X7301260Y7308738D01*
X7302368Y7309478D01*
X7311450Y7314722D01*
X7312644Y7315311D01*
X7322333Y7319324D01*
X7323594Y7319752D01*
X7333722Y7322466D01*
X7333723Y7322466D01*
X7335030Y7322726D01*
X7345427Y7324095D01*
X7346756Y7324182D01*
X7346756D01*
X7346756D01*
X7357243D01*
X7357243D01*
D01*
X7358572Y7324095D01*
D02*
G37*
G36*
X7104572D02*
X7114969Y7322726D01*
X7116275Y7322466D01*
X7126405Y7319752D01*
X7127666Y7319324D01*
X7137355Y7315311D01*
X7138549Y7314722D01*
X7138550Y7314721D01*
X7147632Y7309478D01*
X7148739Y7308738D01*
X7157059Y7302354D01*
X7158060Y7301476D01*
X7165475Y7294061D01*
X7166353Y7293060D01*
X7172737Y7284740D01*
X7173477Y7283632D01*
X7178721Y7274550D01*
X7179310Y7273356D01*
X7183323Y7263667D01*
X7183751Y7262406D01*
X7186465Y7252278D01*
X7186465Y7252277D01*
X7186725Y7250970D01*
X7188094Y7240573D01*
X7188181Y7239244D01*
Y7239244D01*
Y7239244D01*
Y7234001D01*
X7188181Y7014000D01*
Y7008757D01*
X7188094Y7007428D01*
X7186725Y6997031D01*
Y6997031D01*
X7186465Y6995725D01*
X7183751Y6985595D01*
X7183323Y6984334D01*
X7179310Y6974645D01*
X7178721Y6973451D01*
X7173478Y6964369D01*
X7172738Y6963262D01*
X7172737Y6963261D01*
X7166353Y6954941D01*
X7165475Y6953940D01*
X7158060Y6946525D01*
X7157059Y6945647D01*
X7148739Y6939263D01*
X7147631Y6938523D01*
X7138549Y6933279D01*
X7137355Y6932690D01*
X7127666Y6928677D01*
X7126405Y6928249D01*
X7126404Y6928249D01*
X7116276Y6925535D01*
X7116275Y6925535D01*
X7114969Y6925275D01*
X7104573Y6923906D01*
X7104572Y6923906D01*
X7103243Y6923819D01*
X7098000Y6923819D01*
X7092757Y6923819D01*
X7092756D01*
X7092756D01*
X7091427Y6923906D01*
X7081030Y6925275D01*
X7079724Y6925535D01*
X7069594Y6928249D01*
X7068333Y6928677D01*
X7058645Y6932690D01*
X7057450Y6933279D01*
X7057449Y6933280D01*
X7048367Y6938523D01*
X7047260Y6939262D01*
X7038940Y6945647D01*
X7037939Y6946525D01*
X7030524Y6953940D01*
X7029646Y6954941D01*
X7023262Y6963261D01*
X7022522Y6964369D01*
X7017278Y6973451D01*
X7016689Y6974645D01*
X7012676Y6984334D01*
X7012248Y6985595D01*
X7009534Y6995723D01*
X7009534Y6995724D01*
X7009274Y6997031D01*
X7007905Y7007428D01*
X7007818Y7008757D01*
Y7008757D01*
Y7008757D01*
Y7014000D01*
Y7234001D01*
Y7239244D01*
D01*
Y7239244D01*
X7007905Y7240573D01*
X7009274Y7250970D01*
X7009534Y7252276D01*
X7012248Y7262406D01*
X7012676Y7263667D01*
X7016689Y7273356D01*
X7017278Y7274550D01*
X7017279Y7274551D01*
X7022522Y7283633D01*
X7023262Y7284740D01*
X7029646Y7293060D01*
X7030524Y7294061D01*
X7037939Y7301476D01*
X7038940Y7302354D01*
X7047260Y7308738D01*
X7048368Y7309478D01*
X7057450Y7314722D01*
X7058644Y7315311D01*
X7068333Y7319324D01*
X7069594Y7319752D01*
X7079722Y7322466D01*
X7079723Y7322466D01*
X7081030Y7322726D01*
X7091427Y7324095D01*
X7092756Y7324182D01*
X7092756D01*
X7092756D01*
X7103243D01*
X7103243D01*
D01*
X7104572Y7324095D01*
D02*
G37*
G36*
X6850572D02*
X6860969Y7322726D01*
X6862275Y7322466D01*
X6872405Y7319752D01*
X6873666Y7319324D01*
X6883355Y7315311D01*
X6884549Y7314722D01*
X6884550Y7314721D01*
X6893632Y7309478D01*
X6894739Y7308738D01*
X6903059Y7302354D01*
X6904060Y7301476D01*
X6911475Y7294061D01*
X6912353Y7293060D01*
X6918737Y7284740D01*
X6919477Y7283632D01*
X6924721Y7274550D01*
X6925310Y7273356D01*
X6929323Y7263667D01*
X6929751Y7262406D01*
X6932465Y7252278D01*
X6932465Y7252277D01*
X6932725Y7250970D01*
X6934094Y7240573D01*
X6934181Y7239244D01*
Y7239244D01*
Y7239244D01*
Y7234001D01*
X6934181Y7014000D01*
Y7008757D01*
X6934094Y7007428D01*
X6932725Y6997031D01*
Y6997031D01*
X6932465Y6995725D01*
X6929751Y6985595D01*
X6929323Y6984334D01*
X6925310Y6974645D01*
X6924721Y6973451D01*
X6919478Y6964369D01*
X6918738Y6963262D01*
X6918737Y6963261D01*
X6912353Y6954941D01*
X6911475Y6953940D01*
X6904060Y6946525D01*
X6903059Y6945647D01*
X6894739Y6939263D01*
X6893631Y6938523D01*
X6884549Y6933279D01*
X6883355Y6932690D01*
X6873666Y6928677D01*
X6872405Y6928249D01*
X6872404Y6928249D01*
X6862276Y6925535D01*
X6862275Y6925535D01*
X6860969Y6925275D01*
X6850573Y6923906D01*
X6850572Y6923906D01*
X6849243Y6923819D01*
X6844000Y6923819D01*
X6838757Y6923819D01*
X6838756D01*
X6838756D01*
X6837427Y6923906D01*
X6827030Y6925275D01*
X6825724Y6925535D01*
X6815594Y6928249D01*
X6814333Y6928677D01*
X6804645Y6932690D01*
X6803450Y6933279D01*
X6803449Y6933280D01*
X6794367Y6938523D01*
X6793260Y6939262D01*
X6784940Y6945647D01*
X6783939Y6946525D01*
X6776524Y6953940D01*
X6775646Y6954941D01*
X6769262Y6963261D01*
X6768522Y6964369D01*
X6763278Y6973451D01*
X6762689Y6974645D01*
X6758676Y6984334D01*
X6758248Y6985595D01*
X6755534Y6995723D01*
X6755534Y6995724D01*
X6755274Y6997031D01*
X6753905Y7007428D01*
X6753818Y7008757D01*
Y7008757D01*
Y7008757D01*
Y7014000D01*
Y7234001D01*
Y7239244D01*
D01*
Y7239244D01*
X6753905Y7240573D01*
X6755274Y7250970D01*
X6755534Y7252276D01*
X6758248Y7262406D01*
X6758676Y7263667D01*
X6762689Y7273356D01*
X6763278Y7274550D01*
X6763279Y7274551D01*
X6768522Y7283633D01*
X6769262Y7284740D01*
X6775646Y7293060D01*
X6776524Y7294061D01*
X6783939Y7301476D01*
X6784940Y7302354D01*
X6793260Y7308738D01*
X6794368Y7309478D01*
X6803450Y7314722D01*
X6804644Y7315311D01*
X6814333Y7319324D01*
X6815594Y7319752D01*
X6825722Y7322466D01*
X6825723Y7322466D01*
X6827030Y7322726D01*
X6837427Y7324095D01*
X6838756Y7324182D01*
X6838756D01*
X6838756D01*
X6849243D01*
X6849243D01*
D01*
X6850572Y7324095D01*
D02*
G37*
G36*
X6342572D02*
X6352969Y7322726D01*
X6354275Y7322466D01*
X6364405Y7319752D01*
X6365666Y7319324D01*
X6375355Y7315311D01*
X6376549Y7314722D01*
X6376550Y7314721D01*
X6385632Y7309478D01*
X6386739Y7308738D01*
X6395059Y7302354D01*
X6396060Y7301476D01*
X6403475Y7294061D01*
X6404353Y7293060D01*
X6410737Y7284740D01*
X6411477Y7283632D01*
X6416721Y7274550D01*
X6417310Y7273356D01*
X6421323Y7263667D01*
X6421751Y7262406D01*
X6424465Y7252278D01*
X6424465Y7252277D01*
X6424725Y7250970D01*
X6426094Y7240573D01*
X6426181Y7239244D01*
Y7239244D01*
Y7239244D01*
Y7234001D01*
X6426181Y7014000D01*
Y7008757D01*
X6426094Y7007428D01*
X6424725Y6997031D01*
Y6997031D01*
X6424465Y6995725D01*
X6421751Y6985595D01*
X6421323Y6984334D01*
X6417310Y6974645D01*
X6416721Y6973451D01*
X6411478Y6964369D01*
X6410738Y6963262D01*
X6410737Y6963261D01*
X6404353Y6954941D01*
X6403475Y6953940D01*
X6396060Y6946525D01*
X6395059Y6945647D01*
X6386739Y6939263D01*
X6385631Y6938523D01*
X6376549Y6933279D01*
X6375355Y6932690D01*
X6365666Y6928677D01*
X6364405Y6928249D01*
X6364404Y6928249D01*
X6354276Y6925535D01*
X6354275Y6925535D01*
X6352969Y6925275D01*
X6342573Y6923906D01*
X6342572Y6923906D01*
X6341243Y6923819D01*
X6336000Y6923819D01*
X6330757Y6923819D01*
X6330756D01*
X6330756D01*
X6329427Y6923906D01*
X6319030Y6925275D01*
X6317724Y6925535D01*
X6307594Y6928249D01*
X6306333Y6928677D01*
X6296645Y6932690D01*
X6295450Y6933279D01*
X6295449Y6933280D01*
X6286367Y6938523D01*
X6285260Y6939262D01*
X6276940Y6945647D01*
X6275939Y6946525D01*
X6268524Y6953940D01*
X6267646Y6954941D01*
X6261262Y6963261D01*
X6260522Y6964369D01*
X6255278Y6973451D01*
X6254689Y6974645D01*
X6250676Y6984334D01*
X6250248Y6985595D01*
X6247534Y6995723D01*
X6247534Y6995724D01*
X6247274Y6997031D01*
X6245905Y7007428D01*
X6245818Y7008757D01*
Y7008757D01*
Y7008757D01*
Y7014000D01*
Y7234001D01*
Y7239244D01*
D01*
Y7239244D01*
X6245905Y7240573D01*
X6247274Y7250970D01*
X6247534Y7252276D01*
X6250248Y7262406D01*
X6250676Y7263667D01*
X6254689Y7273356D01*
X6255278Y7274550D01*
X6255279Y7274551D01*
X6260522Y7283633D01*
X6261262Y7284740D01*
X6267646Y7293060D01*
X6268524Y7294061D01*
X6275939Y7301476D01*
X6276940Y7302354D01*
X6285260Y7308738D01*
X6286368Y7309478D01*
X6295450Y7314722D01*
X6296644Y7315311D01*
X6306333Y7319324D01*
X6307594Y7319752D01*
X6317722Y7322466D01*
X6317723Y7322466D01*
X6319030Y7322726D01*
X6329427Y7324095D01*
X6330756Y7324182D01*
X6330756D01*
X6330756D01*
X6341243D01*
X6341243D01*
D01*
X6342572Y7324095D01*
D02*
G37*
G36*
X6088572D02*
X6098969Y7322726D01*
X6100275Y7322466D01*
X6110405Y7319752D01*
X6111666Y7319324D01*
X6121355Y7315311D01*
X6122549Y7314722D01*
X6122550Y7314721D01*
X6131632Y7309478D01*
X6132739Y7308738D01*
X6141059Y7302354D01*
X6142060Y7301476D01*
X6149475Y7294061D01*
X6150353Y7293060D01*
X6156737Y7284740D01*
X6157477Y7283632D01*
X6162721Y7274550D01*
X6163310Y7273356D01*
X6167323Y7263667D01*
X6167751Y7262406D01*
X6170465Y7252278D01*
X6170465Y7252277D01*
X6170725Y7250970D01*
X6172094Y7240573D01*
X6172181Y7239244D01*
Y7239244D01*
Y7239244D01*
Y7234001D01*
X6172181Y7014000D01*
Y7008757D01*
X6172094Y7007428D01*
X6170725Y6997031D01*
Y6997031D01*
X6170465Y6995725D01*
X6167751Y6985595D01*
X6167323Y6984334D01*
X6163310Y6974645D01*
X6162721Y6973451D01*
X6157478Y6964369D01*
X6156738Y6963262D01*
X6156737Y6963261D01*
X6150353Y6954941D01*
X6149475Y6953940D01*
X6142060Y6946525D01*
X6141059Y6945647D01*
X6132739Y6939263D01*
X6131631Y6938523D01*
X6122549Y6933279D01*
X6121355Y6932690D01*
X6111666Y6928677D01*
X6110405Y6928249D01*
X6110404Y6928249D01*
X6100276Y6925535D01*
X6100275Y6925535D01*
X6098969Y6925275D01*
X6088573Y6923906D01*
X6088572Y6923906D01*
X6087243Y6923819D01*
X6082000Y6923819D01*
X6076757Y6923819D01*
X6076756D01*
X6076756D01*
X6075427Y6923906D01*
X6065030Y6925275D01*
X6063724Y6925535D01*
X6053594Y6928249D01*
X6052333Y6928677D01*
X6042645Y6932690D01*
X6041450Y6933279D01*
X6041449Y6933280D01*
X6032367Y6938523D01*
X6031260Y6939262D01*
X6022940Y6945647D01*
X6021939Y6946525D01*
X6014524Y6953940D01*
X6013646Y6954941D01*
X6007262Y6963261D01*
X6006522Y6964369D01*
X6001278Y6973451D01*
X6000689Y6974645D01*
X5996676Y6984334D01*
X5996248Y6985595D01*
X5993534Y6995723D01*
X5993534Y6995724D01*
X5993274Y6997031D01*
X5991905Y7007428D01*
X5991818Y7008757D01*
Y7008757D01*
Y7008757D01*
Y7014000D01*
Y7234001D01*
Y7239244D01*
D01*
Y7239244D01*
X5991905Y7240573D01*
X5993274Y7250970D01*
X5993534Y7252276D01*
X5996248Y7262406D01*
X5996676Y7263667D01*
X6000689Y7273356D01*
X6001278Y7274550D01*
X6001279Y7274551D01*
X6006522Y7283633D01*
X6007262Y7284740D01*
X6013646Y7293060D01*
X6014524Y7294061D01*
X6021939Y7301476D01*
X6022940Y7302354D01*
X6031260Y7308738D01*
X6032368Y7309478D01*
X6041450Y7314722D01*
X6042644Y7315311D01*
X6052333Y7319324D01*
X6053594Y7319752D01*
X6063722Y7322466D01*
X6063723Y7322466D01*
X6065030Y7322726D01*
X6075427Y7324095D01*
X6076756Y7324182D01*
X6076756D01*
X6076756D01*
X6087243D01*
X6087243D01*
D01*
X6088572Y7324095D01*
D02*
G37*
G36*
X5834572D02*
X5844969Y7322726D01*
X5846275Y7322466D01*
X5856405Y7319752D01*
X5857666Y7319324D01*
X5867355Y7315311D01*
X5868549Y7314722D01*
X5868550Y7314721D01*
X5877632Y7309478D01*
X5878739Y7308738D01*
X5887059Y7302354D01*
X5888060Y7301476D01*
X5895475Y7294061D01*
X5896353Y7293060D01*
X5902737Y7284740D01*
X5903477Y7283632D01*
X5908721Y7274550D01*
X5909310Y7273356D01*
X5913323Y7263667D01*
X5913751Y7262406D01*
X5916465Y7252278D01*
X5916465Y7252277D01*
X5916725Y7250970D01*
X5918094Y7240573D01*
X5918181Y7239244D01*
Y7239244D01*
Y7239244D01*
Y7234001D01*
X5918181Y7014000D01*
Y7008757D01*
X5918094Y7007428D01*
X5916725Y6997031D01*
Y6997031D01*
X5916465Y6995725D01*
X5913751Y6985595D01*
X5913323Y6984334D01*
X5909310Y6974645D01*
X5908721Y6973451D01*
X5903478Y6964369D01*
X5902738Y6963262D01*
X5902737Y6963261D01*
X5896353Y6954941D01*
X5895475Y6953940D01*
X5888060Y6946525D01*
X5887059Y6945647D01*
X5878739Y6939263D01*
X5877631Y6938523D01*
X5868549Y6933279D01*
X5867355Y6932690D01*
X5857666Y6928677D01*
X5856405Y6928249D01*
X5856404Y6928249D01*
X5846276Y6925535D01*
X5846275Y6925535D01*
X5844969Y6925275D01*
X5834573Y6923906D01*
X5834572Y6923906D01*
X5833243Y6923819D01*
X5828000Y6923819D01*
X5822757Y6923819D01*
X5822756D01*
X5822756D01*
X5821427Y6923906D01*
X5811030Y6925275D01*
X5809724Y6925535D01*
X5799594Y6928249D01*
X5798333Y6928677D01*
X5788645Y6932690D01*
X5787450Y6933279D01*
X5787449Y6933280D01*
X5778367Y6938523D01*
X5777260Y6939262D01*
X5768940Y6945647D01*
X5767939Y6946525D01*
X5760524Y6953940D01*
X5759646Y6954941D01*
X5753262Y6963261D01*
X5752522Y6964369D01*
X5747278Y6973451D01*
X5746689Y6974645D01*
X5742676Y6984334D01*
X5742248Y6985595D01*
X5739534Y6995723D01*
X5739534Y6995724D01*
X5739274Y6997031D01*
X5737905Y7007428D01*
X5737818Y7008757D01*
Y7008757D01*
Y7008757D01*
Y7014000D01*
Y7234001D01*
Y7239244D01*
D01*
Y7239244D01*
X5737905Y7240573D01*
X5739274Y7250970D01*
X5739534Y7252276D01*
X5742248Y7262406D01*
X5742676Y7263667D01*
X5746689Y7273356D01*
X5747278Y7274550D01*
X5747279Y7274551D01*
X5752522Y7283633D01*
X5753262Y7284740D01*
X5759646Y7293060D01*
X5760524Y7294061D01*
X5767939Y7301476D01*
X5768940Y7302354D01*
X5777260Y7308738D01*
X5778368Y7309478D01*
X5787450Y7314722D01*
X5788644Y7315311D01*
X5798333Y7319324D01*
X5799594Y7319752D01*
X5809722Y7322466D01*
X5809723Y7322466D01*
X5811030Y7322726D01*
X5821427Y7324095D01*
X5822756Y7324182D01*
X5822756D01*
X5822756D01*
X5833243D01*
X5833243D01*
D01*
X5834572Y7324095D01*
D02*
G37*
G36*
X5580572D02*
X5590969Y7322726D01*
X5592275Y7322466D01*
X5602405Y7319752D01*
X5603666Y7319324D01*
X5613355Y7315311D01*
X5614549Y7314722D01*
X5614550Y7314721D01*
X5623632Y7309478D01*
X5624739Y7308738D01*
X5633059Y7302354D01*
X5634060Y7301476D01*
X5641475Y7294061D01*
X5642353Y7293060D01*
X5648737Y7284740D01*
X5649477Y7283632D01*
X5654721Y7274550D01*
X5655310Y7273356D01*
X5659323Y7263667D01*
X5659751Y7262406D01*
X5662465Y7252278D01*
X5662465Y7252277D01*
X5662725Y7250970D01*
X5664094Y7240573D01*
X5664181Y7239244D01*
Y7239244D01*
Y7239244D01*
Y7234001D01*
X5664181Y7014000D01*
Y7008757D01*
X5664094Y7007428D01*
X5662725Y6997031D01*
Y6997031D01*
X5662465Y6995725D01*
X5659751Y6985595D01*
X5659323Y6984334D01*
X5655310Y6974645D01*
X5654721Y6973451D01*
X5649478Y6964369D01*
X5648738Y6963262D01*
X5648737Y6963261D01*
X5642353Y6954941D01*
X5641475Y6953940D01*
X5634060Y6946525D01*
X5633059Y6945647D01*
X5624739Y6939263D01*
X5623631Y6938523D01*
X5614549Y6933279D01*
X5613355Y6932690D01*
X5603666Y6928677D01*
X5602405Y6928249D01*
X5602404Y6928249D01*
X5592276Y6925535D01*
X5592275Y6925535D01*
X5590969Y6925275D01*
X5580573Y6923906D01*
X5580572Y6923906D01*
X5579243Y6923819D01*
X5574000Y6923819D01*
X5568757Y6923819D01*
X5568756D01*
X5568756D01*
X5567427Y6923906D01*
X5557030Y6925275D01*
X5555724Y6925535D01*
X5545594Y6928249D01*
X5544333Y6928677D01*
X5534645Y6932690D01*
X5533450Y6933279D01*
X5533449Y6933280D01*
X5524367Y6938523D01*
X5523260Y6939262D01*
X5514940Y6945647D01*
X5513939Y6946525D01*
X5506524Y6953940D01*
X5505646Y6954941D01*
X5499262Y6963261D01*
X5498522Y6964369D01*
X5493278Y6973451D01*
X5492689Y6974645D01*
X5488676Y6984334D01*
X5488248Y6985595D01*
X5485534Y6995723D01*
X5485534Y6995724D01*
X5485274Y6997031D01*
X5483905Y7007428D01*
X5483818Y7008757D01*
Y7008757D01*
Y7008757D01*
Y7014000D01*
Y7234001D01*
Y7239244D01*
D01*
Y7239244D01*
X5483905Y7240573D01*
X5485274Y7250970D01*
X5485534Y7252276D01*
X5488248Y7262406D01*
X5488676Y7263667D01*
X5492689Y7273356D01*
X5493278Y7274550D01*
X5493279Y7274551D01*
X5498522Y7283633D01*
X5499262Y7284740D01*
X5505646Y7293060D01*
X5506524Y7294061D01*
X5513939Y7301476D01*
X5514940Y7302354D01*
X5523260Y7308738D01*
X5524368Y7309478D01*
X5533450Y7314722D01*
X5534644Y7315311D01*
X5544333Y7319324D01*
X5545594Y7319752D01*
X5555722Y7322466D01*
X5555723Y7322466D01*
X5557030Y7322726D01*
X5567427Y7324095D01*
X5568756Y7324182D01*
X5568756D01*
X5568756D01*
X5579243D01*
X5579243D01*
D01*
X5580572Y7324095D01*
D02*
G37*
G36*
X5072572D02*
X5082969Y7322726D01*
X5084275Y7322466D01*
X5094405Y7319752D01*
X5095666Y7319324D01*
X5105355Y7315311D01*
X5106549Y7314722D01*
X5106550Y7314721D01*
X5115632Y7309478D01*
X5116739Y7308738D01*
X5125059Y7302354D01*
X5126060Y7301476D01*
X5133475Y7294061D01*
X5134353Y7293060D01*
X5140737Y7284740D01*
X5141477Y7283632D01*
X5146721Y7274550D01*
X5147310Y7273356D01*
X5151323Y7263667D01*
X5151751Y7262406D01*
X5154465Y7252278D01*
X5154465Y7252277D01*
X5154725Y7250970D01*
X5156094Y7240573D01*
X5156181Y7239244D01*
Y7239244D01*
Y7239244D01*
Y7234001D01*
X5156181Y7014000D01*
Y7008757D01*
X5156094Y7007428D01*
X5154725Y6997031D01*
Y6997031D01*
X5154465Y6995725D01*
X5151751Y6985595D01*
X5151323Y6984334D01*
X5147310Y6974645D01*
X5146721Y6973451D01*
X5141478Y6964369D01*
X5140738Y6963262D01*
X5140737Y6963261D01*
X5134353Y6954941D01*
X5133475Y6953940D01*
X5126060Y6946525D01*
X5125059Y6945647D01*
X5116739Y6939263D01*
X5115631Y6938523D01*
X5106549Y6933279D01*
X5105355Y6932690D01*
X5095666Y6928677D01*
X5094405Y6928249D01*
X5094404Y6928249D01*
X5084276Y6925535D01*
X5084275Y6925535D01*
X5082969Y6925275D01*
X5072573Y6923906D01*
X5072572Y6923906D01*
X5071243Y6923819D01*
X5066000Y6923819D01*
X5060757Y6923819D01*
X5060756D01*
X5060756D01*
X5059427Y6923906D01*
X5049030Y6925275D01*
X5047724Y6925535D01*
X5037594Y6928249D01*
X5036333Y6928677D01*
X5026645Y6932690D01*
X5025450Y6933279D01*
X5025449Y6933280D01*
X5016367Y6938523D01*
X5015260Y6939262D01*
X5006940Y6945647D01*
X5005939Y6946525D01*
X4998524Y6953940D01*
X4997646Y6954941D01*
X4991262Y6963261D01*
X4990522Y6964369D01*
X4985278Y6973451D01*
X4984689Y6974645D01*
X4980676Y6984334D01*
X4980248Y6985595D01*
X4977534Y6995723D01*
X4977534Y6995724D01*
X4977274Y6997031D01*
X4975905Y7007428D01*
X4975818Y7008757D01*
Y7008757D01*
Y7008757D01*
Y7014000D01*
Y7234001D01*
Y7239244D01*
D01*
Y7239244D01*
X4975905Y7240573D01*
X4977274Y7250970D01*
X4977534Y7252276D01*
X4980248Y7262406D01*
X4980676Y7263667D01*
X4984689Y7273356D01*
X4985278Y7274550D01*
X4985279Y7274551D01*
X4990522Y7283633D01*
X4991262Y7284740D01*
X4997646Y7293060D01*
X4998524Y7294061D01*
X5005939Y7301476D01*
X5006940Y7302354D01*
X5015260Y7308738D01*
X5016368Y7309478D01*
X5025450Y7314722D01*
X5026644Y7315311D01*
X5036333Y7319324D01*
X5037594Y7319752D01*
X5047722Y7322466D01*
X5047723Y7322466D01*
X5049030Y7322726D01*
X5059427Y7324095D01*
X5060756Y7324182D01*
X5060756D01*
X5060756D01*
X5071243D01*
X5071243D01*
D01*
X5072572Y7324095D01*
D02*
G37*
G36*
X4818572D02*
X4828969Y7322726D01*
X4830275Y7322466D01*
X4840405Y7319752D01*
X4841666Y7319324D01*
X4851355Y7315311D01*
X4852549Y7314722D01*
X4852550Y7314721D01*
X4861632Y7309478D01*
X4862739Y7308738D01*
X4871059Y7302354D01*
X4872060Y7301476D01*
X4879475Y7294061D01*
X4880353Y7293060D01*
X4886737Y7284740D01*
X4887477Y7283632D01*
X4892721Y7274550D01*
X4893310Y7273356D01*
X4897323Y7263667D01*
X4897751Y7262406D01*
X4900465Y7252278D01*
X4900465Y7252277D01*
X4900725Y7250970D01*
X4902094Y7240573D01*
X4902181Y7239244D01*
Y7239244D01*
Y7239244D01*
Y7234001D01*
X4902181Y7014000D01*
Y7008757D01*
X4902094Y7007428D01*
X4900725Y6997031D01*
Y6997031D01*
X4900465Y6995725D01*
X4897751Y6985595D01*
X4897323Y6984334D01*
X4893310Y6974645D01*
X4892721Y6973451D01*
X4887478Y6964369D01*
X4886738Y6963262D01*
X4886737Y6963261D01*
X4880353Y6954941D01*
X4879475Y6953940D01*
X4872060Y6946525D01*
X4871059Y6945647D01*
X4862739Y6939263D01*
X4861631Y6938523D01*
X4852549Y6933279D01*
X4851355Y6932690D01*
X4841666Y6928677D01*
X4840405Y6928249D01*
X4840404Y6928249D01*
X4830276Y6925535D01*
X4830275Y6925535D01*
X4828969Y6925275D01*
X4818573Y6923906D01*
X4818572Y6923906D01*
X4817243Y6923819D01*
X4812000Y6923819D01*
X4806757Y6923819D01*
X4806756D01*
X4806756D01*
X4805427Y6923906D01*
X4795030Y6925275D01*
X4793724Y6925535D01*
X4783594Y6928249D01*
X4782333Y6928677D01*
X4772645Y6932690D01*
X4771450Y6933279D01*
X4771449Y6933280D01*
X4762367Y6938523D01*
X4761260Y6939262D01*
X4752940Y6945647D01*
X4751939Y6946525D01*
X4744524Y6953940D01*
X4743646Y6954941D01*
X4737262Y6963261D01*
X4736522Y6964369D01*
X4731278Y6973451D01*
X4730689Y6974645D01*
X4726676Y6984334D01*
X4726248Y6985595D01*
X4723534Y6995723D01*
X4723534Y6995724D01*
X4723274Y6997031D01*
X4721905Y7007428D01*
X4721818Y7008757D01*
Y7008757D01*
Y7008757D01*
Y7014000D01*
Y7234001D01*
Y7239244D01*
D01*
Y7239244D01*
X4721905Y7240573D01*
X4723274Y7250970D01*
X4723534Y7252276D01*
X4726248Y7262406D01*
X4726676Y7263667D01*
X4730689Y7273356D01*
X4731278Y7274550D01*
X4731279Y7274551D01*
X4736522Y7283633D01*
X4737262Y7284740D01*
X4743646Y7293060D01*
X4744524Y7294061D01*
X4751939Y7301476D01*
X4752940Y7302354D01*
X4761260Y7308738D01*
X4762368Y7309478D01*
X4771450Y7314722D01*
X4772644Y7315311D01*
X4782333Y7319324D01*
X4783594Y7319752D01*
X4793722Y7322466D01*
X4793723Y7322466D01*
X4795030Y7322726D01*
X4805427Y7324095D01*
X4806756Y7324182D01*
X4806756D01*
X4806756D01*
X4817243D01*
X4817243D01*
D01*
X4818572Y7324095D01*
D02*
G37*
G36*
X9211329Y7324095D02*
X9212635Y7323835D01*
X9213896Y7323407D01*
X9215091Y7322818D01*
X9216198Y7322078D01*
X9217199Y7321200D01*
X9218077Y7320199D01*
X9218817Y7319091D01*
X9219407Y7317897D01*
X9219834Y7316636D01*
X9220094Y7315329D01*
X9220181Y7314000D01*
Y6934000D01*
X9220094Y6932671D01*
X9219834Y6931365D01*
X9219407Y6930104D01*
X9218817Y6928909D01*
X9218077Y6927802D01*
X9217199Y6926801D01*
X9216198Y6925923D01*
X9215091Y6925183D01*
X9213896Y6924593D01*
X9212635Y6924165D01*
X9211329Y6923906D01*
X9210000Y6923819D01*
X9049999D01*
X9048670Y6923906D01*
X9047364Y6924165D01*
X9046103Y6924593D01*
X9044909Y6925183D01*
X9043801Y6925923D01*
X9042800Y6926801D01*
X9041922Y6927802D01*
X9041182Y6928909D01*
X9040593Y6930104D01*
X9040165Y6931365D01*
X9039905Y6932671D01*
X9039818Y6934000D01*
Y7314000D01*
X9039905Y7315329D01*
X9040165Y7316636D01*
X9040593Y7317897D01*
X9041182Y7319091D01*
X9041922Y7320199D01*
X9042800Y7321200D01*
X9043801Y7322078D01*
X9044909Y7322818D01*
X9046103Y7323407D01*
X9047364Y7323835D01*
X9048670Y7324095D01*
X9049999Y7324182D01*
X9210000D01*
X9211329Y7324095D01*
D02*
G37*
G36*
X7941329D02*
X7942635Y7323835D01*
X7943896Y7323407D01*
X7945091Y7322818D01*
X7946198Y7322078D01*
X7947199Y7321200D01*
X7948077Y7320199D01*
X7948817Y7319091D01*
X7949407Y7317897D01*
X7949834Y7316636D01*
X7950094Y7315329D01*
X7950181Y7314000D01*
Y6934000D01*
X7950094Y6932671D01*
X7949834Y6931365D01*
X7949407Y6930104D01*
X7948817Y6928909D01*
X7948077Y6927802D01*
X7947199Y6926801D01*
X7946198Y6925923D01*
X7945091Y6925183D01*
X7943896Y6924593D01*
X7942635Y6924165D01*
X7941329Y6923906D01*
X7940000Y6923819D01*
X7779999D01*
X7778670Y6923906D01*
X7777364Y6924165D01*
X7776103Y6924593D01*
X7774909Y6925183D01*
X7773801Y6925923D01*
X7772800Y6926801D01*
X7771922Y6927802D01*
X7771182Y6928909D01*
X7770593Y6930104D01*
X7770165Y6931365D01*
X7769905Y6932671D01*
X7769818Y6934000D01*
Y7314000D01*
X7769905Y7315329D01*
X7770165Y7316636D01*
X7770593Y7317897D01*
X7771182Y7319091D01*
X7771922Y7320199D01*
X7772800Y7321200D01*
X7773801Y7322078D01*
X7774909Y7322818D01*
X7776103Y7323407D01*
X7777364Y7323835D01*
X7778670Y7324095D01*
X7779999Y7324182D01*
X7940000D01*
X7941329Y7324095D01*
D02*
G37*
G36*
X6671329D02*
X6672635Y7323835D01*
X6673896Y7323407D01*
X6675091Y7322818D01*
X6676198Y7322078D01*
X6677199Y7321200D01*
X6678077Y7320199D01*
X6678817Y7319091D01*
X6679407Y7317897D01*
X6679834Y7316636D01*
X6680094Y7315329D01*
X6680181Y7314000D01*
Y6934000D01*
X6680094Y6932671D01*
X6679834Y6931365D01*
X6679407Y6930104D01*
X6678817Y6928909D01*
X6678077Y6927802D01*
X6677199Y6926801D01*
X6676198Y6925923D01*
X6675091Y6925183D01*
X6673896Y6924593D01*
X6672635Y6924165D01*
X6671329Y6923906D01*
X6670000Y6923819D01*
X6509999D01*
X6508670Y6923906D01*
X6507364Y6924165D01*
X6506103Y6924593D01*
X6504909Y6925183D01*
X6503801Y6925923D01*
X6502800Y6926801D01*
X6501922Y6927802D01*
X6501182Y6928909D01*
X6500593Y6930104D01*
X6500165Y6931365D01*
X6499905Y6932671D01*
X6499818Y6934000D01*
Y7314000D01*
X6499905Y7315329D01*
X6500165Y7316636D01*
X6500593Y7317897D01*
X6501182Y7319091D01*
X6501922Y7320199D01*
X6502800Y7321200D01*
X6503801Y7322078D01*
X6504909Y7322818D01*
X6506103Y7323407D01*
X6507364Y7323835D01*
X6508670Y7324095D01*
X6509999Y7324182D01*
X6670000D01*
X6671329Y7324095D01*
D02*
G37*
G36*
X5401329D02*
X5402635Y7323835D01*
X5403896Y7323407D01*
X5405091Y7322818D01*
X5406198Y7322078D01*
X5407199Y7321200D01*
X5408077Y7320199D01*
X5408817Y7319091D01*
X5409407Y7317897D01*
X5409834Y7316636D01*
X5410094Y7315329D01*
X5410181Y7314000D01*
Y6934000D01*
X5410094Y6932671D01*
X5409834Y6931365D01*
X5409407Y6930104D01*
X5408817Y6928909D01*
X5408077Y6927802D01*
X5407199Y6926801D01*
X5406198Y6925923D01*
X5405091Y6925183D01*
X5403896Y6924593D01*
X5402635Y6924165D01*
X5401329Y6923906D01*
X5400000Y6923819D01*
X5239999D01*
X5238670Y6923906D01*
X5237364Y6924165D01*
X5236103Y6924593D01*
X5234909Y6925183D01*
X5233801Y6925923D01*
X5232800Y6926801D01*
X5231922Y6927802D01*
X5231182Y6928909D01*
X5230593Y6930104D01*
X5230165Y6931365D01*
X5229905Y6932671D01*
X5229818Y6934000D01*
Y7314000D01*
X5229905Y7315329D01*
X5230165Y7316636D01*
X5230593Y7317897D01*
X5231182Y7319091D01*
X5231922Y7320199D01*
X5232800Y7321200D01*
X5233801Y7322078D01*
X5234909Y7322818D01*
X5236103Y7323407D01*
X5237364Y7323835D01*
X5238670Y7324095D01*
X5239999Y7324182D01*
X5400000D01*
X5401329Y7324095D01*
D02*
G37*
G36*
X9839172Y6469095D02*
X9849569Y6467726D01*
X9850875Y6467466D01*
X9861005Y6464752D01*
X9862266Y6464324D01*
X9871955Y6460311D01*
X9873149Y6459722D01*
X9873150Y6459721D01*
X9882232Y6454478D01*
X9883339Y6453738D01*
X9891659Y6447354D01*
X9892660Y6446476D01*
X9900075Y6439061D01*
X9900954Y6438060D01*
X9907338Y6429740D01*
X9908077Y6428632D01*
X9913321Y6419550D01*
X9913910Y6418356D01*
X9917923Y6408667D01*
X9918351Y6407406D01*
X9921065Y6397278D01*
X9921066Y6397277D01*
X9921325Y6395970D01*
X9922694Y6385573D01*
X9922782Y6384244D01*
Y6384244D01*
Y6384244D01*
Y6379000D01*
Y6373757D01*
D01*
Y6373757D01*
X9922694Y6372428D01*
X9921325Y6362031D01*
X9921066Y6360725D01*
X9918351Y6350595D01*
X9917923Y6349334D01*
X9913910Y6339645D01*
X9913321Y6338451D01*
X9913321Y6338450D01*
X9908077Y6329368D01*
X9907338Y6328261D01*
X9900954Y6319941D01*
X9900075Y6318940D01*
X9892660Y6311525D01*
X9891659Y6310647D01*
X9883339Y6304262D01*
X9882231Y6303523D01*
X9873149Y6298279D01*
X9871955Y6297690D01*
X9862266Y6293677D01*
X9861005Y6293249D01*
X9850877Y6290535D01*
X9850876Y6290535D01*
X9849569Y6290275D01*
X9839172Y6288906D01*
X9837843Y6288819D01*
X9837843D01*
X9837843D01*
X9832600D01*
X9612600Y6288819D01*
X9607356D01*
X9606027Y6288906D01*
X9595630Y6290275D01*
X9595630D01*
X9594324Y6290535D01*
X9584194Y6293249D01*
X9582933Y6293677D01*
X9573244Y6297690D01*
X9572050Y6298279D01*
X9562968Y6303522D01*
X9561861Y6304262D01*
X9561860Y6304263D01*
X9553540Y6310647D01*
X9552539Y6311525D01*
X9545124Y6318940D01*
X9544246Y6319941D01*
X9537862Y6328261D01*
X9537122Y6329369D01*
X9531878Y6338451D01*
X9531289Y6339645D01*
X9527276Y6349334D01*
X9526848Y6350595D01*
X9526848Y6350596D01*
X9524134Y6360724D01*
X9524134Y6360725D01*
X9523874Y6362031D01*
X9522505Y6372427D01*
X9522505Y6372428D01*
X9522418Y6373757D01*
X9522418Y6379000D01*
X9522418Y6384243D01*
Y6384244D01*
Y6384244D01*
X9522505Y6385573D01*
X9523874Y6395970D01*
X9524134Y6397276D01*
X9526848Y6407406D01*
X9527276Y6408667D01*
X9531289Y6418355D01*
X9531878Y6419550D01*
X9531879Y6419551D01*
X9537122Y6428633D01*
X9537862Y6429740D01*
X9544246Y6438060D01*
X9545124Y6439061D01*
X9552539Y6446476D01*
X9553540Y6447354D01*
X9561860Y6453738D01*
X9562968Y6454478D01*
X9572050Y6459722D01*
X9573244Y6460311D01*
X9582933Y6464324D01*
X9584194Y6464752D01*
X9594322Y6467466D01*
X9594323Y6467466D01*
X9595630Y6467726D01*
X9606027Y6469095D01*
X9607356Y6469182D01*
X9607356D01*
X9607356D01*
X9837843D01*
X9837843D01*
D01*
X9839172Y6469095D01*
D02*
G37*
G36*
X9913928Y6215095D02*
X9915235Y6214835D01*
X9916496Y6214407D01*
X9917690Y6213818D01*
X9918798Y6213078D01*
X9919799Y6212200D01*
X9920677Y6211199D01*
X9921417Y6210091D01*
X9922006Y6208897D01*
X9922434Y6207636D01*
X9922694Y6206329D01*
X9922781Y6205001D01*
Y6045000D01*
X9922694Y6043671D01*
X9922434Y6042365D01*
X9922006Y6041104D01*
X9921417Y6039909D01*
X9920677Y6038802D01*
X9919799Y6037801D01*
X9918798Y6036923D01*
X9917690Y6036183D01*
X9916496Y6035593D01*
X9915235Y6035165D01*
X9913928Y6034906D01*
X9912599Y6034819D01*
X9532599D01*
X9531270Y6034906D01*
X9529964Y6035165D01*
X9528703Y6035593D01*
X9527509Y6036183D01*
X9526401Y6036923D01*
X9525400Y6037801D01*
X9524522Y6038802D01*
X9523782Y6039909D01*
X9523193Y6041104D01*
X9522765Y6042365D01*
X9522505Y6043671D01*
X9522418Y6045000D01*
Y6205001D01*
X9522505Y6206329D01*
X9522765Y6207636D01*
X9523193Y6208897D01*
X9523782Y6210091D01*
X9524522Y6211199D01*
X9525400Y6212200D01*
X9526401Y6213078D01*
X9527509Y6213818D01*
X9528703Y6214407D01*
X9529964Y6214835D01*
X9531270Y6215095D01*
X9532599Y6215182D01*
X9912599D01*
X9913928Y6215095D01*
D02*
G37*
G36*
X9839172Y5961095D02*
X9849569Y5959726D01*
X9850875Y5959466D01*
X9861005Y5956752D01*
X9862266Y5956324D01*
X9871955Y5952311D01*
X9873149Y5951722D01*
X9873150Y5951721D01*
X9882232Y5946478D01*
X9883339Y5945738D01*
X9891659Y5939354D01*
X9892660Y5938476D01*
X9900075Y5931061D01*
X9900954Y5930060D01*
X9907338Y5921740D01*
X9908077Y5920632D01*
X9913321Y5911550D01*
X9913910Y5910356D01*
X9917923Y5900667D01*
X9918351Y5899406D01*
X9921065Y5889278D01*
X9921066Y5889277D01*
X9921325Y5887970D01*
X9922694Y5877573D01*
X9922782Y5876244D01*
Y5876244D01*
Y5876244D01*
Y5871000D01*
Y5865757D01*
D01*
Y5865757D01*
X9922694Y5864428D01*
X9921325Y5854031D01*
X9921066Y5852725D01*
X9918351Y5842595D01*
X9917923Y5841334D01*
X9913910Y5831645D01*
X9913321Y5830451D01*
X9913321Y5830450D01*
X9908077Y5821368D01*
X9907338Y5820261D01*
X9900954Y5811941D01*
X9900075Y5810940D01*
X9892660Y5803525D01*
X9891659Y5802647D01*
X9883339Y5796262D01*
X9882231Y5795523D01*
X9873149Y5790279D01*
X9871955Y5789690D01*
X9862266Y5785677D01*
X9861005Y5785249D01*
X9850877Y5782535D01*
X9850876Y5782535D01*
X9849569Y5782275D01*
X9839172Y5780906D01*
X9837843Y5780819D01*
X9837843D01*
X9837843D01*
X9832600D01*
X9612600Y5780819D01*
X9607356D01*
X9606027Y5780906D01*
X9595630Y5782275D01*
X9595630D01*
X9594324Y5782535D01*
X9584194Y5785249D01*
X9582933Y5785677D01*
X9573244Y5789690D01*
X9572050Y5790279D01*
X9562968Y5795522D01*
X9561861Y5796262D01*
X9561860Y5796263D01*
X9553540Y5802647D01*
X9552539Y5803525D01*
X9545124Y5810940D01*
X9544246Y5811941D01*
X9537862Y5820261D01*
X9537122Y5821369D01*
X9531878Y5830451D01*
X9531289Y5831645D01*
X9527276Y5841334D01*
X9526848Y5842595D01*
X9526848Y5842596D01*
X9524134Y5852724D01*
X9524134Y5852725D01*
X9523874Y5854031D01*
X9522505Y5864427D01*
X9522505Y5864428D01*
X9522418Y5865757D01*
X9522418Y5871000D01*
X9522418Y5876243D01*
Y5876244D01*
Y5876244D01*
X9522505Y5877573D01*
X9523874Y5887970D01*
X9524134Y5889276D01*
X9526848Y5899406D01*
X9527276Y5900667D01*
X9531289Y5910355D01*
X9531878Y5911550D01*
X9531879Y5911551D01*
X9537122Y5920633D01*
X9537862Y5921740D01*
X9544246Y5930060D01*
X9545124Y5931061D01*
X9552539Y5938476D01*
X9553540Y5939354D01*
X9561860Y5945738D01*
X9562968Y5946478D01*
X9572050Y5951722D01*
X9573244Y5952311D01*
X9582933Y5956324D01*
X9584194Y5956752D01*
X9594322Y5959466D01*
X9594323Y5959466D01*
X9595630Y5959726D01*
X9606027Y5961095D01*
X9607356Y5961182D01*
X9607356D01*
X9607356D01*
X9837843D01*
X9837843D01*
D01*
X9839172Y5961095D01*
D02*
G37*
G36*
X9644572Y5326095D02*
X9654969Y5324726D01*
X9656275Y5324466D01*
X9666405Y5321752D01*
X9667666Y5321324D01*
X9677355Y5317311D01*
X9678549Y5316722D01*
X9678550Y5316721D01*
X9687632Y5311478D01*
X9688739Y5310738D01*
X9697059Y5304354D01*
X9698060Y5303476D01*
X9705475Y5296061D01*
X9706353Y5295060D01*
X9712737Y5286740D01*
X9713477Y5285632D01*
X9718721Y5276550D01*
X9719310Y5275356D01*
X9723323Y5265667D01*
X9723751Y5264406D01*
X9726465Y5254278D01*
X9726465Y5254277D01*
X9726725Y5252970D01*
X9728094Y5242573D01*
X9728181Y5241244D01*
Y5241244D01*
Y5241244D01*
Y5236000D01*
Y5016000D01*
Y5010757D01*
D01*
Y5010757D01*
X9728094Y5009428D01*
X9726725Y4999031D01*
X9726465Y4997725D01*
X9723751Y4987595D01*
X9723323Y4986334D01*
X9719310Y4976645D01*
X9718721Y4975451D01*
X9718720Y4975450D01*
X9713477Y4966368D01*
X9712737Y4965261D01*
X9706353Y4956941D01*
X9705475Y4955940D01*
X9698060Y4948525D01*
X9697059Y4947646D01*
X9688739Y4941262D01*
X9687631Y4940523D01*
X9678549Y4935279D01*
X9677355Y4934690D01*
X9667666Y4930677D01*
X9666405Y4930249D01*
X9656277Y4927535D01*
X9656276Y4927534D01*
X9654969Y4927275D01*
X9644572Y4925906D01*
X9643243Y4925818D01*
X9643243D01*
X9643243D01*
X9632756D01*
X9632756D01*
D01*
X9631427Y4925906D01*
X9621030Y4927275D01*
X9619724Y4927534D01*
X9609594Y4930249D01*
X9608333Y4930677D01*
X9598645Y4934690D01*
X9597450Y4935279D01*
X9597449Y4935279D01*
X9588367Y4940523D01*
X9587260Y4941262D01*
X9578940Y4947646D01*
X9577939Y4948525D01*
X9570524Y4955940D01*
X9569646Y4956941D01*
X9563262Y4965261D01*
X9562522Y4966369D01*
X9557278Y4975451D01*
X9556689Y4976645D01*
X9552676Y4986334D01*
X9552248Y4987595D01*
X9549534Y4997723D01*
X9549534Y4997724D01*
X9549274Y4999031D01*
X9547905Y5009428D01*
X9547818Y5010757D01*
Y5010757D01*
Y5010757D01*
Y5016000D01*
X9547818Y5236000D01*
Y5241244D01*
X9547905Y5242573D01*
X9549274Y5252970D01*
Y5252970D01*
X9549534Y5254276D01*
X9552248Y5264406D01*
X9552676Y5265667D01*
X9556689Y5275356D01*
X9557278Y5276550D01*
X9562521Y5285632D01*
X9563261Y5286739D01*
X9563262Y5286740D01*
X9569646Y5295060D01*
X9570524Y5296061D01*
X9577939Y5303476D01*
X9578940Y5304354D01*
X9587260Y5310738D01*
X9588368Y5311478D01*
X9597450Y5316722D01*
X9598644Y5317311D01*
X9608333Y5321324D01*
X9609594Y5321752D01*
X9609595Y5321752D01*
X9619722Y5324465D01*
X9619723Y5324466D01*
X9621030Y5324726D01*
X9631427Y5326095D01*
X9632756Y5326182D01*
X9632756D01*
X9632756D01*
X9637999D01*
X9643242Y5326182D01*
X9643243D01*
X9643243D01*
X9644572Y5326095D01*
D02*
G37*
G36*
X9390572D02*
X9400969Y5324726D01*
X9402275Y5324466D01*
X9412405Y5321752D01*
X9413666Y5321324D01*
X9423355Y5317311D01*
X9424549Y5316722D01*
X9424550Y5316721D01*
X9433632Y5311478D01*
X9434739Y5310738D01*
X9443059Y5304354D01*
X9444060Y5303476D01*
X9451475Y5296061D01*
X9452353Y5295060D01*
X9458737Y5286740D01*
X9459477Y5285632D01*
X9464721Y5276550D01*
X9465310Y5275356D01*
X9469323Y5265667D01*
X9469751Y5264406D01*
X9472465Y5254278D01*
X9472465Y5254277D01*
X9472725Y5252970D01*
X9474094Y5242573D01*
X9474181Y5241244D01*
Y5241244D01*
Y5241244D01*
Y5236000D01*
Y5016000D01*
Y5010757D01*
D01*
Y5010757D01*
X9474094Y5009428D01*
X9472725Y4999031D01*
X9472465Y4997725D01*
X9469751Y4987595D01*
X9469323Y4986334D01*
X9465310Y4976645D01*
X9464721Y4975451D01*
X9464720Y4975450D01*
X9459477Y4966368D01*
X9458737Y4965261D01*
X9452353Y4956941D01*
X9451475Y4955940D01*
X9444060Y4948525D01*
X9443059Y4947646D01*
X9434739Y4941262D01*
X9433631Y4940523D01*
X9424549Y4935279D01*
X9423355Y4934690D01*
X9413666Y4930677D01*
X9412405Y4930249D01*
X9402277Y4927535D01*
X9402276Y4927534D01*
X9400969Y4927275D01*
X9390572Y4925906D01*
X9389243Y4925818D01*
X9389243D01*
X9389243D01*
X9378756D01*
X9378756D01*
D01*
X9377427Y4925906D01*
X9367030Y4927275D01*
X9365724Y4927534D01*
X9355594Y4930249D01*
X9354333Y4930677D01*
X9344645Y4934690D01*
X9343450Y4935279D01*
X9343449Y4935279D01*
X9334367Y4940523D01*
X9333260Y4941262D01*
X9324940Y4947646D01*
X9323939Y4948525D01*
X9316524Y4955940D01*
X9315646Y4956941D01*
X9309262Y4965261D01*
X9308522Y4966369D01*
X9303278Y4975451D01*
X9302689Y4976645D01*
X9298676Y4986334D01*
X9298248Y4987595D01*
X9295534Y4997723D01*
X9295534Y4997724D01*
X9295274Y4999031D01*
X9293905Y5009428D01*
X9293818Y5010757D01*
Y5010757D01*
Y5010757D01*
Y5016000D01*
X9293818Y5236000D01*
Y5241244D01*
X9293905Y5242573D01*
X9295274Y5252970D01*
Y5252970D01*
X9295534Y5254276D01*
X9298248Y5264406D01*
X9298676Y5265667D01*
X9302689Y5275356D01*
X9303278Y5276550D01*
X9308521Y5285632D01*
X9309261Y5286739D01*
X9309262Y5286740D01*
X9315646Y5295060D01*
X9316524Y5296061D01*
X9323939Y5303476D01*
X9324940Y5304354D01*
X9333260Y5310738D01*
X9334368Y5311478D01*
X9343450Y5316722D01*
X9344644Y5317311D01*
X9354333Y5321324D01*
X9355594Y5321752D01*
X9355595Y5321752D01*
X9365722Y5324465D01*
X9365723Y5324466D01*
X9367030Y5324726D01*
X9377427Y5326095D01*
X9378756Y5326182D01*
X9378756D01*
X9378756D01*
X9383999D01*
X9389242Y5326182D01*
X9389243D01*
X9389243D01*
X9390572Y5326095D01*
D02*
G37*
G36*
X8882572D02*
X8892969Y5324726D01*
X8894275Y5324466D01*
X8904405Y5321752D01*
X8905666Y5321324D01*
X8915355Y5317311D01*
X8916549Y5316722D01*
X8916550Y5316721D01*
X8925632Y5311478D01*
X8926739Y5310738D01*
X8935059Y5304354D01*
X8936060Y5303476D01*
X8943475Y5296061D01*
X8944353Y5295060D01*
X8950737Y5286740D01*
X8951477Y5285632D01*
X8956721Y5276550D01*
X8957310Y5275356D01*
X8961323Y5265667D01*
X8961751Y5264406D01*
X8964465Y5254278D01*
X8964465Y5254277D01*
X8964725Y5252970D01*
X8966094Y5242573D01*
X8966181Y5241244D01*
Y5241244D01*
Y5241244D01*
Y5236000D01*
Y5016000D01*
Y5010757D01*
D01*
Y5010757D01*
X8966094Y5009428D01*
X8964725Y4999031D01*
X8964465Y4997725D01*
X8961751Y4987595D01*
X8961323Y4986334D01*
X8957310Y4976645D01*
X8956721Y4975451D01*
X8956720Y4975450D01*
X8951477Y4966368D01*
X8950737Y4965261D01*
X8944353Y4956941D01*
X8943475Y4955940D01*
X8936060Y4948525D01*
X8935059Y4947646D01*
X8926739Y4941262D01*
X8925631Y4940523D01*
X8916549Y4935279D01*
X8915355Y4934690D01*
X8905666Y4930677D01*
X8904405Y4930249D01*
X8894277Y4927535D01*
X8894276Y4927534D01*
X8892969Y4927275D01*
X8882572Y4925906D01*
X8881243Y4925818D01*
X8881243D01*
X8881243D01*
X8870756D01*
X8870756D01*
D01*
X8869427Y4925906D01*
X8859030Y4927275D01*
X8857724Y4927534D01*
X8847594Y4930249D01*
X8846333Y4930677D01*
X8836645Y4934690D01*
X8835450Y4935279D01*
X8835449Y4935279D01*
X8826367Y4940523D01*
X8825260Y4941262D01*
X8816940Y4947646D01*
X8815939Y4948525D01*
X8808524Y4955940D01*
X8807646Y4956941D01*
X8801262Y4965261D01*
X8800522Y4966369D01*
X8795278Y4975451D01*
X8794689Y4976645D01*
X8790676Y4986334D01*
X8790248Y4987595D01*
X8787534Y4997723D01*
X8787534Y4997724D01*
X8787274Y4999031D01*
X8785905Y5009428D01*
X8785818Y5010757D01*
Y5010757D01*
Y5010757D01*
Y5016000D01*
X8785818Y5236000D01*
Y5241244D01*
X8785905Y5242573D01*
X8787274Y5252970D01*
Y5252970D01*
X8787534Y5254276D01*
X8790248Y5264406D01*
X8790676Y5265667D01*
X8794689Y5275356D01*
X8795278Y5276550D01*
X8800521Y5285632D01*
X8801261Y5286739D01*
X8801262Y5286740D01*
X8807646Y5295060D01*
X8808524Y5296061D01*
X8815939Y5303476D01*
X8816940Y5304354D01*
X8825260Y5310738D01*
X8826368Y5311478D01*
X8835450Y5316722D01*
X8836644Y5317311D01*
X8846333Y5321324D01*
X8847594Y5321752D01*
X8847595Y5321752D01*
X8857722Y5324465D01*
X8857723Y5324466D01*
X8859030Y5324726D01*
X8869427Y5326095D01*
X8870756Y5326182D01*
X8870756D01*
X8870756D01*
X8875999D01*
X8881242Y5326182D01*
X8881243D01*
X8881243D01*
X8882572Y5326095D01*
D02*
G37*
G36*
X8628572D02*
X8638969Y5324726D01*
X8640275Y5324466D01*
X8650405Y5321752D01*
X8651666Y5321324D01*
X8661355Y5317311D01*
X8662549Y5316722D01*
X8662550Y5316721D01*
X8671632Y5311478D01*
X8672739Y5310738D01*
X8681059Y5304354D01*
X8682060Y5303476D01*
X8689475Y5296061D01*
X8690353Y5295060D01*
X8696737Y5286740D01*
X8697477Y5285632D01*
X8702721Y5276550D01*
X8703310Y5275356D01*
X8707323Y5265667D01*
X8707751Y5264406D01*
X8710465Y5254278D01*
X8710465Y5254277D01*
X8710725Y5252970D01*
X8712094Y5242573D01*
X8712181Y5241244D01*
Y5241244D01*
Y5241244D01*
Y5236000D01*
Y5016000D01*
Y5010757D01*
D01*
Y5010757D01*
X8712094Y5009428D01*
X8710725Y4999031D01*
X8710465Y4997725D01*
X8707751Y4987595D01*
X8707323Y4986334D01*
X8703310Y4976645D01*
X8702721Y4975451D01*
X8702720Y4975450D01*
X8697477Y4966368D01*
X8696737Y4965261D01*
X8690353Y4956941D01*
X8689475Y4955940D01*
X8682060Y4948525D01*
X8681059Y4947646D01*
X8672739Y4941262D01*
X8671631Y4940523D01*
X8662549Y4935279D01*
X8661355Y4934690D01*
X8651666Y4930677D01*
X8650405Y4930249D01*
X8640277Y4927535D01*
X8640276Y4927534D01*
X8638969Y4927275D01*
X8628572Y4925906D01*
X8627243Y4925818D01*
X8627243D01*
X8627243D01*
X8616756D01*
X8616756D01*
D01*
X8615427Y4925906D01*
X8605030Y4927275D01*
X8603724Y4927534D01*
X8593594Y4930249D01*
X8592333Y4930677D01*
X8582645Y4934690D01*
X8581450Y4935279D01*
X8581449Y4935279D01*
X8572367Y4940523D01*
X8571260Y4941262D01*
X8562940Y4947646D01*
X8561939Y4948525D01*
X8554524Y4955940D01*
X8553646Y4956941D01*
X8547262Y4965261D01*
X8546522Y4966369D01*
X8541278Y4975451D01*
X8540689Y4976645D01*
X8536676Y4986334D01*
X8536248Y4987595D01*
X8533534Y4997723D01*
X8533534Y4997724D01*
X8533274Y4999031D01*
X8531905Y5009428D01*
X8531818Y5010757D01*
Y5010757D01*
Y5010757D01*
Y5016000D01*
X8531818Y5236000D01*
Y5241244D01*
X8531905Y5242573D01*
X8533274Y5252970D01*
Y5252970D01*
X8533534Y5254276D01*
X8536248Y5264406D01*
X8536676Y5265667D01*
X8540689Y5275356D01*
X8541278Y5276550D01*
X8546521Y5285632D01*
X8547261Y5286739D01*
X8547262Y5286740D01*
X8553646Y5295060D01*
X8554524Y5296061D01*
X8561939Y5303476D01*
X8562940Y5304354D01*
X8571260Y5310738D01*
X8572368Y5311478D01*
X8581450Y5316722D01*
X8582644Y5317311D01*
X8592333Y5321324D01*
X8593594Y5321752D01*
X8593595Y5321752D01*
X8603722Y5324465D01*
X8603723Y5324466D01*
X8605030Y5324726D01*
X8615427Y5326095D01*
X8616756Y5326182D01*
X8616756D01*
X8616756D01*
X8621999D01*
X8627242Y5326182D01*
X8627243D01*
X8627243D01*
X8628572Y5326095D01*
D02*
G37*
G36*
X8374572D02*
X8384969Y5324726D01*
X8386275Y5324466D01*
X8396405Y5321752D01*
X8397666Y5321324D01*
X8407355Y5317311D01*
X8408549Y5316722D01*
X8408550Y5316721D01*
X8417632Y5311478D01*
X8418739Y5310738D01*
X8427059Y5304354D01*
X8428060Y5303476D01*
X8435475Y5296061D01*
X8436353Y5295060D01*
X8442737Y5286740D01*
X8443477Y5285632D01*
X8448721Y5276550D01*
X8449310Y5275356D01*
X8453323Y5265667D01*
X8453751Y5264406D01*
X8456465Y5254278D01*
X8456465Y5254277D01*
X8456725Y5252970D01*
X8458094Y5242573D01*
X8458181Y5241244D01*
Y5241244D01*
Y5241244D01*
Y5236000D01*
Y5016000D01*
Y5010757D01*
D01*
Y5010757D01*
X8458094Y5009428D01*
X8456725Y4999031D01*
X8456465Y4997725D01*
X8453751Y4987595D01*
X8453323Y4986334D01*
X8449310Y4976645D01*
X8448721Y4975451D01*
X8448720Y4975450D01*
X8443477Y4966368D01*
X8442737Y4965261D01*
X8436353Y4956941D01*
X8435475Y4955940D01*
X8428060Y4948525D01*
X8427059Y4947646D01*
X8418739Y4941262D01*
X8417631Y4940523D01*
X8408549Y4935279D01*
X8407355Y4934690D01*
X8397666Y4930677D01*
X8396405Y4930249D01*
X8386277Y4927535D01*
X8386276Y4927534D01*
X8384969Y4927275D01*
X8374572Y4925906D01*
X8373243Y4925818D01*
X8373243D01*
X8373243D01*
X8362756D01*
X8362756D01*
D01*
X8361427Y4925906D01*
X8351030Y4927275D01*
X8349724Y4927534D01*
X8339594Y4930249D01*
X8338333Y4930677D01*
X8328645Y4934690D01*
X8327450Y4935279D01*
X8327449Y4935279D01*
X8318367Y4940523D01*
X8317260Y4941262D01*
X8308940Y4947646D01*
X8307939Y4948525D01*
X8300524Y4955940D01*
X8299646Y4956941D01*
X8293262Y4965261D01*
X8292522Y4966369D01*
X8287278Y4975451D01*
X8286689Y4976645D01*
X8282676Y4986334D01*
X8282248Y4987595D01*
X8279534Y4997723D01*
X8279534Y4997724D01*
X8279274Y4999031D01*
X8277905Y5009428D01*
X8277818Y5010757D01*
Y5010757D01*
Y5010757D01*
Y5016000D01*
X8277818Y5236000D01*
Y5241244D01*
X8277905Y5242573D01*
X8279274Y5252970D01*
Y5252970D01*
X8279534Y5254276D01*
X8282248Y5264406D01*
X8282676Y5265667D01*
X8286689Y5275356D01*
X8287278Y5276550D01*
X8292521Y5285632D01*
X8293261Y5286739D01*
X8293262Y5286740D01*
X8299646Y5295060D01*
X8300524Y5296061D01*
X8307939Y5303476D01*
X8308940Y5304354D01*
X8317260Y5310738D01*
X8318368Y5311478D01*
X8327450Y5316722D01*
X8328644Y5317311D01*
X8338333Y5321324D01*
X8339594Y5321752D01*
X8339595Y5321752D01*
X8349722Y5324465D01*
X8349723Y5324466D01*
X8351030Y5324726D01*
X8361427Y5326095D01*
X8362756Y5326182D01*
X8362756D01*
X8362756D01*
X8367999D01*
X8373242Y5326182D01*
X8373243D01*
X8373243D01*
X8374572Y5326095D01*
D02*
G37*
G36*
X8120572D02*
X8130969Y5324726D01*
X8132275Y5324466D01*
X8142405Y5321752D01*
X8143666Y5321324D01*
X8153355Y5317311D01*
X8154549Y5316722D01*
X8154550Y5316721D01*
X8163632Y5311478D01*
X8164739Y5310738D01*
X8173059Y5304354D01*
X8174060Y5303476D01*
X8181475Y5296061D01*
X8182353Y5295060D01*
X8188737Y5286740D01*
X8189477Y5285632D01*
X8194721Y5276550D01*
X8195310Y5275356D01*
X8199323Y5265667D01*
X8199751Y5264406D01*
X8202465Y5254278D01*
X8202465Y5254277D01*
X8202725Y5252970D01*
X8204094Y5242573D01*
X8204181Y5241244D01*
Y5241244D01*
Y5241244D01*
Y5236000D01*
Y5016000D01*
Y5010757D01*
D01*
Y5010757D01*
X8204094Y5009428D01*
X8202725Y4999031D01*
X8202465Y4997725D01*
X8199751Y4987595D01*
X8199323Y4986334D01*
X8195310Y4976645D01*
X8194721Y4975451D01*
X8194720Y4975450D01*
X8189477Y4966368D01*
X8188737Y4965261D01*
X8182353Y4956941D01*
X8181475Y4955940D01*
X8174060Y4948525D01*
X8173059Y4947646D01*
X8164739Y4941262D01*
X8163631Y4940523D01*
X8154549Y4935279D01*
X8153355Y4934690D01*
X8143666Y4930677D01*
X8142405Y4930249D01*
X8132277Y4927535D01*
X8132276Y4927534D01*
X8130969Y4927275D01*
X8120572Y4925906D01*
X8119243Y4925818D01*
X8119243D01*
X8119243D01*
X8108756D01*
X8108756D01*
D01*
X8107427Y4925906D01*
X8097030Y4927275D01*
X8095724Y4927534D01*
X8085594Y4930249D01*
X8084333Y4930677D01*
X8074645Y4934690D01*
X8073450Y4935279D01*
X8073449Y4935279D01*
X8064367Y4940523D01*
X8063260Y4941262D01*
X8054940Y4947646D01*
X8053939Y4948525D01*
X8046524Y4955940D01*
X8045646Y4956941D01*
X8039262Y4965261D01*
X8038522Y4966369D01*
X8033278Y4975451D01*
X8032689Y4976645D01*
X8028676Y4986334D01*
X8028248Y4987595D01*
X8025534Y4997723D01*
X8025534Y4997724D01*
X8025274Y4999031D01*
X8023905Y5009428D01*
X8023818Y5010757D01*
Y5010757D01*
Y5010757D01*
Y5016000D01*
X8023818Y5236000D01*
Y5241244D01*
X8023905Y5242573D01*
X8025274Y5252970D01*
Y5252970D01*
X8025534Y5254276D01*
X8028248Y5264406D01*
X8028676Y5265667D01*
X8032689Y5275356D01*
X8033278Y5276550D01*
X8038521Y5285632D01*
X8039261Y5286739D01*
X8039262Y5286740D01*
X8045646Y5295060D01*
X8046524Y5296061D01*
X8053939Y5303476D01*
X8054940Y5304354D01*
X8063260Y5310738D01*
X8064368Y5311478D01*
X8073450Y5316722D01*
X8074644Y5317311D01*
X8084333Y5321324D01*
X8085594Y5321752D01*
X8085595Y5321752D01*
X8095722Y5324465D01*
X8095723Y5324466D01*
X8097030Y5324726D01*
X8107427Y5326095D01*
X8108756Y5326182D01*
X8108756D01*
X8108756D01*
X8113999D01*
X8119242Y5326182D01*
X8119243D01*
X8119243D01*
X8120572Y5326095D01*
D02*
G37*
G36*
X7612572D02*
X7622969Y5324726D01*
X7624275Y5324466D01*
X7634405Y5321752D01*
X7635666Y5321324D01*
X7645355Y5317311D01*
X7646549Y5316722D01*
X7646550Y5316721D01*
X7655632Y5311478D01*
X7656739Y5310738D01*
X7665059Y5304354D01*
X7666060Y5303476D01*
X7673475Y5296061D01*
X7674353Y5295060D01*
X7680737Y5286740D01*
X7681477Y5285632D01*
X7686721Y5276550D01*
X7687310Y5275356D01*
X7691323Y5265667D01*
X7691751Y5264406D01*
X7694465Y5254278D01*
X7694465Y5254277D01*
X7694725Y5252970D01*
X7696094Y5242573D01*
X7696181Y5241244D01*
Y5241244D01*
Y5241244D01*
Y5236000D01*
Y5016000D01*
Y5010757D01*
D01*
Y5010757D01*
X7696094Y5009428D01*
X7694725Y4999031D01*
X7694465Y4997725D01*
X7691751Y4987595D01*
X7691323Y4986334D01*
X7687310Y4976645D01*
X7686721Y4975451D01*
X7686720Y4975450D01*
X7681477Y4966368D01*
X7680737Y4965261D01*
X7674353Y4956941D01*
X7673475Y4955940D01*
X7666060Y4948525D01*
X7665059Y4947646D01*
X7656739Y4941262D01*
X7655631Y4940523D01*
X7646549Y4935279D01*
X7645355Y4934690D01*
X7635666Y4930677D01*
X7634405Y4930249D01*
X7624277Y4927535D01*
X7624276Y4927534D01*
X7622969Y4927275D01*
X7612572Y4925906D01*
X7611243Y4925818D01*
X7611243D01*
X7611243D01*
X7600756D01*
X7600756D01*
D01*
X7599427Y4925906D01*
X7589030Y4927275D01*
X7587724Y4927534D01*
X7577594Y4930249D01*
X7576333Y4930677D01*
X7566645Y4934690D01*
X7565450Y4935279D01*
X7565449Y4935279D01*
X7556367Y4940523D01*
X7555260Y4941262D01*
X7546940Y4947646D01*
X7545939Y4948525D01*
X7538524Y4955940D01*
X7537646Y4956941D01*
X7531262Y4965261D01*
X7530522Y4966369D01*
X7525278Y4975451D01*
X7524689Y4976645D01*
X7520676Y4986334D01*
X7520248Y4987595D01*
X7517534Y4997723D01*
X7517534Y4997724D01*
X7517274Y4999031D01*
X7515905Y5009428D01*
X7515818Y5010757D01*
Y5010757D01*
Y5010757D01*
Y5016000D01*
X7515818Y5236000D01*
Y5241244D01*
X7515905Y5242573D01*
X7517274Y5252970D01*
Y5252970D01*
X7517534Y5254276D01*
X7520248Y5264406D01*
X7520676Y5265667D01*
X7524689Y5275356D01*
X7525278Y5276550D01*
X7530521Y5285632D01*
X7531261Y5286739D01*
X7531262Y5286740D01*
X7537646Y5295060D01*
X7538524Y5296061D01*
X7545939Y5303476D01*
X7546940Y5304354D01*
X7555260Y5310738D01*
X7556368Y5311478D01*
X7565450Y5316722D01*
X7566644Y5317311D01*
X7576333Y5321324D01*
X7577594Y5321752D01*
X7577595Y5321752D01*
X7587722Y5324465D01*
X7587723Y5324466D01*
X7589030Y5324726D01*
X7599427Y5326095D01*
X7600756Y5326182D01*
X7600756D01*
X7600756D01*
X7605999D01*
X7611242Y5326182D01*
X7611243D01*
X7611243D01*
X7612572Y5326095D01*
D02*
G37*
G36*
X7358572D02*
X7368969Y5324726D01*
X7370275Y5324466D01*
X7380405Y5321752D01*
X7381666Y5321324D01*
X7391355Y5317311D01*
X7392549Y5316722D01*
X7392550Y5316721D01*
X7401632Y5311478D01*
X7402739Y5310738D01*
X7411059Y5304354D01*
X7412060Y5303476D01*
X7419475Y5296061D01*
X7420353Y5295060D01*
X7426737Y5286740D01*
X7427477Y5285632D01*
X7432721Y5276550D01*
X7433310Y5275356D01*
X7437323Y5265667D01*
X7437751Y5264406D01*
X7440465Y5254278D01*
X7440465Y5254277D01*
X7440725Y5252970D01*
X7442094Y5242573D01*
X7442181Y5241244D01*
Y5241244D01*
Y5241244D01*
Y5236000D01*
Y5016000D01*
Y5010757D01*
D01*
Y5010757D01*
X7442094Y5009428D01*
X7440725Y4999031D01*
X7440465Y4997725D01*
X7437751Y4987595D01*
X7437323Y4986334D01*
X7433310Y4976645D01*
X7432721Y4975451D01*
X7432720Y4975450D01*
X7427477Y4966368D01*
X7426737Y4965261D01*
X7420353Y4956941D01*
X7419475Y4955940D01*
X7412060Y4948525D01*
X7411059Y4947646D01*
X7402739Y4941262D01*
X7401631Y4940523D01*
X7392549Y4935279D01*
X7391355Y4934690D01*
X7381666Y4930677D01*
X7380405Y4930249D01*
X7370277Y4927535D01*
X7370276Y4927534D01*
X7368969Y4927275D01*
X7358572Y4925906D01*
X7357243Y4925818D01*
X7357243D01*
X7357243D01*
X7346756D01*
X7346756D01*
D01*
X7345427Y4925906D01*
X7335030Y4927275D01*
X7333724Y4927534D01*
X7323594Y4930249D01*
X7322333Y4930677D01*
X7312645Y4934690D01*
X7311450Y4935279D01*
X7311449Y4935279D01*
X7302367Y4940523D01*
X7301260Y4941262D01*
X7292940Y4947646D01*
X7291939Y4948525D01*
X7284524Y4955940D01*
X7283646Y4956941D01*
X7277262Y4965261D01*
X7276522Y4966369D01*
X7271278Y4975451D01*
X7270689Y4976645D01*
X7266676Y4986334D01*
X7266248Y4987595D01*
X7263534Y4997723D01*
X7263534Y4997724D01*
X7263274Y4999031D01*
X7261905Y5009428D01*
X7261818Y5010757D01*
Y5010757D01*
Y5010757D01*
Y5016000D01*
X7261818Y5236000D01*
Y5241244D01*
X7261905Y5242573D01*
X7263274Y5252970D01*
Y5252970D01*
X7263534Y5254276D01*
X7266248Y5264406D01*
X7266676Y5265667D01*
X7270689Y5275356D01*
X7271278Y5276550D01*
X7276521Y5285632D01*
X7277261Y5286739D01*
X7277262Y5286740D01*
X7283646Y5295060D01*
X7284524Y5296061D01*
X7291939Y5303476D01*
X7292940Y5304354D01*
X7301260Y5310738D01*
X7302368Y5311478D01*
X7311450Y5316722D01*
X7312644Y5317311D01*
X7322333Y5321324D01*
X7323594Y5321752D01*
X7323595Y5321752D01*
X7333722Y5324465D01*
X7333723Y5324466D01*
X7335030Y5324726D01*
X7345427Y5326095D01*
X7346756Y5326182D01*
X7346756D01*
X7346756D01*
X7351999D01*
X7357242Y5326182D01*
X7357243D01*
X7357243D01*
X7358572Y5326095D01*
D02*
G37*
G36*
X7104572D02*
X7114969Y5324726D01*
X7116275Y5324466D01*
X7126405Y5321752D01*
X7127666Y5321324D01*
X7137355Y5317311D01*
X7138549Y5316722D01*
X7138550Y5316721D01*
X7147632Y5311478D01*
X7148739Y5310738D01*
X7157059Y5304354D01*
X7158060Y5303476D01*
X7165475Y5296061D01*
X7166353Y5295060D01*
X7172737Y5286740D01*
X7173477Y5285632D01*
X7178721Y5276550D01*
X7179310Y5275356D01*
X7183323Y5265667D01*
X7183751Y5264406D01*
X7186465Y5254278D01*
X7186465Y5254277D01*
X7186725Y5252970D01*
X7188094Y5242573D01*
X7188181Y5241244D01*
Y5241244D01*
Y5241244D01*
Y5236000D01*
Y5016000D01*
Y5010757D01*
D01*
Y5010757D01*
X7188094Y5009428D01*
X7186725Y4999031D01*
X7186465Y4997725D01*
X7183751Y4987595D01*
X7183323Y4986334D01*
X7179310Y4976645D01*
X7178721Y4975451D01*
X7178720Y4975450D01*
X7173477Y4966368D01*
X7172737Y4965261D01*
X7166353Y4956941D01*
X7165475Y4955940D01*
X7158060Y4948525D01*
X7157059Y4947646D01*
X7148739Y4941262D01*
X7147631Y4940523D01*
X7138549Y4935279D01*
X7137355Y4934690D01*
X7127666Y4930677D01*
X7126405Y4930249D01*
X7116277Y4927535D01*
X7116276Y4927534D01*
X7114969Y4927275D01*
X7104572Y4925906D01*
X7103243Y4925818D01*
X7103243D01*
X7103243D01*
X7092756D01*
X7092756D01*
D01*
X7091427Y4925906D01*
X7081030Y4927275D01*
X7079724Y4927534D01*
X7069594Y4930249D01*
X7068333Y4930677D01*
X7058645Y4934690D01*
X7057450Y4935279D01*
X7057449Y4935279D01*
X7048367Y4940523D01*
X7047260Y4941262D01*
X7038940Y4947646D01*
X7037939Y4948525D01*
X7030524Y4955940D01*
X7029646Y4956941D01*
X7023262Y4965261D01*
X7022522Y4966369D01*
X7017278Y4975451D01*
X7016689Y4976645D01*
X7012676Y4986334D01*
X7012248Y4987595D01*
X7009534Y4997723D01*
X7009534Y4997724D01*
X7009274Y4999031D01*
X7007905Y5009428D01*
X7007818Y5010757D01*
Y5010757D01*
Y5010757D01*
Y5016000D01*
X7007818Y5236000D01*
Y5241244D01*
X7007905Y5242573D01*
X7009274Y5252970D01*
Y5252970D01*
X7009534Y5254276D01*
X7012248Y5264406D01*
X7012676Y5265667D01*
X7016689Y5275356D01*
X7017278Y5276550D01*
X7022521Y5285632D01*
X7023261Y5286739D01*
X7023262Y5286740D01*
X7029646Y5295060D01*
X7030524Y5296061D01*
X7037939Y5303476D01*
X7038940Y5304354D01*
X7047260Y5310738D01*
X7048368Y5311478D01*
X7057450Y5316722D01*
X7058644Y5317311D01*
X7068333Y5321324D01*
X7069594Y5321752D01*
X7069595Y5321752D01*
X7079722Y5324465D01*
X7079723Y5324466D01*
X7081030Y5324726D01*
X7091427Y5326095D01*
X7092756Y5326182D01*
X7092756D01*
X7092756D01*
X7097999D01*
X7103242Y5326182D01*
X7103243D01*
X7103243D01*
X7104572Y5326095D01*
D02*
G37*
G36*
X6850572D02*
X6860969Y5324726D01*
X6862275Y5324466D01*
X6872405Y5321752D01*
X6873666Y5321324D01*
X6883355Y5317311D01*
X6884549Y5316722D01*
X6884550Y5316721D01*
X6893632Y5311478D01*
X6894739Y5310738D01*
X6903059Y5304354D01*
X6904060Y5303476D01*
X6911475Y5296061D01*
X6912353Y5295060D01*
X6918737Y5286740D01*
X6919477Y5285632D01*
X6924721Y5276550D01*
X6925310Y5275356D01*
X6929323Y5265667D01*
X6929751Y5264406D01*
X6932465Y5254278D01*
X6932465Y5254277D01*
X6932725Y5252970D01*
X6934094Y5242573D01*
X6934181Y5241244D01*
Y5241244D01*
Y5241244D01*
Y5236000D01*
Y5016000D01*
Y5010757D01*
D01*
Y5010757D01*
X6934094Y5009428D01*
X6932725Y4999031D01*
X6932465Y4997725D01*
X6929751Y4987595D01*
X6929323Y4986334D01*
X6925310Y4976645D01*
X6924721Y4975451D01*
X6924720Y4975450D01*
X6919477Y4966368D01*
X6918737Y4965261D01*
X6912353Y4956941D01*
X6911475Y4955940D01*
X6904060Y4948525D01*
X6903059Y4947646D01*
X6894739Y4941262D01*
X6893631Y4940523D01*
X6884549Y4935279D01*
X6883355Y4934690D01*
X6873666Y4930677D01*
X6872405Y4930249D01*
X6862277Y4927535D01*
X6862276Y4927534D01*
X6860969Y4927275D01*
X6850572Y4925906D01*
X6849243Y4925818D01*
X6849243D01*
X6849243D01*
X6838756D01*
X6838756D01*
D01*
X6837427Y4925906D01*
X6827030Y4927275D01*
X6825724Y4927534D01*
X6815594Y4930249D01*
X6814333Y4930677D01*
X6804645Y4934690D01*
X6803450Y4935279D01*
X6803449Y4935279D01*
X6794367Y4940523D01*
X6793260Y4941262D01*
X6784940Y4947646D01*
X6783939Y4948525D01*
X6776524Y4955940D01*
X6775646Y4956941D01*
X6769262Y4965261D01*
X6768522Y4966369D01*
X6763278Y4975451D01*
X6762689Y4976645D01*
X6758676Y4986334D01*
X6758248Y4987595D01*
X6755534Y4997723D01*
X6755534Y4997724D01*
X6755274Y4999031D01*
X6753905Y5009428D01*
X6753818Y5010757D01*
Y5010757D01*
Y5010757D01*
Y5016000D01*
X6753818Y5236000D01*
Y5241244D01*
X6753905Y5242573D01*
X6755274Y5252970D01*
Y5252970D01*
X6755534Y5254276D01*
X6758248Y5264406D01*
X6758676Y5265667D01*
X6762689Y5275356D01*
X6763278Y5276550D01*
X6768521Y5285632D01*
X6769261Y5286739D01*
X6769262Y5286740D01*
X6775646Y5295060D01*
X6776524Y5296061D01*
X6783939Y5303476D01*
X6784940Y5304354D01*
X6793260Y5310738D01*
X6794368Y5311478D01*
X6803450Y5316722D01*
X6804644Y5317311D01*
X6814333Y5321324D01*
X6815594Y5321752D01*
X6815595Y5321752D01*
X6825722Y5324465D01*
X6825723Y5324466D01*
X6827030Y5324726D01*
X6837427Y5326095D01*
X6838756Y5326182D01*
X6838756D01*
X6838756D01*
X6843999D01*
X6849242Y5326182D01*
X6849243D01*
X6849243D01*
X6850572Y5326095D01*
D02*
G37*
G36*
X6342572D02*
X6352969Y5324726D01*
X6354275Y5324466D01*
X6364405Y5321752D01*
X6365666Y5321324D01*
X6375355Y5317311D01*
X6376549Y5316722D01*
X6376550Y5316721D01*
X6385632Y5311478D01*
X6386739Y5310738D01*
X6395059Y5304354D01*
X6396060Y5303476D01*
X6403475Y5296061D01*
X6404353Y5295060D01*
X6410737Y5286740D01*
X6411477Y5285632D01*
X6416721Y5276550D01*
X6417310Y5275356D01*
X6421323Y5265667D01*
X6421751Y5264406D01*
X6424465Y5254278D01*
X6424465Y5254277D01*
X6424725Y5252970D01*
X6426094Y5242573D01*
X6426181Y5241244D01*
Y5241244D01*
Y5241244D01*
Y5236000D01*
Y5016000D01*
Y5010757D01*
D01*
Y5010757D01*
X6426094Y5009428D01*
X6424725Y4999031D01*
X6424465Y4997725D01*
X6421751Y4987595D01*
X6421323Y4986334D01*
X6417310Y4976645D01*
X6416721Y4975451D01*
X6416720Y4975450D01*
X6411477Y4966368D01*
X6410737Y4965261D01*
X6404353Y4956941D01*
X6403475Y4955940D01*
X6396060Y4948525D01*
X6395059Y4947646D01*
X6386739Y4941262D01*
X6385631Y4940523D01*
X6376549Y4935279D01*
X6375355Y4934690D01*
X6365666Y4930677D01*
X6364405Y4930249D01*
X6354277Y4927535D01*
X6354276Y4927534D01*
X6352969Y4927275D01*
X6342572Y4925906D01*
X6341243Y4925818D01*
X6341243D01*
X6341243D01*
X6330756D01*
X6330756D01*
D01*
X6329427Y4925906D01*
X6319030Y4927275D01*
X6317724Y4927534D01*
X6307594Y4930249D01*
X6306333Y4930677D01*
X6296645Y4934690D01*
X6295450Y4935279D01*
X6295449Y4935279D01*
X6286367Y4940523D01*
X6285260Y4941262D01*
X6276940Y4947646D01*
X6275939Y4948525D01*
X6268524Y4955940D01*
X6267646Y4956941D01*
X6261262Y4965261D01*
X6260522Y4966369D01*
X6255278Y4975451D01*
X6254689Y4976645D01*
X6250676Y4986334D01*
X6250248Y4987595D01*
X6247534Y4997723D01*
X6247534Y4997724D01*
X6247274Y4999031D01*
X6245905Y5009428D01*
X6245818Y5010757D01*
Y5010757D01*
Y5010757D01*
Y5016000D01*
X6245818Y5236000D01*
Y5241244D01*
X6245905Y5242573D01*
X6247274Y5252970D01*
Y5252970D01*
X6247534Y5254276D01*
X6250248Y5264406D01*
X6250676Y5265667D01*
X6254689Y5275356D01*
X6255278Y5276550D01*
X6260521Y5285632D01*
X6261261Y5286739D01*
X6261262Y5286740D01*
X6267646Y5295060D01*
X6268524Y5296061D01*
X6275939Y5303476D01*
X6276940Y5304354D01*
X6285260Y5310738D01*
X6286368Y5311478D01*
X6295450Y5316722D01*
X6296644Y5317311D01*
X6306333Y5321324D01*
X6307594Y5321752D01*
X6307595Y5321752D01*
X6317722Y5324465D01*
X6317723Y5324466D01*
X6319030Y5324726D01*
X6329427Y5326095D01*
X6330756Y5326182D01*
X6330756D01*
X6330756D01*
X6335999D01*
X6341242Y5326182D01*
X6341243D01*
X6341243D01*
X6342572Y5326095D01*
D02*
G37*
G36*
X6088572D02*
X6098969Y5324726D01*
X6100275Y5324466D01*
X6110405Y5321752D01*
X6111666Y5321324D01*
X6121355Y5317311D01*
X6122549Y5316722D01*
X6122550Y5316721D01*
X6131632Y5311478D01*
X6132739Y5310738D01*
X6141059Y5304354D01*
X6142060Y5303476D01*
X6149475Y5296061D01*
X6150353Y5295060D01*
X6156737Y5286740D01*
X6157477Y5285632D01*
X6162721Y5276550D01*
X6163310Y5275356D01*
X6167323Y5265667D01*
X6167751Y5264406D01*
X6170465Y5254278D01*
X6170465Y5254277D01*
X6170725Y5252970D01*
X6172094Y5242573D01*
X6172181Y5241244D01*
Y5241244D01*
Y5241244D01*
Y5236000D01*
Y5016000D01*
Y5010757D01*
D01*
Y5010757D01*
X6172094Y5009428D01*
X6170725Y4999031D01*
X6170465Y4997725D01*
X6167751Y4987595D01*
X6167323Y4986334D01*
X6163310Y4976645D01*
X6162721Y4975451D01*
X6162720Y4975450D01*
X6157477Y4966368D01*
X6156737Y4965261D01*
X6150353Y4956941D01*
X6149475Y4955940D01*
X6142060Y4948525D01*
X6141059Y4947646D01*
X6132739Y4941262D01*
X6131631Y4940523D01*
X6122549Y4935279D01*
X6121355Y4934690D01*
X6111666Y4930677D01*
X6110405Y4930249D01*
X6100277Y4927535D01*
X6100276Y4927534D01*
X6098969Y4927275D01*
X6088572Y4925906D01*
X6087243Y4925818D01*
X6087243D01*
X6087243D01*
X6076756D01*
X6076756D01*
D01*
X6075427Y4925906D01*
X6065030Y4927275D01*
X6063724Y4927534D01*
X6053594Y4930249D01*
X6052333Y4930677D01*
X6042645Y4934690D01*
X6041450Y4935279D01*
X6041449Y4935279D01*
X6032367Y4940523D01*
X6031260Y4941262D01*
X6022940Y4947646D01*
X6021939Y4948525D01*
X6014524Y4955940D01*
X6013646Y4956941D01*
X6007262Y4965261D01*
X6006522Y4966369D01*
X6001278Y4975451D01*
X6000689Y4976645D01*
X5996676Y4986334D01*
X5996248Y4987595D01*
X5993534Y4997723D01*
X5993534Y4997724D01*
X5993274Y4999031D01*
X5991905Y5009428D01*
X5991818Y5010757D01*
Y5010757D01*
Y5010757D01*
Y5016000D01*
X5991818Y5236000D01*
Y5241244D01*
X5991905Y5242573D01*
X5993274Y5252970D01*
Y5252970D01*
X5993534Y5254276D01*
X5996248Y5264406D01*
X5996676Y5265667D01*
X6000689Y5275356D01*
X6001278Y5276550D01*
X6006521Y5285632D01*
X6007261Y5286739D01*
X6007262Y5286740D01*
X6013646Y5295060D01*
X6014524Y5296061D01*
X6021939Y5303476D01*
X6022940Y5304354D01*
X6031260Y5310738D01*
X6032368Y5311478D01*
X6041450Y5316722D01*
X6042644Y5317311D01*
X6052333Y5321324D01*
X6053594Y5321752D01*
X6053595Y5321752D01*
X6063722Y5324465D01*
X6063723Y5324466D01*
X6065030Y5324726D01*
X6075427Y5326095D01*
X6076756Y5326182D01*
X6076756D01*
X6076756D01*
X6081999D01*
X6087242Y5326182D01*
X6087243D01*
X6087243D01*
X6088572Y5326095D01*
D02*
G37*
G36*
X5834572D02*
X5844969Y5324726D01*
X5846275Y5324466D01*
X5856405Y5321752D01*
X5857666Y5321324D01*
X5867355Y5317311D01*
X5868549Y5316722D01*
X5868550Y5316721D01*
X5877632Y5311478D01*
X5878739Y5310738D01*
X5887059Y5304354D01*
X5888060Y5303476D01*
X5895475Y5296061D01*
X5896353Y5295060D01*
X5902737Y5286740D01*
X5903477Y5285632D01*
X5908721Y5276550D01*
X5909310Y5275356D01*
X5913323Y5265667D01*
X5913751Y5264406D01*
X5916465Y5254278D01*
X5916465Y5254277D01*
X5916725Y5252970D01*
X5918094Y5242573D01*
X5918181Y5241244D01*
Y5241244D01*
Y5241244D01*
Y5236000D01*
Y5016000D01*
Y5010757D01*
D01*
Y5010757D01*
X5918094Y5009428D01*
X5916725Y4999031D01*
X5916465Y4997725D01*
X5913751Y4987595D01*
X5913323Y4986334D01*
X5909310Y4976645D01*
X5908721Y4975451D01*
X5908720Y4975450D01*
X5903477Y4966368D01*
X5902737Y4965261D01*
X5896353Y4956941D01*
X5895475Y4955940D01*
X5888060Y4948525D01*
X5887059Y4947646D01*
X5878739Y4941262D01*
X5877631Y4940523D01*
X5868549Y4935279D01*
X5867355Y4934690D01*
X5857666Y4930677D01*
X5856405Y4930249D01*
X5846277Y4927535D01*
X5846276Y4927534D01*
X5844969Y4927275D01*
X5834572Y4925906D01*
X5833243Y4925818D01*
X5833243D01*
X5833243D01*
X5822756D01*
X5822756D01*
D01*
X5821427Y4925906D01*
X5811030Y4927275D01*
X5809724Y4927534D01*
X5799594Y4930249D01*
X5798333Y4930677D01*
X5788645Y4934690D01*
X5787450Y4935279D01*
X5787449Y4935279D01*
X5778367Y4940523D01*
X5777260Y4941262D01*
X5768940Y4947646D01*
X5767939Y4948525D01*
X5760524Y4955940D01*
X5759646Y4956941D01*
X5753262Y4965261D01*
X5752522Y4966369D01*
X5747278Y4975451D01*
X5746689Y4976645D01*
X5742676Y4986334D01*
X5742248Y4987595D01*
X5739534Y4997723D01*
X5739534Y4997724D01*
X5739274Y4999031D01*
X5737905Y5009428D01*
X5737818Y5010757D01*
Y5010757D01*
Y5010757D01*
Y5016000D01*
X5737818Y5236000D01*
Y5241244D01*
X5737905Y5242573D01*
X5739274Y5252970D01*
Y5252970D01*
X5739534Y5254276D01*
X5742248Y5264406D01*
X5742676Y5265667D01*
X5746689Y5275356D01*
X5747278Y5276550D01*
X5752521Y5285632D01*
X5753261Y5286739D01*
X5753262Y5286740D01*
X5759646Y5295060D01*
X5760524Y5296061D01*
X5767939Y5303476D01*
X5768940Y5304354D01*
X5777260Y5310738D01*
X5778368Y5311478D01*
X5787450Y5316722D01*
X5788644Y5317311D01*
X5798333Y5321324D01*
X5799594Y5321752D01*
X5799595Y5321752D01*
X5809722Y5324465D01*
X5809723Y5324466D01*
X5811030Y5324726D01*
X5821427Y5326095D01*
X5822756Y5326182D01*
X5822756D01*
X5822756D01*
X5827999D01*
X5833242Y5326182D01*
X5833243D01*
X5833243D01*
X5834572Y5326095D01*
D02*
G37*
G36*
X5580572D02*
X5590969Y5324726D01*
X5592275Y5324466D01*
X5602405Y5321752D01*
X5603666Y5321324D01*
X5613355Y5317311D01*
X5614549Y5316722D01*
X5614550Y5316721D01*
X5623632Y5311478D01*
X5624739Y5310738D01*
X5633059Y5304354D01*
X5634060Y5303476D01*
X5641475Y5296061D01*
X5642353Y5295060D01*
X5648737Y5286740D01*
X5649477Y5285632D01*
X5654721Y5276550D01*
X5655310Y5275356D01*
X5659323Y5265667D01*
X5659751Y5264406D01*
X5662465Y5254278D01*
X5662465Y5254277D01*
X5662725Y5252970D01*
X5664094Y5242573D01*
X5664181Y5241244D01*
Y5241244D01*
Y5241244D01*
Y5236000D01*
Y5016000D01*
Y5010757D01*
D01*
Y5010757D01*
X5664094Y5009428D01*
X5662725Y4999031D01*
X5662465Y4997725D01*
X5659751Y4987595D01*
X5659323Y4986334D01*
X5655310Y4976645D01*
X5654721Y4975451D01*
X5654720Y4975450D01*
X5649477Y4966368D01*
X5648737Y4965261D01*
X5642353Y4956941D01*
X5641475Y4955940D01*
X5634060Y4948525D01*
X5633059Y4947646D01*
X5624739Y4941262D01*
X5623631Y4940523D01*
X5614549Y4935279D01*
X5613355Y4934690D01*
X5603666Y4930677D01*
X5602405Y4930249D01*
X5592277Y4927535D01*
X5592276Y4927534D01*
X5590969Y4927275D01*
X5580572Y4925906D01*
X5579243Y4925818D01*
X5579243D01*
X5579243D01*
X5568756D01*
X5568756D01*
D01*
X5567427Y4925906D01*
X5557030Y4927275D01*
X5555724Y4927534D01*
X5545594Y4930249D01*
X5544333Y4930677D01*
X5534645Y4934690D01*
X5533450Y4935279D01*
X5533449Y4935279D01*
X5524367Y4940523D01*
X5523260Y4941262D01*
X5514940Y4947646D01*
X5513939Y4948525D01*
X5506524Y4955940D01*
X5505646Y4956941D01*
X5499262Y4965261D01*
X5498522Y4966369D01*
X5493278Y4975451D01*
X5492689Y4976645D01*
X5488676Y4986334D01*
X5488248Y4987595D01*
X5485534Y4997723D01*
X5485534Y4997724D01*
X5485274Y4999031D01*
X5483905Y5009428D01*
X5483818Y5010757D01*
Y5010757D01*
Y5010757D01*
Y5016000D01*
X5483818Y5236000D01*
Y5241244D01*
X5483905Y5242573D01*
X5485274Y5252970D01*
Y5252970D01*
X5485534Y5254276D01*
X5488248Y5264406D01*
X5488676Y5265667D01*
X5492689Y5275356D01*
X5493278Y5276550D01*
X5498521Y5285632D01*
X5499261Y5286739D01*
X5499262Y5286740D01*
X5505646Y5295060D01*
X5506524Y5296061D01*
X5513939Y5303476D01*
X5514940Y5304354D01*
X5523260Y5310738D01*
X5524368Y5311478D01*
X5533450Y5316722D01*
X5534644Y5317311D01*
X5544333Y5321324D01*
X5545594Y5321752D01*
X5545595Y5321752D01*
X5555722Y5324465D01*
X5555723Y5324466D01*
X5557030Y5324726D01*
X5567427Y5326095D01*
X5568756Y5326182D01*
X5568756D01*
X5568756D01*
X5573999D01*
X5579242Y5326182D01*
X5579243D01*
X5579243D01*
X5580572Y5326095D01*
D02*
G37*
G36*
X5072572D02*
X5082969Y5324726D01*
X5084275Y5324466D01*
X5094405Y5321752D01*
X5095666Y5321324D01*
X5105355Y5317311D01*
X5106549Y5316722D01*
X5106550Y5316721D01*
X5115632Y5311478D01*
X5116739Y5310738D01*
X5125059Y5304354D01*
X5126060Y5303476D01*
X5133475Y5296061D01*
X5134353Y5295060D01*
X5140737Y5286740D01*
X5141477Y5285632D01*
X5146721Y5276550D01*
X5147310Y5275356D01*
X5151323Y5265667D01*
X5151751Y5264406D01*
X5154465Y5254278D01*
X5154465Y5254277D01*
X5154725Y5252970D01*
X5156094Y5242573D01*
X5156181Y5241244D01*
Y5241244D01*
Y5241244D01*
Y5236000D01*
Y5016000D01*
Y5010757D01*
D01*
Y5010757D01*
X5156094Y5009428D01*
X5154725Y4999031D01*
X5154465Y4997725D01*
X5151751Y4987595D01*
X5151323Y4986334D01*
X5147310Y4976645D01*
X5146721Y4975451D01*
X5146720Y4975450D01*
X5141477Y4966368D01*
X5140737Y4965261D01*
X5134353Y4956941D01*
X5133475Y4955940D01*
X5126060Y4948525D01*
X5125059Y4947646D01*
X5116739Y4941262D01*
X5115631Y4940523D01*
X5106549Y4935279D01*
X5105355Y4934690D01*
X5095666Y4930677D01*
X5094405Y4930249D01*
X5084277Y4927535D01*
X5084276Y4927534D01*
X5082969Y4927275D01*
X5072572Y4925906D01*
X5071243Y4925818D01*
X5071243D01*
X5071243D01*
X5060756D01*
X5060756D01*
D01*
X5059427Y4925906D01*
X5049030Y4927275D01*
X5047724Y4927534D01*
X5037594Y4930249D01*
X5036333Y4930677D01*
X5026645Y4934690D01*
X5025450Y4935279D01*
X5025449Y4935279D01*
X5016367Y4940523D01*
X5015260Y4941262D01*
X5006940Y4947646D01*
X5005939Y4948525D01*
X4998524Y4955940D01*
X4997646Y4956941D01*
X4991262Y4965261D01*
X4990522Y4966369D01*
X4985278Y4975451D01*
X4984689Y4976645D01*
X4980676Y4986334D01*
X4980248Y4987595D01*
X4977534Y4997723D01*
X4977534Y4997724D01*
X4977274Y4999031D01*
X4975905Y5009428D01*
X4975818Y5010757D01*
Y5010757D01*
Y5010757D01*
Y5016000D01*
X4975818Y5236000D01*
Y5241244D01*
X4975905Y5242573D01*
X4977274Y5252970D01*
Y5252970D01*
X4977534Y5254276D01*
X4980248Y5264406D01*
X4980676Y5265667D01*
X4984689Y5275356D01*
X4985278Y5276550D01*
X4990521Y5285632D01*
X4991261Y5286739D01*
X4991262Y5286740D01*
X4997646Y5295060D01*
X4998524Y5296061D01*
X5005939Y5303476D01*
X5006940Y5304354D01*
X5015260Y5310738D01*
X5016368Y5311478D01*
X5025450Y5316722D01*
X5026644Y5317311D01*
X5036333Y5321324D01*
X5037594Y5321752D01*
X5037595Y5321752D01*
X5047722Y5324465D01*
X5047723Y5324466D01*
X5049030Y5324726D01*
X5059427Y5326095D01*
X5060756Y5326182D01*
X5060756D01*
X5060756D01*
X5065999D01*
X5071242Y5326182D01*
X5071243D01*
X5071243D01*
X5072572Y5326095D01*
D02*
G37*
G36*
X4818572D02*
X4828969Y5324726D01*
X4830275Y5324466D01*
X4840405Y5321752D01*
X4841666Y5321324D01*
X4851355Y5317311D01*
X4852549Y5316722D01*
X4852550Y5316721D01*
X4861632Y5311478D01*
X4862739Y5310738D01*
X4871059Y5304354D01*
X4872060Y5303476D01*
X4879475Y5296061D01*
X4880353Y5295060D01*
X4886737Y5286740D01*
X4887477Y5285632D01*
X4892721Y5276550D01*
X4893310Y5275356D01*
X4897323Y5265667D01*
X4897751Y5264406D01*
X4900465Y5254278D01*
X4900465Y5254277D01*
X4900725Y5252970D01*
X4902094Y5242573D01*
X4902181Y5241244D01*
Y5241244D01*
Y5241244D01*
Y5236000D01*
Y5016000D01*
Y5010757D01*
D01*
Y5010757D01*
X4902094Y5009428D01*
X4900725Y4999031D01*
X4900465Y4997725D01*
X4897751Y4987595D01*
X4897323Y4986334D01*
X4893310Y4976645D01*
X4892721Y4975451D01*
X4892720Y4975450D01*
X4887477Y4966368D01*
X4886737Y4965261D01*
X4880353Y4956941D01*
X4879475Y4955940D01*
X4872060Y4948525D01*
X4871059Y4947646D01*
X4862739Y4941262D01*
X4861631Y4940523D01*
X4852549Y4935279D01*
X4851355Y4934690D01*
X4841666Y4930677D01*
X4840405Y4930249D01*
X4830277Y4927535D01*
X4830276Y4927534D01*
X4828969Y4927275D01*
X4818572Y4925906D01*
X4817243Y4925818D01*
X4817243D01*
X4817243D01*
X4806756D01*
X4806756D01*
D01*
X4805427Y4925906D01*
X4795030Y4927275D01*
X4793724Y4927534D01*
X4783594Y4930249D01*
X4782333Y4930677D01*
X4772645Y4934690D01*
X4771450Y4935279D01*
X4771449Y4935279D01*
X4762367Y4940523D01*
X4761260Y4941262D01*
X4752940Y4947646D01*
X4751939Y4948525D01*
X4744524Y4955940D01*
X4743646Y4956941D01*
X4737262Y4965261D01*
X4736522Y4966369D01*
X4731278Y4975451D01*
X4730689Y4976645D01*
X4726676Y4986334D01*
X4726248Y4987595D01*
X4723534Y4997723D01*
X4723534Y4997724D01*
X4723274Y4999031D01*
X4721905Y5009428D01*
X4721818Y5010757D01*
Y5010757D01*
Y5010757D01*
Y5016000D01*
X4721818Y5236000D01*
Y5241244D01*
X4721905Y5242573D01*
X4723274Y5252970D01*
Y5252970D01*
X4723534Y5254276D01*
X4726248Y5264406D01*
X4726676Y5265667D01*
X4730689Y5275356D01*
X4731278Y5276550D01*
X4736521Y5285632D01*
X4737261Y5286739D01*
X4737262Y5286740D01*
X4743646Y5295060D01*
X4744524Y5296061D01*
X4751939Y5303476D01*
X4752940Y5304354D01*
X4761260Y5310738D01*
X4762368Y5311478D01*
X4771450Y5316722D01*
X4772644Y5317311D01*
X4782333Y5321324D01*
X4783594Y5321752D01*
X4783595Y5321752D01*
X4793722Y5324465D01*
X4793723Y5324466D01*
X4795030Y5324726D01*
X4805427Y5326095D01*
X4806756Y5326182D01*
X4806756D01*
X4806756D01*
X4811999D01*
X4817242Y5326182D01*
X4817243D01*
X4817243D01*
X4818572Y5326095D01*
D02*
G37*
G36*
X9211329D02*
X9212635Y5325835D01*
X9213896Y5325407D01*
X9215091Y5324818D01*
X9216198Y5324078D01*
X9217199Y5323200D01*
X9218077Y5322199D01*
X9218817Y5321091D01*
X9219407Y5319897D01*
X9219834Y5318636D01*
X9220094Y5317329D01*
X9220181Y5316001D01*
Y4936001D01*
X9220094Y4934672D01*
X9219834Y4933365D01*
X9219407Y4932104D01*
X9218817Y4930910D01*
X9218077Y4929802D01*
X9217199Y4928801D01*
X9216198Y4927923D01*
X9215091Y4927183D01*
X9213896Y4926594D01*
X9212635Y4926166D01*
X9211329Y4925906D01*
X9210000Y4925819D01*
X9049999D01*
X9048670Y4925906D01*
X9047364Y4926166D01*
X9046103Y4926594D01*
X9044909Y4927183D01*
X9043801Y4927923D01*
X9042800Y4928801D01*
X9041922Y4929802D01*
X9041182Y4930910D01*
X9040593Y4932104D01*
X9040165Y4933365D01*
X9039905Y4934672D01*
X9039818Y4936001D01*
Y5316001D01*
X9039905Y5317329D01*
X9040165Y5318636D01*
X9040593Y5319897D01*
X9041182Y5321091D01*
X9041922Y5322199D01*
X9042800Y5323200D01*
X9043801Y5324078D01*
X9044909Y5324818D01*
X9046103Y5325407D01*
X9047364Y5325835D01*
X9048670Y5326095D01*
X9049999Y5326182D01*
X9210000D01*
X9211329Y5326095D01*
D02*
G37*
G36*
X7941329D02*
X7942635Y5325835D01*
X7943896Y5325407D01*
X7945091Y5324818D01*
X7946198Y5324078D01*
X7947199Y5323200D01*
X7948077Y5322199D01*
X7948817Y5321091D01*
X7949407Y5319897D01*
X7949834Y5318636D01*
X7950094Y5317329D01*
X7950181Y5316001D01*
Y4936001D01*
X7950094Y4934672D01*
X7949834Y4933365D01*
X7949407Y4932104D01*
X7948817Y4930910D01*
X7948077Y4929802D01*
X7947199Y4928801D01*
X7946198Y4927923D01*
X7945091Y4927183D01*
X7943896Y4926594D01*
X7942635Y4926166D01*
X7941329Y4925906D01*
X7940000Y4925819D01*
X7779999D01*
X7778670Y4925906D01*
X7777364Y4926166D01*
X7776103Y4926594D01*
X7774909Y4927183D01*
X7773801Y4927923D01*
X7772800Y4928801D01*
X7771922Y4929802D01*
X7771182Y4930910D01*
X7770593Y4932104D01*
X7770165Y4933365D01*
X7769905Y4934672D01*
X7769818Y4936001D01*
Y5316001D01*
X7769905Y5317329D01*
X7770165Y5318636D01*
X7770593Y5319897D01*
X7771182Y5321091D01*
X7771922Y5322199D01*
X7772800Y5323200D01*
X7773801Y5324078D01*
X7774909Y5324818D01*
X7776103Y5325407D01*
X7777364Y5325835D01*
X7778670Y5326095D01*
X7779999Y5326182D01*
X7940000D01*
X7941329Y5326095D01*
D02*
G37*
G36*
X6671329D02*
X6672635Y5325835D01*
X6673896Y5325407D01*
X6675091Y5324818D01*
X6676198Y5324078D01*
X6677199Y5323200D01*
X6678077Y5322199D01*
X6678817Y5321091D01*
X6679407Y5319897D01*
X6679834Y5318636D01*
X6680094Y5317329D01*
X6680181Y5316001D01*
Y4936001D01*
X6680094Y4934672D01*
X6679834Y4933365D01*
X6679407Y4932104D01*
X6678817Y4930910D01*
X6678077Y4929802D01*
X6677199Y4928801D01*
X6676198Y4927923D01*
X6675091Y4927183D01*
X6673896Y4926594D01*
X6672635Y4926166D01*
X6671329Y4925906D01*
X6670000Y4925819D01*
X6509999D01*
X6508670Y4925906D01*
X6507364Y4926166D01*
X6506103Y4926594D01*
X6504909Y4927183D01*
X6503801Y4927923D01*
X6502800Y4928801D01*
X6501922Y4929802D01*
X6501182Y4930910D01*
X6500593Y4932104D01*
X6500165Y4933365D01*
X6499905Y4934672D01*
X6499818Y4936001D01*
Y5316001D01*
X6499905Y5317329D01*
X6500165Y5318636D01*
X6500593Y5319897D01*
X6501182Y5321091D01*
X6501922Y5322199D01*
X6502800Y5323200D01*
X6503801Y5324078D01*
X6504909Y5324818D01*
X6506103Y5325407D01*
X6507364Y5325835D01*
X6508670Y5326095D01*
X6509999Y5326182D01*
X6670000D01*
X6671329Y5326095D01*
D02*
G37*
G36*
X5401329D02*
X5402635Y5325835D01*
X5403896Y5325407D01*
X5405091Y5324818D01*
X5406198Y5324078D01*
X5407199Y5323200D01*
X5408077Y5322199D01*
X5408817Y5321091D01*
X5409407Y5319897D01*
X5409834Y5318636D01*
X5410094Y5317329D01*
X5410181Y5316001D01*
Y4936001D01*
X5410094Y4934672D01*
X5409834Y4933365D01*
X5409407Y4932104D01*
X5408817Y4930910D01*
X5408077Y4929802D01*
X5407199Y4928801D01*
X5406198Y4927923D01*
X5405091Y4927183D01*
X5403896Y4926594D01*
X5402635Y4926166D01*
X5401329Y4925906D01*
X5400000Y4925819D01*
X5239999D01*
X5238670Y4925906D01*
X5237364Y4926166D01*
X5236103Y4926594D01*
X5234909Y4927183D01*
X5233801Y4927923D01*
X5232800Y4928801D01*
X5231922Y4929802D01*
X5231182Y4930910D01*
X5230593Y4932104D01*
X5230165Y4933365D01*
X5229905Y4934672D01*
X5229818Y4936001D01*
Y5316001D01*
X5229905Y5317329D01*
X5230165Y5318636D01*
X5230593Y5319897D01*
X5231182Y5321091D01*
X5231922Y5322199D01*
X5232800Y5323200D01*
X5233801Y5324078D01*
X5234909Y5324818D01*
X5236103Y5325407D01*
X5237364Y5325835D01*
X5238670Y5326095D01*
X5239999Y5326182D01*
X5400000D01*
X5401329Y5326095D01*
D02*
G37*
D45*
X975000Y2925000D02*
X1195000Y2710000D01*
X1512500D01*
X975000Y3225000D02*
X1050000Y3227500D01*
X1340000Y2937500D01*
X1332500Y2940000D02*
X1865000D01*
X1005000Y3557500D02*
X1525000D01*
X1170000Y3800000D02*
X1180000D01*
X1160000Y3825000D02*
X1185000Y3800000D01*
X1145000Y3825000D02*
X1160000D01*
X1185000Y3800000D02*
X2150000D01*
X975000Y3825000D02*
X1145000D01*
D46*
X4110000Y5765000D02*
D03*
X4290000D02*
D03*
X2340000Y6437500D02*
D03*
X2160000D02*
D03*
X2355000Y5902500D02*
D03*
X2175000D02*
D03*
X3707500Y6010000D02*
D03*
X3887500D02*
D03*
X6165000Y2400000D02*
D03*
X5985000D02*
D03*
X4985000Y200000D02*
D03*
X5165000D02*
D03*
X4815000Y2400000D02*
D03*
X4635000D02*
D03*
X5945000Y195000D02*
D03*
X5765000D02*
D03*
X8340000Y350000D02*
D03*
X8520000D02*
D03*
D47*
X3000000Y5932500D02*
D03*
Y5752500D02*
D03*
X5550000Y7790000D02*
D03*
Y7610000D02*
D03*
X5350000Y7790000D02*
D03*
Y7610000D02*
D03*
D48*
X2157500Y6732500D02*
D03*
X2347500D02*
D03*
X3697500Y5715000D02*
D03*
X3887500D02*
D03*
X2162500Y6157500D02*
D03*
X4280000Y4090000D02*
D03*
X4470000D02*
D03*
X4280000Y3890000D02*
D03*
X4470000D02*
D03*
X3055000Y3232501D02*
D03*
X3245000D02*
D03*
X3625000D02*
D03*
X3435000D02*
D03*
X4187500Y2665000D02*
D03*
X3997500D02*
D03*
X4030000Y3540000D02*
D03*
X4220000D02*
D03*
X5565000Y4810000D02*
D03*
X5375000D02*
D03*
X4217500Y3247500D02*
D03*
X4407500D02*
D03*
X4217500Y3047500D02*
D03*
X4407500D02*
D03*
X6405000Y2400000D02*
D03*
X6595000D02*
D03*
X3620000Y4090000D02*
D03*
X3430000D02*
D03*
X3060000D02*
D03*
X3250000D02*
D03*
X1595000Y5000000D02*
D03*
X1405000D02*
D03*
Y5300000D02*
D03*
X1595000D02*
D03*
X1405000Y5740000D02*
D03*
X1595000D02*
D03*
X2155000Y5160000D02*
D03*
X2345000D02*
D03*
X2140000Y4945000D02*
D03*
X2330000D02*
D03*
X1405000Y6500000D02*
D03*
X1595000D02*
D03*
X1405000Y6800000D02*
D03*
X1595000D02*
D03*
X1405000Y7100000D02*
D03*
X1595000D02*
D03*
X1405000Y7400000D02*
D03*
X1595000D02*
D03*
X4075000Y780000D02*
D03*
X4265000D02*
D03*
X2352500Y6157500D02*
D03*
X3345000Y2250000D02*
D03*
X3535000D02*
D03*
X7672500Y347500D02*
D03*
X7862500D02*
D03*
X6380000Y200000D02*
D03*
X6570000D02*
D03*
X3560000Y1025000D02*
D03*
X3750000D02*
D03*
D49*
X2719999Y5932500D02*
D03*
Y5742500D02*
D03*
X8755000Y7620000D02*
D03*
X6632500Y4642500D02*
D03*
Y4832500D02*
D03*
X6240000Y4642500D02*
D03*
Y4832500D02*
D03*
X5962500Y4642500D02*
D03*
Y4832500D02*
D03*
X9790000Y7430000D02*
D03*
Y7620000D02*
D03*
X9497500Y7430000D02*
D03*
Y7620000D02*
D03*
X9045000Y7430000D02*
D03*
Y7620000D02*
D03*
X8755000Y7430000D02*
D03*
X3550000Y1330000D02*
D03*
Y1520000D02*
D03*
X3710000Y6905000D02*
D03*
Y6715000D02*
D03*
Y6205000D02*
D03*
Y6395000D02*
D03*
X2657500Y6905000D02*
D03*
Y6715000D02*
D03*
X2947500D02*
D03*
Y6905000D02*
D03*
X6782500Y8325000D02*
D03*
Y8515000D02*
D03*
X7767500Y8337500D02*
D03*
Y8527500D02*
D03*
X8320000Y9535000D02*
D03*
Y9725000D02*
D03*
X7325000Y9535000D02*
D03*
Y9725000D02*
D03*
X6375000Y9535000D02*
D03*
Y9725000D02*
D03*
X5842500Y8362500D02*
D03*
Y8552500D02*
D03*
X9325000Y9524999D02*
D03*
Y9715000D02*
D03*
X8790000Y8355000D02*
D03*
Y8545000D02*
D03*
X3280000Y5742500D02*
D03*
Y5932500D02*
D03*
D50*
X3240000Y6290000D02*
D03*
X2800000Y6440000D02*
D03*
Y6390000D02*
D03*
Y6340000D02*
D03*
Y6290000D02*
D03*
Y6240000D02*
D03*
X3240000Y6440000D02*
D03*
Y6390000D02*
D03*
Y6340000D02*
D03*
Y6240000D02*
D03*
D51*
X1515000Y2711000D02*
D03*
X1525000Y3557000D02*
D03*
X1515000Y3169000D02*
D03*
X1525000Y4015000D02*
D03*
D52*
X2160000Y2940000D02*
D03*
X2170000Y3786000D02*
D03*
D53*
X8715000Y9190000D02*
D03*
X6735000Y9197500D02*
D03*
X7725000Y8895000D02*
D03*
Y9200000D02*
D03*
X8715000Y8885000D02*
D03*
X6735000Y8892500D02*
D03*
X5765000Y8895000D02*
D03*
Y9200000D02*
D03*
X315000Y895000D02*
D03*
Y590000D02*
D03*
X1655000Y2000000D02*
D03*
Y1695000D02*
D03*
D54*
X8730000Y9520000D02*
D03*
X6750000Y9530000D02*
D03*
X7835000Y9770000D02*
D03*
X7645000D02*
D03*
X7740000Y9530000D02*
D03*
X6845000Y9770000D02*
D03*
X6655000D02*
D03*
X5875000D02*
D03*
X5685000D02*
D03*
X5780000Y9530000D02*
D03*
X8825000Y9760000D02*
D03*
X8635000D02*
D03*
X4200000Y305000D02*
D03*
X4105000Y545000D02*
D03*
X4295000D02*
D03*
D55*
X3637500Y2700500D02*
D03*
Y2954500D02*
D03*
X2742500Y2700500D02*
D03*
Y2954500D02*
D03*
X3635000Y3560500D02*
D03*
Y3814500D02*
D03*
X2740000Y3560500D02*
D03*
Y3814500D02*
D03*
X3797500Y423000D02*
D03*
Y677000D02*
D03*
X2902500Y423000D02*
D03*
Y677000D02*
D03*
D56*
X3898000Y1352500D02*
D03*
X4152000D02*
D03*
X3898000Y2247500D02*
D03*
X4152000D02*
D03*
X8312000Y9272500D02*
D03*
X8058000D02*
D03*
X8312000Y8377500D02*
D03*
X8058000D02*
D03*
X7327000Y9272500D02*
D03*
X7073000D02*
D03*
X7327000Y8377500D02*
D03*
X7073000D02*
D03*
X6377000Y9272500D02*
D03*
X6123000D02*
D03*
X6377000Y8377500D02*
D03*
X6123000D02*
D03*
X9327000Y9262500D02*
D03*
X9073000D02*
D03*
X9327000Y8367500D02*
D03*
X9073000D02*
D03*
D57*
X2297500Y425000D02*
D03*
X2602500D02*
D03*
D58*
X1212500Y1675000D02*
D03*
X487500D02*
D03*
X2825000D02*
D03*
X2100000D02*
D03*
D59*
X5545000Y195000D02*
D03*
X5365000D02*
D03*
X5610000Y2400000D02*
D03*
X5790000D02*
D03*
X5135000Y2400000D02*
D03*
X5315000D02*
D03*
X4620000Y200000D02*
D03*
X4800000D02*
D03*
D60*
X3867500Y3965000D02*
D03*
X4082500Y4030000D02*
D03*
Y3900000D02*
D03*
X4060000Y3045000D02*
D03*
Y3175000D02*
D03*
X3845000Y3110000D02*
D03*
D61*
X8970000Y350000D02*
D03*
X9330000D02*
D03*
X4700000Y7630000D02*
D03*
X5060000D02*
D03*
X6200000Y7640000D02*
D03*
X5840000D02*
D03*
D62*
X675000Y6175000D02*
D03*
X1940000Y932500D02*
D03*
X1180000D02*
D03*
X930000D02*
D03*
Y432500D02*
D03*
X1180000D02*
D03*
X1940000D02*
D03*
X1247500Y8582500D02*
D03*
Y9342500D02*
D03*
Y9592500D02*
D03*
X747500D02*
D03*
Y9342500D02*
D03*
Y8582500D02*
D03*
X4140000Y8587500D02*
D03*
Y9347500D02*
D03*
Y9597500D02*
D03*
X3640000D02*
D03*
Y9347500D02*
D03*
Y8587500D02*
D03*
X3175000Y8585000D02*
D03*
Y9345000D02*
D03*
Y9595000D02*
D03*
X2675000D02*
D03*
Y9345000D02*
D03*
Y8585000D02*
D03*
X2210000Y8582500D02*
D03*
Y9342500D02*
D03*
Y9592500D02*
D03*
X1710000D02*
D03*
Y9342500D02*
D03*
Y8582500D02*
D03*
X4825000Y1961000D02*
D03*
Y1707000D02*
D03*
Y641000D02*
D03*
X6665000Y895000D02*
D03*
Y641000D02*
D03*
X4825000Y895000D02*
D03*
X6665000Y1707000D02*
D03*
Y1961000D02*
D03*
Y4158500D02*
D03*
Y3904500D02*
D03*
X4825000Y3092500D02*
D03*
X6665000Y2838500D02*
D03*
Y3092500D02*
D03*
X4825000Y2838500D02*
D03*
Y3904500D02*
D03*
Y4158500D02*
D03*
X975000Y2925000D02*
D03*
Y3525000D02*
D03*
Y3225000D02*
D03*
Y3825000D02*
D03*
X675000Y7075000D02*
D03*
Y6775000D02*
D03*
Y7375000D02*
D03*
Y6475000D02*
D03*
Y5275000D02*
D03*
Y4975000D02*
D03*
Y5875000D02*
D03*
Y5575000D02*
D03*
X256500Y5189000D02*
D03*
X256500Y7459000D02*
D03*
X975000Y4975000D02*
D03*
Y5275000D02*
D03*
Y5575000D02*
D03*
Y5875000D02*
D03*
Y6175000D02*
D03*
Y6475000D02*
D03*
Y6775000D02*
D03*
Y7075000D02*
D03*
Y7375000D02*
D03*
Y7675000D02*
D03*
X8958000Y880000D02*
D03*
X7688000D02*
D03*
X7942000D02*
D03*
X8196000D02*
D03*
X8450000D02*
D03*
X8704000D02*
D03*
X9212000D02*
D03*
X8572000Y3760000D02*
D03*
X8318000D02*
D03*
X675000Y3525000D02*
D03*
Y3225000D02*
D03*
Y2925000D02*
D03*
Y2625000D02*
D03*
X975000D02*
D03*
X256500Y3609000D02*
D03*
X256500Y2839000D02*
D03*
D63*
X675000Y7675000D02*
D03*
Y3825000D02*
D03*
D64*
X5565000Y3360000D02*
D03*
X3910000Y-992500D02*
D03*
X3092500Y1235000D02*
D03*
X955000Y637500D02*
D03*
X7155000Y5875000D02*
D03*
X4317500Y5580000D02*
D03*
X4140000Y5471500D02*
D03*
X3490000D02*
D03*
Y5756268D02*
D03*
X3154366Y3851641D02*
D03*
X3835200Y3360200D02*
D03*
X7487500Y8577500D02*
D03*
X4925000Y8492500D02*
D03*
X9662500Y8380000D02*
D03*
X6012500Y1287500D02*
D03*
X667500Y4527500D02*
D03*
X3215000Y6647500D02*
D03*
X5640000Y8540000D02*
D03*
X5235000Y4305000D02*
D03*
X5360000Y4431500D02*
D03*
X1517700Y1517700D02*
D03*
X9130000Y9510000D02*
D03*
X7090000Y9520000D02*
D03*
X1080000Y4090000D02*
D03*
X4570000Y7980000D02*
D03*
X9430000Y2965000D02*
D03*
X3350000Y2005000D02*
D03*
X3050000Y2340000D02*
D03*
X3550000Y1690000D02*
D03*
X7497500Y360000D02*
D03*
X2345000Y2380000D02*
D03*
X7260000Y3367500D02*
D03*
X1230000Y7660000D02*
D03*
X5190000Y4800000D02*
D03*
X3890000Y6200000D02*
D03*
X3400000Y6810000D02*
D03*
X5220000Y5950000D02*
D03*
X5370000Y6130000D02*
D03*
X5540000Y4550000D02*
D03*
X5520000Y8950000D02*
D03*
X5980000Y2630000D02*
D03*
X8120000Y9520000D02*
D03*
X6150000Y200000D02*
D03*
D65*
X9575000Y5555001D02*
D03*
X4874999Y6695000D02*
D03*
X9575000D02*
D03*
X4874999Y5555001D02*
D03*
D66*
X250000Y250000D02*
D03*
Y9725000D02*
D03*
X9750000Y250000D02*
D03*
Y9750000D02*
D03*
%TF.MD5,094ae977782b1c3961f5ae6feb0a09a1*%
M02*
