%TF.GenerationSoftware,Altium Limited,Altium Designer,23.4.1 (23)*%
G04 Layer_Color=2752767*
%FSLAX45Y45*%
%MOMM*%
%TF.SameCoordinates,6CF259D0-23F4-4C04-AF4F-6D395A9B2DD4*%
%TF.FilePolarity,Positive*%
%TF.FileFunction,Drawing*%
%TF.Part,Single*%
G01*
G75*
%TA.AperFunction,NonConductor*%
%ADD75C,0.16933*%
%ADD77C,0.12700*%
D75*
X725800Y6175000D02*
G03*
X725800Y6175000I-50800J0D01*
G01*
X1990800Y932500D02*
G03*
X1990800Y932500I-50800J0D01*
G01*
X1230800D02*
G03*
X1230800Y932500I-50800J0D01*
G01*
X980800D02*
G03*
X980800Y932500I-50800J0D01*
G01*
Y432500D02*
G03*
X980800Y432500I-50800J0D01*
G01*
X1230800D02*
G03*
X1230800Y432500I-50800J0D01*
G01*
X1990800D02*
G03*
X1990800Y432500I-50800J0D01*
G01*
X1298300Y8582500D02*
G03*
X1298300Y8582500I-50800J0D01*
G01*
Y9342500D02*
G03*
X1298300Y9342500I-50800J0D01*
G01*
Y9592500D02*
G03*
X1298300Y9592500I-50800J0D01*
G01*
X798300D02*
G03*
X798300Y9592500I-50800J0D01*
G01*
Y9342500D02*
G03*
X798300Y9342500I-50800J0D01*
G01*
Y8582500D02*
G03*
X798300Y8582500I-50800J0D01*
G01*
X4190800Y8587500D02*
G03*
X4190800Y8587500I-50800J0D01*
G01*
Y9347500D02*
G03*
X4190800Y9347500I-50800J0D01*
G01*
Y9597500D02*
G03*
X4190800Y9597500I-50800J0D01*
G01*
X3690800D02*
G03*
X3690800Y9597500I-50800J0D01*
G01*
Y9347500D02*
G03*
X3690800Y9347500I-50800J0D01*
G01*
Y8587500D02*
G03*
X3690800Y8587500I-50800J0D01*
G01*
X3225800Y8585000D02*
G03*
X3225800Y8585000I-50800J0D01*
G01*
Y9345000D02*
G03*
X3225800Y9345000I-50800J0D01*
G01*
Y9595000D02*
G03*
X3225800Y9595000I-50800J0D01*
G01*
X2725800D02*
G03*
X2725800Y9595000I-50800J0D01*
G01*
Y9345000D02*
G03*
X2725800Y9345000I-50800J0D01*
G01*
Y8585000D02*
G03*
X2725800Y8585000I-50800J0D01*
G01*
X2260800Y8582500D02*
G03*
X2260800Y8582500I-50800J0D01*
G01*
Y9342500D02*
G03*
X2260800Y9342500I-50800J0D01*
G01*
Y9592500D02*
G03*
X2260800Y9592500I-50800J0D01*
G01*
X1760800D02*
G03*
X1760800Y9592500I-50800J0D01*
G01*
Y9342500D02*
G03*
X1760800Y9342500I-50800J0D01*
G01*
Y8582500D02*
G03*
X1760800Y8582500I-50800J0D01*
G01*
X4875800Y1961000D02*
G03*
X4875800Y1961000I-50800J0D01*
G01*
Y1707000D02*
G03*
X4875800Y1707000I-50800J0D01*
G01*
Y641000D02*
G03*
X4875800Y641000I-50800J0D01*
G01*
X6715800Y895000D02*
G03*
X6715800Y895000I-50800J0D01*
G01*
Y641000D02*
G03*
X6715800Y641000I-50800J0D01*
G01*
X4875800Y895000D02*
G03*
X4875800Y895000I-50800J0D01*
G01*
X6715800Y1707000D02*
G03*
X6715800Y1707000I-50800J0D01*
G01*
Y1961000D02*
G03*
X6715800Y1961000I-50800J0D01*
G01*
Y4158500D02*
G03*
X6715800Y4158500I-50800J0D01*
G01*
Y3904500D02*
G03*
X6715800Y3904500I-50800J0D01*
G01*
X4875800Y3092500D02*
G03*
X4875800Y3092500I-50800J0D01*
G01*
X6715800Y2838500D02*
G03*
X6715800Y2838500I-50800J0D01*
G01*
Y3092500D02*
G03*
X6715800Y3092500I-50800J0D01*
G01*
X4875800Y2838500D02*
G03*
X4875800Y2838500I-50800J0D01*
G01*
Y3904500D02*
G03*
X4875800Y3904500I-50800J0D01*
G01*
Y4158500D02*
G03*
X4875800Y4158500I-50800J0D01*
G01*
X1025800Y2925000D02*
G03*
X1025800Y2925000I-50800J0D01*
G01*
Y3525000D02*
G03*
X1025800Y3525000I-50800J0D01*
G01*
Y3225000D02*
G03*
X1025800Y3225000I-50800J0D01*
G01*
Y3825000D02*
G03*
X1025800Y3825000I-50800J0D01*
G01*
X9663400Y6379000D02*
G03*
X9663400Y6379000I-50800J0D01*
G01*
Y5871000D02*
G03*
X9663400Y5871000I-50800J0D01*
G01*
Y6125000D02*
G03*
X9663400Y6125000I-50800J0D01*
G01*
X6640800Y7014000D02*
G03*
X6640800Y7014000I-50800J0D01*
G01*
X7910800D02*
G03*
X7910800Y7014000I-50800J0D01*
G01*
X9180800Y5236000D02*
G03*
X9180800Y5236000I-50800J0D01*
G01*
X7910800D02*
G03*
X7910800Y5236000I-50800J0D01*
G01*
X4862800Y7014000D02*
G03*
X4862800Y7014000I-50800J0D01*
G01*
X5116800D02*
G03*
X5116800Y7014000I-50800J0D01*
G01*
X5624800D02*
G03*
X5624800Y7014000I-50800J0D01*
G01*
X5878800D02*
G03*
X5878800Y7014000I-50800J0D01*
G01*
X6132800D02*
G03*
X6132800Y7014000I-50800J0D01*
G01*
X6386800D02*
G03*
X6386800Y7014000I-50800J0D01*
G01*
X6894800D02*
G03*
X6894800Y7014000I-50800J0D01*
G01*
X7148800D02*
G03*
X7148800Y7014000I-50800J0D01*
G01*
X7402800D02*
G03*
X7402800Y7014000I-50800J0D01*
G01*
X7656800D02*
G03*
X7656800Y7014000I-50800J0D01*
G01*
X8164800D02*
G03*
X8164800Y7014000I-50800J0D01*
G01*
X8418800D02*
G03*
X8418800Y7014000I-50800J0D01*
G01*
X8672800D02*
G03*
X8672800Y7014000I-50800J0D01*
G01*
X8926800D02*
G03*
X8926800Y7014000I-50800J0D01*
G01*
X9434800D02*
G03*
X9434800Y7014000I-50800J0D01*
G01*
X9688800D02*
G03*
X9688800Y7014000I-50800J0D01*
G01*
Y5236000D02*
G03*
X9688800Y5236000I-50800J0D01*
G01*
X9434800D02*
G03*
X9434800Y5236000I-50800J0D01*
G01*
X8926800D02*
G03*
X8926800Y5236000I-50800J0D01*
G01*
X8672800D02*
G03*
X8672800Y5236000I-50800J0D01*
G01*
X8418800D02*
G03*
X8418800Y5236000I-50800J0D01*
G01*
X8164800D02*
G03*
X8164800Y5236000I-50800J0D01*
G01*
X7656800D02*
G03*
X7656800Y5236000I-50800J0D01*
G01*
X7402800D02*
G03*
X7402800Y5236000I-50800J0D01*
G01*
X7148800D02*
G03*
X7148800Y5236000I-50800J0D01*
G01*
X6894800D02*
G03*
X6894800Y5236000I-50800J0D01*
G01*
X6386800D02*
G03*
X6386800Y5236000I-50800J0D01*
G01*
X6132800D02*
G03*
X6132800Y5236000I-50800J0D01*
G01*
X5878800D02*
G03*
X5878800Y5236000I-50800J0D01*
G01*
X5624800D02*
G03*
X5624800Y5236000I-50800J0D01*
G01*
X5116800D02*
G03*
X5116800Y5236000I-50800J0D01*
G01*
X4862800D02*
G03*
X4862800Y5236000I-50800J0D01*
G01*
X5370800D02*
G03*
X5370800Y5236000I-50800J0D01*
G01*
X6640800D02*
G03*
X6640800Y5236000I-50800J0D01*
G01*
X5370800Y7014000D02*
G03*
X5370800Y7014000I-50800J0D01*
G01*
X9180800D02*
G03*
X9180800Y7014000I-50800J0D01*
G01*
X725800Y7075000D02*
G03*
X725800Y7075000I-50800J0D01*
G01*
Y6775000D02*
G03*
X725800Y6775000I-50800J0D01*
G01*
Y7675000D02*
G03*
X725800Y7675000I-50800J0D01*
G01*
Y7375000D02*
G03*
X725800Y7375000I-50800J0D01*
G01*
Y6475000D02*
G03*
X725800Y6475000I-50800J0D01*
G01*
Y5275000D02*
G03*
X725800Y5275000I-50800J0D01*
G01*
Y4975000D02*
G03*
X725800Y4975000I-50800J0D01*
G01*
Y5875000D02*
G03*
X725800Y5875000I-50800J0D01*
G01*
Y5575000D02*
G03*
X725800Y5575000I-50800J0D01*
G01*
X1025800Y4975000D02*
G03*
X1025800Y4975000I-50800J0D01*
G01*
Y5275000D02*
G03*
X1025800Y5275000I-50800J0D01*
G01*
Y5575000D02*
G03*
X1025800Y5575000I-50800J0D01*
G01*
Y5875000D02*
G03*
X1025800Y5875000I-50800J0D01*
G01*
Y6175000D02*
G03*
X1025800Y6175000I-50800J0D01*
G01*
Y6475000D02*
G03*
X1025800Y6475000I-50800J0D01*
G01*
Y6775000D02*
G03*
X1025800Y6775000I-50800J0D01*
G01*
Y7075000D02*
G03*
X1025800Y7075000I-50800J0D01*
G01*
Y7375000D02*
G03*
X1025800Y7375000I-50800J0D01*
G01*
Y7675000D02*
G03*
X1025800Y7675000I-50800J0D01*
G01*
X9008800Y880000D02*
G03*
X9008800Y880000I-50800J0D01*
G01*
X7738800D02*
G03*
X7738800Y880000I-50800J0D01*
G01*
X7992800D02*
G03*
X7992800Y880000I-50800J0D01*
G01*
X8246800D02*
G03*
X8246800Y880000I-50800J0D01*
G01*
X8500800D02*
G03*
X8500800Y880000I-50800J0D01*
G01*
X8754800D02*
G03*
X8754800Y880000I-50800J0D01*
G01*
X9262800D02*
G03*
X9262800Y880000I-50800J0D01*
G01*
X8622800Y3760000D02*
G03*
X8622800Y3760000I-50800J0D01*
G01*
X8368800D02*
G03*
X8368800Y3760000I-50800J0D01*
G01*
X725800Y3525000D02*
G03*
X725800Y3525000I-50800J0D01*
G01*
Y3225000D02*
G03*
X725800Y3225000I-50800J0D01*
G01*
Y2925000D02*
G03*
X725800Y2925000I-50800J0D01*
G01*
Y2625000D02*
G03*
X725800Y2625000I-50800J0D01*
G01*
X1025800D02*
G03*
X1025800Y2625000I-50800J0D01*
G01*
X725800Y3825000D02*
G03*
X725800Y3825000I-50800J0D01*
G01*
D77*
X205700Y5138200D02*
Y5239800D01*
X307300D01*
Y5138200D01*
X205700D01*
X205700Y7408200D02*
Y7509800D01*
X307300D01*
Y7408200D01*
X205700D01*
Y3558200D02*
Y3659800D01*
X307300D01*
Y3558200D01*
X205700D01*
X205700Y2788200D02*
Y2889800D01*
X307300D01*
Y2788200D01*
X205700D01*
X5565000Y3309200D02*
X5514200Y3410800D01*
X5615800D01*
X5565000Y3309200D01*
X3910000Y-1043300D02*
X3859200Y-941700D01*
X3960800D01*
X3910000Y-1043300D01*
X3092500Y1184200D02*
X3041700Y1285800D01*
X3143300D01*
X3092500Y1184200D01*
X955000Y586700D02*
X904200Y688300D01*
X1005800D01*
X955000Y586700D01*
X7155000Y5824200D02*
X7104200Y5925800D01*
X7205800D01*
X7155000Y5824200D01*
X4317500Y5529200D02*
X4266700Y5630800D01*
X4368300D01*
X4317500Y5529200D01*
X4140000Y5420700D02*
X4089200Y5522300D01*
X4190800D01*
X4140000Y5420700D01*
X3490000D02*
X3439200Y5522300D01*
X3540800D01*
X3490000Y5420700D01*
Y5705468D02*
X3439200Y5807068D01*
X3540800D01*
X3490000Y5705468D01*
X3154366Y3800841D02*
X3103566Y3902441D01*
X3205166D01*
X3154366Y3800841D01*
X3835200Y3309400D02*
X3784400Y3411000D01*
X3886000D01*
X3835200Y3309400D01*
X7487500Y8526700D02*
X7436700Y8628300D01*
X7538300D01*
X7487500Y8526700D01*
X4925000Y8441700D02*
X4874200Y8543300D01*
X4975800D01*
X4925000Y8441700D01*
X9662500Y8329200D02*
X9611700Y8430800D01*
X9713300D01*
X9662500Y8329200D01*
X6012500Y1236700D02*
X5961700Y1338300D01*
X6063300D01*
X6012500Y1236700D01*
X667500Y4476700D02*
X616700Y4578300D01*
X718300D01*
X667500Y4476700D01*
X3215000Y6596700D02*
X3164200Y6698300D01*
X3265800D01*
X3215000Y6596700D01*
X5640000Y8489200D02*
X5589200Y8590800D01*
X5690800D01*
X5640000Y8489200D01*
X5235000Y4254200D02*
X5184200Y4355800D01*
X5285800D01*
X5235000Y4254200D01*
X5360000Y4380700D02*
X5309200Y4482300D01*
X5410800D01*
X5360000Y4380700D01*
X1517700Y1466900D02*
X1466900Y1568500D01*
X1568500D01*
X1517700Y1466900D01*
X9130000Y9459200D02*
X9079200Y9560800D01*
X9180800D01*
X9130000Y9459200D01*
X7090000Y9469200D02*
X7039200Y9570800D01*
X7140800D01*
X7090000Y9469200D01*
X1080000Y4039200D02*
X1029200Y4140800D01*
X1130800D01*
X1080000Y4039200D01*
X4570000Y7929200D02*
X4519200Y8030800D01*
X4620800D01*
X4570000Y7929200D01*
X9430000Y2914200D02*
X9379200Y3015800D01*
X9480800D01*
X9430000Y2914200D01*
X3350000Y1954200D02*
X3299200Y2055800D01*
X3400800D01*
X3350000Y1954200D01*
X3050000Y2289200D02*
X2999200Y2390800D01*
X3100800D01*
X3050000Y2289200D01*
X3550000Y1639200D02*
X3499200Y1740800D01*
X3600800D01*
X3550000Y1639200D01*
X9575000Y5504201D02*
X9600400Y5529601D01*
X9625800D01*
X9600400Y5555001D01*
X9625800Y5580401D01*
X9600400D01*
X9575000Y5605801D01*
X9549600Y5580401D01*
X9524200D01*
X9549600Y5555001D01*
X9524200Y5529601D01*
X9549600D01*
X9575000Y5504201D01*
X4874999Y6644200D02*
X4900399Y6669600D01*
X4925799D01*
X4900399Y6695000D01*
X4925799Y6720400D01*
X4900399D01*
X4874999Y6745800D01*
X4849599Y6720400D01*
X4824199D01*
X4849599Y6695000D01*
X4824199Y6669600D01*
X4849599D01*
X4874999Y6644200D01*
X9575000D02*
X9600400Y6669600D01*
X9625800D01*
X9600400Y6695000D01*
X9625800Y6720400D01*
X9600400D01*
X9575000Y6745800D01*
X9549600Y6720400D01*
X9524200D01*
X9549600Y6695000D01*
X9524200Y6669600D01*
X9549600D01*
X9575000Y6644200D01*
X4874999Y5504201D02*
X4900399Y5529601D01*
X4925799D01*
X4900399Y5555001D01*
X4925799Y5580401D01*
X4900399D01*
X4874999Y5605801D01*
X4849599Y5580401D01*
X4824199D01*
X4849599Y5555001D01*
X4824199Y5529601D01*
X4849599D01*
X4874999Y5504201D01*
X199200Y199200D02*
Y300800D01*
X300800D01*
Y199200D01*
X199200D01*
X7497500Y309200D02*
X7446700Y410800D01*
X7548300D01*
X7497500Y309200D01*
X2345000Y2329200D02*
X2294200Y2430800D01*
X2395800D01*
X2345000Y2329200D01*
X7260000Y3316700D02*
X7209200Y3418300D01*
X7310800D01*
X7260000Y3316700D01*
X1230000Y7609200D02*
X1179200Y7710800D01*
X1280800D01*
X1230000Y7609200D01*
X5190000Y4749200D02*
X5139200Y4850800D01*
X5240800D01*
X5190000Y4749200D01*
X3890000Y6149200D02*
X3839200Y6250800D01*
X3940800D01*
X3890000Y6149200D01*
X3400000Y6759200D02*
X3349200Y6860800D01*
X3450800D01*
X3400000Y6759200D01*
X5220000Y5899200D02*
X5169200Y6000800D01*
X5270800D01*
X5220000Y5899200D01*
X5370000Y6079200D02*
X5319200Y6180800D01*
X5420800D01*
X5370000Y6079200D01*
X5540000Y4499200D02*
X5489200Y4600800D01*
X5590800D01*
X5540000Y4499200D01*
X5520000Y8899200D02*
X5469200Y9000800D01*
X5570800D01*
X5520000Y8899200D01*
X5980000Y2579200D02*
X5929200Y2680800D01*
X6030800D01*
X5980000Y2579200D01*
X8120000Y9469200D02*
X8069200Y9570800D01*
X8170800D01*
X8120000Y9469200D01*
X6150000Y149200D02*
X6099200Y250800D01*
X6200800D01*
X6150000Y149200D01*
X199200Y9674200D02*
Y9775800D01*
X300800D01*
Y9674200D01*
X199200D01*
X9699200Y199200D02*
Y300800D01*
X9800800D01*
Y199200D01*
X9699200D01*
Y9699200D02*
Y9800800D01*
X9800800D01*
Y9699200D01*
X9699200D01*
%TF.MD5,bbcdf89a58867b60cc16038f3ce9627f*%
M02*
