%TF.GenerationSoftware,Altium Limited,Altium Designer,23.4.1 (23)*%
G04 Layer_Physical_Order=2*
G04 Layer_Color=16711680*
%FSLAX45Y45*%
%MOMM*%
%TF.SameCoordinates,A75527D8-0430-496F-940A-C9051ED7E30B*%
%TF.FilePolarity,Positive*%
%TF.FileFunction,Copper,L2,Bot,Signal*%
%TF.Part,Single*%
G01*
G75*
%TA.AperFunction,Conductor*%
%ADD26C,0.50000*%
%ADD27C,1.50000*%
%ADD28C,1.70000*%
%ADD29C,1.00000*%
%ADD30C,1.40000*%
%TA.AperFunction,ComponentPad*%
%ADD31C,1.60000*%
%ADD32R,1.60000X1.60000*%
%AMCUSTOMSHAPE33*
4,1,4,-0.80000,-0.80000,-0.80000,0.80000,3.00000,0.80000,3.00000,-0.80000,-0.80000,-0.80000,0.0*%
%ADD33CUSTOMSHAPE33*%

%AMCUSTOMSHAPE34*
4,1,4,-0.80000,-0.80000,0.80000,-0.80000,0.80000,3.00000,-0.80000,3.00000,-0.80000,-0.80000,0.0*%
%ADD34CUSTOMSHAPE34*%

%AMCUSTOMSHAPE35*
4,1,4,-0.80000,0.80000,0.80000,0.80000,0.80000,-3.00000,-0.80000,-3.00000,-0.80000,0.80000,0.0*%
%ADD35CUSTOMSHAPE35*%

%TA.AperFunction,ViaPad*%
%ADD36C,3.50000*%
%ADD37C,1.27000*%
%ADD38C,3.00000*%
G36*
X10000000Y0D02*
X0D01*
Y10000000D01*
X10000000D01*
Y0D01*
D02*
G37*
%LPC*%
G36*
X9775000Y9923864D02*
Y9775000D01*
X9923864D01*
X9918659Y9801162D01*
X9905437Y9833083D01*
X9886242Y9861811D01*
X9861811Y9886242D01*
X9833083Y9905437D01*
X9801162Y9918659D01*
X9775000Y9923864D01*
D02*
G37*
G36*
X9725000D02*
X9698838Y9918659D01*
X9666917Y9905437D01*
X9638189Y9886242D01*
X9613758Y9861811D01*
X9594563Y9833083D01*
X9581341Y9801162D01*
X9576137Y9775000D01*
X9725000D01*
Y9923864D01*
D02*
G37*
G36*
X275000Y9898864D02*
Y9750000D01*
X423864D01*
X418659Y9776162D01*
X405437Y9808083D01*
X386242Y9836811D01*
X361811Y9861242D01*
X333083Y9880437D01*
X301162Y9893659D01*
X275000Y9898864D01*
D02*
G37*
G36*
X225000D02*
X198838Y9893659D01*
X166917Y9880437D01*
X138189Y9861242D01*
X113758Y9836811D01*
X94563Y9808083D01*
X81341Y9776162D01*
X76136Y9750000D01*
X225000D01*
Y9898864D01*
D02*
G37*
G36*
X9923864Y9725000D02*
X9775000D01*
Y9576137D01*
X9801162Y9581341D01*
X9833083Y9594563D01*
X9861811Y9613758D01*
X9886242Y9638189D01*
X9905437Y9666917D01*
X9918659Y9698838D01*
X9923864Y9725000D01*
D02*
G37*
G36*
X9725000D02*
X9576137D01*
X9581341Y9698838D01*
X9594563Y9666917D01*
X9613758Y9638189D01*
X9638189Y9613758D01*
X9666917Y9594563D01*
X9698838Y9581341D01*
X9725000Y9576137D01*
Y9725000D01*
D02*
G37*
G36*
X423864Y9700000D02*
X275000D01*
Y9551137D01*
X301162Y9556341D01*
X333083Y9569563D01*
X361811Y9588758D01*
X386242Y9613189D01*
X405437Y9641917D01*
X418659Y9673838D01*
X423864Y9700000D01*
D02*
G37*
G36*
X225000D02*
X76136D01*
X81341Y9673838D01*
X94563Y9641917D01*
X113758Y9613189D01*
X138189Y9588758D01*
X166917Y9569563D01*
X198838Y9556341D01*
X225000Y9551137D01*
Y9700000D01*
D02*
G37*
G36*
X8735000Y9970561D02*
X1236777D01*
X1219808Y9968327D01*
X1203996Y9961777D01*
X1190418Y9951358D01*
X872224Y9633164D01*
X859956Y9636451D01*
X859322Y9638818D01*
X843524Y9666182D01*
X821181Y9688524D01*
X793818Y9704322D01*
X763298Y9712500D01*
X731702D01*
X701182Y9704322D01*
X673818Y9688524D01*
X651476Y9666182D01*
X635678Y9638818D01*
X627500Y9608298D01*
Y9576702D01*
X635678Y9546182D01*
X651476Y9518818D01*
X673818Y9496476D01*
X701182Y9480678D01*
X705221Y9479596D01*
X709359Y9467004D01*
X703325Y9454896D01*
X701182Y9454322D01*
X673818Y9438524D01*
X651476Y9416182D01*
X635678Y9388818D01*
X627500Y9358298D01*
Y9326702D01*
X635678Y9296182D01*
X636679Y9294448D01*
X630329Y9283449D01*
X627010D01*
X598295Y9279669D01*
X571536Y9268585D01*
X548558Y9250953D01*
X421547Y9123942D01*
X403915Y9100964D01*
X392831Y9074205D01*
X389051Y9045490D01*
Y7611318D01*
X384650Y7609496D01*
X376351Y7607429D01*
X346499Y7627376D01*
X311921Y7641698D01*
X275214Y7649000D01*
X237787D01*
X201079Y7641698D01*
X166502Y7627376D01*
X135382Y7606582D01*
X108918Y7580118D01*
X88125Y7548999D01*
X73802Y7514421D01*
X66500Y7477714D01*
Y7440287D01*
X73802Y7403579D01*
X88125Y7369002D01*
X108918Y7337882D01*
X135382Y7311418D01*
X166502Y7290624D01*
X201079Y7276302D01*
X237787Y7269000D01*
X275214D01*
X311921Y7276302D01*
X346499Y7290624D01*
X377618Y7311418D01*
X404083Y7337882D01*
X424876Y7369002D01*
X439198Y7403579D01*
X444567Y7430567D01*
X458347Y7434748D01*
X562726Y7330369D01*
X563178Y7328682D01*
X578976Y7301319D01*
X601318Y7278977D01*
X628682Y7263178D01*
X659202Y7255000D01*
X690798D01*
X721318Y7263178D01*
X748682Y7278977D01*
X771024Y7301319D01*
X786822Y7328682D01*
X795000Y7359202D01*
Y7390799D01*
X786822Y7421318D01*
X771024Y7448682D01*
X748682Y7471024D01*
X721318Y7486822D01*
X719632Y7487274D01*
X649039Y7557867D01*
X650000Y7560188D01*
Y7675000D01*
Y7780400D01*
X610949D01*
Y8999533D01*
X672967Y9061551D01*
X950000D01*
X978716Y9065332D01*
X1005474Y9076415D01*
X1028453Y9094047D01*
X1100953Y9166548D01*
X1118585Y9189526D01*
X1129669Y9216285D01*
X1133449Y9245000D01*
Y9274642D01*
X1146149Y9278045D01*
X1151476Y9268818D01*
X1173818Y9246476D01*
X1201182Y9230678D01*
X1231702Y9222500D01*
X1263298D01*
X1271115Y9224595D01*
X1361367D01*
X1371551Y9214411D01*
Y3178456D01*
X1107700Y2914605D01*
X1095000Y2919866D01*
Y2940798D01*
X1086822Y2971318D01*
X1071024Y2998681D01*
X1048681Y3021023D01*
X1021318Y3036822D01*
X990798Y3044999D01*
X959202D01*
X928682Y3036822D01*
X901318Y3021023D01*
X878976Y2998681D01*
X863178Y2971318D01*
X855000Y2940798D01*
Y2909201D01*
X863178Y2878682D01*
X878976Y2851318D01*
X901318Y2828976D01*
X928682Y2813178D01*
X959202Y2805000D01*
X980134D01*
X985395Y2792300D01*
X930368Y2737274D01*
X928682Y2736822D01*
X901318Y2721024D01*
X878976Y2698681D01*
X863178Y2671318D01*
X855000Y2640798D01*
Y2609202D01*
X863178Y2578682D01*
X878976Y2551318D01*
X901318Y2528976D01*
X928682Y2513178D01*
X959202Y2505000D01*
X990798D01*
X1021318Y2513178D01*
X1048681Y2528976D01*
X1071024Y2551318D01*
X1086822Y2578682D01*
X1087274Y2580368D01*
X1560953Y3054047D01*
X1578585Y3077025D01*
X1589669Y3103784D01*
X1593449Y3132500D01*
Y8561171D01*
X1606149Y8562843D01*
X1611783Y8541817D01*
X1625659Y8517783D01*
X1645283Y8498159D01*
X1669317Y8484283D01*
X1685000Y8480081D01*
Y8582499D01*
Y8684919D01*
X1669317Y8680717D01*
X1645283Y8666841D01*
X1625659Y8647217D01*
X1611783Y8623183D01*
X1606149Y8602157D01*
X1593449Y8603829D01*
Y9039008D01*
X2020000D01*
X2050021Y9042960D01*
X2077996Y9054548D01*
X2102019Y9072981D01*
X2222235Y9193197D01*
X2354951Y9060481D01*
X2378973Y9042048D01*
X2406948Y9030460D01*
X2436969Y9026508D01*
X2953031D01*
X2983052Y9030460D01*
X3011027Y9042048D01*
X3035050Y9060481D01*
X3175000Y9200431D01*
X3322450Y9052981D01*
X3346472Y9034548D01*
X3374447Y9022960D01*
X3404468Y9019008D01*
X3910531D01*
X3940552Y9022960D01*
X3968527Y9034548D01*
X3992550Y9052981D01*
X4171195Y9231626D01*
X4186318Y9235678D01*
X4213682Y9251476D01*
X4236024Y9273818D01*
X4242156Y9284439D01*
X5092844D01*
X5416500Y8960783D01*
Y8936374D01*
X5423553Y8910051D01*
X5437179Y8886449D01*
X5456449Y8867179D01*
X5480051Y8853553D01*
X5506374Y8846500D01*
X5533626D01*
X5559949Y8853553D01*
X5583550Y8867179D01*
X5602820Y8886449D01*
X5616446Y8910051D01*
X5623500Y8936374D01*
Y8963626D01*
X5616446Y8989949D01*
X5602820Y9013550D01*
X5583550Y9032820D01*
X5559949Y9046446D01*
X5533626Y9053500D01*
X5509217D01*
X5166358Y9396358D01*
X5152780Y9406777D01*
X5136968Y9413327D01*
X5120000Y9415561D01*
X4239269D01*
X4236024Y9421182D01*
X4213682Y9443524D01*
X4186318Y9459322D01*
X4161672Y9465926D01*
Y9479074D01*
X4186318Y9485678D01*
X4213682Y9501476D01*
X4236024Y9523818D01*
X4251822Y9551182D01*
X4260000Y9581702D01*
Y9613298D01*
X4251822Y9643818D01*
X4238589Y9666739D01*
X4244536Y9679439D01*
X6827844D01*
X6986500Y9520783D01*
Y9506374D01*
X6993553Y9480051D01*
X7007179Y9456449D01*
X7026449Y9437179D01*
X7050050Y9423553D01*
X7076374Y9416500D01*
X7103626D01*
X7129949Y9423553D01*
X7153550Y9437179D01*
X7172820Y9456449D01*
X7186446Y9480051D01*
X7193500Y9506374D01*
Y9533626D01*
X7186446Y9559949D01*
X7172820Y9583551D01*
X7153550Y9602821D01*
X7129949Y9616447D01*
X7103626Y9623500D01*
X7076374D01*
X7070729Y9621987D01*
X6940011Y9752706D01*
X6944871Y9764439D01*
X7782844D01*
X8016500Y9530783D01*
Y9506374D01*
X8023553Y9480051D01*
X8037179Y9456449D01*
X8056449Y9437179D01*
X8080050Y9423553D01*
X8106374Y9416500D01*
X8133626D01*
X8159949Y9423553D01*
X8183550Y9437179D01*
X8202820Y9456449D01*
X8216446Y9480051D01*
X8223500Y9506374D01*
Y9533626D01*
X8216446Y9559949D01*
X8202820Y9583551D01*
X8183550Y9602821D01*
X8159949Y9616447D01*
X8133626Y9623500D01*
X8109216D01*
X7905010Y9827706D01*
X7909871Y9839439D01*
X8707844D01*
X9026500Y9520783D01*
Y9496374D01*
X9033554Y9470050D01*
X9047180Y9446449D01*
X9066450Y9427179D01*
X9090051Y9413553D01*
X9116374Y9406500D01*
X9143626D01*
X9169950Y9413553D01*
X9193551Y9427179D01*
X9212821Y9446449D01*
X9226447Y9470050D01*
X9233500Y9496374D01*
Y9523626D01*
X9226447Y9549949D01*
X9212821Y9573550D01*
X9193551Y9592820D01*
X9169950Y9606446D01*
X9143626Y9613500D01*
X9119217D01*
X8781358Y9951358D01*
X8767780Y9961777D01*
X8751969Y9968327D01*
X8735000Y9970561D01*
D02*
G37*
G36*
X2700000Y8687419D02*
Y8610000D01*
X2777419D01*
X2773217Y8625683D01*
X2759341Y8649717D01*
X2739717Y8669341D01*
X2715683Y8683217D01*
X2700000Y8687419D01*
D02*
G37*
G36*
X3200000D02*
Y8610000D01*
X3277419D01*
X3273217Y8625683D01*
X3259341Y8649717D01*
X3239717Y8669341D01*
X3215683Y8683217D01*
X3200000Y8687419D01*
D02*
G37*
G36*
X2650000D02*
X2634317Y8683217D01*
X2610283Y8669341D01*
X2590659Y8649717D01*
X2576783Y8625683D01*
X2572581Y8610000D01*
X2650000D01*
Y8687419D01*
D02*
G37*
G36*
X3150000D02*
X3134317Y8683217D01*
X3110283Y8669341D01*
X3090659Y8649717D01*
X3076783Y8625683D01*
X3072581Y8610000D01*
X3150000D01*
Y8687419D01*
D02*
G37*
G36*
X2235000Y8684919D02*
Y8607499D01*
X2312419D01*
X2308217Y8623183D01*
X2294341Y8647217D01*
X2274717Y8666841D01*
X2250683Y8680717D01*
X2235000Y8684919D01*
D02*
G37*
G36*
X772500D02*
Y8607499D01*
X849919D01*
X845717Y8623183D01*
X831841Y8647217D01*
X812217Y8666841D01*
X788183Y8680717D01*
X772500Y8684919D01*
D02*
G37*
G36*
X1735000D02*
Y8607499D01*
X1812419D01*
X1808217Y8623183D01*
X1794341Y8647217D01*
X1774717Y8666841D01*
X1750683Y8680717D01*
X1735000Y8684919D01*
D02*
G37*
G36*
X1272500D02*
Y8607499D01*
X1349919D01*
X1345717Y8623183D01*
X1331841Y8647217D01*
X1312217Y8666841D01*
X1288183Y8680717D01*
X1272500Y8684919D01*
D02*
G37*
G36*
X722500D02*
X706817Y8680717D01*
X682783Y8666841D01*
X663159Y8647217D01*
X649283Y8623183D01*
X645080Y8607499D01*
X722500D01*
Y8684919D01*
D02*
G37*
G36*
X1222500D02*
X1206817Y8680717D01*
X1182783Y8666841D01*
X1163159Y8647217D01*
X1149283Y8623183D01*
X1145081Y8607499D01*
X1222500D01*
Y8684919D01*
D02*
G37*
G36*
X2185000Y8684919D02*
X2169317Y8680717D01*
X2145283Y8666841D01*
X2125659Y8647217D01*
X2111783Y8623183D01*
X2107580Y8607499D01*
X2185000D01*
Y8684919D01*
D02*
G37*
G36*
X7512500Y8662837D02*
Y8602500D01*
X7572837D01*
X7570341Y8611814D01*
X7558638Y8632086D01*
X7542086Y8648638D01*
X7521814Y8660342D01*
X7512500Y8662837D01*
D02*
G37*
G36*
X7462500D02*
X7453186Y8660342D01*
X7432914Y8648638D01*
X7416362Y8632086D01*
X7404658Y8611814D01*
X7402162Y8602500D01*
X7462500D01*
Y8662837D01*
D02*
G37*
G36*
X4950000Y8577837D02*
Y8517500D01*
X5010337D01*
X5007842Y8526814D01*
X4996138Y8547086D01*
X4979586Y8563638D01*
X4959314Y8575341D01*
X4950000Y8577837D01*
D02*
G37*
G36*
X4900000D02*
X4890686Y8575341D01*
X4870414Y8563638D01*
X4853862Y8547086D01*
X4842158Y8526814D01*
X4839663Y8517500D01*
X4900000D01*
Y8577837D01*
D02*
G37*
G36*
X7572837Y8552500D02*
X7512500D01*
Y8492163D01*
X7521814Y8494658D01*
X7542086Y8506362D01*
X7558638Y8522914D01*
X7570341Y8543186D01*
X7572837Y8552500D01*
D02*
G37*
G36*
X7462500D02*
X7402162D01*
X7404658Y8543186D01*
X7416362Y8522914D01*
X7432914Y8506362D01*
X7453186Y8494658D01*
X7462500Y8492163D01*
Y8552500D01*
D02*
G37*
G36*
X3277419Y8560000D02*
X3200000D01*
Y8482581D01*
X3215683Y8486783D01*
X3239717Y8500659D01*
X3259341Y8520283D01*
X3273217Y8544317D01*
X3277419Y8560000D01*
D02*
G37*
G36*
X2777419D02*
X2700000D01*
Y8482581D01*
X2715683Y8486783D01*
X2739717Y8500659D01*
X2759341Y8520283D01*
X2773217Y8544317D01*
X2777419Y8560000D01*
D02*
G37*
G36*
X3150000D02*
X3072581D01*
X3076783Y8544317D01*
X3090659Y8520283D01*
X3110283Y8500659D01*
X3134317Y8486783D01*
X3150000Y8482581D01*
Y8560000D01*
D02*
G37*
G36*
X2650000D02*
X2572581D01*
X2576783Y8544317D01*
X2590659Y8520283D01*
X2610283Y8500659D01*
X2634317Y8486783D01*
X2650000Y8482581D01*
Y8560000D01*
D02*
G37*
G36*
X2312419Y8557499D02*
X2235000D01*
Y8480081D01*
X2250683Y8484283D01*
X2274717Y8498159D01*
X2294341Y8517783D01*
X2308217Y8541817D01*
X2312419Y8557499D01*
D02*
G37*
G36*
X1812419D02*
X1735000D01*
Y8480081D01*
X1750683Y8484283D01*
X1774717Y8498159D01*
X1794341Y8517783D01*
X1808217Y8541817D01*
X1812419Y8557499D01*
D02*
G37*
G36*
X1349919D02*
X1272500D01*
Y8480081D01*
X1288183Y8484283D01*
X1312217Y8498159D01*
X1331841Y8517783D01*
X1345717Y8541817D01*
X1349919Y8557499D01*
D02*
G37*
G36*
X849919D02*
X772500D01*
Y8480081D01*
X788183Y8484283D01*
X812217Y8498159D01*
X831841Y8517783D01*
X845717Y8541817D01*
X849919Y8557499D01*
D02*
G37*
G36*
X1222500D02*
X1145081D01*
X1149283Y8541817D01*
X1163159Y8517783D01*
X1182783Y8498159D01*
X1206817Y8484283D01*
X1222500Y8480081D01*
Y8557499D01*
D02*
G37*
G36*
X722500D02*
X645081D01*
X649283Y8541817D01*
X663159Y8517783D01*
X682783Y8498159D01*
X706817Y8484283D01*
X722500Y8480081D01*
Y8557499D01*
D02*
G37*
G36*
X2185000D02*
X2107581D01*
X2111783Y8541817D01*
X2125659Y8517783D01*
X2145283Y8498159D01*
X2169317Y8484283D01*
X2185000Y8480081D01*
Y8557499D01*
D02*
G37*
G36*
X5010337Y8467500D02*
X4950000D01*
Y8407163D01*
X4959314Y8409658D01*
X4979586Y8421362D01*
X4996138Y8437914D01*
X5007842Y8458186D01*
X5010337Y8467500D01*
D02*
G37*
G36*
X4900000D02*
X4839663D01*
X4842158Y8458186D01*
X4853862Y8437914D01*
X4870414Y8421362D01*
X4890686Y8409658D01*
X4900000Y8407163D01*
Y8467500D01*
D02*
G37*
G36*
X9687500Y8465337D02*
Y8405000D01*
X9747838D01*
X9745342Y8414314D01*
X9733638Y8434586D01*
X9717086Y8451138D01*
X9696814Y8462842D01*
X9687500Y8465337D01*
D02*
G37*
G36*
X9637500D02*
X9628186Y8462842D01*
X9607914Y8451138D01*
X9591362Y8434586D01*
X9579659Y8414314D01*
X9577163Y8405000D01*
X9637500D01*
Y8465337D01*
D02*
G37*
G36*
X9747838Y8355000D02*
X9687500D01*
Y8294663D01*
X9696814Y8297158D01*
X9717086Y8308862D01*
X9733638Y8325414D01*
X9745342Y8345686D01*
X9747838Y8355000D01*
D02*
G37*
G36*
X9637500D02*
X9577163D01*
X9579659Y8345686D01*
X9591362Y8325414D01*
X9607914Y8308862D01*
X9628186Y8297158D01*
X9637500Y8294663D01*
Y8355000D01*
D02*
G37*
G36*
X4595000Y8065337D02*
Y8005000D01*
X4655337D01*
X4652842Y8014314D01*
X4641138Y8034586D01*
X4624586Y8051138D01*
X4604314Y8062842D01*
X4595000Y8065337D01*
D02*
G37*
G36*
X4545000D02*
X4535686Y8062842D01*
X4515414Y8051138D01*
X4498862Y8034586D01*
X4487158Y8014314D01*
X4484663Y8005000D01*
X4545000D01*
Y8065337D01*
D02*
G37*
G36*
X4655337Y7955000D02*
X4595000D01*
Y7894663D01*
X4604314Y7897158D01*
X4624586Y7908862D01*
X4641138Y7925414D01*
X4652842Y7945686D01*
X4655337Y7955000D01*
D02*
G37*
G36*
X4545000D02*
X4484663D01*
X4487158Y7945686D01*
X4498862Y7925414D01*
X4515414Y7908862D01*
X4535686Y7897158D01*
X4545000Y7894663D01*
Y7955000D01*
D02*
G37*
G36*
X780400Y7780400D02*
X700000D01*
Y7700000D01*
X780400D01*
Y7780400D01*
D02*
G37*
G36*
Y7650000D02*
X700000D01*
Y7569600D01*
X780400D01*
Y7650000D01*
D02*
G37*
G36*
X990798Y7795000D02*
X959202D01*
X928682Y7786822D01*
X901318Y7771024D01*
X878976Y7748682D01*
X863178Y7721318D01*
X855000Y7690798D01*
Y7659202D01*
X863178Y7628682D01*
X878976Y7601319D01*
X901318Y7578976D01*
X928682Y7563178D01*
X959202Y7555000D01*
X990798D01*
X1021318Y7563178D01*
X1048681Y7578976D01*
X1071024Y7601319D01*
X1086822Y7628682D01*
X1095000Y7659202D01*
Y7690798D01*
X1086822Y7721318D01*
X1071024Y7748682D01*
X1048681Y7771024D01*
X1021318Y7786822D01*
X990798Y7795000D01*
D02*
G37*
G36*
X9643243Y7354784D02*
X9632756D01*
X9630117Y7354259D01*
X9627432Y7354435D01*
X9617035Y7353066D01*
X9614488Y7352201D01*
X9611803Y7352025D01*
X9601674Y7349311D01*
X9599261Y7348121D01*
X9596623Y7347597D01*
X9586934Y7343584D01*
X9584697Y7342089D01*
X9582149Y7341224D01*
X9573067Y7335980D01*
X9571044Y7334206D01*
X9568631Y7333016D01*
X9560311Y7326632D01*
X9558538Y7324610D01*
X9556300Y7323115D01*
X9548885Y7315700D01*
X9547390Y7313462D01*
X9545368Y7311689D01*
X9538984Y7303369D01*
X9537794Y7300957D01*
X9536020Y7298934D01*
X9530776Y7289851D01*
X9529911Y7287303D01*
X9528416Y7285066D01*
X9524403Y7275377D01*
X9523879Y7272739D01*
X9522689Y7270326D01*
X9519975Y7260197D01*
X9519799Y7257512D01*
X9518934Y7254965D01*
X9518391Y7250841D01*
X9511000Y7246932D01*
X9503608Y7250841D01*
X9503065Y7254965D01*
X9502200Y7257513D01*
X9502024Y7260197D01*
X9499310Y7270326D01*
X9498120Y7272739D01*
X9497596Y7275377D01*
X9493583Y7285066D01*
X9492088Y7287303D01*
X9491223Y7289851D01*
X9485979Y7298933D01*
X9484205Y7300956D01*
X9483015Y7303369D01*
X9476631Y7311689D01*
X9474609Y7313462D01*
X9473114Y7315700D01*
X9465699Y7323115D01*
X9463461Y7324610D01*
X9461688Y7326632D01*
X9453368Y7333016D01*
X9450956Y7334206D01*
X9448933Y7335980D01*
X9439850Y7341224D01*
X9437302Y7342089D01*
X9435065Y7343584D01*
X9425376Y7347597D01*
X9422738Y7348121D01*
X9420325Y7349311D01*
X9410196Y7352025D01*
X9407511Y7352201D01*
X9404964Y7353066D01*
X9394567Y7354435D01*
X9391882Y7354259D01*
X9389243Y7354784D01*
X9378756D01*
X9376117Y7354259D01*
X9373432Y7354435D01*
X9363035Y7353066D01*
X9360488Y7352201D01*
X9357803Y7352025D01*
X9347674Y7349311D01*
X9345261Y7348121D01*
X9342623Y7347597D01*
X9332934Y7343584D01*
X9330697Y7342089D01*
X9328149Y7341224D01*
X9319067Y7335980D01*
X9317044Y7334206D01*
X9314631Y7333016D01*
X9306311Y7326632D01*
X9304538Y7324610D01*
X9302300Y7323115D01*
X9294885Y7315700D01*
X9293390Y7313462D01*
X9291368Y7311689D01*
X9284984Y7303369D01*
X9283794Y7300957D01*
X9282020Y7298934D01*
X9276776Y7289851D01*
X9275911Y7287303D01*
X9274416Y7285066D01*
X9270403Y7275377D01*
X9269879Y7272739D01*
X9268689Y7270326D01*
X9265975Y7260197D01*
X9265799Y7257512D01*
X9264934Y7254965D01*
X9263565Y7244568D01*
X9263741Y7241883D01*
X9263216Y7239244D01*
Y7008757D01*
X9263741Y7006118D01*
X9263565Y7003433D01*
X9264934Y6993036D01*
X9265799Y6990488D01*
X9265975Y6987804D01*
X9268689Y6977675D01*
X9269879Y6975262D01*
X9270403Y6972624D01*
X9274416Y6962935D01*
X9275911Y6960698D01*
X9276776Y6958150D01*
X9282020Y6949068D01*
X9283794Y6947045D01*
X9284984Y6944632D01*
X9291368Y6936312D01*
X9293390Y6934539D01*
X9294885Y6932301D01*
X9302300Y6924886D01*
X9304538Y6923391D01*
X9306311Y6921369D01*
X9314631Y6914985D01*
X9317043Y6913795D01*
X9319066Y6912021D01*
X9328149Y6906777D01*
X9330697Y6905912D01*
X9332934Y6904417D01*
X9342623Y6900404D01*
X9345261Y6899880D01*
X9347674Y6898690D01*
X9357803Y6895976D01*
X9360488Y6895800D01*
X9363035Y6894935D01*
X9373432Y6893566D01*
X9376118Y6893742D01*
X9378758Y6893217D01*
X9389245Y6893217D01*
X9391883Y6893742D01*
X9394566Y6893566D01*
X9404963Y6894935D01*
X9407510Y6895800D01*
X9410195Y6895976D01*
X9420324Y6898690D01*
X9422738Y6899880D01*
X9425377Y6900405D01*
X9435065Y6904418D01*
X9437303Y6905913D01*
X9439850Y6906777D01*
X9448932Y6912021D01*
X9450955Y6913795D01*
X9453368Y6914985D01*
X9461688Y6921369D01*
X9463461Y6923391D01*
X9465698Y6924886D01*
X9473114Y6932301D01*
X9474609Y6934539D01*
X9476631Y6936312D01*
X9483015Y6944632D01*
X9484205Y6947045D01*
X9485980Y6949068D01*
X9491223Y6958150D01*
X9492088Y6960698D01*
X9493582Y6962935D01*
X9497595Y6972623D01*
X9498120Y6975262D01*
X9499310Y6977675D01*
X9502024Y6987804D01*
X9502200Y6990490D01*
X9503065Y6993037D01*
X9503608Y6997160D01*
X9511001Y7001069D01*
X9518391Y6997161D01*
X9518934Y6993036D01*
X9519799Y6990488D01*
X9519975Y6987804D01*
X9522689Y6977675D01*
X9523879Y6975262D01*
X9524403Y6972624D01*
X9528416Y6962935D01*
X9529911Y6960698D01*
X9530776Y6958150D01*
X9536020Y6949068D01*
X9537794Y6947045D01*
X9538984Y6944632D01*
X9545368Y6936312D01*
X9547390Y6934539D01*
X9548885Y6932301D01*
X9556300Y6924886D01*
X9558538Y6923391D01*
X9559143Y6922700D01*
X9558170Y6917343D01*
X9554265Y6910000D01*
X9553824D01*
X9512287Y6901738D01*
X9473159Y6885531D01*
X9437945Y6862002D01*
X9407998Y6832055D01*
X9384469Y6796841D01*
X9368262Y6757713D01*
X9360000Y6716176D01*
Y6673825D01*
X9368262Y6632287D01*
X9384469Y6593160D01*
X9407998Y6557946D01*
X9437945Y6527999D01*
X9473159Y6504470D01*
X9512287Y6488263D01*
X9530898Y6484561D01*
X9534108Y6474219D01*
X9534300Y6470935D01*
X9533138Y6469610D01*
X9530900Y6468115D01*
X9523485Y6460700D01*
X9521990Y6458462D01*
X9519968Y6456689D01*
X9513584Y6448369D01*
X9512394Y6445957D01*
X9510620Y6443934D01*
X9505376Y6434851D01*
X9504511Y6432303D01*
X9503016Y6430066D01*
X9499003Y6420377D01*
X9498479Y6417739D01*
X9497289Y6415326D01*
X9494575Y6405196D01*
X9494399Y6402512D01*
X9493534Y6399965D01*
X9492165Y6389568D01*
X9492341Y6386882D01*
X9491816Y6384242D01*
X9491816Y6373755D01*
X9492341Y6371117D01*
X9492165Y6368434D01*
X9493534Y6358037D01*
X9494399Y6355490D01*
X9494575Y6352805D01*
X9497289Y6342676D01*
X9498479Y6340262D01*
X9499004Y6337623D01*
X9503017Y6327935D01*
X9504512Y6325697D01*
X9505376Y6323150D01*
X9510620Y6314068D01*
X9512394Y6312045D01*
X9513584Y6309632D01*
X9519968Y6301312D01*
X9521990Y6299539D01*
X9523485Y6297302D01*
X9530900Y6289886D01*
X9533138Y6288391D01*
X9534911Y6286369D01*
X9543231Y6279985D01*
X9545644Y6278795D01*
X9547667Y6277020D01*
X9556749Y6271777D01*
X9559297Y6270912D01*
X9561534Y6269418D01*
X9571222Y6265405D01*
X9573861Y6264880D01*
X9576274Y6263690D01*
X9586403Y6260976D01*
X9589089Y6260800D01*
X9591636Y6259935D01*
X9602033Y6258566D01*
X9604717Y6258742D01*
X9607356Y6258217D01*
X9837843Y6258217D01*
X9840482Y6258742D01*
X9843167Y6258566D01*
X9853564Y6259935D01*
X9856112Y6260800D01*
X9858796Y6260976D01*
X9868925Y6263690D01*
X9871338Y6264880D01*
X9873976Y6265404D01*
X9883665Y6269417D01*
X9885903Y6270912D01*
X9888450Y6271777D01*
X9897532Y6277021D01*
X9899556Y6278795D01*
X9901968Y6279985D01*
X9910288Y6286369D01*
X9912061Y6288391D01*
X9914299Y6289886D01*
X9921714Y6297301D01*
X9923209Y6299539D01*
X9925231Y6301312D01*
X9931615Y6309632D01*
X9932805Y6312044D01*
X9934579Y6314067D01*
X9939823Y6323150D01*
X9940688Y6325698D01*
X9942183Y6327935D01*
X9946196Y6337624D01*
X9946721Y6340262D01*
X9947910Y6342675D01*
X9950624Y6352804D01*
X9950801Y6355489D01*
X9951665Y6358036D01*
X9953034Y6368433D01*
X9952858Y6371118D01*
X9953383Y6373757D01*
Y6384244D01*
X9952858Y6386883D01*
X9953034Y6389568D01*
X9951665Y6399965D01*
X9950801Y6402512D01*
X9950624Y6405196D01*
X9947910Y6415326D01*
X9946721Y6417739D01*
X9946196Y6420377D01*
X9942183Y6430066D01*
X9940688Y6432303D01*
X9939823Y6434851D01*
X9934579Y6443933D01*
X9932805Y6445956D01*
X9931615Y6448369D01*
X9925231Y6456689D01*
X9923209Y6458462D01*
X9921714Y6460700D01*
X9914299Y6468115D01*
X9912061Y6469610D01*
X9910288Y6471632D01*
X9901968Y6478016D01*
X9899556Y6479206D01*
X9897533Y6480980D01*
X9888450Y6486224D01*
X9885903Y6487089D01*
X9883665Y6488584D01*
X9873976Y6492597D01*
X9871338Y6493121D01*
X9868925Y6494311D01*
X9858796Y6497025D01*
X9856111Y6497201D01*
X9853564Y6498066D01*
X9843167Y6499435D01*
X9840482Y6499259D01*
X9837843Y6499784D01*
X9692687D01*
X9688835Y6512484D01*
X9712054Y6527999D01*
X9742001Y6557946D01*
X9765530Y6593160D01*
X9781737Y6632287D01*
X9789999Y6673825D01*
Y6716176D01*
X9781737Y6757713D01*
X9765530Y6796841D01*
X9742001Y6832055D01*
X9712054Y6862002D01*
X9676840Y6885531D01*
X9675836Y6885947D01*
X9674927Y6893615D01*
X9676121Y6899575D01*
X9676738Y6899880D01*
X9679377Y6900405D01*
X9689065Y6904418D01*
X9691303Y6905913D01*
X9693850Y6906777D01*
X9702932Y6912021D01*
X9704955Y6913795D01*
X9707368Y6914985D01*
X9715688Y6921369D01*
X9717461Y6923391D01*
X9719698Y6924886D01*
X9727114Y6932301D01*
X9728609Y6934539D01*
X9730631Y6936312D01*
X9737015Y6944632D01*
X9738205Y6947045D01*
X9739980Y6949068D01*
X9745223Y6958150D01*
X9746088Y6960698D01*
X9747582Y6962935D01*
X9751595Y6972623D01*
X9752120Y6975262D01*
X9753310Y6977675D01*
X9756024Y6987804D01*
X9756200Y6990490D01*
X9757065Y6993037D01*
X9758434Y7003434D01*
X9758258Y7006118D01*
X9758783Y7008757D01*
X9758783Y7239244D01*
X9758258Y7241883D01*
X9758434Y7244568D01*
X9757065Y7254965D01*
X9756200Y7257513D01*
X9756024Y7260197D01*
X9753310Y7270326D01*
X9752120Y7272739D01*
X9751596Y7275377D01*
X9747583Y7285066D01*
X9746088Y7287303D01*
X9745223Y7289851D01*
X9739979Y7298933D01*
X9738205Y7300956D01*
X9737015Y7303369D01*
X9730631Y7311689D01*
X9728609Y7313462D01*
X9727114Y7315700D01*
X9719699Y7323115D01*
X9717461Y7324610D01*
X9715688Y7326632D01*
X9707368Y7333016D01*
X9704956Y7334206D01*
X9702933Y7335980D01*
X9693850Y7341224D01*
X9691302Y7342089D01*
X9689065Y7343584D01*
X9679376Y7347597D01*
X9676738Y7348121D01*
X9674325Y7349311D01*
X9664196Y7352025D01*
X9661511Y7352201D01*
X9658964Y7353066D01*
X9648567Y7354435D01*
X9645882Y7354259D01*
X9643243Y7354784D01*
D02*
G37*
G36*
X8881243D02*
X8870756D01*
X8868117Y7354259D01*
X8865432Y7354435D01*
X8855035Y7353066D01*
X8852488Y7352201D01*
X8849803Y7352025D01*
X8839674Y7349311D01*
X8837261Y7348121D01*
X8834623Y7347597D01*
X8824934Y7343584D01*
X8822697Y7342089D01*
X8820149Y7341224D01*
X8811067Y7335980D01*
X8809044Y7334206D01*
X8806631Y7333016D01*
X8798311Y7326632D01*
X8796538Y7324610D01*
X8794300Y7323115D01*
X8786885Y7315700D01*
X8785390Y7313462D01*
X8783368Y7311689D01*
X8776984Y7303369D01*
X8775794Y7300957D01*
X8774020Y7298934D01*
X8768776Y7289851D01*
X8767911Y7287303D01*
X8766416Y7285066D01*
X8762403Y7275377D01*
X8761879Y7272739D01*
X8760689Y7270326D01*
X8757975Y7260197D01*
X8757799Y7257512D01*
X8756934Y7254965D01*
X8756391Y7250841D01*
X8749000Y7246932D01*
X8741608Y7250841D01*
X8741065Y7254965D01*
X8740200Y7257513D01*
X8740024Y7260197D01*
X8737310Y7270326D01*
X8736120Y7272739D01*
X8735596Y7275377D01*
X8731583Y7285066D01*
X8730088Y7287303D01*
X8729223Y7289851D01*
X8723979Y7298933D01*
X8722205Y7300956D01*
X8721015Y7303369D01*
X8714631Y7311689D01*
X8712609Y7313462D01*
X8711114Y7315700D01*
X8703699Y7323115D01*
X8701461Y7324610D01*
X8699688Y7326632D01*
X8691368Y7333016D01*
X8688956Y7334206D01*
X8686933Y7335980D01*
X8677850Y7341224D01*
X8675302Y7342089D01*
X8673065Y7343584D01*
X8663376Y7347597D01*
X8660738Y7348121D01*
X8658325Y7349311D01*
X8648196Y7352025D01*
X8645511Y7352201D01*
X8642964Y7353066D01*
X8632567Y7354435D01*
X8629882Y7354259D01*
X8627243Y7354784D01*
X8616756D01*
X8614117Y7354259D01*
X8611432Y7354435D01*
X8601035Y7353066D01*
X8598488Y7352201D01*
X8595803Y7352025D01*
X8585674Y7349311D01*
X8583261Y7348121D01*
X8580623Y7347597D01*
X8570934Y7343584D01*
X8568697Y7342089D01*
X8566149Y7341224D01*
X8557067Y7335980D01*
X8555044Y7334206D01*
X8552631Y7333016D01*
X8544311Y7326632D01*
X8542538Y7324610D01*
X8540300Y7323115D01*
X8532885Y7315700D01*
X8531390Y7313462D01*
X8529368Y7311689D01*
X8522984Y7303369D01*
X8521794Y7300957D01*
X8520020Y7298934D01*
X8514776Y7289851D01*
X8513911Y7287303D01*
X8512416Y7285066D01*
X8508403Y7275377D01*
X8507879Y7272739D01*
X8506689Y7270326D01*
X8503975Y7260197D01*
X8503799Y7257512D01*
X8502934Y7254965D01*
X8502391Y7250841D01*
X8495000Y7246932D01*
X8487608Y7250841D01*
X8487065Y7254965D01*
X8486200Y7257513D01*
X8486024Y7260197D01*
X8483310Y7270326D01*
X8482120Y7272739D01*
X8481596Y7275377D01*
X8477583Y7285066D01*
X8476088Y7287303D01*
X8475223Y7289851D01*
X8469979Y7298933D01*
X8468205Y7300956D01*
X8467015Y7303369D01*
X8460631Y7311689D01*
X8458609Y7313462D01*
X8457114Y7315700D01*
X8449699Y7323115D01*
X8447461Y7324610D01*
X8445688Y7326632D01*
X8437368Y7333016D01*
X8434956Y7334206D01*
X8432933Y7335980D01*
X8423850Y7341224D01*
X8421302Y7342089D01*
X8419065Y7343584D01*
X8409376Y7347597D01*
X8406738Y7348121D01*
X8404325Y7349311D01*
X8394196Y7352025D01*
X8391511Y7352201D01*
X8388964Y7353066D01*
X8378567Y7354435D01*
X8375882Y7354259D01*
X8373243Y7354784D01*
X8362756D01*
X8360117Y7354259D01*
X8357432Y7354435D01*
X8347035Y7353066D01*
X8344488Y7352201D01*
X8341803Y7352025D01*
X8331674Y7349311D01*
X8329261Y7348121D01*
X8326623Y7347597D01*
X8316934Y7343584D01*
X8314697Y7342089D01*
X8312149Y7341224D01*
X8303067Y7335980D01*
X8301044Y7334206D01*
X8298631Y7333016D01*
X8290311Y7326632D01*
X8288538Y7324610D01*
X8286300Y7323115D01*
X8278885Y7315700D01*
X8277390Y7313462D01*
X8275368Y7311689D01*
X8268984Y7303369D01*
X8267794Y7300957D01*
X8266020Y7298934D01*
X8260776Y7289851D01*
X8259911Y7287303D01*
X8258416Y7285066D01*
X8254403Y7275377D01*
X8253879Y7272739D01*
X8252689Y7270326D01*
X8249975Y7260197D01*
X8249799Y7257512D01*
X8248934Y7254965D01*
X8248391Y7250841D01*
X8241000Y7246932D01*
X8233608Y7250841D01*
X8233065Y7254965D01*
X8232200Y7257513D01*
X8232024Y7260197D01*
X8229310Y7270326D01*
X8228120Y7272739D01*
X8227596Y7275377D01*
X8223583Y7285066D01*
X8222088Y7287303D01*
X8221223Y7289851D01*
X8215979Y7298933D01*
X8214205Y7300956D01*
X8213015Y7303369D01*
X8206631Y7311689D01*
X8204609Y7313462D01*
X8203114Y7315700D01*
X8195699Y7323115D01*
X8193461Y7324610D01*
X8191688Y7326632D01*
X8183368Y7333016D01*
X8180956Y7334206D01*
X8178933Y7335980D01*
X8169850Y7341224D01*
X8167302Y7342089D01*
X8165065Y7343584D01*
X8155376Y7347597D01*
X8152738Y7348121D01*
X8150325Y7349311D01*
X8140196Y7352025D01*
X8137511Y7352201D01*
X8134964Y7353066D01*
X8124567Y7354435D01*
X8121882Y7354259D01*
X8119243Y7354784D01*
X8108756D01*
X8106117Y7354259D01*
X8103432Y7354435D01*
X8093035Y7353066D01*
X8090488Y7352201D01*
X8087803Y7352025D01*
X8077674Y7349311D01*
X8075261Y7348121D01*
X8072623Y7347597D01*
X8062934Y7343584D01*
X8060697Y7342089D01*
X8058149Y7341224D01*
X8049067Y7335980D01*
X8047044Y7334206D01*
X8044631Y7333016D01*
X8036311Y7326632D01*
X8034538Y7324610D01*
X8032300Y7323115D01*
X8024885Y7315700D01*
X8023390Y7313462D01*
X8021368Y7311689D01*
X8014984Y7303369D01*
X8013794Y7300957D01*
X8012020Y7298934D01*
X8006776Y7289851D01*
X8005911Y7287303D01*
X8004416Y7285066D01*
X8000403Y7275377D01*
X7999879Y7272739D01*
X7998689Y7270326D01*
X7995975Y7260197D01*
X7995799Y7257512D01*
X7994934Y7254965D01*
X7993565Y7244568D01*
X7993741Y7241883D01*
X7993216Y7239244D01*
Y7008757D01*
X7993741Y7006118D01*
X7993565Y7003433D01*
X7994934Y6993036D01*
X7995799Y6990488D01*
X7995975Y6987804D01*
X7998689Y6977675D01*
X7999879Y6975262D01*
X8000403Y6972624D01*
X8004416Y6962935D01*
X8005911Y6960698D01*
X8006776Y6958150D01*
X8012020Y6949068D01*
X8013794Y6947045D01*
X8014984Y6944632D01*
X8021368Y6936312D01*
X8023390Y6934539D01*
X8024885Y6932301D01*
X8032300Y6924886D01*
X8034538Y6923391D01*
X8036311Y6921369D01*
X8044631Y6914985D01*
X8047043Y6913795D01*
X8049066Y6912021D01*
X8058149Y6906777D01*
X8060697Y6905912D01*
X8062934Y6904417D01*
X8072623Y6900404D01*
X8075261Y6899880D01*
X8077674Y6898690D01*
X8087803Y6895976D01*
X8090488Y6895800D01*
X8093035Y6894935D01*
X8103432Y6893566D01*
X8106118Y6893742D01*
X8108758Y6893217D01*
X8119245Y6893217D01*
X8121883Y6893742D01*
X8124566Y6893566D01*
X8134963Y6894935D01*
X8137510Y6895800D01*
X8140195Y6895976D01*
X8150324Y6898690D01*
X8152738Y6899880D01*
X8155377Y6900405D01*
X8165065Y6904418D01*
X8167303Y6905913D01*
X8169850Y6906777D01*
X8178932Y6912021D01*
X8180955Y6913795D01*
X8183368Y6914985D01*
X8191688Y6921369D01*
X8193461Y6923391D01*
X8195698Y6924886D01*
X8203114Y6932301D01*
X8204609Y6934539D01*
X8206631Y6936312D01*
X8213015Y6944632D01*
X8214205Y6947045D01*
X8215980Y6949068D01*
X8221223Y6958150D01*
X8222088Y6960698D01*
X8223582Y6962935D01*
X8227595Y6972623D01*
X8228120Y6975262D01*
X8229310Y6977675D01*
X8232024Y6987804D01*
X8232200Y6990490D01*
X8233065Y6993037D01*
X8233608Y6997160D01*
X8241001Y7001069D01*
X8248391Y6997161D01*
X8248934Y6993036D01*
X8249799Y6990488D01*
X8249975Y6987804D01*
X8252689Y6977675D01*
X8253879Y6975262D01*
X8254403Y6972624D01*
X8258416Y6962935D01*
X8259911Y6960698D01*
X8260776Y6958150D01*
X8266020Y6949068D01*
X8267794Y6947045D01*
X8268984Y6944632D01*
X8275368Y6936312D01*
X8277390Y6934539D01*
X8278885Y6932301D01*
X8286300Y6924886D01*
X8288538Y6923391D01*
X8290311Y6921369D01*
X8298631Y6914985D01*
X8301043Y6913795D01*
X8303066Y6912021D01*
X8312149Y6906777D01*
X8314697Y6905912D01*
X8316934Y6904417D01*
X8326623Y6900404D01*
X8329261Y6899880D01*
X8331674Y6898690D01*
X8341803Y6895976D01*
X8344488Y6895800D01*
X8347035Y6894935D01*
X8357432Y6893566D01*
X8360118Y6893742D01*
X8362758Y6893217D01*
X8373245Y6893217D01*
X8375883Y6893742D01*
X8378566Y6893566D01*
X8388963Y6894935D01*
X8391510Y6895800D01*
X8394195Y6895976D01*
X8404324Y6898690D01*
X8406738Y6899880D01*
X8409377Y6900405D01*
X8419065Y6904418D01*
X8421303Y6905913D01*
X8423850Y6906777D01*
X8432932Y6912021D01*
X8434955Y6913795D01*
X8437368Y6914985D01*
X8445688Y6921369D01*
X8447461Y6923391D01*
X8449698Y6924886D01*
X8457114Y6932301D01*
X8458609Y6934539D01*
X8460631Y6936312D01*
X8467015Y6944632D01*
X8468205Y6947045D01*
X8469980Y6949068D01*
X8475223Y6958150D01*
X8476088Y6960698D01*
X8477582Y6962935D01*
X8481595Y6972623D01*
X8482120Y6975262D01*
X8483310Y6977675D01*
X8486024Y6987804D01*
X8486200Y6990490D01*
X8487065Y6993037D01*
X8487608Y6997160D01*
X8495001Y7001069D01*
X8502391Y6997161D01*
X8502934Y6993036D01*
X8503799Y6990488D01*
X8503975Y6987804D01*
X8506689Y6977675D01*
X8507879Y6975262D01*
X8508403Y6972624D01*
X8512416Y6962935D01*
X8513911Y6960698D01*
X8514776Y6958150D01*
X8520020Y6949068D01*
X8521794Y6947045D01*
X8522984Y6944632D01*
X8529368Y6936312D01*
X8531390Y6934539D01*
X8532885Y6932301D01*
X8540300Y6924886D01*
X8542538Y6923391D01*
X8544311Y6921369D01*
X8552631Y6914985D01*
X8555043Y6913795D01*
X8557066Y6912021D01*
X8566149Y6906777D01*
X8568697Y6905912D01*
X8570934Y6904417D01*
X8580623Y6900404D01*
X8583261Y6899880D01*
X8585674Y6898690D01*
X8595803Y6895976D01*
X8598488Y6895800D01*
X8601035Y6894935D01*
X8611432Y6893566D01*
X8614118Y6893742D01*
X8616758Y6893217D01*
X8627245Y6893217D01*
X8629883Y6893742D01*
X8632566Y6893566D01*
X8642963Y6894935D01*
X8645510Y6895800D01*
X8648195Y6895976D01*
X8658324Y6898690D01*
X8660738Y6899880D01*
X8663377Y6900405D01*
X8673065Y6904418D01*
X8675303Y6905913D01*
X8677850Y6906777D01*
X8686932Y6912021D01*
X8688955Y6913795D01*
X8691368Y6914985D01*
X8699688Y6921369D01*
X8701461Y6923391D01*
X8703698Y6924886D01*
X8711114Y6932301D01*
X8712609Y6934539D01*
X8714631Y6936312D01*
X8721015Y6944632D01*
X8722205Y6947045D01*
X8723980Y6949068D01*
X8729223Y6958150D01*
X8730088Y6960698D01*
X8731582Y6962935D01*
X8735595Y6972623D01*
X8736120Y6975262D01*
X8737310Y6977675D01*
X8740024Y6987804D01*
X8740200Y6990490D01*
X8741065Y6993037D01*
X8741608Y6997160D01*
X8749001Y7001069D01*
X8756391Y6997161D01*
X8756934Y6993036D01*
X8757799Y6990488D01*
X8757975Y6987804D01*
X8760689Y6977675D01*
X8761879Y6975262D01*
X8762403Y6972624D01*
X8766416Y6962935D01*
X8767911Y6960698D01*
X8768776Y6958150D01*
X8774020Y6949068D01*
X8775794Y6947045D01*
X8776984Y6944632D01*
X8783368Y6936312D01*
X8785390Y6934539D01*
X8786885Y6932301D01*
X8794300Y6924886D01*
X8796538Y6923391D01*
X8798311Y6921369D01*
X8806631Y6914985D01*
X8809043Y6913795D01*
X8811066Y6912021D01*
X8820149Y6906777D01*
X8822697Y6905912D01*
X8824934Y6904417D01*
X8834623Y6900404D01*
X8837261Y6899880D01*
X8839674Y6898690D01*
X8849803Y6895976D01*
X8852488Y6895800D01*
X8855035Y6894935D01*
X8865432Y6893566D01*
X8868118Y6893742D01*
X8870758Y6893217D01*
X8881245Y6893217D01*
X8883883Y6893742D01*
X8886566Y6893566D01*
X8896963Y6894935D01*
X8899510Y6895800D01*
X8902195Y6895976D01*
X8912324Y6898690D01*
X8914738Y6899880D01*
X8917377Y6900405D01*
X8927065Y6904418D01*
X8929303Y6905913D01*
X8931850Y6906777D01*
X8940932Y6912021D01*
X8942955Y6913795D01*
X8945368Y6914985D01*
X8953688Y6921369D01*
X8955461Y6923391D01*
X8957698Y6924886D01*
X8965114Y6932301D01*
X8966609Y6934539D01*
X8968631Y6936312D01*
X8975015Y6944632D01*
X8976205Y6947045D01*
X8977980Y6949068D01*
X8983223Y6958150D01*
X8984088Y6960698D01*
X8985582Y6962935D01*
X8989595Y6972623D01*
X8990120Y6975262D01*
X8991310Y6977675D01*
X8994024Y6987804D01*
X8994200Y6990490D01*
X8995065Y6993037D01*
X8996434Y7003434D01*
X8996258Y7006118D01*
X8996783Y7008757D01*
X8996783Y7239244D01*
X8996258Y7241883D01*
X8996434Y7244568D01*
X8995065Y7254965D01*
X8994200Y7257513D01*
X8994024Y7260197D01*
X8991310Y7270326D01*
X8990120Y7272739D01*
X8989596Y7275377D01*
X8985583Y7285066D01*
X8984088Y7287303D01*
X8983223Y7289851D01*
X8977979Y7298933D01*
X8976205Y7300956D01*
X8975015Y7303369D01*
X8968631Y7311689D01*
X8966609Y7313462D01*
X8965114Y7315700D01*
X8957699Y7323115D01*
X8955461Y7324610D01*
X8953688Y7326632D01*
X8945368Y7333016D01*
X8942956Y7334206D01*
X8940933Y7335980D01*
X8931850Y7341224D01*
X8929302Y7342089D01*
X8927065Y7343584D01*
X8917376Y7347597D01*
X8914738Y7348121D01*
X8912325Y7349311D01*
X8902196Y7352025D01*
X8899511Y7352201D01*
X8896964Y7353066D01*
X8886567Y7354435D01*
X8883882Y7354259D01*
X8881243Y7354784D01*
D02*
G37*
G36*
X990798Y7495000D02*
X959202D01*
X928682Y7486822D01*
X901318Y7471024D01*
X878976Y7448682D01*
X863178Y7421318D01*
X855000Y7390799D01*
Y7359202D01*
X863178Y7328682D01*
X878976Y7301319D01*
X901318Y7278977D01*
X928682Y7263178D01*
X959202Y7255000D01*
X990798D01*
X1021318Y7263178D01*
X1048681Y7278977D01*
X1071024Y7301319D01*
X1086822Y7328682D01*
X1095000Y7359202D01*
Y7390799D01*
X1086822Y7421318D01*
X1071024Y7448682D01*
X1048681Y7471024D01*
X1021318Y7486822D01*
X990798Y7495000D01*
D02*
G37*
G36*
X5370000Y8875561D02*
X3580000D01*
X3563031Y8873327D01*
X3547220Y8866777D01*
X3533642Y8856358D01*
X3353642Y8676358D01*
X3343223Y8662780D01*
X3336673Y8646968D01*
X3334439Y8630000D01*
Y6890810D01*
X3317180Y6873551D01*
X3303553Y6849949D01*
X3296500Y6823626D01*
Y6796374D01*
X3303553Y6770051D01*
X3317180Y6746450D01*
X3336450Y6727180D01*
X3360051Y6713554D01*
X3386374Y6706500D01*
X3410783D01*
X3809706Y6307577D01*
Y6266077D01*
X3807180Y6263551D01*
X3793553Y6239949D01*
X3786500Y6213626D01*
Y6186374D01*
X3793553Y6160051D01*
X3807180Y6136449D01*
X3824439Y6119190D01*
Y4102500D01*
X3826673Y4085532D01*
X3833223Y4069720D01*
X3843642Y4056142D01*
X4370150Y3529633D01*
Y2737867D01*
X3702844Y2070561D01*
X3430810D01*
X3413550Y2087821D01*
X3389949Y2101447D01*
X3363626Y2108500D01*
X3336374D01*
X3310051Y2101447D01*
X3286449Y2087821D01*
X3267179Y2068551D01*
X3253553Y2044949D01*
X3246500Y2018626D01*
Y1991374D01*
X3253553Y1965051D01*
X3267179Y1941450D01*
X3286449Y1922180D01*
X3310051Y1908553D01*
X3336374Y1901500D01*
X3363626D01*
X3389949Y1908553D01*
X3413550Y1922180D01*
X3430810Y1939439D01*
X3730000D01*
X3746969Y1941673D01*
X3762780Y1948223D01*
X3776358Y1958642D01*
X4482069Y2664352D01*
X4492488Y2677930D01*
X4499037Y2693742D01*
X4501271Y2710711D01*
Y3556789D01*
X4499037Y3573758D01*
X4492488Y3589570D01*
X4482069Y3603148D01*
X3955561Y4129656D01*
Y6119190D01*
X3972821Y6136449D01*
X3986447Y6160051D01*
X3993500Y6186374D01*
Y6213626D01*
X3986447Y6239949D01*
X3972821Y6263551D01*
X3953551Y6282821D01*
X3940828Y6290166D01*
Y6334733D01*
X3938594Y6351702D01*
X3932044Y6367514D01*
X3921625Y6381092D01*
X3503500Y6799217D01*
Y6823626D01*
X3496447Y6849949D01*
X3482821Y6873551D01*
X3465561Y6890810D01*
Y8602844D01*
X3517993Y8655277D01*
X3528760Y8648083D01*
X3518218Y8622631D01*
X3513922Y8590000D01*
X3518218Y8557368D01*
X3530813Y8526961D01*
X3550849Y8500849D01*
X3576961Y8480813D01*
X3607368Y8468217D01*
X3640000Y8463921D01*
X4013922D01*
Y5490000D01*
Y4290000D01*
X4016018Y4274078D01*
X4018004Y4258175D01*
X4018163Y4257786D01*
X4018218Y4257368D01*
X4024355Y4242552D01*
X4030398Y4227685D01*
X4030652Y4227349D01*
X4030813Y4226961D01*
X4040574Y4214240D01*
X4050261Y4201441D01*
X4569216Y3675571D01*
Y2822500D01*
X4572321Y2806893D01*
X4581162Y2793662D01*
X4581162Y2793661D01*
X5014217Y2360607D01*
Y1186893D01*
X4948107Y1120784D01*
X1780000D01*
X1764393Y1117679D01*
X1751162Y1108839D01*
X1742321Y1095607D01*
X1739216Y1080000D01*
Y410001D01*
X1739216Y410000D01*
X1742321Y394393D01*
X1751162Y381162D01*
X1751162Y381161D01*
X1793973Y338350D01*
X1789793Y324570D01*
X1789522Y324516D01*
X1715992Y398045D01*
Y1120000D01*
X1712040Y1150021D01*
X1700452Y1177996D01*
X1682019Y1202019D01*
X605992Y2278046D01*
Y2506409D01*
X618637Y2513710D01*
X624439Y2510360D01*
Y2320000D01*
X626673Y2303031D01*
X633223Y2287220D01*
X643642Y2273642D01*
X1273641Y1643642D01*
X1287220Y1633223D01*
X1303031Y1626673D01*
X1320000Y1624439D01*
X3469190D01*
X3486449Y1607179D01*
X3510051Y1593553D01*
X3536374Y1586500D01*
X3563626D01*
X3589949Y1593553D01*
X3613551Y1607179D01*
X3632821Y1626449D01*
X3646447Y1650051D01*
X3653500Y1676374D01*
Y1703626D01*
X3646447Y1729949D01*
X3632821Y1753550D01*
X3613551Y1772820D01*
X3589949Y1786447D01*
X3563626Y1793500D01*
X3536374D01*
X3510051Y1786447D01*
X3486449Y1772820D01*
X3469190Y1755561D01*
X1347156D01*
X755561Y2347156D01*
Y2535855D01*
X771024Y2551318D01*
X786822Y2578682D01*
X795000Y2609202D01*
Y2640798D01*
X786822Y2671318D01*
X771024Y2698681D01*
X748682Y2721024D01*
X721318Y2736822D01*
X708279Y2740316D01*
X704992Y2752583D01*
X755106Y2802697D01*
X773539Y2826720D01*
X785127Y2854695D01*
X789079Y2884716D01*
Y2887105D01*
X795000Y2909201D01*
Y2940798D01*
X786822Y2971318D01*
X771024Y2998681D01*
X748682Y3021023D01*
X721318Y3036822D01*
X690798Y3044999D01*
X659202D01*
X628682Y3036822D01*
X601318Y3021023D01*
X578976Y2998681D01*
X563178Y2971318D01*
X555000Y2940798D01*
Y2930667D01*
X458233Y2833900D01*
X446500Y2838760D01*
Y2857713D01*
X439198Y2894420D01*
X424875Y2928998D01*
X404082Y2960118D01*
X377618Y2986582D01*
X346498Y3007375D01*
X311921Y3021698D01*
X275213Y3029000D01*
X237786D01*
X201079Y3021698D01*
X166501Y3007375D01*
X135382Y2986582D01*
X108917Y2960118D01*
X88124Y2928998D01*
X73802Y2894420D01*
X66500Y2857713D01*
Y2820286D01*
X73802Y2783579D01*
X88124Y2749001D01*
X108917Y2717882D01*
X135382Y2691417D01*
X166501Y2670624D01*
X201079Y2656302D01*
X237786Y2649000D01*
X275213D01*
X311921Y2656302D01*
X346498Y2670624D01*
X362807Y2681521D01*
X374008Y2675534D01*
Y2230000D01*
X377960Y2199979D01*
X389548Y2172004D01*
X407981Y2147981D01*
X1484008Y1071954D01*
Y350000D01*
X1487960Y319979D01*
X1499548Y292004D01*
X1517981Y267981D01*
X1667981Y117981D01*
X1692004Y99548D01*
X1719979Y87960D01*
X1750000Y84008D01*
X6150000D01*
X6180021Y87960D01*
X6207996Y99548D01*
X6232019Y117981D01*
X6250452Y142004D01*
X6262040Y169979D01*
X6265992Y200000D01*
X6262040Y230021D01*
X6250452Y257996D01*
X6232019Y282019D01*
X6207996Y300452D01*
X6180021Y312040D01*
X6150000Y315992D01*
X5061630D01*
X5056377Y327555D01*
X5528219Y867860D01*
X5531509Y873586D01*
X5535179Y879079D01*
X5535451Y880448D01*
X5536147Y881658D01*
X5536995Y888209D01*
X5538284Y894686D01*
Y2151573D01*
X5538283Y3042498D01*
X5538284Y3042500D01*
X5535179Y3058107D01*
X5526338Y3071338D01*
X5526337Y3071339D01*
X4935278Y3662398D01*
X4931315Y3667635D01*
X4814112Y3786400D01*
X4819421Y3799100D01*
X4838876D01*
X4865683Y3806283D01*
X4889717Y3820159D01*
X4909341Y3839783D01*
X4923217Y3863817D01*
X4927419Y3879500D01*
X4825001D01*
Y3904500D01*
X4800001D01*
Y4006919D01*
X4784317Y4002717D01*
X4760283Y3988841D01*
X4740659Y3969217D01*
X4726783Y3945183D01*
X4719600Y3918376D01*
Y3900251D01*
X4706900Y3895040D01*
X4266079Y4341735D01*
Y5490000D01*
Y5494335D01*
X4277077Y5500685D01*
X4283186Y5497158D01*
X4292500Y5494663D01*
Y5580000D01*
Y5665337D01*
X4283186Y5662842D01*
X4277077Y5659315D01*
X4266079Y5665665D01*
Y8587500D01*
Y8590000D01*
X4261783Y8622631D01*
X4249187Y8653039D01*
X4229151Y8679151D01*
X4203039Y8699187D01*
X4172632Y8711782D01*
X4140000Y8716078D01*
X3640000D01*
X3607368Y8711782D01*
X3581917Y8701240D01*
X3574723Y8712007D01*
X3607156Y8744439D01*
X5342844D01*
X5536500Y8550783D01*
Y8526374D01*
X5543553Y8500051D01*
X5557179Y8476449D01*
X5574439Y8459190D01*
Y8350000D01*
X5576673Y8333032D01*
X5583223Y8317220D01*
X5593642Y8303642D01*
X5762439Y8134844D01*
Y7907500D01*
Y7335430D01*
X5761044Y7334206D01*
X5758631Y7333016D01*
X5750311Y7326632D01*
X5748538Y7324610D01*
X5746300Y7323115D01*
X5738885Y7315700D01*
X5737390Y7313462D01*
X5735368Y7311689D01*
X5728984Y7303369D01*
X5727794Y7300957D01*
X5726020Y7298934D01*
X5720776Y7289851D01*
X5719911Y7287303D01*
X5718416Y7285066D01*
X5714403Y7275377D01*
X5713879Y7272739D01*
X5712689Y7270326D01*
X5709975Y7260197D01*
X5709799Y7257512D01*
X5708934Y7254965D01*
X5708391Y7250841D01*
X5701000Y7246932D01*
X5693608Y7250841D01*
X5693065Y7254965D01*
X5692200Y7257513D01*
X5692024Y7260197D01*
X5689310Y7270326D01*
X5688120Y7272739D01*
X5687596Y7275377D01*
X5683583Y7285066D01*
X5682088Y7287303D01*
X5681223Y7289851D01*
X5675979Y7298933D01*
X5674205Y7300956D01*
X5673015Y7303369D01*
X5666631Y7311689D01*
X5664609Y7313462D01*
X5663114Y7315700D01*
X5655699Y7323115D01*
X5653461Y7324610D01*
X5651688Y7326632D01*
X5643368Y7333016D01*
X5640956Y7334206D01*
X5638933Y7335980D01*
X5629850Y7341224D01*
X5627302Y7342089D01*
X5625065Y7343584D01*
X5615376Y7347597D01*
X5612738Y7348121D01*
X5610325Y7349311D01*
X5600196Y7352025D01*
X5597511Y7352201D01*
X5594964Y7353066D01*
X5584567Y7354435D01*
X5581882Y7354259D01*
X5579243Y7354784D01*
X5568756D01*
X5566117Y7354259D01*
X5563432Y7354435D01*
X5553035Y7353066D01*
X5550488Y7352201D01*
X5547803Y7352025D01*
X5537674Y7349311D01*
X5535261Y7348121D01*
X5532623Y7347597D01*
X5522934Y7343584D01*
X5520697Y7342089D01*
X5518149Y7341224D01*
X5509067Y7335980D01*
X5507044Y7334206D01*
X5504631Y7333016D01*
X5496311Y7326632D01*
X5494538Y7324610D01*
X5492300Y7323115D01*
X5484885Y7315700D01*
X5483390Y7313462D01*
X5481368Y7311689D01*
X5474984Y7303369D01*
X5473794Y7300957D01*
X5472020Y7298934D01*
X5466776Y7289851D01*
X5465911Y7287303D01*
X5464416Y7285066D01*
X5460403Y7275377D01*
X5459879Y7272739D01*
X5458689Y7270326D01*
X5455975Y7260197D01*
X5455799Y7257512D01*
X5454934Y7254965D01*
X5453565Y7244568D01*
X5453741Y7241883D01*
X5453216Y7239244D01*
Y7008757D01*
X5453741Y7006118D01*
X5453565Y7003433D01*
X5454934Y6993036D01*
X5455799Y6990488D01*
X5455975Y6987804D01*
X5458689Y6977675D01*
X5459879Y6975262D01*
X5460403Y6972624D01*
X5464416Y6962935D01*
X5465911Y6960698D01*
X5466776Y6958150D01*
X5472020Y6949068D01*
X5473794Y6947045D01*
X5474984Y6944632D01*
X5481368Y6936312D01*
X5483390Y6934539D01*
X5484885Y6932301D01*
X5492300Y6924886D01*
X5494538Y6923391D01*
X5496311Y6921369D01*
X5504631Y6914985D01*
X5507043Y6913795D01*
X5509066Y6912021D01*
X5518149Y6906777D01*
X5520697Y6905912D01*
X5522934Y6904417D01*
X5532623Y6900404D01*
X5535261Y6899880D01*
X5537674Y6898690D01*
X5547803Y6895976D01*
X5550488Y6895800D01*
X5553035Y6894935D01*
X5563432Y6893566D01*
X5566118Y6893742D01*
X5568758Y6893217D01*
X5579245Y6893217D01*
X5581883Y6893742D01*
X5584566Y6893566D01*
X5594963Y6894935D01*
X5597510Y6895800D01*
X5600195Y6895976D01*
X5610324Y6898690D01*
X5612738Y6899880D01*
X5615377Y6900405D01*
X5625065Y6904418D01*
X5627303Y6905913D01*
X5629850Y6906777D01*
X5638932Y6912021D01*
X5640955Y6913795D01*
X5643368Y6914985D01*
X5651688Y6921369D01*
X5653461Y6923391D01*
X5655698Y6924886D01*
X5663114Y6932301D01*
X5664609Y6934539D01*
X5666631Y6936312D01*
X5673015Y6944632D01*
X5674205Y6947045D01*
X5675980Y6949068D01*
X5681223Y6958150D01*
X5682088Y6960698D01*
X5683582Y6962935D01*
X5687595Y6972623D01*
X5688120Y6975262D01*
X5689310Y6977675D01*
X5692024Y6987804D01*
X5692200Y6990490D01*
X5693065Y6993037D01*
X5693608Y6997160D01*
X5701001Y7001069D01*
X5708391Y6997161D01*
X5708934Y6993036D01*
X5709799Y6990488D01*
X5709975Y6987804D01*
X5712689Y6977675D01*
X5713879Y6975262D01*
X5714403Y6972624D01*
X5718416Y6962935D01*
X5719911Y6960698D01*
X5720776Y6958150D01*
X5726020Y6949068D01*
X5727794Y6947045D01*
X5728984Y6944632D01*
X5735368Y6936312D01*
X5737390Y6934539D01*
X5738885Y6932301D01*
X5746300Y6924886D01*
X5748538Y6923391D01*
X5750311Y6921369D01*
X5758631Y6914985D01*
X5761043Y6913795D01*
X5763066Y6912021D01*
X5772149Y6906777D01*
X5774697Y6905912D01*
X5776934Y6904417D01*
X5786623Y6900404D01*
X5789261Y6899880D01*
X5791674Y6898690D01*
X5801803Y6895976D01*
X5804488Y6895800D01*
X5807035Y6894935D01*
X5817432Y6893566D01*
X5820118Y6893742D01*
X5822758Y6893217D01*
X5833245Y6893217D01*
X5835883Y6893742D01*
X5838566Y6893566D01*
X5848963Y6894935D01*
X5851510Y6895800D01*
X5854195Y6895976D01*
X5864324Y6898690D01*
X5866738Y6899880D01*
X5869377Y6900405D01*
X5879065Y6904418D01*
X5881303Y6905913D01*
X5883850Y6906777D01*
X5892932Y6912021D01*
X5894955Y6913795D01*
X5897368Y6914985D01*
X5905688Y6921369D01*
X5907461Y6923391D01*
X5909698Y6924886D01*
X5917114Y6932301D01*
X5918609Y6934539D01*
X5920631Y6936312D01*
X5927015Y6944632D01*
X5928205Y6947045D01*
X5929980Y6949068D01*
X5935223Y6958150D01*
X5936088Y6960698D01*
X5937582Y6962935D01*
X5941595Y6972623D01*
X5942120Y6975262D01*
X5943310Y6977675D01*
X5946024Y6987804D01*
X5946200Y6990490D01*
X5947065Y6993037D01*
X5947608Y6997160D01*
X5955001Y7001069D01*
X5962391Y6997161D01*
X5962934Y6993036D01*
X5963799Y6990488D01*
X5963975Y6987804D01*
X5966689Y6977675D01*
X5967879Y6975262D01*
X5968403Y6972624D01*
X5972416Y6962935D01*
X5973911Y6960698D01*
X5974776Y6958150D01*
X5980020Y6949068D01*
X5981794Y6947045D01*
X5982984Y6944632D01*
X5989368Y6936312D01*
X5991390Y6934539D01*
X5992885Y6932301D01*
X6000300Y6924886D01*
X6002538Y6923391D01*
X6004311Y6921369D01*
X6012631Y6914985D01*
X6015043Y6913795D01*
X6017066Y6912021D01*
X6026149Y6906777D01*
X6028697Y6905912D01*
X6030934Y6904417D01*
X6040623Y6900404D01*
X6043261Y6899880D01*
X6045674Y6898690D01*
X6055803Y6895976D01*
X6058488Y6895800D01*
X6061035Y6894935D01*
X6071432Y6893566D01*
X6074118Y6893742D01*
X6076758Y6893217D01*
X6087245Y6893217D01*
X6089883Y6893742D01*
X6092566Y6893566D01*
X6102963Y6894935D01*
X6105510Y6895800D01*
X6108195Y6895976D01*
X6118324Y6898690D01*
X6120738Y6899880D01*
X6123377Y6900405D01*
X6133065Y6904418D01*
X6135303Y6905913D01*
X6137850Y6906777D01*
X6146932Y6912021D01*
X6148955Y6913795D01*
X6151368Y6914985D01*
X6159688Y6921369D01*
X6161461Y6923391D01*
X6163698Y6924886D01*
X6171114Y6932301D01*
X6172609Y6934539D01*
X6174631Y6936312D01*
X6181015Y6944632D01*
X6182205Y6947045D01*
X6183980Y6949068D01*
X6189223Y6958150D01*
X6190088Y6960698D01*
X6191582Y6962935D01*
X6195595Y6972623D01*
X6196120Y6975262D01*
X6197310Y6977675D01*
X6200024Y6987804D01*
X6200200Y6990490D01*
X6201065Y6993037D01*
X6201608Y6997160D01*
X6209001Y7001069D01*
X6216391Y6997161D01*
X6216934Y6993036D01*
X6217799Y6990488D01*
X6217975Y6987804D01*
X6220689Y6977675D01*
X6221879Y6975262D01*
X6222403Y6972624D01*
X6226416Y6962935D01*
X6227911Y6960698D01*
X6228776Y6958150D01*
X6234020Y6949068D01*
X6235794Y6947045D01*
X6236984Y6944632D01*
X6243368Y6936312D01*
X6245390Y6934539D01*
X6246885Y6932301D01*
X6254300Y6924886D01*
X6256538Y6923391D01*
X6258311Y6921369D01*
X6266631Y6914985D01*
X6269043Y6913795D01*
X6271066Y6912021D01*
X6280149Y6906777D01*
X6282697Y6905912D01*
X6284934Y6904417D01*
X6294623Y6900404D01*
X6297261Y6899880D01*
X6299674Y6898690D01*
X6309803Y6895976D01*
X6312488Y6895800D01*
X6315035Y6894935D01*
X6325432Y6893566D01*
X6328118Y6893742D01*
X6330758Y6893217D01*
X6341245Y6893217D01*
X6343883Y6893742D01*
X6346566Y6893566D01*
X6356963Y6894935D01*
X6359510Y6895800D01*
X6362195Y6895976D01*
X6372324Y6898690D01*
X6374738Y6899880D01*
X6377377Y6900405D01*
X6387065Y6904418D01*
X6389303Y6905913D01*
X6391850Y6906777D01*
X6400932Y6912021D01*
X6402955Y6913795D01*
X6405368Y6914985D01*
X6413688Y6921369D01*
X6415461Y6923391D01*
X6417698Y6924886D01*
X6425114Y6932301D01*
X6426609Y6934539D01*
X6428631Y6936312D01*
X6435015Y6944632D01*
X6436205Y6947045D01*
X6437980Y6949068D01*
X6443223Y6958150D01*
X6444088Y6960698D01*
X6445582Y6962935D01*
X6449595Y6972623D01*
X6450120Y6975262D01*
X6451310Y6977675D01*
X6454024Y6987804D01*
X6454200Y6990490D01*
X6455065Y6993037D01*
X6456434Y7003434D01*
X6456258Y7006118D01*
X6456783Y7008757D01*
X6456783Y7239244D01*
X6456258Y7241883D01*
X6456434Y7244568D01*
X6455065Y7254965D01*
X6454200Y7257513D01*
X6454024Y7260197D01*
X6451310Y7270326D01*
X6450120Y7272739D01*
X6449596Y7275377D01*
X6445583Y7285066D01*
X6444088Y7287303D01*
X6443223Y7289851D01*
X6437979Y7298933D01*
X6436205Y7300956D01*
X6435015Y7303369D01*
X6428631Y7311689D01*
X6426609Y7313462D01*
X6425114Y7315700D01*
X6417699Y7323115D01*
X6415461Y7324610D01*
X6413688Y7326632D01*
X6405368Y7333016D01*
X6402956Y7334206D01*
X6400933Y7335980D01*
X6391850Y7341224D01*
X6389302Y7342089D01*
X6387065Y7343584D01*
X6377376Y7347597D01*
X6374738Y7348121D01*
X6372325Y7349311D01*
X6362196Y7352025D01*
X6359511Y7352201D01*
X6356964Y7353066D01*
X6346567Y7354435D01*
X6343882Y7354259D01*
X6341243Y7354784D01*
X6330756D01*
X6328117Y7354259D01*
X6325432Y7354435D01*
X6315035Y7353066D01*
X6312488Y7352201D01*
X6309803Y7352025D01*
X6299674Y7349311D01*
X6297261Y7348121D01*
X6294623Y7347597D01*
X6284934Y7343584D01*
X6282697Y7342089D01*
X6280149Y7341224D01*
X6271067Y7335980D01*
X6269044Y7334206D01*
X6266631Y7333016D01*
X6258311Y7326632D01*
X6256538Y7324610D01*
X6254300Y7323115D01*
X6246885Y7315700D01*
X6245390Y7313462D01*
X6243368Y7311689D01*
X6236984Y7303369D01*
X6235794Y7300957D01*
X6234020Y7298934D01*
X6228776Y7289851D01*
X6227911Y7287303D01*
X6226416Y7285066D01*
X6222403Y7275377D01*
X6221879Y7272739D01*
X6220689Y7270326D01*
X6217975Y7260197D01*
X6217799Y7257512D01*
X6216934Y7254965D01*
X6216391Y7250841D01*
X6209000Y7246932D01*
X6201608Y7250841D01*
X6201065Y7254965D01*
X6200200Y7257513D01*
X6200024Y7260197D01*
X6197310Y7270326D01*
X6196120Y7272739D01*
X6195596Y7275377D01*
X6191583Y7285066D01*
X6190088Y7287303D01*
X6189223Y7289851D01*
X6183979Y7298933D01*
X6182205Y7300956D01*
X6181015Y7303369D01*
X6174631Y7311689D01*
X6172609Y7313462D01*
X6171114Y7315700D01*
X6163699Y7323115D01*
X6161461Y7324610D01*
X6159688Y7326632D01*
X6151368Y7333016D01*
X6148956Y7334206D01*
X6146933Y7335980D01*
X6137850Y7341224D01*
X6135302Y7342089D01*
X6133065Y7343584D01*
X6123376Y7347597D01*
X6120738Y7348121D01*
X6118325Y7349311D01*
X6108196Y7352025D01*
X6105511Y7352201D01*
X6102964Y7353066D01*
X6092567Y7354435D01*
X6089882Y7354259D01*
X6087243Y7354784D01*
X6076756D01*
X6074117Y7354259D01*
X6071432Y7354435D01*
X6061035Y7353066D01*
X6058488Y7352201D01*
X6055803Y7352025D01*
X6045674Y7349311D01*
X6043261Y7348121D01*
X6040623Y7347597D01*
X6030934Y7343584D01*
X6028697Y7342089D01*
X6026149Y7341224D01*
X6017067Y7335980D01*
X6015044Y7334206D01*
X6012631Y7333016D01*
X6004311Y7326632D01*
X6002538Y7324610D01*
X6000300Y7323115D01*
X5992885Y7315700D01*
X5991390Y7313462D01*
X5989368Y7311689D01*
X5982984Y7303369D01*
X5981794Y7300957D01*
X5980020Y7298934D01*
X5974776Y7289851D01*
X5973911Y7287303D01*
X5972416Y7285066D01*
X5968403Y7275377D01*
X5967879Y7272739D01*
X5966689Y7270326D01*
X5963975Y7260197D01*
X5963799Y7257512D01*
X5962934Y7254965D01*
X5962391Y7250841D01*
X5955000Y7246932D01*
X5947608Y7250841D01*
X5947065Y7254965D01*
X5946200Y7257513D01*
X5946024Y7260197D01*
X5943310Y7270326D01*
X5942120Y7272739D01*
X5941596Y7275377D01*
X5937583Y7285066D01*
X5936088Y7287303D01*
X5935223Y7289851D01*
X5929979Y7298933D01*
X5928205Y7300956D01*
X5927015Y7303369D01*
X5920631Y7311689D01*
X5918609Y7313462D01*
X5917114Y7315700D01*
X5909699Y7323115D01*
X5907461Y7324610D01*
X5905688Y7326632D01*
X5897368Y7333016D01*
X5894956Y7334206D01*
X5893560Y7335430D01*
Y7841939D01*
X7082121D01*
X7563589Y7360471D01*
X7563723Y7360020D01*
X7563946Y7356939D01*
X7560295Y7345804D01*
X7554934Y7343584D01*
X7552697Y7342089D01*
X7550149Y7341224D01*
X7541067Y7335980D01*
X7539044Y7334206D01*
X7536631Y7333016D01*
X7528311Y7326632D01*
X7526538Y7324610D01*
X7524300Y7323115D01*
X7516885Y7315700D01*
X7515390Y7313462D01*
X7513368Y7311689D01*
X7506984Y7303369D01*
X7505794Y7300957D01*
X7504020Y7298934D01*
X7498776Y7289851D01*
X7497911Y7287303D01*
X7496416Y7285066D01*
X7492403Y7275377D01*
X7491879Y7272739D01*
X7490689Y7270326D01*
X7487975Y7260197D01*
X7487799Y7257512D01*
X7486934Y7254965D01*
X7486391Y7250841D01*
X7479000Y7246932D01*
X7471608Y7250841D01*
X7471065Y7254965D01*
X7470200Y7257513D01*
X7470024Y7260197D01*
X7467310Y7270326D01*
X7466120Y7272739D01*
X7465596Y7275377D01*
X7461583Y7285066D01*
X7460088Y7287303D01*
X7459223Y7289851D01*
X7453979Y7298933D01*
X7452205Y7300956D01*
X7451015Y7303369D01*
X7444631Y7311689D01*
X7442609Y7313462D01*
X7441114Y7315700D01*
X7433699Y7323115D01*
X7431461Y7324610D01*
X7429688Y7326632D01*
X7421368Y7333016D01*
X7418956Y7334206D01*
X7416933Y7335980D01*
X7407850Y7341224D01*
X7405302Y7342089D01*
X7403065Y7343584D01*
X7393376Y7347597D01*
X7390738Y7348121D01*
X7388325Y7349311D01*
X7378196Y7352025D01*
X7375511Y7352201D01*
X7372964Y7353066D01*
X7362567Y7354435D01*
X7359882Y7354259D01*
X7357243Y7354784D01*
X7346756D01*
X7344117Y7354259D01*
X7341432Y7354435D01*
X7331035Y7353066D01*
X7328488Y7352201D01*
X7325803Y7352025D01*
X7315674Y7349311D01*
X7313261Y7348121D01*
X7310623Y7347597D01*
X7300934Y7343584D01*
X7298697Y7342089D01*
X7296149Y7341224D01*
X7287067Y7335980D01*
X7285044Y7334206D01*
X7282631Y7333016D01*
X7274311Y7326632D01*
X7272538Y7324610D01*
X7270300Y7323115D01*
X7262885Y7315700D01*
X7261390Y7313462D01*
X7259368Y7311689D01*
X7252984Y7303369D01*
X7251794Y7300957D01*
X7250020Y7298934D01*
X7244776Y7289851D01*
X7243911Y7287303D01*
X7242416Y7285066D01*
X7238403Y7275377D01*
X7237879Y7272739D01*
X7236689Y7270326D01*
X7233975Y7260197D01*
X7233799Y7257512D01*
X7232934Y7254965D01*
X7232391Y7250841D01*
X7225000Y7246932D01*
X7217608Y7250841D01*
X7217065Y7254965D01*
X7216200Y7257513D01*
X7216024Y7260197D01*
X7213310Y7270326D01*
X7212120Y7272739D01*
X7211596Y7275377D01*
X7207583Y7285066D01*
X7206088Y7287303D01*
X7205223Y7289851D01*
X7199979Y7298933D01*
X7198205Y7300956D01*
X7197015Y7303369D01*
X7190631Y7311689D01*
X7188609Y7313462D01*
X7187114Y7315700D01*
X7179699Y7323115D01*
X7177461Y7324610D01*
X7175688Y7326632D01*
X7167368Y7333016D01*
X7164956Y7334206D01*
X7162933Y7335980D01*
X7153850Y7341224D01*
X7151302Y7342089D01*
X7149065Y7343584D01*
X7139376Y7347597D01*
X7136738Y7348121D01*
X7134325Y7349311D01*
X7124196Y7352025D01*
X7121511Y7352201D01*
X7118964Y7353066D01*
X7108567Y7354435D01*
X7105882Y7354259D01*
X7103243Y7354784D01*
X7092756D01*
X7090117Y7354259D01*
X7087432Y7354435D01*
X7077035Y7353066D01*
X7074488Y7352201D01*
X7071803Y7352025D01*
X7061674Y7349311D01*
X7059261Y7348121D01*
X7056623Y7347597D01*
X7046934Y7343584D01*
X7044697Y7342089D01*
X7042149Y7341224D01*
X7033067Y7335980D01*
X7031044Y7334206D01*
X7028631Y7333016D01*
X7020311Y7326632D01*
X7018538Y7324610D01*
X7016300Y7323115D01*
X7008885Y7315700D01*
X7007390Y7313462D01*
X7005368Y7311689D01*
X6998984Y7303369D01*
X6997794Y7300957D01*
X6996020Y7298934D01*
X6990776Y7289851D01*
X6989911Y7287303D01*
X6988416Y7285066D01*
X6984403Y7275377D01*
X6983879Y7272739D01*
X6982689Y7270326D01*
X6979975Y7260197D01*
X6979799Y7257512D01*
X6978934Y7254965D01*
X6978391Y7250841D01*
X6971000Y7246932D01*
X6963608Y7250841D01*
X6963065Y7254965D01*
X6962200Y7257513D01*
X6962024Y7260197D01*
X6959310Y7270326D01*
X6958120Y7272739D01*
X6957596Y7275377D01*
X6953583Y7285066D01*
X6952088Y7287303D01*
X6951223Y7289851D01*
X6945979Y7298933D01*
X6944205Y7300956D01*
X6943015Y7303369D01*
X6936631Y7311689D01*
X6934609Y7313462D01*
X6933114Y7315700D01*
X6925699Y7323115D01*
X6923461Y7324610D01*
X6921688Y7326632D01*
X6913368Y7333016D01*
X6910956Y7334206D01*
X6908933Y7335980D01*
X6899850Y7341224D01*
X6897302Y7342089D01*
X6895065Y7343584D01*
X6885376Y7347597D01*
X6882738Y7348121D01*
X6880325Y7349311D01*
X6870196Y7352025D01*
X6867511Y7352201D01*
X6864964Y7353066D01*
X6854567Y7354435D01*
X6851882Y7354259D01*
X6849243Y7354784D01*
X6838756D01*
X6836117Y7354259D01*
X6833432Y7354435D01*
X6823035Y7353066D01*
X6820488Y7352201D01*
X6817803Y7352025D01*
X6807674Y7349311D01*
X6805261Y7348121D01*
X6802623Y7347597D01*
X6792934Y7343584D01*
X6790697Y7342089D01*
X6788149Y7341224D01*
X6779067Y7335980D01*
X6777044Y7334206D01*
X6774631Y7333016D01*
X6766311Y7326632D01*
X6764538Y7324610D01*
X6762300Y7323115D01*
X6754885Y7315700D01*
X6753390Y7313462D01*
X6751368Y7311689D01*
X6744984Y7303369D01*
X6743794Y7300957D01*
X6742020Y7298934D01*
X6736776Y7289851D01*
X6735911Y7287303D01*
X6734416Y7285066D01*
X6730403Y7275377D01*
X6729879Y7272739D01*
X6728689Y7270326D01*
X6725975Y7260197D01*
X6725799Y7257512D01*
X6724934Y7254965D01*
X6723565Y7244568D01*
X6723741Y7241883D01*
X6723216Y7239244D01*
Y7008757D01*
X6723741Y7006118D01*
X6723565Y7003433D01*
X6724934Y6993036D01*
X6725799Y6990488D01*
X6725920Y6988638D01*
X6707630Y6970348D01*
X6695897Y6975209D01*
Y6989001D01*
X6614999D01*
Y6908103D01*
X6628791D01*
X6633652Y6896369D01*
X5932843Y6195561D01*
X5450810D01*
X5433550Y6212820D01*
X5409949Y6226447D01*
X5383626Y6233500D01*
X5356374D01*
X5330051Y6226447D01*
X5306449Y6212820D01*
X5287179Y6193550D01*
X5273553Y6169949D01*
X5266500Y6143626D01*
Y6116374D01*
X5273553Y6090051D01*
X5287179Y6066449D01*
X5306449Y6047179D01*
X5330051Y6033553D01*
X5349803Y6028261D01*
X5348131Y6015561D01*
X5300810D01*
X5283551Y6032821D01*
X5259949Y6046447D01*
X5233626Y6053500D01*
X5206374D01*
X5180051Y6046447D01*
X5156449Y6032821D01*
X5137179Y6013551D01*
X5123553Y5989949D01*
X5116500Y5963626D01*
Y5936374D01*
X5123553Y5910051D01*
X5137179Y5886449D01*
X5156449Y5867180D01*
X5180051Y5853553D01*
X5206374Y5846500D01*
X5233626D01*
X5259949Y5853553D01*
X5283551Y5867180D01*
X5300810Y5884439D01*
X6033999D01*
X6050968Y5886673D01*
X6066779Y5893223D01*
X6080357Y5903642D01*
X7072637Y6895921D01*
X7074488Y6895800D01*
X7077035Y6894935D01*
X7087432Y6893566D01*
X7090118Y6893742D01*
X7092758Y6893217D01*
X7103245Y6893217D01*
X7105883Y6893742D01*
X7108566Y6893566D01*
X7118963Y6894935D01*
X7121510Y6895800D01*
X7124195Y6895976D01*
X7134324Y6898690D01*
X7136738Y6899880D01*
X7139377Y6900405D01*
X7149065Y6904418D01*
X7151303Y6905913D01*
X7153850Y6906777D01*
X7162932Y6912021D01*
X7164955Y6913795D01*
X7167368Y6914985D01*
X7175688Y6921369D01*
X7177461Y6923391D01*
X7179698Y6924886D01*
X7187114Y6932301D01*
X7188609Y6934539D01*
X7190631Y6936312D01*
X7197015Y6944632D01*
X7198205Y6947045D01*
X7199980Y6949068D01*
X7205223Y6958150D01*
X7206088Y6960698D01*
X7207582Y6962935D01*
X7211595Y6972623D01*
X7212120Y6975262D01*
X7213310Y6977675D01*
X7216024Y6987804D01*
X7216200Y6990490D01*
X7217065Y6993037D01*
X7217608Y6997160D01*
X7225001Y7001069D01*
X7232391Y6997161D01*
X7232934Y6993036D01*
X7233799Y6990488D01*
X7233975Y6987804D01*
X7236689Y6977675D01*
X7237879Y6975262D01*
X7238403Y6972624D01*
X7242416Y6962935D01*
X7243911Y6960698D01*
X7244776Y6958150D01*
X7250020Y6949068D01*
X7251794Y6947045D01*
X7252984Y6944632D01*
X7259368Y6936312D01*
X7261390Y6934539D01*
X7262885Y6932301D01*
X7270300Y6924886D01*
X7272538Y6923391D01*
X7274311Y6921369D01*
X7282631Y6914985D01*
X7285043Y6913795D01*
X7287066Y6912021D01*
X7296149Y6906777D01*
X7298697Y6905912D01*
X7300934Y6904417D01*
X7310623Y6900404D01*
X7313261Y6899880D01*
X7315674Y6898690D01*
X7325803Y6895976D01*
X7328488Y6895800D01*
X7331035Y6894935D01*
X7341432Y6893566D01*
X7344118Y6893742D01*
X7346758Y6893217D01*
X7357245Y6893217D01*
X7359883Y6893742D01*
X7362566Y6893566D01*
X7372963Y6894935D01*
X7375510Y6895800D01*
X7378195Y6895976D01*
X7388324Y6898690D01*
X7390738Y6899880D01*
X7393377Y6900405D01*
X7403065Y6904418D01*
X7405303Y6905913D01*
X7407850Y6906777D01*
X7416932Y6912021D01*
X7418955Y6913795D01*
X7421368Y6914985D01*
X7429688Y6921369D01*
X7431461Y6923391D01*
X7433698Y6924886D01*
X7441114Y6932301D01*
X7442609Y6934539D01*
X7444631Y6936312D01*
X7451015Y6944632D01*
X7452205Y6947045D01*
X7453980Y6949068D01*
X7459223Y6958150D01*
X7460088Y6960698D01*
X7461582Y6962935D01*
X7465595Y6972623D01*
X7466120Y6975262D01*
X7467310Y6977675D01*
X7470024Y6987804D01*
X7470200Y6990490D01*
X7471065Y6993037D01*
X7471608Y6997160D01*
X7479001Y7001069D01*
X7486391Y6997161D01*
X7486934Y6993036D01*
X7487799Y6990488D01*
X7487975Y6987804D01*
X7490689Y6977675D01*
X7491879Y6975262D01*
X7492403Y6972624D01*
X7496416Y6962935D01*
X7497911Y6960698D01*
X7498776Y6958150D01*
X7504020Y6949068D01*
X7505794Y6947045D01*
X7506984Y6944632D01*
X7513368Y6936312D01*
X7515390Y6934539D01*
X7516885Y6932301D01*
X7524300Y6924886D01*
X7526538Y6923391D01*
X7528311Y6921369D01*
X7536631Y6914985D01*
X7539043Y6913795D01*
X7541066Y6912021D01*
X7550149Y6906777D01*
X7552697Y6905912D01*
X7554934Y6904417D01*
X7564623Y6900404D01*
X7567261Y6899880D01*
X7569674Y6898690D01*
X7579803Y6895976D01*
X7582488Y6895800D01*
X7585035Y6894935D01*
X7595432Y6893566D01*
X7598118Y6893742D01*
X7600758Y6893217D01*
X7611245Y6893217D01*
X7613883Y6893742D01*
X7616566Y6893566D01*
X7626963Y6894935D01*
X7629510Y6895800D01*
X7632195Y6895976D01*
X7642324Y6898690D01*
X7644738Y6899880D01*
X7647377Y6900405D01*
X7651739Y6902211D01*
X7663114Y6895930D01*
X7664439Y6894071D01*
Y6560000D01*
X7666673Y6543032D01*
X7673223Y6527220D01*
X7683642Y6513642D01*
X8834549Y5362734D01*
X8834714Y5361966D01*
X8834684Y5357841D01*
X8831160Y5348162D01*
X8824934Y5345583D01*
X8822696Y5344088D01*
X8820149Y5343224D01*
X8811067Y5337980D01*
X8809044Y5336206D01*
X8806631Y5335016D01*
X8798311Y5328632D01*
X8796538Y5326610D01*
X8794301Y5325115D01*
X8786885Y5317700D01*
X8785390Y5315462D01*
X8783368Y5313689D01*
X8776984Y5305369D01*
X8775794Y5302956D01*
X8774020Y5300933D01*
X8768776Y5291851D01*
X8767911Y5289303D01*
X8766417Y5287066D01*
X8762404Y5277378D01*
X8761879Y5274739D01*
X8760689Y5272326D01*
X8757975Y5262197D01*
X8757799Y5259511D01*
X8756934Y5256964D01*
X8756391Y5252841D01*
X8748999Y5248932D01*
X8741608Y5252840D01*
X8741065Y5256965D01*
X8740200Y5259512D01*
X8740024Y5262196D01*
X8737310Y5272326D01*
X8736120Y5274739D01*
X8735596Y5277377D01*
X8731583Y5287066D01*
X8730088Y5289303D01*
X8729223Y5291851D01*
X8723979Y5300933D01*
X8722205Y5302956D01*
X8721015Y5305369D01*
X8714631Y5313689D01*
X8712609Y5315462D01*
X8711114Y5317700D01*
X8703699Y5325115D01*
X8701461Y5326610D01*
X8699688Y5328632D01*
X8691368Y5335016D01*
X8688956Y5336206D01*
X8686933Y5337980D01*
X8677850Y5343224D01*
X8675302Y5344089D01*
X8673065Y5345584D01*
X8663376Y5349597D01*
X8660738Y5350121D01*
X8658325Y5351311D01*
X8648196Y5354025D01*
X8645511Y5354201D01*
X8642964Y5355066D01*
X8632567Y5356435D01*
X8629881Y5356259D01*
X8627241Y5356784D01*
X8621997Y5356784D01*
X8616756D01*
X8614117Y5356259D01*
X8611432Y5356435D01*
X8601035Y5355066D01*
X8598488Y5354201D01*
X8595804Y5354025D01*
X8585675Y5351311D01*
X8583261Y5350121D01*
X8580622Y5349596D01*
X8570934Y5345583D01*
X8568696Y5344088D01*
X8566149Y5343224D01*
X8557067Y5337980D01*
X8555044Y5336206D01*
X8552631Y5335016D01*
X8544311Y5328632D01*
X8542538Y5326610D01*
X8540301Y5325115D01*
X8532885Y5317700D01*
X8531390Y5315462D01*
X8529368Y5313689D01*
X8522984Y5305369D01*
X8521794Y5302956D01*
X8520020Y5300933D01*
X8514776Y5291851D01*
X8513911Y5289303D01*
X8512417Y5287066D01*
X8508404Y5277378D01*
X8507879Y5274739D01*
X8506689Y5272326D01*
X8503975Y5262197D01*
X8503799Y5259511D01*
X8502934Y5256964D01*
X8502391Y5252841D01*
X8494999Y5248932D01*
X8487608Y5252840D01*
X8487065Y5256965D01*
X8486200Y5259512D01*
X8486024Y5262196D01*
X8483310Y5272326D01*
X8482120Y5274739D01*
X8481596Y5277377D01*
X8477583Y5287066D01*
X8476088Y5289303D01*
X8475223Y5291851D01*
X8469979Y5300933D01*
X8468205Y5302956D01*
X8467015Y5305369D01*
X8460631Y5313689D01*
X8458609Y5315462D01*
X8457114Y5317700D01*
X8449699Y5325115D01*
X8447461Y5326610D01*
X8445688Y5328632D01*
X8437368Y5335016D01*
X8434956Y5336206D01*
X8432933Y5337980D01*
X8423850Y5343224D01*
X8421302Y5344089D01*
X8419065Y5345584D01*
X8409376Y5349597D01*
X8406738Y5350121D01*
X8404325Y5351311D01*
X8394196Y5354025D01*
X8391511Y5354201D01*
X8388964Y5355066D01*
X8378567Y5356435D01*
X8375881Y5356259D01*
X8373241Y5356784D01*
X8367997Y5356784D01*
X8362756D01*
X8360117Y5356259D01*
X8357432Y5356435D01*
X8347035Y5355066D01*
X8344488Y5354201D01*
X8341804Y5354025D01*
X8331675Y5351311D01*
X8329261Y5350121D01*
X8326622Y5349596D01*
X8316934Y5345583D01*
X8314696Y5344088D01*
X8312149Y5343224D01*
X8303067Y5337980D01*
X8301044Y5336206D01*
X8298631Y5335016D01*
X8290311Y5328632D01*
X8288538Y5326610D01*
X8286301Y5325115D01*
X8278885Y5317700D01*
X8277390Y5315462D01*
X8275368Y5313689D01*
X8268984Y5305369D01*
X8267794Y5302956D01*
X8266020Y5300933D01*
X8260776Y5291851D01*
X8259911Y5289303D01*
X8258417Y5287066D01*
X8254404Y5277378D01*
X8253879Y5274739D01*
X8252689Y5272326D01*
X8249975Y5262197D01*
X8249799Y5259511D01*
X8248934Y5256964D01*
X8248391Y5252841D01*
X8240999Y5248932D01*
X8233608Y5252840D01*
X8233065Y5256965D01*
X8232200Y5259512D01*
X8232024Y5262196D01*
X8229310Y5272326D01*
X8228120Y5274739D01*
X8227596Y5277377D01*
X8223583Y5287066D01*
X8222088Y5289303D01*
X8221223Y5291851D01*
X8215979Y5300933D01*
X8214205Y5302956D01*
X8213015Y5305369D01*
X8206631Y5313689D01*
X8204609Y5315462D01*
X8203114Y5317700D01*
X8195699Y5325115D01*
X8193461Y5326610D01*
X8191688Y5328632D01*
X8183368Y5335016D01*
X8180956Y5336206D01*
X8178933Y5337980D01*
X8169850Y5343224D01*
X8167302Y5344089D01*
X8165065Y5345584D01*
X8155376Y5349597D01*
X8152738Y5350121D01*
X8150325Y5351311D01*
X8140196Y5354025D01*
X8137511Y5354201D01*
X8134964Y5355066D01*
X8124567Y5356435D01*
X8121881Y5356259D01*
X8119241Y5356784D01*
X8113997Y5356784D01*
X8108756D01*
X8106117Y5356259D01*
X8103432Y5356435D01*
X8093035Y5355066D01*
X8090488Y5354201D01*
X8087804Y5354025D01*
X8077675Y5351311D01*
X8075261Y5350121D01*
X8072622Y5349596D01*
X8062934Y5345583D01*
X8060696Y5344088D01*
X8058149Y5343224D01*
X8049067Y5337980D01*
X8047044Y5336206D01*
X8044631Y5335016D01*
X8036311Y5328632D01*
X8034538Y5326610D01*
X8032301Y5325115D01*
X8024885Y5317700D01*
X8023390Y5315462D01*
X8021368Y5313689D01*
X8014984Y5305369D01*
X8013794Y5302956D01*
X8012020Y5300933D01*
X8006776Y5291851D01*
X8005911Y5289303D01*
X8004417Y5287066D01*
X8000404Y5277378D01*
X7999879Y5274739D01*
X7998689Y5272326D01*
X7995975Y5262197D01*
X7995799Y5259511D01*
X7994934Y5256964D01*
X7993565Y5246567D01*
X7993741Y5243883D01*
X7993216Y5241244D01*
X7993216Y5010757D01*
X7993741Y5008118D01*
X7993565Y5005433D01*
X7994934Y4995035D01*
X7995799Y4992488D01*
X7995975Y4989804D01*
X7998689Y4979675D01*
X7999879Y4977262D01*
X8000403Y4974624D01*
X8004416Y4964935D01*
X8005911Y4962697D01*
X8006776Y4960150D01*
X8012020Y4951068D01*
X8013794Y4949044D01*
X8014984Y4946632D01*
X8021368Y4938312D01*
X8023390Y4936539D01*
X8024885Y4934301D01*
X8032300Y4926886D01*
X8034538Y4925391D01*
X8036311Y4923369D01*
X8044631Y4916985D01*
X8047043Y4915795D01*
X8049066Y4914021D01*
X8058149Y4908777D01*
X8060697Y4907912D01*
X8062934Y4906417D01*
X8072623Y4902404D01*
X8075261Y4901879D01*
X8077674Y4900690D01*
X8087803Y4897975D01*
X8090488Y4897799D01*
X8093035Y4896935D01*
X8103432Y4895566D01*
X8106117Y4895742D01*
X8108756Y4895217D01*
X8119243D01*
X8121882Y4895742D01*
X8124567Y4895566D01*
X8134964Y4896935D01*
X8137512Y4897799D01*
X8140196Y4897975D01*
X8150325Y4900690D01*
X8152738Y4901879D01*
X8155376Y4902404D01*
X8165065Y4906417D01*
X8167302Y4907912D01*
X8169850Y4908777D01*
X8178932Y4914021D01*
X8180955Y4915795D01*
X8183368Y4916985D01*
X8191688Y4923369D01*
X8193461Y4925391D01*
X8195699Y4926886D01*
X8203114Y4934301D01*
X8204609Y4936539D01*
X8206631Y4938312D01*
X8213015Y4946632D01*
X8214205Y4949044D01*
X8215979Y4951067D01*
X8221223Y4960150D01*
X8222088Y4962697D01*
X8223583Y4964935D01*
X8227596Y4974624D01*
X8228120Y4977262D01*
X8229310Y4979675D01*
X8232024Y4989804D01*
X8232200Y4992489D01*
X8233065Y4995036D01*
X8233608Y4999160D01*
X8241000Y5003068D01*
X8248391Y4999160D01*
X8248934Y4995035D01*
X8249799Y4992488D01*
X8249975Y4989804D01*
X8252689Y4979675D01*
X8253879Y4977262D01*
X8254403Y4974624D01*
X8258416Y4964935D01*
X8259911Y4962697D01*
X8260776Y4960150D01*
X8266020Y4951068D01*
X8267794Y4949044D01*
X8268984Y4946632D01*
X8275368Y4938312D01*
X8277390Y4936539D01*
X8278885Y4934301D01*
X8286300Y4926886D01*
X8288538Y4925391D01*
X8290311Y4923369D01*
X8298631Y4916985D01*
X8301043Y4915795D01*
X8303066Y4914021D01*
X8312149Y4908777D01*
X8314697Y4907912D01*
X8316934Y4906417D01*
X8326623Y4902404D01*
X8329261Y4901879D01*
X8331674Y4900690D01*
X8341803Y4897975D01*
X8344488Y4897799D01*
X8347035Y4896935D01*
X8357432Y4895566D01*
X8360117Y4895742D01*
X8362756Y4895217D01*
X8373243D01*
X8375882Y4895742D01*
X8378567Y4895566D01*
X8388964Y4896935D01*
X8391512Y4897799D01*
X8394196Y4897975D01*
X8404325Y4900690D01*
X8406738Y4901879D01*
X8409376Y4902404D01*
X8419065Y4906417D01*
X8421302Y4907912D01*
X8423850Y4908777D01*
X8432932Y4914021D01*
X8434955Y4915795D01*
X8437368Y4916985D01*
X8445688Y4923369D01*
X8447461Y4925391D01*
X8449699Y4926886D01*
X8457114Y4934301D01*
X8458609Y4936539D01*
X8460631Y4938312D01*
X8467015Y4946632D01*
X8468205Y4949044D01*
X8469979Y4951067D01*
X8475223Y4960150D01*
X8476088Y4962697D01*
X8477583Y4964935D01*
X8481596Y4974624D01*
X8482120Y4977262D01*
X8483310Y4979675D01*
X8486024Y4989804D01*
X8486200Y4992489D01*
X8487065Y4995036D01*
X8487608Y4999160D01*
X8495000Y5003068D01*
X8502391Y4999160D01*
X8502934Y4995035D01*
X8503799Y4992488D01*
X8503975Y4989804D01*
X8506689Y4979675D01*
X8507879Y4977262D01*
X8508403Y4974624D01*
X8512416Y4964935D01*
X8513911Y4962697D01*
X8514776Y4960150D01*
X8520020Y4951068D01*
X8521794Y4949044D01*
X8522984Y4946632D01*
X8529368Y4938312D01*
X8531390Y4936539D01*
X8532885Y4934301D01*
X8540300Y4926886D01*
X8542538Y4925391D01*
X8544311Y4923369D01*
X8552631Y4916985D01*
X8555043Y4915795D01*
X8557066Y4914021D01*
X8566149Y4908777D01*
X8568697Y4907912D01*
X8570934Y4906417D01*
X8580623Y4902404D01*
X8583261Y4901879D01*
X8585674Y4900690D01*
X8595803Y4897975D01*
X8598488Y4897799D01*
X8601035Y4896935D01*
X8611432Y4895566D01*
X8614117Y4895742D01*
X8616756Y4895217D01*
X8627243D01*
X8629882Y4895742D01*
X8632567Y4895566D01*
X8642964Y4896935D01*
X8645512Y4897799D01*
X8648196Y4897975D01*
X8658325Y4900690D01*
X8660738Y4901879D01*
X8663376Y4902404D01*
X8673065Y4906417D01*
X8675302Y4907912D01*
X8677850Y4908777D01*
X8686932Y4914021D01*
X8688955Y4915795D01*
X8691368Y4916985D01*
X8699688Y4923369D01*
X8701461Y4925391D01*
X8703699Y4926886D01*
X8711114Y4934301D01*
X8712609Y4936539D01*
X8714631Y4938312D01*
X8721015Y4946632D01*
X8722205Y4949044D01*
X8723979Y4951067D01*
X8729223Y4960150D01*
X8730088Y4962697D01*
X8731583Y4964935D01*
X8735596Y4974624D01*
X8736120Y4977262D01*
X8737310Y4979675D01*
X8740024Y4989804D01*
X8740200Y4992489D01*
X8741065Y4995036D01*
X8741608Y4999160D01*
X8749000Y5003068D01*
X8756391Y4999160D01*
X8756934Y4995035D01*
X8757799Y4992488D01*
X8757975Y4989804D01*
X8760689Y4979675D01*
X8761879Y4977262D01*
X8762403Y4974624D01*
X8766416Y4964935D01*
X8767911Y4962697D01*
X8768776Y4960150D01*
X8774020Y4951068D01*
X8775794Y4949044D01*
X8776984Y4946632D01*
X8783368Y4938312D01*
X8785390Y4936539D01*
X8786885Y4934301D01*
X8794300Y4926886D01*
X8796538Y4925391D01*
X8798311Y4923369D01*
X8806631Y4916985D01*
X8809043Y4915795D01*
X8811066Y4914021D01*
X8820149Y4908777D01*
X8822697Y4907912D01*
X8824934Y4906417D01*
X8834623Y4902404D01*
X8837261Y4901879D01*
X8839674Y4900690D01*
X8849803Y4897975D01*
X8852488Y4897799D01*
X8855035Y4896935D01*
X8865432Y4895566D01*
X8868117Y4895742D01*
X8870756Y4895217D01*
X8881243D01*
X8883882Y4895742D01*
X8886567Y4895566D01*
X8896964Y4896935D01*
X8899512Y4897799D01*
X8902196Y4897975D01*
X8912325Y4900690D01*
X8914738Y4901879D01*
X8917376Y4902404D01*
X8924724Y4905448D01*
X8930365Y4904988D01*
X8937446Y4901921D01*
X8939985Y4898809D01*
X8944222Y4888581D01*
X8954641Y4875003D01*
X9119439Y4710204D01*
Y3582156D01*
X7451142Y1913859D01*
X7440723Y1900280D01*
X7434173Y1884469D01*
X7431939Y1867500D01*
Y440810D01*
X7414680Y423551D01*
X7401054Y399949D01*
X7394000Y373626D01*
Y346374D01*
X7401054Y320051D01*
X7414680Y296449D01*
X7433950Y277180D01*
X7457551Y263553D01*
X7483874Y256500D01*
X7511126D01*
X7537449Y263553D01*
X7561051Y277180D01*
X7580321Y296449D01*
X7593947Y320051D01*
X7601000Y346374D01*
Y373626D01*
X7593947Y399949D01*
X7580321Y423551D01*
X7563061Y440810D01*
Y833567D01*
X7575761Y835239D01*
X7576178Y833682D01*
X7591976Y806318D01*
X7614319Y783976D01*
X7641682Y768178D01*
X7672202Y760000D01*
X7703798D01*
X7734318Y768178D01*
X7761682Y783976D01*
X7784024Y806318D01*
X7799822Y833682D01*
X7808000Y864202D01*
Y895798D01*
X7799822Y926318D01*
X7784024Y953682D01*
X7761682Y976024D01*
X7734318Y991822D01*
X7703798Y1000000D01*
X7672202D01*
X7641682Y991822D01*
X7614319Y976024D01*
X7591976Y953682D01*
X7576178Y926318D01*
X7575761Y924761D01*
X7563061Y926433D01*
Y1840344D01*
X9231358Y3508642D01*
X9241777Y3522220D01*
X9248327Y3538032D01*
X9250561Y3555000D01*
Y4737361D01*
X9248327Y4754329D01*
X9241777Y4770141D01*
X9231358Y4783719D01*
X9116708Y4898370D01*
X9121568Y4910103D01*
X9210000D01*
X9219910Y4912074D01*
X9228312Y4917688D01*
X9233926Y4926090D01*
X9235897Y4936001D01*
Y5211001D01*
X9130000D01*
Y5236001D01*
X9105000D01*
Y5341898D01*
X9049999D01*
X9042342Y5340375D01*
X7795561Y6587156D01*
Y6908103D01*
X7834999D01*
Y7014001D01*
Y7339898D01*
X7779999D01*
X7771322Y7338172D01*
X7155635Y7953858D01*
X7142057Y7964277D01*
X7126246Y7970827D01*
X7109277Y7973061D01*
X5893560D01*
Y8162000D01*
X5891326Y8178969D01*
X5884777Y8194781D01*
X5874358Y8208359D01*
X5705561Y8377156D01*
Y8459190D01*
X5722820Y8476449D01*
X5736446Y8500051D01*
X5743500Y8526374D01*
Y8553626D01*
X5736446Y8579949D01*
X5722820Y8603550D01*
X5703550Y8622820D01*
X5679949Y8636447D01*
X5653626Y8643500D01*
X5629217D01*
X5416358Y8856358D01*
X5402780Y8866777D01*
X5386968Y8873327D01*
X5370000Y8875561D01*
D02*
G37*
G36*
X4960000Y7605992D02*
X4587868D01*
X4557847Y7602040D01*
X4529872Y7590452D01*
X4505849Y7572019D01*
X4417981Y7484151D01*
X4399548Y7460128D01*
X4387960Y7432153D01*
X4384008Y7402132D01*
Y5655809D01*
X4377992Y5653318D01*
X4371308Y5651587D01*
X4351814Y5662842D01*
X4342500Y5665337D01*
Y5580000D01*
Y5494663D01*
X4351814Y5497158D01*
X4371308Y5508413D01*
X4377992Y5506682D01*
X4384008Y5504191D01*
Y5045000D01*
X4387960Y5014979D01*
X4399548Y4987004D01*
X4400903Y4985238D01*
X4404148Y4977404D01*
X4422581Y4953381D01*
X4777981Y4597981D01*
X5864008Y3511955D01*
Y2630000D01*
X5867960Y2599979D01*
X5879548Y2572004D01*
X5897981Y2547981D01*
X5922004Y2529548D01*
X5949979Y2517960D01*
X5980000Y2514008D01*
X6010021Y2517960D01*
X6037996Y2529548D01*
X6062019Y2547981D01*
X6080452Y2572004D01*
X6092040Y2599979D01*
X6095992Y2630000D01*
Y3559998D01*
X6095992Y3560000D01*
X6092040Y3590021D01*
X6080452Y3617996D01*
X6062019Y3642019D01*
X6062018Y3642020D01*
X6040332Y3663705D01*
X6046264Y3675734D01*
X6056100Y3674439D01*
X8233856D01*
X8244319Y3663976D01*
X8271682Y3648178D01*
X8302202Y3640000D01*
X8333798D01*
X8364318Y3648178D01*
X8391682Y3663976D01*
X8414024Y3686319D01*
X8429822Y3713682D01*
X8438000Y3744202D01*
Y3775798D01*
X8436291Y3782175D01*
X8447649Y3788859D01*
X8453884Y3782827D01*
X8452000Y3775798D01*
Y3744202D01*
X8460178Y3713682D01*
X8475976Y3686319D01*
X8498319Y3663976D01*
X8525682Y3648178D01*
X8556202Y3640000D01*
X8587798D01*
X8618318Y3648178D01*
X8645682Y3663976D01*
X8668024Y3686319D01*
X8683822Y3713682D01*
X8692000Y3744202D01*
Y3775798D01*
X8683822Y3806318D01*
X8668024Y3833682D01*
X8645682Y3856024D01*
X8618318Y3871822D01*
X8587798Y3880000D01*
X8556202D01*
X8547144Y3877573D01*
X7778359Y4646358D01*
X7764781Y4656777D01*
X7748969Y4663327D01*
X7732000Y4665561D01*
X5703500D01*
X5686532Y4663327D01*
X5670720Y4656777D01*
X5657142Y4646358D01*
X5641078Y4630294D01*
X5606077D01*
X5603551Y4632821D01*
X5579949Y4646447D01*
X5553626Y4653500D01*
X5526374D01*
X5500051Y4646447D01*
X5476450Y4632821D01*
X5457180Y4613551D01*
X5443554Y4589949D01*
X5436500Y4563626D01*
Y4536374D01*
X5442738Y4513094D01*
X5431876Y4505996D01*
X5423550Y4514321D01*
X5399949Y4527947D01*
X5373626Y4535000D01*
X5346374D01*
X5320051Y4527947D01*
X5296449Y4514321D01*
X5277179Y4495051D01*
X5263553Y4471450D01*
X5260297Y4459295D01*
X5248029Y4456008D01*
X5008831Y4695207D01*
X5016274Y4705724D01*
X5146291D01*
X5150051Y4703553D01*
X5176374Y4696500D01*
X5203626D01*
X5229949Y4703553D01*
X5253551Y4717180D01*
X5272821Y4736450D01*
X5286447Y4760051D01*
X5293500Y4786374D01*
Y4813626D01*
X5286447Y4839949D01*
X5272821Y4863551D01*
X5253551Y4882821D01*
X5229949Y4896447D01*
X5203626Y4903500D01*
X5176374D01*
X5150051Y4896447D01*
X5134167Y4887276D01*
X5101336D01*
X5099664Y4899976D01*
X5102325Y4900690D01*
X5104738Y4901879D01*
X5107376Y4902404D01*
X5117065Y4906417D01*
X5119302Y4907912D01*
X5121850Y4908777D01*
X5130932Y4914021D01*
X5132955Y4915795D01*
X5135368Y4916985D01*
X5143688Y4923369D01*
X5145461Y4925391D01*
X5147699Y4926886D01*
X5155114Y4934301D01*
X5156609Y4936539D01*
X5158631Y4938312D01*
X5165015Y4946632D01*
X5166205Y4949044D01*
X5167979Y4951067D01*
X5173223Y4960150D01*
X5174088Y4962697D01*
X5175583Y4964935D01*
X5179596Y4974624D01*
X5180120Y4977262D01*
X5181310Y4979675D01*
X5184024Y4989804D01*
X5184200Y4992489D01*
X5185065Y4995036D01*
X5186434Y5005433D01*
X5186258Y5008118D01*
X5186783Y5010757D01*
Y5241244D01*
X5186258Y5243883D01*
X5186434Y5246568D01*
X5185065Y5256965D01*
X5184200Y5259512D01*
X5184024Y5262196D01*
X5181310Y5272326D01*
X5180120Y5274739D01*
X5179596Y5277377D01*
X5175583Y5287066D01*
X5174088Y5289303D01*
X5173223Y5291851D01*
X5167979Y5300933D01*
X5166205Y5302956D01*
X5165015Y5305369D01*
X5158631Y5313689D01*
X5156609Y5315462D01*
X5155114Y5317700D01*
X5147699Y5325115D01*
X5145461Y5326610D01*
X5143688Y5328632D01*
X5135368Y5335016D01*
X5132956Y5336206D01*
X5130933Y5337980D01*
X5121850Y5343224D01*
X5119302Y5344089D01*
X5117065Y5345584D01*
X5107376Y5349597D01*
X5104738Y5350121D01*
X5102325Y5351311D01*
X5092196Y5354025D01*
X5089511Y5354201D01*
X5086964Y5355066D01*
X5076567Y5356435D01*
X5073881Y5356259D01*
X5071241Y5356784D01*
X5065997Y5356784D01*
X5060756D01*
X5058117Y5356259D01*
X5055432Y5356435D01*
X5045035Y5355066D01*
X5042488Y5354201D01*
X5039804Y5354025D01*
X5029675Y5351311D01*
X5027261Y5350121D01*
X5024622Y5349596D01*
X5014934Y5345583D01*
X5012696Y5344088D01*
X5010149Y5343224D01*
X5001067Y5337980D01*
X4999044Y5336206D01*
X4996631Y5335016D01*
X4988311Y5328632D01*
X4986538Y5326610D01*
X4984301Y5325115D01*
X4976885Y5317700D01*
X4975390Y5315462D01*
X4973368Y5313689D01*
X4966984Y5305369D01*
X4965794Y5302956D01*
X4964020Y5300933D01*
X4958776Y5291851D01*
X4957911Y5289303D01*
X4956417Y5287066D01*
X4952404Y5277378D01*
X4951879Y5274739D01*
X4950689Y5272326D01*
X4947975Y5262197D01*
X4947799Y5259511D01*
X4946934Y5256964D01*
X4946391Y5252841D01*
X4938999Y5248932D01*
X4931608Y5252840D01*
X4931065Y5256965D01*
X4930200Y5259512D01*
X4930024Y5262196D01*
X4927310Y5272326D01*
X4926120Y5274739D01*
X4925596Y5277377D01*
X4921583Y5287066D01*
X4920088Y5289303D01*
X4919223Y5291851D01*
X4913979Y5300933D01*
X4912205Y5302956D01*
X4911015Y5305369D01*
X4904631Y5313689D01*
X4902609Y5315462D01*
X4901114Y5317700D01*
X4893699Y5325115D01*
X4891461Y5326610D01*
X4890856Y5327301D01*
X4891829Y5332658D01*
X4895734Y5340001D01*
X4896175D01*
X4937713Y5348263D01*
X4976840Y5364470D01*
X5012054Y5387999D01*
X5042001Y5417946D01*
X5065530Y5453160D01*
X5081737Y5492287D01*
X5089999Y5533825D01*
Y5576176D01*
X5081737Y5617714D01*
X5065530Y5656841D01*
X5042001Y5692055D01*
X5012054Y5722002D01*
X4976840Y5745531D01*
X4937713Y5761738D01*
X4896175Y5770000D01*
X4853824D01*
X4812286Y5761738D01*
X4773159Y5745531D01*
X4737945Y5722002D01*
X4707998Y5692055D01*
X4684469Y5656841D01*
X4668262Y5617714D01*
X4660000Y5576176D01*
Y5533825D01*
X4668262Y5492287D01*
X4684469Y5453160D01*
X4707998Y5417946D01*
X4737945Y5387999D01*
X4773159Y5364470D01*
X4774163Y5364054D01*
X4775072Y5356386D01*
X4773878Y5350426D01*
X4773261Y5350121D01*
X4770622Y5349596D01*
X4760934Y5345583D01*
X4758696Y5344088D01*
X4756149Y5343224D01*
X4747067Y5337980D01*
X4745044Y5336206D01*
X4742631Y5335016D01*
X4734311Y5328632D01*
X4732538Y5326610D01*
X4730301Y5325115D01*
X4722885Y5317700D01*
X4721390Y5315462D01*
X4719368Y5313689D01*
X4712984Y5305369D01*
X4711794Y5302956D01*
X4710020Y5300933D01*
X4704776Y5291851D01*
X4703911Y5289303D01*
X4702417Y5287066D01*
X4698404Y5277378D01*
X4697879Y5274739D01*
X4696689Y5272326D01*
X4693975Y5262197D01*
X4693799Y5259511D01*
X4692934Y5256964D01*
X4691565Y5246567D01*
X4691741Y5243883D01*
X4691216Y5241244D01*
X4691216Y5030782D01*
X4678516Y5025522D01*
X4615992Y5088046D01*
Y7354086D01*
X4635914Y7374008D01*
X4911954D01*
X4950007Y7335955D01*
Y7267783D01*
X4947975Y7260197D01*
X4947799Y7257512D01*
X4946934Y7254965D01*
X4946391Y7250841D01*
X4939000Y7246932D01*
X4931608Y7250841D01*
X4931065Y7254965D01*
X4930200Y7257513D01*
X4930024Y7260197D01*
X4927310Y7270326D01*
X4926120Y7272739D01*
X4925596Y7275377D01*
X4921583Y7285066D01*
X4920088Y7287303D01*
X4919223Y7289851D01*
X4913979Y7298933D01*
X4912205Y7300956D01*
X4911015Y7303369D01*
X4904631Y7311689D01*
X4902609Y7313462D01*
X4901114Y7315700D01*
X4893699Y7323115D01*
X4891461Y7324610D01*
X4889688Y7326632D01*
X4881368Y7333016D01*
X4878956Y7334206D01*
X4876933Y7335980D01*
X4867850Y7341224D01*
X4865302Y7342089D01*
X4863065Y7343584D01*
X4853376Y7347597D01*
X4850738Y7348121D01*
X4848325Y7349311D01*
X4838196Y7352025D01*
X4835511Y7352201D01*
X4832964Y7353066D01*
X4822567Y7354435D01*
X4819882Y7354259D01*
X4817243Y7354784D01*
X4806756D01*
X4804117Y7354259D01*
X4801432Y7354435D01*
X4791035Y7353066D01*
X4788488Y7352201D01*
X4785803Y7352025D01*
X4775674Y7349311D01*
X4773261Y7348121D01*
X4770623Y7347597D01*
X4760934Y7343584D01*
X4758697Y7342089D01*
X4756149Y7341224D01*
X4747067Y7335980D01*
X4745044Y7334206D01*
X4742631Y7333016D01*
X4734311Y7326632D01*
X4732538Y7324610D01*
X4730300Y7323115D01*
X4722885Y7315700D01*
X4721390Y7313462D01*
X4719368Y7311689D01*
X4712984Y7303369D01*
X4711794Y7300957D01*
X4710020Y7298934D01*
X4704776Y7289851D01*
X4703911Y7287303D01*
X4702416Y7285066D01*
X4698403Y7275377D01*
X4697879Y7272739D01*
X4696689Y7270326D01*
X4693975Y7260197D01*
X4693799Y7257512D01*
X4692934Y7254965D01*
X4691565Y7244568D01*
X4691741Y7241883D01*
X4691216Y7239244D01*
Y7008757D01*
X4691741Y7006118D01*
X4691565Y7003433D01*
X4692934Y6993036D01*
X4693799Y6990488D01*
X4693975Y6987804D01*
X4696689Y6977675D01*
X4697879Y6975262D01*
X4698403Y6972624D01*
X4702416Y6962935D01*
X4703911Y6960698D01*
X4704776Y6958150D01*
X4710020Y6949068D01*
X4711794Y6947045D01*
X4712984Y6944632D01*
X4719368Y6936312D01*
X4721390Y6934539D01*
X4722885Y6932301D01*
X4730300Y6924886D01*
X4732538Y6923391D01*
X4734311Y6921369D01*
X4742631Y6914985D01*
X4745043Y6913795D01*
X4747066Y6912021D01*
X4756149Y6906777D01*
X4758697Y6905912D01*
X4760934Y6904417D01*
X4770623Y6900404D01*
X4773261Y6899880D01*
X4773878Y6899575D01*
X4775072Y6893617D01*
X4774163Y6885947D01*
X4773159Y6885531D01*
X4737945Y6862002D01*
X4707998Y6832055D01*
X4684469Y6796841D01*
X4668262Y6757713D01*
X4660000Y6716176D01*
Y6673825D01*
X4668262Y6632287D01*
X4684469Y6593160D01*
X4707998Y6557946D01*
X4737945Y6527999D01*
X4773159Y6504470D01*
X4812286Y6488263D01*
X4853824Y6480001D01*
X4896175D01*
X4937713Y6488263D01*
X4976840Y6504470D01*
X5012054Y6527999D01*
X5042001Y6557946D01*
X5065530Y6593160D01*
X5081737Y6632287D01*
X5089999Y6673825D01*
Y6716176D01*
X5081737Y6757713D01*
X5065530Y6796841D01*
X5042001Y6832055D01*
X5012054Y6862002D01*
X4976840Y6885531D01*
X4937713Y6901738D01*
X4896175Y6910000D01*
X4895734D01*
X4891828Y6917344D01*
X4890855Y6922700D01*
X4891461Y6923391D01*
X4893698Y6924886D01*
X4901114Y6932301D01*
X4902609Y6934539D01*
X4904631Y6936312D01*
X4911015Y6944632D01*
X4912205Y6947045D01*
X4913980Y6949068D01*
X4919223Y6958150D01*
X4920088Y6960698D01*
X4921582Y6962935D01*
X4925595Y6972623D01*
X4926120Y6975262D01*
X4927310Y6977675D01*
X4930024Y6987804D01*
X4930200Y6990490D01*
X4931065Y6993037D01*
X4931608Y6997160D01*
X4939001Y7001069D01*
X4946391Y6997161D01*
X4946934Y6993036D01*
X4947799Y6990488D01*
X4947975Y6987804D01*
X4950689Y6977675D01*
X4951879Y6975262D01*
X4952403Y6972624D01*
X4956416Y6962935D01*
X4957911Y6960698D01*
X4958776Y6958150D01*
X4964020Y6949068D01*
X4965794Y6947045D01*
X4966984Y6944632D01*
X4973368Y6936312D01*
X4975390Y6934539D01*
X4976885Y6932301D01*
X4984300Y6924886D01*
X4986538Y6923391D01*
X4988311Y6921369D01*
X4996631Y6914985D01*
X4999043Y6913795D01*
X5001066Y6912021D01*
X5010149Y6906777D01*
X5012697Y6905912D01*
X5014934Y6904417D01*
X5024623Y6900404D01*
X5027261Y6899880D01*
X5029674Y6898690D01*
X5039803Y6895976D01*
X5042488Y6895800D01*
X5045035Y6894935D01*
X5055432Y6893566D01*
X5058118Y6893742D01*
X5060758Y6893217D01*
X5071245Y6893217D01*
X5073883Y6893742D01*
X5076566Y6893566D01*
X5086963Y6894935D01*
X5089510Y6895800D01*
X5092195Y6895976D01*
X5102324Y6898690D01*
X5104738Y6899880D01*
X5107377Y6900405D01*
X5117065Y6904418D01*
X5119303Y6905913D01*
X5121850Y6906777D01*
X5130932Y6912021D01*
X5132955Y6913795D01*
X5135368Y6914985D01*
X5143688Y6921369D01*
X5145461Y6923391D01*
X5147698Y6924886D01*
X5155114Y6932301D01*
X5156609Y6934539D01*
X5158631Y6936312D01*
X5165015Y6944632D01*
X5166205Y6947045D01*
X5167980Y6949068D01*
X5173223Y6958150D01*
X5174088Y6960698D01*
X5175582Y6962935D01*
X5179595Y6972623D01*
X5180120Y6975262D01*
X5181310Y6977675D01*
X5184024Y6987804D01*
X5184200Y6990490D01*
X5185065Y6993037D01*
X5186434Y7003434D01*
X5186258Y7006118D01*
X5186783Y7008757D01*
X5186783Y7239244D01*
X5186258Y7241883D01*
X5186434Y7244568D01*
X5185065Y7254965D01*
X5184200Y7257513D01*
X5184024Y7260197D01*
X5181992Y7267783D01*
Y7384000D01*
X5178039Y7414021D01*
X5166452Y7441997D01*
X5148018Y7466019D01*
X5042019Y7572019D01*
X5017996Y7590452D01*
X4990021Y7602040D01*
X4960000Y7605992D01*
D02*
G37*
G36*
X9210000Y7339898D02*
X9154999D01*
Y7039001D01*
X9235897D01*
Y7314000D01*
X9233926Y7323911D01*
X9228312Y7332313D01*
X9219910Y7337927D01*
X9210000Y7339898D01*
D02*
G37*
G36*
X7940000D02*
X7884999D01*
Y7039001D01*
X7965897D01*
Y7314000D01*
X7963926Y7323911D01*
X7958312Y7332313D01*
X7949910Y7337927D01*
X7940000Y7339898D01*
D02*
G37*
G36*
X6670000D02*
X6614999D01*
Y7039001D01*
X6695897D01*
Y7314000D01*
X6693926Y7323911D01*
X6688312Y7332313D01*
X6679910Y7337927D01*
X6670000Y7339898D01*
D02*
G37*
G36*
X5400000D02*
X5344999D01*
Y7039001D01*
X5425897D01*
Y7314000D01*
X5423926Y7323911D01*
X5418312Y7332313D01*
X5409910Y7337927D01*
X5400000Y7339898D01*
D02*
G37*
G36*
X9104999D02*
X9049999D01*
X9040089Y7337927D01*
X9031687Y7332313D01*
X9026073Y7323911D01*
X9024102Y7314000D01*
Y7039001D01*
X9104999D01*
Y7339898D01*
D02*
G37*
G36*
X6564999D02*
X6509999D01*
X6500089Y7337927D01*
X6491687Y7332313D01*
X6486073Y7323911D01*
X6484102Y7314000D01*
Y7039001D01*
X6564999D01*
Y7339898D01*
D02*
G37*
G36*
X5294999D02*
X5239999D01*
X5230089Y7337927D01*
X5221687Y7332313D01*
X5216073Y7323911D01*
X5214102Y7314000D01*
Y7039001D01*
X5294999D01*
Y7339898D01*
D02*
G37*
G36*
X990798Y7195000D02*
X959202D01*
X928682Y7186822D01*
X901318Y7171024D01*
X878976Y7148682D01*
X863178Y7121318D01*
X855000Y7090798D01*
Y7059202D01*
X863178Y7028682D01*
X878976Y7001318D01*
X901318Y6978976D01*
X928682Y6963178D01*
X959202Y6955000D01*
X990798D01*
X1021318Y6963178D01*
X1048681Y6978976D01*
X1071024Y7001318D01*
X1086822Y7028682D01*
X1095000Y7059202D01*
Y7090798D01*
X1086822Y7121318D01*
X1071024Y7148682D01*
X1048681Y7171024D01*
X1021318Y7186822D01*
X990798Y7195000D01*
D02*
G37*
G36*
X690798D02*
X659202D01*
X628682Y7186822D01*
X601318Y7171024D01*
X578976Y7148682D01*
X563178Y7121318D01*
X555000Y7090798D01*
Y7059202D01*
X563178Y7028682D01*
X578976Y7001318D01*
X601318Y6978976D01*
X628682Y6963178D01*
X659202Y6955000D01*
X690798D01*
X721318Y6963178D01*
X748682Y6978976D01*
X771024Y7001318D01*
X786822Y7028682D01*
X795000Y7059202D01*
Y7090798D01*
X786822Y7121318D01*
X771024Y7148682D01*
X748682Y7171024D01*
X721318Y7186822D01*
X690798Y7195000D01*
D02*
G37*
G36*
X9235897Y6989001D02*
X9154999D01*
Y6908103D01*
X9210000D01*
X9219910Y6910074D01*
X9228312Y6915688D01*
X9233926Y6924090D01*
X9235897Y6934000D01*
Y6989001D01*
D02*
G37*
G36*
X9104999D02*
X9024102D01*
Y6934000D01*
X9026073Y6924090D01*
X9031687Y6915688D01*
X9040089Y6910074D01*
X9049999Y6908103D01*
X9104999D01*
Y6989001D01*
D02*
G37*
G36*
X7965897D02*
X7884999D01*
Y6908103D01*
X7940000D01*
X7949910Y6910074D01*
X7958312Y6915688D01*
X7963926Y6924090D01*
X7965897Y6934000D01*
Y6989001D01*
D02*
G37*
G36*
X6564999D02*
X6484102D01*
Y6934000D01*
X6486073Y6924090D01*
X6491687Y6915688D01*
X6500089Y6910074D01*
X6509999Y6908103D01*
X6564999D01*
Y6989001D01*
D02*
G37*
G36*
X5425897D02*
X5344999D01*
Y6908103D01*
X5400000D01*
X5409910Y6910074D01*
X5418312Y6915688D01*
X5423926Y6924090D01*
X5425897Y6934000D01*
Y6989001D01*
D02*
G37*
G36*
X5294999D02*
X5214102D01*
Y6934000D01*
X5216073Y6924090D01*
X5221687Y6915688D01*
X5230089Y6910074D01*
X5239999Y6908103D01*
X5294999D01*
Y6989001D01*
D02*
G37*
G36*
X3240000Y6732837D02*
Y6672500D01*
X3300337D01*
X3297842Y6681814D01*
X3286138Y6702086D01*
X3269586Y6718638D01*
X3249314Y6730342D01*
X3240000Y6732837D01*
D02*
G37*
G36*
X3190000D02*
X3180686Y6730342D01*
X3160414Y6718638D01*
X3143862Y6702086D01*
X3132158Y6681814D01*
X3129663Y6672500D01*
X3190000D01*
Y6732837D01*
D02*
G37*
G36*
X990798Y6895000D02*
X959202D01*
X928682Y6886822D01*
X901318Y6871024D01*
X878976Y6848682D01*
X863178Y6821318D01*
X855000Y6790798D01*
Y6759202D01*
X863178Y6728682D01*
X878976Y6701319D01*
X901318Y6678976D01*
X928682Y6663178D01*
X959202Y6655000D01*
X990798D01*
X1021318Y6663178D01*
X1048681Y6678976D01*
X1071024Y6701319D01*
X1086822Y6728682D01*
X1095000Y6759202D01*
Y6790798D01*
X1086822Y6821318D01*
X1071024Y6848682D01*
X1048681Y6871024D01*
X1021318Y6886822D01*
X990798Y6895000D01*
D02*
G37*
G36*
X690798D02*
X659202D01*
X628682Y6886822D01*
X601318Y6871024D01*
X578976Y6848682D01*
X563178Y6821318D01*
X555000Y6790798D01*
Y6759202D01*
X563178Y6728682D01*
X578976Y6701319D01*
X601318Y6678976D01*
X628682Y6663178D01*
X659202Y6655000D01*
X690798D01*
X721318Y6663178D01*
X748682Y6678976D01*
X771024Y6701319D01*
X786822Y6728682D01*
X795000Y6759202D01*
Y6790798D01*
X786822Y6821318D01*
X771024Y6848682D01*
X748682Y6871024D01*
X721318Y6886822D01*
X690798Y6895000D01*
D02*
G37*
G36*
X3300337Y6622500D02*
X3240000D01*
Y6562163D01*
X3249314Y6564658D01*
X3269586Y6576362D01*
X3286138Y6592914D01*
X3297842Y6613186D01*
X3300337Y6622500D01*
D02*
G37*
G36*
X3190000D02*
X3129663D01*
X3132158Y6613186D01*
X3143862Y6592914D01*
X3160414Y6576362D01*
X3180686Y6564658D01*
X3190000Y6562163D01*
Y6622500D01*
D02*
G37*
G36*
X990798Y6595000D02*
X959202D01*
X928682Y6586822D01*
X901318Y6571024D01*
X878976Y6548682D01*
X863178Y6521318D01*
X855000Y6490799D01*
Y6459202D01*
X863178Y6428682D01*
X878976Y6401319D01*
X901318Y6378977D01*
X928682Y6363178D01*
X959202Y6355000D01*
X990798D01*
X1021318Y6363178D01*
X1048681Y6378977D01*
X1071024Y6401319D01*
X1086822Y6428682D01*
X1095000Y6459202D01*
Y6490799D01*
X1086822Y6521318D01*
X1071024Y6548682D01*
X1048681Y6571024D01*
X1021318Y6586822D01*
X990798Y6595000D01*
D02*
G37*
G36*
X690798D02*
X659202D01*
X628682Y6586822D01*
X601318Y6571024D01*
X578976Y6548682D01*
X563178Y6521318D01*
X555000Y6490799D01*
Y6459202D01*
X563178Y6428682D01*
X578976Y6401319D01*
X601318Y6378977D01*
X628682Y6363178D01*
X659202Y6355000D01*
X690798D01*
X721318Y6363178D01*
X748682Y6378977D01*
X771024Y6401319D01*
X786822Y6428682D01*
X795000Y6459202D01*
Y6490799D01*
X786822Y6521318D01*
X771024Y6548682D01*
X748682Y6571024D01*
X721318Y6586822D01*
X690798Y6595000D01*
D02*
G37*
G36*
X9912599Y6230898D02*
X9637599D01*
Y6150001D01*
X9938497D01*
Y6205001D01*
X9936526Y6214911D01*
X9930912Y6223313D01*
X9922510Y6228927D01*
X9912599Y6230898D01*
D02*
G37*
G36*
X9587600D02*
X9532599D01*
X9522689Y6228927D01*
X9514287Y6223313D01*
X9508673Y6214911D01*
X9506702Y6205001D01*
Y6150001D01*
X9587600D01*
Y6230898D01*
D02*
G37*
G36*
X990798Y6295000D02*
X959202D01*
X928682Y6286822D01*
X901318Y6271024D01*
X878976Y6248682D01*
X863178Y6221318D01*
X855000Y6190798D01*
Y6159202D01*
X863178Y6128682D01*
X878976Y6101319D01*
X901318Y6078976D01*
X928682Y6063178D01*
X959202Y6055000D01*
X990798D01*
X1021318Y6063178D01*
X1048681Y6078976D01*
X1071024Y6101319D01*
X1086822Y6128682D01*
X1095000Y6159202D01*
Y6190798D01*
X1086822Y6221318D01*
X1071024Y6248682D01*
X1048681Y6271024D01*
X1021318Y6286822D01*
X990798Y6295000D01*
D02*
G37*
G36*
X690798D02*
X659202D01*
X628682Y6286822D01*
X601318Y6271024D01*
X578976Y6248682D01*
X563178Y6221318D01*
X555000Y6190798D01*
Y6159202D01*
X563178Y6128682D01*
X578976Y6101319D01*
X601318Y6078976D01*
X628682Y6063178D01*
X659202Y6055000D01*
X690798D01*
X721318Y6063178D01*
X748682Y6078976D01*
X771024Y6101319D01*
X786822Y6128682D01*
X795000Y6159202D01*
Y6190798D01*
X786822Y6221318D01*
X771024Y6248682D01*
X748682Y6271024D01*
X721318Y6286822D01*
X690798Y6295000D01*
D02*
G37*
G36*
X9938497Y6100001D02*
X9637599D01*
Y6019103D01*
X9912599D01*
X9922510Y6021074D01*
X9930912Y6026688D01*
X9936526Y6035090D01*
X9938497Y6045000D01*
Y6100001D01*
D02*
G37*
G36*
X9587600D02*
X9506702D01*
Y6045000D01*
X9508673Y6035090D01*
X9514287Y6026688D01*
X9522689Y6021074D01*
X9532599Y6019103D01*
X9587600D01*
Y6100001D01*
D02*
G37*
G36*
X9837843Y5991784D02*
X9607356D01*
X9604717Y5991259D01*
X9602032Y5991435D01*
X9591635Y5990066D01*
X9589088Y5989201D01*
X9586403Y5989025D01*
X9576274Y5986311D01*
X9573861Y5985121D01*
X9571223Y5984597D01*
X9561534Y5980584D01*
X9559297Y5979089D01*
X9556749Y5978224D01*
X9547667Y5972980D01*
X9545644Y5971206D01*
X9543231Y5970016D01*
X9534911Y5963632D01*
X9533138Y5961610D01*
X9530900Y5960115D01*
X9523485Y5952700D01*
X9521990Y5950462D01*
X9519968Y5948689D01*
X9513584Y5940369D01*
X9512394Y5937957D01*
X9510620Y5935934D01*
X9505376Y5926851D01*
X9504511Y5924303D01*
X9503016Y5922066D01*
X9499003Y5912377D01*
X9498479Y5909739D01*
X9497289Y5907326D01*
X9494575Y5897196D01*
X9494399Y5894512D01*
X9493534Y5891965D01*
X9492165Y5881568D01*
X9492341Y5878882D01*
X9491816Y5876242D01*
X9491816Y5865755D01*
X9492341Y5863117D01*
X9492165Y5860434D01*
X9493534Y5850037D01*
X9494399Y5847490D01*
X9494575Y5844805D01*
X9497289Y5834676D01*
X9498479Y5832262D01*
X9499004Y5829623D01*
X9503017Y5819935D01*
X9504512Y5817697D01*
X9505376Y5815150D01*
X9510620Y5806068D01*
X9512394Y5804045D01*
X9513584Y5801632D01*
X9519968Y5793312D01*
X9521990Y5791539D01*
X9523485Y5789302D01*
X9530900Y5781886D01*
X9533138Y5780391D01*
X9534300Y5779066D01*
X9534108Y5775783D01*
X9530898Y5765440D01*
X9512287Y5761738D01*
X9473159Y5745531D01*
X9437945Y5722002D01*
X9407998Y5692055D01*
X9384469Y5656841D01*
X9368262Y5617714D01*
X9360000Y5576176D01*
Y5533825D01*
X9368262Y5492287D01*
X9384469Y5453160D01*
X9407998Y5417946D01*
X9437945Y5387999D01*
X9473159Y5364470D01*
X9512287Y5348263D01*
X9553824Y5340001D01*
X9554265D01*
X9558171Y5332657D01*
X9559144Y5327301D01*
X9558538Y5326610D01*
X9556301Y5325115D01*
X9548885Y5317700D01*
X9547390Y5315462D01*
X9545368Y5313689D01*
X9538984Y5305369D01*
X9537794Y5302956D01*
X9536020Y5300933D01*
X9530776Y5291851D01*
X9529911Y5289303D01*
X9528417Y5287066D01*
X9524404Y5277378D01*
X9523879Y5274739D01*
X9522689Y5272326D01*
X9519975Y5262197D01*
X9519799Y5259511D01*
X9518934Y5256964D01*
X9518391Y5252841D01*
X9510999Y5248932D01*
X9503608Y5252840D01*
X9503065Y5256965D01*
X9502200Y5259512D01*
X9502024Y5262196D01*
X9499310Y5272326D01*
X9498120Y5274739D01*
X9497596Y5277377D01*
X9493583Y5287066D01*
X9492088Y5289303D01*
X9491223Y5291851D01*
X9485979Y5300933D01*
X9484205Y5302956D01*
X9483015Y5305369D01*
X9476631Y5313689D01*
X9474609Y5315462D01*
X9473114Y5317700D01*
X9465699Y5325115D01*
X9463461Y5326610D01*
X9461688Y5328632D01*
X9453368Y5335016D01*
X9450956Y5336206D01*
X9448933Y5337980D01*
X9439850Y5343224D01*
X9437302Y5344089D01*
X9435065Y5345584D01*
X9425376Y5349597D01*
X9422738Y5350121D01*
X9420325Y5351311D01*
X9410196Y5354025D01*
X9407511Y5354201D01*
X9404964Y5355066D01*
X9394567Y5356435D01*
X9391881Y5356259D01*
X9389241Y5356784D01*
X9383997Y5356784D01*
X9378756D01*
X9376117Y5356259D01*
X9373432Y5356435D01*
X9363035Y5355066D01*
X9360488Y5354201D01*
X9357804Y5354025D01*
X9347675Y5351311D01*
X9345261Y5350121D01*
X9342622Y5349596D01*
X9332934Y5345583D01*
X9330696Y5344088D01*
X9328149Y5343224D01*
X9319067Y5337980D01*
X9317044Y5336206D01*
X9314631Y5335016D01*
X9306311Y5328632D01*
X9304538Y5326610D01*
X9302301Y5325115D01*
X9294885Y5317700D01*
X9293390Y5315462D01*
X9291368Y5313689D01*
X9284984Y5305369D01*
X9283794Y5302956D01*
X9282020Y5300933D01*
X9276776Y5291851D01*
X9275911Y5289303D01*
X9274417Y5287066D01*
X9270404Y5277378D01*
X9269879Y5274739D01*
X9268689Y5272326D01*
X9265975Y5262197D01*
X9265799Y5259511D01*
X9264934Y5256964D01*
X9263565Y5246567D01*
X9263741Y5243883D01*
X9263216Y5241244D01*
X9263216Y5010757D01*
X9263741Y5008118D01*
X9263565Y5005433D01*
X9264934Y4995035D01*
X9265799Y4992488D01*
X9265975Y4989804D01*
X9268689Y4979675D01*
X9269879Y4977262D01*
X9270403Y4974624D01*
X9274416Y4964935D01*
X9275911Y4962697D01*
X9276776Y4960150D01*
X9282020Y4951068D01*
X9283794Y4949044D01*
X9284984Y4946632D01*
X9291368Y4938312D01*
X9293390Y4936539D01*
X9294885Y4934301D01*
X9302300Y4926886D01*
X9304538Y4925391D01*
X9306311Y4923369D01*
X9314631Y4916985D01*
X9317043Y4915795D01*
X9319066Y4914021D01*
X9328149Y4908777D01*
X9330697Y4907912D01*
X9332934Y4906417D01*
X9342623Y4902404D01*
X9345261Y4901879D01*
X9347674Y4900690D01*
X9357803Y4897975D01*
X9360488Y4897799D01*
X9363035Y4896935D01*
X9373432Y4895566D01*
X9376117Y4895742D01*
X9378756Y4895217D01*
X9389243D01*
X9391882Y4895742D01*
X9394567Y4895566D01*
X9404964Y4896935D01*
X9407512Y4897799D01*
X9410196Y4897975D01*
X9420325Y4900690D01*
X9422738Y4901879D01*
X9425376Y4902404D01*
X9435065Y4906417D01*
X9437302Y4907912D01*
X9439850Y4908777D01*
X9448932Y4914021D01*
X9450955Y4915795D01*
X9453368Y4916985D01*
X9461688Y4923369D01*
X9463461Y4925391D01*
X9465699Y4926886D01*
X9473114Y4934301D01*
X9474609Y4936539D01*
X9476631Y4938312D01*
X9483015Y4946632D01*
X9484205Y4949044D01*
X9485979Y4951067D01*
X9491223Y4960150D01*
X9492088Y4962697D01*
X9493583Y4964935D01*
X9497596Y4974624D01*
X9498120Y4977262D01*
X9499310Y4979675D01*
X9502024Y4989804D01*
X9502200Y4992489D01*
X9503065Y4995036D01*
X9503608Y4999160D01*
X9511000Y5003068D01*
X9518391Y4999160D01*
X9518934Y4995035D01*
X9519799Y4992488D01*
X9519975Y4989804D01*
X9522689Y4979675D01*
X9523879Y4977262D01*
X9524403Y4974624D01*
X9528416Y4964935D01*
X9529911Y4962697D01*
X9530776Y4960150D01*
X9536020Y4951068D01*
X9537794Y4949044D01*
X9538984Y4946632D01*
X9545368Y4938312D01*
X9547390Y4936539D01*
X9548885Y4934301D01*
X9556300Y4926886D01*
X9558538Y4925391D01*
X9560311Y4923369D01*
X9568631Y4916985D01*
X9571043Y4915795D01*
X9573066Y4914021D01*
X9582149Y4908777D01*
X9584697Y4907912D01*
X9586934Y4906417D01*
X9596623Y4902404D01*
X9599261Y4901879D01*
X9601674Y4900690D01*
X9611803Y4897975D01*
X9614488Y4897799D01*
X9617035Y4896935D01*
X9627432Y4895566D01*
X9630117Y4895742D01*
X9632756Y4895217D01*
X9643243D01*
X9645882Y4895742D01*
X9648567Y4895566D01*
X9658964Y4896935D01*
X9661512Y4897799D01*
X9664196Y4897975D01*
X9674325Y4900690D01*
X9676738Y4901879D01*
X9679376Y4902404D01*
X9689065Y4906417D01*
X9691302Y4907912D01*
X9693850Y4908777D01*
X9702932Y4914021D01*
X9704955Y4915795D01*
X9707368Y4916985D01*
X9715688Y4923369D01*
X9717461Y4925391D01*
X9719699Y4926886D01*
X9727114Y4934301D01*
X9728609Y4936539D01*
X9730631Y4938312D01*
X9737015Y4946632D01*
X9738205Y4949044D01*
X9739979Y4951067D01*
X9745223Y4960150D01*
X9746088Y4962697D01*
X9747583Y4964935D01*
X9751596Y4974624D01*
X9752120Y4977262D01*
X9753310Y4979675D01*
X9756024Y4989804D01*
X9756200Y4992489D01*
X9757065Y4995036D01*
X9758434Y5005433D01*
X9758258Y5008118D01*
X9758783Y5010757D01*
Y5241244D01*
X9758258Y5243883D01*
X9758434Y5246568D01*
X9757065Y5256965D01*
X9756200Y5259512D01*
X9756024Y5262196D01*
X9753310Y5272326D01*
X9752120Y5274739D01*
X9751596Y5277377D01*
X9747583Y5287066D01*
X9746088Y5289303D01*
X9745223Y5291851D01*
X9739979Y5300933D01*
X9738205Y5302956D01*
X9737015Y5305369D01*
X9730631Y5313689D01*
X9728609Y5315462D01*
X9727114Y5317700D01*
X9719699Y5325115D01*
X9717461Y5326610D01*
X9715688Y5328632D01*
X9707368Y5335016D01*
X9704956Y5336206D01*
X9702933Y5337980D01*
X9693850Y5343224D01*
X9691302Y5344089D01*
X9689065Y5345584D01*
X9679376Y5349597D01*
X9676738Y5350121D01*
X9676121Y5350426D01*
X9674927Y5356384D01*
X9675836Y5364054D01*
X9676840Y5364470D01*
X9712054Y5387999D01*
X9742001Y5417946D01*
X9765530Y5453160D01*
X9781737Y5492287D01*
X9789999Y5533825D01*
Y5576176D01*
X9781737Y5617714D01*
X9765530Y5656841D01*
X9742001Y5692055D01*
X9712054Y5722002D01*
X9688834Y5737517D01*
X9692687Y5750217D01*
X9837843Y5750217D01*
X9840482Y5750742D01*
X9843167Y5750566D01*
X9853564Y5751935D01*
X9856112Y5752800D01*
X9858796Y5752976D01*
X9868925Y5755690D01*
X9871338Y5756880D01*
X9873976Y5757404D01*
X9883665Y5761417D01*
X9885903Y5762912D01*
X9888450Y5763777D01*
X9897532Y5769021D01*
X9899556Y5770795D01*
X9901968Y5771985D01*
X9910288Y5778369D01*
X9912061Y5780391D01*
X9914299Y5781886D01*
X9921714Y5789301D01*
X9923209Y5791539D01*
X9925231Y5793312D01*
X9931615Y5801632D01*
X9932805Y5804044D01*
X9934579Y5806067D01*
X9939823Y5815150D01*
X9940688Y5817698D01*
X9942183Y5819935D01*
X9946196Y5829624D01*
X9946721Y5832262D01*
X9947910Y5834675D01*
X9950624Y5844804D01*
X9950801Y5847489D01*
X9951665Y5850036D01*
X9953034Y5860433D01*
X9952858Y5863118D01*
X9953383Y5865757D01*
Y5876244D01*
X9952858Y5878883D01*
X9953034Y5881568D01*
X9951665Y5891965D01*
X9950801Y5894512D01*
X9950624Y5897196D01*
X9947910Y5907326D01*
X9946721Y5909739D01*
X9946196Y5912377D01*
X9942183Y5922066D01*
X9940688Y5924303D01*
X9939823Y5926851D01*
X9934579Y5935933D01*
X9932805Y5937956D01*
X9931615Y5940369D01*
X9925231Y5948689D01*
X9923209Y5950462D01*
X9921714Y5952700D01*
X9914299Y5960115D01*
X9912061Y5961610D01*
X9910288Y5963632D01*
X9901968Y5970016D01*
X9899556Y5971206D01*
X9897533Y5972980D01*
X9888450Y5978224D01*
X9885903Y5979089D01*
X9883665Y5980584D01*
X9873976Y5984597D01*
X9871338Y5985121D01*
X9868925Y5986311D01*
X9858796Y5989025D01*
X9856111Y5989201D01*
X9853564Y5990066D01*
X9843167Y5991435D01*
X9840482Y5991259D01*
X9837843Y5991784D01*
D02*
G37*
G36*
X7180000Y5960337D02*
Y5900000D01*
X7240337D01*
X7237842Y5909314D01*
X7226138Y5929586D01*
X7209586Y5946138D01*
X7189314Y5957842D01*
X7180000Y5960337D01*
D02*
G37*
G36*
X7130000D02*
X7120686Y5957842D01*
X7100414Y5946138D01*
X7083862Y5929586D01*
X7072158Y5909314D01*
X7069663Y5900000D01*
X7130000D01*
Y5960337D01*
D02*
G37*
G36*
X1230000Y7770949D02*
X1201284Y7767168D01*
X1174526Y7756085D01*
X1151547Y7738453D01*
X1133915Y7715474D01*
X1122832Y7688716D01*
X1119051Y7660000D01*
Y5875957D01*
X1107700Y5864605D01*
X1095000Y5869866D01*
Y5890798D01*
X1086822Y5921318D01*
X1071024Y5948682D01*
X1048681Y5971024D01*
X1021318Y5986822D01*
X990798Y5995000D01*
X959202D01*
X928682Y5986822D01*
X901318Y5971024D01*
X878976Y5948682D01*
X863178Y5921318D01*
X855000Y5890798D01*
Y5859202D01*
X863178Y5828682D01*
X878976Y5801319D01*
X901318Y5778977D01*
X928682Y5763178D01*
X959202Y5755000D01*
X980134D01*
X985395Y5742300D01*
X930368Y5687274D01*
X928682Y5686822D01*
X901318Y5671024D01*
X878976Y5648682D01*
X863178Y5621318D01*
X855000Y5590798D01*
Y5559202D01*
X863178Y5528682D01*
X878976Y5501318D01*
X901318Y5478976D01*
X928682Y5463178D01*
X959202Y5455000D01*
X990798D01*
X1021318Y5463178D01*
X1048681Y5478976D01*
X1071024Y5501318D01*
X1086822Y5528682D01*
X1087274Y5530368D01*
X1308453Y5751548D01*
X1326085Y5774526D01*
X1337169Y5801285D01*
X1340949Y5830000D01*
Y7660000D01*
X1337169Y7688716D01*
X1326085Y7715474D01*
X1308453Y7738453D01*
X1285474Y7756085D01*
X1258716Y7767168D01*
X1230000Y7770949D01*
D02*
G37*
G36*
X7240337Y5850000D02*
X7180000D01*
Y5789663D01*
X7189314Y5792158D01*
X7209586Y5803862D01*
X7226138Y5820414D01*
X7237842Y5840686D01*
X7240337Y5850000D01*
D02*
G37*
G36*
X7130000D02*
X7069663D01*
X7072158Y5840686D01*
X7083862Y5820414D01*
X7100414Y5803862D01*
X7120686Y5792158D01*
X7130000Y5789663D01*
Y5850000D01*
D02*
G37*
G36*
X690798Y5995000D02*
X659202D01*
X628682Y5986822D01*
X601318Y5971024D01*
X578976Y5948682D01*
X563178Y5921318D01*
X555000Y5890798D01*
Y5859202D01*
X563178Y5828682D01*
X578976Y5801319D01*
X601318Y5778977D01*
X628682Y5763178D01*
X659202Y5755000D01*
X690798D01*
X721318Y5763178D01*
X748682Y5778977D01*
X771024Y5801319D01*
X786822Y5828682D01*
X795000Y5859202D01*
Y5890798D01*
X786822Y5921318D01*
X771024Y5948682D01*
X748682Y5971024D01*
X721318Y5986822D01*
X690798Y5995000D01*
D02*
G37*
G36*
Y5695000D02*
X659202D01*
X628682Y5686822D01*
X601318Y5671024D01*
X578976Y5648682D01*
X563178Y5621318D01*
X555000Y5590798D01*
Y5559202D01*
X563178Y5528682D01*
X578976Y5501318D01*
X601318Y5478976D01*
X628682Y5463178D01*
X659202Y5455000D01*
X690798D01*
X721318Y5463178D01*
X748682Y5478976D01*
X771024Y5501318D01*
X786822Y5528682D01*
X795000Y5559202D01*
Y5590798D01*
X786822Y5621318D01*
X771024Y5648682D01*
X748682Y5671024D01*
X721318Y5686822D01*
X690798Y5695000D01*
D02*
G37*
G36*
X3503626Y5859768D02*
X3476374D01*
X3450051Y5852714D01*
X3426449Y5839088D01*
X3407179Y5819818D01*
X3393553Y5796217D01*
X3386500Y5769894D01*
Y5742642D01*
X3393553Y5716318D01*
X3407179Y5692717D01*
X3424439Y5675457D01*
Y5552310D01*
X3407179Y5535051D01*
X3393553Y5511449D01*
X3386500Y5485126D01*
Y5457874D01*
X3393553Y5431551D01*
X3407179Y5407950D01*
X3426449Y5388680D01*
X3450051Y5375054D01*
X3476374Y5368000D01*
X3503626D01*
X3529949Y5375054D01*
X3553550Y5388680D01*
X3572820Y5407950D01*
X3586446Y5431551D01*
X3593500Y5457874D01*
Y5485126D01*
X3586446Y5511449D01*
X3572820Y5535051D01*
X3555561Y5552310D01*
Y5675457D01*
X3572820Y5692717D01*
X3586446Y5716318D01*
X3593500Y5742642D01*
Y5769894D01*
X3586446Y5796217D01*
X3572820Y5819818D01*
X3553550Y5839088D01*
X3529949Y5852714D01*
X3503626Y5859768D01*
D02*
G37*
G36*
X7611241Y5356784D02*
X7605997Y5356784D01*
X7600756D01*
X7598117Y5356259D01*
X7595432Y5356435D01*
X7585035Y5355066D01*
X7582488Y5354201D01*
X7579804Y5354025D01*
X7569675Y5351311D01*
X7567261Y5350121D01*
X7564622Y5349596D01*
X7554934Y5345583D01*
X7552696Y5344088D01*
X7550149Y5343224D01*
X7541067Y5337980D01*
X7539044Y5336206D01*
X7536631Y5335016D01*
X7528311Y5328632D01*
X7526538Y5326610D01*
X7524301Y5325115D01*
X7516885Y5317700D01*
X7515390Y5315462D01*
X7513368Y5313689D01*
X7506984Y5305369D01*
X7505794Y5302956D01*
X7504020Y5300933D01*
X7498776Y5291851D01*
X7497911Y5289303D01*
X7496417Y5287066D01*
X7492404Y5277378D01*
X7491879Y5274739D01*
X7490689Y5272326D01*
X7487975Y5262197D01*
X7487799Y5259511D01*
X7486934Y5256964D01*
X7486391Y5252841D01*
X7478999Y5248932D01*
X7471608Y5252840D01*
X7471065Y5256965D01*
X7470200Y5259512D01*
X7470024Y5262196D01*
X7467310Y5272326D01*
X7466120Y5274739D01*
X7465596Y5277377D01*
X7461583Y5287066D01*
X7460088Y5289303D01*
X7459223Y5291851D01*
X7453979Y5300933D01*
X7452205Y5302956D01*
X7451015Y5305369D01*
X7444631Y5313689D01*
X7442609Y5315462D01*
X7441114Y5317700D01*
X7433699Y5325115D01*
X7431461Y5326610D01*
X7429688Y5328632D01*
X7421368Y5335016D01*
X7418956Y5336206D01*
X7416933Y5337980D01*
X7407850Y5343224D01*
X7405302Y5344089D01*
X7403065Y5345584D01*
X7393376Y5349597D01*
X7390738Y5350121D01*
X7388325Y5351311D01*
X7378196Y5354025D01*
X7375511Y5354201D01*
X7372964Y5355066D01*
X7362567Y5356435D01*
X7359881Y5356259D01*
X7357241Y5356784D01*
X7351997Y5356784D01*
X7346756D01*
X7344117Y5356259D01*
X7341432Y5356435D01*
X7331035Y5355066D01*
X7328488Y5354201D01*
X7325804Y5354025D01*
X7315675Y5351311D01*
X7313261Y5350121D01*
X7310622Y5349596D01*
X7300934Y5345583D01*
X7298696Y5344088D01*
X7296149Y5343224D01*
X7287067Y5337980D01*
X7285044Y5336206D01*
X7282631Y5335016D01*
X7274311Y5328632D01*
X7272538Y5326610D01*
X7270301Y5325115D01*
X7262885Y5317700D01*
X7261390Y5315462D01*
X7259368Y5313689D01*
X7252984Y5305369D01*
X7251794Y5302956D01*
X7250020Y5300933D01*
X7244776Y5291851D01*
X7243911Y5289303D01*
X7242417Y5287066D01*
X7238404Y5277378D01*
X7237879Y5274739D01*
X7236689Y5272326D01*
X7233975Y5262197D01*
X7233799Y5259511D01*
X7232934Y5256964D01*
X7232391Y5252841D01*
X7224999Y5248932D01*
X7217608Y5252840D01*
X7217065Y5256965D01*
X7216200Y5259512D01*
X7216024Y5262196D01*
X7213310Y5272326D01*
X7212120Y5274739D01*
X7211596Y5277377D01*
X7207583Y5287066D01*
X7206088Y5289303D01*
X7205223Y5291851D01*
X7199979Y5300933D01*
X7198205Y5302956D01*
X7197015Y5305369D01*
X7190631Y5313689D01*
X7188609Y5315462D01*
X7187114Y5317700D01*
X7179699Y5325115D01*
X7177461Y5326610D01*
X7175688Y5328632D01*
X7167368Y5335016D01*
X7164956Y5336206D01*
X7162933Y5337980D01*
X7153850Y5343224D01*
X7151302Y5344089D01*
X7149065Y5345584D01*
X7139376Y5349597D01*
X7136738Y5350121D01*
X7134325Y5351311D01*
X7124196Y5354025D01*
X7121511Y5354201D01*
X7118964Y5355066D01*
X7108567Y5356435D01*
X7105881Y5356259D01*
X7103241Y5356784D01*
X7097997Y5356784D01*
X7092756D01*
X7090117Y5356259D01*
X7087432Y5356435D01*
X7077035Y5355066D01*
X7074488Y5354201D01*
X7071804Y5354025D01*
X7061675Y5351311D01*
X7059261Y5350121D01*
X7056622Y5349596D01*
X7046934Y5345583D01*
X7044696Y5344088D01*
X7042149Y5343224D01*
X7033067Y5337980D01*
X7031044Y5336206D01*
X7028631Y5335016D01*
X7020311Y5328632D01*
X7018538Y5326610D01*
X7016301Y5325115D01*
X7008885Y5317700D01*
X7007390Y5315462D01*
X7005368Y5313689D01*
X6998984Y5305369D01*
X6997794Y5302956D01*
X6996020Y5300933D01*
X6990776Y5291851D01*
X6989911Y5289303D01*
X6988417Y5287066D01*
X6984404Y5277378D01*
X6983879Y5274739D01*
X6982689Y5272326D01*
X6979975Y5262197D01*
X6979799Y5259511D01*
X6978934Y5256964D01*
X6978391Y5252841D01*
X6970999Y5248932D01*
X6963608Y5252840D01*
X6963065Y5256965D01*
X6962200Y5259512D01*
X6962024Y5262196D01*
X6959310Y5272326D01*
X6958120Y5274739D01*
X6957596Y5277377D01*
X6953583Y5287066D01*
X6952088Y5289303D01*
X6951223Y5291851D01*
X6945979Y5300933D01*
X6944205Y5302956D01*
X6943015Y5305369D01*
X6936631Y5313689D01*
X6934609Y5315462D01*
X6933114Y5317700D01*
X6925699Y5325115D01*
X6923461Y5326610D01*
X6921688Y5328632D01*
X6913368Y5335016D01*
X6910956Y5336206D01*
X6908933Y5337980D01*
X6899850Y5343224D01*
X6897302Y5344089D01*
X6895065Y5345584D01*
X6885376Y5349597D01*
X6882738Y5350121D01*
X6880325Y5351311D01*
X6870196Y5354025D01*
X6867511Y5354201D01*
X6864964Y5355066D01*
X6854567Y5356435D01*
X6851881Y5356259D01*
X6849241Y5356784D01*
X6843997Y5356784D01*
X6838756D01*
X6836117Y5356259D01*
X6833432Y5356435D01*
X6823035Y5355066D01*
X6820488Y5354201D01*
X6817804Y5354025D01*
X6807675Y5351311D01*
X6805261Y5350121D01*
X6802622Y5349596D01*
X6792934Y5345583D01*
X6790696Y5344088D01*
X6788149Y5343224D01*
X6779067Y5337980D01*
X6777044Y5336206D01*
X6774631Y5335016D01*
X6766311Y5328632D01*
X6764538Y5326610D01*
X6762301Y5325115D01*
X6754885Y5317700D01*
X6753390Y5315462D01*
X6751368Y5313689D01*
X6744984Y5305369D01*
X6743794Y5302956D01*
X6742020Y5300933D01*
X6736776Y5291851D01*
X6735911Y5289303D01*
X6734417Y5287066D01*
X6730404Y5277378D01*
X6729879Y5274739D01*
X6728689Y5272326D01*
X6725975Y5262197D01*
X6725799Y5259511D01*
X6724934Y5256964D01*
X6723565Y5246567D01*
X6723741Y5243883D01*
X6723216Y5241244D01*
X6723216Y5010757D01*
X6723741Y5008118D01*
X6723565Y5005433D01*
X6724934Y4995035D01*
X6725799Y4992488D01*
X6725975Y4989804D01*
X6728689Y4979675D01*
X6729879Y4977262D01*
X6730403Y4974624D01*
X6734416Y4964935D01*
X6735911Y4962697D01*
X6736776Y4960150D01*
X6742020Y4951068D01*
X6743794Y4949044D01*
X6744984Y4946632D01*
X6751368Y4938312D01*
X6753390Y4936539D01*
X6754885Y4934301D01*
X6762300Y4926886D01*
X6764538Y4925391D01*
X6766311Y4923369D01*
X6774631Y4916985D01*
X6777043Y4915795D01*
X6779066Y4914021D01*
X6788149Y4908777D01*
X6790697Y4907912D01*
X6792934Y4906417D01*
X6802623Y4902404D01*
X6805261Y4901879D01*
X6807674Y4900690D01*
X6817803Y4897975D01*
X6820488Y4897799D01*
X6823035Y4896935D01*
X6833432Y4895566D01*
X6836117Y4895742D01*
X6838756Y4895217D01*
X6849243D01*
X6851882Y4895742D01*
X6854567Y4895566D01*
X6864964Y4896935D01*
X6867512Y4897799D01*
X6870196Y4897975D01*
X6880325Y4900690D01*
X6882738Y4901879D01*
X6885376Y4902404D01*
X6895065Y4906417D01*
X6897302Y4907912D01*
X6899850Y4908777D01*
X6908932Y4914021D01*
X6910955Y4915795D01*
X6913368Y4916985D01*
X6921688Y4923369D01*
X6923461Y4925391D01*
X6925699Y4926886D01*
X6933114Y4934301D01*
X6934609Y4936539D01*
X6936631Y4938312D01*
X6943015Y4946632D01*
X6944205Y4949044D01*
X6945979Y4951067D01*
X6951223Y4960150D01*
X6952088Y4962697D01*
X6953583Y4964935D01*
X6957596Y4974624D01*
X6958120Y4977262D01*
X6959310Y4979675D01*
X6962024Y4989804D01*
X6962200Y4992489D01*
X6963065Y4995036D01*
X6963608Y4999160D01*
X6971000Y5003068D01*
X6978391Y4999160D01*
X6978934Y4995035D01*
X6979799Y4992488D01*
X6979975Y4989804D01*
X6982689Y4979675D01*
X6983879Y4977262D01*
X6984403Y4974624D01*
X6988416Y4964935D01*
X6989911Y4962697D01*
X6990776Y4960150D01*
X6996020Y4951068D01*
X6997794Y4949044D01*
X6998984Y4946632D01*
X7005368Y4938312D01*
X7007390Y4936539D01*
X7008885Y4934301D01*
X7016300Y4926886D01*
X7018538Y4925391D01*
X7020311Y4923369D01*
X7028631Y4916985D01*
X7031043Y4915795D01*
X7033066Y4914021D01*
X7042149Y4908777D01*
X7044697Y4907912D01*
X7046934Y4906417D01*
X7056623Y4902404D01*
X7059261Y4901879D01*
X7061674Y4900690D01*
X7071803Y4897975D01*
X7074488Y4897799D01*
X7077035Y4896935D01*
X7087432Y4895566D01*
X7090117Y4895742D01*
X7092756Y4895217D01*
X7103243D01*
X7105882Y4895742D01*
X7108567Y4895566D01*
X7118964Y4896935D01*
X7121512Y4897799D01*
X7124196Y4897975D01*
X7134325Y4900690D01*
X7136738Y4901879D01*
X7139376Y4902404D01*
X7149065Y4906417D01*
X7151302Y4907912D01*
X7153850Y4908777D01*
X7162932Y4914021D01*
X7164955Y4915795D01*
X7167368Y4916985D01*
X7175688Y4923369D01*
X7177461Y4925391D01*
X7179699Y4926886D01*
X7187114Y4934301D01*
X7188609Y4936539D01*
X7190631Y4938312D01*
X7197015Y4946632D01*
X7198205Y4949044D01*
X7199979Y4951067D01*
X7205223Y4960150D01*
X7206088Y4962697D01*
X7207583Y4964935D01*
X7211596Y4974624D01*
X7212120Y4977262D01*
X7213310Y4979675D01*
X7216024Y4989804D01*
X7216200Y4992489D01*
X7217065Y4995036D01*
X7217608Y4999160D01*
X7225000Y5003068D01*
X7232391Y4999160D01*
X7232934Y4995035D01*
X7233799Y4992488D01*
X7233975Y4989804D01*
X7236689Y4979675D01*
X7237879Y4977262D01*
X7238403Y4974624D01*
X7242416Y4964935D01*
X7243911Y4962697D01*
X7244776Y4960150D01*
X7250020Y4951068D01*
X7251794Y4949044D01*
X7252984Y4946632D01*
X7259368Y4938312D01*
X7261390Y4936539D01*
X7262885Y4934301D01*
X7270300Y4926886D01*
X7272538Y4925391D01*
X7274311Y4923369D01*
X7282631Y4916985D01*
X7285043Y4915795D01*
X7287066Y4914021D01*
X7296149Y4908777D01*
X7298697Y4907912D01*
X7300934Y4906417D01*
X7310623Y4902404D01*
X7313261Y4901879D01*
X7315674Y4900690D01*
X7325803Y4897975D01*
X7328488Y4897799D01*
X7331035Y4896935D01*
X7341432Y4895566D01*
X7344117Y4895742D01*
X7346756Y4895217D01*
X7357243D01*
X7359882Y4895742D01*
X7362567Y4895566D01*
X7372964Y4896935D01*
X7375512Y4897799D01*
X7378196Y4897975D01*
X7388325Y4900690D01*
X7390738Y4901879D01*
X7393376Y4902404D01*
X7403065Y4906417D01*
X7405302Y4907912D01*
X7407850Y4908777D01*
X7416932Y4914021D01*
X7418955Y4915795D01*
X7421368Y4916985D01*
X7429688Y4923369D01*
X7431461Y4925391D01*
X7433699Y4926886D01*
X7441114Y4934301D01*
X7442609Y4936539D01*
X7444631Y4938312D01*
X7451015Y4946632D01*
X7452205Y4949044D01*
X7453979Y4951067D01*
X7459223Y4960150D01*
X7460088Y4962697D01*
X7461583Y4964935D01*
X7465596Y4974624D01*
X7466120Y4977262D01*
X7467310Y4979675D01*
X7470024Y4989804D01*
X7470200Y4992489D01*
X7471065Y4995036D01*
X7471608Y4999160D01*
X7479000Y5003068D01*
X7486391Y4999160D01*
X7486934Y4995035D01*
X7487799Y4992488D01*
X7487975Y4989804D01*
X7490689Y4979675D01*
X7491879Y4977262D01*
X7492403Y4974624D01*
X7496416Y4964935D01*
X7497911Y4962697D01*
X7498776Y4960150D01*
X7504020Y4951068D01*
X7505794Y4949044D01*
X7506984Y4946632D01*
X7513368Y4938312D01*
X7515390Y4936539D01*
X7516885Y4934301D01*
X7524300Y4926886D01*
X7526538Y4925391D01*
X7528311Y4923369D01*
X7536631Y4916985D01*
X7539043Y4915795D01*
X7541066Y4914021D01*
X7550149Y4908777D01*
X7552697Y4907912D01*
X7554934Y4906417D01*
X7564623Y4902404D01*
X7567261Y4901879D01*
X7569674Y4900690D01*
X7579803Y4897975D01*
X7582488Y4897799D01*
X7585035Y4896935D01*
X7595432Y4895566D01*
X7598117Y4895742D01*
X7600756Y4895217D01*
X7611243D01*
X7613882Y4895742D01*
X7616567Y4895566D01*
X7626964Y4896935D01*
X7629512Y4897799D01*
X7632196Y4897975D01*
X7642325Y4900690D01*
X7644738Y4901879D01*
X7647376Y4902404D01*
X7657065Y4906417D01*
X7659302Y4907912D01*
X7661850Y4908777D01*
X7670932Y4914021D01*
X7672955Y4915795D01*
X7675368Y4916985D01*
X7683688Y4923369D01*
X7685461Y4925391D01*
X7687699Y4926886D01*
X7695114Y4934301D01*
X7696609Y4936539D01*
X7698631Y4938312D01*
X7705015Y4946632D01*
X7706205Y4949044D01*
X7707979Y4951067D01*
X7713223Y4960150D01*
X7714088Y4962697D01*
X7715583Y4964935D01*
X7719596Y4974624D01*
X7720120Y4977262D01*
X7721310Y4979675D01*
X7724024Y4989804D01*
X7724200Y4992489D01*
X7725065Y4995036D01*
X7726434Y5005433D01*
X7726258Y5008118D01*
X7726783Y5010757D01*
Y5241244D01*
X7726258Y5243883D01*
X7726434Y5246568D01*
X7725065Y5256965D01*
X7724200Y5259512D01*
X7724024Y5262196D01*
X7721310Y5272326D01*
X7720120Y5274739D01*
X7719596Y5277377D01*
X7715583Y5287066D01*
X7714088Y5289303D01*
X7713223Y5291851D01*
X7707979Y5300933D01*
X7706205Y5302956D01*
X7705015Y5305369D01*
X7698631Y5313689D01*
X7696609Y5315462D01*
X7695114Y5317700D01*
X7687699Y5325115D01*
X7685461Y5326610D01*
X7683688Y5328632D01*
X7675368Y5335016D01*
X7672956Y5336206D01*
X7670933Y5337980D01*
X7661850Y5343224D01*
X7659302Y5344089D01*
X7657065Y5345584D01*
X7647376Y5349597D01*
X7644738Y5350121D01*
X7642325Y5351311D01*
X7632196Y5354025D01*
X7629511Y5354201D01*
X7626964Y5355066D01*
X7616567Y5356435D01*
X7613881Y5356259D01*
X7611241Y5356784D01*
D02*
G37*
G36*
X6341241D02*
X6335997Y5356784D01*
X6330756D01*
X6328117Y5356259D01*
X6325432Y5356435D01*
X6315035Y5355066D01*
X6312488Y5354201D01*
X6309804Y5354025D01*
X6299675Y5351311D01*
X6297261Y5350121D01*
X6294622Y5349596D01*
X6284934Y5345583D01*
X6282696Y5344088D01*
X6280149Y5343224D01*
X6271067Y5337980D01*
X6269044Y5336206D01*
X6266631Y5335016D01*
X6258311Y5328632D01*
X6256538Y5326610D01*
X6254301Y5325115D01*
X6246885Y5317700D01*
X6245390Y5315462D01*
X6243368Y5313689D01*
X6236984Y5305369D01*
X6235794Y5302956D01*
X6234020Y5300933D01*
X6228776Y5291851D01*
X6227911Y5289303D01*
X6226417Y5287066D01*
X6222404Y5277378D01*
X6221879Y5274739D01*
X6220689Y5272326D01*
X6217975Y5262197D01*
X6217799Y5259511D01*
X6216934Y5256964D01*
X6216391Y5252841D01*
X6208999Y5248932D01*
X6201608Y5252840D01*
X6201065Y5256965D01*
X6200200Y5259512D01*
X6200024Y5262196D01*
X6197310Y5272326D01*
X6196120Y5274739D01*
X6195596Y5277377D01*
X6191583Y5287066D01*
X6190088Y5289303D01*
X6189223Y5291851D01*
X6183979Y5300933D01*
X6182205Y5302956D01*
X6181015Y5305369D01*
X6174631Y5313689D01*
X6172609Y5315462D01*
X6171114Y5317700D01*
X6163699Y5325115D01*
X6161461Y5326610D01*
X6159688Y5328632D01*
X6151368Y5335016D01*
X6148956Y5336206D01*
X6146933Y5337980D01*
X6137850Y5343224D01*
X6135302Y5344089D01*
X6133065Y5345584D01*
X6123376Y5349597D01*
X6120738Y5350121D01*
X6118325Y5351311D01*
X6108196Y5354025D01*
X6105511Y5354201D01*
X6102964Y5355066D01*
X6092567Y5356435D01*
X6089881Y5356259D01*
X6087241Y5356784D01*
X6081997Y5356784D01*
X6076756D01*
X6074117Y5356259D01*
X6071432Y5356435D01*
X6061035Y5355066D01*
X6058488Y5354201D01*
X6055804Y5354025D01*
X6045675Y5351311D01*
X6043261Y5350121D01*
X6040622Y5349596D01*
X6030934Y5345583D01*
X6028696Y5344088D01*
X6026149Y5343224D01*
X6017067Y5337980D01*
X6015044Y5336206D01*
X6012631Y5335016D01*
X6004311Y5328632D01*
X6002538Y5326610D01*
X6000301Y5325115D01*
X5992885Y5317700D01*
X5991390Y5315462D01*
X5989368Y5313689D01*
X5982984Y5305369D01*
X5981794Y5302956D01*
X5980020Y5300933D01*
X5974776Y5291851D01*
X5973911Y5289303D01*
X5972417Y5287066D01*
X5968404Y5277378D01*
X5967879Y5274739D01*
X5966689Y5272326D01*
X5963975Y5262197D01*
X5963799Y5259511D01*
X5962934Y5256964D01*
X5962391Y5252841D01*
X5954999Y5248932D01*
X5947608Y5252840D01*
X5947065Y5256965D01*
X5946200Y5259512D01*
X5946024Y5262196D01*
X5943310Y5272326D01*
X5942120Y5274739D01*
X5941596Y5277377D01*
X5937583Y5287066D01*
X5936088Y5289303D01*
X5935223Y5291851D01*
X5929979Y5300933D01*
X5928205Y5302956D01*
X5927015Y5305369D01*
X5920631Y5313689D01*
X5918609Y5315462D01*
X5917114Y5317700D01*
X5909699Y5325115D01*
X5907461Y5326610D01*
X5905688Y5328632D01*
X5897368Y5335016D01*
X5894956Y5336206D01*
X5892933Y5337980D01*
X5883850Y5343224D01*
X5881302Y5344089D01*
X5879065Y5345584D01*
X5869376Y5349597D01*
X5866738Y5350121D01*
X5864325Y5351311D01*
X5854196Y5354025D01*
X5851511Y5354201D01*
X5848964Y5355066D01*
X5838567Y5356435D01*
X5835881Y5356259D01*
X5833241Y5356784D01*
X5827997Y5356784D01*
X5822756D01*
X5820117Y5356259D01*
X5817432Y5356435D01*
X5807035Y5355066D01*
X5804488Y5354201D01*
X5801804Y5354025D01*
X5791675Y5351311D01*
X5789261Y5350121D01*
X5786622Y5349596D01*
X5776934Y5345583D01*
X5774696Y5344088D01*
X5772149Y5343224D01*
X5763067Y5337980D01*
X5761044Y5336206D01*
X5758631Y5335016D01*
X5750311Y5328632D01*
X5748538Y5326610D01*
X5746301Y5325115D01*
X5738885Y5317700D01*
X5737390Y5315462D01*
X5735368Y5313689D01*
X5728984Y5305369D01*
X5727794Y5302956D01*
X5726020Y5300933D01*
X5720776Y5291851D01*
X5719911Y5289303D01*
X5718417Y5287066D01*
X5714404Y5277378D01*
X5713879Y5274739D01*
X5712689Y5272326D01*
X5709975Y5262197D01*
X5709799Y5259511D01*
X5708934Y5256964D01*
X5708391Y5252841D01*
X5700999Y5248932D01*
X5693608Y5252840D01*
X5693065Y5256965D01*
X5692200Y5259512D01*
X5692024Y5262196D01*
X5689310Y5272326D01*
X5688120Y5274739D01*
X5687596Y5277377D01*
X5683583Y5287066D01*
X5682088Y5289303D01*
X5681223Y5291851D01*
X5675979Y5300933D01*
X5674205Y5302956D01*
X5673015Y5305369D01*
X5666631Y5313689D01*
X5664609Y5315462D01*
X5663114Y5317700D01*
X5655699Y5325115D01*
X5653461Y5326610D01*
X5651688Y5328632D01*
X5643368Y5335016D01*
X5640956Y5336206D01*
X5638933Y5337980D01*
X5629850Y5343224D01*
X5627302Y5344089D01*
X5625065Y5345584D01*
X5615376Y5349597D01*
X5612738Y5350121D01*
X5610325Y5351311D01*
X5600196Y5354025D01*
X5597511Y5354201D01*
X5594964Y5355066D01*
X5584567Y5356435D01*
X5581881Y5356259D01*
X5579241Y5356784D01*
X5573997Y5356784D01*
X5568756D01*
X5566117Y5356259D01*
X5563432Y5356435D01*
X5553035Y5355066D01*
X5550488Y5354201D01*
X5547804Y5354025D01*
X5537675Y5351311D01*
X5535261Y5350121D01*
X5532622Y5349596D01*
X5522934Y5345583D01*
X5520696Y5344088D01*
X5518149Y5343224D01*
X5509067Y5337980D01*
X5507044Y5336206D01*
X5504631Y5335016D01*
X5496311Y5328632D01*
X5494538Y5326610D01*
X5492301Y5325115D01*
X5484885Y5317700D01*
X5483390Y5315462D01*
X5481368Y5313689D01*
X5474984Y5305369D01*
X5473794Y5302956D01*
X5472020Y5300933D01*
X5466776Y5291851D01*
X5465911Y5289303D01*
X5464417Y5287066D01*
X5460404Y5277378D01*
X5459879Y5274739D01*
X5458689Y5272326D01*
X5455975Y5262197D01*
X5455799Y5259511D01*
X5454934Y5256964D01*
X5453565Y5246567D01*
X5453741Y5243883D01*
X5453216Y5241244D01*
X5453216Y5010757D01*
X5453741Y5008118D01*
X5453565Y5005433D01*
X5454934Y4995035D01*
X5455799Y4992488D01*
X5455975Y4989804D01*
X5458689Y4979675D01*
X5459879Y4977262D01*
X5460403Y4974624D01*
X5464416Y4964935D01*
X5465911Y4962697D01*
X5466776Y4960150D01*
X5472020Y4951068D01*
X5473794Y4949044D01*
X5474984Y4946632D01*
X5481368Y4938312D01*
X5483390Y4936539D01*
X5484885Y4934301D01*
X5492300Y4926886D01*
X5494538Y4925391D01*
X5496311Y4923369D01*
X5504631Y4916985D01*
X5507043Y4915795D01*
X5509066Y4914021D01*
X5518149Y4908777D01*
X5520697Y4907912D01*
X5522934Y4906417D01*
X5532623Y4902404D01*
X5535261Y4901879D01*
X5537674Y4900690D01*
X5547803Y4897975D01*
X5550488Y4897799D01*
X5553035Y4896935D01*
X5563432Y4895566D01*
X5566117Y4895742D01*
X5568756Y4895217D01*
X5579243D01*
X5581882Y4895742D01*
X5584567Y4895566D01*
X5594964Y4896935D01*
X5597512Y4897799D01*
X5600196Y4897975D01*
X5610325Y4900690D01*
X5612738Y4901879D01*
X5615376Y4902404D01*
X5625065Y4906417D01*
X5627302Y4907912D01*
X5629850Y4908777D01*
X5638932Y4914021D01*
X5640955Y4915795D01*
X5643368Y4916985D01*
X5651688Y4923369D01*
X5653461Y4925391D01*
X5655699Y4926886D01*
X5663114Y4934301D01*
X5664609Y4936539D01*
X5666631Y4938312D01*
X5673015Y4946632D01*
X5674205Y4949044D01*
X5675979Y4951067D01*
X5681223Y4960150D01*
X5682088Y4962697D01*
X5683583Y4964935D01*
X5687596Y4974624D01*
X5688120Y4977262D01*
X5689310Y4979675D01*
X5692024Y4989804D01*
X5692200Y4992489D01*
X5693065Y4995036D01*
X5693608Y4999160D01*
X5701000Y5003068D01*
X5708391Y4999160D01*
X5708934Y4995035D01*
X5709799Y4992488D01*
X5709975Y4989804D01*
X5712689Y4979675D01*
X5713879Y4977262D01*
X5714403Y4974624D01*
X5718416Y4964935D01*
X5719911Y4962697D01*
X5720776Y4960150D01*
X5726020Y4951068D01*
X5727794Y4949044D01*
X5728984Y4946632D01*
X5735368Y4938312D01*
X5737390Y4936539D01*
X5738885Y4934301D01*
X5746300Y4926886D01*
X5748538Y4925391D01*
X5750311Y4923369D01*
X5758631Y4916985D01*
X5761043Y4915795D01*
X5763066Y4914021D01*
X5772149Y4908777D01*
X5774697Y4907912D01*
X5776934Y4906417D01*
X5786623Y4902404D01*
X5789261Y4901879D01*
X5791674Y4900690D01*
X5801803Y4897975D01*
X5804488Y4897799D01*
X5807035Y4896935D01*
X5817432Y4895566D01*
X5820117Y4895742D01*
X5822756Y4895217D01*
X5833243D01*
X5835882Y4895742D01*
X5838567Y4895566D01*
X5848964Y4896935D01*
X5851512Y4897799D01*
X5854196Y4897975D01*
X5864325Y4900690D01*
X5866738Y4901879D01*
X5869376Y4902404D01*
X5879065Y4906417D01*
X5881302Y4907912D01*
X5883850Y4908777D01*
X5892932Y4914021D01*
X5894955Y4915795D01*
X5897368Y4916985D01*
X5905688Y4923369D01*
X5907461Y4925391D01*
X5909699Y4926886D01*
X5917114Y4934301D01*
X5918609Y4936539D01*
X5920631Y4938312D01*
X5927015Y4946632D01*
X5928205Y4949044D01*
X5929979Y4951067D01*
X5935223Y4960150D01*
X5936088Y4962697D01*
X5937583Y4964935D01*
X5941596Y4974624D01*
X5942120Y4977262D01*
X5943310Y4979675D01*
X5946024Y4989804D01*
X5946200Y4992489D01*
X5947065Y4995036D01*
X5947608Y4999160D01*
X5955000Y5003068D01*
X5962391Y4999160D01*
X5962934Y4995035D01*
X5963799Y4992488D01*
X5963975Y4989804D01*
X5966689Y4979675D01*
X5967879Y4977262D01*
X5968403Y4974624D01*
X5972416Y4964935D01*
X5973911Y4962697D01*
X5974776Y4960150D01*
X5980020Y4951068D01*
X5981794Y4949044D01*
X5982984Y4946632D01*
X5989368Y4938312D01*
X5991390Y4936539D01*
X5992885Y4934301D01*
X6000300Y4926886D01*
X6002538Y4925391D01*
X6004311Y4923369D01*
X6012631Y4916985D01*
X6015043Y4915795D01*
X6017066Y4914021D01*
X6026149Y4908777D01*
X6028697Y4907912D01*
X6030934Y4906417D01*
X6040623Y4902404D01*
X6043261Y4901879D01*
X6045674Y4900690D01*
X6055803Y4897975D01*
X6058488Y4897799D01*
X6061035Y4896935D01*
X6071432Y4895566D01*
X6074117Y4895742D01*
X6076756Y4895217D01*
X6087243D01*
X6089882Y4895742D01*
X6092567Y4895566D01*
X6102964Y4896935D01*
X6105512Y4897799D01*
X6108196Y4897975D01*
X6118325Y4900690D01*
X6120738Y4901879D01*
X6123376Y4902404D01*
X6133065Y4906417D01*
X6135302Y4907912D01*
X6137850Y4908777D01*
X6146932Y4914021D01*
X6148955Y4915795D01*
X6151368Y4916985D01*
X6159688Y4923369D01*
X6161461Y4925391D01*
X6163699Y4926886D01*
X6171114Y4934301D01*
X6172609Y4936539D01*
X6174631Y4938312D01*
X6181015Y4946632D01*
X6182205Y4949044D01*
X6183979Y4951067D01*
X6189223Y4960150D01*
X6190088Y4962697D01*
X6191583Y4964935D01*
X6195596Y4974624D01*
X6196120Y4977262D01*
X6197310Y4979675D01*
X6200024Y4989804D01*
X6200200Y4992489D01*
X6201065Y4995036D01*
X6201608Y4999160D01*
X6209000Y5003068D01*
X6216391Y4999160D01*
X6216934Y4995035D01*
X6217799Y4992488D01*
X6217975Y4989804D01*
X6220689Y4979675D01*
X6221879Y4977262D01*
X6222403Y4974624D01*
X6226416Y4964935D01*
X6227911Y4962697D01*
X6228776Y4960150D01*
X6234020Y4951068D01*
X6235794Y4949044D01*
X6236984Y4946632D01*
X6243368Y4938312D01*
X6245390Y4936539D01*
X6246885Y4934301D01*
X6254300Y4926886D01*
X6256538Y4925391D01*
X6258311Y4923369D01*
X6266631Y4916985D01*
X6269043Y4915795D01*
X6271066Y4914021D01*
X6280149Y4908777D01*
X6282697Y4907912D01*
X6284934Y4906417D01*
X6294623Y4902404D01*
X6297261Y4901879D01*
X6299674Y4900690D01*
X6309803Y4897975D01*
X6312488Y4897799D01*
X6315035Y4896935D01*
X6325432Y4895566D01*
X6328117Y4895742D01*
X6330756Y4895217D01*
X6341243D01*
X6343882Y4895742D01*
X6346567Y4895566D01*
X6356964Y4896935D01*
X6359512Y4897799D01*
X6362196Y4897975D01*
X6372325Y4900690D01*
X6374738Y4901879D01*
X6377376Y4902404D01*
X6387065Y4906417D01*
X6389302Y4907912D01*
X6391850Y4908777D01*
X6400932Y4914021D01*
X6402955Y4915795D01*
X6405368Y4916985D01*
X6413688Y4923369D01*
X6415461Y4925391D01*
X6417699Y4926886D01*
X6425114Y4934301D01*
X6426609Y4936539D01*
X6428631Y4938312D01*
X6435015Y4946632D01*
X6436205Y4949044D01*
X6437979Y4951067D01*
X6443223Y4960150D01*
X6444088Y4962697D01*
X6445583Y4964935D01*
X6449596Y4974624D01*
X6450120Y4977262D01*
X6451310Y4979675D01*
X6454024Y4989804D01*
X6454200Y4992489D01*
X6455065Y4995036D01*
X6456434Y5005433D01*
X6456258Y5008118D01*
X6456783Y5010757D01*
Y5241244D01*
X6456258Y5243883D01*
X6456434Y5246568D01*
X6455065Y5256965D01*
X6454200Y5259512D01*
X6454024Y5262196D01*
X6451310Y5272326D01*
X6450120Y5274739D01*
X6449596Y5277377D01*
X6445583Y5287066D01*
X6444088Y5289303D01*
X6443223Y5291851D01*
X6437979Y5300933D01*
X6436205Y5302956D01*
X6435015Y5305369D01*
X6428631Y5313689D01*
X6426609Y5315462D01*
X6425114Y5317700D01*
X6417699Y5325115D01*
X6415461Y5326610D01*
X6413688Y5328632D01*
X6405368Y5335016D01*
X6402956Y5336206D01*
X6400933Y5337980D01*
X6391850Y5343224D01*
X6389302Y5344089D01*
X6387065Y5345584D01*
X6377376Y5349597D01*
X6374738Y5350121D01*
X6372325Y5351311D01*
X6362196Y5354025D01*
X6359511Y5354201D01*
X6356964Y5355066D01*
X6346567Y5356435D01*
X6343881Y5356259D01*
X6341241Y5356784D01*
D02*
G37*
G36*
X9210000Y5341898D02*
X9155000D01*
Y5261001D01*
X9235897D01*
Y5316001D01*
X9233926Y5325911D01*
X9228312Y5334313D01*
X9219910Y5339927D01*
X9210000Y5341898D01*
D02*
G37*
G36*
X7940000D02*
X7885000D01*
Y5261001D01*
X7965897D01*
Y5316001D01*
X7963926Y5325911D01*
X7958312Y5334313D01*
X7949910Y5339927D01*
X7940000Y5341898D01*
D02*
G37*
G36*
X6670000D02*
X6615000D01*
Y5261001D01*
X6695897D01*
Y5316001D01*
X6693926Y5325911D01*
X6688312Y5334313D01*
X6679910Y5339927D01*
X6670000Y5341898D01*
D02*
G37*
G36*
X5400000D02*
X5345000D01*
Y5261001D01*
X5425897D01*
Y5316001D01*
X5423926Y5325911D01*
X5418312Y5334313D01*
X5409910Y5339927D01*
X5400000Y5341898D01*
D02*
G37*
G36*
X7835000D02*
X7779999D01*
X7770089Y5339927D01*
X7761687Y5334313D01*
X7756073Y5325911D01*
X7754102Y5316001D01*
Y5261001D01*
X7835000D01*
Y5341898D01*
D02*
G37*
G36*
X6565000D02*
X6509999D01*
X6500089Y5339927D01*
X6491687Y5334313D01*
X6486073Y5325911D01*
X6484102Y5316001D01*
Y5261001D01*
X6565000D01*
Y5341898D01*
D02*
G37*
G36*
X5295000D02*
X5239999D01*
X5230089Y5339927D01*
X5221687Y5334313D01*
X5216073Y5325911D01*
X5214102Y5316001D01*
Y5261001D01*
X5295000D01*
Y5341898D01*
D02*
G37*
G36*
X990798Y5395000D02*
X959202D01*
X928682Y5386822D01*
X901318Y5371024D01*
X878976Y5348682D01*
X863178Y5321318D01*
X855000Y5290798D01*
Y5259202D01*
X863178Y5228682D01*
X878976Y5201319D01*
X901318Y5178976D01*
X928682Y5163178D01*
X959202Y5155000D01*
X990798D01*
X1021318Y5163178D01*
X1048681Y5178976D01*
X1071024Y5201319D01*
X1086822Y5228682D01*
X1095000Y5259202D01*
Y5290798D01*
X1086822Y5321318D01*
X1071024Y5348682D01*
X1048681Y5371024D01*
X1021318Y5386822D01*
X990798Y5395000D01*
D02*
G37*
G36*
X690798D02*
X659202D01*
X628682Y5386822D01*
X601318Y5371024D01*
X578976Y5348682D01*
X563178Y5321318D01*
X555000Y5290798D01*
Y5259202D01*
X563178Y5228682D01*
X578976Y5201319D01*
X601318Y5178976D01*
X628682Y5163178D01*
X659202Y5155000D01*
X690798D01*
X721318Y5163178D01*
X748682Y5178976D01*
X771024Y5201319D01*
X786822Y5228682D01*
X795000Y5259202D01*
Y5290798D01*
X786822Y5321318D01*
X771024Y5348682D01*
X748682Y5371024D01*
X721318Y5386822D01*
X690798Y5395000D01*
D02*
G37*
G36*
X275213Y5379000D02*
X237786D01*
X201079Y5371698D01*
X166501Y5357376D01*
X135382Y5336582D01*
X108917Y5310118D01*
X88124Y5278999D01*
X73802Y5244421D01*
X66500Y5207713D01*
Y5170287D01*
X73802Y5133579D01*
X88124Y5099001D01*
X108917Y5067882D01*
X135382Y5041418D01*
X166501Y5020624D01*
X201079Y5006302D01*
X237786Y4999000D01*
X275213D01*
X311921Y5006302D01*
X346498Y5020624D01*
X377618Y5041418D01*
X404082Y5067882D01*
X424875Y5099001D01*
X439198Y5133579D01*
X446500Y5170287D01*
Y5207713D01*
X439198Y5244421D01*
X424875Y5278999D01*
X404082Y5310118D01*
X377618Y5336582D01*
X346498Y5357376D01*
X311921Y5371698D01*
X275213Y5379000D01*
D02*
G37*
G36*
X7965897Y5211001D02*
X7885000D01*
Y4910103D01*
X7940000D01*
X7949910Y4912074D01*
X7958312Y4917688D01*
X7963926Y4926090D01*
X7965897Y4936001D01*
Y5211001D01*
D02*
G37*
G36*
X7835000D02*
X7754102D01*
Y4936001D01*
X7756073Y4926090D01*
X7761687Y4917688D01*
X7770089Y4912074D01*
X7779999Y4910103D01*
X7835000D01*
Y5211001D01*
D02*
G37*
G36*
X6695897D02*
X6615000D01*
Y4910103D01*
X6670000D01*
X6679910Y4912074D01*
X6688312Y4917688D01*
X6693926Y4926090D01*
X6695897Y4936001D01*
Y5211001D01*
D02*
G37*
G36*
X6565000D02*
X6484102D01*
Y4936001D01*
X6486073Y4926090D01*
X6491687Y4917688D01*
X6500089Y4912074D01*
X6509999Y4910103D01*
X6565000D01*
Y5211001D01*
D02*
G37*
G36*
X5425897D02*
X5345000D01*
Y4910103D01*
X5400000D01*
X5409910Y4912074D01*
X5418312Y4917688D01*
X5423926Y4926090D01*
X5425897Y4936001D01*
Y5211001D01*
D02*
G37*
G36*
X5295000D02*
X5214102D01*
Y4936001D01*
X5216073Y4926090D01*
X5221687Y4917688D01*
X5230089Y4912074D01*
X5239999Y4910103D01*
X5295000D01*
Y5211001D01*
D02*
G37*
G36*
X990798Y5095000D02*
X959202D01*
X928682Y5086822D01*
X901318Y5071024D01*
X878976Y5048682D01*
X863178Y5021318D01*
X855000Y4990799D01*
Y4959202D01*
X863178Y4928682D01*
X878976Y4901319D01*
X901318Y4878977D01*
X928682Y4863178D01*
X959202Y4855000D01*
X990798D01*
X1021318Y4863178D01*
X1048681Y4878977D01*
X1071024Y4901319D01*
X1086822Y4928682D01*
X1095000Y4959202D01*
Y4990799D01*
X1086822Y5021318D01*
X1071024Y5048682D01*
X1048681Y5071024D01*
X1021318Y5086822D01*
X990798Y5095000D01*
D02*
G37*
G36*
X690798D02*
X659202D01*
X628682Y5086822D01*
X601318Y5071024D01*
X578976Y5048682D01*
X563178Y5021318D01*
X555000Y4990799D01*
Y4959202D01*
X563178Y4928682D01*
X578976Y4901319D01*
X601318Y4878977D01*
X628682Y4863178D01*
X659202Y4855000D01*
X690798D01*
X721318Y4863178D01*
X748682Y4878977D01*
X771024Y4901319D01*
X786822Y4928682D01*
X795000Y4959202D01*
Y4990799D01*
X786822Y5021318D01*
X771024Y5048682D01*
X748682Y5071024D01*
X721318Y5086822D01*
X690798Y5095000D01*
D02*
G37*
G36*
X692500Y4612837D02*
Y4552500D01*
X752837D01*
X750342Y4561814D01*
X738638Y4582086D01*
X722086Y4598638D01*
X701814Y4610342D01*
X692500Y4612837D01*
D02*
G37*
G36*
X642500D02*
X633186Y4610342D01*
X612914Y4598638D01*
X596362Y4582086D01*
X584658Y4561814D01*
X582163Y4552500D01*
X642500D01*
Y4612837D01*
D02*
G37*
G36*
X752837Y4502500D02*
X692500D01*
Y4442163D01*
X701814Y4444658D01*
X722086Y4456362D01*
X738638Y4472914D01*
X750342Y4493186D01*
X752837Y4502500D01*
D02*
G37*
G36*
X642500D02*
X582163D01*
X584658Y4493186D01*
X596362Y4472914D01*
X612914Y4456362D01*
X633186Y4444658D01*
X642500Y4442163D01*
Y4502500D01*
D02*
G37*
G36*
X4850000Y4260919D02*
Y4183500D01*
X4927419D01*
X4923217Y4199183D01*
X4909341Y4223217D01*
X4889717Y4242841D01*
X4865683Y4256717D01*
X4850000Y4260919D01*
D02*
G37*
G36*
X4800001Y4260919D02*
X4784317Y4256717D01*
X4760283Y4242841D01*
X4740659Y4223217D01*
X4726783Y4199183D01*
X4722581Y4183500D01*
X4800001D01*
Y4260919D01*
D02*
G37*
G36*
X1105000Y4175337D02*
Y4115000D01*
X1165338D01*
X1162842Y4124314D01*
X1151138Y4144586D01*
X1134586Y4161138D01*
X1114314Y4172842D01*
X1105000Y4175337D01*
D02*
G37*
G36*
X1055000D02*
X1045686Y4172842D01*
X1025414Y4161138D01*
X1008862Y4144586D01*
X997159Y4124314D01*
X994663Y4115000D01*
X1055000D01*
Y4175337D01*
D02*
G37*
G36*
X4927419Y4133500D02*
X4850000D01*
Y4056081D01*
X4865683Y4060283D01*
X4889717Y4074159D01*
X4909341Y4093783D01*
X4923217Y4117817D01*
X4927419Y4133500D01*
D02*
G37*
G36*
X4800001D02*
X4722581D01*
X4726783Y4117817D01*
X4740659Y4093783D01*
X4760283Y4074159D01*
X4784317Y4060283D01*
X4800001Y4056081D01*
Y4133500D01*
D02*
G37*
G36*
X1165338Y4065000D02*
X1105000D01*
Y4004663D01*
X1114314Y4007158D01*
X1134586Y4018862D01*
X1151138Y4035414D01*
X1162842Y4055686D01*
X1165338Y4065000D01*
D02*
G37*
G36*
X1055000D02*
X994663D01*
X997159Y4055686D01*
X1008862Y4035414D01*
X1025414Y4018862D01*
X1045686Y4007158D01*
X1055000Y4004663D01*
Y4065000D01*
D02*
G37*
G36*
X4850000Y4006919D02*
Y3929500D01*
X4927419D01*
X4923217Y3945183D01*
X4909341Y3969217D01*
X4889717Y3988841D01*
X4865683Y4002717D01*
X4850000Y4006919D01*
D02*
G37*
G36*
X3179366Y3936979D02*
Y3876641D01*
X3239703D01*
X3237207Y3885955D01*
X3225504Y3906227D01*
X3208952Y3922779D01*
X3188680Y3934483D01*
X3179366Y3936979D01*
D02*
G37*
G36*
X3129366D02*
X3120052Y3934483D01*
X3099780Y3922779D01*
X3083228Y3906227D01*
X3071524Y3885955D01*
X3069028Y3876641D01*
X3129366D01*
Y3936979D01*
D02*
G37*
G36*
X780400Y3930400D02*
X700000D01*
Y3850000D01*
X780400D01*
Y3930400D01*
D02*
G37*
G36*
X650000D02*
X569600D01*
Y3850000D01*
X650000D01*
Y3930400D01*
D02*
G37*
G36*
X3239703Y3826641D02*
X3179366D01*
Y3766304D01*
X3188680Y3768800D01*
X3208952Y3780503D01*
X3225504Y3797055D01*
X3237207Y3817327D01*
X3239703Y3826641D01*
D02*
G37*
G36*
X3129366D02*
X3069028D01*
X3071524Y3817327D01*
X3083228Y3797055D01*
X3099780Y3780503D01*
X3120052Y3768800D01*
X3129366Y3766304D01*
Y3826641D01*
D02*
G37*
G36*
X780400Y3800000D02*
X700000D01*
Y3719600D01*
X780400D01*
Y3800000D01*
D02*
G37*
G36*
X650000D02*
X569600D01*
Y3719600D01*
X650000D01*
Y3800000D01*
D02*
G37*
G36*
X990798Y3944999D02*
X959202D01*
X928682Y3936822D01*
X901318Y3921023D01*
X878976Y3898681D01*
X863178Y3871318D01*
X855000Y3840798D01*
Y3809201D01*
X863178Y3778682D01*
X878976Y3751318D01*
X901318Y3728976D01*
X928682Y3713178D01*
X959202Y3705000D01*
X990798D01*
X1021318Y3713178D01*
X1048681Y3728976D01*
X1071024Y3751318D01*
X1086822Y3778682D01*
X1095000Y3809201D01*
Y3840798D01*
X1086822Y3871318D01*
X1071024Y3898681D01*
X1048681Y3921023D01*
X1021318Y3936822D01*
X990798Y3944999D01*
D02*
G37*
G36*
X275214Y3799000D02*
X237787D01*
X201079Y3791698D01*
X166502Y3777375D01*
X135382Y3756582D01*
X108918Y3730118D01*
X88125Y3698998D01*
X73802Y3664420D01*
X66500Y3627713D01*
Y3590286D01*
X73802Y3553579D01*
X88125Y3519001D01*
X108918Y3487882D01*
X135382Y3461417D01*
X166502Y3440624D01*
X201079Y3426302D01*
X237787Y3419000D01*
X275214D01*
X311921Y3426302D01*
X346499Y3440624D01*
X377618Y3461417D01*
X404083Y3487882D01*
X424876Y3519001D01*
X439198Y3553579D01*
X446500Y3590286D01*
Y3627713D01*
X439198Y3664420D01*
X424876Y3698998D01*
X404083Y3730118D01*
X377618Y3756582D01*
X346499Y3777375D01*
X311921Y3791698D01*
X275214Y3799000D01*
D02*
G37*
G36*
X990798Y3645000D02*
X959202D01*
X928682Y3636822D01*
X901318Y3621023D01*
X878976Y3598681D01*
X863178Y3571318D01*
X855000Y3540798D01*
Y3509202D01*
X863178Y3478682D01*
X878976Y3451318D01*
X901318Y3428976D01*
X928682Y3413178D01*
X959202Y3405000D01*
X990798D01*
X1021318Y3413178D01*
X1048681Y3428976D01*
X1071024Y3451318D01*
X1086822Y3478682D01*
X1095000Y3509202D01*
Y3540798D01*
X1086822Y3571318D01*
X1071024Y3598681D01*
X1048681Y3621023D01*
X1021318Y3636822D01*
X990798Y3645000D01*
D02*
G37*
G36*
X690798D02*
X659202D01*
X628682Y3636822D01*
X601318Y3621023D01*
X578976Y3598681D01*
X563178Y3571318D01*
X555000Y3540798D01*
Y3509202D01*
X563178Y3478682D01*
X578976Y3451318D01*
X601318Y3428976D01*
X628682Y3413178D01*
X659202Y3405000D01*
X690798D01*
X721318Y3413178D01*
X748682Y3428976D01*
X771024Y3451318D01*
X786822Y3478682D01*
X795000Y3509202D01*
Y3540798D01*
X786822Y3571318D01*
X771024Y3598681D01*
X748682Y3621023D01*
X721318Y3636822D01*
X690798Y3645000D01*
D02*
G37*
G36*
X7285000Y3452837D02*
Y3392500D01*
X7345337D01*
X7342842Y3401814D01*
X7331138Y3422086D01*
X7314586Y3438638D01*
X7294314Y3450342D01*
X7285000Y3452837D01*
D02*
G37*
G36*
X7235000D02*
X7225686Y3450342D01*
X7205414Y3438638D01*
X7188862Y3422086D01*
X7177158Y3401814D01*
X7174663Y3392500D01*
X7235000D01*
Y3452837D01*
D02*
G37*
G36*
X3860200Y3445537D02*
Y3385200D01*
X3920537D01*
X3918042Y3394514D01*
X3906338Y3414786D01*
X3889786Y3431338D01*
X3869514Y3443042D01*
X3860200Y3445537D01*
D02*
G37*
G36*
X3810200D02*
X3800886Y3443042D01*
X3780614Y3431338D01*
X3764062Y3414786D01*
X3752359Y3394514D01*
X3749863Y3385200D01*
X3810200D01*
Y3445537D01*
D02*
G37*
G36*
X5590000Y3445337D02*
Y3385000D01*
X5650337D01*
X5647842Y3394314D01*
X5636138Y3414586D01*
X5619586Y3431138D01*
X5599314Y3442841D01*
X5590000Y3445337D01*
D02*
G37*
G36*
X5540000D02*
X5530686Y3442841D01*
X5510414Y3431138D01*
X5493862Y3414586D01*
X5482158Y3394314D01*
X5479663Y3385000D01*
X5540000D01*
Y3445337D01*
D02*
G37*
G36*
X7345337Y3342500D02*
X7285000D01*
Y3282163D01*
X7294314Y3284658D01*
X7314586Y3296362D01*
X7331138Y3312914D01*
X7342842Y3333186D01*
X7345337Y3342500D01*
D02*
G37*
G36*
X7235000D02*
X7174663D01*
X7177158Y3333186D01*
X7188862Y3312914D01*
X7205414Y3296362D01*
X7225686Y3284658D01*
X7235000Y3282163D01*
Y3342500D01*
D02*
G37*
G36*
X3920537Y3335200D02*
X3860200D01*
Y3274863D01*
X3869514Y3277358D01*
X3889786Y3289062D01*
X3906338Y3305614D01*
X3918042Y3325886D01*
X3920537Y3335200D01*
D02*
G37*
G36*
X3810200D02*
X3749863D01*
X3752359Y3325886D01*
X3764062Y3305614D01*
X3780614Y3289062D01*
X3800886Y3277358D01*
X3810200Y3274863D01*
Y3335200D01*
D02*
G37*
G36*
X5650337Y3335000D02*
X5590000D01*
Y3274662D01*
X5599314Y3277158D01*
X5619586Y3288862D01*
X5636138Y3305414D01*
X5647842Y3325686D01*
X5650337Y3335000D01*
D02*
G37*
G36*
X5540000D02*
X5479663D01*
X5482158Y3325686D01*
X5493862Y3305414D01*
X5510414Y3288862D01*
X5530686Y3277158D01*
X5540000Y3274662D01*
Y3335000D01*
D02*
G37*
G36*
X990798Y3344999D02*
X959202D01*
X928682Y3336822D01*
X901318Y3321023D01*
X878976Y3298681D01*
X863178Y3271318D01*
X855000Y3240798D01*
Y3209201D01*
X863178Y3178681D01*
X878976Y3151318D01*
X901318Y3128976D01*
X928682Y3113178D01*
X959202Y3105000D01*
X990798D01*
X1021318Y3113178D01*
X1048681Y3128976D01*
X1071024Y3151318D01*
X1086822Y3178681D01*
X1095000Y3209201D01*
Y3240798D01*
X1086822Y3271318D01*
X1071024Y3298681D01*
X1048681Y3321023D01*
X1021318Y3336822D01*
X990798Y3344999D01*
D02*
G37*
G36*
X690798D02*
X659202D01*
X628682Y3336822D01*
X601318Y3321023D01*
X578976Y3298681D01*
X563178Y3271318D01*
X555000Y3240798D01*
Y3209201D01*
X563178Y3178681D01*
X578976Y3151318D01*
X601318Y3128976D01*
X628682Y3113178D01*
X659202Y3105000D01*
X690798D01*
X721318Y3113178D01*
X748682Y3128976D01*
X771024Y3151318D01*
X786822Y3178681D01*
X795000Y3209201D01*
Y3240798D01*
X786822Y3271318D01*
X771024Y3298681D01*
X748682Y3321023D01*
X721318Y3336822D01*
X690798Y3344999D01*
D02*
G37*
G36*
X9455000Y3050337D02*
Y2990000D01*
X9515337D01*
X9512842Y2999314D01*
X9501138Y3019586D01*
X9484586Y3036138D01*
X9464314Y3047842D01*
X9455000Y3050337D01*
D02*
G37*
G36*
X9405000D02*
X9395686Y3047842D01*
X9375414Y3036138D01*
X9358862Y3019586D01*
X9347158Y2999314D01*
X9344663Y2990000D01*
X9405000D01*
Y3050337D01*
D02*
G37*
G36*
X6680798Y3212500D02*
X6649202D01*
X6618682Y3204322D01*
X6591318Y3188524D01*
X6568976Y3166182D01*
X6553178Y3138818D01*
X6545000Y3108298D01*
Y3076702D01*
X6553178Y3046182D01*
X6568976Y3018818D01*
X6591318Y2996476D01*
X6618682Y2980678D01*
X6649202Y2972500D01*
X6680798D01*
X6711318Y2980678D01*
X6738681Y2996476D01*
X6761024Y3018818D01*
X6776822Y3046182D01*
X6785000Y3076702D01*
Y3108298D01*
X6776822Y3138818D01*
X6761024Y3166182D01*
X6738681Y3188524D01*
X6711318Y3204322D01*
X6680798Y3212500D01*
D02*
G37*
G36*
X9515337Y2940000D02*
X9455000D01*
Y2879663D01*
X9464314Y2882158D01*
X9484586Y2893862D01*
X9501138Y2910414D01*
X9512842Y2930686D01*
X9515337Y2940000D01*
D02*
G37*
G36*
X9405000D02*
X9344663D01*
X9347158Y2930686D01*
X9358862Y2910414D01*
X9375414Y2893862D01*
X9395686Y2882158D01*
X9405000Y2879663D01*
Y2940000D01*
D02*
G37*
G36*
X6680798Y2958500D02*
X6649202D01*
X6618682Y2950322D01*
X6591318Y2934524D01*
X6568976Y2912182D01*
X6553178Y2884818D01*
X6545000Y2854298D01*
Y2822702D01*
X6553178Y2792182D01*
X6568976Y2764818D01*
X6591318Y2742476D01*
X6618682Y2726678D01*
X6649202Y2718500D01*
X6680798D01*
X6711318Y2726678D01*
X6738681Y2742476D01*
X6761024Y2764818D01*
X6776822Y2792182D01*
X6785000Y2822702D01*
Y2854298D01*
X6776822Y2884818D01*
X6761024Y2912182D01*
X6738681Y2934524D01*
X6711318Y2950322D01*
X6680798Y2958500D01*
D02*
G37*
G36*
X2370000Y2465337D02*
Y2405000D01*
X2430337D01*
X2427841Y2414314D01*
X2416138Y2434586D01*
X2399586Y2451138D01*
X2379314Y2462842D01*
X2370000Y2465337D01*
D02*
G37*
G36*
X2320000D02*
X2310686Y2462842D01*
X2290414Y2451138D01*
X2273862Y2434586D01*
X2262158Y2414314D01*
X2259662Y2405000D01*
X2320000D01*
Y2465337D01*
D02*
G37*
G36*
X3075000Y2425337D02*
Y2365000D01*
X3135337D01*
X3132842Y2374314D01*
X3121138Y2394586D01*
X3104586Y2411138D01*
X3084314Y2422841D01*
X3075000Y2425337D01*
D02*
G37*
G36*
X3025000D02*
X3015686Y2422841D01*
X2995414Y2411138D01*
X2978862Y2394586D01*
X2967158Y2374314D01*
X2964663Y2365000D01*
X3025000D01*
Y2425337D01*
D02*
G37*
G36*
X2430337Y2355000D02*
X2370000D01*
Y2294663D01*
X2379314Y2297158D01*
X2399586Y2308862D01*
X2416138Y2325414D01*
X2427841Y2345686D01*
X2430337Y2355000D01*
D02*
G37*
G36*
X2320000D02*
X2259662D01*
X2262158Y2345686D01*
X2273862Y2325414D01*
X2290414Y2308862D01*
X2310686Y2297158D01*
X2320000Y2294663D01*
Y2355000D01*
D02*
G37*
G36*
X3135337Y2315000D02*
X3075000D01*
Y2254662D01*
X3084314Y2257158D01*
X3104586Y2268862D01*
X3121138Y2285414D01*
X3132842Y2305686D01*
X3135337Y2315000D01*
D02*
G37*
G36*
X3025000D02*
X2964663D01*
X2967158Y2305686D01*
X2978862Y2285414D01*
X2995414Y2268862D01*
X3015686Y2257158D01*
X3025000Y2254662D01*
Y2315000D01*
D02*
G37*
G36*
X4850000Y2063419D02*
Y1986000D01*
X4927419D01*
X4923217Y2001683D01*
X4909341Y2025717D01*
X4889717Y2045341D01*
X4865683Y2059217D01*
X4850000Y2063419D01*
D02*
G37*
G36*
X6689999Y2063419D02*
Y1986000D01*
X6767419D01*
X6763217Y2001683D01*
X6749341Y2025717D01*
X6729717Y2045341D01*
X6705683Y2059217D01*
X6689999Y2063419D01*
D02*
G37*
G36*
X6639999Y2063419D02*
X6624317Y2059217D01*
X6600283Y2045341D01*
X6580659Y2025717D01*
X6566783Y2001683D01*
X6562581Y1986000D01*
X6639999D01*
Y2063419D01*
D02*
G37*
G36*
X4800001Y2063419D02*
X4784317Y2059217D01*
X4760283Y2045341D01*
X4740659Y2025717D01*
X4726783Y2001683D01*
X4722581Y1986000D01*
X4800001D01*
Y2063419D01*
D02*
G37*
G36*
X4927419Y1936000D02*
X4850000D01*
Y1858581D01*
X4865683Y1862783D01*
X4889717Y1876659D01*
X4909341Y1896283D01*
X4923217Y1920317D01*
X4927419Y1936000D01*
D02*
G37*
G36*
X6639999D02*
X6562581D01*
X6566783Y1920317D01*
X6580659Y1896283D01*
X6600283Y1876659D01*
X6624317Y1862783D01*
X6639999Y1858581D01*
Y1936000D01*
D02*
G37*
G36*
X6767419D02*
X6689999D01*
Y1858580D01*
X6705683Y1862783D01*
X6729717Y1876659D01*
X6749341Y1896283D01*
X6763217Y1920317D01*
X6767419Y1936000D01*
D02*
G37*
G36*
X4800001D02*
X4722581D01*
X4726783Y1920317D01*
X4740659Y1896283D01*
X4760283Y1876659D01*
X4784317Y1862783D01*
X4800001Y1858580D01*
Y1936000D01*
D02*
G37*
G36*
X4850000Y1809419D02*
Y1732000D01*
X4927419D01*
X4923217Y1747683D01*
X4909341Y1771717D01*
X4889717Y1791341D01*
X4865683Y1805217D01*
X4850000Y1809419D01*
D02*
G37*
G36*
X6689999Y1809419D02*
Y1732000D01*
X6767419D01*
X6763217Y1747683D01*
X6749341Y1771717D01*
X6729717Y1791341D01*
X6705683Y1805217D01*
X6689999Y1809419D01*
D02*
G37*
G36*
X6639999Y1809419D02*
X6624317Y1805217D01*
X6600283Y1791341D01*
X6580659Y1771717D01*
X6566783Y1747683D01*
X6562581Y1732000D01*
X6639999D01*
Y1809419D01*
D02*
G37*
G36*
X4800001Y1809419D02*
X4784317Y1805217D01*
X4760283Y1791341D01*
X4740659Y1771717D01*
X4726783Y1747683D01*
X4722581Y1732000D01*
X4800001D01*
Y1809419D01*
D02*
G37*
G36*
X4927419Y1682000D02*
X4850000D01*
Y1604581D01*
X4865683Y1608783D01*
X4889717Y1622659D01*
X4909341Y1642283D01*
X4923217Y1666317D01*
X4927419Y1682000D01*
D02*
G37*
G36*
X6639999D02*
X6562581D01*
X6566783Y1666317D01*
X6580659Y1642283D01*
X6600283Y1622659D01*
X6624317Y1608783D01*
X6639999Y1604581D01*
Y1682000D01*
D02*
G37*
G36*
X6767419D02*
X6689999D01*
Y1604580D01*
X6705683Y1608783D01*
X6729717Y1622659D01*
X6749341Y1642283D01*
X6763217Y1666317D01*
X6767419Y1682000D01*
D02*
G37*
G36*
X4800001D02*
X4722581D01*
X4726783Y1666317D01*
X4740659Y1642283D01*
X4760283Y1622659D01*
X4784317Y1608783D01*
X4800001Y1604580D01*
Y1682000D01*
D02*
G37*
G36*
X1542700Y1603037D02*
Y1542700D01*
X1603037D01*
X1600542Y1552014D01*
X1588838Y1572286D01*
X1572286Y1588838D01*
X1552014Y1600542D01*
X1542700Y1603037D01*
D02*
G37*
G36*
X1492700D02*
X1483386Y1600542D01*
X1463114Y1588838D01*
X1446562Y1572286D01*
X1434858Y1552014D01*
X1432363Y1542700D01*
X1492700D01*
Y1603037D01*
D02*
G37*
G36*
X1603037Y1492700D02*
X1542700D01*
Y1432363D01*
X1552014Y1434858D01*
X1572286Y1446562D01*
X1588838Y1463114D01*
X1600542Y1483386D01*
X1603037Y1492700D01*
D02*
G37*
G36*
X1492700D02*
X1432363D01*
X1434858Y1483386D01*
X1446562Y1463114D01*
X1463114Y1446562D01*
X1483386Y1434858D01*
X1492700Y1432363D01*
Y1492700D01*
D02*
G37*
G36*
X6037500Y1372837D02*
Y1312500D01*
X6097837D01*
X6095342Y1321814D01*
X6083638Y1342086D01*
X6067086Y1358638D01*
X6046814Y1370342D01*
X6037500Y1372837D01*
D02*
G37*
G36*
X5987500D02*
X5978186Y1370342D01*
X5957914Y1358638D01*
X5941362Y1342086D01*
X5929658Y1321814D01*
X5927163Y1312500D01*
X5987500D01*
Y1372837D01*
D02*
G37*
G36*
X3117500Y1320337D02*
Y1260000D01*
X3177837D01*
X3175342Y1269314D01*
X3163638Y1289586D01*
X3147086Y1306138D01*
X3126814Y1317842D01*
X3117500Y1320337D01*
D02*
G37*
G36*
X3067500D02*
X3058186Y1317842D01*
X3037914Y1306138D01*
X3021362Y1289586D01*
X3009658Y1269314D01*
X3007163Y1260000D01*
X3067500D01*
Y1320337D01*
D02*
G37*
G36*
X6097837Y1262500D02*
X6037500D01*
Y1202163D01*
X6046814Y1204658D01*
X6067086Y1216362D01*
X6083638Y1232914D01*
X6095342Y1253186D01*
X6097837Y1262500D01*
D02*
G37*
G36*
X5987500D02*
X5927163D01*
X5929658Y1253186D01*
X5941362Y1232914D01*
X5957914Y1216362D01*
X5978186Y1204658D01*
X5987500Y1202163D01*
Y1262500D01*
D02*
G37*
G36*
X3177837Y1210000D02*
X3117500D01*
Y1149663D01*
X3126814Y1152158D01*
X3147086Y1163862D01*
X3163638Y1180414D01*
X3175342Y1200686D01*
X3177837Y1210000D01*
D02*
G37*
G36*
X3067500D02*
X3007163D01*
X3009658Y1200686D01*
X3021362Y1180414D01*
X3037914Y1163862D01*
X3058186Y1152158D01*
X3067500Y1149663D01*
Y1210000D01*
D02*
G37*
G36*
X1195798Y1052500D02*
X1164202D01*
X1133682Y1044322D01*
X1106318Y1028524D01*
X1083976Y1006182D01*
X1068178Y978818D01*
X1061574Y954172D01*
X1048426D01*
X1041822Y978818D01*
X1026024Y1006182D01*
X1003682Y1028524D01*
X976318Y1044322D01*
X945798Y1052500D01*
X914202D01*
X883682Y1044322D01*
X856318Y1028524D01*
X833976Y1006182D01*
X818178Y978818D01*
X810000Y948298D01*
Y916702D01*
X818178Y886182D01*
X833976Y858818D01*
X856318Y836476D01*
X883682Y820678D01*
X914202Y812500D01*
X945798D01*
X976318Y820678D01*
X1003682Y836476D01*
X1026024Y858818D01*
X1041822Y886182D01*
X1048426Y910828D01*
X1061574D01*
X1068178Y886182D01*
X1083976Y858818D01*
X1106318Y836476D01*
X1133682Y820678D01*
X1164202Y812500D01*
X1195798D01*
X1226318Y820678D01*
X1253682Y836476D01*
X1276024Y858818D01*
X1291822Y886182D01*
X1300000Y916702D01*
Y948298D01*
X1291822Y978818D01*
X1276024Y1006182D01*
X1253682Y1028524D01*
X1226318Y1044322D01*
X1195798Y1052500D01*
D02*
G37*
G36*
X8983000Y982419D02*
Y905000D01*
X9060419D01*
X9056217Y920683D01*
X9042341Y944717D01*
X9022717Y964341D01*
X8998683Y978217D01*
X8983000Y982419D01*
D02*
G37*
G36*
X8933000Y982419D02*
X8917317Y978217D01*
X8893283Y964341D01*
X8873659Y944717D01*
X8859783Y920683D01*
X8855581Y905000D01*
X8933000D01*
Y982419D01*
D02*
G37*
G36*
Y855000D02*
X8855581D01*
X8859783Y839317D01*
X8873659Y815283D01*
X8893283Y795659D01*
X8917317Y781783D01*
X8933000Y777581D01*
Y855000D01*
D02*
G37*
G36*
X9060420D02*
X8983000D01*
Y777581D01*
X8998683Y781783D01*
X9022717Y795659D01*
X9042341Y815283D01*
X9056217Y839317D01*
X9060420Y855000D01*
D02*
G37*
G36*
X6680798Y1015000D02*
X6649202D01*
X6618682Y1006822D01*
X6591318Y991024D01*
X6568976Y968682D01*
X6553178Y941318D01*
X6545000Y910798D01*
Y879202D01*
X6553178Y848682D01*
X6568976Y821318D01*
X6591318Y798976D01*
X6618682Y783178D01*
X6649202Y775000D01*
X6680798D01*
X6711318Y783178D01*
X6738681Y798976D01*
X6761024Y821318D01*
X6776822Y848682D01*
X6785000Y879202D01*
Y910798D01*
X6776822Y941318D01*
X6761024Y968682D01*
X6738681Y991024D01*
X6711318Y1006822D01*
X6680798Y1015000D01*
D02*
G37*
G36*
X9227798Y1000000D02*
X9196202D01*
X9165682Y991822D01*
X9138319Y976024D01*
X9115976Y953682D01*
X9100178Y926318D01*
X9092000Y895798D01*
Y864202D01*
X9100178Y833682D01*
X9115976Y806318D01*
X9138319Y783976D01*
X9165682Y768178D01*
X9196202Y760000D01*
X9227798D01*
X9258318Y768178D01*
X9285682Y783976D01*
X9308024Y806318D01*
X9323822Y833682D01*
X9332000Y864202D01*
Y895798D01*
X9323822Y926318D01*
X9308024Y953682D01*
X9285682Y976024D01*
X9258318Y991822D01*
X9227798Y1000000D01*
D02*
G37*
G36*
X8719798D02*
X8688202D01*
X8657682Y991822D01*
X8630319Y976024D01*
X8607976Y953682D01*
X8592178Y926318D01*
X8584000Y895798D01*
Y864202D01*
X8592178Y833682D01*
X8607976Y806318D01*
X8630319Y783976D01*
X8657682Y768178D01*
X8688202Y760000D01*
X8719798D01*
X8750318Y768178D01*
X8777682Y783976D01*
X8800024Y806318D01*
X8815822Y833682D01*
X8824000Y864202D01*
Y895798D01*
X8815822Y926318D01*
X8800024Y953682D01*
X8777682Y976024D01*
X8750318Y991822D01*
X8719798Y1000000D01*
D02*
G37*
G36*
X8465798D02*
X8434202D01*
X8403682Y991822D01*
X8376319Y976024D01*
X8353976Y953682D01*
X8338178Y926318D01*
X8330000Y895798D01*
Y864202D01*
X8338178Y833682D01*
X8353976Y806318D01*
X8376319Y783976D01*
X8403682Y768178D01*
X8434202Y760000D01*
X8465798D01*
X8496318Y768178D01*
X8523682Y783976D01*
X8546024Y806318D01*
X8561822Y833682D01*
X8570000Y864202D01*
Y895798D01*
X8561822Y926318D01*
X8546024Y953682D01*
X8523682Y976024D01*
X8496318Y991822D01*
X8465798Y1000000D01*
D02*
G37*
G36*
X8211798D02*
X8180202D01*
X8149682Y991822D01*
X8122319Y976024D01*
X8099976Y953682D01*
X8084178Y926318D01*
X8076000Y895798D01*
Y864202D01*
X8084178Y833682D01*
X8099976Y806318D01*
X8122319Y783976D01*
X8149682Y768178D01*
X8180202Y760000D01*
X8211798D01*
X8242318Y768178D01*
X8269682Y783976D01*
X8292024Y806318D01*
X8307822Y833682D01*
X8316000Y864202D01*
Y895798D01*
X8307822Y926318D01*
X8292024Y953682D01*
X8269682Y976024D01*
X8242318Y991822D01*
X8211798Y1000000D01*
D02*
G37*
G36*
X7957798D02*
X7926202D01*
X7895682Y991822D01*
X7868319Y976024D01*
X7845976Y953682D01*
X7830178Y926318D01*
X7822000Y895798D01*
Y864202D01*
X7830178Y833682D01*
X7845976Y806318D01*
X7868319Y783976D01*
X7895682Y768178D01*
X7926202Y760000D01*
X7957798D01*
X7988318Y768178D01*
X8015682Y783976D01*
X8038024Y806318D01*
X8053822Y833682D01*
X8062000Y864202D01*
Y895798D01*
X8053822Y926318D01*
X8038024Y953682D01*
X8015682Y976024D01*
X7988318Y991822D01*
X7957798Y1000000D01*
D02*
G37*
G36*
X6680798Y761000D02*
X6649202D01*
X6618682Y752822D01*
X6591318Y737024D01*
X6568976Y714682D01*
X6553178Y687318D01*
X6545000Y656798D01*
Y625202D01*
X6553178Y594682D01*
X6568976Y567318D01*
X6591318Y544976D01*
X6618682Y529178D01*
X6649202Y521000D01*
X6680798D01*
X6711318Y529178D01*
X6738681Y544976D01*
X6761024Y567318D01*
X6776822Y594682D01*
X6785000Y625202D01*
Y656798D01*
X6776822Y687318D01*
X6761024Y714682D01*
X6738681Y737024D01*
X6711318Y752822D01*
X6680798Y761000D01*
D02*
G37*
G36*
X1195798Y552500D02*
X1164202D01*
X1133682Y544322D01*
X1106318Y528524D01*
X1083976Y506182D01*
X1068178Y478818D01*
X1061574Y454172D01*
X1048426D01*
X1041822Y478818D01*
X1026024Y506182D01*
X1003682Y528524D01*
X976318Y544322D01*
X945798Y552500D01*
X914202D01*
X883682Y544322D01*
X856318Y528524D01*
X833976Y506182D01*
X818178Y478818D01*
X810000Y448298D01*
Y416702D01*
X818178Y386182D01*
X833976Y358818D01*
X856318Y336476D01*
X883682Y320678D01*
X914202Y312500D01*
X945798D01*
X976318Y320678D01*
X1003682Y336476D01*
X1026024Y358818D01*
X1041822Y386182D01*
X1048426Y410828D01*
X1061574D01*
X1068178Y386182D01*
X1083976Y358818D01*
X1106318Y336476D01*
X1133682Y320678D01*
X1164202Y312500D01*
X1195798D01*
X1226318Y320678D01*
X1253682Y336476D01*
X1276024Y358818D01*
X1291822Y386182D01*
X1300000Y416702D01*
Y448298D01*
X1291822Y478818D01*
X1276024Y506182D01*
X1253682Y528524D01*
X1226318Y544322D01*
X1195798Y552500D01*
D02*
G37*
G36*
X9775000Y423864D02*
Y275000D01*
X9923864D01*
X9918659Y301162D01*
X9905437Y333083D01*
X9886242Y361811D01*
X9861811Y386242D01*
X9833083Y405437D01*
X9801162Y418659D01*
X9775000Y423864D01*
D02*
G37*
G36*
X9725000D02*
X9698838Y418659D01*
X9666917Y405437D01*
X9638189Y386242D01*
X9613758Y361811D01*
X9594563Y333083D01*
X9581341Y301162D01*
X9576137Y275000D01*
X9725000D01*
Y423864D01*
D02*
G37*
G36*
X275000D02*
Y275000D01*
X423864D01*
X418659Y301162D01*
X405437Y333083D01*
X386242Y361811D01*
X361811Y386242D01*
X333083Y405437D01*
X301162Y418659D01*
X275000Y423864D01*
D02*
G37*
G36*
X225000D02*
X198838Y418659D01*
X166917Y405437D01*
X138189Y386242D01*
X113758Y361811D01*
X94563Y333083D01*
X81341Y301162D01*
X76136Y275000D01*
X225000D01*
Y423864D01*
D02*
G37*
G36*
X9923864Y225000D02*
X9775000D01*
Y76136D01*
X9801162Y81341D01*
X9833083Y94563D01*
X9861811Y113758D01*
X9886242Y138189D01*
X9905437Y166917D01*
X9918659Y198838D01*
X9923864Y225000D01*
D02*
G37*
G36*
X9725000D02*
X9576137D01*
X9581341Y198838D01*
X9594563Y166917D01*
X9613758Y138189D01*
X9638189Y113758D01*
X9666917Y94563D01*
X9698838Y81341D01*
X9725000Y76136D01*
Y225000D01*
D02*
G37*
G36*
X423864D02*
X275000D01*
Y76136D01*
X301162Y81341D01*
X333083Y94563D01*
X361811Y113758D01*
X386242Y138189D01*
X405437Y166917D01*
X418659Y198838D01*
X423864Y225000D01*
D02*
G37*
G36*
X225000D02*
X76136D01*
X81341Y198838D01*
X94563Y166917D01*
X113758Y138189D01*
X138189Y113758D01*
X166917Y94563D01*
X198838Y81341D01*
X225000Y76136D01*
Y225000D01*
D02*
G37*
%LPD*%
G36*
X5497500Y3042500D02*
X5497500Y2151573D01*
Y894686D01*
X5000000Y325000D01*
X1870000D01*
X1867500Y322500D01*
X1780000Y410000D01*
Y1080000D01*
X4965000D01*
X5055000Y1170000D01*
Y2377500D01*
X4610000Y2822500D01*
Y3690000D01*
X4850000D01*
X5497500Y3042500D01*
D02*
G37*
G36*
X8350651Y3888632D02*
X8344077Y3877246D01*
X8333798Y3880000D01*
X8302202D01*
X8271682Y3871822D01*
X8244319Y3856024D01*
X8221976Y3833682D01*
X8206178Y3806318D01*
X8205975Y3805561D01*
X6729832D01*
X6726429Y3818261D01*
X6729717Y3820159D01*
X6749341Y3839783D01*
X6763217Y3863817D01*
X6767419Y3879500D01*
X6664999D01*
X6562580D01*
X6566783Y3863817D01*
X6580659Y3839783D01*
X6600283Y3820159D01*
X6603571Y3818261D01*
X6600168Y3805561D01*
X6083256D01*
X5463500Y4425317D01*
Y4445126D01*
X5457262Y4468407D01*
X5468124Y4475505D01*
X5476450Y4467180D01*
X5500051Y4453553D01*
X5526374Y4446500D01*
X5553626D01*
X5579949Y4453553D01*
X5603551Y4467180D01*
X5622821Y4486449D01*
X5630166Y4499173D01*
X5668234D01*
X5685202Y4501407D01*
X5701014Y4507956D01*
X5714592Y4518375D01*
X5730656Y4534439D01*
X7704844D01*
X8350651Y3888632D01*
D02*
G37*
%LPC*%
G36*
X6689999Y4260919D02*
Y4183500D01*
X6767419D01*
X6763217Y4199183D01*
X6749341Y4223217D01*
X6729717Y4242841D01*
X6705683Y4256717D01*
X6689999Y4260919D01*
D02*
G37*
G36*
X6639999Y4260919D02*
X6624317Y4256717D01*
X6600283Y4242841D01*
X6580659Y4223217D01*
X6566783Y4199183D01*
X6562581Y4183500D01*
X6639999D01*
Y4260919D01*
D02*
G37*
G36*
Y4133500D02*
X6562580D01*
X6566783Y4117817D01*
X6580659Y4093783D01*
X6600283Y4074159D01*
X6624317Y4060283D01*
X6639999Y4056081D01*
Y4133500D01*
D02*
G37*
G36*
X6767419D02*
X6689999D01*
Y4056081D01*
X6705683Y4060283D01*
X6729717Y4074159D01*
X6749341Y4093783D01*
X6763217Y4117817D01*
X6767419Y4133500D01*
D02*
G37*
G36*
X6689999Y4006919D02*
Y3929500D01*
X6767419D01*
X6763217Y3945183D01*
X6749341Y3969217D01*
X6729717Y3988841D01*
X6705683Y4002717D01*
X6689999Y4006919D01*
D02*
G37*
G36*
X6639999Y4006919D02*
X6624317Y4002717D01*
X6600283Y3988841D01*
X6580659Y3969217D01*
X6566783Y3945183D01*
X6562581Y3929500D01*
X6639999D01*
Y4006919D01*
D02*
G37*
%LPD*%
G36*
G01X9612600Y6299000D02*
G02X9532599Y6379000I0J80000D01*
G02X9612600Y6459001I80000J0D01*
G01X9832600D01*
G02X9912599Y6379000I0J-80000D01*
G02X9832600Y6299000I-80000J0D01*
G01X9612600D01*
D02*
G37*
G36*
G01Y5791000D02*
G02X9532599Y5871000I0J80000D01*
G02X9612600Y5951001I80000J0D01*
G01X9832600D01*
G02X9912599Y5871000I0J-80000D01*
G02X9832600Y5791000I-80000J0D01*
G01X9612600D01*
D02*
G37*
G36*
G01X4892000Y7014000D02*
G02X4812000Y6934000I-80000J0D01*
G02X4731999Y7014000I0J80000D01*
G01Y7234001D01*
G02X4812000Y7314000I80000J0D01*
G02X4892000Y7234001I0J-80000D01*
G01Y7014000D01*
D02*
G37*
G36*
G01X5146000D02*
G02X5066000Y6934000I-80000J0D01*
G02X4985999Y7014000I0J80000D01*
G01Y7234001D01*
G02X5066000Y7314000I80000J0D01*
G02X5146000Y7234001I0J-80000D01*
G01Y7014000D01*
D02*
G37*
G36*
G01X5654000D02*
G02X5574000Y6934000I-80000J0D01*
G02X5493999Y7014000I0J80000D01*
G01Y7234001D01*
G02X5574000Y7314000I80000J0D01*
G02X5654000Y7234001I0J-80000D01*
G01Y7014000D01*
D02*
G37*
G36*
G01X5908000D02*
G02X5828000Y6934000I-80000J0D01*
G02X5747999Y7014000I0J80000D01*
G01Y7234001D01*
G02X5828000Y7314000I80000J0D01*
G02X5908000Y7234001I0J-80000D01*
G01Y7014000D01*
D02*
G37*
G36*
G01X6162000D02*
G02X6082000Y6934000I-80000J0D01*
G02X6001999Y7014000I0J80000D01*
G01Y7234001D01*
G02X6082000Y7314000I80000J0D01*
G02X6162000Y7234001I0J-80000D01*
G01Y7014000D01*
D02*
G37*
G36*
G01X6416000D02*
G02X6336000Y6934000I-80000J0D01*
G02X6255999Y7014000I0J80000D01*
G01Y7234001D01*
G02X6336000Y7314000I80000J0D01*
G02X6416000Y7234001I0J-80000D01*
G01Y7014000D01*
D02*
G37*
G36*
G01X6924000D02*
G02X6844000Y6934000I-80000J0D01*
G02X6763999Y7014000I0J80000D01*
G01Y7234001D01*
G02X6844000Y7314000I80000J0D01*
G02X6924000Y7234001I0J-80000D01*
G01Y7014000D01*
D02*
G37*
G36*
G01X7178000D02*
G02X7098000Y6934000I-80000J0D01*
G02X7017999Y7014000I0J80000D01*
G01Y7234001D01*
G02X7098000Y7314000I80000J0D01*
G02X7178000Y7234001I0J-80000D01*
G01Y7014000D01*
D02*
G37*
G36*
G01X7432000D02*
G02X7352000Y6934000I-80000J0D01*
G02X7271999Y7014000I0J80000D01*
G01Y7234001D01*
G02X7352000Y7314000I80000J0D01*
G02X7432000Y7234001I0J-80000D01*
G01Y7014000D01*
D02*
G37*
G36*
G01X7686000D02*
G02X7606000Y6934000I-80000J0D01*
G02X7525999Y7014000I0J80000D01*
G01Y7234001D01*
G02X7606000Y7314000I80000J0D01*
G02X7686000Y7234001I0J-80000D01*
G01Y7014000D01*
D02*
G37*
G36*
G01X8194000D02*
G02X8114000Y6934000I-80000J0D01*
G02X8033999Y7014000I0J80000D01*
G01Y7234001D01*
G02X8114000Y7314000I80000J0D01*
G02X8194000Y7234001I0J-80000D01*
G01Y7014000D01*
D02*
G37*
G36*
G01X8448000D02*
G02X8368000Y6934000I-80000J0D01*
G02X8287999Y7014000I0J80000D01*
G01Y7234001D01*
G02X8368000Y7314000I80000J0D01*
G02X8448000Y7234001I0J-80000D01*
G01Y7014000D01*
D02*
G37*
G36*
G01X8702000D02*
G02X8622000Y6934000I-80000J0D01*
G02X8541999Y7014000I0J80000D01*
G01Y7234001D01*
G02X8622000Y7314000I80000J0D01*
G02X8702000Y7234001I0J-80000D01*
G01Y7014000D01*
D02*
G37*
G36*
G01X8956000D02*
G02X8876000Y6934000I-80000J0D01*
G02X8795999Y7014000I0J80000D01*
G01Y7234001D01*
G02X8876000Y7314000I80000J0D01*
G02X8956000Y7234001I0J-80000D01*
G01Y7014000D01*
D02*
G37*
G36*
G01X9464000D02*
G02X9384000Y6934000I-80000J0D01*
G02X9303999Y7014000I0J80000D01*
G01Y7234001D01*
G02X9384000Y7314000I80000J0D01*
G02X9464000Y7234001I0J-80000D01*
G01Y7014000D01*
D02*
G37*
G36*
G01X9718000D02*
G02X9638000Y6934000I-80000J0D01*
G02X9557999Y7014000I0J80000D01*
G01Y7234001D01*
G02X9638000Y7314000I80000J0D01*
G02X9718000Y7234001I0J-80000D01*
G01Y7014000D01*
D02*
G37*
G36*
G01X9557999Y5236000D02*
G02X9638000Y5316001I80000J-0D01*
G02X9718000Y5236000I0J-80000D01*
G01Y5016000D01*
G02X9638000Y4936001I-80000J0D01*
G02X9557999Y5016000I0J80000D01*
G01Y5236000D01*
D02*
G37*
G36*
G01X9303999D02*
G02X9384000Y5316001I80000J-0D01*
G02X9464000Y5236000I0J-80000D01*
G01Y5016000D01*
G02X9384000Y4936001I-80000J0D01*
G02X9303999Y5016000I0J80000D01*
G01Y5236000D01*
D02*
G37*
G36*
G01X8795999D02*
G02X8876000Y5316001I80000J-0D01*
G02X8956000Y5236000I0J-80000D01*
G01Y5016000D01*
G02X8876000Y4936001I-80000J0D01*
G02X8795999Y5016000I0J80000D01*
G01Y5236000D01*
D02*
G37*
G36*
G01X8541999D02*
G02X8622000Y5316001I80000J-0D01*
G02X8702000Y5236000I0J-80000D01*
G01Y5016000D01*
G02X8622000Y4936001I-80000J0D01*
G02X8541999Y5016000I0J80000D01*
G01Y5236000D01*
D02*
G37*
G36*
G01X8287999D02*
G02X8368000Y5316001I80000J-0D01*
G02X8448000Y5236000I0J-80000D01*
G01Y5016000D01*
G02X8368000Y4936001I-80000J0D01*
G02X8287999Y5016000I0J80000D01*
G01Y5236000D01*
D02*
G37*
G36*
G01X8033999D02*
G02X8114000Y5316001I80000J-0D01*
G02X8194000Y5236000I0J-80000D01*
G01Y5016000D01*
G02X8114000Y4936001I-80000J0D01*
G02X8033999Y5016000I0J80000D01*
G01Y5236000D01*
D02*
G37*
G36*
G01X7525999D02*
G02X7606000Y5316001I80000J-0D01*
G02X7686000Y5236000I0J-80000D01*
G01Y5016000D01*
G02X7606000Y4936001I-80000J0D01*
G02X7525999Y5016000I0J80000D01*
G01Y5236000D01*
D02*
G37*
G36*
G01X7271999D02*
G02X7352000Y5316001I80000J-0D01*
G02X7432000Y5236000I0J-80000D01*
G01Y5016000D01*
G02X7352000Y4936001I-80000J0D01*
G02X7271999Y5016000I0J80000D01*
G01Y5236000D01*
D02*
G37*
G36*
G01X7017999D02*
G02X7098000Y5316001I80000J-0D01*
G02X7178000Y5236000I0J-80000D01*
G01Y5016000D01*
G02X7098000Y4936001I-80000J0D01*
G02X7017999Y5016000I0J80000D01*
G01Y5236000D01*
D02*
G37*
G36*
G01X6763999D02*
G02X6844000Y5316001I80000J-0D01*
G02X6924000Y5236000I0J-80000D01*
G01Y5016000D01*
G02X6844000Y4936001I-80000J0D01*
G02X6763999Y5016000I0J80000D01*
G01Y5236000D01*
D02*
G37*
G36*
G01X6255999D02*
G02X6336000Y5316001I80000J-0D01*
G02X6416000Y5236000I0J-80000D01*
G01Y5016000D01*
G02X6336000Y4936001I-80000J0D01*
G02X6255999Y5016000I0J80000D01*
G01Y5236000D01*
D02*
G37*
G36*
G01X6001999D02*
G02X6082000Y5316001I80000J-0D01*
G02X6162000Y5236000I0J-80000D01*
G01Y5016000D01*
G02X6082000Y4936001I-80000J0D01*
G02X6001999Y5016000I0J80000D01*
G01Y5236000D01*
D02*
G37*
G36*
G01X5747999D02*
G02X5828000Y5316001I80000J-0D01*
G02X5908000Y5236000I0J-80000D01*
G01Y5016000D01*
G02X5828000Y4936001I-80000J0D01*
G02X5747999Y5016000I0J80000D01*
G01Y5236000D01*
D02*
G37*
G36*
G01X5493999D02*
G02X5574000Y5316001I80000J-0D01*
G02X5654000Y5236000I0J-80000D01*
G01Y5016000D01*
G02X5574000Y4936001I-80000J0D01*
G02X5493999Y5016000I0J80000D01*
G01Y5236000D01*
D02*
G37*
G36*
G01X4985999D02*
G02X5066000Y5316001I80000J-0D01*
G02X5146000Y5236000I0J-80000D01*
G01Y5016000D01*
G02X5066000Y4936001I-80000J0D01*
G02X4985999Y5016000I0J80000D01*
G01Y5236000D01*
D02*
G37*
G36*
G01X4731999D02*
G02X4812000Y5316001I80000J-0D01*
G02X4892000Y5236000I0J-80000D01*
G01Y5016000D01*
G02X4812000Y4936001I-80000J0D01*
G02X4731999Y5016000I0J80000D01*
G01Y5236000D01*
D02*
G37*
D26*
X3490000Y5471500D02*
Y5756268D01*
X3890000Y4102500D02*
Y6200000D01*
Y4102500D02*
X4435711Y3556789D01*
X7497500Y1867500D02*
X9185000Y3555000D01*
X7497500Y360000D02*
Y1867500D01*
X5360000Y4431500D02*
X5364600D01*
X6056100Y3740000D01*
X768547Y9363547D02*
Y9436771D01*
X747500Y9342500D02*
X768547Y9363547D01*
X1236777Y9905000D02*
X8735000D01*
X768547Y9436771D02*
X1236777Y9905000D01*
X8735000D02*
X9130000Y9510000D01*
X2675000Y9350000D02*
X3070000Y9745000D01*
X6855000D01*
X7080000Y9520000D01*
X7090000D01*
X4140000Y9350000D02*
X5120000D01*
X5520000Y8950000D01*
X7109277Y7907500D02*
X7731000Y7285778D01*
X5828000Y7907500D02*
X7109277D01*
X5828000Y7014000D02*
Y7907500D01*
Y8162000D01*
X7731000Y6923389D02*
Y7285778D01*
X7730000Y6922389D02*
X7731000Y6923389D01*
X7730000Y6560000D02*
Y6922389D01*
Y6560000D02*
X9001000Y5289001D01*
Y4921361D02*
Y5289001D01*
Y4921361D02*
X9185000Y4737361D01*
Y3555000D02*
Y4737361D01*
X6033999Y5950000D02*
X7098000Y7014000D01*
X5220000Y5950000D02*
X6033999D01*
X5370000Y6130000D02*
X5959999D01*
X6844000Y7014000D01*
X4435711Y2710711D02*
Y3556789D01*
X3350000Y2005000D02*
X3730000D01*
X4435711Y2710711D01*
X1320000Y1690000D02*
X3550000D01*
X690000Y2320000D02*
X1320000Y1690000D01*
X7810000Y9830000D02*
X8120000Y9520000D01*
X1720000Y9350000D02*
X2200000Y9830000D01*
X7810000D01*
X6056100Y3740000D02*
X8298000D01*
X8318000Y3760000D01*
X3400000Y6810000D02*
X3875267Y6334733D01*
Y6214733D02*
Y6334733D01*
Y6214733D02*
X3890000Y6200000D01*
X3400000Y6810000D02*
Y8630000D01*
X3580000Y8810000D02*
X5370000D01*
X3400000Y8630000D02*
X3580000Y8810000D01*
X5370000D02*
X5640000Y8540000D01*
X5703500Y4600000D02*
X7732000D01*
X5540000Y4550000D02*
X5554733Y4564733D01*
X5668234D01*
X5703500Y4600000D01*
X7732000D02*
X8572000Y3760000D01*
X675000Y2625000D02*
X690000Y2610000D01*
Y2320000D02*
Y2610000D01*
X5640000Y8350000D02*
Y8540000D01*
Y8350000D02*
X5828000Y8162000D01*
X1715000Y9350000D02*
X1720000D01*
D27*
X1750000Y200000D02*
X6150000D01*
X1600000Y350000D02*
Y1120000D01*
Y350000D02*
X1750000Y200000D01*
X5980000Y2630000D02*
Y3560000D01*
X4860000Y4680000D02*
X5980000Y3560000D01*
X4504600Y5035400D02*
X4860000Y4680000D01*
X4500000Y5045000D02*
Y7402132D01*
X4587868Y7490000D02*
X4960000D01*
X5066000Y7384000D01*
X4500000Y7402132D02*
X4587868Y7490000D01*
X5066000Y7014000D02*
Y7384000D01*
X4125531Y9350000D02*
X4140000D01*
X3160531Y9350000D02*
X3189468D01*
X2020000Y9155000D02*
X2215000Y9350000D01*
X1482500Y9265000D02*
X1592500Y9155000D01*
X1472500Y9275000D02*
X1482500Y9265000D01*
X1249413Y9340587D02*
X1409413D01*
X1247500Y9342500D02*
X1249413Y9340587D01*
X1409413D02*
X1464745Y9285255D01*
X1592500Y9155000D02*
X2020000D01*
X2229470Y9350000D02*
X2436969Y9142500D01*
X2953031D01*
X3160531Y9350000D01*
X3189468D02*
X3404468Y9135000D01*
X3910531D02*
X4125531Y9350000D01*
X3404468Y9135000D02*
X3910531D01*
X490000Y2230000D02*
Y2701629D01*
Y2230000D02*
X1600000Y1120000D01*
X673087Y2920380D02*
X674440Y2921734D01*
X490000Y2701629D02*
X673087Y2884716D01*
Y2920380D01*
X2215000Y9350000D02*
X2229470D01*
D28*
X4140000Y8587500D02*
Y8590000D01*
Y4290000D02*
Y5490000D01*
Y8587500D01*
X3640000Y8590000D02*
X4140000D01*
Y4290000D02*
X4841576Y3579076D01*
D29*
X5186500Y4796500D02*
X5190000Y4800000D01*
X4976500Y4796500D02*
X5186500D01*
X4860000Y4680000D02*
X4976500Y4796500D01*
D30*
X950000Y9172500D02*
X1022500Y9245000D01*
X1104510Y9588673D02*
X1243673D01*
X1022500Y9506663D02*
X1104510Y9588673D01*
X1022500Y9245000D02*
Y9506663D01*
X1243673Y9588673D02*
X1247500Y9592500D01*
X627010Y9172500D02*
X950000D01*
X500000Y9045490D02*
X627010Y9172500D01*
X500000Y7550000D02*
Y9045490D01*
X1482500Y9265000D02*
Y9267500D01*
Y3132500D02*
Y9265000D01*
X1464745Y9285255D02*
X1482500Y9267500D01*
X975000Y2625000D02*
X1482500Y3132500D01*
X1230000Y5830000D02*
Y7660000D01*
X975000Y5575000D02*
X1230000Y5830000D01*
X500000Y7550000D02*
X675000Y7375000D01*
D31*
X975000Y2925000D02*
D03*
Y3525000D02*
D03*
Y3225000D02*
D03*
Y3825000D02*
D03*
X675000Y3525000D02*
D03*
Y3225000D02*
D03*
Y2925000D02*
D03*
Y2625000D02*
D03*
X975000D02*
D03*
X256500Y3609000D02*
D03*
X256500Y2839000D02*
D03*
X675000Y6175000D02*
D03*
Y7075000D02*
D03*
Y6775000D02*
D03*
Y7375000D02*
D03*
Y6475000D02*
D03*
Y5275000D02*
D03*
Y4975000D02*
D03*
Y5875000D02*
D03*
Y5575000D02*
D03*
X256500Y5189000D02*
D03*
X256500Y7459000D02*
D03*
X975000Y4975000D02*
D03*
Y5275000D02*
D03*
Y5575000D02*
D03*
Y5875000D02*
D03*
Y6175000D02*
D03*
Y6475000D02*
D03*
Y6775000D02*
D03*
Y7075000D02*
D03*
Y7375000D02*
D03*
Y7675000D02*
D03*
X1940000Y932500D02*
D03*
X1180000D02*
D03*
X930000D02*
D03*
Y432500D02*
D03*
X1180000D02*
D03*
X1940000D02*
D03*
X1247500Y8582500D02*
D03*
Y9342500D02*
D03*
Y9592500D02*
D03*
X747500D02*
D03*
Y9342500D02*
D03*
Y8582500D02*
D03*
X4140000Y8587500D02*
D03*
Y9347500D02*
D03*
Y9597500D02*
D03*
X3640000D02*
D03*
Y9347500D02*
D03*
Y8587500D02*
D03*
X3175000Y8585000D02*
D03*
Y9345000D02*
D03*
Y9595000D02*
D03*
X2675000D02*
D03*
Y9345000D02*
D03*
Y8585000D02*
D03*
X2210000Y8582500D02*
D03*
Y9342500D02*
D03*
Y9592500D02*
D03*
X1710000D02*
D03*
Y9342500D02*
D03*
Y8582500D02*
D03*
X4825000Y1961000D02*
D03*
Y1707000D02*
D03*
Y641000D02*
D03*
X6665000Y895000D02*
D03*
Y641000D02*
D03*
X4825000Y895000D02*
D03*
X6665000Y1707000D02*
D03*
Y1961000D02*
D03*
Y4158500D02*
D03*
Y3904500D02*
D03*
X4825000Y3092500D02*
D03*
X6665000Y2838500D02*
D03*
Y3092500D02*
D03*
X4825000Y2838500D02*
D03*
Y3904500D02*
D03*
Y4158500D02*
D03*
X8958000Y880000D02*
D03*
X7688000D02*
D03*
X7942000D02*
D03*
X8196000D02*
D03*
X8450000D02*
D03*
X8704000D02*
D03*
X9212000D02*
D03*
X8572000Y3760000D02*
D03*
X8318000D02*
D03*
D32*
X675000Y3825000D02*
D03*
Y7675000D02*
D03*
D33*
X9612600Y6125000D02*
D03*
D34*
X6590000Y7014000D02*
D03*
X7860000D02*
D03*
X5320000D02*
D03*
X9130000D02*
D03*
D35*
Y5236000D02*
D03*
X7860000D02*
D03*
X5320000D02*
D03*
X6590000D02*
D03*
D36*
X9575000Y5555001D02*
D03*
X4874999Y6695000D02*
D03*
X9575000D02*
D03*
X4874999Y5555001D02*
D03*
D37*
X5565000Y3360000D02*
D03*
X3092500Y1235000D02*
D03*
X7155000Y5875000D02*
D03*
X4317500Y5580000D02*
D03*
X4140000Y5471500D02*
D03*
X3490000D02*
D03*
Y5756268D02*
D03*
X3154366Y3851641D02*
D03*
X3835200Y3360200D02*
D03*
X7487500Y8577500D02*
D03*
X4925000Y8492500D02*
D03*
X9662500Y8380000D02*
D03*
X6012500Y1287500D02*
D03*
X667500Y4527500D02*
D03*
X3215000Y6647500D02*
D03*
X5640000Y8540000D02*
D03*
X5235000Y4305000D02*
D03*
X5360000Y4431500D02*
D03*
X1517700Y1517700D02*
D03*
X9130000Y9510000D02*
D03*
X7090000Y9520000D02*
D03*
X1080000Y4090000D02*
D03*
X4570000Y7980000D02*
D03*
X9430000Y2965000D02*
D03*
X3350000Y2005000D02*
D03*
X3050000Y2340000D02*
D03*
X3550000Y1690000D02*
D03*
X7497500Y360000D02*
D03*
X2345000Y2380000D02*
D03*
X7260000Y3367500D02*
D03*
X1230000Y7660000D02*
D03*
X5190000Y4800000D02*
D03*
X3890000Y6200000D02*
D03*
X3400000Y6810000D02*
D03*
X5220000Y5950000D02*
D03*
X5370000Y6130000D02*
D03*
X5540000Y4550000D02*
D03*
X5520000Y8950000D02*
D03*
X5980000Y2630000D02*
D03*
X8120000Y9520000D02*
D03*
X6150000Y200000D02*
D03*
D38*
X250000Y250000D02*
D03*
Y9725000D02*
D03*
X9750000Y250000D02*
D03*
Y9750000D02*
D03*
%TF.MD5,a06993065d85fe2b8679d370a4e54517*%
M02*
