%TF.GenerationSoftware,Altium Limited,Altium Designer,23.4.1 (23)*%
G04 Layer_Color=0*
%FSLAX45Y45*%
%MOMM*%
%TF.SameCoordinates,6CF259D0-23F4-4C04-AF4F-6D395A9B2DD4*%
%TF.FilePolarity,Positive*%
%TF.FileFunction,Plated,1,2,PTH,Drill*%
%TF.Part,Single*%
G01*
G75*
%TA.AperFunction,ComponentDrill*%
%ADD69C,1.10000*%
%ADD70C,1.10000*%
%ADD71C,3.00000*%
%TA.AperFunction,ViaDrill,NotFilled*%
%ADD72C,0.71120*%
%ADD73C,2.10000*%
%ADD74C,3.00000*%
D69*
X675000Y6175000D02*
D03*
X1247500Y8582500D02*
D03*
Y9342500D02*
D03*
Y9592500D02*
D03*
X747500D02*
D03*
Y9342500D02*
D03*
Y8582500D02*
D03*
X4140000Y8587500D02*
D03*
Y9347500D02*
D03*
Y9597500D02*
D03*
X3640000D02*
D03*
Y9347500D02*
D03*
Y8587500D02*
D03*
X3175000Y8585000D02*
D03*
Y9345000D02*
D03*
Y9595000D02*
D03*
X2675000D02*
D03*
Y9345000D02*
D03*
Y8585000D02*
D03*
X2210000Y8582500D02*
D03*
Y9342500D02*
D03*
Y9592500D02*
D03*
X1710000D02*
D03*
Y9342500D02*
D03*
Y8582500D02*
D03*
X4825000Y1961000D02*
D03*
Y1707000D02*
D03*
Y641000D02*
D03*
X6665000Y895000D02*
D03*
Y641000D02*
D03*
X4825000Y895000D02*
D03*
X6665000Y1707000D02*
D03*
Y1961000D02*
D03*
Y4158500D02*
D03*
Y3904500D02*
D03*
X4825000Y3092500D02*
D03*
X6665000Y2838500D02*
D03*
Y3092500D02*
D03*
X4825000Y2838500D02*
D03*
Y3904500D02*
D03*
Y4158500D02*
D03*
X975000Y2925000D02*
D03*
Y3525000D02*
D03*
Y3225000D02*
D03*
Y3825000D02*
D03*
X9612600Y6379000D02*
D03*
Y5871000D02*
D03*
Y6125000D02*
D03*
X675000Y7075000D02*
D03*
Y6775000D02*
D03*
Y7675000D02*
D03*
Y7375000D02*
D03*
Y6475000D02*
D03*
Y5275000D02*
D03*
Y4975000D02*
D03*
Y5875000D02*
D03*
Y5575000D02*
D03*
X975000Y4975000D02*
D03*
Y5275000D02*
D03*
Y5575000D02*
D03*
Y5875000D02*
D03*
Y6175000D02*
D03*
Y6475000D02*
D03*
Y6775000D02*
D03*
Y7075000D02*
D03*
Y7375000D02*
D03*
Y7675000D02*
D03*
X675000Y3525000D02*
D03*
Y3225000D02*
D03*
Y2925000D02*
D03*
Y2625000D02*
D03*
X975000D02*
D03*
X675000Y3825000D02*
D03*
D70*
X1940000Y932500D02*
D03*
X1180000D02*
D03*
X930000D02*
D03*
Y432500D02*
D03*
X1180000D02*
D03*
X1940000D02*
D03*
X6590000Y7014000D02*
D03*
X7860000D02*
D03*
X9130000Y5236000D02*
D03*
X7860000D02*
D03*
X4812000Y7014000D02*
D03*
X5066000D02*
D03*
X5574000D02*
D03*
X5828000D02*
D03*
X6082000D02*
D03*
X6336000D02*
D03*
X6844000D02*
D03*
X7098000D02*
D03*
X7352000D02*
D03*
X7606000D02*
D03*
X8114000D02*
D03*
X8368000D02*
D03*
X8622000D02*
D03*
X8876000D02*
D03*
X9384000D02*
D03*
X9638000D02*
D03*
Y5236000D02*
D03*
X9384000D02*
D03*
X8876000D02*
D03*
X8622000D02*
D03*
X8368000D02*
D03*
X8114000D02*
D03*
X7606000D02*
D03*
X7352000D02*
D03*
X7098000D02*
D03*
X6844000D02*
D03*
X6336000D02*
D03*
X6082000D02*
D03*
X5828000D02*
D03*
X5574000D02*
D03*
X5066000D02*
D03*
X4812000D02*
D03*
X5320000D02*
D03*
X6590000D02*
D03*
X5320000Y7014000D02*
D03*
X9130000D02*
D03*
X8958000Y880000D02*
D03*
X7688000D02*
D03*
X7942000D02*
D03*
X8196000D02*
D03*
X8450000D02*
D03*
X8704000D02*
D03*
X9212000D02*
D03*
X8572000Y3760000D02*
D03*
X8318000D02*
D03*
D71*
X256500Y5189000D02*
D03*
X256500Y7459000D02*
D03*
Y3609000D02*
D03*
X256500Y2839000D02*
D03*
D72*
X5565000Y3360000D02*
D03*
X3910000Y-992500D02*
D03*
X3092500Y1235000D02*
D03*
X955000Y637500D02*
D03*
X7155000Y5875000D02*
D03*
X4317500Y5580000D02*
D03*
X4140000Y5471500D02*
D03*
X3490000D02*
D03*
Y5756268D02*
D03*
X3154366Y3851641D02*
D03*
X3835200Y3360200D02*
D03*
X7487500Y8577500D02*
D03*
X4925000Y8492500D02*
D03*
X9662500Y8380000D02*
D03*
X6012500Y1287500D02*
D03*
X667500Y4527500D02*
D03*
X3215000Y6647500D02*
D03*
X5640000Y8540000D02*
D03*
X5235000Y4305000D02*
D03*
X5360000Y4431500D02*
D03*
X1517700Y1517700D02*
D03*
X9130000Y9510000D02*
D03*
X7090000Y9520000D02*
D03*
X1080000Y4090000D02*
D03*
X4570000Y7980000D02*
D03*
X9430000Y2965000D02*
D03*
X3350000Y2005000D02*
D03*
X3050000Y2340000D02*
D03*
X3550000Y1690000D02*
D03*
X7497500Y360000D02*
D03*
X2345000Y2380000D02*
D03*
X7260000Y3367500D02*
D03*
X1230000Y7660000D02*
D03*
X5190000Y4800000D02*
D03*
X3890000Y6200000D02*
D03*
X3400000Y6810000D02*
D03*
X5220000Y5950000D02*
D03*
X5370000Y6130000D02*
D03*
X5540000Y4550000D02*
D03*
X5520000Y8950000D02*
D03*
X5980000Y2630000D02*
D03*
X8120000Y9520000D02*
D03*
X6150000Y200000D02*
D03*
D73*
X9575000Y5555001D02*
D03*
X4874999Y6695000D02*
D03*
X9575000D02*
D03*
X4874999Y5555001D02*
D03*
D74*
X250000Y250000D02*
D03*
Y9725000D02*
D03*
X9750000Y250000D02*
D03*
Y9750000D02*
D03*
%TF.MD5,c78ff9a8bd361d597e642fb825506370*%
M02*
