M48
;Layer_Color=9474304
;FILE_FORMAT=4:4
METRIC,LZ
;TYPE=PLATED
T1F00S00C0.7112
T2F00S00C1.1000
T3F00S00C2.1000
T4F00S00C3.0000
%
T01
X000955Y0006375
X0030925Y001235
X00391Y-0009925
X00615Y0002
X0060125Y0012875
X0074975Y00036
X00943Y002965
X00726Y0033675
X005565Y00336
X00598Y00263
X00554Y00455
X00536Y0044315
X005235Y004305
X00519Y0048
X0038352Y0033602
X00315437Y00385164
X00305Y00234
X00335Y002005
X00355Y00169
X002345Y00238
X0015177Y0015177
X00108Y00409
X0006675Y0045275
X00123Y00766
X003215Y0066475
X0034Y00681
X00389Y0062
X00349Y00575627
Y0054715
X00414
X0043175Y00558
X00522Y00595
X00537Y00613
X00457Y00798
X004925Y0084925
X00564Y00854
X00552Y00895
X0074875Y0085775
X007155Y005875
X0096625Y00838
X00913Y00951
X00812Y00952
X00709
T02
X00093Y0004325
X00118
Y0009325
X00093
X00194
Y0004325
X004825Y000641
Y000895
X006665
Y000641
X007688Y00088
X007942
X008196
X00845
X008704
X008958
X009212
X009384Y005236
X009638
X00913
X008876
X008622
X008368
X008114
X00786
X007606
X007352
X007098
X006844
X00659
X006336
X006082
X005828
X005574
X006665Y0041585
Y0039045
Y0030925
Y0028385
Y001961
Y001707
X008318Y00376
X008572
X004825Y0039045
Y0041585
Y0030925
Y0028385
Y001961
Y001707
X004812Y005236
X005066
X00532
X000975Y005275
X000675
Y004975
X000975
Y003825
Y003525
X000675
Y003825
Y003225
X000975
Y002925
X000675
Y002625
X000975
Y005575
X000675
Y005875
Y006175
X000975
Y005875
Y006475
X000675
Y006775
Y007075
X000975
Y006775
Y007375
X000675
Y007675
X000975
X0007475Y0085825
X0012475
Y0093425
X0007475
X00171
X00221
X002675Y009345
X003175
X00364Y0093475
X00414
Y0085875
X00364
X003175Y008585
X002675
X00221Y0085825
X00171
X004812Y007014
X005066
X00532
X005574
X005828
X006082
X006336
X00659
X006844
X007098
X007352
X007606
X00786
X008114
X008368
X008622
X008876
X00913
X009384
X009638
X0096126Y006379
Y006125
Y005871
X00414Y0095975
X00364
X003175Y009595
X002675
X00221Y0095925
X00171
X0012475
X0007475
T03
X004875Y005555
Y006695
X009575
Y005555
T04
X00025Y00025
X00975
X0002565Y002839
X0002565Y003609
X0002565Y005189
X0002565Y007459
X00975Y00975
X00025Y009725
M30
