%TF.GenerationSoftware,Altium Limited,Altium Designer,23.4.1 (23)*%
G04 Layer_Color=32896*
%FSLAX45Y45*%
%MOMM*%
%TF.SameCoordinates,FC27E5CA-6F0E-4163-AE28-EC5EA92855B9*%
%TF.FilePolarity,Positive*%
%TF.FileFunction,Legend,Bot*%
%TF.Part,Single*%
G01*
G75*
%TA.AperFunction,NonConductor*%
%ADD22C,0.20000*%
G36*
X489876Y1476591D02*
X491427Y1474335D01*
X493259Y1472080D01*
X494951Y1470106D01*
X496643Y1468414D01*
X497911Y1467005D01*
X498475Y1466582D01*
X498898Y1466159D01*
X499039Y1466018D01*
X499180Y1465877D01*
X502140Y1463480D01*
X505101Y1461225D01*
X507920Y1459251D01*
X510740Y1457701D01*
X513136Y1456291D01*
X514123Y1455727D01*
X514969Y1455304D01*
X515674Y1454881D01*
X516237Y1454740D01*
X516519Y1454458D01*
X516660D01*
Y1442899D01*
X514546Y1443745D01*
X512431Y1444731D01*
X510317Y1445718D01*
X508343Y1446705D01*
X506652Y1447551D01*
X505242Y1448256D01*
X504396Y1448820D01*
X504255Y1448961D01*
X504114D01*
X501577Y1450511D01*
X499321Y1452062D01*
X497347Y1453472D01*
X495797Y1454740D01*
X494387Y1455727D01*
X493541Y1456573D01*
X492836Y1457137D01*
X492695Y1457278D01*
Y1381013D01*
X480713D01*
Y1478987D01*
X488466D01*
X489876Y1476591D01*
D02*
G37*
G36*
X619287Y1381013D02*
X584185D01*
X580943Y1381154D01*
X577982Y1381295D01*
X575304Y1381577D01*
X573048Y1381859D01*
X571075Y1382141D01*
X569665Y1382282D01*
X569242Y1382423D01*
X568819Y1382564D01*
X568537D01*
X566000Y1383269D01*
X563744Y1384114D01*
X561771Y1384819D01*
X560079Y1385665D01*
X558669Y1386370D01*
X557683Y1386934D01*
X557119Y1387357D01*
X556837Y1387498D01*
X555004Y1388766D01*
X553454Y1390317D01*
X551903Y1391727D01*
X550634Y1393136D01*
X549506Y1394405D01*
X548661Y1395392D01*
X548097Y1396097D01*
X547956Y1396379D01*
X546546Y1398634D01*
X545136Y1401031D01*
X544009Y1403286D01*
X543163Y1405542D01*
X542317Y1407515D01*
X541753Y1409066D01*
X541612Y1409630D01*
X541471Y1410053D01*
X541330Y1410335D01*
Y1410476D01*
X540484Y1413859D01*
X539779Y1417242D01*
X539357Y1420485D01*
X538934Y1423586D01*
X538793Y1426264D01*
Y1427392D01*
X538652Y1428379D01*
Y1429084D01*
Y1429789D01*
Y1430071D01*
Y1430212D01*
X538793Y1435004D01*
X539216Y1439375D01*
X539920Y1443322D01*
X540202Y1445154D01*
X540625Y1446705D01*
X541048Y1448256D01*
X541330Y1449524D01*
X541612Y1450652D01*
X542035Y1451639D01*
X542176Y1452485D01*
X542458Y1453049D01*
X542599Y1453331D01*
Y1453472D01*
X544150Y1457137D01*
X545982Y1460379D01*
X547956Y1463198D01*
X549788Y1465595D01*
X551480Y1467569D01*
X552890Y1468978D01*
X553454Y1469401D01*
X553876Y1469824D01*
X554017Y1469965D01*
X554158Y1470106D01*
X556414Y1471939D01*
X558810Y1473348D01*
X561207Y1474617D01*
X563462Y1475604D01*
X565436Y1476309D01*
X566987Y1476732D01*
X567551Y1477014D01*
X567973D01*
X568255Y1477155D01*
X568396D01*
X570793Y1477577D01*
X573612Y1478000D01*
X576432Y1478282D01*
X579251Y1478423D01*
X581789Y1478564D01*
X619287D01*
Y1381013D01*
D02*
G37*
%LPC*%
G36*
X606317Y1467005D02*
X583762D01*
X581929Y1466864D01*
X580097D01*
X578405Y1466723D01*
X575586Y1466300D01*
X573330Y1466018D01*
X571498Y1465595D01*
X570229Y1465172D01*
X569524Y1465031D01*
X569242Y1464890D01*
X566705Y1463621D01*
X564308Y1462071D01*
X562194Y1460238D01*
X560361Y1458406D01*
X558951Y1456714D01*
X557824Y1455304D01*
X557542Y1454740D01*
X557260Y1454317D01*
X556978Y1454035D01*
Y1453894D01*
X556132Y1452344D01*
X555286Y1450511D01*
X554017Y1446846D01*
X553172Y1442899D01*
X552467Y1439093D01*
X552326Y1437401D01*
X552185Y1435709D01*
X552044Y1434300D01*
Y1433031D01*
X551903Y1431903D01*
Y1431198D01*
Y1430634D01*
Y1430493D01*
X552044Y1426546D01*
X552326Y1422881D01*
X552749Y1419639D01*
X553172Y1416819D01*
X553454Y1415692D01*
X553735Y1414705D01*
X554017Y1413718D01*
X554158Y1413013D01*
X554299Y1412449D01*
X554440Y1412026D01*
X554581Y1411744D01*
Y1411603D01*
X555568Y1408925D01*
X556696Y1406529D01*
X557965Y1404414D01*
X559092Y1402581D01*
X560079Y1401172D01*
X560925Y1400185D01*
X561489Y1399621D01*
X561630Y1399339D01*
X563040Y1398211D01*
X564449Y1397225D01*
X565859Y1396379D01*
X567269Y1395533D01*
X568537Y1394969D01*
X569524Y1394546D01*
X570229Y1394405D01*
X570511Y1394264D01*
X572625Y1393700D01*
X575163Y1393277D01*
X577700Y1392995D01*
X580097Y1392854D01*
X582211Y1392713D01*
X583198Y1392573D01*
X606317D01*
Y1467005D01*
D02*
G37*
%LPD*%
D22*
X654800Y846100D02*
Y1350000D01*
X583612Y1092768D02*
X644800Y1093600D01*
X840000Y1340000D02*
X842800Y846100D01*
X1573000Y1100000D02*
X1633650Y1100000D01*
X654800Y846100D02*
X1560000D01*
Y1350000D01*
X654800D02*
X1560000D01*
X50000Y3720000D02*
Y3742500D01*
X285000Y3482500D02*
X310000Y3482900D01*
X282500Y4270000D02*
X310000Y4270300D01*
X47500Y4010000D02*
Y4040000D01*
X310000Y4270300D02*
X1636200D01*
Y3482900D02*
Y4270300D01*
X310000Y3482900D02*
X1636200D01*
X141875Y3605625D02*
X173125Y3574375D01*
X138966Y4154071D02*
X165061Y4179917D01*
X47500Y4010000D02*
X50000Y3742500D01*
X141875Y3605625D02*
X265000Y3482500D01*
X285000D01*
X50000Y3697500D02*
X141875Y3605625D01*
X50000Y3697500D02*
Y3720000D01*
X138966Y4154071D02*
X257500Y4270000D01*
X282500D01*
X47500Y4065000D02*
X257500Y4270000D01*
X47500Y4040000D02*
Y4065000D01*
X1184996Y2012497D02*
X1925002D01*
Y2587504D01*
X1184996D02*
X1925002D01*
X1184996Y2012497D02*
Y2587504D01*
%TF.MD5,421d4cc53687f5873a18d68a6174b4ae*%
M02*
