%TF.GenerationSoftware,Altium Limited,Altium Designer,23.4.1 (23)*%
G04 Layer_Color=8388736*
%FSLAX45Y45*%
%MOMM*%
%TF.SameCoordinates,F753716F-663C-4D52-ACFB-96E6D702F145*%
%TF.FilePolarity,Negative*%
%TF.FileFunction,Soldermask,Top*%
%TF.Part,Single*%
G01*
G75*
%TA.AperFunction,NonConductor*%
%ADD22C,2.00000*%
%TA.AperFunction,SMDPad,CuDef*%
%ADD23O,1.60320X2.50320*%
%ADD24R,1.15320X1.60320*%
%TA.AperFunction,ComponentPad*%
%ADD25C,6.20320*%
%ADD26R,6.20320X6.20320*%
%ADD27C,2.80320*%
%ADD28C,3.20320*%
%ADD29O,1.95320X2.70320*%
D22*
X110000Y3509600D02*
X480200Y3879800D01*
X110000Y720000D02*
Y3509600D01*
Y720000D02*
X452500Y550000D01*
D23*
X1186000Y945000D02*
D03*
X1440000D02*
D03*
X1186000Y1840000D02*
D03*
X1440000D02*
D03*
D24*
X1675000Y1640000D02*
D03*
X1865000D02*
D03*
Y1890000D02*
D03*
X1675000D02*
D03*
Y1380000D02*
D03*
X1865000D02*
D03*
D25*
X1200200Y3879800D02*
D03*
X1530200Y3030200D02*
D03*
D26*
X480200Y3879800D02*
D03*
X810200Y3030200D02*
D03*
D27*
X380000Y1090000D02*
D03*
X1780000Y1100000D02*
D03*
D28*
X1000000Y550000D02*
D03*
X452500D02*
D03*
X1547500D02*
D03*
D29*
X1430000Y2250000D02*
D03*
X1680000D02*
D03*
%TF.MD5,77bc59338e2c2acb7e691027e91dd7db*%
M02*
