%TF.GenerationSoftware,Altium Limited,Altium Designer,23.4.1 (23)*%
G04 Layer_Color=32896*
%FSLAX45Y45*%
%MOMM*%
%TF.SameCoordinates,F753716F-663C-4D52-ACFB-96E6D702F145*%
%TF.FilePolarity,Positive*%
%TF.FileFunction,Legend,Bot*%
%TF.Part,Single*%
G01*
G75*
%TA.AperFunction,NonConductor*%
%ADD21C,0.20000*%
G36*
X1717780Y1917921D02*
X1744282D01*
Y1906784D01*
X1717780D01*
Y1880000D01*
X1706502D01*
Y1906784D01*
X1680000D01*
Y1917921D01*
X1706502D01*
Y1944423D01*
X1717780D01*
Y1917921D01*
D02*
G37*
G36*
X1447075Y1900000D02*
X1410000D01*
Y1911982D01*
X1447075D01*
Y1900000D01*
D02*
G37*
G36*
X459876Y1476591D02*
X461427Y1474335D01*
X463259Y1472080D01*
X464951Y1470106D01*
X466643Y1468414D01*
X467911Y1467005D01*
X468475Y1466582D01*
X468898Y1466159D01*
X469039Y1466018D01*
X469180Y1465877D01*
X472141Y1463480D01*
X475101Y1461225D01*
X477920Y1459251D01*
X480740Y1457701D01*
X483136Y1456291D01*
X484123Y1455727D01*
X484969Y1455304D01*
X485674Y1454881D01*
X486238Y1454740D01*
X486519Y1454458D01*
X486660D01*
Y1442899D01*
X484546Y1443745D01*
X482431Y1444731D01*
X480317Y1445718D01*
X478343Y1446705D01*
X476652Y1447551D01*
X475242Y1448256D01*
X474396Y1448820D01*
X474255Y1448961D01*
X474114D01*
X471577Y1450511D01*
X469321Y1452062D01*
X467348Y1453472D01*
X465797Y1454740D01*
X464387Y1455727D01*
X463541Y1456573D01*
X462837Y1457137D01*
X462696Y1457278D01*
Y1381013D01*
X450713D01*
Y1478987D01*
X458466D01*
X459876Y1476591D01*
D02*
G37*
G36*
X589287Y1381013D02*
X554185D01*
X550943Y1381154D01*
X547982Y1381295D01*
X545304Y1381577D01*
X543048Y1381859D01*
X541075Y1382141D01*
X539665Y1382282D01*
X539242Y1382423D01*
X538819Y1382564D01*
X538537D01*
X536000Y1383269D01*
X533744Y1384114D01*
X531771Y1384819D01*
X530079Y1385665D01*
X528670Y1386370D01*
X527683Y1386934D01*
X527119Y1387357D01*
X526837Y1387498D01*
X525004Y1388766D01*
X523454Y1390317D01*
X521903Y1391727D01*
X520634Y1393136D01*
X519506Y1394405D01*
X518661Y1395392D01*
X518097Y1396097D01*
X517956Y1396379D01*
X516546Y1398634D01*
X515136Y1401031D01*
X514009Y1403286D01*
X513163Y1405542D01*
X512317Y1407515D01*
X511753Y1409066D01*
X511612Y1409630D01*
X511471Y1410053D01*
X511330Y1410335D01*
Y1410476D01*
X510484Y1413859D01*
X509780Y1417242D01*
X509357Y1420485D01*
X508934Y1423586D01*
X508793Y1426264D01*
Y1427392D01*
X508652Y1428379D01*
Y1429084D01*
Y1429789D01*
Y1430071D01*
Y1430212D01*
X508793Y1435004D01*
X509216Y1439375D01*
X509920Y1443322D01*
X510202Y1445154D01*
X510625Y1446705D01*
X511048Y1448256D01*
X511330Y1449524D01*
X511612Y1450652D01*
X512035Y1451639D01*
X512176Y1452485D01*
X512458Y1453049D01*
X512599Y1453331D01*
Y1453472D01*
X514150Y1457137D01*
X515982Y1460379D01*
X517956Y1463198D01*
X519788Y1465595D01*
X521480Y1467569D01*
X522890Y1468978D01*
X523454Y1469401D01*
X523877Y1469824D01*
X524017Y1469965D01*
X524158Y1470106D01*
X526414Y1471939D01*
X528810Y1473348D01*
X531207Y1474617D01*
X533462Y1475604D01*
X535436Y1476309D01*
X536987Y1476732D01*
X537551Y1477014D01*
X537974D01*
X538255Y1477155D01*
X538396D01*
X540793Y1477577D01*
X543612Y1478000D01*
X546432Y1478282D01*
X549251Y1478423D01*
X551789Y1478564D01*
X589287D01*
Y1381013D01*
D02*
G37*
%LPC*%
G36*
X576317Y1467005D02*
X553762D01*
X551930Y1466864D01*
X550097D01*
X548405Y1466723D01*
X545586Y1466300D01*
X543330Y1466018D01*
X541498Y1465595D01*
X540229Y1465172D01*
X539524Y1465031D01*
X539242Y1464890D01*
X536705Y1463621D01*
X534308Y1462071D01*
X532194Y1460238D01*
X530361Y1458406D01*
X528951Y1456714D01*
X527824Y1455304D01*
X527542Y1454740D01*
X527260Y1454317D01*
X526978Y1454035D01*
Y1453894D01*
X526132Y1452344D01*
X525286Y1450511D01*
X524017Y1446846D01*
X523172Y1442899D01*
X522467Y1439093D01*
X522326Y1437401D01*
X522185Y1435709D01*
X522044Y1434300D01*
Y1433031D01*
X521903Y1431903D01*
Y1431198D01*
Y1430634D01*
Y1430493D01*
X522044Y1426546D01*
X522326Y1422881D01*
X522749Y1419639D01*
X523172Y1416819D01*
X523454Y1415692D01*
X523736Y1414705D01*
X524017Y1413718D01*
X524158Y1413013D01*
X524299Y1412449D01*
X524440Y1412026D01*
X524581Y1411744D01*
Y1411603D01*
X525568Y1408925D01*
X526696Y1406529D01*
X527965Y1404414D01*
X529092Y1402581D01*
X530079Y1401172D01*
X530925Y1400185D01*
X531489Y1399621D01*
X531630Y1399339D01*
X533040Y1398211D01*
X534449Y1397225D01*
X535859Y1396379D01*
X537269Y1395533D01*
X538537Y1394969D01*
X539524Y1394546D01*
X540229Y1394405D01*
X540511Y1394264D01*
X542626Y1393700D01*
X545163Y1393277D01*
X547700Y1392995D01*
X550097Y1392854D01*
X552211Y1392713D01*
X553198Y1392573D01*
X576317D01*
Y1467005D01*
D02*
G37*
%LPD*%
D21*
X50000Y3720000D02*
Y3742500D01*
X285000Y3482500D02*
X310000Y3482900D01*
X282500Y4270000D02*
X310000Y4270300D01*
X47500Y4010000D02*
Y4040000D01*
X310000Y4270300D02*
X1636200D01*
Y3482900D02*
Y4270300D01*
X310000Y3482900D02*
X1636200D01*
X141875Y3605625D02*
X173125Y3574375D01*
X138966Y4154071D02*
X165061Y4179917D01*
X47500Y4010000D02*
X50000Y3742500D01*
X141875Y3605625D02*
X265000Y3482500D01*
X285000D01*
X50000Y3697500D02*
X141875Y3605625D01*
X50000Y3697500D02*
Y3720000D01*
X138966Y4154071D02*
X257500Y4270000D01*
X282500D01*
X47500Y4065000D02*
X257500Y4270000D01*
X47500Y4040000D02*
Y4065000D01*
X624800Y846100D02*
Y1350000D01*
X553613Y1092768D02*
X614800Y1093600D01*
X810000Y1340000D02*
X812800Y846100D01*
X1543000Y1100000D02*
X1603650Y1100000D01*
X624800Y846100D02*
X1530000D01*
Y1350000D01*
X624800D02*
X1530000D01*
X1184996Y2012497D02*
X1925002D01*
Y2587504D01*
X1184996D02*
X1925002D01*
X1184996Y2012497D02*
Y2587504D01*
%TF.MD5,a9f8e1edaed5af4208e229c014733855*%
M02*
