%TF.GenerationSoftware,Altium Limited,Altium Designer,23.4.1 (23)*%
G04 Layer_Color=2752767*
%FSLAX45Y45*%
%MOMM*%
%TF.SameCoordinates,F753716F-663C-4D52-ACFB-96E6D702F145*%
%TF.FilePolarity,Positive*%
%TF.FileFunction,Drawing*%
%TF.Part,Single*%
G01*
G75*
%TA.AperFunction,NonConductor*%
%ADD35C,0.16933*%
%ADD37C,0.12700*%
D35*
X1251000Y3879800D02*
G03*
X1251000Y3879800I-50800J0D01*
G01*
X531000D02*
G03*
X531000Y3879800I-50800J0D01*
G01*
X861000Y3030200D02*
G03*
X861000Y3030200I-50800J0D01*
G01*
X1581000D02*
G03*
X1581000Y3030200I-50800J0D01*
G01*
D37*
X380000Y1039200D02*
X405400Y1064600D01*
X430800D01*
X405400Y1090000D01*
X430800Y1115400D01*
X405400D01*
X380000Y1140800D01*
X354600Y1115400D01*
X329200D01*
X354600Y1090000D01*
X329200Y1064600D01*
X354600D01*
X380000Y1039200D01*
X1780000Y1049200D02*
X1805400Y1074600D01*
X1830800D01*
X1805400Y1100000D01*
X1830800Y1125400D01*
X1805400D01*
X1780000Y1150800D01*
X1754600Y1125400D01*
X1729200D01*
X1754600Y1100000D01*
X1729200Y1074600D01*
X1754600D01*
X1780000Y1049200D01*
X949200Y499200D02*
Y600800D01*
X1050800D01*
Y499200D01*
X949200D01*
X401700D02*
Y600800D01*
X503300D01*
Y499200D01*
X401700D01*
X1496700D02*
Y600800D01*
X1598300D01*
Y499200D01*
X1496700D01*
X1430000Y2199200D02*
X1379200Y2300800D01*
X1480800D01*
X1430000Y2199200D01*
X1680000D02*
X1629200Y2300800D01*
X1730800D01*
X1680000Y2199200D01*
%TF.MD5,ef6b1ee48b0d676b6fdcc94dead7af66*%
M02*
