%TF.GenerationSoftware,Altium Limited,Altium Designer,23.4.1 (23)*%
G04 Layer_Color=65535*
%FSLAX45Y45*%
%MOMM*%
%TF.SameCoordinates,FC27E5CA-6F0E-4163-AE28-EC5EA92855B9*%
%TF.FilePolarity,Positive*%
%TF.FileFunction,Legend,Top*%
%TF.Part,Single*%
G01*
G75*
%TA.AperFunction,NonConductor*%
%ADD20C,0.25000*%
%ADD21C,0.60000*%
%ADD22C,0.20000*%
G36*
X136299Y2429432D02*
X137991D01*
X139823Y2429291D01*
X141797Y2429150D01*
X146308Y2428727D01*
X150960Y2428022D01*
X155471Y2427177D01*
X157586Y2426613D01*
X159700Y2425908D01*
X159841D01*
X160123Y2425767D01*
X160687Y2425485D01*
X161392Y2425203D01*
X162379Y2424921D01*
X163365Y2424357D01*
X165762Y2423229D01*
X168299Y2421820D01*
X171119Y2419987D01*
X173656Y2417872D01*
X176053Y2415335D01*
Y2415194D01*
X176335Y2415053D01*
X176617Y2414630D01*
X176899Y2414066D01*
X177321Y2413361D01*
X177885Y2412657D01*
X178872Y2410542D01*
X179859Y2408005D01*
X180846Y2405044D01*
X181410Y2401520D01*
X181692Y2397714D01*
Y2396304D01*
X181551Y2395317D01*
X181410Y2394190D01*
X181128Y2392780D01*
X180846Y2391229D01*
X180423Y2389538D01*
X179859Y2387846D01*
X179295Y2386013D01*
X178449Y2384181D01*
X177462Y2382348D01*
X176335Y2380515D01*
X174925Y2378683D01*
X173374Y2376991D01*
X171683Y2375441D01*
X171542Y2375300D01*
X171119Y2375018D01*
X170414Y2374595D01*
X169286Y2373890D01*
X168017Y2373185D01*
X166326Y2372480D01*
X164352Y2371493D01*
X162097Y2370648D01*
X159559Y2369802D01*
X156599Y2368956D01*
X153357Y2368110D01*
X149691Y2367405D01*
X145744Y2366700D01*
X141515Y2366277D01*
X136863Y2365996D01*
X131929Y2365855D01*
X131788D01*
X131224D01*
X130237D01*
X129110D01*
X127559Y2365996D01*
X125867D01*
X124035Y2366136D01*
X121920Y2366277D01*
X117550Y2366700D01*
X112898Y2367405D01*
X108246Y2368251D01*
X106132Y2368815D01*
X104017Y2369379D01*
X103876D01*
X103594Y2369520D01*
X103030Y2369802D01*
X102325Y2370084D01*
X101339Y2370366D01*
X100352Y2370929D01*
X97955Y2372057D01*
X95418Y2373467D01*
X92739Y2375300D01*
X90061Y2377414D01*
X87806Y2379952D01*
Y2380093D01*
X87524Y2380233D01*
X87242Y2380656D01*
X86960Y2381220D01*
X86396Y2381925D01*
X85973Y2382771D01*
X84845Y2384886D01*
X83858Y2387423D01*
X82872Y2390383D01*
X82308Y2393908D01*
X82026Y2397714D01*
Y2398983D01*
X82167Y2400533D01*
X82449Y2402366D01*
X82872Y2404480D01*
X83435Y2406736D01*
X84140Y2409132D01*
X85268Y2411388D01*
Y2411529D01*
X85409Y2411670D01*
X85832Y2412375D01*
X86537Y2413502D01*
X87524Y2414912D01*
X88933Y2416463D01*
X90484Y2418154D01*
X92317Y2419705D01*
X94431Y2421256D01*
X94713Y2421397D01*
X95418Y2421961D01*
X96687Y2422524D01*
X98519Y2423511D01*
X100634Y2424357D01*
X103030Y2425485D01*
X105850Y2426472D01*
X108951Y2427317D01*
X109092D01*
X109374Y2427458D01*
X109797Y2427599D01*
X110502Y2427740D01*
X111348Y2427881D01*
X112334Y2428022D01*
X113603Y2428304D01*
X115013Y2428445D01*
X116563Y2428727D01*
X118255Y2428868D01*
X120229Y2429009D01*
X122202Y2429291D01*
X124458Y2429432D01*
X126713D01*
X129251Y2429573D01*
X131929D01*
X132070D01*
X132634D01*
X133621D01*
X134749D01*
X136299Y2429432D01*
D02*
G37*
G36*
X180000Y2334700D02*
X166326D01*
Y2348374D01*
X180000D01*
Y2334700D01*
D02*
G37*
G36*
Y2285220D02*
X103735D01*
X103876Y2285079D01*
X104440Y2284374D01*
X105286Y2283528D01*
X106273Y2282118D01*
X107541Y2280568D01*
X108951Y2278594D01*
X110502Y2276339D01*
X112052Y2273801D01*
Y2273660D01*
X112193Y2273519D01*
X112757Y2272673D01*
X113462Y2271264D01*
X114308Y2269572D01*
X115295Y2267598D01*
X116281Y2265484D01*
X117268Y2263369D01*
X118114Y2261255D01*
X106555D01*
Y2261396D01*
X106273Y2261678D01*
X106132Y2262242D01*
X105709Y2262946D01*
X105286Y2263792D01*
X104722Y2264779D01*
X103312Y2267176D01*
X101762Y2269995D01*
X99788Y2272814D01*
X97532Y2275775D01*
X95136Y2278735D01*
X94995Y2278876D01*
X94854Y2279017D01*
X94431Y2279440D01*
X94008Y2280004D01*
X92598Y2281273D01*
X90907Y2282964D01*
X88933Y2284656D01*
X86678Y2286488D01*
X84422Y2288039D01*
X82026Y2289449D01*
Y2297202D01*
X180000D01*
Y2285220D01*
D02*
G37*
G36*
Y2179915D02*
Y2168497D01*
X109233Y2141853D01*
Y2154541D01*
X151665Y2169765D01*
X151806D01*
X151947Y2169906D01*
X152370Y2170047D01*
X152793Y2170188D01*
X154202Y2170611D01*
X156035Y2171175D01*
X158150Y2171880D01*
X160546Y2172726D01*
X163224Y2173431D01*
X165903Y2174276D01*
X165621Y2174417D01*
X164916Y2174558D01*
X163788Y2174981D01*
X162097Y2175404D01*
X160264Y2176109D01*
X157868Y2176814D01*
X155330Y2177801D01*
X152511Y2178787D01*
X109233Y2194435D01*
Y2206840D01*
X180000Y2179915D01*
D02*
G37*
G36*
Y2080954D02*
X137145D01*
X137004D01*
X136863D01*
X135876D01*
X134608D01*
X133057Y2080813D01*
X131224Y2080672D01*
X129392Y2080390D01*
X127700Y2079967D01*
X126149Y2079544D01*
X126008D01*
X125585Y2079263D01*
X124881Y2078840D01*
X124035Y2078417D01*
X123189Y2077712D01*
X122202Y2076866D01*
X121215Y2075738D01*
X120370Y2074470D01*
X120229Y2074329D01*
X119947Y2073906D01*
X119665Y2073060D01*
X119242Y2072073D01*
X118819Y2070945D01*
X118396Y2069536D01*
X118255Y2067844D01*
X118114Y2066152D01*
Y2065447D01*
X118255Y2064884D01*
X118396Y2063474D01*
X118678Y2061641D01*
X119383Y2059668D01*
X120229Y2057412D01*
X121356Y2055157D01*
X123048Y2053042D01*
X123330Y2052760D01*
X124035Y2052196D01*
X124599Y2051773D01*
X125304Y2051350D01*
X126149Y2050787D01*
X127136Y2050364D01*
X128264Y2049800D01*
X129674Y2049236D01*
X131224Y2048813D01*
X132916Y2048390D01*
X134749Y2048108D01*
X136722Y2047826D01*
X139119Y2047544D01*
X141515D01*
X180000D01*
Y2035562D01*
X109233D01*
Y2046276D01*
X119383D01*
X119242Y2046417D01*
X118819Y2046698D01*
X118255Y2047121D01*
X117550Y2047685D01*
X116704Y2048531D01*
X115718Y2049518D01*
X114590Y2050646D01*
X113462Y2052055D01*
X112475Y2053465D01*
X111348Y2055157D01*
X110361Y2056989D01*
X109515Y2058963D01*
X108810Y2061218D01*
X108246Y2063474D01*
X107823Y2066011D01*
X107682Y2068690D01*
Y2069818D01*
X107823Y2070945D01*
X107964Y2072496D01*
X108246Y2074329D01*
X108669Y2076302D01*
X109233Y2078417D01*
X110079Y2080390D01*
X110220Y2080672D01*
X110502Y2081236D01*
X110925Y2082223D01*
X111629Y2083351D01*
X112475Y2084760D01*
X113603Y2086029D01*
X114731Y2087298D01*
X116140Y2088426D01*
X116281Y2088567D01*
X116845Y2088849D01*
X117550Y2089271D01*
X118537Y2089976D01*
X119947Y2090540D01*
X121356Y2091104D01*
X123048Y2091809D01*
X124881Y2092232D01*
X125022D01*
X125585Y2092373D01*
X126431Y2092514D01*
X127559Y2092655D01*
X129251D01*
X131224Y2092796D01*
X133621Y2092937D01*
X136581D01*
X180000D01*
Y2080954D01*
D02*
G37*
G36*
Y2008214D02*
X179859Y2008073D01*
X179295Y2007932D01*
X178590Y2007650D01*
X177462Y2007227D01*
X176194Y2006804D01*
X174643Y2006522D01*
X172951Y2006240D01*
X171119Y2005958D01*
Y2005817D01*
X171401Y2005676D01*
X172106Y2004830D01*
X173092Y2003562D01*
X174361Y2001870D01*
X175630Y1999755D01*
X177040Y1997641D01*
X178308Y1995385D01*
X179295Y1992989D01*
X179436Y1992707D01*
X179577Y1991861D01*
X180000Y1990592D01*
X180423Y1989042D01*
X180846Y1987068D01*
X181128Y1984813D01*
X181410Y1982275D01*
X181551Y1979738D01*
Y1978610D01*
X181410Y1977764D01*
Y1976777D01*
X181269Y1975650D01*
X180846Y1973112D01*
X180141Y1970293D01*
X179154Y1967191D01*
X177744Y1964372D01*
X175912Y1961835D01*
X175630Y1961553D01*
X174925Y1960848D01*
X173656Y1959861D01*
X171965Y1958733D01*
X169850Y1957605D01*
X167454Y1956619D01*
X164493Y1955914D01*
X163083Y1955773D01*
X161392Y1955632D01*
X161110D01*
X160546D01*
X159559Y1955773D01*
X158291Y1955914D01*
X156740Y1956196D01*
X155189Y1956619D01*
X153498Y1957183D01*
X151947Y1957887D01*
X151806Y1958028D01*
X151242Y1958310D01*
X150396Y1958874D01*
X149409Y1959579D01*
X148282Y1960425D01*
X147154Y1961553D01*
X146026Y1962680D01*
X145039Y1964090D01*
X144898Y1964231D01*
X144616Y1964795D01*
X144053Y1965500D01*
X143489Y1966628D01*
X142925Y1967896D01*
X142220Y1969447D01*
X141656Y1970998D01*
X141092Y1972830D01*
Y1972971D01*
X140951Y1973535D01*
X140669Y1974381D01*
X140528Y1975509D01*
X140246Y1976918D01*
X139964Y1978751D01*
X139542Y1980865D01*
X139260Y1983403D01*
Y1983544D01*
X139119Y1984108D01*
Y1984813D01*
X138978Y1985799D01*
X138837Y1986927D01*
X138555Y1988337D01*
X138414Y1989888D01*
X138132Y1991579D01*
X137427Y1994962D01*
X136722Y1998628D01*
X135876Y2001870D01*
X135453Y2003421D01*
X135030Y2004830D01*
X134889D01*
X134608D01*
X133762Y2004971D01*
X132775D01*
X132211D01*
X131929D01*
X131788D01*
X131647D01*
X130801D01*
X129392Y2004830D01*
X127841Y2004548D01*
X126149Y2004126D01*
X124458Y2003421D01*
X122907Y2002575D01*
X121638Y2001447D01*
X121497Y2001306D01*
X120933Y2000601D01*
X120370Y1999474D01*
X119524Y1998064D01*
X118819Y1996090D01*
X118114Y1993835D01*
X117691Y1991015D01*
X117550Y1987773D01*
Y1986363D01*
X117691Y1984954D01*
X117973Y1982980D01*
X118255Y1981006D01*
X118819Y1978892D01*
X119524Y1976918D01*
X120511Y1975227D01*
X120652Y1975086D01*
X121074Y1974522D01*
X121779Y1973817D01*
X122907Y1972971D01*
X124317Y1972125D01*
X126149Y1971139D01*
X128405Y1970293D01*
X130942Y1969447D01*
X129392Y1957746D01*
X129251D01*
X129110Y1957887D01*
X128687D01*
X128123Y1958028D01*
X126854Y1958451D01*
X125022Y1959015D01*
X123189Y1959720D01*
X121215Y1960566D01*
X119242Y1961694D01*
X117409Y1962962D01*
X117268Y1963103D01*
X116704Y1963667D01*
X115859Y1964513D01*
X114731Y1965641D01*
X113603Y1967191D01*
X112475Y1969024D01*
X111207Y1971139D01*
X110220Y1973535D01*
Y1973676D01*
X110079Y1973817D01*
X109938Y1974240D01*
X109797Y1974804D01*
X109374Y1976213D01*
X108951Y1978187D01*
X108528Y1980443D01*
X108105Y1983262D01*
X107823Y1986222D01*
X107682Y1989606D01*
Y1991156D01*
X107823Y1992707D01*
X107964Y1994822D01*
X108246Y1997218D01*
X108669Y1999614D01*
X109233Y2002011D01*
X109938Y2004267D01*
X110079Y2004548D01*
X110361Y2005253D01*
X110784Y2006240D01*
X111348Y2007509D01*
X112193Y2008919D01*
X113039Y2010328D01*
X114167Y2011597D01*
X115295Y2012725D01*
X115436Y2012866D01*
X115859Y2013148D01*
X116563Y2013571D01*
X117409Y2014134D01*
X118678Y2014839D01*
X119947Y2015403D01*
X121497Y2015967D01*
X123330Y2016390D01*
X123471D01*
X123894Y2016531D01*
X124740Y2016672D01*
X125867Y2016813D01*
X127418D01*
X129251Y2016954D01*
X131647Y2017095D01*
X134326D01*
X150396D01*
X150537D01*
X151101D01*
X151947D01*
X153075D01*
X154343D01*
X155894D01*
X159277Y2017236D01*
X162802D01*
X166326Y2017377D01*
X167876Y2017518D01*
X169286D01*
X170555Y2017659D01*
X171542Y2017800D01*
X171683D01*
X172247Y2017941D01*
X173092Y2018082D01*
X174220Y2018504D01*
X175489Y2018786D01*
X176899Y2019350D01*
X178449Y2020055D01*
X180000Y2020760D01*
Y2008214D01*
D02*
G37*
G36*
X94008Y1891491D02*
X124176D01*
Y1937306D01*
X135735D01*
Y1891491D01*
X180000D01*
Y1878521D01*
X82449D01*
Y1944495D01*
X94008D01*
Y1891491D01*
D02*
G37*
G36*
X149832Y1823966D02*
X150678Y1823684D01*
X151806Y1823261D01*
X153075Y1822838D01*
X154625Y1822274D01*
X156317Y1821569D01*
X158150Y1820724D01*
X162097Y1818750D01*
X166044Y1816213D01*
X168017Y1814662D01*
X169991Y1813111D01*
X171683Y1811420D01*
X173374Y1809446D01*
X173515Y1809305D01*
X173797Y1809023D01*
X174079Y1808318D01*
X174643Y1807613D01*
X175348Y1806486D01*
X176053Y1805358D01*
X176758Y1803807D01*
X177462Y1802256D01*
X178308Y1800424D01*
X179013Y1798450D01*
X179718Y1796336D01*
X180423Y1794080D01*
X180987Y1791684D01*
X181269Y1789146D01*
X181551Y1786468D01*
X181692Y1783648D01*
Y1782098D01*
X181551Y1780970D01*
Y1779701D01*
X181410Y1778151D01*
X181128Y1776459D01*
X180846Y1774485D01*
X180141Y1770397D01*
X179013Y1766168D01*
X177462Y1761939D01*
X176476Y1759965D01*
X175348Y1757992D01*
X175207Y1757851D01*
X175066Y1757569D01*
X174643Y1757005D01*
X174079Y1756441D01*
X173515Y1755595D01*
X172669Y1754609D01*
X171683Y1753481D01*
X170555Y1752353D01*
X169286Y1751225D01*
X168017Y1749957D01*
X164775Y1747419D01*
X160969Y1745023D01*
X156740Y1742908D01*
X156599D01*
X156176Y1742626D01*
X155471Y1742485D01*
X154625Y1742062D01*
X153498Y1741780D01*
X152088Y1741357D01*
X150537Y1740794D01*
X148846Y1740371D01*
X147013Y1739948D01*
X144898Y1739384D01*
X140528Y1738679D01*
X135594Y1738115D01*
X130519Y1737833D01*
X130378D01*
X129815D01*
X128969D01*
X127982Y1737974D01*
X126572D01*
X125163Y1738115D01*
X123330Y1738256D01*
X121497Y1738538D01*
X117409Y1739243D01*
X112898Y1740230D01*
X108387Y1741639D01*
X104017Y1743613D01*
X103876Y1743754D01*
X103453Y1743895D01*
X102889Y1744177D01*
X102184Y1744741D01*
X101198Y1745305D01*
X100070Y1746009D01*
X97532Y1747842D01*
X94713Y1750239D01*
X91894Y1753058D01*
X89074Y1756300D01*
X86678Y1760106D01*
X86537Y1760247D01*
X86396Y1760670D01*
X86114Y1761234D01*
X85691Y1761939D01*
X85268Y1763067D01*
X84845Y1764195D01*
X84281Y1765604D01*
X83717Y1767155D01*
X83154Y1768847D01*
X82590Y1770679D01*
X81744Y1774626D01*
X81039Y1779137D01*
X80757Y1783789D01*
Y1785199D01*
X80898Y1786186D01*
X81039Y1787455D01*
X81180Y1789005D01*
X81321Y1790556D01*
X81744Y1792389D01*
X82590Y1796195D01*
X83858Y1800424D01*
X84704Y1802538D01*
X85691Y1804512D01*
X86960Y1806486D01*
X88228Y1808459D01*
X88369Y1808600D01*
X88510Y1808882D01*
X88933Y1809446D01*
X89638Y1810151D01*
X90343Y1810856D01*
X91330Y1811842D01*
X92458Y1812829D01*
X93585Y1813957D01*
X94995Y1815085D01*
X96687Y1816213D01*
X98378Y1817481D01*
X100211Y1818609D01*
X102325Y1819596D01*
X104440Y1820724D01*
X106695Y1821569D01*
X109233Y1822415D01*
X112193Y1809728D01*
X112052D01*
X111770Y1809587D01*
X111207Y1809305D01*
X110502Y1809023D01*
X109656Y1808741D01*
X108528Y1808318D01*
X106273Y1807190D01*
X103735Y1805781D01*
X101198Y1804089D01*
X98801Y1801975D01*
X96687Y1799719D01*
X96405Y1799437D01*
X95841Y1798591D01*
X95136Y1797182D01*
X94149Y1795349D01*
X93303Y1792952D01*
X92458Y1790274D01*
X91894Y1787032D01*
X91753Y1783507D01*
Y1782380D01*
X91894Y1781675D01*
Y1780688D01*
X92035Y1779560D01*
X92458Y1776882D01*
X93021Y1773922D01*
X94008Y1770820D01*
X95418Y1767578D01*
X97251Y1764618D01*
Y1764477D01*
X97532Y1764336D01*
X98237Y1763349D01*
X99365Y1762080D01*
X101057Y1760529D01*
X103171Y1758697D01*
X105568Y1757005D01*
X108528Y1755454D01*
X111770Y1754045D01*
X111911D01*
X112193Y1753904D01*
X112616Y1753763D01*
X113321Y1753622D01*
X114167Y1753340D01*
X115154Y1753058D01*
X117550Y1752635D01*
X120370Y1752071D01*
X123471Y1751507D01*
X126854Y1751225D01*
X130519Y1751084D01*
X130660D01*
X131083D01*
X131788D01*
X132634D01*
X133621Y1751225D01*
X134889D01*
X136299Y1751366D01*
X137850Y1751507D01*
X141233Y1751930D01*
X144898Y1752635D01*
X148564Y1753481D01*
X152229Y1754609D01*
X152370D01*
X152652Y1754750D01*
X153075Y1755032D01*
X153779Y1755313D01*
X155471Y1756159D01*
X157445Y1757428D01*
X159700Y1758979D01*
X162097Y1760952D01*
X164211Y1763208D01*
X166185Y1765886D01*
Y1766027D01*
X166326Y1766309D01*
X166608Y1766732D01*
X166890Y1767296D01*
X167172Y1768001D01*
X167595Y1768847D01*
X168440Y1770820D01*
X169286Y1773358D01*
X169991Y1776177D01*
X170555Y1779278D01*
X170696Y1782521D01*
Y1783507D01*
X170555Y1784353D01*
Y1785340D01*
X170414Y1786327D01*
X169850Y1788864D01*
X169145Y1791825D01*
X168017Y1794785D01*
X166467Y1797886D01*
X165621Y1799437D01*
X164493Y1800847D01*
X164352Y1800988D01*
X164211Y1801129D01*
X163788Y1801552D01*
X163365Y1802116D01*
X162661Y1802679D01*
X161815Y1803384D01*
X160969Y1804230D01*
X159841Y1804935D01*
X158572Y1805781D01*
X157163Y1806768D01*
X155753Y1807613D01*
X154061Y1808459D01*
X152229Y1809164D01*
X150255Y1809869D01*
X148141Y1810574D01*
X145885Y1811138D01*
X149127Y1824107D01*
X149268D01*
X149832Y1823966D01*
D02*
G37*
G36*
X180000Y1716547D02*
X150396Y1705128D01*
Y1664247D01*
X180000Y1653674D01*
Y1640000D01*
X82449Y1677216D01*
Y1691313D01*
X180000Y1731208D01*
Y1716547D01*
D02*
G37*
G36*
X320000Y2656124D02*
X230359D01*
Y2667135D01*
X320000D01*
Y2656124D01*
D02*
G37*
G36*
X314819Y2639543D02*
X316244D01*
X317798Y2639413D01*
X319482Y2639284D01*
X322980Y2638895D01*
X326607Y2638377D01*
X328291Y2637988D01*
X329845Y2637599D01*
X331270Y2637081D01*
X332566Y2636563D01*
X332695D01*
X332825Y2636434D01*
X333602Y2635915D01*
X334768Y2635268D01*
X336193Y2634231D01*
X337747Y2632807D01*
X339431Y2631123D01*
X341115Y2629050D01*
X342540Y2626718D01*
Y2626589D01*
X342670Y2626459D01*
X342929Y2626070D01*
X343058Y2625552D01*
X343447Y2624905D01*
X343706Y2624127D01*
X344354Y2622184D01*
X345131Y2619853D01*
X345649Y2617003D01*
X346167Y2613764D01*
X346297Y2610267D01*
Y2609101D01*
X346167Y2608323D01*
Y2607287D01*
X346038Y2606251D01*
X345908Y2604955D01*
X345649Y2603530D01*
X345002Y2600551D01*
X344095Y2597442D01*
X342799Y2594333D01*
X340986Y2591483D01*
X340856Y2591354D01*
X340727Y2591224D01*
X339950Y2590317D01*
X338784Y2589281D01*
X337100Y2587986D01*
X334897Y2586690D01*
X332177Y2585524D01*
X330623Y2585136D01*
X328939Y2584877D01*
X327255Y2584618D01*
X325312D01*
X326736Y2595369D01*
X326996D01*
X327514Y2595499D01*
X328420Y2595758D01*
X329586Y2596017D01*
X330752Y2596535D01*
X331918Y2597183D01*
X333084Y2597960D01*
X333991Y2598997D01*
X334120Y2599256D01*
X334509Y2599774D01*
X335027Y2600681D01*
X335545Y2601976D01*
X336193Y2603530D01*
X336711Y2605474D01*
X337100Y2607805D01*
X337229Y2610267D01*
Y2611562D01*
X337100Y2612857D01*
X336841Y2614671D01*
X336452Y2616484D01*
X335934Y2618428D01*
X335157Y2620371D01*
X334120Y2622055D01*
X333991Y2622184D01*
X333602Y2622702D01*
X332825Y2623480D01*
X331918Y2624386D01*
X330623Y2625293D01*
X329198Y2626200D01*
X327514Y2627107D01*
X325571Y2627754D01*
X325441D01*
X324923Y2627884D01*
X323887Y2628014D01*
X322591Y2628143D01*
X321684Y2628273D01*
X320648D01*
X319482Y2628402D01*
X318187D01*
X316762D01*
X315078Y2628532D01*
X313394D01*
X311451D01*
X311580Y2628402D01*
X311839Y2628143D01*
X312228Y2627754D01*
X312746Y2627236D01*
X313394Y2626589D01*
X314171Y2625682D01*
X314948Y2624645D01*
X315726Y2623609D01*
X317280Y2620889D01*
X318705Y2617909D01*
X319223Y2616225D01*
X319612Y2614412D01*
X319871Y2612469D01*
X320000Y2610526D01*
Y2609878D01*
X319871Y2609230D01*
Y2608323D01*
X319741Y2607158D01*
X319482Y2605862D01*
X319223Y2604437D01*
X318835Y2602883D01*
X318316Y2601199D01*
X317669Y2599515D01*
X316891Y2597831D01*
X315985Y2596017D01*
X314819Y2594333D01*
X313523Y2592649D01*
X312098Y2591095D01*
X310414Y2589670D01*
X310285Y2589540D01*
X310026Y2589411D01*
X309378Y2589022D01*
X308730Y2588504D01*
X307694Y2587986D01*
X306658Y2587338D01*
X305362Y2586690D01*
X303808Y2586043D01*
X302253Y2585395D01*
X300440Y2584747D01*
X298626Y2584099D01*
X296554Y2583581D01*
X292149Y2582675D01*
X289688Y2582545D01*
X287227Y2582415D01*
X287097D01*
X286838D01*
X286320D01*
X285672D01*
X284765Y2582545D01*
X283859D01*
X281527Y2582804D01*
X278936Y2583193D01*
X276086Y2583840D01*
X273107Y2584618D01*
X270127Y2585783D01*
X269998D01*
X269739Y2585913D01*
X269350Y2586172D01*
X268832Y2586431D01*
X267407Y2587208D01*
X265594Y2588245D01*
X263650Y2589670D01*
X261707Y2591354D01*
X259635Y2593297D01*
X257951Y2595499D01*
Y2595629D01*
X257821Y2595758D01*
X257562Y2596147D01*
X257303Y2596665D01*
X256526Y2597960D01*
X255749Y2599774D01*
X254971Y2601976D01*
X254194Y2604567D01*
X253676Y2607417D01*
X253546Y2610526D01*
Y2611691D01*
X253676Y2612469D01*
X253805Y2613376D01*
X254065Y2614541D01*
X254324Y2615837D01*
X254712Y2617262D01*
X255230Y2618687D01*
X255878Y2620241D01*
X256655Y2621796D01*
X257562Y2623480D01*
X258598Y2625034D01*
X259894Y2626589D01*
X261319Y2628143D01*
X263003Y2629568D01*
X254971D01*
Y2639672D01*
X311192D01*
X311321D01*
X311839D01*
X312617D01*
X313653D01*
X314819Y2639543D01*
D02*
G37*
G36*
X267278Y2576068D02*
X267148Y2575938D01*
X266889Y2575420D01*
X266500Y2574643D01*
X266112Y2573607D01*
X265723Y2572441D01*
X265334Y2571016D01*
X265075Y2569591D01*
X264946Y2568166D01*
Y2567518D01*
X265075Y2566871D01*
X265205Y2565964D01*
X265464Y2565057D01*
X265853Y2563891D01*
X266371Y2562725D01*
X267148Y2561689D01*
X267278Y2561560D01*
X267537Y2561171D01*
X268055Y2560782D01*
X268703Y2560135D01*
X269609Y2559487D01*
X270646Y2558839D01*
X271811Y2558191D01*
X273236Y2557673D01*
X273496Y2557544D01*
X274273Y2557414D01*
X275439Y2557155D01*
X276993Y2556767D01*
X278936Y2556378D01*
X281138Y2556119D01*
X283470Y2555989D01*
X286061Y2555860D01*
X320000D01*
Y2544849D01*
X254971D01*
Y2554823D01*
X264816D01*
X264687Y2554953D01*
X263780Y2555471D01*
X262614Y2556119D01*
X261189Y2557155D01*
X259764Y2558191D01*
X258210Y2559357D01*
X256914Y2560523D01*
X255878Y2561689D01*
X255749Y2561819D01*
X255489Y2562207D01*
X255101Y2562984D01*
X254712Y2563762D01*
X254324Y2564798D01*
X253935Y2566093D01*
X253676Y2567389D01*
X253546Y2568814D01*
Y2569721D01*
X253676Y2570886D01*
X253935Y2572311D01*
X254453Y2573995D01*
X255101Y2575809D01*
X256008Y2577882D01*
X257173Y2580084D01*
X267278Y2576068D01*
D02*
G37*
G36*
X290336Y2531377D02*
Y2482799D01*
X290465D01*
X290854D01*
X291372Y2482929D01*
X292149D01*
X293056Y2483058D01*
X294092Y2483317D01*
X296424Y2483706D01*
X299015Y2484483D01*
X301865Y2485520D01*
X304456Y2486944D01*
X306787Y2488758D01*
Y2488888D01*
X307046Y2489017D01*
X307694Y2489794D01*
X308601Y2490960D01*
X309508Y2492515D01*
X310544Y2494587D01*
X311451Y2496919D01*
X312098Y2499510D01*
X312228Y2500935D01*
X312358Y2502489D01*
Y2503526D01*
X312228Y2504691D01*
X311969Y2506116D01*
X311580Y2507671D01*
X311062Y2509484D01*
X310285Y2511168D01*
X309249Y2512852D01*
X309119Y2512982D01*
X308601Y2513630D01*
X307824Y2514407D01*
X306787Y2515314D01*
X305362Y2516350D01*
X303549Y2517516D01*
X301476Y2518682D01*
X299015Y2519718D01*
X300440Y2531118D01*
X300569D01*
X300828Y2530988D01*
X301347Y2530859D01*
X302124Y2530599D01*
X302901Y2530211D01*
X303937Y2529822D01*
X306140Y2528786D01*
X308601Y2527491D01*
X311192Y2525677D01*
X313653Y2523604D01*
X315985Y2521013D01*
Y2520884D01*
X316244Y2520625D01*
X316503Y2520236D01*
X316891Y2519718D01*
X317280Y2518941D01*
X317669Y2518164D01*
X318187Y2517127D01*
X318705Y2515961D01*
X319223Y2514666D01*
X319741Y2513371D01*
X320519Y2510132D01*
X321166Y2506505D01*
X321425Y2502489D01*
Y2501064D01*
X321296Y2500158D01*
X321166Y2498992D01*
X320907Y2497567D01*
X320648Y2496012D01*
X320389Y2494328D01*
X319353Y2490701D01*
X318575Y2488758D01*
X317798Y2486944D01*
X316762Y2485001D01*
X315596Y2483188D01*
X314301Y2481504D01*
X312746Y2479820D01*
X312617Y2479690D01*
X312358Y2479431D01*
X311839Y2479043D01*
X311062Y2478524D01*
X310155Y2477877D01*
X309119Y2477229D01*
X307824Y2476452D01*
X306399Y2475674D01*
X304715Y2474897D01*
X302901Y2474120D01*
X300828Y2473472D01*
X298626Y2472825D01*
X296295Y2472306D01*
X293704Y2471918D01*
X290983Y2471659D01*
X288134Y2471529D01*
X288004D01*
X287356D01*
X286579D01*
X285413Y2471659D01*
X283988Y2471788D01*
X282434Y2471918D01*
X280620Y2472177D01*
X278807Y2472566D01*
X274661Y2473602D01*
X272589Y2474250D01*
X270387Y2475027D01*
X268314Y2476063D01*
X266371Y2477229D01*
X264428Y2478524D01*
X262614Y2479949D01*
X262485Y2480079D01*
X262226Y2480338D01*
X261837Y2480856D01*
X261189Y2481504D01*
X260542Y2482281D01*
X259764Y2483317D01*
X258857Y2484483D01*
X258080Y2485908D01*
X257173Y2487333D01*
X256396Y2489017D01*
X255619Y2490831D01*
X254971Y2492774D01*
X254324Y2494846D01*
X253935Y2497049D01*
X253676Y2499380D01*
X253546Y2501842D01*
Y2503137D01*
X253676Y2504044D01*
X253805Y2505080D01*
X254065Y2506375D01*
X254324Y2507800D01*
X254712Y2509484D01*
X255101Y2511039D01*
X255749Y2512852D01*
X256396Y2514536D01*
X257303Y2516350D01*
X258339Y2518164D01*
X259505Y2519977D01*
X260930Y2521661D01*
X262485Y2523216D01*
X262614Y2523345D01*
X262873Y2523604D01*
X263391Y2523993D01*
X264169Y2524511D01*
X265075Y2525159D01*
X266112Y2525806D01*
X267407Y2526584D01*
X268962Y2527361D01*
X270646Y2528138D01*
X272459Y2528915D01*
X274532Y2529563D01*
X276734Y2530211D01*
X279195Y2530729D01*
X281786Y2531118D01*
X284506Y2531377D01*
X287486Y2531506D01*
X287615D01*
X288134D01*
X289040D01*
X290336Y2531377D01*
D02*
G37*
G36*
X289688Y2461814D02*
X290724D01*
X293056Y2461555D01*
X295906Y2461036D01*
X298885Y2460389D01*
X301994Y2459482D01*
X305103Y2458316D01*
X305233D01*
X305492Y2458187D01*
X305881Y2457928D01*
X306399Y2457668D01*
X307824Y2456762D01*
X309637Y2455596D01*
X311580Y2454171D01*
X313523Y2452357D01*
X315466Y2450285D01*
X317280Y2447823D01*
Y2447694D01*
X317410Y2447564D01*
X317669Y2447176D01*
X317928Y2446658D01*
X318575Y2445362D01*
X319353Y2443549D01*
X320130Y2441346D01*
X320778Y2439015D01*
X321296Y2436294D01*
X321425Y2433574D01*
Y2432667D01*
X321296Y2431631D01*
X321166Y2430335D01*
X320907Y2428781D01*
X320519Y2427097D01*
X320000Y2425413D01*
X319223Y2423729D01*
X319094Y2423599D01*
X318835Y2422952D01*
X318316Y2422174D01*
X317539Y2421138D01*
X316762Y2420102D01*
X315726Y2418806D01*
X314560Y2417641D01*
X313264Y2416604D01*
X344872D01*
Y2405593D01*
X254971D01*
Y2415568D01*
X263521D01*
X263262Y2415697D01*
X262744Y2416216D01*
X261837Y2416863D01*
X260801Y2417900D01*
X259505Y2419066D01*
X258339Y2420361D01*
X257173Y2421915D01*
X256137Y2423470D01*
X256008Y2423729D01*
X255749Y2424247D01*
X255360Y2425283D01*
X254842Y2426579D01*
X254324Y2428133D01*
X253935Y2429947D01*
X253676Y2432020D01*
X253546Y2434351D01*
Y2435776D01*
X253676Y2436424D01*
X253805Y2437331D01*
X254065Y2439274D01*
X254583Y2441605D01*
X255360Y2444067D01*
X256526Y2446528D01*
X257951Y2448989D01*
Y2449119D01*
X258210Y2449248D01*
X258728Y2450026D01*
X259764Y2451191D01*
X261060Y2452616D01*
X262744Y2454171D01*
X264816Y2455725D01*
X267278Y2457280D01*
X269998Y2458575D01*
X270127D01*
X270387Y2458705D01*
X270775Y2458834D01*
X271293Y2459093D01*
X272071Y2459352D01*
X272977Y2459612D01*
X275050Y2460259D01*
X277641Y2460907D01*
X280491Y2461425D01*
X283729Y2461814D01*
X287097Y2461943D01*
X287227D01*
X287486D01*
X288004D01*
X288781D01*
X289688Y2461814D01*
D02*
G37*
G36*
X320000Y2377613D02*
X278807D01*
X278677D01*
X278418D01*
X278029D01*
X277511D01*
X276086Y2377483D01*
X274273Y2377224D01*
X272330Y2376706D01*
X270387Y2376058D01*
X268443Y2375151D01*
X266889Y2373986D01*
X266759Y2373856D01*
X266241Y2373338D01*
X265594Y2372561D01*
X264946Y2371395D01*
X264169Y2369970D01*
X263650Y2368286D01*
X263132Y2366213D01*
X263003Y2363881D01*
Y2363104D01*
X263132Y2362197D01*
X263262Y2360902D01*
X263650Y2359607D01*
X264039Y2358052D01*
X264687Y2356498D01*
X265594Y2354814D01*
X265723Y2354684D01*
X266112Y2354166D01*
X266630Y2353389D01*
X267407Y2352482D01*
X268443Y2351446D01*
X269609Y2350409D01*
X271034Y2349503D01*
X272589Y2348725D01*
X272848Y2348596D01*
X273366Y2348466D01*
X274402Y2348207D01*
X275698Y2347819D01*
X277382Y2347430D01*
X279454Y2347171D01*
X281786Y2347041D01*
X284506Y2346912D01*
X320000D01*
Y2335901D01*
X230359D01*
Y2346912D01*
X262485D01*
X262355Y2347041D01*
X262096Y2347300D01*
X261707Y2347689D01*
X261060Y2348337D01*
X260412Y2348984D01*
X259635Y2349891D01*
X258857Y2351057D01*
X257951Y2352223D01*
X257173Y2353518D01*
X256396Y2354943D01*
X254971Y2358311D01*
X254324Y2360125D01*
X253935Y2362068D01*
X253676Y2364141D01*
X253546Y2366213D01*
Y2367379D01*
X253676Y2368804D01*
X253935Y2370488D01*
X254194Y2372431D01*
X254712Y2374504D01*
X255489Y2376576D01*
X256396Y2378649D01*
X256526Y2378908D01*
X256914Y2379556D01*
X257562Y2380463D01*
X258469Y2381628D01*
X259635Y2382794D01*
X260930Y2384090D01*
X262485Y2385256D01*
X264298Y2386292D01*
X264557Y2386421D01*
X265205Y2386681D01*
X266371Y2387069D01*
X268055Y2387458D01*
X270127Y2387846D01*
X272589Y2388235D01*
X275568Y2388494D01*
X278936Y2388624D01*
X320000D01*
Y2377613D01*
D02*
G37*
G36*
X297460Y2320745D02*
X299274Y2320486D01*
X301347Y2319967D01*
X303549Y2319320D01*
X305881Y2318283D01*
X308342Y2316858D01*
X308471D01*
X308601Y2316729D01*
X309378Y2316081D01*
X310544Y2315174D01*
X311839Y2313879D01*
X313394Y2312195D01*
X315078Y2310122D01*
X316632Y2307791D01*
X318057Y2305070D01*
Y2304941D01*
X318187Y2304682D01*
X318316Y2304293D01*
X318575Y2303775D01*
X318835Y2302998D01*
X319223Y2302091D01*
X319741Y2300018D01*
X320389Y2297557D01*
X321037Y2294578D01*
X321425Y2291339D01*
X321555Y2287842D01*
Y2285769D01*
X321425Y2284733D01*
Y2283567D01*
X321296Y2282271D01*
X321166Y2280717D01*
X320648Y2277478D01*
X320130Y2274110D01*
X319223Y2270742D01*
X318057Y2267504D01*
Y2267374D01*
X317928Y2267115D01*
X317669Y2266726D01*
X317410Y2266208D01*
X316632Y2264654D01*
X315466Y2262840D01*
X313912Y2260768D01*
X312098Y2258565D01*
X309896Y2256493D01*
X307435Y2254550D01*
X307305D01*
X307046Y2254291D01*
X306658Y2254161D01*
X306140Y2253772D01*
X305492Y2253513D01*
X304715Y2253125D01*
X302772Y2252218D01*
X300310Y2251311D01*
X297590Y2250534D01*
X294481Y2250016D01*
X291242Y2249757D01*
X290206Y2260897D01*
X290336D01*
X290465D01*
X290854Y2261027D01*
X291372D01*
X292538Y2261286D01*
X294222Y2261674D01*
X295906Y2262193D01*
X297849Y2262711D01*
X299663Y2263618D01*
X301347Y2264524D01*
X301476Y2264654D01*
X301994Y2265042D01*
X302901Y2265690D01*
X303808Y2266726D01*
X304974Y2268022D01*
X306140Y2269447D01*
X307305Y2271390D01*
X308342Y2273463D01*
Y2273592D01*
X308471Y2273722D01*
X308601Y2274110D01*
X308730Y2274499D01*
X309119Y2275794D01*
X309637Y2277478D01*
X310155Y2279551D01*
X310544Y2281883D01*
X310803Y2284473D01*
X310933Y2287323D01*
Y2288489D01*
X310803Y2289785D01*
X310673Y2291339D01*
X310414Y2293153D01*
X310155Y2295225D01*
X309637Y2297298D01*
X308989Y2299241D01*
X308860Y2299500D01*
X308601Y2300148D01*
X308083Y2301055D01*
X307565Y2302220D01*
X306658Y2303386D01*
X305751Y2304682D01*
X304715Y2305977D01*
X303419Y2307013D01*
X303290Y2307143D01*
X302772Y2307402D01*
X302124Y2307791D01*
X301088Y2308309D01*
X300051Y2308827D01*
X298756Y2309216D01*
X297331Y2309475D01*
X295776Y2309604D01*
X295647D01*
X294999D01*
X294222Y2309475D01*
X293186Y2309345D01*
X292149Y2308957D01*
X290854Y2308568D01*
X289558Y2307920D01*
X288393Y2307013D01*
X288263Y2306884D01*
X287874Y2306495D01*
X287356Y2305977D01*
X286579Y2305070D01*
X285802Y2304034D01*
X284895Y2302609D01*
X283988Y2300925D01*
X283211Y2298982D01*
X283081Y2298852D01*
X282952Y2298205D01*
X282563Y2297168D01*
X282434Y2296521D01*
X282175Y2295614D01*
X281786Y2294707D01*
X281527Y2293541D01*
X281138Y2292246D01*
X280750Y2290691D01*
X280361Y2289137D01*
X279843Y2287323D01*
X279325Y2285251D01*
X278807Y2283049D01*
Y2282919D01*
X278677Y2282530D01*
X278548Y2281883D01*
X278288Y2281105D01*
X278029Y2280069D01*
X277770Y2278903D01*
X276993Y2276312D01*
X276086Y2273463D01*
X275180Y2270483D01*
X274273Y2267892D01*
X273755Y2266726D01*
X273236Y2265690D01*
Y2265561D01*
X273107Y2265431D01*
X272589Y2264654D01*
X271941Y2263488D01*
X270905Y2262193D01*
X269739Y2260638D01*
X268314Y2259084D01*
X266630Y2257529D01*
X264816Y2256234D01*
X264557Y2256104D01*
X263910Y2255716D01*
X262873Y2255197D01*
X261578Y2254679D01*
X259894Y2254161D01*
X257951Y2253643D01*
X255878Y2253254D01*
X253676Y2253125D01*
X253546D01*
X253417D01*
X253028D01*
X252510D01*
X251215Y2253384D01*
X249531Y2253643D01*
X247588Y2254032D01*
X245385Y2254679D01*
X243183Y2255586D01*
X240981Y2256881D01*
X240851D01*
X240722Y2257011D01*
X239945Y2257659D01*
X238908Y2258565D01*
X237613Y2259731D01*
X236188Y2261286D01*
X234634Y2263229D01*
X233209Y2265561D01*
X231913Y2268151D01*
Y2268281D01*
X231784Y2268540D01*
X231654Y2268929D01*
X231395Y2269447D01*
X231136Y2270095D01*
X230877Y2271001D01*
X230359Y2272944D01*
X229841Y2275406D01*
X229322Y2278256D01*
X228934Y2281235D01*
X228804Y2284603D01*
Y2286287D01*
X228934Y2287194D01*
Y2288101D01*
X229193Y2290562D01*
X229581Y2293282D01*
X230229Y2296132D01*
X231006Y2299241D01*
X232043Y2302091D01*
Y2302220D01*
X232172Y2302480D01*
X232431Y2302868D01*
X232690Y2303386D01*
X233338Y2304682D01*
X234504Y2306366D01*
X235799Y2308309D01*
X237483Y2310252D01*
X239426Y2312065D01*
X241629Y2313749D01*
X241758D01*
X241888Y2313879D01*
X242276Y2314138D01*
X242665Y2314397D01*
X243960Y2315045D01*
X245644Y2315822D01*
X247717Y2316729D01*
X250178Y2317377D01*
X252769Y2318024D01*
X255619Y2318283D01*
X256526Y2306884D01*
X256396D01*
X256137D01*
X255749Y2306754D01*
X255101Y2306625D01*
X253676Y2306236D01*
X251733Y2305718D01*
X249660Y2304941D01*
X247588Y2303775D01*
X245644Y2302350D01*
X243831Y2300536D01*
X243701Y2300277D01*
X243183Y2299630D01*
X242406Y2298334D01*
X241629Y2296650D01*
X240851Y2294448D01*
X240074Y2291857D01*
X239556Y2288619D01*
X239426Y2284992D01*
Y2283178D01*
X239556Y2282401D01*
X239686Y2281364D01*
X239945Y2279033D01*
X240463Y2276442D01*
X241111Y2273851D01*
X242147Y2271390D01*
X242795Y2270354D01*
X243442Y2269317D01*
X243572Y2269058D01*
X244090Y2268540D01*
X244997Y2267763D01*
X246033Y2266986D01*
X247458Y2266079D01*
X249012Y2265302D01*
X250826Y2264783D01*
X252899Y2264524D01*
X253158D01*
X253676D01*
X254583Y2264654D01*
X255619Y2264913D01*
X256914Y2265302D01*
X258210Y2265949D01*
X259505Y2266726D01*
X260801Y2267892D01*
X260930Y2268022D01*
X261319Y2268670D01*
X261707Y2269188D01*
X261966Y2269706D01*
X262355Y2270483D01*
X262873Y2271390D01*
X263262Y2272556D01*
X263780Y2273851D01*
X264298Y2275276D01*
X264946Y2276960D01*
X265464Y2278774D01*
X266112Y2280846D01*
X266630Y2283178D01*
X267278Y2285769D01*
Y2285898D01*
X267407Y2286417D01*
X267537Y2287194D01*
X267796Y2288101D01*
X268055Y2289266D01*
X268443Y2290691D01*
X268832Y2292116D01*
X269221Y2293671D01*
X270127Y2297039D01*
X271034Y2300277D01*
X271552Y2301832D01*
X272071Y2303257D01*
X272459Y2304552D01*
X272977Y2305588D01*
Y2305718D01*
X273107Y2305977D01*
X273366Y2306366D01*
X273625Y2306884D01*
X274402Y2308309D01*
X275439Y2309993D01*
X276864Y2311936D01*
X278418Y2313879D01*
X280232Y2315693D01*
X282175Y2317247D01*
X282434Y2317377D01*
X283081Y2317895D01*
X284247Y2318413D01*
X285802Y2319190D01*
X287615Y2319838D01*
X289818Y2320486D01*
X292279Y2320874D01*
X294870Y2321004D01*
X294999D01*
X295129D01*
X295517D01*
X296035D01*
X297460Y2320745D01*
D02*
G37*
G36*
X320000Y2220610D02*
X307435D01*
Y2233176D01*
X320000D01*
Y2220610D01*
D02*
G37*
G36*
X277770Y2203511D02*
X278936D01*
X280361Y2203381D01*
X281916Y2203122D01*
X283600Y2202993D01*
X287356Y2202345D01*
X291502Y2201309D01*
X295647Y2199884D01*
X297719Y2199107D01*
X299792Y2198070D01*
X299922D01*
X300310Y2197811D01*
X300828Y2197552D01*
X301606Y2197034D01*
X302512Y2196516D01*
X303419Y2195868D01*
X305881Y2194055D01*
X308471Y2191852D01*
X311192Y2189262D01*
X313782Y2186153D01*
X316114Y2182525D01*
Y2182396D01*
X316373Y2182137D01*
X316632Y2181489D01*
X317021Y2180712D01*
X317410Y2179805D01*
X317798Y2178769D01*
X318316Y2177473D01*
X318835Y2176048D01*
X319353Y2174494D01*
X319871Y2172810D01*
X320648Y2169053D01*
X321296Y2165038D01*
X321555Y2160763D01*
Y2159467D01*
X321425Y2158690D01*
Y2157524D01*
X321166Y2156229D01*
X321037Y2154804D01*
X320778Y2153120D01*
X320000Y2149622D01*
X318964Y2145866D01*
X317410Y2141979D01*
X316503Y2140036D01*
X315466Y2138093D01*
X315337Y2137964D01*
X315207Y2137705D01*
X314819Y2137186D01*
X314301Y2136409D01*
X313782Y2135632D01*
X313005Y2134725D01*
X311062Y2132523D01*
X308730Y2130062D01*
X305881Y2127471D01*
X302642Y2125139D01*
X298885Y2122937D01*
X298756D01*
X298367Y2122678D01*
X297849Y2122419D01*
X297072Y2122160D01*
X296035Y2121771D01*
X294870Y2121383D01*
X293574Y2120864D01*
X292149Y2120476D01*
X290465Y2119958D01*
X288781Y2119439D01*
X284895Y2118662D01*
X280879Y2118144D01*
X276475Y2117885D01*
X276345D01*
X276216D01*
X275439D01*
X274273Y2118015D01*
X272718D01*
X270905Y2118274D01*
X268703Y2118533D01*
X266241Y2118921D01*
X263650Y2119439D01*
X260930Y2119958D01*
X258080Y2120735D01*
X255230Y2121771D01*
X252251Y2122937D01*
X249401Y2124232D01*
X246551Y2125916D01*
X243960Y2127730D01*
X241499Y2129803D01*
X241370Y2129932D01*
X240981Y2130321D01*
X240333Y2131098D01*
X239556Y2132005D01*
X238520Y2133171D01*
X237483Y2134596D01*
X236318Y2136280D01*
X235152Y2138223D01*
X233986Y2140295D01*
X232820Y2142627D01*
X231784Y2145218D01*
X230747Y2147938D01*
X229970Y2150918D01*
X229322Y2154027D01*
X228934Y2157265D01*
X228804Y2160763D01*
Y2161929D01*
X228934Y2162835D01*
Y2164001D01*
X229063Y2165167D01*
X229322Y2166722D01*
X229581Y2168276D01*
X230229Y2171644D01*
X231265Y2175530D01*
X232820Y2179287D01*
X233727Y2181230D01*
X234763Y2183173D01*
X234893Y2183303D01*
X235022Y2183562D01*
X235411Y2184080D01*
X235799Y2184857D01*
X236447Y2185634D01*
X237224Y2186671D01*
X239038Y2188873D01*
X241370Y2191205D01*
X244219Y2193795D01*
X247588Y2196257D01*
X251344Y2198329D01*
X251474D01*
X251862Y2198588D01*
X252380Y2198848D01*
X253158Y2199107D01*
X254194Y2199625D01*
X255360Y2200013D01*
X256785Y2200532D01*
X258339Y2201050D01*
X260023Y2201438D01*
X261837Y2201956D01*
X263910Y2202475D01*
X265982Y2202863D01*
X270516Y2203381D01*
X275439Y2203640D01*
X275568D01*
X276086D01*
X276734D01*
X277770Y2203511D01*
D02*
G37*
G36*
X321037Y2051042D02*
X321166D01*
X321555Y2050913D01*
X322073Y2050654D01*
X322721Y2050395D01*
X323627Y2050006D01*
X324664Y2049617D01*
X326866Y2048711D01*
X329327Y2047804D01*
X331789Y2046768D01*
X333991Y2045731D01*
X334897Y2045213D01*
X335804Y2044824D01*
X336063Y2044695D01*
X336711Y2044306D01*
X337618Y2043659D01*
X338784Y2042881D01*
X340079Y2041845D01*
X341374Y2040679D01*
X342670Y2039513D01*
X343706Y2038088D01*
X343836Y2037959D01*
X344095Y2037441D01*
X344483Y2036663D01*
X345002Y2035498D01*
X345520Y2034202D01*
X345908Y2032648D01*
X346167Y2030964D01*
X346297Y2029021D01*
Y2028502D01*
X346167Y2027855D01*
Y2026948D01*
X345908Y2025912D01*
X345649Y2024746D01*
X345390Y2023450D01*
X344872Y2022025D01*
X334638Y2020860D01*
Y2020989D01*
X334768Y2021507D01*
X334897Y2022155D01*
X335157Y2022932D01*
X335545Y2025005D01*
X335675Y2027077D01*
Y2027725D01*
X335545Y2028373D01*
Y2029150D01*
X335157Y2031093D01*
X334768Y2032000D01*
X334379Y2032907D01*
Y2033036D01*
X334120Y2033295D01*
X333861Y2033684D01*
X333473Y2034202D01*
X332436Y2035368D01*
X331011Y2036404D01*
X330882D01*
X330623Y2036663D01*
X330104Y2036923D01*
X329327Y2037182D01*
X328291Y2037700D01*
X326736Y2038218D01*
X324923Y2038995D01*
X322721Y2039772D01*
X322591D01*
X322073Y2040031D01*
X321166Y2040291D01*
X320000Y2040809D01*
X254971Y2016196D01*
Y2027855D01*
X292667Y2041456D01*
X292797D01*
X292927Y2041586D01*
X293315Y2041715D01*
X293963Y2041845D01*
X294611Y2042104D01*
X295388Y2042363D01*
X297201Y2043011D01*
X299404Y2043788D01*
X301994Y2044565D01*
X304715Y2045343D01*
X307694Y2046120D01*
X307565D01*
X307305Y2046249D01*
X306917Y2046379D01*
X306399Y2046508D01*
X305751Y2046638D01*
X304974Y2046897D01*
X303031Y2047415D01*
X300828Y2048063D01*
X298238Y2048970D01*
X295647Y2049747D01*
X292927Y2050783D01*
X254971Y2064774D01*
Y2075785D01*
X321037Y2051042D01*
D02*
G37*
G36*
X289299Y2008812D02*
X290724Y2008683D01*
X292279Y2008553D01*
X294092Y2008294D01*
X296035Y2007906D01*
X300181Y2006869D01*
X302383Y2006222D01*
X304456Y2005444D01*
X306658Y2004538D01*
X308601Y2003372D01*
X310544Y2002076D01*
X312358Y2000651D01*
X312487Y2000522D01*
X312746Y2000263D01*
X313135Y1999874D01*
X313782Y1999226D01*
X314430Y1998320D01*
X315207Y1997413D01*
X315985Y1996376D01*
X316891Y1995081D01*
X317669Y1993656D01*
X318575Y1992231D01*
X320000Y1988734D01*
X320648Y1986920D01*
X321037Y1984977D01*
X321296Y1982904D01*
X321425Y1980832D01*
Y1980314D01*
X321296Y1979666D01*
Y1978889D01*
X321166Y1977982D01*
X320907Y1976816D01*
X320259Y1974225D01*
X319741Y1972800D01*
X319094Y1971375D01*
X318316Y1969821D01*
X317410Y1968396D01*
X316244Y1966841D01*
X314948Y1965416D01*
X313523Y1964121D01*
X311839Y1962826D01*
X320000D01*
Y1952592D01*
X230359D01*
Y1963603D01*
X262355D01*
X262226Y1963732D01*
X261966Y1963862D01*
X261578Y1964251D01*
X260930Y1964898D01*
X260282Y1965546D01*
X259505Y1966323D01*
X258728Y1967360D01*
X257951Y1968396D01*
X256267Y1970987D01*
X254971Y1973966D01*
X254324Y1975650D01*
X253935Y1977464D01*
X253676Y1979407D01*
X253546Y1981350D01*
Y1982386D01*
X253676Y1983552D01*
X253805Y1984977D01*
X254194Y1986661D01*
X254583Y1988604D01*
X255230Y1990677D01*
X256008Y1992620D01*
X256137Y1992879D01*
X256396Y1993527D01*
X257044Y1994563D01*
X257821Y1995729D01*
X258728Y1997154D01*
X259894Y1998579D01*
X261319Y2000133D01*
X262873Y2001429D01*
X263003Y2001558D01*
X263650Y2001947D01*
X264557Y2002594D01*
X265723Y2003372D01*
X267278Y2004278D01*
X269091Y2005185D01*
X271164Y2006092D01*
X273366Y2006869D01*
X273496D01*
X273625Y2006999D01*
X274014Y2007128D01*
X274402Y2007258D01*
X275698Y2007517D01*
X277382Y2007906D01*
X279325Y2008294D01*
X281527Y2008683D01*
X283988Y2008812D01*
X286579Y2008942D01*
X286709D01*
X287356D01*
X288134D01*
X289299Y2008812D01*
D02*
G37*
G36*
X320000Y1890283D02*
X311839D01*
X311969Y1890154D01*
X312228Y1890024D01*
X312746Y1889636D01*
X313394Y1889117D01*
X314042Y1888470D01*
X314819Y1887692D01*
X315726Y1886786D01*
X316632Y1885620D01*
X317539Y1884454D01*
X318446Y1883159D01*
X319223Y1881604D01*
X319871Y1879920D01*
X320519Y1878236D01*
X321037Y1876293D01*
X321296Y1874220D01*
X321425Y1872018D01*
Y1871241D01*
X321296Y1870723D01*
X321166Y1869168D01*
X320907Y1867355D01*
X320389Y1865152D01*
X319612Y1862691D01*
X318575Y1860230D01*
X317150Y1857769D01*
Y1857639D01*
X316891Y1857510D01*
X316373Y1856732D01*
X315337Y1855567D01*
X314042Y1854142D01*
X312358Y1852458D01*
X310285Y1850774D01*
X307953Y1849090D01*
X305233Y1847665D01*
X305103D01*
X304844Y1847535D01*
X304456Y1847405D01*
X303937Y1847146D01*
X303160Y1846887D01*
X302253Y1846499D01*
X301347Y1846240D01*
X300181Y1845981D01*
X297590Y1845333D01*
X294611Y1844685D01*
X291242Y1844297D01*
X287615Y1844167D01*
X287486D01*
X287227D01*
X286709D01*
X285931D01*
X285154Y1844297D01*
X284118D01*
X281786Y1844556D01*
X279066Y1844944D01*
X276086Y1845592D01*
X272977Y1846369D01*
X269998Y1847405D01*
X269868D01*
X269609Y1847535D01*
X269221Y1847794D01*
X268703Y1848053D01*
X267278Y1848830D01*
X265464Y1849867D01*
X263521Y1851162D01*
X261578Y1852846D01*
X259505Y1854789D01*
X257821Y1857121D01*
Y1857251D01*
X257692Y1857380D01*
X257433Y1857769D01*
X257173Y1858287D01*
X256526Y1859582D01*
X255619Y1861396D01*
X254842Y1863468D01*
X254194Y1865930D01*
X253676Y1868650D01*
X253546Y1871500D01*
Y1872536D01*
X253676Y1873573D01*
X253805Y1874998D01*
X254194Y1876682D01*
X254583Y1878495D01*
X255230Y1880309D01*
X256137Y1881993D01*
X256267Y1882252D01*
X256526Y1882770D01*
X257173Y1883547D01*
X257821Y1884583D01*
X258728Y1885879D01*
X259894Y1887045D01*
X261060Y1888340D01*
X262485Y1889506D01*
X230359D01*
Y1900517D01*
X320000D01*
Y1890283D01*
D02*
G37*
G36*
X290336Y1834711D02*
Y1786133D01*
X290465D01*
X290854D01*
X291372Y1786263D01*
X292149D01*
X293056Y1786392D01*
X294092Y1786651D01*
X296424Y1787040D01*
X299015Y1787817D01*
X301865Y1788853D01*
X304456Y1790278D01*
X306787Y1792092D01*
Y1792221D01*
X307046Y1792351D01*
X307694Y1793128D01*
X308601Y1794294D01*
X309508Y1795849D01*
X310544Y1797921D01*
X311451Y1800253D01*
X312098Y1802844D01*
X312228Y1804269D01*
X312358Y1805823D01*
Y1806859D01*
X312228Y1808025D01*
X311969Y1809450D01*
X311580Y1811005D01*
X311062Y1812818D01*
X310285Y1814502D01*
X309249Y1816186D01*
X309119Y1816316D01*
X308601Y1816964D01*
X307824Y1817741D01*
X306787Y1818648D01*
X305362Y1819684D01*
X303549Y1820850D01*
X301476Y1822016D01*
X299015Y1823052D01*
X300440Y1834451D01*
X300569D01*
X300828Y1834322D01*
X301347Y1834192D01*
X302124Y1833933D01*
X302901Y1833545D01*
X303937Y1833156D01*
X306140Y1832120D01*
X308601Y1830824D01*
X311192Y1829011D01*
X313653Y1826938D01*
X315985Y1824347D01*
Y1824218D01*
X316244Y1823959D01*
X316503Y1823570D01*
X316891Y1823052D01*
X317280Y1822275D01*
X317669Y1821497D01*
X318187Y1820461D01*
X318705Y1819295D01*
X319223Y1818000D01*
X319741Y1816705D01*
X320519Y1813466D01*
X321166Y1809839D01*
X321425Y1805823D01*
Y1804398D01*
X321296Y1803491D01*
X321166Y1802326D01*
X320907Y1800901D01*
X320648Y1799346D01*
X320389Y1797662D01*
X319353Y1794035D01*
X318575Y1792092D01*
X317798Y1790278D01*
X316762Y1788335D01*
X315596Y1786522D01*
X314301Y1784838D01*
X312746Y1783154D01*
X312617Y1783024D01*
X312358Y1782765D01*
X311839Y1782376D01*
X311062Y1781858D01*
X310155Y1781211D01*
X309119Y1780563D01*
X307824Y1779786D01*
X306399Y1779008D01*
X304715Y1778231D01*
X302901Y1777454D01*
X300828Y1776806D01*
X298626Y1776159D01*
X296295Y1775640D01*
X293704Y1775252D01*
X290983Y1774993D01*
X288134Y1774863D01*
X288004D01*
X287356D01*
X286579D01*
X285413Y1774993D01*
X283988Y1775122D01*
X282434Y1775252D01*
X280620Y1775511D01*
X278807Y1775899D01*
X274661Y1776936D01*
X272589Y1777583D01*
X270387Y1778361D01*
X268314Y1779397D01*
X266371Y1780563D01*
X264428Y1781858D01*
X262614Y1783283D01*
X262485Y1783413D01*
X262226Y1783672D01*
X261837Y1784190D01*
X261189Y1784838D01*
X260542Y1785615D01*
X259764Y1786651D01*
X258857Y1787817D01*
X258080Y1789242D01*
X257173Y1790667D01*
X256396Y1792351D01*
X255619Y1794165D01*
X254971Y1796108D01*
X254324Y1798180D01*
X253935Y1800382D01*
X253676Y1802714D01*
X253546Y1805175D01*
Y1806471D01*
X253676Y1807378D01*
X253805Y1808414D01*
X254065Y1809709D01*
X254324Y1811134D01*
X254712Y1812818D01*
X255101Y1814373D01*
X255749Y1816186D01*
X256396Y1817870D01*
X257303Y1819684D01*
X258339Y1821497D01*
X259505Y1823311D01*
X260930Y1824995D01*
X262485Y1826550D01*
X262614Y1826679D01*
X262873Y1826938D01*
X263391Y1827327D01*
X264169Y1827845D01*
X265075Y1828493D01*
X266112Y1829140D01*
X267407Y1829918D01*
X268962Y1830695D01*
X270646Y1831472D01*
X272459Y1832249D01*
X274532Y1832897D01*
X276734Y1833545D01*
X279195Y1834063D01*
X281786Y1834451D01*
X284506Y1834711D01*
X287486Y1834840D01*
X287615D01*
X288134D01*
X289040D01*
X290336Y1834711D01*
D02*
G37*
G36*
X320000Y1750639D02*
X280620D01*
X280491D01*
X280361D01*
X279454D01*
X278288D01*
X276864Y1750510D01*
X275180Y1750380D01*
X273496Y1750121D01*
X271941Y1749732D01*
X270516Y1749344D01*
X270387D01*
X269998Y1749085D01*
X269350Y1748696D01*
X268573Y1748307D01*
X267796Y1747660D01*
X266889Y1746882D01*
X265982Y1745846D01*
X265205Y1744680D01*
X265075Y1744551D01*
X264816Y1744162D01*
X264557Y1743385D01*
X264169Y1742478D01*
X263780Y1741442D01*
X263391Y1740146D01*
X263262Y1738592D01*
X263132Y1737037D01*
Y1736390D01*
X263262Y1735872D01*
X263391Y1734576D01*
X263650Y1732892D01*
X264298Y1731079D01*
X265075Y1729006D01*
X266112Y1726933D01*
X267666Y1724990D01*
X267925Y1724731D01*
X268573Y1724213D01*
X269091Y1723824D01*
X269739Y1723436D01*
X270516Y1722918D01*
X271423Y1722529D01*
X272459Y1722011D01*
X273755Y1721493D01*
X275180Y1721104D01*
X276734Y1720715D01*
X278418Y1720456D01*
X280232Y1720197D01*
X282434Y1719938D01*
X284636D01*
X320000D01*
Y1708927D01*
X254971D01*
Y1718772D01*
X264298D01*
X264169Y1718902D01*
X263780Y1719161D01*
X263262Y1719550D01*
X262614Y1720068D01*
X261837Y1720845D01*
X260930Y1721752D01*
X259894Y1722788D01*
X258857Y1724083D01*
X257951Y1725379D01*
X256914Y1726933D01*
X256008Y1728617D01*
X255230Y1730431D01*
X254583Y1732504D01*
X254065Y1734576D01*
X253676Y1736908D01*
X253546Y1739369D01*
Y1740405D01*
X253676Y1741442D01*
X253805Y1742867D01*
X254065Y1744551D01*
X254453Y1746364D01*
X254971Y1748307D01*
X255749Y1750121D01*
X255878Y1750380D01*
X256137Y1750898D01*
X256526Y1751805D01*
X257173Y1752841D01*
X257951Y1754137D01*
X258987Y1755303D01*
X260023Y1756468D01*
X261319Y1757505D01*
X261448Y1757634D01*
X261966Y1757893D01*
X262614Y1758282D01*
X263521Y1758930D01*
X264816Y1759448D01*
X266112Y1759966D01*
X267666Y1760614D01*
X269350Y1761002D01*
X269480D01*
X269998Y1761132D01*
X270775Y1761261D01*
X271811Y1761391D01*
X273366D01*
X275180Y1761520D01*
X277382Y1761650D01*
X280102D01*
X320000D01*
Y1750639D01*
D02*
G37*
G36*
X314819Y1692087D02*
X316244D01*
X317798Y1691957D01*
X319482Y1691828D01*
X322980Y1691439D01*
X326607Y1690921D01*
X328291Y1690533D01*
X329845Y1690144D01*
X331270Y1689626D01*
X332566Y1689108D01*
X332695D01*
X332825Y1688978D01*
X333602Y1688460D01*
X334768Y1687812D01*
X336193Y1686776D01*
X337747Y1685351D01*
X339431Y1683667D01*
X341115Y1681594D01*
X342540Y1679263D01*
Y1679133D01*
X342670Y1679003D01*
X342929Y1678615D01*
X343058Y1678097D01*
X343447Y1677449D01*
X343706Y1676672D01*
X344354Y1674729D01*
X345131Y1672397D01*
X345649Y1669547D01*
X346167Y1666309D01*
X346297Y1662811D01*
Y1661645D01*
X346167Y1660868D01*
Y1659832D01*
X346038Y1658795D01*
X345908Y1657500D01*
X345649Y1656075D01*
X345002Y1653095D01*
X344095Y1649987D01*
X342799Y1646878D01*
X340986Y1644028D01*
X340856Y1643898D01*
X340727Y1643769D01*
X339950Y1642862D01*
X338784Y1641826D01*
X337100Y1640530D01*
X334897Y1639235D01*
X332177Y1638069D01*
X330623Y1637680D01*
X328939Y1637421D01*
X327255Y1637162D01*
X325312D01*
X326736Y1647914D01*
X326996D01*
X327514Y1648043D01*
X328420Y1648303D01*
X329586Y1648562D01*
X330752Y1649080D01*
X331918Y1649727D01*
X333084Y1650505D01*
X333991Y1651541D01*
X334120Y1651800D01*
X334509Y1652318D01*
X335027Y1653225D01*
X335545Y1654520D01*
X336193Y1656075D01*
X336711Y1658018D01*
X337100Y1660350D01*
X337229Y1662811D01*
Y1664106D01*
X337100Y1665402D01*
X336841Y1667215D01*
X336452Y1669029D01*
X335934Y1670972D01*
X335157Y1672915D01*
X334120Y1674599D01*
X333991Y1674729D01*
X333602Y1675247D01*
X332825Y1676024D01*
X331918Y1676931D01*
X330623Y1677838D01*
X329198Y1678744D01*
X327514Y1679651D01*
X325571Y1680299D01*
X325441D01*
X324923Y1680428D01*
X323887Y1680558D01*
X322591Y1680688D01*
X321684Y1680817D01*
X320648D01*
X319482Y1680947D01*
X318187D01*
X316762D01*
X315078Y1681076D01*
X313394D01*
X311451D01*
X311580Y1680947D01*
X311839Y1680688D01*
X312228Y1680299D01*
X312746Y1679781D01*
X313394Y1679133D01*
X314171Y1678226D01*
X314948Y1677190D01*
X315726Y1676154D01*
X317280Y1673433D01*
X318705Y1670454D01*
X319223Y1668770D01*
X319612Y1666956D01*
X319871Y1665013D01*
X320000Y1663070D01*
Y1662422D01*
X319871Y1661775D01*
Y1660868D01*
X319741Y1659702D01*
X319482Y1658407D01*
X319223Y1656982D01*
X318835Y1655427D01*
X318316Y1653743D01*
X317669Y1652059D01*
X316891Y1650375D01*
X315985Y1648562D01*
X314819Y1646878D01*
X313523Y1645194D01*
X312098Y1643639D01*
X310414Y1642214D01*
X310285Y1642085D01*
X310026Y1641955D01*
X309378Y1641566D01*
X308730Y1641048D01*
X307694Y1640530D01*
X306658Y1639882D01*
X305362Y1639235D01*
X303808Y1638587D01*
X302253Y1637939D01*
X300440Y1637292D01*
X298626Y1636644D01*
X296554Y1636126D01*
X292149Y1635219D01*
X289688Y1635089D01*
X287227Y1634960D01*
X287097D01*
X286838D01*
X286320D01*
X285672D01*
X284765Y1635089D01*
X283859D01*
X281527Y1635349D01*
X278936Y1635737D01*
X276086Y1636385D01*
X273107Y1637162D01*
X270127Y1638328D01*
X269998D01*
X269739Y1638457D01*
X269350Y1638717D01*
X268832Y1638976D01*
X267407Y1639753D01*
X265594Y1640789D01*
X263650Y1642214D01*
X261707Y1643898D01*
X259635Y1645841D01*
X257951Y1648043D01*
Y1648173D01*
X257821Y1648303D01*
X257562Y1648691D01*
X257303Y1649209D01*
X256526Y1650505D01*
X255749Y1652318D01*
X254971Y1654520D01*
X254194Y1657111D01*
X253676Y1659961D01*
X253546Y1663070D01*
Y1664236D01*
X253676Y1665013D01*
X253805Y1665920D01*
X254065Y1667086D01*
X254324Y1668381D01*
X254712Y1669806D01*
X255230Y1671231D01*
X255878Y1672786D01*
X256655Y1674340D01*
X257562Y1676024D01*
X258598Y1677579D01*
X259894Y1679133D01*
X261319Y1680688D01*
X263003Y1682112D01*
X254971D01*
Y1692217D01*
X311192D01*
X311321D01*
X311839D01*
X312617D01*
X313653D01*
X314819Y1692087D01*
D02*
G37*
G36*
X320000Y1611384D02*
X254971D01*
Y1622395D01*
X320000D01*
Y1611384D01*
D02*
G37*
G36*
X242924D02*
X230359D01*
Y1622395D01*
X242924D01*
Y1611384D01*
D02*
G37*
G36*
X302901Y1598171D02*
X304326Y1597911D01*
X305881Y1597523D01*
X307565Y1596875D01*
X309508Y1596098D01*
X311321Y1595062D01*
X311580Y1594932D01*
X312098Y1594414D01*
X313005Y1593766D01*
X314042Y1592730D01*
X315207Y1591305D01*
X316503Y1589750D01*
X317669Y1587937D01*
X318835Y1585735D01*
Y1585605D01*
X318964Y1585476D01*
X319223Y1584698D01*
X319612Y1583403D01*
X320130Y1581719D01*
X320648Y1579646D01*
X321037Y1577315D01*
X321296Y1574853D01*
X321425Y1572003D01*
Y1570838D01*
X321296Y1569931D01*
Y1568894D01*
X321166Y1567599D01*
X321037Y1566304D01*
X320778Y1564879D01*
X320130Y1561770D01*
X319223Y1558531D01*
X317928Y1555422D01*
X317150Y1553997D01*
X316244Y1552702D01*
X316114Y1552572D01*
X315985Y1552443D01*
X315207Y1551666D01*
X314042Y1550500D01*
X312228Y1549204D01*
X310026Y1547779D01*
X307435Y1546355D01*
X304196Y1545189D01*
X300569Y1544282D01*
X298885Y1555163D01*
X299015D01*
X299144D01*
X299922Y1555422D01*
X301217Y1555681D01*
X302642Y1556200D01*
X304196Y1556847D01*
X305881Y1557625D01*
X307565Y1558790D01*
X308989Y1560215D01*
X309119Y1560474D01*
X309508Y1560993D01*
X310026Y1562029D01*
X310673Y1563324D01*
X311321Y1565008D01*
X311839Y1566951D01*
X312228Y1569283D01*
X312358Y1572003D01*
Y1573299D01*
X312228Y1574594D01*
X311969Y1576278D01*
X311580Y1578092D01*
X311062Y1580035D01*
X310414Y1581719D01*
X309378Y1583273D01*
X309249Y1583403D01*
X308860Y1583921D01*
X308212Y1584439D01*
X307305Y1585217D01*
X306269Y1585864D01*
X304974Y1586512D01*
X303678Y1586901D01*
X302124Y1587030D01*
X301994D01*
X301476D01*
X300828Y1586901D01*
X299922Y1586641D01*
X299015Y1586253D01*
X298108Y1585605D01*
X297072Y1584828D01*
X296295Y1583662D01*
X296165Y1583533D01*
X296035Y1583144D01*
X295647Y1582496D01*
X295258Y1581460D01*
X294740Y1579905D01*
X294351Y1578999D01*
X294092Y1577962D01*
X293704Y1576796D01*
X293315Y1575501D01*
X292927Y1574076D01*
X292538Y1572392D01*
Y1572263D01*
X292408Y1571874D01*
X292279Y1571226D01*
X292020Y1570449D01*
X291761Y1569413D01*
X291372Y1568247D01*
X290724Y1565786D01*
X289818Y1562936D01*
X289040Y1560215D01*
X288134Y1557625D01*
X287615Y1556459D01*
X287227Y1555552D01*
X287097Y1555293D01*
X286838Y1554775D01*
X286320Y1553997D01*
X285672Y1552961D01*
X284765Y1551795D01*
X283729Y1550629D01*
X282563Y1549464D01*
X281138Y1548427D01*
X281009Y1548298D01*
X280491Y1548039D01*
X279584Y1547650D01*
X278548Y1547261D01*
X277252Y1546873D01*
X275698Y1546484D01*
X274143Y1546225D01*
X272330Y1546095D01*
X272071D01*
X271552D01*
X270775Y1546225D01*
X269609Y1546355D01*
X268443Y1546614D01*
X267019Y1546873D01*
X265723Y1547391D01*
X264298Y1548039D01*
X264169Y1548168D01*
X263650Y1548427D01*
X263003Y1548816D01*
X262096Y1549464D01*
X261189Y1550241D01*
X260023Y1551148D01*
X258987Y1552184D01*
X258080Y1553479D01*
X257951Y1553609D01*
X257821Y1553997D01*
X257433Y1554516D01*
X257044Y1555293D01*
X256526Y1556329D01*
X256008Y1557495D01*
X255489Y1558920D01*
X254971Y1560474D01*
X254842Y1560733D01*
X254712Y1561252D01*
X254453Y1562158D01*
X254194Y1563324D01*
X253935Y1564749D01*
X253805Y1566304D01*
X253546Y1568117D01*
Y1571226D01*
X253676Y1572651D01*
X253805Y1574594D01*
X254065Y1576667D01*
X254583Y1578869D01*
X255101Y1581201D01*
X255878Y1583403D01*
Y1583533D01*
X256008Y1583662D01*
X256267Y1584310D01*
X256785Y1585346D01*
X257433Y1586641D01*
X258339Y1588066D01*
X259376Y1589491D01*
X260542Y1590787D01*
X261837Y1591953D01*
X261966Y1592082D01*
X262485Y1592341D01*
X263391Y1592859D01*
X264428Y1593507D01*
X265982Y1594155D01*
X267666Y1594802D01*
X269609Y1595321D01*
X271811Y1595839D01*
X273236Y1585087D01*
X272977D01*
X272459Y1584957D01*
X271552Y1584698D01*
X270387Y1584310D01*
X269221Y1583662D01*
X267925Y1582885D01*
X266630Y1581978D01*
X265464Y1580683D01*
X265334Y1580553D01*
X265075Y1580035D01*
X264557Y1579258D01*
X264039Y1578092D01*
X263521Y1576796D01*
X263003Y1575112D01*
X262744Y1573040D01*
X262614Y1570838D01*
Y1569542D01*
X262744Y1568247D01*
X262873Y1566563D01*
X263262Y1564879D01*
X263650Y1563065D01*
X264298Y1561381D01*
X265205Y1559956D01*
X265334Y1559827D01*
X265594Y1559438D01*
X266112Y1558920D01*
X266889Y1558402D01*
X267666Y1557754D01*
X268703Y1557236D01*
X269868Y1556847D01*
X271034Y1556718D01*
X271164D01*
X271423D01*
X271811Y1556847D01*
X272330D01*
X273625Y1557236D01*
X274920Y1558013D01*
X275050Y1558143D01*
X275180Y1558272D01*
X275568Y1558531D01*
X275957Y1559049D01*
X276345Y1559568D01*
X276864Y1560345D01*
X277252Y1561252D01*
X277770Y1562288D01*
Y1562417D01*
X277900Y1562677D01*
X278029Y1563195D01*
X278418Y1564102D01*
X278807Y1565397D01*
X279195Y1567081D01*
X279584Y1568117D01*
X279843Y1569283D01*
X280232Y1570579D01*
X280620Y1572003D01*
Y1572133D01*
X280750Y1572522D01*
X280879Y1573169D01*
X281138Y1573947D01*
X281397Y1574853D01*
X281657Y1576019D01*
X282434Y1578480D01*
X283211Y1581201D01*
X284118Y1583921D01*
X285025Y1586382D01*
X285413Y1587419D01*
X285802Y1588325D01*
X285931Y1588585D01*
X286190Y1589103D01*
X286579Y1589880D01*
X287227Y1591046D01*
X288004Y1592212D01*
X289040Y1593378D01*
X290206Y1594543D01*
X291502Y1595580D01*
X291631Y1595709D01*
X292149Y1595968D01*
X292927Y1596487D01*
X294092Y1597005D01*
X295517Y1597393D01*
X297072Y1597911D01*
X298885Y1598171D01*
X300958Y1598300D01*
X301217D01*
X301865D01*
X302901Y1598171D01*
D02*
G37*
G36*
X290336Y1535085D02*
Y1486507D01*
X290465D01*
X290854D01*
X291372Y1486637D01*
X292149D01*
X293056Y1486766D01*
X294092Y1487025D01*
X296424Y1487414D01*
X299015Y1488191D01*
X301865Y1489227D01*
X304456Y1490652D01*
X306787Y1492466D01*
Y1492595D01*
X307046Y1492725D01*
X307694Y1493502D01*
X308601Y1494668D01*
X309508Y1496223D01*
X310544Y1498295D01*
X311451Y1500627D01*
X312098Y1503218D01*
X312228Y1504643D01*
X312358Y1506197D01*
Y1507233D01*
X312228Y1508399D01*
X311969Y1509824D01*
X311580Y1511379D01*
X311062Y1513192D01*
X310285Y1514876D01*
X309249Y1516560D01*
X309119Y1516690D01*
X308601Y1517338D01*
X307824Y1518115D01*
X306787Y1519022D01*
X305362Y1520058D01*
X303549Y1521224D01*
X301476Y1522390D01*
X299015Y1523426D01*
X300440Y1534825D01*
X300569D01*
X300828Y1534696D01*
X301347Y1534566D01*
X302124Y1534307D01*
X302901Y1533919D01*
X303937Y1533530D01*
X306140Y1532494D01*
X308601Y1531198D01*
X311192Y1529385D01*
X313653Y1527312D01*
X315985Y1524721D01*
Y1524592D01*
X316244Y1524333D01*
X316503Y1523944D01*
X316891Y1523426D01*
X317280Y1522649D01*
X317669Y1521871D01*
X318187Y1520835D01*
X318705Y1519669D01*
X319223Y1518374D01*
X319741Y1517079D01*
X320519Y1513840D01*
X321166Y1510213D01*
X321425Y1506197D01*
Y1504772D01*
X321296Y1503865D01*
X321166Y1502700D01*
X320907Y1501275D01*
X320648Y1499720D01*
X320389Y1498036D01*
X319353Y1494409D01*
X318575Y1492466D01*
X317798Y1490652D01*
X316762Y1488709D01*
X315596Y1486896D01*
X314301Y1485212D01*
X312746Y1483528D01*
X312617Y1483398D01*
X312358Y1483139D01*
X311839Y1482750D01*
X311062Y1482232D01*
X310155Y1481585D01*
X309119Y1480937D01*
X307824Y1480160D01*
X306399Y1479382D01*
X304715Y1478605D01*
X302901Y1477828D01*
X300828Y1477180D01*
X298626Y1476532D01*
X296295Y1476014D01*
X293704Y1475626D01*
X290983Y1475367D01*
X288134Y1475237D01*
X288004D01*
X287356D01*
X286579D01*
X285413Y1475367D01*
X283988Y1475496D01*
X282434Y1475626D01*
X280620Y1475885D01*
X278807Y1476273D01*
X274661Y1477310D01*
X272589Y1477957D01*
X270387Y1478735D01*
X268314Y1479771D01*
X266371Y1480937D01*
X264428Y1482232D01*
X262614Y1483657D01*
X262485Y1483787D01*
X262226Y1484046D01*
X261837Y1484564D01*
X261189Y1485212D01*
X260542Y1485989D01*
X259764Y1487025D01*
X258857Y1488191D01*
X258080Y1489616D01*
X257173Y1491041D01*
X256396Y1492725D01*
X255619Y1494539D01*
X254971Y1496482D01*
X254324Y1498554D01*
X253935Y1500756D01*
X253676Y1503088D01*
X253546Y1505549D01*
Y1506845D01*
X253676Y1507752D01*
X253805Y1508788D01*
X254065Y1510083D01*
X254324Y1511508D01*
X254712Y1513192D01*
X255101Y1514747D01*
X255749Y1516560D01*
X256396Y1518244D01*
X257303Y1520058D01*
X258339Y1521871D01*
X259505Y1523685D01*
X260930Y1525369D01*
X262485Y1526924D01*
X262614Y1527053D01*
X262873Y1527312D01*
X263391Y1527701D01*
X264169Y1528219D01*
X265075Y1528867D01*
X266112Y1529514D01*
X267407Y1530292D01*
X268962Y1531069D01*
X270646Y1531846D01*
X272459Y1532623D01*
X274532Y1533271D01*
X276734Y1533919D01*
X279195Y1534437D01*
X281786Y1534825D01*
X284506Y1535085D01*
X287486Y1535214D01*
X287615D01*
X288134D01*
X289040D01*
X290336Y1535085D01*
D02*
G37*
G36*
X277382Y1463967D02*
X278418D01*
X280879Y1463838D01*
X283729Y1463449D01*
X286709Y1463060D01*
X289818Y1462413D01*
X292927Y1461635D01*
X293056D01*
X293315Y1461506D01*
X293704Y1461376D01*
X294222Y1461247D01*
X295647Y1460729D01*
X297460Y1459951D01*
X299533Y1459174D01*
X301606Y1458138D01*
X303808Y1456842D01*
X305881Y1455547D01*
X306140Y1455417D01*
X306787Y1454899D01*
X307694Y1454122D01*
X308860Y1453086D01*
X310155Y1451920D01*
X311451Y1450495D01*
X312876Y1449070D01*
X314042Y1447386D01*
X314171Y1447127D01*
X314560Y1446609D01*
X315078Y1445702D01*
X315726Y1444407D01*
X316503Y1442852D01*
X317150Y1441039D01*
X317928Y1438966D01*
X318575Y1436634D01*
Y1436375D01*
X318705Y1435986D01*
X318835Y1435598D01*
X318964Y1434302D01*
X319223Y1432489D01*
X319482Y1430416D01*
X319741Y1427955D01*
X319871Y1425235D01*
X320000Y1422255D01*
Y1390000D01*
X230359D01*
Y1424457D01*
X230488Y1426789D01*
X230618Y1429380D01*
X230877Y1431971D01*
X231265Y1434562D01*
X231654Y1436764D01*
Y1436893D01*
X231784Y1437152D01*
Y1437541D01*
X232043Y1438059D01*
X232431Y1439484D01*
X233079Y1441298D01*
X233986Y1443370D01*
X235152Y1445572D01*
X236447Y1447775D01*
X238131Y1449847D01*
X238261Y1449977D01*
X238390Y1450106D01*
X238779Y1450495D01*
X239167Y1451013D01*
X240463Y1452308D01*
X242276Y1453863D01*
X244479Y1455547D01*
X247069Y1457361D01*
X250049Y1459045D01*
X253417Y1460470D01*
X253546D01*
X253805Y1460599D01*
X254324Y1460858D01*
X255101Y1460988D01*
X256008Y1461376D01*
X257044Y1461635D01*
X258210Y1461894D01*
X259635Y1462283D01*
X261060Y1462672D01*
X262744Y1462931D01*
X266371Y1463578D01*
X270387Y1463967D01*
X274791Y1464097D01*
X274920D01*
X275180D01*
X275827D01*
X276475D01*
X277382Y1463967D01*
D02*
G37*
G36*
X1825199Y1355621D02*
X1838450D01*
Y1344625D01*
X1825199D01*
Y1321224D01*
X1813216D01*
Y1344625D01*
X1770784D01*
Y1355621D01*
X1815472Y1418776D01*
X1825199D01*
Y1355621D01*
D02*
G37*
G36*
X1727929Y1418635D02*
X1729198D01*
X1732159Y1418494D01*
X1735260Y1418071D01*
X1738643Y1417648D01*
X1741745Y1416943D01*
X1743295Y1416520D01*
X1744564Y1416097D01*
X1744705D01*
X1744846Y1415956D01*
X1745692Y1415533D01*
X1746960Y1414969D01*
X1748511Y1413983D01*
X1750203Y1412714D01*
X1752035Y1411022D01*
X1753727Y1409049D01*
X1755419Y1406793D01*
Y1406652D01*
X1755560Y1406511D01*
X1756123Y1405665D01*
X1756687Y1404256D01*
X1757533Y1402423D01*
X1758238Y1400309D01*
X1758943Y1397771D01*
X1759366Y1395093D01*
X1759507Y1392132D01*
Y1391991D01*
Y1391709D01*
Y1391146D01*
X1759366Y1390441D01*
Y1389454D01*
X1759225Y1388467D01*
X1758661Y1386071D01*
X1757815Y1383251D01*
X1756687Y1380291D01*
X1754996Y1377330D01*
X1753868Y1375921D01*
X1752740Y1374511D01*
X1752599Y1374370D01*
X1752458Y1374229D01*
X1752035Y1373806D01*
X1751471Y1373383D01*
X1750767Y1372819D01*
X1749921Y1372256D01*
X1748793Y1371551D01*
X1747665Y1370705D01*
X1746256Y1370000D01*
X1744705Y1369295D01*
X1743013Y1368449D01*
X1741181Y1367745D01*
X1739066Y1367181D01*
X1736952Y1366476D01*
X1734555Y1366053D01*
X1732018Y1365630D01*
X1732300Y1365489D01*
X1732863Y1365207D01*
X1733709Y1364643D01*
X1734837Y1364079D01*
X1737374Y1362529D01*
X1738643Y1361542D01*
X1739771Y1360696D01*
X1740053Y1360414D01*
X1740758Y1359709D01*
X1741886Y1358581D01*
X1743295Y1357172D01*
X1744846Y1355198D01*
X1746678Y1353084D01*
X1748511Y1350546D01*
X1750485Y1347727D01*
X1767260Y1321224D01*
X1751190D01*
X1738361Y1341524D01*
Y1341665D01*
X1738079Y1341947D01*
X1737797Y1342370D01*
X1737374Y1342934D01*
X1736388Y1344484D01*
X1735119Y1346458D01*
X1733568Y1348573D01*
X1732018Y1350828D01*
X1730467Y1352943D01*
X1729057Y1354916D01*
X1728916Y1355057D01*
X1728493Y1355621D01*
X1727789Y1356467D01*
X1726802Y1357454D01*
X1724687Y1359568D01*
X1723559Y1360555D01*
X1722432Y1361401D01*
X1722291Y1361542D01*
X1722009Y1361683D01*
X1721445Y1361965D01*
X1720599Y1362388D01*
X1719753Y1362811D01*
X1718766Y1363233D01*
X1716511Y1363938D01*
X1716370D01*
X1716088Y1364079D01*
X1715524D01*
X1714819Y1364220D01*
X1713832Y1364361D01*
X1712705D01*
X1711154Y1364502D01*
X1694520D01*
Y1321224D01*
X1681550D01*
Y1418776D01*
X1726802D01*
X1727929Y1418635D01*
D02*
G37*
G36*
X1798212Y929692D02*
X1800044Y929410D01*
X1802300Y928987D01*
X1804837Y928282D01*
X1807375Y927437D01*
X1809912Y926309D01*
X1810053D01*
X1810194Y926168D01*
X1811040Y925745D01*
X1812309Y924899D01*
X1813718Y923912D01*
X1815410Y922503D01*
X1817102Y920952D01*
X1818793Y919119D01*
X1820203Y917005D01*
X1820344Y916723D01*
X1820767Y916018D01*
X1821331Y914749D01*
X1822036Y913199D01*
X1822741Y911366D01*
X1823304Y909251D01*
X1823727Y906855D01*
X1823868Y904458D01*
Y904176D01*
Y903331D01*
X1823727Y902203D01*
X1823445Y900652D01*
X1823023Y898820D01*
X1822318Y896846D01*
X1821472Y894872D01*
X1820344Y892899D01*
X1820203Y892617D01*
X1819780Y892053D01*
X1818934Y891066D01*
X1817807Y889939D01*
X1816397Y888670D01*
X1814705Y887260D01*
X1812732Y885991D01*
X1810335Y884723D01*
X1810476D01*
X1810758Y884582D01*
X1811181Y884441D01*
X1811745Y884300D01*
X1813296Y883736D01*
X1815269Y882890D01*
X1817525Y881762D01*
X1819780Y880353D01*
X1821895Y878520D01*
X1823868Y876405D01*
X1824009Y876123D01*
X1824573Y875278D01*
X1825419Y873868D01*
X1826265Y872035D01*
X1827111Y869780D01*
X1827956Y867101D01*
X1828520Y864000D01*
X1828661Y860617D01*
Y860476D01*
Y860053D01*
Y859348D01*
X1828520Y858502D01*
X1828379Y857374D01*
X1828097Y856106D01*
X1827815Y854696D01*
X1827534Y853145D01*
X1826406Y849762D01*
X1825560Y847929D01*
X1824714Y846238D01*
X1823586Y844405D01*
X1822318Y842573D01*
X1820908Y840740D01*
X1819216Y839048D01*
X1819075Y838907D01*
X1818793Y838625D01*
X1818230Y838203D01*
X1817525Y837639D01*
X1816679Y836934D01*
X1815551Y836229D01*
X1814282Y835383D01*
X1812732Y834678D01*
X1811181Y833832D01*
X1809348Y832987D01*
X1807516Y832282D01*
X1805401Y831577D01*
X1803146Y831013D01*
X1800749Y830590D01*
X1798353Y830308D01*
X1795674Y830167D01*
X1794406D01*
X1793560Y830308D01*
X1792432Y830449D01*
X1791163Y830590D01*
X1789754Y830872D01*
X1788203Y831154D01*
X1784820Y832000D01*
X1781295Y833410D01*
X1779463Y834255D01*
X1777771Y835242D01*
X1776080Y836511D01*
X1774388Y837780D01*
X1774247Y837921D01*
X1773965Y838203D01*
X1773542Y838625D01*
X1773119Y839189D01*
X1772414Y839894D01*
X1771709Y840881D01*
X1770864Y841868D01*
X1770018Y843136D01*
X1769172Y844546D01*
X1768326Y845956D01*
X1766775Y849339D01*
X1765507Y853286D01*
X1765084Y855401D01*
X1764802Y857656D01*
X1776784Y859207D01*
Y859066D01*
X1776925Y858784D01*
X1777066Y858220D01*
X1777207Y857515D01*
X1777348Y856670D01*
X1777630Y855683D01*
X1778335Y853568D01*
X1779322Y851031D01*
X1780591Y848634D01*
X1782000Y846379D01*
X1783692Y844405D01*
X1783974Y844264D01*
X1784538Y843700D01*
X1785665Y842996D01*
X1787075Y842291D01*
X1788767Y841445D01*
X1790881Y840740D01*
X1793278Y840176D01*
X1795815Y840035D01*
X1796661D01*
X1797225Y840176D01*
X1798776Y840317D01*
X1800749Y840740D01*
X1803005Y841445D01*
X1805401Y842432D01*
X1807798Y843841D01*
X1810053Y845815D01*
X1810335Y846097D01*
X1811040Y846943D01*
X1811886Y848211D01*
X1813014Y849903D01*
X1814141Y852018D01*
X1814987Y854414D01*
X1815692Y857233D01*
X1815974Y860335D01*
Y860476D01*
Y860758D01*
Y861181D01*
X1815833Y861745D01*
X1815692Y863295D01*
X1815269Y865128D01*
X1814705Y867383D01*
X1813718Y869639D01*
X1812309Y871894D01*
X1810476Y874009D01*
X1810194Y874291D01*
X1809489Y874855D01*
X1808362Y875701D01*
X1806811Y876687D01*
X1804837Y877674D01*
X1802441Y878520D01*
X1799762Y879084D01*
X1796802Y879366D01*
X1795533D01*
X1794547Y879225D01*
X1793278Y879084D01*
X1791868Y878802D01*
X1790177Y878520D01*
X1788344Y878097D01*
X1789754Y888670D01*
X1790458D01*
X1791022Y888529D01*
X1792855D01*
X1794406Y888811D01*
X1796238Y889093D01*
X1798353Y889516D01*
X1800749Y890220D01*
X1803005Y891207D01*
X1805401Y892476D01*
X1805542D01*
X1805683Y892617D01*
X1806388Y893181D01*
X1807375Y894168D01*
X1808503Y895436D01*
X1809630Y897269D01*
X1810617Y899384D01*
X1811322Y901780D01*
X1811604Y903190D01*
Y904740D01*
Y904881D01*
Y905022D01*
Y905868D01*
X1811322Y906996D01*
X1811040Y908547D01*
X1810476Y910238D01*
X1809771Y912071D01*
X1808644Y913903D01*
X1807093Y915595D01*
X1806952Y915736D01*
X1806247Y916300D01*
X1805260Y917005D01*
X1803992Y917851D01*
X1802300Y918555D01*
X1800326Y919260D01*
X1798071Y919824D01*
X1795533Y919965D01*
X1794406D01*
X1793137Y919683D01*
X1791445Y919401D01*
X1789613Y918837D01*
X1787780Y918133D01*
X1785806Y917005D01*
X1783974Y915595D01*
X1783833Y915454D01*
X1783269Y914749D01*
X1782423Y913762D01*
X1781436Y912353D01*
X1780450Y910520D01*
X1779463Y908265D01*
X1778617Y905586D01*
X1778053Y902485D01*
X1766071Y904599D01*
Y904740D01*
X1766212Y905163D01*
X1766353Y905727D01*
X1766494Y906573D01*
X1766775Y907560D01*
X1767198Y908688D01*
X1768044Y911366D01*
X1769454Y914467D01*
X1771146Y917569D01*
X1773260Y920529D01*
X1775939Y923207D01*
X1776080Y923348D01*
X1776361Y923489D01*
X1776784Y923771D01*
X1777348Y924194D01*
X1778053Y924758D01*
X1779040Y925322D01*
X1780027Y925886D01*
X1781295Y926591D01*
X1784115Y927718D01*
X1787357Y928846D01*
X1791163Y929551D01*
X1793137Y929833D01*
X1796661D01*
X1798212Y929692D01*
D02*
G37*
G36*
X1717718Y929269D02*
X1718987D01*
X1721947Y929128D01*
X1725048Y928705D01*
X1728432Y928282D01*
X1731533Y927578D01*
X1733084Y927155D01*
X1734352Y926732D01*
X1734493D01*
X1734634Y926591D01*
X1735480Y926168D01*
X1736749Y925604D01*
X1738300Y924617D01*
X1739991Y923348D01*
X1741824Y921657D01*
X1743515Y919683D01*
X1745207Y917428D01*
Y917287D01*
X1745348Y917146D01*
X1745912Y916300D01*
X1746476Y914890D01*
X1747322Y913058D01*
X1748026Y910943D01*
X1748731Y908406D01*
X1749154Y905727D01*
X1749295Y902767D01*
Y902626D01*
Y902344D01*
Y901780D01*
X1749154Y901075D01*
Y900088D01*
X1749013Y899102D01*
X1748449Y896705D01*
X1747604Y893886D01*
X1746476Y890925D01*
X1744784Y887965D01*
X1743656Y886555D01*
X1742529Y885146D01*
X1742388Y885005D01*
X1742247Y884864D01*
X1741824Y884441D01*
X1741260Y884018D01*
X1740555Y883454D01*
X1739709Y882890D01*
X1738581Y882185D01*
X1737454Y881339D01*
X1736044Y880635D01*
X1734493Y879930D01*
X1732802Y879084D01*
X1730969Y878379D01*
X1728855Y877815D01*
X1726740Y877110D01*
X1724344Y876687D01*
X1721806Y876264D01*
X1722088Y876123D01*
X1722652Y875842D01*
X1723498Y875278D01*
X1724625Y874714D01*
X1727163Y873163D01*
X1728432Y872176D01*
X1729559Y871330D01*
X1729841Y871049D01*
X1730546Y870344D01*
X1731674Y869216D01*
X1733084Y867806D01*
X1734634Y865833D01*
X1736467Y863718D01*
X1738300Y861181D01*
X1740273Y858361D01*
X1757049Y831859D01*
X1740978D01*
X1728150Y852159D01*
Y852300D01*
X1727868Y852581D01*
X1727586Y853004D01*
X1727163Y853568D01*
X1726176Y855119D01*
X1724907Y857093D01*
X1723357Y859207D01*
X1721806Y861463D01*
X1720255Y863577D01*
X1718846Y865551D01*
X1718705Y865692D01*
X1718282Y866256D01*
X1717577Y867101D01*
X1716590Y868088D01*
X1714476Y870203D01*
X1713348Y871190D01*
X1712220Y872035D01*
X1712079Y872176D01*
X1711797Y872317D01*
X1711233Y872599D01*
X1710387Y873022D01*
X1709542Y873445D01*
X1708555Y873868D01*
X1706299Y874573D01*
X1706158D01*
X1705876Y874714D01*
X1705313D01*
X1704608Y874855D01*
X1703621Y874996D01*
X1702493D01*
X1700942Y875137D01*
X1684308D01*
Y831859D01*
X1671339D01*
Y929410D01*
X1716590D01*
X1717718Y929269D01*
D02*
G37*
G36*
X1829833Y1808846D02*
X1830961Y1808705D01*
X1832370Y1808564D01*
X1833921Y1808282D01*
X1835472Y1808000D01*
X1839137Y1807014D01*
X1842802Y1805604D01*
X1844635Y1804758D01*
X1846467Y1803771D01*
X1848159Y1802503D01*
X1849710Y1801093D01*
X1849851Y1800952D01*
X1850133Y1800811D01*
X1850415Y1800247D01*
X1850979Y1799683D01*
X1851683Y1798978D01*
X1852388Y1797992D01*
X1853093Y1797005D01*
X1853939Y1795736D01*
X1855349Y1793058D01*
X1856758Y1789674D01*
X1857322Y1787983D01*
X1857604Y1786009D01*
X1857886Y1784036D01*
X1858027Y1781921D01*
Y1781639D01*
Y1780934D01*
X1857886Y1779806D01*
X1857745Y1778256D01*
X1857463Y1776564D01*
X1856899Y1774591D01*
X1856335Y1772476D01*
X1855490Y1770361D01*
X1855349Y1770080D01*
X1855067Y1769375D01*
X1854503Y1768247D01*
X1853657Y1766696D01*
X1852529Y1765005D01*
X1851119Y1762890D01*
X1849428Y1760775D01*
X1847454Y1758379D01*
X1847172Y1758097D01*
X1846467Y1757251D01*
X1845763Y1756546D01*
X1845058Y1755842D01*
X1844212Y1754996D01*
X1843084Y1753868D01*
X1841956Y1752740D01*
X1840547Y1751471D01*
X1839137Y1750062D01*
X1837445Y1748511D01*
X1835613Y1746960D01*
X1833639Y1745128D01*
X1831384Y1743295D01*
X1829128Y1741322D01*
X1828987Y1741181D01*
X1828705Y1740899D01*
X1828141Y1740476D01*
X1827437Y1739912D01*
X1826591Y1739066D01*
X1825604Y1738220D01*
X1823348Y1736388D01*
X1820952Y1734273D01*
X1818696Y1732159D01*
X1816723Y1730326D01*
X1815877Y1729621D01*
X1815172Y1728916D01*
X1815031Y1728775D01*
X1814608Y1728352D01*
X1814044Y1727789D01*
X1813340Y1726943D01*
X1812635Y1725956D01*
X1811789Y1724969D01*
X1810097Y1722573D01*
X1858168D01*
Y1711013D01*
X1793463D01*
Y1711154D01*
Y1711718D01*
Y1712564D01*
X1793604Y1713692D01*
X1793745Y1714960D01*
X1794027Y1716370D01*
X1794309Y1717780D01*
X1794872Y1719330D01*
Y1719471D01*
X1795013Y1719612D01*
X1795295Y1720458D01*
X1795859Y1721727D01*
X1796705Y1723418D01*
X1797833Y1725392D01*
X1799243Y1727648D01*
X1800793Y1729903D01*
X1802767Y1732300D01*
Y1732441D01*
X1803049Y1732581D01*
X1803754Y1733427D01*
X1805022Y1734696D01*
X1806855Y1736529D01*
X1808969Y1738643D01*
X1811648Y1741181D01*
X1814890Y1744000D01*
X1818414Y1746960D01*
X1818555Y1747101D01*
X1819119Y1747524D01*
X1819965Y1748229D01*
X1820952Y1749075D01*
X1822221Y1750203D01*
X1823771Y1751471D01*
X1825322Y1752881D01*
X1827155Y1754432D01*
X1830679Y1757815D01*
X1834203Y1761198D01*
X1835895Y1762890D01*
X1837445Y1764582D01*
X1838855Y1766132D01*
X1839983Y1767683D01*
Y1767824D01*
X1840265Y1767965D01*
X1840547Y1768388D01*
X1840829Y1768952D01*
X1841815Y1770502D01*
X1842943Y1772335D01*
X1843930Y1774591D01*
X1844917Y1776987D01*
X1845481Y1779665D01*
X1845763Y1782203D01*
Y1782344D01*
Y1782485D01*
X1845622Y1783331D01*
X1845481Y1784740D01*
X1845058Y1786291D01*
X1844494Y1788265D01*
X1843507Y1790238D01*
X1842238Y1792212D01*
X1840547Y1794185D01*
X1840265Y1794467D01*
X1839560Y1795031D01*
X1838573Y1795736D01*
X1837022Y1796723D01*
X1835049Y1797569D01*
X1832793Y1798414D01*
X1830115Y1798978D01*
X1827155Y1799119D01*
X1826309D01*
X1825745Y1798978D01*
X1824053Y1798837D01*
X1822080Y1798414D01*
X1819965Y1797851D01*
X1817569Y1796864D01*
X1815313Y1795595D01*
X1813199Y1793903D01*
X1812917Y1793622D01*
X1812353Y1792917D01*
X1811507Y1791789D01*
X1810661Y1790097D01*
X1809674Y1788124D01*
X1808828Y1785586D01*
X1808265Y1782767D01*
X1807983Y1779525D01*
X1795718Y1780793D01*
Y1780934D01*
X1795859Y1781357D01*
Y1782062D01*
X1796000Y1783049D01*
X1796282Y1784177D01*
X1796564Y1785445D01*
X1796987Y1786996D01*
X1797410Y1788547D01*
X1798538Y1791930D01*
X1800229Y1795313D01*
X1801216Y1797005D01*
X1802485Y1798696D01*
X1803754Y1800247D01*
X1805163Y1801657D01*
X1805304Y1801798D01*
X1805586Y1801939D01*
X1806009Y1802362D01*
X1806714Y1802785D01*
X1807560Y1803348D01*
X1808547Y1803912D01*
X1809674Y1804617D01*
X1811084Y1805322D01*
X1812635Y1806027D01*
X1814326Y1806732D01*
X1816159Y1807296D01*
X1818133Y1807859D01*
X1820247Y1808282D01*
X1822503Y1808705D01*
X1824899Y1808846D01*
X1827437Y1808987D01*
X1828846D01*
X1829833Y1808846D01*
D02*
G37*
G36*
X1748211Y1808423D02*
X1749480D01*
X1752440Y1808282D01*
X1755542Y1807859D01*
X1758925Y1807437D01*
X1762026Y1806732D01*
X1763577Y1806309D01*
X1764846Y1805886D01*
X1764987D01*
X1765128Y1805745D01*
X1765974Y1805322D01*
X1767242Y1804758D01*
X1768793Y1803771D01*
X1770485Y1802503D01*
X1772317Y1800811D01*
X1774009Y1798837D01*
X1775701Y1796582D01*
Y1796441D01*
X1775842Y1796300D01*
X1776405Y1795454D01*
X1776969Y1794044D01*
X1777815Y1792212D01*
X1778520Y1790097D01*
X1779225Y1787560D01*
X1779648Y1784881D01*
X1779789Y1781921D01*
Y1781780D01*
Y1781498D01*
Y1780934D01*
X1779648Y1780229D01*
Y1779243D01*
X1779507Y1778256D01*
X1778943Y1775859D01*
X1778097Y1773040D01*
X1776969Y1770080D01*
X1775278Y1767119D01*
X1774150Y1765709D01*
X1773022Y1764300D01*
X1772881Y1764159D01*
X1772740Y1764018D01*
X1772317Y1763595D01*
X1771753Y1763172D01*
X1771049Y1762608D01*
X1770203Y1762044D01*
X1769075Y1761339D01*
X1767947Y1760494D01*
X1766537Y1759789D01*
X1764987Y1759084D01*
X1763295Y1758238D01*
X1761463Y1757533D01*
X1759348Y1756969D01*
X1757233Y1756264D01*
X1754837Y1755842D01*
X1752300Y1755419D01*
X1752581Y1755278D01*
X1753145Y1754996D01*
X1753991Y1754432D01*
X1755119Y1753868D01*
X1757656Y1752317D01*
X1758925Y1751331D01*
X1760053Y1750485D01*
X1760335Y1750203D01*
X1761040Y1749498D01*
X1762167Y1748370D01*
X1763577Y1746960D01*
X1765128Y1744987D01*
X1766960Y1742872D01*
X1768793Y1740335D01*
X1770767Y1737515D01*
X1787542Y1711013D01*
X1771471D01*
X1758643Y1731313D01*
Y1731454D01*
X1758361Y1731736D01*
X1758079Y1732159D01*
X1757656Y1732722D01*
X1756670Y1734273D01*
X1755401Y1736247D01*
X1753850Y1738361D01*
X1752300Y1740617D01*
X1750749Y1742731D01*
X1749339Y1744705D01*
X1749198Y1744846D01*
X1748775Y1745410D01*
X1748070Y1746256D01*
X1747084Y1747242D01*
X1744969Y1749357D01*
X1743841Y1750344D01*
X1742714Y1751190D01*
X1742573Y1751331D01*
X1742291Y1751471D01*
X1741727Y1751753D01*
X1740881Y1752176D01*
X1740035Y1752599D01*
X1739048Y1753022D01*
X1736793Y1753727D01*
X1736652D01*
X1736370Y1753868D01*
X1735806D01*
X1735101Y1754009D01*
X1734114Y1754150D01*
X1732987D01*
X1731436Y1754291D01*
X1714801D01*
Y1711013D01*
X1701832D01*
Y1808564D01*
X1747084D01*
X1748211Y1808423D01*
D02*
G37*
G36*
X1234899Y2061343D02*
X1236027Y2061202D01*
X1237437Y2061061D01*
X1238988Y2060779D01*
X1240538Y2060498D01*
X1244204Y2059511D01*
X1247869Y2058101D01*
X1249701Y2057255D01*
X1251534Y2056268D01*
X1253226Y2055000D01*
X1254776Y2053590D01*
X1254917Y2053449D01*
X1255199Y2053308D01*
X1255481Y2052744D01*
X1256045Y2052180D01*
X1256750Y2051475D01*
X1257455Y2050489D01*
X1258160Y2049502D01*
X1259005Y2048233D01*
X1260415Y2045555D01*
X1261825Y2042171D01*
X1262389Y2040480D01*
X1262671Y2038506D01*
X1262953Y2036533D01*
X1263093Y2034418D01*
Y2034136D01*
Y2033431D01*
X1262953Y2032304D01*
X1262812Y2030753D01*
X1262530Y2029061D01*
X1261966Y2027088D01*
X1261402Y2024973D01*
X1260556Y2022859D01*
X1260415Y2022577D01*
X1260133Y2021872D01*
X1259569Y2020744D01*
X1258723Y2019193D01*
X1257596Y2017502D01*
X1256186Y2015387D01*
X1254494Y2013273D01*
X1252521Y2010876D01*
X1252239Y2010594D01*
X1251534Y2009748D01*
X1250829Y2009043D01*
X1250124Y2008339D01*
X1249278Y2007493D01*
X1248151Y2006365D01*
X1247023Y2005237D01*
X1245613Y2003969D01*
X1244204Y2002559D01*
X1242512Y2001008D01*
X1240679Y1999458D01*
X1238706Y1997625D01*
X1236450Y1995792D01*
X1234195Y1993819D01*
X1234054Y1993678D01*
X1233772Y1993396D01*
X1233208Y1992973D01*
X1232503Y1992409D01*
X1231657Y1991563D01*
X1230670Y1990717D01*
X1228415Y1988885D01*
X1226018Y1986770D01*
X1223763Y1984656D01*
X1221789Y1982823D01*
X1220943Y1982118D01*
X1220239Y1981413D01*
X1220098Y1981272D01*
X1219675Y1980849D01*
X1219111Y1980286D01*
X1218406Y1979440D01*
X1217701Y1978453D01*
X1216855Y1977466D01*
X1215164Y1975070D01*
X1263234D01*
Y1963510D01*
X1198529D01*
Y1963651D01*
Y1964215D01*
Y1965061D01*
X1198670Y1966189D01*
X1198811Y1967457D01*
X1199093Y1968867D01*
X1199375Y1970277D01*
X1199939Y1971827D01*
Y1971968D01*
X1200080Y1972109D01*
X1200362Y1972955D01*
X1200926Y1974224D01*
X1201772Y1975916D01*
X1202899Y1977889D01*
X1204309Y1980145D01*
X1205860Y1982400D01*
X1207833Y1984797D01*
Y1984938D01*
X1208115Y1985079D01*
X1208820Y1985924D01*
X1210089Y1987193D01*
X1211921Y1989026D01*
X1214036Y1991140D01*
X1216714Y1993678D01*
X1219957Y1996497D01*
X1223481Y1999458D01*
X1223622Y1999598D01*
X1224186Y2000021D01*
X1225032Y2000726D01*
X1226018Y2001572D01*
X1227287Y2002700D01*
X1228838Y2003969D01*
X1230388Y2005378D01*
X1232221Y2006929D01*
X1235745Y2010312D01*
X1239270Y2013695D01*
X1240961Y2015387D01*
X1242512Y2017079D01*
X1243922Y2018629D01*
X1245049Y2020180D01*
Y2020321D01*
X1245331Y2020462D01*
X1245613Y2020885D01*
X1245895Y2021449D01*
X1246882Y2023000D01*
X1248010Y2024832D01*
X1248996Y2027088D01*
X1249983Y2029484D01*
X1250547Y2032163D01*
X1250829Y2034700D01*
Y2034841D01*
Y2034982D01*
X1250688Y2035828D01*
X1250547Y2037237D01*
X1250124Y2038788D01*
X1249560Y2040762D01*
X1248574Y2042735D01*
X1247305Y2044709D01*
X1245613Y2046682D01*
X1245331Y2046964D01*
X1244626Y2047528D01*
X1243640Y2048233D01*
X1242089Y2049220D01*
X1240115Y2050066D01*
X1237860Y2050912D01*
X1235181Y2051475D01*
X1232221Y2051616D01*
X1231375D01*
X1230811Y2051475D01*
X1229120Y2051334D01*
X1227146Y2050912D01*
X1225032Y2050348D01*
X1222635Y2049361D01*
X1220380Y2048092D01*
X1218265Y2046401D01*
X1217983Y2046119D01*
X1217419Y2045414D01*
X1216573Y2044286D01*
X1215728Y2042594D01*
X1214741Y2040621D01*
X1213895Y2038083D01*
X1213331Y2035264D01*
X1213049Y2032022D01*
X1200785Y2033290D01*
Y2033431D01*
X1200926Y2033854D01*
Y2034559D01*
X1201067Y2035546D01*
X1201349Y2036674D01*
X1201631Y2037942D01*
X1202053Y2039493D01*
X1202476Y2041044D01*
X1203604Y2044427D01*
X1205296Y2047810D01*
X1206283Y2049502D01*
X1207551Y2051194D01*
X1208820Y2052744D01*
X1210230Y2054154D01*
X1210371Y2054295D01*
X1210653Y2054436D01*
X1211076Y2054859D01*
X1211780Y2055282D01*
X1212626Y2055846D01*
X1213613Y2056409D01*
X1214741Y2057114D01*
X1216150Y2057819D01*
X1217701Y2058524D01*
X1219393Y2059229D01*
X1221225Y2059793D01*
X1223199Y2060357D01*
X1225314Y2060779D01*
X1227569Y2061202D01*
X1229966Y2061343D01*
X1232503Y2061484D01*
X1233913D01*
X1234899Y2061343D01*
D02*
G37*
G36*
X1146793Y2060920D02*
X1149613Y2060779D01*
X1152432Y2060498D01*
X1155251Y2060075D01*
X1157648Y2059652D01*
X1157789D01*
X1158071Y2059511D01*
X1158494D01*
X1159058Y2059229D01*
X1160608Y2058806D01*
X1162582Y2058101D01*
X1164837Y2057114D01*
X1167234Y2055846D01*
X1169630Y2054436D01*
X1171886Y2052603D01*
X1172027Y2052462D01*
X1172168Y2052321D01*
X1172591Y2051898D01*
X1173155Y2051475D01*
X1174564Y2050066D01*
X1176256Y2048092D01*
X1178089Y2045696D01*
X1180062Y2042876D01*
X1181895Y2039634D01*
X1183445Y2035969D01*
Y2035828D01*
X1183586Y2035546D01*
X1183868Y2034982D01*
X1184009Y2034136D01*
X1184432Y2033149D01*
X1184714Y2032022D01*
X1184996Y2030753D01*
X1185419Y2029202D01*
X1185842Y2027652D01*
X1186124Y2025819D01*
X1186829Y2021872D01*
X1187252Y2017502D01*
X1187393Y2012709D01*
Y2012568D01*
Y2012286D01*
Y2011581D01*
Y2010876D01*
X1187252Y2009889D01*
Y2008762D01*
X1187111Y2006083D01*
X1186688Y2002982D01*
X1186265Y1999739D01*
X1185560Y1996356D01*
X1184714Y1992973D01*
Y1992832D01*
X1184573Y1992550D01*
X1184432Y1992127D01*
X1184291Y1991563D01*
X1183727Y1990013D01*
X1182882Y1988039D01*
X1182036Y1985783D01*
X1180908Y1983528D01*
X1179498Y1981131D01*
X1178089Y1978876D01*
X1177948Y1978594D01*
X1177384Y1977889D01*
X1176538Y1976902D01*
X1175410Y1975634D01*
X1174141Y1974224D01*
X1172591Y1972814D01*
X1171040Y1971264D01*
X1169207Y1969995D01*
X1168926Y1969854D01*
X1168362Y1969431D01*
X1167375Y1968867D01*
X1165965Y1968162D01*
X1164274Y1967316D01*
X1162300Y1966612D01*
X1160044Y1965766D01*
X1157507Y1965061D01*
X1157225D01*
X1156802Y1964920D01*
X1156379Y1964779D01*
X1154969Y1964638D01*
X1152996Y1964356D01*
X1150740Y1964074D01*
X1148062Y1963792D01*
X1145102Y1963651D01*
X1141859Y1963510D01*
X1106758D01*
Y2061061D01*
X1144256D01*
X1146793Y2060920D01*
D02*
G37*
%LPC*%
G36*
X136299Y2417309D02*
X131929D01*
X131788D01*
X131647D01*
X130942D01*
X129674D01*
X127982Y2417168D01*
X126149D01*
X123894Y2417027D01*
X121497Y2416886D01*
X118819Y2416604D01*
X113462Y2415899D01*
X110784Y2415476D01*
X108246Y2414912D01*
X105850Y2414348D01*
X103594Y2413502D01*
X101621Y2412657D01*
X99929Y2411670D01*
X99788D01*
X99647Y2411388D01*
X99224Y2411106D01*
X98660Y2410683D01*
X97391Y2409414D01*
X95841Y2407864D01*
X94431Y2405749D01*
X93162Y2403353D01*
X92598Y2402084D01*
X92176Y2400674D01*
X92035Y2399123D01*
X91894Y2397573D01*
Y2396727D01*
X92035Y2396163D01*
X92317Y2394612D01*
X92739Y2392780D01*
X93585Y2390665D01*
X94854Y2388410D01*
X95700Y2387282D01*
X96546Y2386154D01*
X97673Y2385167D01*
X98942Y2384181D01*
X99083D01*
X99365Y2383899D01*
X99929Y2383617D01*
X100634Y2383194D01*
X101762Y2382771D01*
X103030Y2382207D01*
X104581Y2381784D01*
X106414Y2381220D01*
X108528Y2380656D01*
X110925Y2380093D01*
X113603Y2379529D01*
X116563Y2379106D01*
X119947Y2378683D01*
X123612Y2378401D01*
X127559Y2378260D01*
X131929Y2378119D01*
X132211D01*
X132916D01*
X134185D01*
X135876Y2378260D01*
X137709D01*
X139964Y2378401D01*
X142361Y2378542D01*
X144898Y2378824D01*
X150396Y2379529D01*
X153075Y2379952D01*
X155612Y2380515D01*
X158009Y2381079D01*
X160264Y2381925D01*
X162238Y2382771D01*
X163929Y2383758D01*
X164070D01*
X164211Y2384040D01*
X165198Y2384745D01*
X166467Y2386013D01*
X167876Y2387564D01*
X169286Y2389678D01*
X170555Y2392075D01*
X171542Y2394753D01*
X171683Y2396163D01*
X171824Y2397714D01*
Y2398560D01*
X171683Y2399123D01*
X171401Y2400533D01*
X170837Y2402507D01*
X169850Y2404621D01*
X168440Y2407018D01*
X167595Y2408146D01*
X166467Y2409273D01*
X165339Y2410401D01*
X163929Y2411529D01*
X163788D01*
X163506Y2411811D01*
X163083Y2412093D01*
X162379Y2412375D01*
X161392Y2412939D01*
X160123Y2413361D01*
X158713Y2413925D01*
X157022Y2414489D01*
X154907Y2414912D01*
X152652Y2415476D01*
X149973Y2416040D01*
X147154Y2416463D01*
X143771Y2416745D01*
X140246Y2417027D01*
X136299Y2417309D01*
D02*
G37*
G36*
X144475Y2004971D02*
Y2004830D01*
X144616Y2004689D01*
X144757Y2004267D01*
X144898Y2003703D01*
X145180Y2002998D01*
X145462Y2002152D01*
X145744Y2001165D01*
X146026Y2000037D01*
X146449Y1998769D01*
X146731Y1997218D01*
X147154Y1995667D01*
X147577Y1993835D01*
X148000Y1991861D01*
X148423Y1989888D01*
X148705Y1987632D01*
X149127Y1985236D01*
Y1984954D01*
X149268Y1984108D01*
X149550Y1982698D01*
X149832Y1981147D01*
X150114Y1979456D01*
X150537Y1977764D01*
X150960Y1976213D01*
X151524Y1974804D01*
Y1974663D01*
X151806Y1974240D01*
X152088Y1973676D01*
X152511Y1973112D01*
X153639Y1971420D01*
X155330Y1970011D01*
X155471D01*
X155753Y1969729D01*
X156317Y1969588D01*
X157022Y1969306D01*
X157868Y1969024D01*
X158713Y1968742D01*
X159841Y1968601D01*
X160969Y1968460D01*
X161110D01*
X161815D01*
X162661Y1968601D01*
X163788Y1968883D01*
X165057Y1969306D01*
X166326Y1970011D01*
X167736Y1970857D01*
X169004Y1971984D01*
X169145Y1972125D01*
X169427Y1972689D01*
X169991Y1973535D01*
X170555Y1974663D01*
X171119Y1976213D01*
X171683Y1978046D01*
X171965Y1980161D01*
X172106Y1982698D01*
Y1983826D01*
X171965Y1985236D01*
X171683Y1986786D01*
X171401Y1988760D01*
X170837Y1990733D01*
X170132Y1992848D01*
X169145Y1994962D01*
X169004Y1995244D01*
X168581Y1995808D01*
X167876Y1996795D01*
X166890Y1997923D01*
X165762Y1999192D01*
X164352Y2000601D01*
X162661Y2001729D01*
X160828Y2002857D01*
X160687Y2002998D01*
X160123Y2003139D01*
X159136Y2003421D01*
X157868Y2003844D01*
X156176Y2004267D01*
X154202Y2004548D01*
X151806Y2004689D01*
X148986Y2004830D01*
X144475Y2004971D01*
D02*
G37*
G36*
X139823Y1701040D02*
X113039Y1690890D01*
X112898D01*
X112475Y1690749D01*
X111770Y1690467D01*
X110925Y1690185D01*
X109938Y1689762D01*
X108669Y1689340D01*
X107259Y1688917D01*
X105850Y1688353D01*
X102607Y1687225D01*
X99224Y1686097D01*
X95841Y1684969D01*
X92598Y1683983D01*
X92739D01*
X93021Y1683842D01*
X93585D01*
X94149Y1683560D01*
X95136Y1683419D01*
X96123Y1683137D01*
X98519Y1682573D01*
X101339Y1681868D01*
X104440Y1680881D01*
X107823Y1679895D01*
X111348Y1678626D01*
X139823Y1668053D01*
Y1701040D01*
D02*
G37*
G36*
X289040Y2629438D02*
X286838D01*
X286709D01*
X286320D01*
X285672D01*
X284895Y2629309D01*
X283859D01*
X282693Y2629179D01*
X280102Y2628791D01*
X277123Y2628143D01*
X274143Y2627236D01*
X271164Y2625941D01*
X269868Y2625034D01*
X268703Y2624127D01*
X268573D01*
X268443Y2623868D01*
X267796Y2623221D01*
X266759Y2622055D01*
X265594Y2620500D01*
X264557Y2618687D01*
X263521Y2616484D01*
X262873Y2614023D01*
X262614Y2612728D01*
Y2610655D01*
X262744Y2610137D01*
X262873Y2608712D01*
X263391Y2607028D01*
X264039Y2604955D01*
X265205Y2602883D01*
X266630Y2600810D01*
X267666Y2599774D01*
X268703Y2598738D01*
X268832D01*
X268962Y2598478D01*
X269350Y2598219D01*
X269868Y2597960D01*
X270387Y2597572D01*
X271164Y2597183D01*
X272071Y2596665D01*
X273107Y2596276D01*
X274273Y2595758D01*
X275698Y2595240D01*
X277123Y2594851D01*
X278677Y2594463D01*
X280491Y2594204D01*
X282304Y2593945D01*
X284247Y2593685D01*
X286450D01*
X286579D01*
X286968D01*
X287615D01*
X288522Y2593815D01*
X289558D01*
X290854Y2593945D01*
X293574Y2594333D01*
X296683Y2594981D01*
X299663Y2595758D01*
X302642Y2597053D01*
X303937Y2597831D01*
X305103Y2598738D01*
X305362Y2598997D01*
X306010Y2599644D01*
X306917Y2600681D01*
X307953Y2602235D01*
X309119Y2604049D01*
X310026Y2606251D01*
X310673Y2608712D01*
X310803Y2610007D01*
X310933Y2611432D01*
Y2612210D01*
X310803Y2612728D01*
X310673Y2614153D01*
X310155Y2615966D01*
X309508Y2617909D01*
X308471Y2620112D01*
X307046Y2622184D01*
X306140Y2623221D01*
X305103Y2624257D01*
X304974D01*
X304844Y2624516D01*
X304456Y2624775D01*
X303937Y2625034D01*
X303419Y2625423D01*
X302642Y2625941D01*
X301735Y2626330D01*
X300569Y2626848D01*
X299404Y2627366D01*
X298108Y2627754D01*
X296554Y2628273D01*
X294870Y2628661D01*
X293186Y2628920D01*
X291242Y2629179D01*
X289040Y2629438D01*
D02*
G37*
G36*
X281268Y2519848D02*
X281138D01*
X280879D01*
X280491Y2519718D01*
X279973D01*
X278418Y2519459D01*
X276734Y2519070D01*
X274661Y2518423D01*
X272718Y2517775D01*
X270775Y2516739D01*
X269091Y2515573D01*
X268962D01*
X268832Y2515314D01*
X268055Y2514666D01*
X267019Y2513500D01*
X265853Y2511946D01*
X264687Y2510003D01*
X263650Y2507671D01*
X262873Y2504951D01*
X262744Y2503526D01*
X262614Y2501971D01*
Y2501194D01*
X262744Y2500676D01*
X262873Y2499251D01*
X263262Y2497567D01*
X263910Y2495494D01*
X264816Y2493292D01*
X266112Y2491219D01*
X267796Y2489147D01*
X268055Y2488888D01*
X268703Y2488369D01*
X269868Y2487463D01*
X271423Y2486556D01*
X273236Y2485520D01*
X275568Y2484613D01*
X278288Y2483836D01*
X281268Y2483447D01*
Y2519848D01*
D02*
G37*
G36*
X289299Y2450673D02*
X286968D01*
X286838D01*
X286450D01*
X285802D01*
X284895Y2450544D01*
X283859D01*
X282693Y2450414D01*
X279973Y2450026D01*
X276993Y2449378D01*
X274014Y2448471D01*
X271034Y2447176D01*
X269609Y2446398D01*
X268443Y2445492D01*
X268314D01*
X268184Y2445233D01*
X267407Y2444585D01*
X266500Y2443549D01*
X265334Y2442124D01*
X264169Y2440310D01*
X263132Y2438237D01*
X262485Y2435906D01*
X262355Y2434610D01*
X262226Y2433315D01*
Y2432667D01*
X262355Y2432149D01*
X262614Y2430854D01*
X263003Y2429170D01*
X263780Y2427227D01*
X264946Y2425154D01*
X265723Y2423988D01*
X266630Y2422952D01*
X267666Y2421915D01*
X268832Y2420879D01*
X268962D01*
X269091Y2420620D01*
X269480Y2420361D01*
X269998Y2420102D01*
X270775Y2419713D01*
X271552Y2419195D01*
X272589Y2418677D01*
X273625Y2418288D01*
X274920Y2417770D01*
X276345Y2417252D01*
X277900Y2416863D01*
X279584Y2416345D01*
X281527Y2416086D01*
X283470Y2415827D01*
X285543Y2415568D01*
X287874D01*
X288004D01*
X288393D01*
X289040D01*
X289947Y2415697D01*
X290983D01*
X292149Y2415827D01*
X294870Y2416216D01*
X297979Y2416863D01*
X300958Y2417641D01*
X303937Y2418936D01*
X305233Y2419713D01*
X306399Y2420620D01*
X306658Y2420879D01*
X307305Y2421527D01*
X308342Y2422563D01*
X309378Y2423988D01*
X310414Y2425802D01*
X311451Y2427874D01*
X312098Y2430206D01*
X312228Y2431501D01*
X312358Y2432797D01*
Y2433574D01*
X312228Y2434092D01*
X311969Y2435388D01*
X311580Y2437201D01*
X310803Y2439144D01*
X309767Y2441217D01*
X308212Y2443289D01*
X307305Y2444326D01*
X306269Y2445362D01*
X306140D01*
X306010Y2445621D01*
X305621Y2445880D01*
X305103Y2446139D01*
X304456Y2446658D01*
X303549Y2447046D01*
X302642Y2447564D01*
X301476Y2448082D01*
X300310Y2448471D01*
X298756Y2448989D01*
X297201Y2449507D01*
X295517Y2449896D01*
X293574Y2450155D01*
X291502Y2450414D01*
X289299Y2450673D01*
D02*
G37*
G36*
X275309Y2191464D02*
X275180D01*
X274791D01*
X274273D01*
X273496D01*
X272589Y2191334D01*
X271423D01*
X270257Y2191205D01*
X268832Y2190946D01*
X265853Y2190557D01*
X262744Y2189909D01*
X259376Y2189002D01*
X256267Y2187707D01*
X256137D01*
X255878Y2187578D01*
X255489Y2187318D01*
X254971Y2187059D01*
X253417Y2186153D01*
X251603Y2184987D01*
X249531Y2183432D01*
X247458Y2181489D01*
X245385Y2179287D01*
X243572Y2176826D01*
Y2176696D01*
X243313Y2176567D01*
X243183Y2176178D01*
X242795Y2175530D01*
X242535Y2174883D01*
X242147Y2174105D01*
X241240Y2172162D01*
X240463Y2169831D01*
X239686Y2167110D01*
X239167Y2164001D01*
X239038Y2160763D01*
Y2159597D01*
X239167Y2158690D01*
X239297Y2157524D01*
X239556Y2156358D01*
X239815Y2154933D01*
X240074Y2153379D01*
X241111Y2150011D01*
X241888Y2148197D01*
X242665Y2146384D01*
X243701Y2144441D01*
X244867Y2142627D01*
X246163Y2140814D01*
X247717Y2139130D01*
X247847Y2139000D01*
X248106Y2138741D01*
X248624Y2138352D01*
X249401Y2137705D01*
X250308Y2137057D01*
X251474Y2136280D01*
X252899Y2135502D01*
X254583Y2134596D01*
X256396Y2133818D01*
X258598Y2132912D01*
X260930Y2132134D01*
X263521Y2131487D01*
X266371Y2130839D01*
X269609Y2130450D01*
X272977Y2130191D01*
X276604Y2130062D01*
X276734D01*
X277252D01*
X278159D01*
X279325Y2130191D01*
X280620Y2130321D01*
X282175Y2130580D01*
X283988Y2130839D01*
X285802Y2131098D01*
X289947Y2132134D01*
X292020Y2132912D01*
X294222Y2133689D01*
X296295Y2134725D01*
X298367Y2135891D01*
X300310Y2137186D01*
X302124Y2138741D01*
X302253Y2138870D01*
X302512Y2139130D01*
X303031Y2139648D01*
X303549Y2140295D01*
X304326Y2141202D01*
X305103Y2142239D01*
X305881Y2143404D01*
X306787Y2144700D01*
X307694Y2146254D01*
X308471Y2147938D01*
X309249Y2149752D01*
X310026Y2151695D01*
X310544Y2153768D01*
X311062Y2155840D01*
X311321Y2158172D01*
X311451Y2160633D01*
Y2161281D01*
X311321Y2161929D01*
Y2162835D01*
X311192Y2164001D01*
X310933Y2165297D01*
X310673Y2166851D01*
X310285Y2168406D01*
X309767Y2170219D01*
X309119Y2171903D01*
X308471Y2173846D01*
X307565Y2175660D01*
X306399Y2177473D01*
X305233Y2179287D01*
X303808Y2181101D01*
X302124Y2182785D01*
X301994Y2182914D01*
X301735Y2183173D01*
X301088Y2183562D01*
X300310Y2184209D01*
X299404Y2184857D01*
X298238Y2185505D01*
X296813Y2186282D01*
X295258Y2187189D01*
X293445Y2187966D01*
X291372Y2188743D01*
X289170Y2189391D01*
X286838Y2190168D01*
X284247Y2190686D01*
X281397Y2191075D01*
X278418Y2191334D01*
X275309Y2191464D01*
D02*
G37*
G36*
X289688Y1997672D02*
X287486D01*
X287356D01*
X286968D01*
X286320D01*
X285413Y1997542D01*
X284377D01*
X283081Y1997413D01*
X280361Y1997024D01*
X277382Y1996506D01*
X274143Y1995599D01*
X271293Y1994304D01*
X269868Y1993527D01*
X268703Y1992620D01*
X268573D01*
X268443Y1992361D01*
X267796Y1991713D01*
X266759Y1990677D01*
X265594Y1989252D01*
X264557Y1987438D01*
X263521Y1985366D01*
X262873Y1982904D01*
X262614Y1981609D01*
Y1979666D01*
X262744Y1979148D01*
X263003Y1977723D01*
X263391Y1976039D01*
X264169Y1974096D01*
X265334Y1972023D01*
X265982Y1970987D01*
X266889Y1969950D01*
X267796Y1968914D01*
X268962Y1967878D01*
X269091D01*
X269221Y1967619D01*
X269609Y1967360D01*
X270127Y1967100D01*
X270775Y1966712D01*
X271552Y1966194D01*
X272459Y1965805D01*
X273496Y1965287D01*
X274791Y1964769D01*
X276086Y1964380D01*
X277641Y1963862D01*
X279195Y1963473D01*
X281009Y1963214D01*
X282952Y1962955D01*
X284895Y1962696D01*
X287097D01*
X287227D01*
X287615D01*
X288263D01*
X289040D01*
X289947Y1962826D01*
X291113D01*
X293574Y1963085D01*
X296295Y1963473D01*
X299144Y1963991D01*
X301735Y1964769D01*
X302901Y1965287D01*
X303937Y1965805D01*
X304067D01*
X304326Y1966064D01*
X304715Y1966323D01*
X305233Y1966712D01*
X306658Y1967878D01*
X308083Y1969562D01*
X309637Y1971505D01*
X311062Y1973966D01*
X311580Y1975261D01*
X311969Y1976816D01*
X312228Y1978241D01*
X312358Y1979925D01*
Y1980573D01*
X312228Y1981091D01*
X311969Y1982516D01*
X311580Y1984200D01*
X310803Y1986143D01*
X309767Y1988215D01*
X308212Y1990288D01*
X307176Y1991324D01*
X306140Y1992361D01*
X306010D01*
X305881Y1992620D01*
X305492Y1992879D01*
X304974Y1993138D01*
X304326Y1993656D01*
X303549Y1994045D01*
X302512Y1994563D01*
X301476Y1995081D01*
X300181Y1995470D01*
X298885Y1995988D01*
X297331Y1996506D01*
X295647Y1996895D01*
X293833Y1997154D01*
X291890Y1997413D01*
X289688Y1997672D01*
D02*
G37*
G36*
X290724Y1890542D02*
X288522D01*
X288393D01*
X287874D01*
X287227D01*
X286320Y1890413D01*
X285284D01*
X283988Y1890283D01*
X282563Y1890154D01*
X281009Y1889895D01*
X277900Y1889247D01*
X274661Y1888340D01*
X271552Y1887045D01*
X270257Y1886267D01*
X268962Y1885361D01*
X268832D01*
X268703Y1885102D01*
X267925Y1884454D01*
X266889Y1883288D01*
X265723Y1881863D01*
X264557Y1880050D01*
X263650Y1877847D01*
X262873Y1875386D01*
X262744Y1874091D01*
X262614Y1872666D01*
Y1872018D01*
X262744Y1871500D01*
X262873Y1870075D01*
X263391Y1868391D01*
X264039Y1866448D01*
X265205Y1864375D01*
X266630Y1862303D01*
X267666Y1861266D01*
X268703Y1860359D01*
X268832D01*
X268962Y1860100D01*
X269350Y1859971D01*
X269868Y1859582D01*
X270516Y1859194D01*
X271293Y1858805D01*
X272200Y1858416D01*
X273236Y1857898D01*
X274532Y1857380D01*
X275957Y1856991D01*
X277511Y1856603D01*
X279195Y1856214D01*
X281009Y1855955D01*
X283081Y1855696D01*
X285284Y1855437D01*
X287615D01*
X287745D01*
X288134D01*
X288781D01*
X289688Y1855567D01*
X290724D01*
X291890Y1855696D01*
X294611Y1856085D01*
X297590Y1856732D01*
X300699Y1857639D01*
X303678Y1858935D01*
X304974Y1859712D01*
X306269Y1860619D01*
Y1860748D01*
X306528Y1860878D01*
X307176Y1861525D01*
X308212Y1862691D01*
X309249Y1864116D01*
X310414Y1865930D01*
X311451Y1868132D01*
X312098Y1870464D01*
X312228Y1871759D01*
X312358Y1873054D01*
Y1873702D01*
X312228Y1874220D01*
X312098Y1875645D01*
X311580Y1877329D01*
X310933Y1879272D01*
X309896Y1881345D01*
X308471Y1883418D01*
X307565Y1884454D01*
X306528Y1885361D01*
X306399D01*
X306269Y1885620D01*
X305881Y1885879D01*
X305362Y1886138D01*
X304715Y1886527D01*
X304067Y1887045D01*
X303031Y1887433D01*
X301994Y1887952D01*
X300828Y1888470D01*
X299533Y1888858D01*
X297979Y1889376D01*
X296424Y1889765D01*
X294611Y1890024D01*
X292797Y1890283D01*
X290724Y1890542D01*
D02*
G37*
G36*
X281268Y1823182D02*
X281138D01*
X280879D01*
X280491Y1823052D01*
X279973D01*
X278418Y1822793D01*
X276734Y1822404D01*
X274661Y1821757D01*
X272718Y1821109D01*
X270775Y1820073D01*
X269091Y1818907D01*
X268962D01*
X268832Y1818648D01*
X268055Y1818000D01*
X267019Y1816834D01*
X265853Y1815280D01*
X264687Y1813336D01*
X263650Y1811005D01*
X262873Y1808284D01*
X262744Y1806859D01*
X262614Y1805305D01*
Y1804528D01*
X262744Y1804010D01*
X262873Y1802585D01*
X263262Y1800901D01*
X263910Y1798828D01*
X264816Y1796626D01*
X266112Y1794553D01*
X267796Y1792481D01*
X268055Y1792221D01*
X268703Y1791703D01*
X269868Y1790797D01*
X271423Y1789890D01*
X273236Y1788853D01*
X275568Y1787947D01*
X278288Y1787169D01*
X281268Y1786781D01*
Y1823182D01*
D02*
G37*
G36*
X289040Y1681983D02*
X286838D01*
X286709D01*
X286320D01*
X285672D01*
X284895Y1681853D01*
X283859D01*
X282693Y1681724D01*
X280102Y1681335D01*
X277123Y1680688D01*
X274143Y1679781D01*
X271164Y1678485D01*
X269868Y1677579D01*
X268703Y1676672D01*
X268573D01*
X268443Y1676413D01*
X267796Y1675765D01*
X266759Y1674599D01*
X265594Y1673045D01*
X264557Y1671231D01*
X263521Y1669029D01*
X262873Y1666568D01*
X262614Y1665272D01*
Y1663200D01*
X262744Y1662681D01*
X262873Y1661257D01*
X263391Y1659573D01*
X264039Y1657500D01*
X265205Y1655427D01*
X266630Y1653355D01*
X267666Y1652318D01*
X268703Y1651282D01*
X268832D01*
X268962Y1651023D01*
X269350Y1650764D01*
X269868Y1650505D01*
X270387Y1650116D01*
X271164Y1649727D01*
X272071Y1649209D01*
X273107Y1648821D01*
X274273Y1648303D01*
X275698Y1647784D01*
X277123Y1647396D01*
X278677Y1647007D01*
X280491Y1646748D01*
X282304Y1646489D01*
X284247Y1646230D01*
X286450D01*
X286579D01*
X286968D01*
X287615D01*
X288522Y1646359D01*
X289558D01*
X290854Y1646489D01*
X293574Y1646878D01*
X296683Y1647525D01*
X299663Y1648303D01*
X302642Y1649598D01*
X303937Y1650375D01*
X305103Y1651282D01*
X305362Y1651541D01*
X306010Y1652189D01*
X306917Y1653225D01*
X307953Y1654780D01*
X309119Y1656593D01*
X310026Y1658795D01*
X310673Y1661257D01*
X310803Y1662552D01*
X310933Y1663977D01*
Y1664754D01*
X310803Y1665272D01*
X310673Y1666697D01*
X310155Y1668511D01*
X309508Y1670454D01*
X308471Y1672656D01*
X307046Y1674729D01*
X306140Y1675765D01*
X305103Y1676801D01*
X304974D01*
X304844Y1677060D01*
X304456Y1677319D01*
X303937Y1677579D01*
X303419Y1677967D01*
X302642Y1678485D01*
X301735Y1678874D01*
X300569Y1679392D01*
X299404Y1679910D01*
X298108Y1680299D01*
X296554Y1680817D01*
X294870Y1681206D01*
X293186Y1681465D01*
X291242Y1681724D01*
X289040Y1681983D01*
D02*
G37*
G36*
X281268Y1523555D02*
X281138D01*
X280879D01*
X280491Y1523426D01*
X279973D01*
X278418Y1523167D01*
X276734Y1522778D01*
X274661Y1522131D01*
X272718Y1521483D01*
X270775Y1520447D01*
X269091Y1519281D01*
X268962D01*
X268832Y1519022D01*
X268055Y1518374D01*
X267019Y1517208D01*
X265853Y1515654D01*
X264687Y1513710D01*
X263650Y1511379D01*
X262873Y1508658D01*
X262744Y1507233D01*
X262614Y1505679D01*
Y1504902D01*
X262744Y1504384D01*
X262873Y1502959D01*
X263262Y1501275D01*
X263910Y1499202D01*
X264816Y1497000D01*
X266112Y1494927D01*
X267796Y1492855D01*
X268055Y1492595D01*
X268703Y1492077D01*
X269868Y1491170D01*
X271423Y1490264D01*
X273236Y1489227D01*
X275568Y1488321D01*
X278288Y1487543D01*
X281268Y1487155D01*
Y1523555D01*
D02*
G37*
G36*
X274532Y1451920D02*
X274402D01*
X273884D01*
X273236D01*
X272200Y1451790D01*
X271034D01*
X269739Y1451661D01*
X268184Y1451531D01*
X266630Y1451402D01*
X263132Y1450754D01*
X259505Y1449977D01*
X256137Y1448811D01*
X254453Y1448034D01*
X253028Y1447256D01*
X252899D01*
X252640Y1446997D01*
X252251Y1446738D01*
X251733Y1446479D01*
X250437Y1445443D01*
X248883Y1444147D01*
X247199Y1442463D01*
X245515Y1440520D01*
X244090Y1438318D01*
X242924Y1435986D01*
X242795Y1435727D01*
X242665Y1435080D01*
X242276Y1433914D01*
X241888Y1432230D01*
X241629Y1430157D01*
X241240Y1427566D01*
X241111Y1426012D01*
Y1424328D01*
X240981Y1422644D01*
Y1401917D01*
X309378D01*
Y1423162D01*
X309249Y1424069D01*
X309119Y1426012D01*
X308989Y1428214D01*
X308730Y1430546D01*
X308342Y1432878D01*
X307824Y1434821D01*
X307694Y1435080D01*
X307565Y1435727D01*
X307176Y1436634D01*
X306658Y1437800D01*
X305881Y1439095D01*
X305103Y1440391D01*
X304196Y1441686D01*
X303160Y1442982D01*
X302901Y1443111D01*
X302383Y1443629D01*
X301476Y1444407D01*
X300181Y1445313D01*
X298497Y1446350D01*
X296554Y1447516D01*
X294351Y1448552D01*
X291890Y1449459D01*
X291761D01*
X291502Y1449588D01*
X291113Y1449718D01*
X290595Y1449847D01*
X289947Y1449977D01*
X289040Y1450236D01*
X288134Y1450495D01*
X287097Y1450754D01*
X284506Y1451143D01*
X281527Y1451531D01*
X278159Y1451790D01*
X274532Y1451920D01*
D02*
G37*
G36*
X1813216Y1399322D02*
X1782485Y1355621D01*
X1813216D01*
Y1399322D01*
D02*
G37*
G36*
X1725251Y1407921D02*
X1694520D01*
Y1375639D01*
X1723559D01*
X1725251Y1375780D01*
X1727225Y1375921D01*
X1729480Y1376062D01*
X1731736Y1376344D01*
X1733991Y1376767D01*
X1735965Y1377330D01*
X1736247Y1377471D01*
X1736811Y1377753D01*
X1737656Y1378176D01*
X1738784Y1378740D01*
X1740053Y1379586D01*
X1741322Y1380573D01*
X1742590Y1381842D01*
X1743577Y1383251D01*
X1743718Y1383392D01*
X1744000Y1383956D01*
X1744423Y1384802D01*
X1744987Y1385930D01*
X1745410Y1387198D01*
X1745833Y1388608D01*
X1746115Y1390300D01*
X1746256Y1391991D01*
Y1392132D01*
Y1392273D01*
X1746115Y1393119D01*
X1745974Y1394388D01*
X1745692Y1396080D01*
X1744987Y1397771D01*
X1744141Y1399745D01*
X1742872Y1401577D01*
X1741181Y1403410D01*
X1740899Y1403551D01*
X1740194Y1404115D01*
X1739066Y1404820D01*
X1737234Y1405665D01*
X1735119Y1406511D01*
X1732300Y1407216D01*
X1729057Y1407780D01*
X1725251Y1407921D01*
D02*
G37*
G36*
X1715039Y918555D02*
X1684308D01*
Y886273D01*
X1713348D01*
X1715039Y886414D01*
X1717013Y886555D01*
X1719269Y886696D01*
X1721524Y886978D01*
X1723780Y887401D01*
X1725753Y887965D01*
X1726035Y888106D01*
X1726599Y888388D01*
X1727445Y888811D01*
X1728573Y889375D01*
X1729841Y890220D01*
X1731110Y891207D01*
X1732379Y892476D01*
X1733366Y893886D01*
X1733507Y894027D01*
X1733789Y894591D01*
X1734211Y895436D01*
X1734775Y896564D01*
X1735198Y897833D01*
X1735621Y899243D01*
X1735903Y900934D01*
X1736044Y902626D01*
Y902767D01*
Y902908D01*
X1735903Y903754D01*
X1735762Y905022D01*
X1735480Y906714D01*
X1734775Y908406D01*
X1733929Y910379D01*
X1732661Y912212D01*
X1730969Y914044D01*
X1730687Y914185D01*
X1729982Y914749D01*
X1728855Y915454D01*
X1727022Y916300D01*
X1724907Y917146D01*
X1722088Y917851D01*
X1718846Y918414D01*
X1715039Y918555D01*
D02*
G37*
G36*
X1745533Y1797710D02*
X1714801D01*
Y1765428D01*
X1743841D01*
X1745533Y1765568D01*
X1747507Y1765709D01*
X1749762Y1765850D01*
X1752018Y1766132D01*
X1754273Y1766555D01*
X1756247Y1767119D01*
X1756529Y1767260D01*
X1757092Y1767542D01*
X1757938Y1767965D01*
X1759066Y1768529D01*
X1760335Y1769375D01*
X1761604Y1770361D01*
X1762872Y1771630D01*
X1763859Y1773040D01*
X1764000Y1773181D01*
X1764282Y1773745D01*
X1764705Y1774591D01*
X1765269Y1775718D01*
X1765692Y1776987D01*
X1766115Y1778397D01*
X1766397Y1780088D01*
X1766537Y1781780D01*
Y1781921D01*
Y1782062D01*
X1766397Y1782908D01*
X1766256Y1784177D01*
X1765974Y1785868D01*
X1765269Y1787560D01*
X1764423Y1789533D01*
X1763154Y1791366D01*
X1761463Y1793199D01*
X1761181Y1793340D01*
X1760476Y1793903D01*
X1759348Y1794608D01*
X1757515Y1795454D01*
X1755401Y1796300D01*
X1752581Y1797005D01*
X1749339Y1797569D01*
X1745533Y1797710D01*
D02*
G37*
G36*
X1142282Y2049502D02*
X1119727D01*
Y1975070D01*
X1142846D01*
X1143833Y1975211D01*
X1145947Y1975352D01*
X1148344Y1975493D01*
X1150881Y1975775D01*
X1153419Y1976197D01*
X1155533Y1976761D01*
X1155815Y1976902D01*
X1156520Y1977043D01*
X1157507Y1977466D01*
X1158776Y1978030D01*
X1160185Y1978876D01*
X1161595Y1979722D01*
X1163005Y1980709D01*
X1164414Y1981836D01*
X1164555Y1982118D01*
X1165119Y1982682D01*
X1165965Y1983669D01*
X1166952Y1985079D01*
X1168080Y1986911D01*
X1169348Y1989026D01*
X1170476Y1991422D01*
X1171463Y1994101D01*
Y1994242D01*
X1171604Y1994524D01*
X1171745Y1994946D01*
X1171886Y1995510D01*
X1172027Y1996215D01*
X1172309Y1997202D01*
X1172591Y1998189D01*
X1172873Y1999317D01*
X1173296Y2002136D01*
X1173719Y2005378D01*
X1174000Y2009043D01*
X1174141Y2012991D01*
Y2013132D01*
Y2013695D01*
Y2014400D01*
X1174000Y2015528D01*
Y2016797D01*
X1173859Y2018207D01*
X1173719Y2019898D01*
X1173578Y2021590D01*
X1172873Y2025396D01*
X1172027Y2029343D01*
X1170758Y2033008D01*
X1169912Y2034841D01*
X1169066Y2036392D01*
Y2036533D01*
X1168785Y2036815D01*
X1168503Y2037237D01*
X1168221Y2037801D01*
X1167093Y2039211D01*
X1165683Y2040903D01*
X1163851Y2042735D01*
X1161736Y2044568D01*
X1159340Y2046119D01*
X1156802Y2047387D01*
X1156520Y2047528D01*
X1155815Y2047669D01*
X1154547Y2048092D01*
X1152714Y2048515D01*
X1150458Y2048797D01*
X1147639Y2049220D01*
X1145947Y2049361D01*
X1144115D01*
X1142282Y2049502D01*
D02*
G37*
%LPD*%
D20*
X1434500Y1827500D02*
G03*
X1434500Y1827500I-12500J0D01*
G01*
X1867500Y560000D02*
G03*
X1867500Y560000I-12500J0D01*
G01*
D21*
X1327000Y1570500D02*
G03*
X1327000Y1570500I-30000J0D01*
G01*
D22*
X377500Y2845000D02*
Y2870000D01*
Y2845000D02*
X587500Y2640000D01*
X612500D01*
X468966Y2755929D02*
X587500Y2640000D01*
X380000Y3190000D02*
Y3212500D01*
X471875Y3304375D01*
X595000Y3427500D02*
X615000D01*
X471875Y3304375D02*
X595000Y3427500D01*
X377500Y2900000D02*
X380000Y3167500D01*
X468966Y2755929D02*
X495061Y2730083D01*
X471875Y3304375D02*
X503125Y3335625D01*
X640000Y3427100D02*
X1966200D01*
Y2639700D02*
Y3427100D01*
X640000Y2639700D02*
X1966200D01*
X377500Y2870000D02*
Y2900000D01*
X612500Y2640000D02*
X640000Y2639700D01*
X615000Y3427500D02*
X640000Y3427100D01*
X380000Y3167500D02*
Y3190000D01*
X1505000Y1370000D02*
X1615000D01*
X1505000Y1760000D02*
X1615000D01*
X916000Y1672500D02*
X1424000D01*
X916000Y1087500D02*
X1424000D01*
Y1672500D01*
X916000Y1087500D02*
Y1672500D01*
X1495000Y990000D02*
X1605000D01*
X1792000Y279200D02*
Y769200D01*
X210200Y279200D02*
Y769200D01*
X1792000D01*
X210200Y279200D02*
X1792000D01*
X210200Y329200D02*
X1792000D01*
%TF.MD5,d3647485fb87e9c669d9e276639383e7*%
M02*
