%TF.GenerationSoftware,Altium Limited,Altium Designer,23.4.1 (23)*%
G04 Layer_Physical_Order=2*
G04 Layer_Color=16711680*
%FSLAX45Y45*%
%MOMM*%
%TF.SameCoordinates,F753716F-663C-4D52-ACFB-96E6D702F145*%
%TF.FilePolarity,Positive*%
%TF.FileFunction,Copper,L2,Bot,Signal*%
%TF.Part,Single*%
G01*
G75*
%TA.AperFunction,ComponentPad*%
%ADD14C,6.00000*%
%ADD15R,6.00000X6.00000*%
%ADD16C,2.60000*%
%ADD17C,3.00000*%
%ADD18O,1.75000X2.50000*%
G36*
X1990000Y890000D02*
X1590000D01*
X1589999Y890000D01*
X1583105Y890000D01*
X1569581Y892690D01*
X1556842Y897967D01*
X1545377Y905627D01*
X1535627Y915377D01*
X1527967Y926842D01*
X1522690Y939581D01*
X1520000Y953105D01*
Y959999D01*
Y1690000D01*
X1520000D01*
X1520000Y1690000D01*
X1519990Y1690054D01*
X1518671Y1698813D01*
X1517788Y1701681D01*
X1513431Y1715829D01*
X1504929Y1731473D01*
X1493501Y1745126D01*
X1479598Y1756248D01*
X1463769Y1764401D01*
X1446642Y1769263D01*
X1428890Y1770640D01*
X1420000Y1770000D01*
X1270000Y1770000D01*
X1269999Y1770001D01*
X1263105Y1770000D01*
X1249581Y1772690D01*
X1236842Y1777967D01*
X1225377Y1785628D01*
X1215627Y1795378D01*
X1207966Y1806842D01*
X1202690Y1819582D01*
X1200000Y1833105D01*
X1200000Y1840000D01*
Y3500000D01*
X870000D01*
Y4290000D01*
X1990000D01*
Y890000D01*
D02*
G37*
G36*
X1140000Y2110000D02*
X1100000Y2080000D01*
X1080000Y2030000D01*
Y840000D01*
X1115000Y805000D01*
X1170000Y790000D01*
X1320000Y650000D01*
Y280000D01*
X700000D01*
Y730000D01*
X440000Y940000D01*
Y3350000D01*
X490000Y3400000D01*
X1140000D01*
Y2110000D01*
D02*
G37*
G36*
X810000Y3500000D02*
X490000D01*
X360000Y3370000D01*
Y2680000D01*
Y2630000D01*
Y1244466D01*
X334671Y1239428D01*
X306391Y1227714D01*
X280938Y1210707D01*
X259293Y1189062D01*
X242286Y1163610D01*
X230572Y1135329D01*
X224600Y1105306D01*
Y1074695D01*
X230572Y1044672D01*
X242286Y1016391D01*
X259293Y990938D01*
X280938Y969293D01*
X306391Y952286D01*
X334671Y940572D01*
X360000Y935534D01*
Y930000D01*
X660000Y690000D01*
Y540000D01*
Y280000D01*
X18992D01*
X10022Y288992D01*
X20000Y4290000D01*
X810000D01*
Y3500000D01*
D02*
G37*
%LPC*%
G36*
X1680000Y2401374D02*
X1650527Y2397494D01*
X1623063Y2386118D01*
X1599479Y2368021D01*
X1581382Y2344437D01*
X1570006Y2316973D01*
X1566126Y2287500D01*
Y2212500D01*
X1570006Y2183027D01*
X1581382Y2155563D01*
X1599479Y2131979D01*
X1623063Y2113882D01*
X1650527Y2102506D01*
X1680000Y2098626D01*
X1709473Y2102506D01*
X1736937Y2113882D01*
X1760521Y2131979D01*
X1778618Y2155563D01*
X1789994Y2183027D01*
X1793874Y2212500D01*
Y2287500D01*
X1789994Y2316973D01*
X1778618Y2344437D01*
X1760521Y2368021D01*
X1736937Y2386118D01*
X1709473Y2397494D01*
X1680000Y2401374D01*
D02*
G37*
G36*
X1430000D02*
X1400527Y2397494D01*
X1373063Y2386118D01*
X1349479Y2368021D01*
X1331382Y2344437D01*
X1320006Y2316973D01*
X1316126Y2287500D01*
Y2212500D01*
X1320006Y2183027D01*
X1331382Y2155563D01*
X1349479Y2131979D01*
X1373063Y2113882D01*
X1400527Y2102506D01*
X1430000Y2098626D01*
X1459473Y2102506D01*
X1486937Y2113882D01*
X1510521Y2131979D01*
X1528618Y2155563D01*
X1539994Y2183027D01*
X1543874Y2212500D01*
Y2287500D01*
X1539994Y2316973D01*
X1528618Y2344437D01*
X1510521Y2368021D01*
X1486937Y2386118D01*
X1459473Y2397494D01*
X1430000Y2401374D01*
D02*
G37*
%LPD*%
D14*
X1200200Y3879800D02*
D03*
X1530200Y3030200D02*
D03*
D15*
X480200Y3879800D02*
D03*
X810200Y3030200D02*
D03*
D16*
X380000Y1090000D02*
D03*
X1780000Y1100000D02*
D03*
D17*
X1000000Y550000D02*
D03*
X452500D02*
D03*
X1547500D02*
D03*
D18*
X1430000Y2250000D02*
D03*
X1680000D02*
D03*
%TF.MD5,49f8e8e701296ebf628e2d8446796ebe*%
M02*
