%TF.GenerationSoftware,Altium Limited,Altium Designer,23.4.1 (23)*%
G04 Layer_Physical_Order=1*
G04 Layer_Color=255*
%FSLAX45Y45*%
%MOMM*%
%TF.SameCoordinates,FC27E5CA-6F0E-4163-AE28-EC5EA92855B9*%
%TF.FilePolarity,Positive*%
%TF.FileFunction,Copper,L1,Top,Signal*%
%TF.Part,Single*%
G01*
G75*
%TA.AperFunction,SMDPad,CuDef*%
%ADD10R,1.40000X0.95000*%
%ADD11O,1.40000X2.30000*%
%TA.AperFunction,Conductor*%
%ADD12C,1.00000*%
%ADD13C,0.25400*%
%ADD14C,0.50000*%
%TA.AperFunction,ComponentPad*%
%ADD15C,2.60000*%
%ADD16C,5.50000*%
%ADD17R,5.50000X5.50000*%
%ADD18C,3.00000*%
%ADD19O,1.75000X2.50000*%
G36*
X1990000Y2630000D02*
X1250000D01*
Y3490000D01*
X870000D01*
Y4290000D01*
X1990000D01*
Y2630000D01*
D02*
G37*
G36*
X1180000Y2202672D02*
X1006664Y2029336D01*
X995524Y2012665D01*
X991613Y1993000D01*
Y1953318D01*
X974960Y1940540D01*
X959668Y1920612D01*
X950056Y1897405D01*
X946777Y1872500D01*
Y1782500D01*
X950056Y1757595D01*
X959668Y1734388D01*
X974960Y1714460D01*
X990000Y1702919D01*
Y1057081D01*
X974960Y1045540D01*
X959668Y1025612D01*
X950056Y1002405D01*
X946777Y977500D01*
Y887500D01*
X950056Y862595D01*
X959668Y839388D01*
X974960Y819460D01*
X994889Y804168D01*
X1018096Y794555D01*
X1043000Y791277D01*
X1065731Y794269D01*
X1280000Y580000D01*
Y280000D01*
X680000D01*
Y690000D01*
X610000Y760000D01*
Y1230000D01*
X530000Y1310000D01*
X20000D01*
Y3450000D01*
X1180000D01*
Y2202672D01*
D02*
G37*
D10*
X1560000Y1275000D02*
D03*
Y1465000D02*
D03*
Y1665000D02*
D03*
Y1855000D02*
D03*
X1550000Y895000D02*
D03*
Y1085000D02*
D03*
D11*
X1297000Y1827500D02*
D03*
X1043000D02*
D03*
X1297000Y932500D02*
D03*
X1043000D02*
D03*
D12*
X1547500Y550000D02*
Y561422D01*
X1388922Y720000D02*
X1547500Y561422D01*
X1255500Y720000D02*
X1388922D01*
X1095653Y879847D02*
X1255500Y720000D01*
X1061477Y879847D02*
X1095653D01*
X1043000Y898324D02*
X1061477Y879847D01*
X1043000Y898324D02*
Y932500D01*
X1795000Y1085000D02*
X1810000Y1100000D01*
X1570000Y1085000D02*
X1795000D01*
X1297000Y932500D02*
X1315477Y914023D01*
Y890409D02*
Y914023D01*
Y890409D02*
X1475809D01*
X1480400Y895000D02*
X1550000D01*
X1475809Y890409D02*
X1480400Y895000D01*
D13*
X800000Y1480000D02*
X820000Y1460000D01*
X940000D01*
X945000Y1465000D01*
X1043000Y932500D02*
Y977500D01*
D14*
X945000Y1465000D02*
X1560000D01*
X1043000Y977500D02*
X1340500Y1275000D01*
X1560000D01*
X1043000Y1827500D02*
Y1993000D01*
X1270000Y2220000D01*
X1400000D02*
X1430000Y2250000D01*
X1270000Y2220000D02*
X1400000D01*
X1680000Y1923776D02*
X1680400Y1923376D01*
X1582500Y1665000D02*
X1680400Y1762900D01*
Y1923376D01*
X1680000Y1923776D02*
Y2250000D01*
X1560000Y1665000D02*
X1582500D01*
X1297000Y1827500D02*
X1532500D01*
X1560000Y1855000D01*
D15*
X410000Y1090000D02*
D03*
X1810000Y1100000D02*
D03*
D16*
X1200200Y3879800D02*
D03*
X1530200Y3030200D02*
D03*
D17*
X480200Y3879800D02*
D03*
X810200Y3030200D02*
D03*
D18*
X452500Y550000D02*
D03*
X1000000D02*
D03*
X1547500D02*
D03*
D19*
X1430000Y2250000D02*
D03*
X1680000D02*
D03*
%TF.MD5,482f03cd72d77167a858968fc1061e83*%
M02*
