G04*
G04 #@! TF.GenerationSoftware,Altium Limited,Altium Designer,23.4.1 (23)*
G04*
G04 Layer_Physical_Order=2*
G04 Layer_Color=16711680*
%FSLAX44Y44*%
%MOMM*%
G71*
G04*
G04 #@! TF.SameCoordinates,01B2709E-CF7D-401B-80F6-C698A41CF17C*
G04*
G04*
G04 #@! TF.FilePolarity,Positive*
G04*
G01*
G75*
%ADD25C,6.0000*%
%ADD26R,6.0000X6.0000*%
%ADD27C,2.6000*%
%ADD28C,3.0000*%
%ADD29O,1.7500X2.5000*%
G36*
X199000Y89000D02*
X159000D01*
X159000Y89000D01*
X158310Y89000D01*
X156958Y89269D01*
X155684Y89797D01*
X154538Y90563D01*
X153563Y91538D01*
X152797Y92684D01*
X152269Y93958D01*
X152000Y95310D01*
Y96000D01*
Y169000D01*
X152000D01*
X152000Y169000D01*
X151999Y169005D01*
X151867Y169881D01*
X151779Y170168D01*
X151343Y171583D01*
X150493Y173147D01*
X149350Y174513D01*
X147960Y175625D01*
X146377Y176440D01*
X144664Y176926D01*
X142889Y177064D01*
X142000Y177000D01*
X127000Y177000D01*
X127000Y177000D01*
X126311Y177000D01*
X124958Y177269D01*
X123684Y177797D01*
X122538Y178563D01*
X121563Y179538D01*
X120797Y180684D01*
X120269Y181958D01*
X120000Y183311D01*
X120000Y184000D01*
Y350000D01*
X87000D01*
Y429000D01*
X199000D01*
Y89000D01*
D02*
G37*
G36*
X114000Y211000D02*
X110000Y208000D01*
X108000Y203000D01*
Y84000D01*
X111500Y80500D01*
X117000Y79000D01*
X132000Y65000D01*
Y28000D01*
X70000D01*
Y73000D01*
X44000Y94000D01*
Y335000D01*
X49000Y340000D01*
X114000D01*
Y211000D01*
D02*
G37*
G36*
X81000Y350000D02*
X49000D01*
X36000Y337000D01*
Y268000D01*
Y263000D01*
Y124447D01*
X33467Y123943D01*
X30639Y122771D01*
X28094Y121071D01*
X25929Y118906D01*
X24229Y116361D01*
X23057Y113533D01*
X22460Y110531D01*
Y107470D01*
X23057Y104467D01*
X24229Y101639D01*
X25929Y99094D01*
X28094Y96929D01*
X30639Y95229D01*
X33467Y94057D01*
X36000Y93553D01*
Y93000D01*
X66000Y69000D01*
Y54000D01*
Y28000D01*
X1899D01*
X1002Y28899D01*
X2000Y429000D01*
X81000D01*
Y350000D01*
D02*
G37*
%LPC*%
G36*
X168000Y240137D02*
X165053Y239749D01*
X162306Y238612D01*
X159948Y236802D01*
X158138Y234444D01*
X157001Y231697D01*
X156613Y228750D01*
Y221250D01*
X157001Y218303D01*
X158138Y215556D01*
X159948Y213198D01*
X162306Y211388D01*
X165053Y210251D01*
X168000Y209863D01*
X170947Y210251D01*
X173694Y211388D01*
X176052Y213198D01*
X177862Y215556D01*
X178999Y218303D01*
X179387Y221250D01*
Y228750D01*
X178999Y231697D01*
X177862Y234444D01*
X176052Y236802D01*
X173694Y238612D01*
X170947Y239749D01*
X168000Y240137D01*
D02*
G37*
G36*
X143000D02*
X140053Y239749D01*
X137306Y238612D01*
X134948Y236802D01*
X133138Y234444D01*
X132001Y231697D01*
X131613Y228750D01*
Y221250D01*
X132001Y218303D01*
X133138Y215556D01*
X134948Y213198D01*
X137306Y211388D01*
X140053Y210251D01*
X143000Y209863D01*
X145947Y210251D01*
X148694Y211388D01*
X151052Y213198D01*
X152862Y215556D01*
X153999Y218303D01*
X154387Y221250D01*
Y228750D01*
X153999Y231697D01*
X152862Y234444D01*
X151052Y236802D01*
X148694Y238612D01*
X145947Y239749D01*
X143000Y240137D01*
D02*
G37*
%LPD*%
D25*
X120020Y387980D02*
D03*
X153020Y303020D02*
D03*
D26*
X48020Y387980D02*
D03*
X81020Y303020D02*
D03*
D27*
X38000Y109000D02*
D03*
X178000Y110000D02*
D03*
D28*
X100000Y55000D02*
D03*
X45250D02*
D03*
X154750D02*
D03*
D29*
X143000Y225000D02*
D03*
X168000D02*
D03*
M02*
