G04*
G04 #@! TF.GenerationSoftware,Altium Limited,Altium Designer,23.4.1 (23)*
G04*
G04 Layer_Color=65535*
%FSLAX44Y44*%
%MOMM*%
G71*
G04*
G04 #@! TF.SameCoordinates,01B2709E-CF7D-401B-80F6-C698A41CF17C*
G04*
G04*
G04 #@! TF.FilePolarity,Positive*
G04*
G01*
G75*
%ADD10C,0.6000*%
%ADD11C,0.2500*%
%ADD12C,0.2000*%
G36*
X62708Y253101D02*
X59000D01*
Y254300D01*
X62708D01*
Y253101D01*
D02*
G37*
G36*
X86250Y254286D02*
Y254271D01*
Y254215D01*
Y254144D01*
Y254046D01*
X86235Y253919D01*
Y253778D01*
X86221Y253609D01*
X86207Y253440D01*
X86165Y253059D01*
X86109Y252664D01*
X86024Y252284D01*
X85968Y252101D01*
X85911Y251931D01*
Y251917D01*
X85897Y251889D01*
X85869Y251847D01*
X85841Y251790D01*
X85756Y251635D01*
X85629Y251438D01*
X85460Y251212D01*
X85263Y250987D01*
X85009Y250747D01*
X84699Y250536D01*
X84685D01*
X84656Y250508D01*
X84614Y250493D01*
X84544Y250451D01*
X84459Y250409D01*
X84346Y250366D01*
X84234Y250324D01*
X84093Y250268D01*
X83938Y250212D01*
X83768Y250169D01*
X83585Y250127D01*
X83374Y250085D01*
X83162Y250056D01*
X82937Y250028D01*
X82429Y250000D01*
X82302D01*
X82204Y250014D01*
X82091D01*
X81950Y250028D01*
X81795Y250042D01*
X81640Y250056D01*
X81287Y250113D01*
X80907Y250197D01*
X80540Y250310D01*
X80188Y250465D01*
X80174D01*
X80146Y250493D01*
X80103Y250522D01*
X80047Y250550D01*
X79892Y250663D01*
X79708Y250818D01*
X79497Y251015D01*
X79300Y251241D01*
X79102Y251523D01*
X78947Y251833D01*
Y251847D01*
X78933Y251875D01*
X78919Y251931D01*
X78891Y252002D01*
X78863Y252086D01*
X78835Y252199D01*
X78792Y252326D01*
X78764Y252481D01*
X78736Y252650D01*
X78693Y252833D01*
X78665Y253031D01*
X78637Y253242D01*
X78609Y253482D01*
X78595Y253736D01*
X78581Y254004D01*
Y254286D01*
Y259924D01*
X79878D01*
Y254286D01*
Y254271D01*
Y254229D01*
Y254159D01*
Y254074D01*
X79892Y253975D01*
Y253848D01*
X79906Y253581D01*
X79934Y253270D01*
X79976Y252960D01*
X80033Y252664D01*
X80061Y252537D01*
X80103Y252411D01*
X80117Y252382D01*
X80146Y252312D01*
X80216Y252213D01*
X80301Y252072D01*
X80399Y251931D01*
X80540Y251776D01*
X80709Y251621D01*
X80907Y251494D01*
X80935Y251480D01*
X81005Y251438D01*
X81132Y251396D01*
X81301Y251339D01*
X81499Y251269D01*
X81753Y251226D01*
X82020Y251184D01*
X82316Y251170D01*
X82457D01*
X82542Y251184D01*
X82669D01*
X82796Y251198D01*
X83106Y251255D01*
X83444Y251325D01*
X83768Y251438D01*
X84079Y251593D01*
X84220Y251692D01*
X84346Y251804D01*
X84361Y251819D01*
X84375Y251833D01*
X84403Y251875D01*
X84445Y251931D01*
X84487Y252016D01*
X84544Y252101D01*
X84600Y252227D01*
X84656Y252354D01*
X84713Y252509D01*
X84755Y252693D01*
X84812Y252904D01*
X84854Y253130D01*
X84896Y253383D01*
X84924Y253651D01*
X84953Y253961D01*
Y254286D01*
Y259924D01*
X86250D01*
Y254286D01*
D02*
G37*
G36*
X95399Y258768D02*
X92184D01*
Y250169D01*
X90887D01*
Y258768D01*
X87673D01*
Y259924D01*
X95399D01*
Y258768D01*
D02*
G37*
G36*
X72463Y260079D02*
X72590D01*
X72716Y260065D01*
X72886Y260037D01*
X73055Y260009D01*
X73421Y259938D01*
X73844Y259826D01*
X74253Y259657D01*
X74464Y259558D01*
X74676Y259445D01*
X74690Y259431D01*
X74718Y259417D01*
X74775Y259375D01*
X74859Y259332D01*
X74944Y259262D01*
X75057Y259177D01*
X75296Y258980D01*
X75550Y258726D01*
X75832Y258416D01*
X76100Y258049D01*
X76325Y257641D01*
Y257626D01*
X76353Y257584D01*
X76382Y257528D01*
X76410Y257443D01*
X76466Y257330D01*
X76508Y257204D01*
X76565Y257048D01*
X76621Y256879D01*
X76664Y256696D01*
X76720Y256499D01*
X76776Y256273D01*
X76819Y256048D01*
X76875Y255554D01*
X76903Y255019D01*
Y255004D01*
Y254948D01*
Y254878D01*
X76889Y254765D01*
Y254638D01*
X76875Y254483D01*
X76847Y254314D01*
X76833Y254130D01*
X76762Y253722D01*
X76649Y253270D01*
X76494Y252819D01*
X76410Y252594D01*
X76297Y252368D01*
Y252354D01*
X76269Y252312D01*
X76241Y252255D01*
X76184Y252171D01*
X76128Y252072D01*
X76057Y251974D01*
X75860Y251706D01*
X75620Y251424D01*
X75338Y251128D01*
X75000Y250846D01*
X74605Y250592D01*
X74591D01*
X74563Y250564D01*
X74493Y250536D01*
X74408Y250493D01*
X74309Y250451D01*
X74197Y250409D01*
X74056Y250352D01*
X73900Y250296D01*
X73731Y250240D01*
X73548Y250183D01*
X73139Y250099D01*
X72702Y250028D01*
X72237Y250000D01*
X72096D01*
X72011Y250014D01*
X71885D01*
X71744Y250042D01*
X71589Y250056D01*
X71405Y250085D01*
X71025Y250169D01*
X70616Y250282D01*
X70193Y250451D01*
X69982Y250550D01*
X69770Y250663D01*
X69756Y250677D01*
X69728Y250691D01*
X69671Y250733D01*
X69587Y250789D01*
X69502Y250846D01*
X69404Y250930D01*
X69164Y251142D01*
X68896Y251396D01*
X68614Y251706D01*
X68360Y252058D01*
X68121Y252467D01*
Y252481D01*
X68093Y252523D01*
X68064Y252580D01*
X68036Y252664D01*
X67994Y252777D01*
X67952Y252904D01*
X67895Y253045D01*
X67853Y253200D01*
X67797Y253383D01*
X67740Y253566D01*
X67656Y253990D01*
X67599Y254426D01*
X67571Y254906D01*
Y254920D01*
Y254934D01*
Y255019D01*
X67585Y255145D01*
Y255315D01*
X67613Y255512D01*
X67642Y255752D01*
X67684Y256019D01*
X67740Y256301D01*
X67797Y256597D01*
X67881Y256908D01*
X67994Y257218D01*
X68121Y257542D01*
X68262Y257852D01*
X68445Y258162D01*
X68642Y258444D01*
X68868Y258712D01*
X68882Y258726D01*
X68924Y258768D01*
X69009Y258839D01*
X69108Y258923D01*
X69234Y259036D01*
X69390Y259149D01*
X69573Y259276D01*
X69784Y259403D01*
X70010Y259530D01*
X70264Y259657D01*
X70546Y259769D01*
X70841Y259882D01*
X71166Y259967D01*
X71504Y260037D01*
X71856Y260079D01*
X72237Y260093D01*
X72364D01*
X72463Y260079D01*
D02*
G37*
G36*
X33000Y338087D02*
X25345Y332984D01*
X33000D01*
Y331744D01*
X23245D01*
Y333069D01*
X30914Y338186D01*
X23245D01*
Y339426D01*
X33000D01*
Y338087D01*
D02*
G37*
G36*
Y328177D02*
X23245D01*
Y329474D01*
X33000D01*
Y328177D01*
D02*
G37*
G36*
X30068Y319000D02*
X28870D01*
Y322707D01*
X30068D01*
Y319000D01*
D02*
G37*
G36*
X162778Y386371D02*
X165428D01*
Y385257D01*
X162778D01*
Y382579D01*
X161650D01*
Y385257D01*
X159000D01*
Y386371D01*
X161650D01*
Y389021D01*
X162778D01*
Y386371D01*
D02*
G37*
G36*
X186560Y381000D02*
X185206D01*
X181428Y390755D01*
X182838D01*
X185375Y383664D01*
Y383650D01*
X185390Y383622D01*
X185404Y383580D01*
X185432Y383523D01*
X185446Y383439D01*
X185474Y383354D01*
X185545Y383143D01*
X185629Y382903D01*
X185714Y382635D01*
X185883Y382071D01*
Y382085D01*
X185897Y382114D01*
X185911Y382156D01*
X185925Y382212D01*
X185968Y382367D01*
X186038Y382579D01*
X186108Y382818D01*
X186193Y383086D01*
X186292Y383368D01*
X186405Y383664D01*
X189055Y390755D01*
X190366D01*
X186560Y381000D01*
D02*
G37*
G36*
X177834Y390783D02*
X177946Y390769D01*
X178087Y390755D01*
X178242Y390727D01*
X178398Y390699D01*
X178764Y390600D01*
X179130Y390459D01*
X179314Y390374D01*
X179497Y390276D01*
X179666Y390149D01*
X179821Y390008D01*
X179835Y389994D01*
X179864Y389980D01*
X179892Y389923D01*
X179948Y389867D01*
X180019Y389796D01*
X180089Y389698D01*
X180160Y389599D01*
X180244Y389472D01*
X180385Y389204D01*
X180526Y388866D01*
X180583Y388697D01*
X180611Y388500D01*
X180639Y388302D01*
X180653Y388091D01*
Y388063D01*
Y387992D01*
X180639Y387879D01*
X180625Y387724D01*
X180597Y387555D01*
X180540Y387358D01*
X180484Y387146D01*
X180399Y386935D01*
X180385Y386907D01*
X180357Y386836D01*
X180301Y386723D01*
X180216Y386568D01*
X180103Y386399D01*
X179962Y386188D01*
X179793Y385976D01*
X179596Y385737D01*
X179568Y385708D01*
X179497Y385624D01*
X179427Y385553D01*
X179356Y385483D01*
X179272Y385398D01*
X179159Y385285D01*
X179046Y385173D01*
X178905Y385046D01*
X178764Y384905D01*
X178595Y384750D01*
X178412Y384595D01*
X178214Y384412D01*
X177989Y384228D01*
X177763Y384031D01*
X177749Y384017D01*
X177721Y383989D01*
X177664Y383946D01*
X177594Y383890D01*
X177509Y383805D01*
X177411Y383721D01*
X177185Y383537D01*
X176945Y383326D01*
X176720Y383115D01*
X176523Y382931D01*
X176438Y382861D01*
X176367Y382790D01*
X176353Y382776D01*
X176311Y382734D01*
X176255Y382677D01*
X176184Y382593D01*
X176114Y382494D01*
X176029Y382396D01*
X175860Y382156D01*
X180667D01*
Y381000D01*
X174197D01*
Y381014D01*
Y381071D01*
Y381155D01*
X174211Y381268D01*
X174225Y381395D01*
X174253Y381536D01*
X174281Y381677D01*
X174338Y381832D01*
Y381846D01*
X174352Y381860D01*
X174380Y381945D01*
X174436Y382071D01*
X174521Y382240D01*
X174634Y382438D01*
X174775Y382663D01*
X174930Y382889D01*
X175127Y383129D01*
Y383143D01*
X175155Y383157D01*
X175226Y383241D01*
X175352Y383368D01*
X175536Y383552D01*
X175747Y383763D01*
X176015Y384017D01*
X176339Y384299D01*
X176692Y384595D01*
X176706Y384609D01*
X176762Y384651D01*
X176847Y384722D01*
X176945Y384806D01*
X177072Y384919D01*
X177227Y385046D01*
X177383Y385187D01*
X177566Y385342D01*
X177918Y385680D01*
X178271Y386018D01*
X178440Y386188D01*
X178595Y386357D01*
X178736Y386512D01*
X178849Y386667D01*
Y386681D01*
X178877Y386695D01*
X178905Y386738D01*
X178933Y386794D01*
X179032Y386949D01*
X179145Y387132D01*
X179243Y387358D01*
X179342Y387597D01*
X179398Y387865D01*
X179427Y388119D01*
Y388133D01*
Y388147D01*
X179412Y388232D01*
X179398Y388373D01*
X179356Y388528D01*
X179300Y388725D01*
X179201Y388923D01*
X179074Y389120D01*
X178905Y389317D01*
X178877Y389345D01*
X178806Y389402D01*
X178708Y389472D01*
X178553Y389571D01*
X178355Y389656D01*
X178130Y389740D01*
X177862Y389796D01*
X177566Y389811D01*
X177481D01*
X177425Y389796D01*
X177256Y389782D01*
X177058Y389740D01*
X176847Y389684D01*
X176607Y389585D01*
X176382Y389458D01*
X176170Y389289D01*
X176142Y389261D01*
X176086Y389190D01*
X176001Y389078D01*
X175916Y388908D01*
X175818Y388711D01*
X175733Y388457D01*
X175677Y388175D01*
X175649Y387851D01*
X174422Y387978D01*
Y387992D01*
X174436Y388034D01*
Y388105D01*
X174450Y388204D01*
X174478Y388316D01*
X174507Y388443D01*
X174549Y388598D01*
X174591Y388753D01*
X174704Y389092D01*
X174873Y389430D01*
X174972Y389599D01*
X175099Y389768D01*
X175226Y389923D01*
X175367Y390064D01*
X175381Y390079D01*
X175409Y390093D01*
X175451Y390135D01*
X175522Y390177D01*
X175606Y390233D01*
X175705Y390290D01*
X175818Y390360D01*
X175959Y390431D01*
X176114Y390501D01*
X176283Y390572D01*
X176466Y390628D01*
X176664Y390685D01*
X176875Y390727D01*
X177101Y390769D01*
X177340Y390783D01*
X177594Y390797D01*
X177735D01*
X177834Y390783D01*
D02*
G37*
G36*
X171293Y381000D02*
X170094D01*
Y388627D01*
X170080Y388612D01*
X170010Y388556D01*
X169925Y388471D01*
X169784Y388373D01*
X169629Y388246D01*
X169432Y388105D01*
X169206Y387950D01*
X168953Y387795D01*
X168938D01*
X168924Y387781D01*
X168840Y387724D01*
X168699Y387654D01*
X168530Y387569D01*
X168332Y387471D01*
X168121Y387372D01*
X167909Y387273D01*
X167698Y387189D01*
Y388344D01*
X167712D01*
X167740Y388373D01*
X167796Y388387D01*
X167867Y388429D01*
X167952Y388471D01*
X168050Y388528D01*
X168290Y388669D01*
X168572Y388824D01*
X168854Y389021D01*
X169150Y389247D01*
X169446Y389486D01*
X169460Y389501D01*
X169474Y389515D01*
X169516Y389557D01*
X169573Y389599D01*
X169700Y389740D01*
X169869Y389909D01*
X170038Y390107D01*
X170221Y390332D01*
X170376Y390558D01*
X170517Y390797D01*
X171293D01*
Y381000D01*
D02*
G37*
G36*
X76000Y200898D02*
X68373D01*
X68388Y200884D01*
X68444Y200814D01*
X68529Y200729D01*
X68627Y200588D01*
X68754Y200433D01*
X68895Y200236D01*
X69050Y200010D01*
X69205Y199756D01*
Y199742D01*
X69219Y199728D01*
X69276Y199644D01*
X69346Y199503D01*
X69431Y199333D01*
X69530Y199136D01*
X69628Y198925D01*
X69727Y198713D01*
X69811Y198502D01*
X68656D01*
Y198516D01*
X68627Y198544D01*
X68613Y198600D01*
X68571Y198671D01*
X68529Y198755D01*
X68472Y198854D01*
X68331Y199094D01*
X68176Y199376D01*
X67979Y199658D01*
X67753Y199954D01*
X67514Y200250D01*
X67499Y200264D01*
X67485Y200278D01*
X67443Y200320D01*
X67401Y200377D01*
X67260Y200504D01*
X67091Y200673D01*
X66893Y200842D01*
X66668Y201025D01*
X66442Y201180D01*
X66203Y201321D01*
Y202097D01*
X76000D01*
Y200898D01*
D02*
G37*
G36*
Y194470D02*
X74633D01*
Y195837D01*
X76000D01*
Y194470D01*
D02*
G37*
G36*
Y189522D02*
X68373D01*
X68388Y189508D01*
X68444Y189437D01*
X68529Y189353D01*
X68627Y189212D01*
X68754Y189057D01*
X68895Y188859D01*
X69050Y188634D01*
X69205Y188380D01*
Y188366D01*
X69219Y188352D01*
X69276Y188267D01*
X69346Y188126D01*
X69431Y187957D01*
X69530Y187760D01*
X69628Y187548D01*
X69727Y187337D01*
X69811Y187125D01*
X68656D01*
Y187140D01*
X68627Y187168D01*
X68613Y187224D01*
X68571Y187295D01*
X68529Y187379D01*
X68472Y187478D01*
X68331Y187718D01*
X68176Y187999D01*
X67979Y188281D01*
X67753Y188577D01*
X67514Y188874D01*
X67499Y188888D01*
X67485Y188902D01*
X67443Y188944D01*
X67401Y189000D01*
X67260Y189127D01*
X67091Y189296D01*
X66893Y189466D01*
X66668Y189649D01*
X66442Y189804D01*
X66203Y189945D01*
Y190720D01*
X76000D01*
Y189522D01*
D02*
G37*
G36*
Y178992D02*
Y177850D01*
X68923Y175185D01*
Y176454D01*
X73166Y177976D01*
X73181D01*
X73195Y177991D01*
X73237Y178005D01*
X73279Y178019D01*
X73420Y178061D01*
X73604Y178118D01*
X73815Y178188D01*
X74055Y178273D01*
X74323Y178343D01*
X74590Y178428D01*
X74562Y178442D01*
X74492Y178456D01*
X74379Y178498D01*
X74210Y178540D01*
X74026Y178611D01*
X73787Y178681D01*
X73533Y178780D01*
X73251Y178879D01*
X68923Y180443D01*
Y181684D01*
X76000Y178992D01*
D02*
G37*
G36*
Y169095D02*
X71715D01*
X71700D01*
X71686D01*
X71588D01*
X71461D01*
X71306Y169081D01*
X71122Y169067D01*
X70939Y169039D01*
X70770Y168997D01*
X70615Y168954D01*
X70601D01*
X70559Y168926D01*
X70488Y168884D01*
X70403Y168842D01*
X70319Y168771D01*
X70220Y168687D01*
X70122Y168574D01*
X70037Y168447D01*
X70023Y168433D01*
X69995Y168391D01*
X69967Y168306D01*
X69924Y168207D01*
X69882Y168095D01*
X69840Y167954D01*
X69826Y167784D01*
X69811Y167615D01*
Y167545D01*
X69826Y167488D01*
X69840Y167347D01*
X69868Y167164D01*
X69938Y166967D01*
X70023Y166741D01*
X70136Y166516D01*
X70305Y166304D01*
X70333Y166276D01*
X70403Y166220D01*
X70460Y166177D01*
X70530Y166135D01*
X70615Y166079D01*
X70714Y166036D01*
X70826Y165980D01*
X70967Y165924D01*
X71122Y165881D01*
X71292Y165839D01*
X71475Y165811D01*
X71672Y165783D01*
X71912Y165754D01*
X72151D01*
X76000D01*
Y164556D01*
X68923D01*
Y165628D01*
X69938D01*
X69924Y165642D01*
X69882Y165670D01*
X69826Y165712D01*
X69755Y165769D01*
X69670Y165853D01*
X69572Y165952D01*
X69459Y166065D01*
X69346Y166206D01*
X69247Y166346D01*
X69135Y166516D01*
X69036Y166699D01*
X68952Y166896D01*
X68881Y167122D01*
X68825Y167347D01*
X68782Y167601D01*
X68768Y167869D01*
Y167982D01*
X68782Y168095D01*
X68796Y168250D01*
X68825Y168433D01*
X68867Y168630D01*
X68923Y168842D01*
X69008Y169039D01*
X69022Y169067D01*
X69050Y169124D01*
X69092Y169222D01*
X69163Y169335D01*
X69247Y169476D01*
X69360Y169603D01*
X69473Y169730D01*
X69614Y169843D01*
X69628Y169857D01*
X69685Y169885D01*
X69755Y169927D01*
X69854Y169998D01*
X69995Y170054D01*
X70136Y170110D01*
X70305Y170181D01*
X70488Y170223D01*
X70502D01*
X70559Y170237D01*
X70643Y170251D01*
X70756Y170266D01*
X70925D01*
X71122Y170280D01*
X71362Y170294D01*
X71658D01*
X76000D01*
Y169095D01*
D02*
G37*
G36*
Y161821D02*
X75986Y161807D01*
X75929Y161793D01*
X75859Y161765D01*
X75746Y161723D01*
X75619Y161680D01*
X75464Y161652D01*
X75295Y161624D01*
X75112Y161596D01*
Y161582D01*
X75140Y161568D01*
X75211Y161483D01*
X75309Y161356D01*
X75436Y161187D01*
X75563Y160975D01*
X75704Y160764D01*
X75831Y160539D01*
X75929Y160299D01*
X75944Y160271D01*
X75958Y160186D01*
X76000Y160059D01*
X76042Y159904D01*
X76085Y159707D01*
X76113Y159481D01*
X76141Y159228D01*
X76155Y158974D01*
Y158861D01*
X76141Y158776D01*
Y158678D01*
X76127Y158565D01*
X76085Y158311D01*
X76014Y158029D01*
X75915Y157719D01*
X75774Y157437D01*
X75591Y157184D01*
X75563Y157155D01*
X75493Y157085D01*
X75366Y156986D01*
X75196Y156873D01*
X74985Y156761D01*
X74745Y156662D01*
X74449Y156591D01*
X74308Y156577D01*
X74139Y156563D01*
X74111D01*
X74055D01*
X73956Y156577D01*
X73829Y156591D01*
X73674Y156620D01*
X73519Y156662D01*
X73350Y156718D01*
X73195Y156789D01*
X73181Y156803D01*
X73124Y156831D01*
X73040Y156887D01*
X72941Y156958D01*
X72828Y157043D01*
X72715Y157155D01*
X72603Y157268D01*
X72504Y157409D01*
X72490Y157423D01*
X72462Y157479D01*
X72405Y157550D01*
X72349Y157663D01*
X72292Y157790D01*
X72222Y157945D01*
X72166Y158100D01*
X72109Y158283D01*
Y158297D01*
X72095Y158354D01*
X72067Y158438D01*
X72053Y158551D01*
X72025Y158692D01*
X71996Y158875D01*
X71954Y159087D01*
X71926Y159340D01*
Y159354D01*
X71912Y159411D01*
Y159481D01*
X71898Y159580D01*
X71884Y159693D01*
X71856Y159834D01*
X71841Y159989D01*
X71813Y160158D01*
X71743Y160496D01*
X71672Y160863D01*
X71588Y161187D01*
X71545Y161342D01*
X71503Y161483D01*
X71489D01*
X71461D01*
X71376Y161497D01*
X71277D01*
X71221D01*
X71193D01*
X71179D01*
X71165D01*
X71080D01*
X70939Y161483D01*
X70784Y161455D01*
X70615Y161413D01*
X70446Y161342D01*
X70291Y161257D01*
X70164Y161145D01*
X70150Y161131D01*
X70093Y161060D01*
X70037Y160947D01*
X69952Y160806D01*
X69882Y160609D01*
X69811Y160383D01*
X69769Y160102D01*
X69755Y159777D01*
Y159636D01*
X69769Y159495D01*
X69797Y159298D01*
X69826Y159101D01*
X69882Y158889D01*
X69952Y158692D01*
X70051Y158523D01*
X70065Y158509D01*
X70107Y158452D01*
X70178Y158382D01*
X70291Y158297D01*
X70432Y158212D01*
X70615Y158114D01*
X70841Y158029D01*
X71094Y157945D01*
X70939Y156775D01*
X70925D01*
X70911Y156789D01*
X70869D01*
X70812Y156803D01*
X70685Y156845D01*
X70502Y156902D01*
X70319Y156972D01*
X70122Y157057D01*
X69924Y157169D01*
X69741Y157296D01*
X69727Y157310D01*
X69670Y157367D01*
X69586Y157451D01*
X69473Y157564D01*
X69360Y157719D01*
X69247Y157902D01*
X69121Y158114D01*
X69022Y158354D01*
Y158368D01*
X69008Y158382D01*
X68994Y158424D01*
X68980Y158480D01*
X68937Y158621D01*
X68895Y158819D01*
X68853Y159044D01*
X68811Y159326D01*
X68782Y159622D01*
X68768Y159961D01*
Y160116D01*
X68782Y160271D01*
X68796Y160482D01*
X68825Y160722D01*
X68867Y160961D01*
X68923Y161201D01*
X68994Y161427D01*
X69008Y161455D01*
X69036Y161525D01*
X69078Y161624D01*
X69135Y161751D01*
X69219Y161892D01*
X69304Y162033D01*
X69417Y162160D01*
X69530Y162272D01*
X69544Y162287D01*
X69586Y162315D01*
X69656Y162357D01*
X69741Y162413D01*
X69868Y162484D01*
X69995Y162540D01*
X70150Y162597D01*
X70333Y162639D01*
X70347D01*
X70389Y162653D01*
X70474Y162667D01*
X70587Y162681D01*
X70742D01*
X70925Y162695D01*
X71165Y162710D01*
X71433D01*
X73040D01*
X73054D01*
X73110D01*
X73195D01*
X73307D01*
X73434D01*
X73589D01*
X73928Y162724D01*
X74280D01*
X74633Y162738D01*
X74788Y162752D01*
X74929D01*
X75055Y162766D01*
X75154Y162780D01*
X75168D01*
X75225Y162794D01*
X75309Y162808D01*
X75422Y162850D01*
X75549Y162879D01*
X75690Y162935D01*
X75845Y163006D01*
X76000Y163076D01*
Y161821D01*
D02*
G37*
G36*
X67401Y150149D02*
X70418D01*
Y154731D01*
X71574D01*
Y150149D01*
X76000D01*
Y148852D01*
X66245D01*
Y155449D01*
X67401D01*
Y150149D01*
D02*
G37*
G36*
X72983Y143397D02*
X73068Y143368D01*
X73181Y143326D01*
X73307Y143284D01*
X73463Y143227D01*
X73632Y143157D01*
X73815Y143072D01*
X74210Y142875D01*
X74604Y142621D01*
X74802Y142466D01*
X74999Y142311D01*
X75168Y142142D01*
X75337Y141945D01*
X75352Y141931D01*
X75380Y141902D01*
X75408Y141832D01*
X75464Y141761D01*
X75535Y141649D01*
X75605Y141536D01*
X75676Y141381D01*
X75746Y141226D01*
X75831Y141042D01*
X75901Y140845D01*
X75972Y140634D01*
X76042Y140408D01*
X76099Y140168D01*
X76127Y139915D01*
X76155Y139647D01*
X76169Y139365D01*
Y139210D01*
X76155Y139097D01*
Y138970D01*
X76141Y138815D01*
X76113Y138646D01*
X76085Y138448D01*
X76014Y138040D01*
X75901Y137617D01*
X75746Y137194D01*
X75648Y136997D01*
X75535Y136799D01*
X75521Y136785D01*
X75507Y136757D01*
X75464Y136700D01*
X75408Y136644D01*
X75352Y136559D01*
X75267Y136461D01*
X75168Y136348D01*
X75055Y136235D01*
X74929Y136123D01*
X74802Y135996D01*
X74478Y135742D01*
X74097Y135502D01*
X73674Y135291D01*
X73660D01*
X73618Y135263D01*
X73547Y135248D01*
X73463Y135206D01*
X73350Y135178D01*
X73209Y135136D01*
X73054Y135079D01*
X72885Y135037D01*
X72701Y134995D01*
X72490Y134938D01*
X72053Y134868D01*
X71559Y134811D01*
X71052Y134783D01*
X71038D01*
X70981D01*
X70897D01*
X70798Y134797D01*
X70657D01*
X70516Y134811D01*
X70333Y134826D01*
X70150Y134854D01*
X69741Y134924D01*
X69290Y135023D01*
X68839Y135164D01*
X68402Y135361D01*
X68388Y135375D01*
X68345Y135389D01*
X68289Y135418D01*
X68218Y135474D01*
X68120Y135531D01*
X68007Y135601D01*
X67753Y135784D01*
X67471Y136024D01*
X67189Y136306D01*
X66907Y136630D01*
X66668Y137011D01*
X66654Y137025D01*
X66640Y137067D01*
X66611Y137123D01*
X66569Y137194D01*
X66527Y137307D01*
X66484Y137420D01*
X66428Y137560D01*
X66372Y137716D01*
X66315Y137885D01*
X66259Y138068D01*
X66174Y138463D01*
X66104Y138914D01*
X66076Y139379D01*
Y139520D01*
X66090Y139619D01*
X66104Y139746D01*
X66118Y139901D01*
X66132Y140056D01*
X66174Y140239D01*
X66259Y140619D01*
X66386Y141042D01*
X66470Y141254D01*
X66569Y141451D01*
X66696Y141649D01*
X66823Y141846D01*
X66837Y141860D01*
X66851Y141888D01*
X66893Y141945D01*
X66964Y142015D01*
X67034Y142086D01*
X67133Y142184D01*
X67246Y142283D01*
X67358Y142396D01*
X67499Y142508D01*
X67669Y142621D01*
X67838Y142748D01*
X68021Y142861D01*
X68233Y142960D01*
X68444Y143072D01*
X68670Y143157D01*
X68923Y143242D01*
X69219Y141973D01*
X69205D01*
X69177Y141959D01*
X69121Y141931D01*
X69050Y141902D01*
X68966Y141874D01*
X68853Y141832D01*
X68627Y141719D01*
X68373Y141578D01*
X68120Y141409D01*
X67880Y141198D01*
X67669Y140972D01*
X67641Y140944D01*
X67584Y140859D01*
X67514Y140718D01*
X67415Y140535D01*
X67330Y140295D01*
X67246Y140027D01*
X67189Y139703D01*
X67175Y139351D01*
Y139238D01*
X67189Y139167D01*
Y139069D01*
X67203Y138956D01*
X67246Y138688D01*
X67302Y138392D01*
X67401Y138082D01*
X67542Y137758D01*
X67725Y137462D01*
Y137448D01*
X67753Y137434D01*
X67824Y137335D01*
X67937Y137208D01*
X68106Y137053D01*
X68317Y136870D01*
X68557Y136700D01*
X68853Y136545D01*
X69177Y136404D01*
X69191D01*
X69219Y136390D01*
X69262Y136376D01*
X69332Y136362D01*
X69417Y136334D01*
X69515Y136306D01*
X69755Y136264D01*
X70037Y136207D01*
X70347Y136151D01*
X70685Y136123D01*
X71052Y136108D01*
X71066D01*
X71108D01*
X71179D01*
X71263D01*
X71362Y136123D01*
X71489D01*
X71630Y136137D01*
X71785Y136151D01*
X72123Y136193D01*
X72490Y136264D01*
X72856Y136348D01*
X73223Y136461D01*
X73237D01*
X73265Y136475D01*
X73307Y136503D01*
X73378Y136531D01*
X73547Y136616D01*
X73745Y136743D01*
X73970Y136898D01*
X74210Y137095D01*
X74421Y137321D01*
X74619Y137589D01*
Y137603D01*
X74633Y137631D01*
X74661Y137673D01*
X74689Y137730D01*
X74717Y137800D01*
X74759Y137885D01*
X74844Y138082D01*
X74929Y138336D01*
X74999Y138618D01*
X75055Y138928D01*
X75070Y139252D01*
Y139351D01*
X75055Y139435D01*
Y139534D01*
X75041Y139633D01*
X74985Y139886D01*
X74914Y140183D01*
X74802Y140478D01*
X74647Y140789D01*
X74562Y140944D01*
X74449Y141085D01*
X74435Y141099D01*
X74421Y141113D01*
X74379Y141155D01*
X74337Y141212D01*
X74266Y141268D01*
X74181Y141338D01*
X74097Y141423D01*
X73984Y141494D01*
X73857Y141578D01*
X73716Y141677D01*
X73575Y141761D01*
X73406Y141846D01*
X73223Y141916D01*
X73025Y141987D01*
X72814Y142057D01*
X72589Y142114D01*
X72913Y143411D01*
X72927D01*
X72983Y143397D01*
D02*
G37*
G36*
X76000Y132655D02*
X73040Y131513D01*
Y127425D01*
X76000Y126367D01*
Y125000D01*
X66245Y128722D01*
Y130131D01*
X76000Y134121D01*
Y132655D01*
D02*
G37*
G36*
X93000Y228612D02*
X84036D01*
Y229713D01*
X93000D01*
Y228612D01*
D02*
G37*
G36*
X92482Y226954D02*
X92624D01*
X92780Y226941D01*
X92948Y226928D01*
X93298Y226889D01*
X93661Y226838D01*
X93829Y226799D01*
X93984Y226760D01*
X94127Y226708D01*
X94257Y226656D01*
X94270D01*
X94283Y226643D01*
X94360Y226591D01*
X94477Y226527D01*
X94619Y226423D01*
X94775Y226281D01*
X94943Y226112D01*
X95112Y225905D01*
X95254Y225672D01*
Y225659D01*
X95267Y225646D01*
X95293Y225607D01*
X95306Y225555D01*
X95345Y225490D01*
X95371Y225413D01*
X95435Y225218D01*
X95513Y224985D01*
X95565Y224700D01*
X95617Y224376D01*
X95630Y224027D01*
Y223910D01*
X95617Y223832D01*
Y223729D01*
X95604Y223625D01*
X95591Y223496D01*
X95565Y223353D01*
X95500Y223055D01*
X95409Y222744D01*
X95280Y222433D01*
X95099Y222148D01*
X95086Y222135D01*
X95073Y222122D01*
X94995Y222032D01*
X94878Y221928D01*
X94710Y221799D01*
X94490Y221669D01*
X94218Y221552D01*
X94062Y221514D01*
X93894Y221488D01*
X93725Y221462D01*
X93531D01*
X93674Y222537D01*
X93700D01*
X93751Y222550D01*
X93842Y222576D01*
X93959Y222602D01*
X94075Y222654D01*
X94192Y222718D01*
X94308Y222796D01*
X94399Y222900D01*
X94412Y222926D01*
X94451Y222977D01*
X94503Y223068D01*
X94555Y223198D01*
X94619Y223353D01*
X94671Y223547D01*
X94710Y223780D01*
X94723Y224027D01*
Y224156D01*
X94710Y224286D01*
X94684Y224467D01*
X94645Y224648D01*
X94593Y224843D01*
X94516Y225037D01*
X94412Y225205D01*
X94399Y225218D01*
X94360Y225270D01*
X94283Y225348D01*
X94192Y225439D01*
X94062Y225529D01*
X93920Y225620D01*
X93751Y225711D01*
X93557Y225775D01*
X93544D01*
X93492Y225788D01*
X93389Y225801D01*
X93259Y225814D01*
X93168Y225827D01*
X93065D01*
X92948Y225840D01*
X92819D01*
X92676D01*
X92508Y225853D01*
X92339D01*
X92145D01*
X92158Y225840D01*
X92184Y225814D01*
X92223Y225775D01*
X92275Y225724D01*
X92339Y225659D01*
X92417Y225568D01*
X92495Y225464D01*
X92572Y225361D01*
X92728Y225089D01*
X92871Y224791D01*
X92922Y224622D01*
X92961Y224441D01*
X92987Y224247D01*
X93000Y224053D01*
Y223988D01*
X92987Y223923D01*
Y223832D01*
X92974Y223716D01*
X92948Y223586D01*
X92922Y223444D01*
X92883Y223288D01*
X92832Y223120D01*
X92767Y222952D01*
X92689Y222783D01*
X92598Y222602D01*
X92482Y222433D01*
X92352Y222265D01*
X92210Y222110D01*
X92041Y221967D01*
X92029Y221954D01*
X92003Y221941D01*
X91938Y221902D01*
X91873Y221850D01*
X91769Y221799D01*
X91666Y221734D01*
X91536Y221669D01*
X91381Y221604D01*
X91225Y221539D01*
X91044Y221475D01*
X90863Y221410D01*
X90655Y221358D01*
X90215Y221268D01*
X89969Y221255D01*
X89723Y221241D01*
X89710D01*
X89684D01*
X89632D01*
X89567D01*
X89476Y221255D01*
X89386D01*
X89153Y221280D01*
X88894Y221319D01*
X88609Y221384D01*
X88311Y221462D01*
X88013Y221578D01*
X88000D01*
X87974Y221591D01*
X87935Y221617D01*
X87883Y221643D01*
X87741Y221721D01*
X87559Y221824D01*
X87365Y221967D01*
X87171Y222135D01*
X86964Y222330D01*
X86795Y222550D01*
Y222563D01*
X86782Y222576D01*
X86756Y222615D01*
X86730Y222666D01*
X86653Y222796D01*
X86575Y222977D01*
X86497Y223198D01*
X86419Y223457D01*
X86368Y223742D01*
X86355Y224053D01*
Y224169D01*
X86368Y224247D01*
X86381Y224338D01*
X86406Y224454D01*
X86432Y224584D01*
X86471Y224726D01*
X86523Y224869D01*
X86588Y225024D01*
X86665Y225180D01*
X86756Y225348D01*
X86860Y225503D01*
X86989Y225659D01*
X87132Y225814D01*
X87300Y225957D01*
X86497D01*
Y226967D01*
X92119D01*
X92132D01*
X92184D01*
X92262D01*
X92365D01*
X92482Y226954D01*
D02*
G37*
G36*
X87728Y220607D02*
X87715Y220594D01*
X87689Y220542D01*
X87650Y220464D01*
X87611Y220361D01*
X87572Y220244D01*
X87533Y220102D01*
X87507Y219959D01*
X87495Y219817D01*
Y219752D01*
X87507Y219687D01*
X87521Y219596D01*
X87546Y219506D01*
X87585Y219389D01*
X87637Y219272D01*
X87715Y219169D01*
X87728Y219156D01*
X87754Y219117D01*
X87806Y219078D01*
X87870Y219014D01*
X87961Y218949D01*
X88064Y218884D01*
X88181Y218819D01*
X88324Y218767D01*
X88350Y218754D01*
X88427Y218741D01*
X88544Y218715D01*
X88699Y218677D01*
X88894Y218638D01*
X89114Y218612D01*
X89347Y218599D01*
X89606Y218586D01*
X93000D01*
Y217485D01*
X86497D01*
Y218482D01*
X87482D01*
X87469Y218495D01*
X87378Y218547D01*
X87261Y218612D01*
X87119Y218715D01*
X86976Y218819D01*
X86821Y218936D01*
X86691Y219052D01*
X86588Y219169D01*
X86575Y219182D01*
X86549Y219221D01*
X86510Y219298D01*
X86471Y219376D01*
X86432Y219480D01*
X86393Y219609D01*
X86368Y219739D01*
X86355Y219881D01*
Y219972D01*
X86368Y220089D01*
X86393Y220231D01*
X86445Y220399D01*
X86510Y220581D01*
X86601Y220788D01*
X86717Y221008D01*
X87728Y220607D01*
D02*
G37*
G36*
X90034Y216138D02*
Y211280D01*
X90047D01*
X90085D01*
X90137Y211293D01*
X90215D01*
X90306Y211306D01*
X90409Y211332D01*
X90642Y211371D01*
X90901Y211448D01*
X91187Y211552D01*
X91446Y211694D01*
X91679Y211876D01*
Y211889D01*
X91705Y211902D01*
X91769Y211979D01*
X91860Y212096D01*
X91951Y212251D01*
X92054Y212459D01*
X92145Y212692D01*
X92210Y212951D01*
X92223Y213093D01*
X92236Y213249D01*
Y213353D01*
X92223Y213469D01*
X92197Y213612D01*
X92158Y213767D01*
X92106Y213948D01*
X92029Y214117D01*
X91925Y214285D01*
X91912Y214298D01*
X91860Y214363D01*
X91782Y214441D01*
X91679Y214531D01*
X91536Y214635D01*
X91355Y214752D01*
X91148Y214868D01*
X90901Y214972D01*
X91044Y216112D01*
X91057D01*
X91083Y216099D01*
X91135Y216086D01*
X91212Y216060D01*
X91290Y216021D01*
X91394Y215982D01*
X91614Y215879D01*
X91860Y215749D01*
X92119Y215568D01*
X92365Y215360D01*
X92598Y215101D01*
Y215088D01*
X92624Y215063D01*
X92650Y215024D01*
X92689Y214972D01*
X92728Y214894D01*
X92767Y214816D01*
X92819Y214713D01*
X92871Y214596D01*
X92922Y214467D01*
X92974Y214337D01*
X93052Y214013D01*
X93117Y213650D01*
X93142Y213249D01*
Y213106D01*
X93130Y213016D01*
X93117Y212899D01*
X93091Y212757D01*
X93065Y212601D01*
X93039Y212433D01*
X92935Y212070D01*
X92858Y211876D01*
X92780Y211694D01*
X92676Y211500D01*
X92560Y211319D01*
X92430Y211150D01*
X92275Y210982D01*
X92262Y210969D01*
X92236Y210943D01*
X92184Y210904D01*
X92106Y210852D01*
X92015Y210788D01*
X91912Y210723D01*
X91782Y210645D01*
X91640Y210567D01*
X91471Y210490D01*
X91290Y210412D01*
X91083Y210347D01*
X90863Y210282D01*
X90629Y210231D01*
X90370Y210192D01*
X90098Y210166D01*
X89813Y210153D01*
X89800D01*
X89736D01*
X89658D01*
X89541Y210166D01*
X89399Y210179D01*
X89243Y210192D01*
X89062Y210218D01*
X88881Y210257D01*
X88466Y210360D01*
X88259Y210425D01*
X88039Y210503D01*
X87831Y210606D01*
X87637Y210723D01*
X87443Y210852D01*
X87261Y210995D01*
X87248Y211008D01*
X87222Y211034D01*
X87184Y211086D01*
X87119Y211150D01*
X87054Y211228D01*
X86976Y211332D01*
X86886Y211448D01*
X86808Y211591D01*
X86717Y211733D01*
X86640Y211902D01*
X86562Y212083D01*
X86497Y212277D01*
X86432Y212485D01*
X86393Y212705D01*
X86368Y212938D01*
X86355Y213184D01*
Y213314D01*
X86368Y213404D01*
X86381Y213508D01*
X86406Y213638D01*
X86432Y213780D01*
X86471Y213948D01*
X86510Y214104D01*
X86575Y214285D01*
X86640Y214454D01*
X86730Y214635D01*
X86834Y214816D01*
X86951Y214998D01*
X87093Y215166D01*
X87248Y215322D01*
X87261Y215334D01*
X87287Y215360D01*
X87339Y215399D01*
X87417Y215451D01*
X87507Y215516D01*
X87611Y215581D01*
X87741Y215658D01*
X87896Y215736D01*
X88064Y215814D01*
X88246Y215891D01*
X88453Y215956D01*
X88673Y216021D01*
X88919Y216073D01*
X89179Y216112D01*
X89451Y216138D01*
X89749Y216151D01*
X89761D01*
X89813D01*
X89904D01*
X90034Y216138D01*
D02*
G37*
G36*
X89969Y209181D02*
X90072D01*
X90306Y209156D01*
X90591Y209104D01*
X90889Y209039D01*
X91199Y208948D01*
X91510Y208832D01*
X91523D01*
X91549Y208819D01*
X91588Y208793D01*
X91640Y208767D01*
X91782Y208676D01*
X91964Y208560D01*
X92158Y208417D01*
X92352Y208236D01*
X92547Y208029D01*
X92728Y207782D01*
Y207769D01*
X92741Y207756D01*
X92767Y207718D01*
X92793Y207666D01*
X92858Y207536D01*
X92935Y207355D01*
X93013Y207135D01*
X93078Y206901D01*
X93130Y206629D01*
X93142Y206357D01*
Y206267D01*
X93130Y206163D01*
X93117Y206033D01*
X93091Y205878D01*
X93052Y205710D01*
X93000Y205541D01*
X92922Y205373D01*
X92909Y205360D01*
X92883Y205295D01*
X92832Y205217D01*
X92754Y205114D01*
X92676Y205010D01*
X92572Y204881D01*
X92456Y204764D01*
X92326Y204660D01*
X95487D01*
Y203559D01*
X86497D01*
Y204557D01*
X87352D01*
X87326Y204570D01*
X87274Y204622D01*
X87184Y204686D01*
X87080Y204790D01*
X86951Y204907D01*
X86834Y205036D01*
X86717Y205191D01*
X86614Y205347D01*
X86601Y205373D01*
X86575Y205425D01*
X86536Y205528D01*
X86484Y205658D01*
X86432Y205813D01*
X86393Y205995D01*
X86368Y206202D01*
X86355Y206435D01*
Y206578D01*
X86368Y206642D01*
X86381Y206733D01*
X86406Y206927D01*
X86458Y207160D01*
X86536Y207407D01*
X86653Y207653D01*
X86795Y207899D01*
Y207912D01*
X86821Y207925D01*
X86873Y208003D01*
X86976Y208119D01*
X87106Y208262D01*
X87274Y208417D01*
X87482Y208573D01*
X87728Y208728D01*
X88000Y208857D01*
X88013D01*
X88039Y208871D01*
X88077Y208883D01*
X88129Y208909D01*
X88207Y208935D01*
X88298Y208961D01*
X88505Y209026D01*
X88764Y209091D01*
X89049Y209142D01*
X89373Y209181D01*
X89710Y209194D01*
X89723D01*
X89749D01*
X89800D01*
X89878D01*
X89969Y209181D01*
D02*
G37*
G36*
X93000Y200761D02*
X88881D01*
X88868D01*
X88842D01*
X88803D01*
X88751D01*
X88609Y200748D01*
X88427Y200722D01*
X88233Y200671D01*
X88039Y200606D01*
X87844Y200515D01*
X87689Y200399D01*
X87676Y200386D01*
X87624Y200334D01*
X87559Y200256D01*
X87495Y200140D01*
X87417Y199997D01*
X87365Y199829D01*
X87313Y199621D01*
X87300Y199388D01*
Y199310D01*
X87313Y199220D01*
X87326Y199090D01*
X87365Y198961D01*
X87404Y198805D01*
X87469Y198650D01*
X87559Y198481D01*
X87572Y198468D01*
X87611Y198417D01*
X87663Y198339D01*
X87741Y198248D01*
X87844Y198145D01*
X87961Y198041D01*
X88103Y197950D01*
X88259Y197873D01*
X88285Y197860D01*
X88337Y197847D01*
X88440Y197821D01*
X88570Y197782D01*
X88738Y197743D01*
X88945Y197717D01*
X89179Y197704D01*
X89451Y197691D01*
X93000D01*
Y196590D01*
X84036D01*
Y197691D01*
X87248D01*
X87235Y197704D01*
X87210Y197730D01*
X87171Y197769D01*
X87106Y197834D01*
X87041Y197898D01*
X86964Y197989D01*
X86886Y198106D01*
X86795Y198222D01*
X86717Y198352D01*
X86640Y198494D01*
X86497Y198831D01*
X86432Y199013D01*
X86393Y199207D01*
X86368Y199414D01*
X86355Y199621D01*
Y199738D01*
X86368Y199880D01*
X86393Y200049D01*
X86419Y200243D01*
X86471Y200450D01*
X86549Y200658D01*
X86640Y200865D01*
X86653Y200891D01*
X86691Y200956D01*
X86756Y201046D01*
X86847Y201163D01*
X86964Y201279D01*
X87093Y201409D01*
X87248Y201526D01*
X87430Y201629D01*
X87456Y201642D01*
X87521Y201668D01*
X87637Y201707D01*
X87806Y201746D01*
X88013Y201785D01*
X88259Y201824D01*
X88557Y201849D01*
X88894Y201862D01*
X93000D01*
Y200761D01*
D02*
G37*
G36*
X90746Y195075D02*
X90927Y195049D01*
X91135Y194997D01*
X91355Y194932D01*
X91588Y194828D01*
X91834Y194686D01*
X91847D01*
X91860Y194673D01*
X91938Y194608D01*
X92054Y194517D01*
X92184Y194388D01*
X92339Y194219D01*
X92508Y194012D01*
X92663Y193779D01*
X92806Y193507D01*
Y193494D01*
X92819Y193468D01*
X92832Y193429D01*
X92858Y193377D01*
X92883Y193300D01*
X92922Y193209D01*
X92974Y193002D01*
X93039Y192756D01*
X93104Y192458D01*
X93142Y192134D01*
X93155Y191784D01*
Y191577D01*
X93142Y191473D01*
Y191357D01*
X93130Y191227D01*
X93117Y191072D01*
X93065Y190748D01*
X93013Y190411D01*
X92922Y190074D01*
X92806Y189750D01*
Y189737D01*
X92793Y189711D01*
X92767Y189673D01*
X92741Y189621D01*
X92663Y189465D01*
X92547Y189284D01*
X92391Y189077D01*
X92210Y188857D01*
X91990Y188649D01*
X91743Y188455D01*
X91730D01*
X91705Y188429D01*
X91666Y188416D01*
X91614Y188377D01*
X91549Y188351D01*
X91471Y188312D01*
X91277Y188222D01*
X91031Y188131D01*
X90759Y188053D01*
X90448Y188002D01*
X90124Y187976D01*
X90021Y189090D01*
X90034D01*
X90047D01*
X90085Y189103D01*
X90137D01*
X90254Y189129D01*
X90422Y189167D01*
X90591Y189219D01*
X90785Y189271D01*
X90966Y189362D01*
X91135Y189452D01*
X91148Y189465D01*
X91199Y189504D01*
X91290Y189569D01*
X91381Y189673D01*
X91497Y189802D01*
X91614Y189945D01*
X91730Y190139D01*
X91834Y190346D01*
Y190359D01*
X91847Y190372D01*
X91860Y190411D01*
X91873Y190450D01*
X91912Y190579D01*
X91964Y190748D01*
X92015Y190955D01*
X92054Y191188D01*
X92080Y191447D01*
X92093Y191732D01*
Y191849D01*
X92080Y191978D01*
X92067Y192134D01*
X92041Y192315D01*
X92015Y192523D01*
X91964Y192730D01*
X91899Y192924D01*
X91886Y192950D01*
X91860Y193015D01*
X91808Y193106D01*
X91756Y193222D01*
X91666Y193339D01*
X91575Y193468D01*
X91471Y193598D01*
X91342Y193701D01*
X91329Y193714D01*
X91277Y193740D01*
X91212Y193779D01*
X91109Y193831D01*
X91005Y193883D01*
X90876Y193922D01*
X90733Y193948D01*
X90578Y193960D01*
X90565D01*
X90500D01*
X90422Y193948D01*
X90318Y193934D01*
X90215Y193896D01*
X90085Y193857D01*
X89956Y193792D01*
X89839Y193701D01*
X89826Y193688D01*
X89787Y193650D01*
X89736Y193598D01*
X89658Y193507D01*
X89580Y193403D01*
X89489Y193261D01*
X89399Y193092D01*
X89321Y192898D01*
X89308Y192885D01*
X89295Y192820D01*
X89256Y192717D01*
X89243Y192652D01*
X89217Y192561D01*
X89179Y192471D01*
X89153Y192354D01*
X89114Y192225D01*
X89075Y192069D01*
X89036Y191914D01*
X88984Y191732D01*
X88933Y191525D01*
X88881Y191305D01*
Y191292D01*
X88868Y191253D01*
X88855Y191188D01*
X88829Y191110D01*
X88803Y191007D01*
X88777Y190890D01*
X88699Y190631D01*
X88609Y190346D01*
X88518Y190048D01*
X88427Y189789D01*
X88375Y189673D01*
X88324Y189569D01*
Y189556D01*
X88311Y189543D01*
X88259Y189465D01*
X88194Y189349D01*
X88090Y189219D01*
X87974Y189064D01*
X87831Y188908D01*
X87663Y188753D01*
X87482Y188623D01*
X87456Y188610D01*
X87391Y188572D01*
X87287Y188520D01*
X87158Y188468D01*
X86989Y188416D01*
X86795Y188364D01*
X86588Y188325D01*
X86368Y188312D01*
X86355D01*
X86342D01*
X86303D01*
X86251D01*
X86121Y188338D01*
X85953Y188364D01*
X85759Y188403D01*
X85539Y188468D01*
X85318Y188559D01*
X85098Y188688D01*
X85085D01*
X85072Y188701D01*
X84994Y188766D01*
X84891Y188857D01*
X84761Y188973D01*
X84619Y189129D01*
X84463Y189323D01*
X84321Y189556D01*
X84191Y189815D01*
Y189828D01*
X84178Y189854D01*
X84165Y189893D01*
X84139Y189945D01*
X84114Y190009D01*
X84088Y190100D01*
X84036Y190294D01*
X83984Y190541D01*
X83932Y190826D01*
X83893Y191124D01*
X83880Y191460D01*
Y191629D01*
X83893Y191719D01*
Y191810D01*
X83919Y192056D01*
X83958Y192328D01*
X84023Y192613D01*
X84101Y192924D01*
X84204Y193209D01*
Y193222D01*
X84217Y193248D01*
X84243Y193287D01*
X84269Y193339D01*
X84334Y193468D01*
X84450Y193637D01*
X84580Y193831D01*
X84748Y194025D01*
X84943Y194207D01*
X85163Y194375D01*
X85176D01*
X85189Y194388D01*
X85228Y194414D01*
X85267Y194440D01*
X85396Y194505D01*
X85564Y194582D01*
X85772Y194673D01*
X86018Y194738D01*
X86277Y194802D01*
X86562Y194828D01*
X86653Y193688D01*
X86640D01*
X86614D01*
X86575Y193675D01*
X86510Y193662D01*
X86368Y193624D01*
X86173Y193572D01*
X85966Y193494D01*
X85759Y193377D01*
X85564Y193235D01*
X85383Y193054D01*
X85370Y193028D01*
X85318Y192963D01*
X85241Y192833D01*
X85163Y192665D01*
X85085Y192445D01*
X85007Y192186D01*
X84956Y191862D01*
X84943Y191499D01*
Y191318D01*
X84956Y191240D01*
X84969Y191136D01*
X84994Y190903D01*
X85046Y190644D01*
X85111Y190385D01*
X85215Y190139D01*
X85279Y190035D01*
X85344Y189932D01*
X85357Y189906D01*
X85409Y189854D01*
X85500Y189776D01*
X85603Y189699D01*
X85746Y189608D01*
X85901Y189530D01*
X86083Y189478D01*
X86290Y189452D01*
X86316D01*
X86368D01*
X86458Y189465D01*
X86562Y189491D01*
X86691Y189530D01*
X86821Y189595D01*
X86951Y189673D01*
X87080Y189789D01*
X87093Y189802D01*
X87132Y189867D01*
X87171Y189919D01*
X87197Y189971D01*
X87235Y190048D01*
X87287Y190139D01*
X87326Y190256D01*
X87378Y190385D01*
X87430Y190528D01*
X87495Y190696D01*
X87546Y190877D01*
X87611Y191085D01*
X87663Y191318D01*
X87728Y191577D01*
Y191590D01*
X87741Y191642D01*
X87754Y191719D01*
X87780Y191810D01*
X87806Y191927D01*
X87844Y192069D01*
X87883Y192212D01*
X87922Y192367D01*
X88013Y192704D01*
X88103Y193028D01*
X88155Y193183D01*
X88207Y193326D01*
X88246Y193455D01*
X88298Y193559D01*
Y193572D01*
X88311Y193598D01*
X88337Y193637D01*
X88363Y193688D01*
X88440Y193831D01*
X88544Y193999D01*
X88686Y194194D01*
X88842Y194388D01*
X89023Y194569D01*
X89217Y194725D01*
X89243Y194738D01*
X89308Y194790D01*
X89425Y194841D01*
X89580Y194919D01*
X89761Y194984D01*
X89982Y195049D01*
X90228Y195087D01*
X90487Y195100D01*
X90500D01*
X90513D01*
X90552D01*
X90604D01*
X90746Y195075D01*
D02*
G37*
G36*
X93000Y185061D02*
X91743D01*
Y186318D01*
X93000D01*
Y185061D01*
D02*
G37*
G36*
X88777Y183351D02*
X88894D01*
X89036Y183338D01*
X89192Y183312D01*
X89360Y183299D01*
X89736Y183235D01*
X90150Y183131D01*
X90565Y182988D01*
X90772Y182911D01*
X90979Y182807D01*
X90992D01*
X91031Y182781D01*
X91083Y182755D01*
X91160Y182703D01*
X91251Y182652D01*
X91342Y182587D01*
X91588Y182405D01*
X91847Y182185D01*
X92119Y181926D01*
X92378Y181615D01*
X92611Y181252D01*
Y181240D01*
X92637Y181214D01*
X92663Y181149D01*
X92702Y181071D01*
X92741Y180980D01*
X92780Y180877D01*
X92832Y180747D01*
X92883Y180605D01*
X92935Y180449D01*
X92987Y180281D01*
X93065Y179905D01*
X93130Y179504D01*
X93155Y179076D01*
Y178947D01*
X93142Y178869D01*
Y178752D01*
X93117Y178623D01*
X93104Y178480D01*
X93078Y178312D01*
X93000Y177962D01*
X92896Y177587D01*
X92741Y177198D01*
X92650Y177004D01*
X92547Y176809D01*
X92534Y176796D01*
X92521Y176770D01*
X92482Y176719D01*
X92430Y176641D01*
X92378Y176563D01*
X92301Y176472D01*
X92106Y176252D01*
X91873Y176006D01*
X91588Y175747D01*
X91264Y175514D01*
X90889Y175294D01*
X90876D01*
X90837Y175268D01*
X90785Y175242D01*
X90707Y175216D01*
X90604Y175177D01*
X90487Y175138D01*
X90357Y175086D01*
X90215Y175048D01*
X90047Y174996D01*
X89878Y174944D01*
X89489Y174866D01*
X89088Y174814D01*
X88647Y174788D01*
X88635D01*
X88622D01*
X88544D01*
X88427Y174802D01*
X88272D01*
X88090Y174827D01*
X87870Y174853D01*
X87624Y174892D01*
X87365Y174944D01*
X87093Y174996D01*
X86808Y175074D01*
X86523Y175177D01*
X86225Y175294D01*
X85940Y175423D01*
X85655Y175592D01*
X85396Y175773D01*
X85150Y175980D01*
X85137Y175993D01*
X85098Y176032D01*
X85033Y176110D01*
X84956Y176201D01*
X84852Y176317D01*
X84748Y176460D01*
X84632Y176628D01*
X84515Y176822D01*
X84399Y177029D01*
X84282Y177263D01*
X84178Y177522D01*
X84075Y177794D01*
X83997Y178092D01*
X83932Y178403D01*
X83893Y178727D01*
X83880Y179076D01*
Y179193D01*
X83893Y179284D01*
Y179400D01*
X83906Y179517D01*
X83932Y179672D01*
X83958Y179828D01*
X84023Y180164D01*
X84127Y180553D01*
X84282Y180929D01*
X84373Y181123D01*
X84476Y181317D01*
X84489Y181330D01*
X84502Y181356D01*
X84541Y181408D01*
X84580Y181486D01*
X84645Y181563D01*
X84722Y181667D01*
X84904Y181887D01*
X85137Y182120D01*
X85422Y182379D01*
X85759Y182626D01*
X86134Y182833D01*
X86147D01*
X86186Y182859D01*
X86238Y182885D01*
X86316Y182911D01*
X86419Y182962D01*
X86536Y183001D01*
X86678Y183053D01*
X86834Y183105D01*
X87002Y183144D01*
X87184Y183196D01*
X87391Y183248D01*
X87598Y183286D01*
X88052Y183338D01*
X88544Y183364D01*
X88557D01*
X88609D01*
X88673D01*
X88777Y183351D01*
D02*
G37*
G36*
X93104Y168104D02*
X93117D01*
X93155Y168091D01*
X93207Y168065D01*
X93272Y168039D01*
X93363Y168001D01*
X93466Y167962D01*
X93687Y167871D01*
X93933Y167780D01*
X94179Y167677D01*
X94399Y167573D01*
X94490Y167521D01*
X94580Y167482D01*
X94606Y167470D01*
X94671Y167431D01*
X94762Y167366D01*
X94878Y167288D01*
X95008Y167185D01*
X95137Y167068D01*
X95267Y166951D01*
X95371Y166809D01*
X95384Y166796D01*
X95409Y166744D01*
X95448Y166666D01*
X95500Y166550D01*
X95552Y166420D01*
X95591Y166265D01*
X95617Y166096D01*
X95630Y165902D01*
Y165850D01*
X95617Y165786D01*
Y165695D01*
X95591Y165591D01*
X95565Y165475D01*
X95539Y165345D01*
X95487Y165203D01*
X94464Y165086D01*
Y165099D01*
X94477Y165151D01*
X94490Y165215D01*
X94516Y165293D01*
X94555Y165501D01*
X94567Y165708D01*
Y165772D01*
X94555Y165837D01*
Y165915D01*
X94516Y166109D01*
X94477Y166200D01*
X94438Y166291D01*
Y166304D01*
X94412Y166329D01*
X94386Y166368D01*
X94347Y166420D01*
X94244Y166537D01*
X94101Y166640D01*
X94088D01*
X94062Y166666D01*
X94010Y166692D01*
X93933Y166718D01*
X93829Y166770D01*
X93674Y166822D01*
X93492Y166900D01*
X93272Y166977D01*
X93259D01*
X93207Y167003D01*
X93117Y167029D01*
X93000Y167081D01*
X86497Y164620D01*
Y165786D01*
X90267Y167146D01*
X90280D01*
X90293Y167159D01*
X90331Y167171D01*
X90396Y167185D01*
X90461Y167210D01*
X90539Y167236D01*
X90720Y167301D01*
X90940Y167379D01*
X91199Y167456D01*
X91471Y167534D01*
X91769Y167612D01*
X91756D01*
X91730Y167625D01*
X91692Y167638D01*
X91640Y167651D01*
X91575Y167664D01*
X91497Y167690D01*
X91303Y167742D01*
X91083Y167806D01*
X90824Y167897D01*
X90565Y167975D01*
X90293Y168078D01*
X86497Y169477D01*
Y170578D01*
X93104Y168104D01*
D02*
G37*
G36*
X89930Y163881D02*
X90072Y163868D01*
X90228Y163855D01*
X90409Y163829D01*
X90604Y163791D01*
X91018Y163687D01*
X91238Y163622D01*
X91446Y163544D01*
X91666Y163454D01*
X91860Y163337D01*
X92054Y163208D01*
X92236Y163065D01*
X92249Y163052D01*
X92275Y163026D01*
X92313Y162987D01*
X92378Y162923D01*
X92443Y162832D01*
X92521Y162741D01*
X92598Y162638D01*
X92689Y162508D01*
X92767Y162366D01*
X92858Y162223D01*
X93000Y161873D01*
X93065Y161692D01*
X93104Y161498D01*
X93130Y161290D01*
X93142Y161083D01*
Y161031D01*
X93130Y160967D01*
Y160889D01*
X93117Y160798D01*
X93091Y160682D01*
X93026Y160422D01*
X92974Y160280D01*
X92909Y160138D01*
X92832Y159982D01*
X92741Y159840D01*
X92624Y159684D01*
X92495Y159542D01*
X92352Y159412D01*
X92184Y159283D01*
X93000D01*
Y158259D01*
X84036D01*
Y159360D01*
X87235D01*
X87222Y159373D01*
X87197Y159386D01*
X87158Y159425D01*
X87093Y159490D01*
X87028Y159555D01*
X86951Y159632D01*
X86873Y159736D01*
X86795Y159840D01*
X86627Y160099D01*
X86497Y160397D01*
X86432Y160565D01*
X86393Y160746D01*
X86368Y160941D01*
X86355Y161135D01*
Y161239D01*
X86368Y161355D01*
X86381Y161498D01*
X86419Y161666D01*
X86458Y161860D01*
X86523Y162068D01*
X86601Y162262D01*
X86614Y162288D01*
X86640Y162353D01*
X86704Y162456D01*
X86782Y162573D01*
X86873Y162715D01*
X86989Y162858D01*
X87132Y163013D01*
X87287Y163143D01*
X87300Y163156D01*
X87365Y163195D01*
X87456Y163259D01*
X87572Y163337D01*
X87728Y163428D01*
X87909Y163519D01*
X88116Y163609D01*
X88337Y163687D01*
X88350D01*
X88363Y163700D01*
X88401Y163713D01*
X88440Y163726D01*
X88570Y163752D01*
X88738Y163791D01*
X88933Y163829D01*
X89153Y163868D01*
X89399Y163881D01*
X89658Y163894D01*
X89671D01*
X89736D01*
X89813D01*
X89930Y163881D01*
D02*
G37*
G36*
X93000Y152028D02*
X92184D01*
X92197Y152015D01*
X92223Y152002D01*
X92275Y151964D01*
X92339Y151912D01*
X92404Y151847D01*
X92482Y151769D01*
X92572Y151679D01*
X92663Y151562D01*
X92754Y151445D01*
X92845Y151316D01*
X92922Y151160D01*
X92987Y150992D01*
X93052Y150824D01*
X93104Y150629D01*
X93130Y150422D01*
X93142Y150202D01*
Y150124D01*
X93130Y150072D01*
X93117Y149917D01*
X93091Y149735D01*
X93039Y149515D01*
X92961Y149269D01*
X92858Y149023D01*
X92715Y148777D01*
Y148764D01*
X92689Y148751D01*
X92637Y148673D01*
X92534Y148557D01*
X92404Y148414D01*
X92236Y148246D01*
X92029Y148077D01*
X91795Y147909D01*
X91523Y147767D01*
X91510D01*
X91484Y147753D01*
X91446Y147740D01*
X91394Y147715D01*
X91316Y147689D01*
X91225Y147650D01*
X91135Y147624D01*
X91018Y147598D01*
X90759Y147533D01*
X90461Y147469D01*
X90124Y147430D01*
X89761Y147417D01*
X89749D01*
X89723D01*
X89671D01*
X89593D01*
X89515Y147430D01*
X89412D01*
X89179Y147456D01*
X88907Y147494D01*
X88609Y147559D01*
X88298Y147637D01*
X88000Y147740D01*
X87987D01*
X87961Y147753D01*
X87922Y147779D01*
X87870Y147805D01*
X87728Y147883D01*
X87546Y147987D01*
X87352Y148116D01*
X87158Y148285D01*
X86951Y148479D01*
X86782Y148712D01*
Y148725D01*
X86769Y148738D01*
X86743Y148777D01*
X86717Y148829D01*
X86653Y148958D01*
X86562Y149140D01*
X86484Y149347D01*
X86419Y149593D01*
X86368Y149865D01*
X86355Y150150D01*
Y150254D01*
X86368Y150357D01*
X86381Y150500D01*
X86419Y150668D01*
X86458Y150850D01*
X86523Y151031D01*
X86614Y151199D01*
X86627Y151225D01*
X86653Y151277D01*
X86717Y151355D01*
X86782Y151458D01*
X86873Y151588D01*
X86989Y151705D01*
X87106Y151834D01*
X87248Y151951D01*
X84036D01*
Y153052D01*
X93000D01*
Y152028D01*
D02*
G37*
G36*
X90034Y146471D02*
Y141613D01*
X90047D01*
X90085D01*
X90137Y141626D01*
X90215D01*
X90306Y141639D01*
X90409Y141665D01*
X90642Y141704D01*
X90901Y141782D01*
X91187Y141885D01*
X91446Y142028D01*
X91679Y142209D01*
Y142222D01*
X91705Y142235D01*
X91769Y142313D01*
X91860Y142429D01*
X91951Y142585D01*
X92054Y142792D01*
X92145Y143025D01*
X92210Y143284D01*
X92223Y143427D01*
X92236Y143582D01*
Y143686D01*
X92223Y143802D01*
X92197Y143945D01*
X92158Y144101D01*
X92106Y144282D01*
X92029Y144450D01*
X91925Y144619D01*
X91912Y144632D01*
X91860Y144696D01*
X91782Y144774D01*
X91679Y144865D01*
X91536Y144968D01*
X91355Y145085D01*
X91148Y145202D01*
X90901Y145305D01*
X91044Y146445D01*
X91057D01*
X91083Y146432D01*
X91135Y146419D01*
X91212Y146393D01*
X91290Y146355D01*
X91394Y146316D01*
X91614Y146212D01*
X91860Y146082D01*
X92119Y145901D01*
X92365Y145694D01*
X92598Y145435D01*
Y145422D01*
X92624Y145396D01*
X92650Y145357D01*
X92689Y145305D01*
X92728Y145227D01*
X92767Y145150D01*
X92819Y145046D01*
X92871Y144930D01*
X92922Y144800D01*
X92974Y144670D01*
X93052Y144347D01*
X93117Y143984D01*
X93142Y143582D01*
Y143440D01*
X93130Y143349D01*
X93117Y143233D01*
X93091Y143090D01*
X93065Y142935D01*
X93039Y142766D01*
X92935Y142403D01*
X92858Y142209D01*
X92780Y142028D01*
X92676Y141833D01*
X92560Y141652D01*
X92430Y141484D01*
X92275Y141315D01*
X92262Y141302D01*
X92236Y141277D01*
X92184Y141238D01*
X92106Y141186D01*
X92015Y141121D01*
X91912Y141056D01*
X91782Y140979D01*
X91640Y140901D01*
X91471Y140823D01*
X91290Y140745D01*
X91083Y140681D01*
X90863Y140616D01*
X90629Y140564D01*
X90370Y140525D01*
X90098Y140499D01*
X89813Y140486D01*
X89800D01*
X89736D01*
X89658D01*
X89541Y140499D01*
X89399Y140512D01*
X89243Y140525D01*
X89062Y140551D01*
X88881Y140590D01*
X88466Y140694D01*
X88259Y140758D01*
X88039Y140836D01*
X87831Y140940D01*
X87637Y141056D01*
X87443Y141186D01*
X87261Y141328D01*
X87248Y141341D01*
X87222Y141367D01*
X87184Y141419D01*
X87119Y141484D01*
X87054Y141561D01*
X86976Y141665D01*
X86886Y141782D01*
X86808Y141924D01*
X86717Y142067D01*
X86640Y142235D01*
X86562Y142416D01*
X86497Y142611D01*
X86432Y142818D01*
X86393Y143038D01*
X86368Y143271D01*
X86355Y143518D01*
Y143647D01*
X86368Y143738D01*
X86381Y143841D01*
X86406Y143971D01*
X86432Y144113D01*
X86471Y144282D01*
X86510Y144437D01*
X86575Y144619D01*
X86640Y144787D01*
X86730Y144968D01*
X86834Y145150D01*
X86951Y145331D01*
X87093Y145499D01*
X87248Y145655D01*
X87261Y145668D01*
X87287Y145694D01*
X87339Y145733D01*
X87417Y145785D01*
X87507Y145849D01*
X87611Y145914D01*
X87741Y145992D01*
X87896Y146069D01*
X88064Y146147D01*
X88246Y146225D01*
X88453Y146290D01*
X88673Y146355D01*
X88919Y146406D01*
X89179Y146445D01*
X89451Y146471D01*
X89749Y146484D01*
X89761D01*
X89813D01*
X89904D01*
X90034Y146471D01*
D02*
G37*
G36*
X93000Y138064D02*
X89062D01*
X89049D01*
X89036D01*
X88945D01*
X88829D01*
X88686Y138051D01*
X88518Y138038D01*
X88350Y138012D01*
X88194Y137973D01*
X88052Y137934D01*
X88039D01*
X88000Y137908D01*
X87935Y137870D01*
X87857Y137831D01*
X87780Y137766D01*
X87689Y137688D01*
X87598Y137585D01*
X87521Y137468D01*
X87507Y137455D01*
X87482Y137416D01*
X87456Y137338D01*
X87417Y137248D01*
X87378Y137144D01*
X87339Y137015D01*
X87326Y136859D01*
X87313Y136704D01*
Y136639D01*
X87326Y136587D01*
X87339Y136458D01*
X87365Y136289D01*
X87430Y136108D01*
X87507Y135901D01*
X87611Y135693D01*
X87767Y135499D01*
X87793Y135473D01*
X87857Y135421D01*
X87909Y135382D01*
X87974Y135344D01*
X88052Y135292D01*
X88142Y135253D01*
X88246Y135201D01*
X88375Y135149D01*
X88518Y135110D01*
X88673Y135071D01*
X88842Y135046D01*
X89023Y135020D01*
X89243Y134994D01*
X89464D01*
X93000D01*
Y133893D01*
X86497D01*
Y134877D01*
X87430D01*
X87417Y134890D01*
X87378Y134916D01*
X87326Y134955D01*
X87261Y135007D01*
X87184Y135084D01*
X87093Y135175D01*
X86989Y135279D01*
X86886Y135408D01*
X86795Y135538D01*
X86691Y135693D01*
X86601Y135862D01*
X86523Y136043D01*
X86458Y136250D01*
X86406Y136458D01*
X86368Y136691D01*
X86355Y136937D01*
Y137041D01*
X86368Y137144D01*
X86381Y137287D01*
X86406Y137455D01*
X86445Y137636D01*
X86497Y137831D01*
X86575Y138012D01*
X86588Y138038D01*
X86614Y138090D01*
X86653Y138181D01*
X86717Y138284D01*
X86795Y138414D01*
X86899Y138530D01*
X87002Y138647D01*
X87132Y138750D01*
X87145Y138763D01*
X87197Y138789D01*
X87261Y138828D01*
X87352Y138893D01*
X87482Y138945D01*
X87611Y138997D01*
X87767Y139061D01*
X87935Y139100D01*
X87948D01*
X88000Y139113D01*
X88077Y139126D01*
X88181Y139139D01*
X88337D01*
X88518Y139152D01*
X88738Y139165D01*
X89010D01*
X93000D01*
Y138064D01*
D02*
G37*
G36*
X92482Y132209D02*
X92624D01*
X92780Y132196D01*
X92948Y132183D01*
X93298Y132144D01*
X93661Y132092D01*
X93829Y132053D01*
X93984Y132014D01*
X94127Y131963D01*
X94257Y131911D01*
X94270D01*
X94283Y131898D01*
X94360Y131846D01*
X94477Y131781D01*
X94619Y131678D01*
X94775Y131535D01*
X94943Y131367D01*
X95112Y131159D01*
X95254Y130926D01*
Y130913D01*
X95267Y130900D01*
X95293Y130862D01*
X95306Y130810D01*
X95345Y130745D01*
X95371Y130667D01*
X95435Y130473D01*
X95513Y130240D01*
X95565Y129955D01*
X95617Y129631D01*
X95630Y129281D01*
Y129164D01*
X95617Y129087D01*
Y128983D01*
X95604Y128879D01*
X95591Y128750D01*
X95565Y128608D01*
X95500Y128309D01*
X95409Y127999D01*
X95280Y127688D01*
X95099Y127403D01*
X95086Y127390D01*
X95073Y127377D01*
X94995Y127286D01*
X94878Y127183D01*
X94710Y127053D01*
X94490Y126924D01*
X94218Y126807D01*
X94062Y126768D01*
X93894Y126742D01*
X93725Y126716D01*
X93531D01*
X93674Y127791D01*
X93700D01*
X93751Y127804D01*
X93842Y127830D01*
X93959Y127856D01*
X94075Y127908D01*
X94192Y127973D01*
X94308Y128050D01*
X94399Y128154D01*
X94412Y128180D01*
X94451Y128232D01*
X94503Y128322D01*
X94555Y128452D01*
X94619Y128608D01*
X94671Y128802D01*
X94710Y129035D01*
X94723Y129281D01*
Y129411D01*
X94710Y129540D01*
X94684Y129721D01*
X94645Y129903D01*
X94593Y130097D01*
X94516Y130292D01*
X94412Y130460D01*
X94399Y130473D01*
X94360Y130525D01*
X94283Y130602D01*
X94192Y130693D01*
X94062Y130784D01*
X93920Y130874D01*
X93751Y130965D01*
X93557Y131030D01*
X93544D01*
X93492Y131043D01*
X93389Y131056D01*
X93259Y131069D01*
X93168Y131082D01*
X93065D01*
X92948Y131095D01*
X92819D01*
X92676D01*
X92508Y131108D01*
X92339D01*
X92145D01*
X92158Y131095D01*
X92184Y131069D01*
X92223Y131030D01*
X92275Y130978D01*
X92339Y130913D01*
X92417Y130823D01*
X92495Y130719D01*
X92572Y130615D01*
X92728Y130343D01*
X92871Y130045D01*
X92922Y129877D01*
X92961Y129696D01*
X92987Y129501D01*
X93000Y129307D01*
Y129242D01*
X92987Y129178D01*
Y129087D01*
X92974Y128970D01*
X92948Y128841D01*
X92922Y128698D01*
X92883Y128543D01*
X92832Y128374D01*
X92767Y128206D01*
X92689Y128038D01*
X92598Y127856D01*
X92482Y127688D01*
X92352Y127519D01*
X92210Y127364D01*
X92041Y127221D01*
X92029Y127208D01*
X92003Y127196D01*
X91938Y127157D01*
X91873Y127105D01*
X91769Y127053D01*
X91666Y126988D01*
X91536Y126924D01*
X91381Y126859D01*
X91225Y126794D01*
X91044Y126729D01*
X90863Y126664D01*
X90655Y126613D01*
X90215Y126522D01*
X89969Y126509D01*
X89723Y126496D01*
X89710D01*
X89684D01*
X89632D01*
X89567D01*
X89476Y126509D01*
X89386D01*
X89153Y126535D01*
X88894Y126574D01*
X88609Y126638D01*
X88311Y126716D01*
X88013Y126833D01*
X88000D01*
X87974Y126846D01*
X87935Y126872D01*
X87883Y126898D01*
X87741Y126975D01*
X87559Y127079D01*
X87365Y127221D01*
X87171Y127390D01*
X86964Y127584D01*
X86795Y127804D01*
Y127817D01*
X86782Y127830D01*
X86756Y127869D01*
X86730Y127921D01*
X86653Y128050D01*
X86575Y128232D01*
X86497Y128452D01*
X86419Y128711D01*
X86368Y128996D01*
X86355Y129307D01*
Y129424D01*
X86368Y129501D01*
X86381Y129592D01*
X86406Y129709D01*
X86432Y129838D01*
X86471Y129981D01*
X86523Y130123D01*
X86588Y130279D01*
X86665Y130434D01*
X86756Y130602D01*
X86860Y130758D01*
X86989Y130913D01*
X87132Y131069D01*
X87300Y131211D01*
X86497D01*
Y132222D01*
X92119D01*
X92132D01*
X92184D01*
X92262D01*
X92365D01*
X92482Y132209D01*
D02*
G37*
G36*
X93000Y124138D02*
X86497D01*
Y125239D01*
X93000D01*
Y124138D01*
D02*
G37*
G36*
X85292D02*
X84036D01*
Y125239D01*
X85292D01*
Y124138D01*
D02*
G37*
G36*
X91290Y122817D02*
X91433Y122791D01*
X91588Y122752D01*
X91756Y122688D01*
X91951Y122610D01*
X92132Y122506D01*
X92158Y122493D01*
X92210Y122441D01*
X92301Y122377D01*
X92404Y122273D01*
X92521Y122130D01*
X92650Y121975D01*
X92767Y121794D01*
X92883Y121573D01*
Y121560D01*
X92896Y121548D01*
X92922Y121470D01*
X92961Y121340D01*
X93013Y121172D01*
X93065Y120965D01*
X93104Y120731D01*
X93130Y120485D01*
X93142Y120200D01*
Y120084D01*
X93130Y119993D01*
Y119889D01*
X93117Y119760D01*
X93104Y119630D01*
X93078Y119488D01*
X93013Y119177D01*
X92922Y118853D01*
X92793Y118542D01*
X92715Y118400D01*
X92624Y118270D01*
X92611Y118257D01*
X92598Y118244D01*
X92521Y118167D01*
X92404Y118050D01*
X92223Y117920D01*
X92003Y117778D01*
X91743Y117635D01*
X91420Y117519D01*
X91057Y117428D01*
X90889Y118516D01*
X90901D01*
X90914D01*
X90992Y118542D01*
X91122Y118568D01*
X91264Y118620D01*
X91420Y118685D01*
X91588Y118762D01*
X91756Y118879D01*
X91899Y119022D01*
X91912Y119047D01*
X91951Y119099D01*
X92003Y119203D01*
X92067Y119332D01*
X92132Y119501D01*
X92184Y119695D01*
X92223Y119928D01*
X92236Y120200D01*
Y120330D01*
X92223Y120459D01*
X92197Y120628D01*
X92158Y120809D01*
X92106Y121004D01*
X92041Y121172D01*
X91938Y121327D01*
X91925Y121340D01*
X91886Y121392D01*
X91821Y121444D01*
X91730Y121522D01*
X91627Y121586D01*
X91497Y121651D01*
X91368Y121690D01*
X91212Y121703D01*
X91199D01*
X91148D01*
X91083Y121690D01*
X90992Y121664D01*
X90901Y121625D01*
X90811Y121560D01*
X90707Y121483D01*
X90629Y121366D01*
X90617Y121353D01*
X90604Y121314D01*
X90565Y121250D01*
X90526Y121146D01*
X90474Y120990D01*
X90435Y120900D01*
X90409Y120796D01*
X90370Y120680D01*
X90331Y120550D01*
X90293Y120408D01*
X90254Y120239D01*
Y120226D01*
X90241Y120187D01*
X90228Y120123D01*
X90202Y120045D01*
X90176Y119941D01*
X90137Y119825D01*
X90072Y119579D01*
X89982Y119294D01*
X89904Y119022D01*
X89813Y118762D01*
X89761Y118646D01*
X89723Y118555D01*
X89710Y118529D01*
X89684Y118477D01*
X89632Y118400D01*
X89567Y118296D01*
X89476Y118180D01*
X89373Y118063D01*
X89256Y117946D01*
X89114Y117843D01*
X89101Y117830D01*
X89049Y117804D01*
X88958Y117765D01*
X88855Y117726D01*
X88725Y117687D01*
X88570Y117648D01*
X88414Y117622D01*
X88233Y117610D01*
X88207D01*
X88155D01*
X88077Y117622D01*
X87961Y117635D01*
X87844Y117661D01*
X87702Y117687D01*
X87572Y117739D01*
X87430Y117804D01*
X87417Y117817D01*
X87365Y117843D01*
X87300Y117882D01*
X87210Y117946D01*
X87119Y118024D01*
X87002Y118115D01*
X86899Y118218D01*
X86808Y118348D01*
X86795Y118361D01*
X86782Y118400D01*
X86743Y118452D01*
X86704Y118529D01*
X86653Y118633D01*
X86601Y118750D01*
X86549Y118892D01*
X86497Y119047D01*
X86484Y119073D01*
X86471Y119125D01*
X86445Y119216D01*
X86419Y119332D01*
X86393Y119475D01*
X86381Y119630D01*
X86355Y119812D01*
Y120123D01*
X86368Y120265D01*
X86381Y120459D01*
X86406Y120667D01*
X86458Y120887D01*
X86510Y121120D01*
X86588Y121340D01*
Y121353D01*
X86601Y121366D01*
X86627Y121431D01*
X86678Y121535D01*
X86743Y121664D01*
X86834Y121807D01*
X86938Y121949D01*
X87054Y122079D01*
X87184Y122195D01*
X87197Y122208D01*
X87248Y122234D01*
X87339Y122286D01*
X87443Y122351D01*
X87598Y122416D01*
X87767Y122480D01*
X87961Y122532D01*
X88181Y122584D01*
X88324Y121509D01*
X88298D01*
X88246Y121496D01*
X88155Y121470D01*
X88039Y121431D01*
X87922Y121366D01*
X87793Y121288D01*
X87663Y121198D01*
X87546Y121068D01*
X87533Y121055D01*
X87507Y121004D01*
X87456Y120926D01*
X87404Y120809D01*
X87352Y120680D01*
X87300Y120511D01*
X87274Y120304D01*
X87261Y120084D01*
Y119954D01*
X87274Y119825D01*
X87287Y119656D01*
X87326Y119488D01*
X87365Y119306D01*
X87430Y119138D01*
X87521Y118996D01*
X87533Y118983D01*
X87559Y118944D01*
X87611Y118892D01*
X87689Y118840D01*
X87767Y118775D01*
X87870Y118724D01*
X87987Y118685D01*
X88103Y118672D01*
X88116D01*
X88142D01*
X88181Y118685D01*
X88233D01*
X88363Y118724D01*
X88492Y118801D01*
X88505Y118814D01*
X88518Y118827D01*
X88557Y118853D01*
X88596Y118905D01*
X88635Y118957D01*
X88686Y119035D01*
X88725Y119125D01*
X88777Y119229D01*
Y119242D01*
X88790Y119268D01*
X88803Y119319D01*
X88842Y119410D01*
X88881Y119540D01*
X88919Y119708D01*
X88958Y119812D01*
X88984Y119928D01*
X89023Y120058D01*
X89062Y120200D01*
Y120213D01*
X89075Y120252D01*
X89088Y120317D01*
X89114Y120395D01*
X89140Y120485D01*
X89166Y120602D01*
X89243Y120848D01*
X89321Y121120D01*
X89412Y121392D01*
X89502Y121638D01*
X89541Y121742D01*
X89580Y121833D01*
X89593Y121859D01*
X89619Y121910D01*
X89658Y121988D01*
X89723Y122105D01*
X89800Y122221D01*
X89904Y122338D01*
X90021Y122454D01*
X90150Y122558D01*
X90163Y122571D01*
X90215Y122597D01*
X90293Y122649D01*
X90409Y122701D01*
X90552Y122739D01*
X90707Y122791D01*
X90889Y122817D01*
X91096Y122830D01*
X91122D01*
X91187D01*
X91290Y122817D01*
D02*
G37*
G36*
X90034Y116509D02*
Y111651D01*
X90047D01*
X90085D01*
X90137Y111664D01*
X90215D01*
X90306Y111677D01*
X90409Y111702D01*
X90642Y111741D01*
X90901Y111819D01*
X91187Y111923D01*
X91446Y112065D01*
X91679Y112247D01*
Y112260D01*
X91705Y112273D01*
X91769Y112350D01*
X91860Y112467D01*
X91951Y112622D01*
X92054Y112830D01*
X92145Y113063D01*
X92210Y113322D01*
X92223Y113464D01*
X92236Y113620D01*
Y113723D01*
X92223Y113840D01*
X92197Y113982D01*
X92158Y114138D01*
X92106Y114319D01*
X92029Y114488D01*
X91925Y114656D01*
X91912Y114669D01*
X91860Y114734D01*
X91782Y114811D01*
X91679Y114902D01*
X91536Y115006D01*
X91355Y115122D01*
X91148Y115239D01*
X90901Y115343D01*
X91044Y116482D01*
X91057D01*
X91083Y116470D01*
X91135Y116457D01*
X91212Y116431D01*
X91290Y116392D01*
X91394Y116353D01*
X91614Y116249D01*
X91860Y116120D01*
X92119Y115939D01*
X92365Y115731D01*
X92598Y115472D01*
Y115459D01*
X92624Y115433D01*
X92650Y115394D01*
X92689Y115343D01*
X92728Y115265D01*
X92767Y115187D01*
X92819Y115084D01*
X92871Y114967D01*
X92922Y114837D01*
X92974Y114708D01*
X93052Y114384D01*
X93117Y114021D01*
X93142Y113620D01*
Y113477D01*
X93130Y113386D01*
X93117Y113270D01*
X93091Y113127D01*
X93065Y112972D01*
X93039Y112804D01*
X92935Y112441D01*
X92858Y112247D01*
X92780Y112065D01*
X92676Y111871D01*
X92560Y111690D01*
X92430Y111521D01*
X92275Y111353D01*
X92262Y111340D01*
X92236Y111314D01*
X92184Y111275D01*
X92106Y111223D01*
X92015Y111159D01*
X91912Y111094D01*
X91782Y111016D01*
X91640Y110938D01*
X91471Y110861D01*
X91290Y110783D01*
X91083Y110718D01*
X90863Y110653D01*
X90629Y110601D01*
X90370Y110563D01*
X90098Y110537D01*
X89813Y110524D01*
X89800D01*
X89736D01*
X89658D01*
X89541Y110537D01*
X89399Y110550D01*
X89243Y110563D01*
X89062Y110589D01*
X88881Y110627D01*
X88466Y110731D01*
X88259Y110796D01*
X88039Y110873D01*
X87831Y110977D01*
X87637Y111094D01*
X87443Y111223D01*
X87261Y111366D01*
X87248Y111379D01*
X87222Y111405D01*
X87184Y111456D01*
X87119Y111521D01*
X87054Y111599D01*
X86976Y111702D01*
X86886Y111819D01*
X86808Y111962D01*
X86717Y112104D01*
X86640Y112273D01*
X86562Y112454D01*
X86497Y112648D01*
X86432Y112855D01*
X86393Y113076D01*
X86368Y113309D01*
X86355Y113555D01*
Y113685D01*
X86368Y113775D01*
X86381Y113879D01*
X86406Y114008D01*
X86432Y114151D01*
X86471Y114319D01*
X86510Y114475D01*
X86575Y114656D01*
X86640Y114824D01*
X86730Y115006D01*
X86834Y115187D01*
X86951Y115368D01*
X87093Y115537D01*
X87248Y115692D01*
X87261Y115705D01*
X87287Y115731D01*
X87339Y115770D01*
X87417Y115822D01*
X87507Y115887D01*
X87611Y115951D01*
X87741Y116029D01*
X87896Y116107D01*
X88064Y116185D01*
X88246Y116262D01*
X88453Y116327D01*
X88673Y116392D01*
X88919Y116444D01*
X89179Y116482D01*
X89451Y116509D01*
X89749Y116521D01*
X89761D01*
X89813D01*
X89904D01*
X90034Y116509D01*
D02*
G37*
G36*
X88738Y109397D02*
X88842D01*
X89088Y109384D01*
X89373Y109345D01*
X89671Y109306D01*
X89982Y109241D01*
X90293Y109164D01*
X90306D01*
X90331Y109151D01*
X90370Y109138D01*
X90422Y109125D01*
X90565Y109073D01*
X90746Y108995D01*
X90953Y108917D01*
X91160Y108814D01*
X91381Y108684D01*
X91588Y108555D01*
X91614Y108542D01*
X91679Y108490D01*
X91769Y108412D01*
X91886Y108309D01*
X92015Y108192D01*
X92145Y108049D01*
X92288Y107907D01*
X92404Y107739D01*
X92417Y107713D01*
X92456Y107661D01*
X92508Y107570D01*
X92572Y107441D01*
X92650Y107285D01*
X92715Y107104D01*
X92793Y106897D01*
X92858Y106663D01*
Y106637D01*
X92871Y106599D01*
X92883Y106560D01*
X92896Y106430D01*
X92922Y106249D01*
X92948Y106042D01*
X92974Y105795D01*
X92987Y105524D01*
X93000Y105225D01*
Y102000D01*
X84036D01*
Y105446D01*
X84049Y105679D01*
X84062Y105938D01*
X84088Y106197D01*
X84127Y106456D01*
X84165Y106676D01*
Y106689D01*
X84178Y106715D01*
Y106754D01*
X84204Y106806D01*
X84243Y106948D01*
X84308Y107130D01*
X84399Y107337D01*
X84515Y107557D01*
X84645Y107778D01*
X84813Y107985D01*
X84826Y107998D01*
X84839Y108011D01*
X84878Y108049D01*
X84917Y108101D01*
X85046Y108231D01*
X85228Y108386D01*
X85448Y108555D01*
X85707Y108736D01*
X86005Y108904D01*
X86342Y109047D01*
X86355D01*
X86381Y109060D01*
X86432Y109086D01*
X86510Y109099D01*
X86601Y109138D01*
X86704Y109164D01*
X86821Y109189D01*
X86964Y109228D01*
X87106Y109267D01*
X87274Y109293D01*
X87637Y109358D01*
X88039Y109397D01*
X88479Y109410D01*
X88492D01*
X88518D01*
X88583D01*
X88647D01*
X88738Y109397D01*
D02*
G37*
G36*
X195520Y175562D02*
X196845D01*
Y174463D01*
X195520D01*
Y172122D01*
X194322D01*
Y174463D01*
X190078D01*
Y175562D01*
X194547Y181878D01*
X195520D01*
Y175562D01*
D02*
G37*
G36*
X185793Y181863D02*
X185920D01*
X186216Y181849D01*
X186526Y181807D01*
X186864Y181765D01*
X187174Y181694D01*
X187330Y181652D01*
X187456Y181610D01*
X187470D01*
X187485Y181596D01*
X187569Y181553D01*
X187696Y181497D01*
X187851Y181398D01*
X188020Y181271D01*
X188204Y181102D01*
X188373Y180905D01*
X188542Y180679D01*
Y180665D01*
X188556Y180651D01*
X188612Y180567D01*
X188669Y180426D01*
X188753Y180242D01*
X188824Y180031D01*
X188894Y179777D01*
X188937Y179509D01*
X188951Y179213D01*
Y179199D01*
Y179171D01*
Y179115D01*
X188937Y179044D01*
Y178945D01*
X188923Y178847D01*
X188866Y178607D01*
X188782Y178325D01*
X188669Y178029D01*
X188500Y177733D01*
X188387Y177592D01*
X188274Y177451D01*
X188260Y177437D01*
X188246Y177423D01*
X188204Y177381D01*
X188147Y177338D01*
X188077Y177282D01*
X187992Y177226D01*
X187879Y177155D01*
X187766Y177071D01*
X187626Y177000D01*
X187470Y176929D01*
X187301Y176845D01*
X187118Y176774D01*
X186907Y176718D01*
X186695Y176648D01*
X186455Y176605D01*
X186202Y176563D01*
X186230Y176549D01*
X186286Y176521D01*
X186371Y176464D01*
X186484Y176408D01*
X186737Y176253D01*
X186864Y176154D01*
X186977Y176070D01*
X187005Y176041D01*
X187076Y175971D01*
X187189Y175858D01*
X187330Y175717D01*
X187485Y175520D01*
X187668Y175308D01*
X187851Y175055D01*
X188048Y174773D01*
X189726Y172122D01*
X188119D01*
X186836Y174152D01*
Y174167D01*
X186808Y174195D01*
X186780Y174237D01*
X186737Y174293D01*
X186639Y174448D01*
X186512Y174646D01*
X186357Y174857D01*
X186202Y175083D01*
X186047Y175294D01*
X185906Y175492D01*
X185892Y175506D01*
X185849Y175562D01*
X185779Y175647D01*
X185680Y175745D01*
X185469Y175957D01*
X185356Y176056D01*
X185243Y176140D01*
X185229Y176154D01*
X185201Y176168D01*
X185145Y176196D01*
X185060Y176239D01*
X184975Y176281D01*
X184877Y176323D01*
X184651Y176394D01*
X184637D01*
X184609Y176408D01*
X184552D01*
X184482Y176422D01*
X184383Y176436D01*
X184270D01*
X184115Y176450D01*
X182452D01*
Y172122D01*
X181155D01*
Y181878D01*
X185680D01*
X185793Y181863D01*
D02*
G37*
G36*
X193821Y155969D02*
X194004Y155941D01*
X194230Y155899D01*
X194484Y155828D01*
X194737Y155744D01*
X194991Y155631D01*
X195005D01*
X195019Y155617D01*
X195104Y155575D01*
X195231Y155490D01*
X195372Y155391D01*
X195541Y155250D01*
X195710Y155095D01*
X195879Y154912D01*
X196020Y154700D01*
X196034Y154672D01*
X196077Y154602D01*
X196133Y154475D01*
X196204Y154320D01*
X196274Y154137D01*
X196330Y153925D01*
X196373Y153686D01*
X196387Y153446D01*
Y153418D01*
Y153333D01*
X196373Y153220D01*
X196345Y153065D01*
X196302Y152882D01*
X196232Y152685D01*
X196147Y152487D01*
X196034Y152290D01*
X196020Y152262D01*
X195978Y152205D01*
X195893Y152107D01*
X195781Y151994D01*
X195640Y151867D01*
X195471Y151726D01*
X195273Y151599D01*
X195033Y151472D01*
X195048D01*
X195076Y151458D01*
X195118Y151444D01*
X195175Y151430D01*
X195330Y151374D01*
X195527Y151289D01*
X195753Y151176D01*
X195978Y151035D01*
X196189Y150852D01*
X196387Y150640D01*
X196401Y150612D01*
X196457Y150528D01*
X196542Y150387D01*
X196626Y150204D01*
X196711Y149978D01*
X196796Y149710D01*
X196852Y149400D01*
X196866Y149062D01*
Y149048D01*
Y149005D01*
Y148935D01*
X196852Y148850D01*
X196838Y148737D01*
X196810Y148611D01*
X196782Y148470D01*
X196753Y148315D01*
X196641Y147976D01*
X196556Y147793D01*
X196471Y147624D01*
X196359Y147441D01*
X196232Y147257D01*
X196091Y147074D01*
X195922Y146905D01*
X195907Y146891D01*
X195879Y146862D01*
X195823Y146820D01*
X195753Y146764D01*
X195668Y146693D01*
X195555Y146623D01*
X195428Y146538D01*
X195273Y146468D01*
X195118Y146383D01*
X194935Y146299D01*
X194752Y146228D01*
X194540Y146158D01*
X194315Y146101D01*
X194075Y146059D01*
X193835Y146031D01*
X193567Y146017D01*
X193441D01*
X193356Y146031D01*
X193243Y146045D01*
X193116Y146059D01*
X192975Y146087D01*
X192820Y146115D01*
X192482Y146200D01*
X192129Y146341D01*
X191946Y146426D01*
X191777Y146524D01*
X191608Y146651D01*
X191439Y146778D01*
X191425Y146792D01*
X191397Y146820D01*
X191354Y146862D01*
X191312Y146919D01*
X191241Y146989D01*
X191171Y147088D01*
X191086Y147187D01*
X191002Y147314D01*
X190917Y147455D01*
X190833Y147596D01*
X190678Y147934D01*
X190551Y148329D01*
X190508Y148540D01*
X190480Y148766D01*
X191678Y148921D01*
Y148907D01*
X191693Y148878D01*
X191707Y148822D01*
X191721Y148751D01*
X191735Y148667D01*
X191763Y148568D01*
X191833Y148357D01*
X191932Y148103D01*
X192059Y147863D01*
X192200Y147638D01*
X192369Y147441D01*
X192397Y147426D01*
X192454Y147370D01*
X192567Y147300D01*
X192708Y147229D01*
X192877Y147144D01*
X193088Y147074D01*
X193328Y147018D01*
X193582Y147003D01*
X193666D01*
X193722Y147018D01*
X193878Y147032D01*
X194075Y147074D01*
X194300Y147144D01*
X194540Y147243D01*
X194780Y147384D01*
X195005Y147582D01*
X195033Y147610D01*
X195104Y147694D01*
X195189Y147821D01*
X195301Y147990D01*
X195414Y148202D01*
X195499Y148441D01*
X195569Y148723D01*
X195597Y149033D01*
Y149048D01*
Y149076D01*
Y149118D01*
X195583Y149174D01*
X195569Y149330D01*
X195527Y149513D01*
X195471Y149738D01*
X195372Y149964D01*
X195231Y150189D01*
X195048Y150401D01*
X195019Y150429D01*
X194949Y150485D01*
X194836Y150570D01*
X194681Y150669D01*
X194484Y150767D01*
X194244Y150852D01*
X193976Y150908D01*
X193680Y150937D01*
X193553D01*
X193455Y150922D01*
X193328Y150908D01*
X193187Y150880D01*
X193018Y150852D01*
X192834Y150810D01*
X192975Y151867D01*
X193046D01*
X193102Y151853D01*
X193286D01*
X193441Y151881D01*
X193624Y151909D01*
X193835Y151952D01*
X194075Y152022D01*
X194300Y152121D01*
X194540Y152248D01*
X194554D01*
X194568Y152262D01*
X194639Y152318D01*
X194737Y152417D01*
X194850Y152544D01*
X194963Y152727D01*
X195062Y152938D01*
X195132Y153178D01*
X195160Y153319D01*
Y153474D01*
Y153488D01*
Y153502D01*
Y153587D01*
X195132Y153700D01*
X195104Y153855D01*
X195048Y154024D01*
X194977Y154207D01*
X194864Y154390D01*
X194709Y154559D01*
X194695Y154574D01*
X194625Y154630D01*
X194526Y154700D01*
X194399Y154785D01*
X194230Y154855D01*
X194033Y154926D01*
X193807Y154982D01*
X193553Y154997D01*
X193441D01*
X193314Y154968D01*
X193144Y154940D01*
X192961Y154884D01*
X192778Y154813D01*
X192581Y154700D01*
X192397Y154559D01*
X192383Y154545D01*
X192327Y154475D01*
X192242Y154376D01*
X192144Y154235D01*
X192045Y154052D01*
X191946Y153827D01*
X191862Y153559D01*
X191805Y153249D01*
X190607Y153460D01*
Y153474D01*
X190621Y153516D01*
X190635Y153573D01*
X190649Y153657D01*
X190678Y153756D01*
X190720Y153869D01*
X190804Y154137D01*
X190945Y154447D01*
X191115Y154757D01*
X191326Y155053D01*
X191594Y155321D01*
X191608Y155335D01*
X191636Y155349D01*
X191678Y155377D01*
X191735Y155419D01*
X191805Y155476D01*
X191904Y155532D01*
X192003Y155589D01*
X192129Y155659D01*
X192411Y155772D01*
X192736Y155885D01*
X193116Y155955D01*
X193314Y155983D01*
X193666D01*
X193821Y155969D01*
D02*
G37*
G36*
X185772Y155927D02*
X185899D01*
X186195Y155913D01*
X186505Y155871D01*
X186843Y155828D01*
X187153Y155758D01*
X187308Y155716D01*
X187435Y155673D01*
X187449D01*
X187463Y155659D01*
X187548Y155617D01*
X187675Y155560D01*
X187830Y155462D01*
X187999Y155335D01*
X188182Y155166D01*
X188351Y154968D01*
X188521Y154743D01*
Y154729D01*
X188535Y154715D01*
X188591Y154630D01*
X188648Y154489D01*
X188732Y154306D01*
X188803Y154094D01*
X188873Y153841D01*
X188915Y153573D01*
X188930Y153277D01*
Y153263D01*
Y153234D01*
Y153178D01*
X188915Y153108D01*
Y153009D01*
X188901Y152910D01*
X188845Y152670D01*
X188760Y152389D01*
X188648Y152093D01*
X188478Y151797D01*
X188366Y151656D01*
X188253Y151515D01*
X188239Y151501D01*
X188225Y151486D01*
X188182Y151444D01*
X188126Y151402D01*
X188055Y151345D01*
X187971Y151289D01*
X187858Y151219D01*
X187745Y151134D01*
X187604Y151063D01*
X187449Y150993D01*
X187280Y150908D01*
X187097Y150838D01*
X186886Y150781D01*
X186674Y150711D01*
X186434Y150669D01*
X186181Y150626D01*
X186209Y150612D01*
X186265Y150584D01*
X186350Y150528D01*
X186462Y150471D01*
X186716Y150316D01*
X186843Y150218D01*
X186956Y150133D01*
X186984Y150105D01*
X187055Y150034D01*
X187167Y149922D01*
X187308Y149781D01*
X187463Y149583D01*
X187647Y149372D01*
X187830Y149118D01*
X188027Y148836D01*
X189705Y146186D01*
X188098D01*
X186815Y148216D01*
Y148230D01*
X186787Y148258D01*
X186759Y148300D01*
X186716Y148357D01*
X186618Y148512D01*
X186491Y148709D01*
X186336Y148921D01*
X186181Y149146D01*
X186026Y149358D01*
X185885Y149555D01*
X185870Y149569D01*
X185828Y149626D01*
X185758Y149710D01*
X185659Y149809D01*
X185448Y150020D01*
X185335Y150119D01*
X185222Y150204D01*
X185208Y150218D01*
X185180Y150232D01*
X185123Y150260D01*
X185039Y150302D01*
X184954Y150344D01*
X184855Y150387D01*
X184630Y150457D01*
X184616D01*
X184588Y150471D01*
X184531D01*
X184461Y150485D01*
X184362Y150500D01*
X184249D01*
X184094Y150514D01*
X182431D01*
Y146186D01*
X181134D01*
Y155941D01*
X185659D01*
X185772Y155927D01*
D02*
G37*
G36*
X193983Y207885D02*
X194096Y207871D01*
X194237Y207856D01*
X194392Y207828D01*
X194547Y207800D01*
X194914Y207701D01*
X195280Y207560D01*
X195464Y207476D01*
X195647Y207377D01*
X195816Y207250D01*
X195971Y207109D01*
X195985Y207095D01*
X196013Y207081D01*
X196042Y207025D01*
X196098Y206968D01*
X196168Y206898D01*
X196239Y206799D01*
X196309Y206700D01*
X196394Y206574D01*
X196535Y206306D01*
X196676Y205967D01*
X196732Y205798D01*
X196760Y205601D01*
X196789Y205404D01*
X196803Y205192D01*
Y205164D01*
Y205093D01*
X196789Y204981D01*
X196775Y204826D01*
X196746Y204656D01*
X196690Y204459D01*
X196633Y204248D01*
X196549Y204036D01*
X196535Y204008D01*
X196507Y203937D01*
X196450Y203825D01*
X196366Y203670D01*
X196253Y203500D01*
X196112Y203289D01*
X195943Y203078D01*
X195745Y202838D01*
X195717Y202810D01*
X195647Y202725D01*
X195576Y202655D01*
X195506Y202584D01*
X195421Y202500D01*
X195308Y202387D01*
X195196Y202274D01*
X195055Y202147D01*
X194914Y202006D01*
X194744Y201851D01*
X194561Y201696D01*
X194364Y201513D01*
X194138Y201329D01*
X193913Y201132D01*
X193899Y201118D01*
X193871Y201090D01*
X193814Y201048D01*
X193744Y200991D01*
X193659Y200907D01*
X193560Y200822D01*
X193335Y200639D01*
X193095Y200427D01*
X192870Y200216D01*
X192672Y200033D01*
X192588Y199962D01*
X192517Y199892D01*
X192503Y199877D01*
X192461Y199835D01*
X192404Y199779D01*
X192334Y199694D01*
X192264Y199596D01*
X192179Y199497D01*
X192010Y199257D01*
X196817D01*
Y198101D01*
X190346D01*
Y198115D01*
Y198172D01*
Y198256D01*
X190360Y198369D01*
X190375Y198496D01*
X190403Y198637D01*
X190431Y198778D01*
X190487Y198933D01*
Y198947D01*
X190501Y198961D01*
X190529Y199046D01*
X190586Y199173D01*
X190671Y199342D01*
X190783Y199539D01*
X190924Y199765D01*
X191079Y199990D01*
X191277Y200230D01*
Y200244D01*
X191305Y200258D01*
X191375Y200343D01*
X191502Y200470D01*
X191686Y200653D01*
X191897Y200864D01*
X192165Y201118D01*
X192489Y201400D01*
X192841Y201696D01*
X192855Y201710D01*
X192912Y201752D01*
X192997Y201823D01*
X193095Y201908D01*
X193222Y202020D01*
X193377Y202147D01*
X193532Y202288D01*
X193715Y202443D01*
X194068Y202782D01*
X194420Y203120D01*
X194590Y203289D01*
X194744Y203458D01*
X194886Y203613D01*
X194998Y203768D01*
Y203782D01*
X195026Y203797D01*
X195055Y203839D01*
X195083Y203895D01*
X195182Y204050D01*
X195294Y204233D01*
X195393Y204459D01*
X195492Y204699D01*
X195548Y204967D01*
X195576Y205220D01*
Y205234D01*
Y205249D01*
X195562Y205333D01*
X195548Y205474D01*
X195506Y205629D01*
X195449Y205826D01*
X195351Y206024D01*
X195224Y206221D01*
X195055Y206418D01*
X195026Y206447D01*
X194956Y206503D01*
X194857Y206574D01*
X194702Y206672D01*
X194505Y206757D01*
X194279Y206841D01*
X194011Y206898D01*
X193715Y206912D01*
X193631D01*
X193575Y206898D01*
X193405Y206884D01*
X193208Y206841D01*
X192997Y206785D01*
X192757Y206686D01*
X192531Y206560D01*
X192320Y206390D01*
X192292Y206362D01*
X192235Y206292D01*
X192151Y206179D01*
X192066Y206010D01*
X191967Y205812D01*
X191883Y205559D01*
X191826Y205277D01*
X191798Y204952D01*
X190572Y205079D01*
Y205093D01*
X190586Y205136D01*
Y205206D01*
X190600Y205305D01*
X190628Y205418D01*
X190656Y205544D01*
X190699Y205700D01*
X190741Y205855D01*
X190854Y206193D01*
X191023Y206531D01*
X191122Y206700D01*
X191248Y206870D01*
X191375Y207025D01*
X191516Y207166D01*
X191530Y207180D01*
X191559Y207194D01*
X191601Y207236D01*
X191671Y207278D01*
X191756Y207335D01*
X191855Y207391D01*
X191967Y207462D01*
X192108Y207532D01*
X192264Y207603D01*
X192433Y207673D01*
X192616Y207730D01*
X192813Y207786D01*
X193025Y207828D01*
X193250Y207871D01*
X193490Y207885D01*
X193744Y207899D01*
X193885D01*
X193983Y207885D01*
D02*
G37*
G36*
X185821Y207842D02*
X185948D01*
X186244Y207828D01*
X186554Y207786D01*
X186893Y207744D01*
X187203Y207673D01*
X187358Y207631D01*
X187485Y207589D01*
X187499D01*
X187513Y207575D01*
X187597Y207532D01*
X187724Y207476D01*
X187879Y207377D01*
X188048Y207250D01*
X188232Y207081D01*
X188401Y206884D01*
X188570Y206658D01*
Y206644D01*
X188584Y206630D01*
X188640Y206545D01*
X188697Y206404D01*
X188782Y206221D01*
X188852Y206010D01*
X188923Y205756D01*
X188965Y205488D01*
X188979Y205192D01*
Y205178D01*
Y205150D01*
Y205093D01*
X188965Y205023D01*
Y204924D01*
X188951Y204826D01*
X188894Y204586D01*
X188810Y204304D01*
X188697Y204008D01*
X188528Y203712D01*
X188415Y203571D01*
X188302Y203430D01*
X188288Y203416D01*
X188274Y203402D01*
X188232Y203360D01*
X188175Y203317D01*
X188105Y203261D01*
X188020Y203204D01*
X187908Y203134D01*
X187795Y203049D01*
X187654Y202979D01*
X187499Y202908D01*
X187330Y202824D01*
X187146Y202753D01*
X186935Y202697D01*
X186723Y202626D01*
X186484Y202584D01*
X186230Y202542D01*
X186258Y202528D01*
X186315Y202500D01*
X186399Y202443D01*
X186512Y202387D01*
X186766Y202232D01*
X186893Y202133D01*
X187005Y202048D01*
X187034Y202020D01*
X187104Y201950D01*
X187217Y201837D01*
X187358Y201696D01*
X187513Y201499D01*
X187696Y201287D01*
X187879Y201033D01*
X188077Y200751D01*
X189754Y198101D01*
X188147D01*
X186864Y200131D01*
Y200145D01*
X186836Y200174D01*
X186808Y200216D01*
X186766Y200272D01*
X186667Y200427D01*
X186540Y200625D01*
X186385Y200836D01*
X186230Y201062D01*
X186075Y201273D01*
X185934Y201471D01*
X185920Y201485D01*
X185877Y201541D01*
X185807Y201626D01*
X185708Y201724D01*
X185497Y201936D01*
X185384Y202034D01*
X185271Y202119D01*
X185257Y202133D01*
X185229Y202147D01*
X185173Y202175D01*
X185088Y202218D01*
X185004Y202260D01*
X184905Y202302D01*
X184679Y202373D01*
X184665D01*
X184637Y202387D01*
X184581D01*
X184510Y202401D01*
X184411Y202415D01*
X184299D01*
X184144Y202429D01*
X182480D01*
Y198101D01*
X181183D01*
Y207856D01*
X185708D01*
X185821Y207842D01*
D02*
G37*
G36*
X137790Y207384D02*
X137903Y207370D01*
X138044Y207356D01*
X138199Y207328D01*
X138354Y207300D01*
X138720Y207201D01*
X139087Y207060D01*
X139270Y206975D01*
X139453Y206877D01*
X139623Y206750D01*
X139778Y206609D01*
X139792Y206595D01*
X139820Y206581D01*
X139848Y206524D01*
X139904Y206468D01*
X139975Y206397D01*
X140045Y206299D01*
X140116Y206200D01*
X140201Y206073D01*
X140342Y205805D01*
X140483Y205467D01*
X140539Y205298D01*
X140567Y205101D01*
X140595Y204903D01*
X140609Y204692D01*
Y204664D01*
Y204593D01*
X140595Y204480D01*
X140581Y204325D01*
X140553Y204156D01*
X140497Y203959D01*
X140440Y203747D01*
X140356Y203536D01*
X140342Y203508D01*
X140313Y203437D01*
X140257Y203324D01*
X140172Y203169D01*
X140060Y203000D01*
X139919Y202789D01*
X139749Y202577D01*
X139552Y202338D01*
X139524Y202309D01*
X139453Y202225D01*
X139383Y202154D01*
X139312Y202084D01*
X139228Y201999D01*
X139115Y201887D01*
X139002Y201774D01*
X138861Y201647D01*
X138720Y201506D01*
X138551Y201351D01*
X138368Y201196D01*
X138171Y201012D01*
X137945Y200829D01*
X137719Y200632D01*
X137705Y200618D01*
X137677Y200590D01*
X137621Y200547D01*
X137550Y200491D01*
X137466Y200406D01*
X137367Y200322D01*
X137142Y200138D01*
X136902Y199927D01*
X136676Y199716D01*
X136479Y199532D01*
X136394Y199462D01*
X136324Y199391D01*
X136310Y199377D01*
X136267Y199335D01*
X136211Y199279D01*
X136141Y199194D01*
X136070Y199095D01*
X135985Y198997D01*
X135816Y198757D01*
X140623D01*
Y197601D01*
X134153D01*
Y197615D01*
Y197672D01*
Y197756D01*
X134167Y197869D01*
X134181Y197996D01*
X134209Y198137D01*
X134237Y198278D01*
X134294Y198433D01*
Y198447D01*
X134308Y198461D01*
X134336Y198545D01*
X134393Y198672D01*
X134477Y198841D01*
X134590Y199039D01*
X134731Y199264D01*
X134886Y199490D01*
X135083Y199730D01*
Y199744D01*
X135112Y199758D01*
X135182Y199842D01*
X135309Y199969D01*
X135492Y200153D01*
X135704Y200364D01*
X135971Y200618D01*
X136296Y200900D01*
X136648Y201196D01*
X136662Y201210D01*
X136719Y201252D01*
X136803Y201323D01*
X136902Y201407D01*
X137029Y201520D01*
X137184Y201647D01*
X137339Y201788D01*
X137522Y201943D01*
X137874Y202281D01*
X138227Y202619D01*
X138396Y202789D01*
X138551Y202958D01*
X138692Y203113D01*
X138805Y203268D01*
Y203282D01*
X138833Y203296D01*
X138861Y203339D01*
X138890Y203395D01*
X138988Y203550D01*
X139101Y203733D01*
X139200Y203959D01*
X139298Y204198D01*
X139355Y204466D01*
X139383Y204720D01*
Y204734D01*
Y204748D01*
X139369Y204833D01*
X139355Y204974D01*
X139312Y205129D01*
X139256Y205326D01*
X139157Y205523D01*
X139031Y205721D01*
X138861Y205918D01*
X138833Y205946D01*
X138763Y206003D01*
X138664Y206073D01*
X138509Y206172D01*
X138312Y206257D01*
X138086Y206341D01*
X137818Y206397D01*
X137522Y206412D01*
X137437D01*
X137381Y206397D01*
X137212Y206383D01*
X137015Y206341D01*
X136803Y206285D01*
X136564Y206186D01*
X136338Y206059D01*
X136126Y205890D01*
X136098Y205862D01*
X136042Y205791D01*
X135957Y205679D01*
X135873Y205509D01*
X135774Y205312D01*
X135689Y205058D01*
X135633Y204776D01*
X135605Y204452D01*
X134378Y204579D01*
Y204593D01*
X134393Y204635D01*
Y204706D01*
X134407Y204805D01*
X134435Y204917D01*
X134463Y205044D01*
X134505Y205199D01*
X134548Y205354D01*
X134660Y205693D01*
X134830Y206031D01*
X134928Y206200D01*
X135055Y206369D01*
X135182Y206524D01*
X135323Y206665D01*
X135337Y206679D01*
X135365Y206694D01*
X135408Y206736D01*
X135478Y206778D01*
X135563Y206835D01*
X135661Y206891D01*
X135774Y206961D01*
X135915Y207032D01*
X136070Y207102D01*
X136239Y207173D01*
X136423Y207229D01*
X136620Y207286D01*
X136831Y207328D01*
X137057Y207370D01*
X137297Y207384D01*
X137550Y207398D01*
X137691D01*
X137790Y207384D01*
D02*
G37*
G36*
X128979Y207342D02*
X129261Y207328D01*
X129543Y207300D01*
X129825Y207257D01*
X130065Y207215D01*
X130079D01*
X130107Y207201D01*
X130149D01*
X130206Y207173D01*
X130361Y207131D01*
X130558Y207060D01*
X130784Y206961D01*
X131023Y206835D01*
X131263Y206694D01*
X131489Y206510D01*
X131503Y206496D01*
X131517Y206482D01*
X131559Y206440D01*
X131615Y206397D01*
X131756Y206257D01*
X131926Y206059D01*
X132109Y205820D01*
X132306Y205538D01*
X132490Y205213D01*
X132645Y204847D01*
Y204833D01*
X132659Y204805D01*
X132687Y204748D01*
X132701Y204664D01*
X132743Y204565D01*
X132771Y204452D01*
X132800Y204325D01*
X132842Y204170D01*
X132884Y204015D01*
X132912Y203832D01*
X132983Y203437D01*
X133025Y203000D01*
X133039Y202521D01*
Y202507D01*
Y202479D01*
Y202408D01*
Y202338D01*
X133025Y202239D01*
Y202126D01*
X133011Y201858D01*
X132969Y201548D01*
X132927Y201224D01*
X132856Y200886D01*
X132771Y200547D01*
Y200533D01*
X132757Y200505D01*
X132743Y200463D01*
X132729Y200406D01*
X132673Y200251D01*
X132588Y200054D01*
X132504Y199828D01*
X132391Y199603D01*
X132250Y199363D01*
X132109Y199138D01*
X132095Y199109D01*
X132038Y199039D01*
X131954Y198940D01*
X131841Y198813D01*
X131714Y198672D01*
X131559Y198531D01*
X131404Y198376D01*
X131221Y198249D01*
X131193Y198235D01*
X131136Y198193D01*
X131038Y198137D01*
X130897Y198066D01*
X130727Y197982D01*
X130530Y197911D01*
X130304Y197827D01*
X130051Y197756D01*
X130022D01*
X129980Y197742D01*
X129938Y197728D01*
X129797Y197714D01*
X129600Y197686D01*
X129374Y197657D01*
X129106Y197629D01*
X128810Y197615D01*
X128486Y197601D01*
X124976D01*
Y207356D01*
X128726D01*
X128979Y207342D01*
D02*
G37*
%LPC*%
G36*
X72237Y258980D02*
X72110D01*
X72011Y258966D01*
X71885Y258952D01*
X71758Y258923D01*
X71603Y258895D01*
X71434Y258867D01*
X71067Y258754D01*
X70870Y258670D01*
X70672Y258585D01*
X70461Y258472D01*
X70264Y258345D01*
X70066Y258204D01*
X69883Y258035D01*
X69869Y258021D01*
X69841Y257993D01*
X69798Y257937D01*
X69728Y257852D01*
X69657Y257753D01*
X69573Y257626D01*
X69488Y257471D01*
X69390Y257288D01*
X69305Y257091D01*
X69206Y256851D01*
X69122Y256597D01*
X69051Y256315D01*
X68981Y256005D01*
X68938Y255653D01*
X68910Y255286D01*
X68896Y254892D01*
Y254878D01*
Y254821D01*
Y254722D01*
X68910Y254596D01*
X68924Y254455D01*
X68952Y254286D01*
X68981Y254088D01*
X69009Y253891D01*
X69122Y253440D01*
X69206Y253214D01*
X69291Y252974D01*
X69404Y252749D01*
X69531Y252523D01*
X69671Y252312D01*
X69841Y252115D01*
X69855Y252101D01*
X69883Y252072D01*
X69939Y252016D01*
X70010Y251959D01*
X70108Y251875D01*
X70221Y251790D01*
X70348Y251706D01*
X70489Y251607D01*
X70658Y251508D01*
X70841Y251424D01*
X71039Y251339D01*
X71250Y251255D01*
X71476Y251198D01*
X71701Y251142D01*
X71955Y251114D01*
X72223Y251100D01*
X72294D01*
X72364Y251114D01*
X72463D01*
X72590Y251128D01*
X72730Y251156D01*
X72900Y251184D01*
X73069Y251226D01*
X73266Y251283D01*
X73449Y251353D01*
X73661Y251424D01*
X73858Y251523D01*
X74056Y251649D01*
X74253Y251776D01*
X74450Y251931D01*
X74634Y252115D01*
X74648Y252129D01*
X74676Y252157D01*
X74718Y252227D01*
X74789Y252312D01*
X74859Y252411D01*
X74930Y252537D01*
X75014Y252693D01*
X75113Y252862D01*
X75198Y253059D01*
X75282Y253285D01*
X75353Y253524D01*
X75437Y253778D01*
X75493Y254060D01*
X75536Y254370D01*
X75564Y254694D01*
X75578Y255033D01*
Y255047D01*
Y255089D01*
Y255145D01*
Y255230D01*
X75564Y255329D01*
Y255455D01*
X75550Y255582D01*
X75522Y255737D01*
X75479Y256062D01*
X75409Y256400D01*
X75310Y256767D01*
X75169Y257105D01*
Y257119D01*
X75155Y257147D01*
X75127Y257190D01*
X75099Y257246D01*
X75000Y257415D01*
X74873Y257612D01*
X74704Y257838D01*
X74493Y258064D01*
X74253Y258289D01*
X73985Y258486D01*
X73971D01*
X73957Y258515D01*
X73915Y258529D01*
X73844Y258571D01*
X73774Y258599D01*
X73689Y258641D01*
X73478Y258740D01*
X73224Y258825D01*
X72928Y258909D01*
X72590Y258966D01*
X72237Y258980D01*
D02*
G37*
G36*
X72448Y161497D02*
Y161483D01*
X72462Y161469D01*
X72476Y161427D01*
X72490Y161370D01*
X72518Y161300D01*
X72546Y161215D01*
X72574Y161117D01*
X72603Y161004D01*
X72645Y160877D01*
X72673Y160722D01*
X72715Y160567D01*
X72758Y160383D01*
X72800Y160186D01*
X72842Y159989D01*
X72870Y159763D01*
X72913Y159524D01*
Y159495D01*
X72927Y159411D01*
X72955Y159270D01*
X72983Y159115D01*
X73011Y158946D01*
X73054Y158776D01*
X73096Y158621D01*
X73152Y158480D01*
Y158466D01*
X73181Y158424D01*
X73209Y158368D01*
X73251Y158311D01*
X73364Y158142D01*
X73533Y158001D01*
X73547D01*
X73575Y157973D01*
X73632Y157959D01*
X73702Y157931D01*
X73787Y157902D01*
X73871Y157874D01*
X73984Y157860D01*
X74097Y157846D01*
X74111D01*
X74181D01*
X74266Y157860D01*
X74379Y157888D01*
X74506Y157931D01*
X74633Y158001D01*
X74774Y158086D01*
X74900Y158198D01*
X74914Y158212D01*
X74943Y158269D01*
X74999Y158354D01*
X75055Y158466D01*
X75112Y158621D01*
X75168Y158805D01*
X75196Y159016D01*
X75211Y159270D01*
Y159383D01*
X75196Y159524D01*
X75168Y159679D01*
X75140Y159876D01*
X75084Y160073D01*
X75013Y160285D01*
X74914Y160496D01*
X74900Y160524D01*
X74858Y160581D01*
X74788Y160679D01*
X74689Y160792D01*
X74576Y160919D01*
X74435Y161060D01*
X74266Y161173D01*
X74083Y161286D01*
X74069Y161300D01*
X74012Y161314D01*
X73914Y161342D01*
X73787Y161384D01*
X73618Y161427D01*
X73420Y161455D01*
X73181Y161469D01*
X72899Y161483D01*
X72448Y161497D01*
D02*
G37*
G36*
X71982Y131104D02*
X69304Y130089D01*
X69290D01*
X69247Y130075D01*
X69177Y130047D01*
X69092Y130019D01*
X68994Y129976D01*
X68867Y129934D01*
X68726Y129892D01*
X68585Y129835D01*
X68261Y129722D01*
X67922Y129610D01*
X67584Y129497D01*
X67260Y129398D01*
X67274D01*
X67302Y129384D01*
X67358D01*
X67415Y129356D01*
X67514Y129342D01*
X67612Y129314D01*
X67852Y129257D01*
X68134Y129187D01*
X68444Y129088D01*
X68782Y128989D01*
X69135Y128863D01*
X71982Y127805D01*
Y131104D01*
D02*
G37*
G36*
X89904Y225944D02*
X89684D01*
X89671D01*
X89632D01*
X89567D01*
X89489Y225931D01*
X89386D01*
X89269Y225918D01*
X89010Y225879D01*
X88712Y225814D01*
X88414Y225724D01*
X88116Y225594D01*
X87987Y225503D01*
X87870Y225413D01*
X87857D01*
X87844Y225387D01*
X87780Y225322D01*
X87676Y225205D01*
X87559Y225050D01*
X87456Y224869D01*
X87352Y224648D01*
X87287Y224402D01*
X87261Y224273D01*
Y224065D01*
X87274Y224014D01*
X87287Y223871D01*
X87339Y223703D01*
X87404Y223496D01*
X87521Y223288D01*
X87663Y223081D01*
X87767Y222977D01*
X87870Y222874D01*
X87883D01*
X87896Y222848D01*
X87935Y222822D01*
X87987Y222796D01*
X88039Y222757D01*
X88116Y222718D01*
X88207Y222666D01*
X88311Y222628D01*
X88427Y222576D01*
X88570Y222524D01*
X88712Y222485D01*
X88868Y222446D01*
X89049Y222420D01*
X89230Y222394D01*
X89425Y222369D01*
X89645D01*
X89658D01*
X89697D01*
X89761D01*
X89852Y222381D01*
X89956D01*
X90085Y222394D01*
X90357Y222433D01*
X90668Y222498D01*
X90966Y222576D01*
X91264Y222705D01*
X91394Y222783D01*
X91510Y222874D01*
X91536Y222900D01*
X91601Y222964D01*
X91692Y223068D01*
X91795Y223223D01*
X91912Y223405D01*
X92003Y223625D01*
X92067Y223871D01*
X92080Y224001D01*
X92093Y224143D01*
Y224221D01*
X92080Y224273D01*
X92067Y224415D01*
X92015Y224597D01*
X91951Y224791D01*
X91847Y225011D01*
X91705Y225218D01*
X91614Y225322D01*
X91510Y225426D01*
X91497D01*
X91484Y225452D01*
X91446Y225478D01*
X91394Y225503D01*
X91342Y225542D01*
X91264Y225594D01*
X91173Y225633D01*
X91057Y225685D01*
X90940Y225737D01*
X90811Y225775D01*
X90655Y225827D01*
X90487Y225866D01*
X90318Y225892D01*
X90124Y225918D01*
X89904Y225944D01*
D02*
G37*
G36*
X89127Y214985D02*
X89114D01*
X89088D01*
X89049Y214972D01*
X88997D01*
X88842Y214946D01*
X88673Y214907D01*
X88466Y214842D01*
X88272Y214778D01*
X88077Y214674D01*
X87909Y214557D01*
X87896D01*
X87883Y214531D01*
X87806Y214467D01*
X87702Y214350D01*
X87585Y214195D01*
X87469Y214000D01*
X87365Y213767D01*
X87287Y213495D01*
X87274Y213353D01*
X87261Y213197D01*
Y213119D01*
X87274Y213068D01*
X87287Y212925D01*
X87326Y212757D01*
X87391Y212549D01*
X87482Y212329D01*
X87611Y212122D01*
X87780Y211915D01*
X87806Y211889D01*
X87870Y211837D01*
X87987Y211746D01*
X88142Y211656D01*
X88324Y211552D01*
X88557Y211461D01*
X88829Y211383D01*
X89127Y211345D01*
Y214985D01*
D02*
G37*
G36*
X89930Y208067D02*
X89697D01*
X89684D01*
X89645D01*
X89580D01*
X89489Y208054D01*
X89386D01*
X89269Y208041D01*
X88997Y208003D01*
X88699Y207938D01*
X88401Y207847D01*
X88103Y207718D01*
X87961Y207640D01*
X87844Y207549D01*
X87831D01*
X87818Y207523D01*
X87741Y207458D01*
X87650Y207355D01*
X87533Y207212D01*
X87417Y207031D01*
X87313Y206824D01*
X87248Y206591D01*
X87235Y206461D01*
X87222Y206332D01*
Y206267D01*
X87235Y206215D01*
X87261Y206085D01*
X87300Y205917D01*
X87378Y205723D01*
X87495Y205515D01*
X87572Y205399D01*
X87663Y205295D01*
X87767Y205191D01*
X87883Y205088D01*
X87896D01*
X87909Y205062D01*
X87948Y205036D01*
X88000Y205010D01*
X88077Y204971D01*
X88155Y204919D01*
X88259Y204868D01*
X88363Y204829D01*
X88492Y204777D01*
X88635Y204725D01*
X88790Y204686D01*
X88958Y204634D01*
X89153Y204609D01*
X89347Y204583D01*
X89554Y204557D01*
X89787D01*
X89800D01*
X89839D01*
X89904D01*
X89995Y204570D01*
X90098D01*
X90215Y204583D01*
X90487Y204622D01*
X90798Y204686D01*
X91096Y204764D01*
X91394Y204894D01*
X91523Y204971D01*
X91640Y205062D01*
X91666Y205088D01*
X91730Y205153D01*
X91834Y205256D01*
X91938Y205399D01*
X92041Y205580D01*
X92145Y205787D01*
X92210Y206021D01*
X92223Y206150D01*
X92236Y206280D01*
Y206357D01*
X92223Y206409D01*
X92197Y206539D01*
X92158Y206720D01*
X92080Y206914D01*
X91977Y207122D01*
X91821Y207329D01*
X91730Y207433D01*
X91627Y207536D01*
X91614D01*
X91601Y207562D01*
X91562Y207588D01*
X91510Y207614D01*
X91446Y207666D01*
X91355Y207705D01*
X91264Y207756D01*
X91148Y207808D01*
X91031Y207847D01*
X90876Y207899D01*
X90720Y207951D01*
X90552Y207990D01*
X90357Y208015D01*
X90150Y208041D01*
X89930Y208067D01*
D02*
G37*
G36*
X88531Y182146D02*
X88518D01*
X88479D01*
X88427D01*
X88350D01*
X88259Y182133D01*
X88142D01*
X88026Y182120D01*
X87883Y182095D01*
X87585Y182056D01*
X87274Y181991D01*
X86938Y181900D01*
X86627Y181771D01*
X86614D01*
X86588Y181758D01*
X86549Y181732D01*
X86497Y181706D01*
X86342Y181615D01*
X86160Y181499D01*
X85953Y181343D01*
X85746Y181149D01*
X85539Y180929D01*
X85357Y180683D01*
Y180670D01*
X85331Y180657D01*
X85318Y180618D01*
X85279Y180553D01*
X85253Y180488D01*
X85215Y180410D01*
X85124Y180216D01*
X85046Y179983D01*
X84969Y179711D01*
X84917Y179400D01*
X84904Y179076D01*
Y178960D01*
X84917Y178869D01*
X84930Y178752D01*
X84956Y178636D01*
X84981Y178493D01*
X85007Y178338D01*
X85111Y178001D01*
X85189Y177820D01*
X85267Y177638D01*
X85370Y177444D01*
X85487Y177263D01*
X85616Y177081D01*
X85772Y176913D01*
X85785Y176900D01*
X85810Y176874D01*
X85862Y176835D01*
X85940Y176770D01*
X86031Y176706D01*
X86147Y176628D01*
X86290Y176550D01*
X86458Y176460D01*
X86640Y176382D01*
X86860Y176291D01*
X87093Y176213D01*
X87352Y176149D01*
X87637Y176084D01*
X87961Y176045D01*
X88298Y176019D01*
X88660Y176006D01*
X88673D01*
X88725D01*
X88816D01*
X88933Y176019D01*
X89062Y176032D01*
X89217Y176058D01*
X89399Y176084D01*
X89580Y176110D01*
X89995Y176213D01*
X90202Y176291D01*
X90422Y176369D01*
X90629Y176472D01*
X90837Y176589D01*
X91031Y176719D01*
X91212Y176874D01*
X91225Y176887D01*
X91251Y176913D01*
X91303Y176965D01*
X91355Y177029D01*
X91433Y177120D01*
X91510Y177224D01*
X91588Y177340D01*
X91679Y177470D01*
X91769Y177625D01*
X91847Y177794D01*
X91925Y177975D01*
X92003Y178169D01*
X92054Y178377D01*
X92106Y178584D01*
X92132Y178817D01*
X92145Y179063D01*
Y179128D01*
X92132Y179193D01*
Y179284D01*
X92119Y179400D01*
X92093Y179530D01*
X92067Y179685D01*
X92029Y179841D01*
X91977Y180022D01*
X91912Y180190D01*
X91847Y180385D01*
X91756Y180566D01*
X91640Y180747D01*
X91523Y180929D01*
X91381Y181110D01*
X91212Y181278D01*
X91199Y181291D01*
X91173Y181317D01*
X91109Y181356D01*
X91031Y181421D01*
X90940Y181486D01*
X90824Y181551D01*
X90681Y181628D01*
X90526Y181719D01*
X90344Y181797D01*
X90137Y181874D01*
X89917Y181939D01*
X89684Y182017D01*
X89425Y182069D01*
X89140Y182108D01*
X88842Y182133D01*
X88531Y182146D01*
D02*
G37*
G36*
X89969Y162767D02*
X89749D01*
X89736D01*
X89697D01*
X89632D01*
X89541Y162754D01*
X89438D01*
X89308Y162741D01*
X89036Y162702D01*
X88738Y162651D01*
X88414Y162560D01*
X88129Y162430D01*
X87987Y162353D01*
X87870Y162262D01*
X87857D01*
X87844Y162236D01*
X87780Y162171D01*
X87676Y162068D01*
X87559Y161925D01*
X87456Y161744D01*
X87352Y161537D01*
X87287Y161290D01*
X87261Y161161D01*
Y160967D01*
X87274Y160915D01*
X87300Y160772D01*
X87339Y160604D01*
X87417Y160410D01*
X87533Y160202D01*
X87598Y160099D01*
X87689Y159995D01*
X87780Y159891D01*
X87896Y159788D01*
X87909D01*
X87922Y159762D01*
X87961Y159736D01*
X88013Y159710D01*
X88077Y159671D01*
X88155Y159619D01*
X88246Y159580D01*
X88350Y159529D01*
X88479Y159477D01*
X88609Y159438D01*
X88764Y159386D01*
X88919Y159347D01*
X89101Y159321D01*
X89295Y159296D01*
X89489Y159270D01*
X89710D01*
X89723D01*
X89761D01*
X89826D01*
X89904D01*
X89995Y159283D01*
X90111D01*
X90357Y159309D01*
X90629Y159347D01*
X90914Y159399D01*
X91173Y159477D01*
X91290Y159529D01*
X91394Y159580D01*
X91407D01*
X91433Y159606D01*
X91471Y159632D01*
X91523Y159671D01*
X91666Y159788D01*
X91808Y159956D01*
X91964Y160151D01*
X92106Y160397D01*
X92158Y160526D01*
X92197Y160682D01*
X92223Y160824D01*
X92236Y160993D01*
Y161057D01*
X92223Y161109D01*
X92197Y161252D01*
X92158Y161420D01*
X92080Y161614D01*
X91977Y161821D01*
X91821Y162029D01*
X91718Y162132D01*
X91614Y162236D01*
X91601D01*
X91588Y162262D01*
X91549Y162288D01*
X91497Y162314D01*
X91433Y162366D01*
X91355Y162404D01*
X91251Y162456D01*
X91148Y162508D01*
X91018Y162547D01*
X90889Y162599D01*
X90733Y162651D01*
X90565Y162689D01*
X90383Y162715D01*
X90189Y162741D01*
X89969Y162767D01*
D02*
G37*
G36*
X90072Y152054D02*
X89852D01*
X89839D01*
X89787D01*
X89723D01*
X89632Y152041D01*
X89528D01*
X89399Y152028D01*
X89256Y152015D01*
X89101Y151989D01*
X88790Y151925D01*
X88466Y151834D01*
X88155Y151705D01*
X88026Y151627D01*
X87896Y151536D01*
X87883D01*
X87870Y151510D01*
X87793Y151445D01*
X87689Y151329D01*
X87572Y151186D01*
X87456Y151005D01*
X87365Y150785D01*
X87287Y150539D01*
X87274Y150409D01*
X87261Y150267D01*
Y150202D01*
X87274Y150150D01*
X87287Y150007D01*
X87339Y149839D01*
X87404Y149645D01*
X87521Y149438D01*
X87663Y149230D01*
X87767Y149127D01*
X87870Y149036D01*
X87883D01*
X87896Y149010D01*
X87935Y148997D01*
X87987Y148958D01*
X88052Y148919D01*
X88129Y148881D01*
X88220Y148842D01*
X88324Y148790D01*
X88453Y148738D01*
X88596Y148699D01*
X88751Y148660D01*
X88919Y148621D01*
X89101Y148596D01*
X89308Y148570D01*
X89528Y148544D01*
X89761D01*
X89775D01*
X89813D01*
X89878D01*
X89969Y148557D01*
X90072D01*
X90189Y148570D01*
X90461Y148609D01*
X90759Y148673D01*
X91070Y148764D01*
X91368Y148893D01*
X91497Y148971D01*
X91627Y149062D01*
Y149075D01*
X91653Y149088D01*
X91718Y149152D01*
X91821Y149269D01*
X91925Y149412D01*
X92041Y149593D01*
X92145Y149813D01*
X92210Y150046D01*
X92223Y150176D01*
X92236Y150305D01*
Y150370D01*
X92223Y150422D01*
X92210Y150564D01*
X92158Y150733D01*
X92093Y150927D01*
X91990Y151135D01*
X91847Y151342D01*
X91756Y151445D01*
X91653Y151536D01*
X91640D01*
X91627Y151562D01*
X91588Y151588D01*
X91536Y151614D01*
X91471Y151653D01*
X91407Y151705D01*
X91303Y151743D01*
X91199Y151795D01*
X91083Y151847D01*
X90953Y151886D01*
X90798Y151938D01*
X90642Y151976D01*
X90461Y152002D01*
X90280Y152028D01*
X90072Y152054D01*
D02*
G37*
G36*
X89127Y145318D02*
X89114D01*
X89088D01*
X89049Y145305D01*
X88997D01*
X88842Y145279D01*
X88673Y145240D01*
X88466Y145176D01*
X88272Y145111D01*
X88077Y145007D01*
X87909Y144891D01*
X87896D01*
X87883Y144865D01*
X87806Y144800D01*
X87702Y144683D01*
X87585Y144528D01*
X87469Y144334D01*
X87365Y144101D01*
X87287Y143828D01*
X87274Y143686D01*
X87261Y143531D01*
Y143453D01*
X87274Y143401D01*
X87287Y143258D01*
X87326Y143090D01*
X87391Y142883D01*
X87482Y142663D01*
X87611Y142455D01*
X87780Y142248D01*
X87806Y142222D01*
X87870Y142170D01*
X87987Y142080D01*
X88142Y141989D01*
X88324Y141885D01*
X88557Y141795D01*
X88829Y141717D01*
X89127Y141678D01*
Y145318D01*
D02*
G37*
G36*
X89904Y131198D02*
X89684D01*
X89671D01*
X89632D01*
X89567D01*
X89489Y131185D01*
X89386D01*
X89269Y131172D01*
X89010Y131133D01*
X88712Y131069D01*
X88414Y130978D01*
X88116Y130849D01*
X87987Y130758D01*
X87870Y130667D01*
X87857D01*
X87844Y130641D01*
X87780Y130576D01*
X87676Y130460D01*
X87559Y130304D01*
X87456Y130123D01*
X87352Y129903D01*
X87287Y129657D01*
X87261Y129527D01*
Y129320D01*
X87274Y129268D01*
X87287Y129126D01*
X87339Y128957D01*
X87404Y128750D01*
X87521Y128543D01*
X87663Y128336D01*
X87767Y128232D01*
X87870Y128128D01*
X87883D01*
X87896Y128102D01*
X87935Y128076D01*
X87987Y128050D01*
X88039Y128012D01*
X88116Y127973D01*
X88207Y127921D01*
X88311Y127882D01*
X88427Y127830D01*
X88570Y127778D01*
X88712Y127740D01*
X88868Y127701D01*
X89049Y127675D01*
X89230Y127649D01*
X89425Y127623D01*
X89645D01*
X89658D01*
X89697D01*
X89761D01*
X89852Y127636D01*
X89956D01*
X90085Y127649D01*
X90357Y127688D01*
X90668Y127753D01*
X90966Y127830D01*
X91264Y127960D01*
X91394Y128038D01*
X91510Y128128D01*
X91536Y128154D01*
X91601Y128219D01*
X91692Y128322D01*
X91795Y128478D01*
X91912Y128659D01*
X92003Y128879D01*
X92067Y129126D01*
X92080Y129255D01*
X92093Y129398D01*
Y129475D01*
X92080Y129527D01*
X92067Y129670D01*
X92015Y129851D01*
X91951Y130045D01*
X91847Y130266D01*
X91705Y130473D01*
X91614Y130576D01*
X91510Y130680D01*
X91497D01*
X91484Y130706D01*
X91446Y130732D01*
X91394Y130758D01*
X91342Y130797D01*
X91264Y130849D01*
X91173Y130887D01*
X91057Y130939D01*
X90940Y130991D01*
X90811Y131030D01*
X90655Y131082D01*
X90487Y131121D01*
X90318Y131146D01*
X90124Y131172D01*
X89904Y131198D01*
D02*
G37*
G36*
X89127Y115356D02*
X89114D01*
X89088D01*
X89049Y115343D01*
X88997D01*
X88842Y115317D01*
X88673Y115278D01*
X88466Y115213D01*
X88272Y115148D01*
X88077Y115045D01*
X87909Y114928D01*
X87896D01*
X87883Y114902D01*
X87806Y114837D01*
X87702Y114721D01*
X87585Y114565D01*
X87469Y114371D01*
X87365Y114138D01*
X87287Y113866D01*
X87274Y113723D01*
X87261Y113568D01*
Y113490D01*
X87274Y113438D01*
X87287Y113296D01*
X87326Y113127D01*
X87391Y112920D01*
X87482Y112700D01*
X87611Y112493D01*
X87780Y112285D01*
X87806Y112260D01*
X87870Y112208D01*
X87987Y112117D01*
X88142Y112026D01*
X88324Y111923D01*
X88557Y111832D01*
X88829Y111754D01*
X89127Y111715D01*
Y115356D01*
D02*
G37*
G36*
X88453Y108192D02*
X88440D01*
X88388D01*
X88324D01*
X88220Y108179D01*
X88103D01*
X87974Y108166D01*
X87818Y108153D01*
X87663Y108140D01*
X87313Y108075D01*
X86951Y107998D01*
X86614Y107881D01*
X86445Y107803D01*
X86303Y107726D01*
X86290D01*
X86264Y107700D01*
X86225Y107674D01*
X86173Y107648D01*
X86044Y107544D01*
X85888Y107415D01*
X85720Y107246D01*
X85552Y107052D01*
X85409Y106832D01*
X85292Y106599D01*
X85279Y106573D01*
X85267Y106508D01*
X85228Y106391D01*
X85189Y106223D01*
X85163Y106016D01*
X85124Y105757D01*
X85111Y105601D01*
Y105433D01*
X85098Y105264D01*
Y103192D01*
X91938D01*
Y105316D01*
X91925Y105407D01*
X91912Y105601D01*
X91899Y105821D01*
X91873Y106055D01*
X91834Y106288D01*
X91782Y106482D01*
X91769Y106508D01*
X91756Y106573D01*
X91718Y106663D01*
X91666Y106780D01*
X91588Y106910D01*
X91510Y107039D01*
X91420Y107169D01*
X91316Y107298D01*
X91290Y107311D01*
X91238Y107363D01*
X91148Y107441D01*
X91018Y107531D01*
X90850Y107635D01*
X90655Y107752D01*
X90435Y107855D01*
X90189Y107946D01*
X90176D01*
X90150Y107959D01*
X90111Y107972D01*
X90059Y107985D01*
X89995Y107998D01*
X89904Y108024D01*
X89813Y108049D01*
X89710Y108075D01*
X89451Y108114D01*
X89153Y108153D01*
X88816Y108179D01*
X88453Y108192D01*
D02*
G37*
G36*
X194322Y179932D02*
X191248Y175562D01*
X194322D01*
Y179932D01*
D02*
G37*
G36*
X185525Y180792D02*
X182452D01*
Y177564D01*
X185356D01*
X185525Y177578D01*
X185723Y177592D01*
X185948Y177606D01*
X186174Y177634D01*
X186399Y177677D01*
X186597Y177733D01*
X186625Y177747D01*
X186681Y177775D01*
X186766Y177818D01*
X186878Y177874D01*
X187005Y177959D01*
X187132Y178057D01*
X187259Y178184D01*
X187358Y178325D01*
X187372Y178339D01*
X187400Y178396D01*
X187442Y178480D01*
X187499Y178593D01*
X187541Y178720D01*
X187583Y178861D01*
X187612Y179030D01*
X187626Y179199D01*
Y179213D01*
Y179227D01*
X187612Y179312D01*
X187597Y179439D01*
X187569Y179608D01*
X187499Y179777D01*
X187414Y179974D01*
X187287Y180158D01*
X187118Y180341D01*
X187090Y180355D01*
X187019Y180411D01*
X186907Y180482D01*
X186723Y180567D01*
X186512Y180651D01*
X186230Y180722D01*
X185906Y180778D01*
X185525Y180792D01*
D02*
G37*
G36*
X185504Y154855D02*
X182431D01*
Y151627D01*
X185335D01*
X185504Y151641D01*
X185701Y151656D01*
X185927Y151670D01*
X186152Y151698D01*
X186378Y151740D01*
X186575Y151797D01*
X186604Y151811D01*
X186660Y151839D01*
X186744Y151881D01*
X186857Y151938D01*
X186984Y152022D01*
X187111Y152121D01*
X187238Y152248D01*
X187337Y152389D01*
X187351Y152403D01*
X187379Y152459D01*
X187421Y152544D01*
X187477Y152656D01*
X187520Y152783D01*
X187562Y152924D01*
X187590Y153093D01*
X187604Y153263D01*
Y153277D01*
Y153291D01*
X187590Y153375D01*
X187576Y153502D01*
X187548Y153671D01*
X187477Y153841D01*
X187393Y154038D01*
X187266Y154221D01*
X187097Y154404D01*
X187069Y154418D01*
X186998Y154475D01*
X186886Y154545D01*
X186702Y154630D01*
X186491Y154715D01*
X186209Y154785D01*
X185885Y154841D01*
X185504Y154855D01*
D02*
G37*
G36*
X185553Y206771D02*
X182480D01*
Y203543D01*
X185384D01*
X185553Y203557D01*
X185751Y203571D01*
X185976Y203585D01*
X186202Y203613D01*
X186427Y203655D01*
X186625Y203712D01*
X186653Y203726D01*
X186709Y203754D01*
X186794Y203797D01*
X186907Y203853D01*
X187034Y203937D01*
X187160Y204036D01*
X187287Y204163D01*
X187386Y204304D01*
X187400Y204318D01*
X187428Y204375D01*
X187470Y204459D01*
X187527Y204572D01*
X187569Y204699D01*
X187612Y204840D01*
X187640Y205009D01*
X187654Y205178D01*
Y205192D01*
Y205206D01*
X187640Y205291D01*
X187626Y205418D01*
X187597Y205587D01*
X187527Y205756D01*
X187442Y205953D01*
X187315Y206137D01*
X187146Y206320D01*
X187118Y206334D01*
X187048Y206390D01*
X186935Y206461D01*
X186751Y206545D01*
X186540Y206630D01*
X186258Y206700D01*
X185934Y206757D01*
X185553Y206771D01*
D02*
G37*
G36*
X128528Y206200D02*
X126273D01*
Y198757D01*
X128585D01*
X128683Y198771D01*
X128895Y198785D01*
X129134Y198799D01*
X129388Y198827D01*
X129642Y198870D01*
X129853Y198926D01*
X129881Y198940D01*
X129952Y198954D01*
X130051Y198997D01*
X130178Y199053D01*
X130318Y199138D01*
X130459Y199222D01*
X130601Y199321D01*
X130741Y199434D01*
X130756Y199462D01*
X130812Y199518D01*
X130897Y199617D01*
X130995Y199758D01*
X131108Y199941D01*
X131235Y200153D01*
X131348Y200392D01*
X131446Y200660D01*
Y200674D01*
X131460Y200702D01*
X131475Y200745D01*
X131489Y200801D01*
X131503Y200872D01*
X131531Y200970D01*
X131559Y201069D01*
X131587Y201182D01*
X131630Y201464D01*
X131672Y201788D01*
X131700Y202154D01*
X131714Y202549D01*
Y202563D01*
Y202619D01*
Y202690D01*
X131700Y202803D01*
Y202930D01*
X131686Y203071D01*
X131672Y203240D01*
X131658Y203409D01*
X131587Y203790D01*
X131503Y204184D01*
X131376Y204551D01*
X131291Y204734D01*
X131207Y204889D01*
Y204903D01*
X131179Y204931D01*
X131150Y204974D01*
X131122Y205030D01*
X131009Y205171D01*
X130868Y205340D01*
X130685Y205523D01*
X130474Y205707D01*
X130234Y205862D01*
X129980Y205989D01*
X129952Y206003D01*
X129881Y206017D01*
X129755Y206059D01*
X129571Y206101D01*
X129346Y206130D01*
X129064Y206172D01*
X128895Y206186D01*
X128712D01*
X128528Y206200D01*
D02*
G37*
%LPD*%
D10*
X147000Y158300D02*
G03*
X147000Y158300I-3000J0D01*
G01*
D11*
X157750Y184000D02*
G03*
X157750Y184000I-1250J0D01*
G01*
X186750Y56000D02*
G03*
X186750Y56000I-1250J0D01*
G01*
D12*
X37750Y284500D02*
Y287000D01*
Y284500D02*
X58750Y264000D01*
X61250D01*
X46897Y275593D02*
X58750Y264000D01*
X38000Y319000D02*
Y321250D01*
X47188Y330438D01*
X59500Y342750D02*
X61500D01*
X47188Y330438D02*
X59500Y342750D01*
X37750Y290000D02*
X38000Y316750D01*
X46897Y275593D02*
X49506Y273008D01*
X47188Y330438D02*
X50312Y333563D01*
X64000Y342710D02*
X196620D01*
Y263970D02*
Y342710D01*
X64000Y263970D02*
X196620D01*
X37750Y287000D02*
Y290000D01*
X61250Y264000D02*
X64000Y263970D01*
X61500Y342750D02*
X64000Y342710D01*
X38000Y316750D02*
Y319000D01*
X105900Y110000D02*
Y168500D01*
X156700Y110000D02*
Y168500D01*
X105900Y110000D02*
X156700D01*
X105900Y168500D02*
X156700D01*
X179200Y27920D02*
Y76920D01*
X21020Y27920D02*
Y76920D01*
X179200D01*
X21020Y27920D02*
X179200D01*
X21020Y32920D02*
X179200D01*
X177000Y158500D02*
Y169500D01*
Y183500D02*
Y194500D01*
Y132500D02*
Y143500D01*
M02*
