G04*
G04 #@! TF.GenerationSoftware,Altium Limited,Altium Designer,23.4.1 (23)*
G04*
G04 Layer_Color=2752767*
%FSLAX44Y44*%
%MOMM*%
G71*
G04*
G04 #@! TF.SameCoordinates,01B2709E-CF7D-401B-80F6-C698A41CF17C*
G04*
G04*
G04 #@! TF.FilePolarity,Positive*
G04*
G01*
G75*
%ADD30C,0.1693*%
%ADD31C,0.1270*%
D30*
X125100Y387980D02*
G03*
X125100Y387980I-5080J0D01*
G01*
X53100D02*
G03*
X53100Y387980I-5080J0D01*
G01*
X86100Y303020D02*
G03*
X86100Y303020I-5080J0D01*
G01*
X158100D02*
G03*
X158100Y303020I-5080J0D01*
G01*
D31*
X38000Y103920D02*
X40540Y106460D01*
X43080D01*
X40540Y109000D01*
X43080Y111540D01*
X40540D01*
X38000Y114080D01*
X35460Y111540D01*
X32920D01*
X35460Y109000D01*
X32920Y106460D01*
X35460D01*
X38000Y103920D01*
X178000Y104920D02*
X180540Y107460D01*
X183080D01*
X180540Y110000D01*
X183080Y112540D01*
X180540D01*
X178000Y115080D01*
X175460Y112540D01*
X172920D01*
X175460Y110000D01*
X172920Y107460D01*
X175460D01*
X178000Y104920D01*
X94920Y49920D02*
Y60080D01*
X105080D01*
Y49920D01*
X94920D01*
X40170D02*
Y60080D01*
X50330D01*
Y49920D01*
X40170D01*
X149670D02*
Y60080D01*
X159830D01*
Y49920D01*
X149670D01*
X143000Y219920D02*
X137920Y230080D01*
X148080D01*
X143000Y219920D01*
X168000D02*
X162920Y230080D01*
X173080D01*
X168000Y219920D01*
M02*
